<svg id="jobmap" width="300" height="250" style="fill: none; font-size: 10px; font-family: sans-serif;" xmlns="http://www.w3.org/2000/svg" xmlns:xlink="http://www.w3.org/1999/xlink">

                    <defs id="defsmain"><pattern id="userpic" width="100%" height="100%" patternContentUnits="objectBoundingBox"><image height="1" width="1" preserveAspectRatio="none" xmlns:xlink="http://www.w3.org/1999/xlink" xlink:href="src/images/u.png"/></pattern><marker id="arrow" markerWidth="10" markerHeight="10" refX="0" refY="3" orient="auto" markerUnits="strokeWidth"><path d="M0,0 L0,6 L9,3 z" style="fill: black;"/></marker></defs><rect class="pantarget" opacity="0" width="1146" height="762"/><g class="pannel" transform="translate(50,50)"><text class="Time" text-anchor="middle" x="40" dy="-30" style="font-weight: bold; fill: black;">Time</text><line x1="60" x2="95" y1="-33" y2="-33" marker-end="url(#arrow)" style="stroke: black;"/><text class="Time" text-anchor="middle" x="-5" dy="-1rem" style="font-weight: bold; fill: black;">Instance</text><line x1="5" x2="5" y1="-5" y2="30" marker-end="url(#arrow)" style="stroke: black;"/><g class="gNodeaxis" transform="translate(210,-10)"><g class="gMainaxis" fill="none" font-size="10" font-family="sans-serif" text-anchor="middle"><g class="tick" opacity="1" transform="translate(-180, 0)"><line stroke="#000" y2="145" vector-effect="non-scaling-stroke" style="stroke-width: 0.1; stroke: black; stroke-dasharray: 1, 2; opacity: 0.5;"/><text fill="#000" y="-3" dy="-0.5rem">1</text></g><g class="tick" opacity="1" transform="translate(-160, 0)"><line stroke="#000" y2="145" vector-effect="non-scaling-stroke" style="stroke-width: 0.1; stroke: black; stroke-dasharray: 1, 2; opacity: 0.5;"/><text fill="#000" y="-3" dy="-0.5rem">2</text></g><g class="tick" opacity="1" transform="translate(-140, 0)"><line stroke="#000" y2="145" vector-effect="non-scaling-stroke" style="stroke-width: 0.1; stroke: black; stroke-dasharray: 1, 2; opacity: 0.5;"/><text fill="#000" y="-3" dy="-0.5rem">3</text></g><g class="tick" opacity="1" transform="translate(-120, 0)"><line stroke="#000" y2="145" vector-effect="non-scaling-stroke" style="stroke-width: 0.1; stroke: black; stroke-dasharray: 1, 2; opacity: 0.5;"/><text fill="#000" y="-3" dy="-0.5rem">4</text></g><g class="tick" opacity="1" transform="translate(-100, 0)"><line stroke="#000" y2="145" vector-effect="non-scaling-stroke" style="stroke-width: 0.1; stroke: black; stroke-dasharray: 1, 2; opacity: 0.5;"/><text fill="#000" y="-3" dy="-0.5rem">5</text></g><g class="tick" opacity="1" transform="translate(-80, 0)"><line stroke="#000" y2="145" vector-effect="non-scaling-stroke" style="stroke-width: 0.1; stroke: black; stroke-dasharray: 1, 2; opacity: 0.5;"/><text fill="#000" y="-3" dy="-0.5rem">6</text></g><g class="tick" opacity="1" transform="translate(-60, 0)"><line stroke="#000" y2="145" vector-effect="non-scaling-stroke" style="stroke-width: 0.1; stroke: black; stroke-dasharray: 1, 2; opacity: 0.5;"/><text fill="#000" y="-3" dy="-0.5rem">7</text></g><g class="tick" opacity="1" transform="translate(-40, 0)"><line stroke="#000" y2="145" vector-effect="non-scaling-stroke" style="stroke-width: 0.1; stroke: black; stroke-dasharray: 1, 2; opacity: 0.5;"/><text fill="#000" y="-3" dy="-0.5rem">8</text></g><g class="tick" opacity="1" transform="translate(-20, 0)"><line stroke="#000" y2="145" vector-effect="non-scaling-stroke" style="stroke-width: 0.1; stroke: black; stroke-dasharray: 1, 2; opacity: 0.5;"/><text fill="#000" y="-3" dy="-0.5rem">9</text></g><g class="tick" opacity="1" transform=""><line stroke="#000" y2="145" vector-effect="non-scaling-stroke" style="stroke-width: 0.1; stroke: black; stroke-dasharray: 1, 2; opacity: 0.5;"/><text fill="#000" y="-3" dy="-0.5rem">10</text></g></g><g class="gSubaxis hide"/></g><g class="annotation"/><g class="linkg"><g class="links" style="display: none;"><path stroke="black" style="stroke-width: 2;"/><text text-anchor="middle">1</text></g><g class="links" style="display: none;"><path stroke="black" style="stroke-width: 2;"/><text text-anchor="middle">1</text></g><g class="links" style="display: none;"><path stroke="black" style="stroke-width: 2;"/><text text-anchor="middle">1</text></g><g class="links" style="display: none;"><path stroke="black" style="stroke-width: 2;"/><text text-anchor="middle">1</text></g><g class="links" style="display: none;"><path stroke="black" style="stroke-width: 2;"/><text text-anchor="middle">1</text></g><g class="links" style="display: none;"><path stroke="black" style="stroke-width: 2;"/><text text-anchor="middle">1</text></g><g class="links" style="display: none;"><path stroke="black" style="stroke-width: 2;"/><text text-anchor="middle">1</text></g><g class="links" style="display: none;"><path stroke="black" style="stroke-width: 2;"/><text text-anchor="middle">1</text></g><g class="links" style="display: none;"><path stroke="black" style="stroke-width: 2;"/><text text-anchor="middle">1</text></g><g class="links" style="display: none;"><path stroke="black" style="stroke-width: 2;"/><text text-anchor="middle">1</text></g><g class="links" style="display: none;"><path stroke="black" style="stroke-width: 2;"/><text text-anchor="middle">1</text></g></g><g class="nodeg"><g class="node computeNode h1 statics" transform="translate(210,0)" style="pointer-events: auto;"><g class="computeSig" stroke="black" style="stroke-width: 2;"><path class="linegg timeline hgroup_1" d="M-180,135C-173.33333333333334,135,-166.66666666666666,135,-160,135C-153.33333333333334,135,-146.66666666666666,135,-140,135C-133.33333333333334,135,-126.66666666666667,135,-120,135C-113.33333333333333,135,-106.66666666666667,135,-100,135C-96.66666666666667,135,-93.33333333333333,135,-90,135C-86.66666666666667,135,-83.33333333333333,122.72727272727273,-80,110.45454545454547" style="stroke: rgb(31, 119, 180); stroke-width: 2; fill: none;"/><path class="linegg timeline hgroup_3" d="M-80,110.45454545454547C-73.33333333333333,110.45454545454547,-66.66666666666667,110.45454545454547,-60,110.45454545454547C-53.333333333333336,110.45454545454547,-46.666666666666664,110.45454545454547,-40,110.45454545454547C-33.333333333333336,110.45454545454547,-26.666666666666668,110.45454545454547,-20,110.45454545454547C-13.333333333333332,110.45454545454547,-6.666666666666667,110.45454545454547,0,110.45454545454547" style="stroke: rgb(44, 160, 44); stroke-width: 2; fill: none;"/></g><text class="computeSig_label label" text-anchor="end" dx="-5" dy="0.5rem" fill="black" width="200" transform="translate(-180,135)">1</text></g><g class="node computeNode h2 statics" transform="translate(210,0)" style="pointer-events: auto;"><g class="computeSig" stroke="black" style="stroke-width: 2;"><path class="linegg timeline hgroup_2" d="M-180,61.36363636363636C-173.33333333333334,61.36363636363636,-166.66666666666666,61.36363636363636,-160,61.36363636363636C-156.66666666666666,61.36363636363636,-153.33333333333334,61.36363636363636,-150,61.36363636363636C-146.66666666666666,61.36363636363636,-143.33333333333334,46.022727272727266,-140,30.68181818181818" style="stroke: rgb(255, 127, 14); stroke-width: 2; fill: none;"/><path class="linegg timeline hgroup_4" d="M-140,30.68181818181818C-136.66666666666666,30.68181818181818,-133.33333333333334,30.68181818181818,-130,30.68181818181818C-126.66666666666667,30.68181818181818,-123.33333333333333,76.70454545454544,-120,122.72727272727272" style="stroke: rgb(214, 39, 40); stroke-width: 2;"/><path class="linegg timeline hgroup_1" d="M-120,122.72727272727272C-113.33333333333333,122.72727272727272,-106.66666666666667,122.72727272727272,-100,122.72727272727272C-93.33333333333333,122.72727272727272,-86.66666666666667,122.72727272727272,-80,122.72727272727272C-73.33333333333333,122.72727272727272,-66.66666666666667,122.72727272727272,-60,122.72727272727272C-53.333333333333336,122.72727272727272,-46.666666666666664,122.72727272727272,-40,122.72727272727272C-33.333333333333336,122.72727272727272,-26.666666666666668,122.72727272727272,-20,122.72727272727272C-13.333333333333332,122.72727272727272,-6.666666666666667,122.72727272727272,0,122.72727272727272" style="stroke: rgb(31, 119, 180); stroke-width: 2; fill: none;"/></g><text class="computeSig_label label" text-anchor="end" dx="-5" dy="0.5rem" fill="black" width="200" transform="translate(-180,61.36363636363636)">2</text></g><g class="node computeNode h3 statics" transform="translate(210,0)" style="pointer-events: auto;"><g class="computeSig" stroke="black" style="stroke-width: 2;"><path class="linegg timeline hgroup_3" d="M-180,79.77272727272728C-176.66666666666666,79.77272727272728,-173.33333333333334,79.77272727272728,-170,79.77272727272728C-166.66666666666666,79.77272727272728,-163.33333333333334,64.43181818181819,-160,49.09090909090909" style="stroke: rgb(44, 160, 44); stroke-width: 2;"/><path class="linegg timeline hgroup_2" d="M-160,49.09090909090909C-153.33333333333334,49.09090909090909,-146.66666666666666,49.09090909090909,-140,49.09090909090909C-133.33333333333334,49.09090909090909,-126.66666666666667,49.09090909090909,-120,49.09090909090909C-113.33333333333333,49.09090909090909,-106.66666666666667,49.09090909090909,-100,49.09090909090909C-93.33333333333333,49.09090909090909,-86.66666666666667,49.09090909090909,-80,49.09090909090909C-73.33333333333333,49.09090909090909,-66.66666666666667,49.09090909090909,-60,49.09090909090909C-53.333333333333336,49.09090909090909,-46.666666666666664,49.09090909090909,-40,49.09090909090909C-33.333333333333336,49.09090909090909,-26.666666666666668,49.09090909090909,-20,49.09090909090909C-13.333333333333332,49.09090909090909,-6.666666666666667,49.09090909090909,0,49.09090909090909" style="stroke: rgb(255, 127, 14); stroke-width: 2; fill: none;"/></g><text class="computeSig_label label" text-anchor="end" dx="-5" dy="0.5rem" fill="black" width="200" transform="translate(-180,79.77272727272728)">3</text></g><g class="node computeNode h4 statics" transform="translate(210,0)" style="pointer-events: auto;"><g class="computeSig" stroke="black" style="stroke-width: 2;"><path class="linegg timeline hgroup_4" d="M-180,24.545454545454547C-173.33333333333334,24.545454545454547,-166.66666666666666,24.545454545454547,-160,24.545454545454547C-153.33333333333334,24.545454545454547,-146.66666666666666,24.545454545454547,-140,24.545454545454547C-133.33333333333334,24.545454545454547,-126.66666666666667,24.545454545454547,-120,24.545454545454547C-113.33333333333333,24.545454545454547,-106.66666666666667,24.545454545454547,-100,24.545454545454547C-93.33333333333333,24.545454545454547,-86.66666666666667,24.545454545454547,-80,24.545454545454547C-73.33333333333333,24.545454545454547,-66.66666666666667,24.545454545454547,-60,24.545454545454547C-56.666666666666664,24.545454545454547,-53.333333333333336,24.545454545454547,-50,24.545454545454547C-46.666666666666664,24.545454545454547,-43.333333333333336,49.09090909090908,-40,73.63636363636363" style="stroke: rgb(214, 39, 40); stroke-width: 2; fill: none;"/><path class="linegg timeline hgroup_3" d="M-40,73.63636363636363C-36.666666666666664,73.63636363636363,-33.333333333333336,73.63636363636363,-30,73.63636363636363C-26.666666666666668,73.63636363636363,-23.333333333333332,58.29545454545454,-20,42.95454545454545" style="stroke: rgb(44, 160, 44); stroke-width: 2;"/><path class="linegg timeline hgroup_2" d="M-20,42.95454545454545L0,42.95454545454545" style="stroke: rgb(255, 127, 14); stroke-width: 2; fill: none;"/></g><text class="computeSig_label label" text-anchor="end" dx="-5" dy="0.5rem" fill="black" width="200" transform="translate(-180,24.545454545454547)">4</text></g><g class="node computeNode h5 statics" transform="translate(210,0)" style="pointer-events: auto;"><g class="computeSig" stroke="black" style="stroke-width: 2;"><path class="linegg timeline hgroup_3" d="M-180,92.04545454545453C-173.33333333333334,92.04545454545453,-166.66666666666666,92.04545454545453,-160,92.04545454545453C-153.33333333333334,92.04545454545453,-146.66666666666666,92.04545454545453,-140,92.04545454545453C-133.33333333333334,92.04545454545453,-126.66666666666667,92.04545454545453,-120,92.04545454545453C-113.33333333333333,92.04545454545453,-106.66666666666667,92.04545454545453,-100,92.04545454545453C-93.33333333333333,92.04545454545453,-86.66666666666667,92.04545454545453,-80,92.04545454545453C-73.33333333333333,92.04545454545453,-66.66666666666667,92.04545454545453,-60,92.04545454545453C-53.333333333333336,92.04545454545453,-46.666666666666664,92.04545454545453,-40,92.04545454545453C-33.333333333333336,92.04545454545453,-26.666666666666668,92.04545454545453,-20,92.04545454545453C-13.333333333333332,92.04545454545453,-6.666666666666667,92.04545454545453,0,92.04545454545453" style="stroke: rgb(44, 160, 44); stroke-width: 2; fill: none;"/></g><text class="computeSig_label label" text-anchor="end" dx="-5" dy="0.5rem" fill="black" width="200" transform="translate(-180,92.04545454545453)">5</text></g><g class="node computeNode h6 statics" transform="translate(210,0)" style="pointer-events: auto;"><g class="computeSig" stroke="black" style="stroke-width: 2;"><path class="linegg timeline hgroup_5" d="M-180,6.13636363636364C-173.33333333333334,6.13636363636364,-166.66666666666666,6.13636363636364,-160,6.13636363636364C-153.33333333333334,6.13636363636364,-146.66666666666666,6.13636363636364,-140,6.13636363636364C-133.33333333333334,6.13636363636364,-126.66666666666667,6.13636363636364,-120,6.13636363636364C-113.33333333333333,6.13636363636364,-106.66666666666667,6.13636363636364,-100,6.13636363636364C-93.33333333333333,6.13636363636364,-86.66666666666667,6.13636363636364,-80,6.13636363636364C-73.33333333333333,6.13636363636364,-66.66666666666667,6.13636363636364,-60,6.13636363636364C-53.333333333333336,6.13636363636364,-46.666666666666664,6.13636363636364,-40,6.13636363636364C-33.333333333333336,6.13636363636364,-26.666666666666668,6.13636363636364,-20,6.13636363636364C-13.333333333333332,6.13636363636364,-6.666666666666667,6.13636363636364,0,6.13636363636364" style="stroke: rgb(148, 103, 189); stroke-width: 2; fill: none;"/></g><text class="computeSig_label label" text-anchor="end" dx="-5" dy="0.5rem" fill="black" width="200" transform="translate(-180,6.136363636363637)">6</text></g><g class="node computeNode h7 statics" transform="translate(210,0)" style="pointer-events: auto;"><g class="computeSig" stroke="black" style="stroke-width: 2;"><path class="linegg timeline hgroup_3" d="M-180,85.9090909090909C-173.33333333333334,85.9090909090909,-166.66666666666666,85.9090909090909,-160,85.9090909090909C-153.33333333333334,85.9090909090909,-146.66666666666666,85.9090909090909,-140,85.9090909090909C-133.33333333333334,85.9090909090909,-126.66666666666667,85.9090909090909,-120,85.9090909090909C-116.66666666666667,85.9090909090909,-113.33333333333333,85.9090909090909,-110,85.9090909090909C-106.66666666666667,85.9090909090909,-103.33333333333333,70.56818181818181,-100,55.227272727272734" style="stroke: rgb(44, 160, 44); stroke-width: 2; fill: none;"/><path class="linegg timeline hgroup_2" d="M-100,55.227272727272734C-93.33333333333333,55.227272727272734,-86.66666666666667,55.227272727272734,-80,55.227272727272734C-73.33333333333333,55.227272727272734,-66.66666666666667,55.227272727272734,-60,55.227272727272734C-53.333333333333336,55.227272727272734,-46.666666666666664,55.227272727272734,-40,55.227272727272734C-33.333333333333336,55.227272727272734,-26.666666666666668,55.227272727272734,-20,55.227272727272734C-13.333333333333332,55.227272727272734,-6.666666666666667,55.227272727272734,0,55.227272727272734" style="stroke: rgb(255, 127, 14); stroke-width: 2; fill: none;"/></g><text class="computeSig_label label" text-anchor="end" dx="-5" dy="0.5rem" fill="black" width="200" transform="translate(-180,85.9090909090909)">7</text></g><g class="node computeNode h8 statics" transform="translate(210,0)" style="pointer-events: auto;"><g class="computeSig" stroke="black" style="stroke-width: 2;"><path class="linegg timeline hgroup_4" d="M-180,18.409090909090907C-173.33333333333334,18.409090909090907,-166.66666666666666,18.409090909090907,-160,18.409090909090907C-153.33333333333334,18.409090909090907,-146.66666666666666,18.409090909090907,-140,18.409090909090907C-133.33333333333334,18.409090909090907,-126.66666666666667,18.409090909090907,-120,18.409090909090907C-113.33333333333333,18.409090909090907,-106.66666666666667,18.409090909090907,-100,18.409090909090907C-93.33333333333333,18.409090909090907,-86.66666666666667,18.409090909090907,-80,18.409090909090907C-73.33333333333333,18.409090909090907,-66.66666666666667,18.409090909090907,-60,18.409090909090907C-53.333333333333336,18.409090909090907,-46.666666666666664,18.409090909090907,-40,18.409090909090907C-33.333333333333336,18.409090909090907,-26.666666666666668,18.409090909090907,-20,18.409090909090907C-13.333333333333332,18.409090909090907,-6.666666666666667,18.409090909090907,0,18.409090909090907" style="stroke: rgb(214, 39, 40); stroke-width: 2; fill: none;"/></g><text class="computeSig_label label" text-anchor="end" dx="-5" dy="0.5rem" fill="black" width="200" transform="translate(-180,18.409090909090907)">8</text></g><g class="node computeNode h9 statics" transform="translate(210,0)" style="pointer-events: auto;"><g class="computeSig" stroke="black" style="stroke-width: 2;"><path class="linegg timeline hgroup_3" d="M-180,98.18181818181819C-173.33333333333334,98.18181818181819,-166.66666666666666,98.18181818181819,-160,98.18181818181819C-153.33333333333334,98.18181818181819,-146.66666666666666,98.18181818181819,-140,98.18181818181819C-133.33333333333334,98.18181818181819,-126.66666666666667,98.18181818181819,-120,98.18181818181819C-113.33333333333333,98.18181818181819,-106.66666666666667,98.18181818181819,-100,98.18181818181819C-93.33333333333333,98.18181818181819,-86.66666666666667,98.18181818181819,-80,98.18181818181819C-73.33333333333333,98.18181818181819,-66.66666666666667,98.18181818181819,-60,98.18181818181819C-53.333333333333336,98.18181818181819,-46.666666666666664,98.18181818181819,-40,98.18181818181819C-33.333333333333336,98.18181818181819,-26.666666666666668,98.18181818181819,-20,98.18181818181819C-13.333333333333332,98.18181818181819,-6.666666666666667,98.18181818181819,0,98.18181818181819" style="stroke: rgb(44, 160, 44); stroke-width: 2; fill: none;"/></g><text class="computeSig_label label" text-anchor="end" dx="-5" dy="0.5rem" fill="black" width="200" transform="translate(-180,98.18181818181819)">9</text></g><g class="node computeNode h10 statics" transform="translate(210,0)" style="pointer-events: auto;"><g class="computeSig" stroke="black" style="stroke-width: 2;"><path class="linegg timeline hgroup_2" d="M-180,67.5C-176.66666666666666,67.5,-173.33333333333334,67.5,-170,67.5C-166.66666666666666,67.5,-163.33333333333334,85.9090909090909,-160,104.31818181818181" style="stroke: rgb(255, 127, 14); stroke-width: 2;"/><path class="linegg timeline hgroup_3" d="M-160,104.31818181818181C-156.66666666666666,104.31818181818181,-153.33333333333334,104.31818181818181,-150,104.31818181818181C-146.66666666666666,104.31818181818181,-143.33333333333334,85.9090909090909,-140,67.5" style="stroke: rgb(44, 160, 44); stroke-width: 2;"/><path class="linegg timeline hgroup_2" d="M-140,67.5C-133.33333333333334,67.5,-126.66666666666667,67.5,-120,67.5C-116.66666666666667,67.5,-113.33333333333333,67.5,-110,67.5C-106.66666666666667,67.5,-103.33333333333333,98.18181818181819,-100,128.86363636363637" style="stroke: rgb(255, 127, 14); stroke-width: 2; fill: none;"/><path class="linegg timeline hgroup_1" d="M-100,128.86363636363637C-93.33333333333333,128.86363636363637,-86.66666666666667,128.86363636363637,-80,128.86363636363637C-73.33333333333333,128.86363636363637,-66.66666666666667,128.86363636363637,-60,128.86363636363637C-53.333333333333336,128.86363636363637,-46.666666666666664,128.86363636363637,-40,128.86363636363637C-33.333333333333336,128.86363636363637,-26.666666666666668,128.86363636363637,-20,128.86363636363637C-13.333333333333332,128.86363636363637,-6.666666666666667,128.86363636363637,0,128.86363636363637" style="stroke: rgb(31, 119, 180); stroke-width: 2; fill: none;"/></g><text class="computeSig_label label" text-anchor="end" dx="-5" dy="0.5rem" fill="black" width="200" transform="translate(-180,67.5)">10</text></g></g><rect class="fisheyeLayer" style="opacity: 0; pointer-events: none;" width="180" height="180" transform="translate(120,0)"/><g class="table header" transform="translate(600,0)"><g class="back"><path style="fill: rgb(221, 221, 221);"/></g></g></g><g class="timebox hide" transform="translate(40,20)" dy="1rem" style="font-size: 16px;"/><circle id="tipfollowscursor" cx="1008" cy="124"/></svg>