<svg id="jobmap" width="300" height="250" style="fill: none; font-size: 10px; font-family: sans-serif;" xmlns="http://www.w3.org/2000/svg" xmlns:xlink="http://www.w3.org/1999/xlink">

                    <defs id="defsmain"><pattern id="userpic" width="100%" height="100%" patternContentUnits="objectBoundingBox"><image height="1" width="1" preserveAspectRatio="none" xmlns:xlink="http://www.w3.org/1999/xlink" xlink:href="src/images/u.png"/></pattern><marker id="arrow" markerWidth="10" markerHeight="10" refX="0" refY="3" orient="auto" markerUnits="strokeWidth"><path d="M0,0 L0,6 L9,3 z" style="fill: black;"/></marker></defs><rect class="pantarget" opacity="0" width="1146" height="762"/><g class="pannel" transform="translate(50,50)"><text class="Time" text-anchor="middle" x="40" dy="-30" style="font-weight: bold; fill: black;">Time</text><line x1="60" x2="95" y1="-33" y2="-33" marker-end="url(#arrow)" style="stroke: black;"/><text class="Time" text-anchor="middle" x="-5" dy="-1rem" style="font-weight: bold; fill: black;">Instance</text><line x1="5" x2="5" y1="-5" y2="30" marker-end="url(#arrow)" style="stroke: black;"/><g class="gNodeaxis" transform="translate(210,-10)"><g class="gMainaxis" fill="none" font-size="10" font-family="sans-serif" text-anchor="middle"><g class="tick" opacity="1" transform="translate(-180, 0)"><line stroke="#000" y2="145" vector-effect="non-scaling-stroke" style="stroke-width: 0.1; stroke: black; stroke-dasharray: 1, 2; opacity: 0.5;"/><text fill="#000" y="-3" dy="-0.5rem">1</text></g><g class="tick" opacity="1" transform="translate(-160, 0)"><line stroke="#000" y2="145" vector-effect="non-scaling-stroke" style="stroke-width: 0.1; stroke: black; stroke-dasharray: 1, 2; opacity: 0.5;"/><text fill="#000" y="-3" dy="-0.5rem">2</text></g><g class="tick" opacity="1" transform="translate(-140, 0)"><line stroke="#000" y2="145" vector-effect="non-scaling-stroke" style="stroke-width: 0.1; stroke: black; stroke-dasharray: 1, 2; opacity: 0.5;"/><text fill="#000" y="-3" dy="-0.5rem">3</text></g><g class="tick" opacity="1" transform="translate(-120, 0)"><line stroke="#000" y2="145" vector-effect="non-scaling-stroke" style="stroke-width: 0.1; stroke: black; stroke-dasharray: 1, 2; opacity: 0.5;"/><text fill="#000" y="-3" dy="-0.5rem">4</text></g><g class="tick" opacity="1" transform="translate(-100, 0)"><line stroke="#000" y2="145" vector-effect="non-scaling-stroke" style="stroke-width: 0.1; stroke: black; stroke-dasharray: 1, 2; opacity: 0.5;"/><text fill="#000" y="-3" dy="-0.5rem">5</text></g><g class="tick" opacity="1" transform="translate(-80, 0)"><line stroke="#000" y2="145" vector-effect="non-scaling-stroke" style="stroke-width: 0.1; stroke: black; stroke-dasharray: 1, 2; opacity: 0.5;"/><text fill="#000" y="-3" dy="-0.5rem">6</text></g><g class="tick" opacity="1" transform="translate(-60, 0)"><line stroke="#000" y2="145" vector-effect="non-scaling-stroke" style="stroke-width: 0.1; stroke: black; stroke-dasharray: 1, 2; opacity: 0.5;"/><text fill="#000" y="-3" dy="-0.5rem">7</text></g><g class="tick" opacity="1" transform="translate(-40, 0)"><line stroke="#000" y2="145" vector-effect="non-scaling-stroke" style="stroke-width: 0.1; stroke: black; stroke-dasharray: 1, 2; opacity: 0.5;"/><text fill="#000" y="-3" dy="-0.5rem">8</text></g><g class="tick" opacity="1" transform="translate(-20, 0)"><line stroke="#000" y2="145" vector-effect="non-scaling-stroke" style="stroke-width: 0.1; stroke: black; stroke-dasharray: 1, 2; opacity: 0.5;"/><text fill="#000" y="-3" dy="-0.5rem">9</text></g><g class="tick" opacity="1" transform="translate(0, 0)"><line stroke="#000" y2="145" vector-effect="non-scaling-stroke" style="stroke-width: 0.1; stroke: black; stroke-dasharray: 1, 2; opacity: 0.5;"/><text fill="#000" y="-3" dy="-0.5rem">10</text></g></g><g class="gSubaxis hide"/></g><g class="annotation"/><g class="linkg"><g class="links" style="display: none;"><path stroke="black" style="stroke-width: 2;"/><text text-anchor="middle">1</text></g><g class="links" style="display: none;"><path stroke="black" style="stroke-width: 2;"/><text text-anchor="middle">1</text></g><g class="links" style="display: none;"><path stroke="black" style="stroke-width: 2;"/><text text-anchor="middle">1</text></g><g class="links" style="display: none;"><path stroke="black" style="stroke-width: 2;"/><text text-anchor="middle">1</text></g><g class="links" style="display: none;"><path stroke="black" style="stroke-width: 2;"/><text text-anchor="middle">1</text></g><g class="links" style="display: none;"><path stroke="black" style="stroke-width: 2;"/><text text-anchor="middle">1</text></g><g class="links" style="display: none;"><path stroke="black" style="stroke-width: 2;"/><text text-anchor="middle">1</text></g><g class="links" style="display: none;"><path stroke="black" style="stroke-width: 2;"/><text text-anchor="middle">1</text></g><g class="links" style="display: none;"><path stroke="black" style="stroke-width: 2;"/><text text-anchor="middle">1</text></g><g class="links" style="display: none;"><path stroke="black" style="stroke-width: 2;"/><text text-anchor="middle">1</text></g><g class="links" style="display: none;"><path stroke="black" style="stroke-width: 2;"/><text text-anchor="middle">1</text></g></g><g class="nodeg"><g class="node computeNode h1 statics" transform="translate(210,0)" style="pointer-events: auto;"><g class="computeSig" stroke="black" style="stroke-width: 2;"><path class="linegg timeline hgroup_1" d="M-180,0C-173.33333333333334,0,-166.66666666666666,0,-160,0C-153.33333333333334,0,-146.66666666666666,0,-140,0C-133.33333333333334,0,-126.66666666666667,0,-120,0C-113.33333333333333,0,-106.66666666666667,0,-100,0" style="stroke: rgb(31, 119, 180); stroke-width: 2;"/><path class="linegg timeline hgroup_3" d="M-80,0C-73.33333333333333,0,-66.66666666666667,0,-60,0C-53.333333333333336,0,-46.666666666666664,0,-40,0C-33.333333333333336,0,-26.666666666666668,0,-20,0C-13.333333333333332,0,-6.666666666666667,0,0,0" style="stroke: rgb(44, 160, 44); stroke-width: 2;"/><g class="linkLinegg timeline" transform="translate(-180,0)" style="opacity: 1;"><g class="compute linkLineg hgroup_1" transform="translate(-15,-15)" style="display: none;"><svg width="30" height="30" class="radarGen radarPlot"><g id="radarGroup" transform="translate(15,15)"><g class="radarWrapper"><path class="radarStroke" d="M2.1482638534260654,-2.560201165160795C2.383047204236101,-2.182740155406938,2.3920086344480422,-1.0590921028574651,2.8174002097204265,-0.496783672427399C3.2427917849928107,0.06552475800266705,7.250232119084107,3.493537040640834,7.252962756694674,4.187499999999998C7.255693394305242,4.881462959359162,3.693282982467837,7.523903031625738,2.850167861047241,7.83077183988257C2.007052739626645,8.137640648139403,-2.0254981815260114,8.175267796849974,-2.864418700352475,7.869925699081983C-3.7033392191789383,7.564583601313991,-7.084994714091715,4.887837979279938,-7.216878364870321,4.1666666666666705C-7.348762015648927,3.445495354053403,-4.7679142718392855,-0.10260334720264719,-4.447022509695753,-0.7841300522772306C-4.12613074755222,-1.4656567573518142,-3.7367624282892438,-3.6581383161286265,-3.366177219147931,-4.011653794228331C-2.995592010006618,-4.3651692723280355,-0.459536756047833,-5.147270175229312,0,-5.026315789473684C0.459536756047833,-4.905361403718056,1.91348050261603,-2.937662174914652,2.1482638534260654,-2.560201165160795" style="stroke-width: 0.5px; stroke-opacity: 1; stroke: rgb(31, 119, 180); fill-opacity: 0.8; fill: rgb(31, 119, 180);"/></g><text class="tooltip" style="opacity: 0;"/></g><text class="currentTimeText" x="10" y="12" fill="#000" font-family="sans-serif" style="text-anchor: start; font-weight: bold; font-size: 12px; text-shadow: rgb(255, 255, 255) 1px 1px 0px;"/></svg></g></g><g class="linkLinegg timeline" transform="translate(-80,0)" style="opacity: 1;"><g class="compute linkLineg hgroup_3" transform="translate(-15,-15)"><svg width="30" height="30" class="radarGen radarPlot"><g id="radarGroup" transform="translate(15,15)"><g class="radarWrapper"><path class="radarStroke" d="M2.5542349753333533,-3.044018708183307C3.0911214024270297,-2.3952652182245115,6.120238227674013,-1.6987067555331203,6.442637125124115,-1.1360107520734004C6.765036022574217,-0.5733147486136805,6.755646141786545,3.0524604554689643,6.423021744734587,3.7083333333333317C6.09039734768263,4.3642062111977,3.1977836222561793,6.4627093152854975,2.451144360500627,6.73446378229901C1.7045050987450745,7.006218249312523,-1.815177750141284,7.23198114157596,-2.5366493963320424,6.9693869374954875C-3.258121042522801,6.706792733415015,-5.807527204897122,4.271741271574443,-6.206515393788476,3.5833333333333366C-6.60550358267983,2.89492539509223,-7.290555096310151,-0.3360476987526444,-7.324507663028298,-1.2915083213977916C-7.358460229746444,-2.246968944042939,-7.2243218329919285,-7.246398779226668,-6.613946194406237,-7.882194138408431C-6.003570555820546,-8.517989497590193,-0.7640150974782991,-9.324233917431041,0,-8.921052631578947C0.7640150974782991,-8.517871345726853,2.017348548239677,-3.6927721981421024,2.5542349753333533,-3.044018708183307" style="stroke-width: 0.5px; stroke-opacity: 1; stroke: rgb(44, 160, 44); fill-opacity: 0.8; fill: rgb(44, 160, 44);"/></g><text class="tooltip" style="opacity: 0;"/></g><text class="currentTimeText" x="10" y="12" fill="#000" font-family="sans-serif" style="text-anchor: start; font-weight: bold; font-size: 12px; text-shadow: rgb(255, 255, 255) 1px 1px 0px;"/></svg></g></g></g><text class="computeSig_label label" text-anchor="end" dx="-5" dy="0.5rem" fill="black" width="200" transform="translate(-180,0)">1</text></g><g class="node computeNode h2 statics" transform="translate(210,0)" style="pointer-events: auto;"><g class="computeSig" stroke="black" style="stroke-width: 2;"><path class="linegg timeline hgroup_2" d="M-180,15L-160,15" style="stroke: rgb(255, 127, 14); stroke-width: 2;"/><path class="linegg timeline hgroup_1" d="M-120,15C-113.33333333333333,15,-106.66666666666667,15,-100,15C-93.33333333333333,15,-86.66666666666667,15,-80,15C-73.33333333333333,15,-66.66666666666667,15,-60,15C-53.333333333333336,15,-46.666666666666664,15,-40,15C-33.333333333333336,15,-26.666666666666668,15,-20,15C-13.333333333333332,15,-6.666666666666667,15,0,15" style="stroke: rgb(31, 119, 180); stroke-width: 2;"/><g class="linkLinegg timeline" transform="translate(-180,15)" style="opacity: 1;"><g class="compute linkLineg hgroup_2" transform="translate(-15,-15)" style="display: none;"><svg width="30" height="30" class="radarGen radarPlot"><g id="radarGroup" transform="translate(15,15)"><g class="radarWrapper"><path class="radarStroke" d="M2.5542349753333533,-3.044018708183307C2.785208452923077,-2.2360613535841214,2.3801210826299073,-1.091348830140839,2.771681731076684,-0.4887222711255635C3.163242379523461,0.11390428788971191,7.242859536037486,3.484420359282801,7.252962756694674,4.187499999999998C7.263065977351863,4.8905796407171955,3.7395982102098544,7.631576144424123,2.8929203789629496,7.948233417480808C2.046242547716045,8.264890690537493,-2.055666891659323,8.297309505914733,-2.9071712182681835,7.987387276680222C-3.758675544877044,7.67746504744571,-6.960867075231904,5.001729653312493,-7.325131540343376,4.2291666666666705C-7.6893960054548485,3.4566036800208475,-7.281225367057933,-0.20689161500471354,-7.278344799605851,-1.2833685630696543C-7.275464232153768,-2.359845511134595,-7.897093464218871,-7.946819879842106,-7.290564730918383,-8.688556710112618C-6.684035997617896,-9.43029354038313,-0.820399975520978,-10.654588693143232,0,-10.18421052631579C0.820399975520978,-9.713832359488347,2.3232614977436294,-3.8519760627824926,2.5542349753333533,-3.044018708183307" style="stroke-width: 0.5px; stroke-opacity: 1; stroke: rgb(255, 127, 14); fill-opacity: 0.8; fill: rgb(255, 127, 14);"/></g><text class="tooltip" style="opacity: 0;"/></g><text class="currentTimeText" x="10" y="12" fill="#000" font-family="sans-serif" style="text-anchor: start; font-weight: bold; font-size: 12px; text-shadow: rgb(255, 255, 255) 1px 1px 0px;"/></svg></g></g><g class="linkLinegg timeline" transform="translate(-140,15)" style="opacity: 1;"><g class="compute linkLineg hgroup_4" transform="translate(-15,-15)"><svg width="30" height="30" class="radarGen radarPlot"><g id="radarGroup" transform="translate(15,15)"><g class="radarWrapper"><path class="radarStroke" d="M2.3512494143797094,-2.802109936672051C3.345156483713109,-2.4006081833474964,11.605612667050062,-2.6351518641847367,11.926884832000793,-2.1030315916842883C12.248156996951524,-1.5709113191838397,6.996160433080158,2.84687538550139,6.206515393788478,3.5833333333333317C5.4168703544967975,4.319791281165273,3.1702408668071795,6.478395221418439,2.451144360500627,6.73446378229901C1.7320478541940745,6.990532343179582,-1.701171035699394,6.9187502679806565,-2.4226426818901525,6.656156063900184C-3.144114328080911,6.3935618598197115,-5.8185434735480515,4.242021028406773,-6.206515393788476,3.5833333333333366C-6.594487314028901,2.9246456382599,-7.157122914142457,-0.42702941628660984,-7.078305724775246,-1.248096276981059C-6.999488535408036,-2.0691631376755084,-5.85056793177988,-5.796722632116897,-5.260709121381942,-6.269468995000055C-4.6708503109840045,-6.742215357883212,-0.6343298779801376,-7.209999219772948,0,-6.921052631578948C0.6343298779801376,-6.6321060433849475,1.35734234504631,-3.203611689996606,2.3512494143797094,-2.802109936672051" style="stroke-width: 0.5px; stroke-opacity: 1; stroke: rgb(214, 39, 40); fill-opacity: 0.8; fill: rgb(214, 39, 40);"/></g><text class="tooltip" style="opacity: 0;"/></g><text class="currentTimeText" x="10" y="12" fill="#000" font-family="sans-serif" style="text-anchor: start; font-weight: bold; font-size: 12px; text-shadow: rgb(255, 255, 255) 1px 1px 0px;"/></svg></g></g><g class="linkLinegg timeline" transform="translate(-120,15)" style="opacity: 1;"><g class="compute linkLineg hgroup_1" transform="translate(-15,-15)"><svg width="30" height="30" class="radarGen radarPlot"><g id="radarGroup" transform="translate(15,15)"><g class="radarWrapper"><path class="radarStroke" d="M2.1482638534260654,-2.560201165160795C2.383047204236101,-2.182740155406938,2.3920086344480422,-1.0590921028574651,2.8174002097204265,-0.496783672427399C3.2427917849928107,0.06552475800266705,7.250232119084107,3.493537040640834,7.252962756694674,4.187499999999998C7.255693394305242,4.881462959359162,3.693282982467837,7.523903031625738,2.850167861047241,7.83077183988257C2.007052739626645,8.137640648139403,-2.0254981815260114,8.175267796849974,-2.864418700352475,7.869925699081983C-3.7033392191789383,7.564583601313991,-7.084994714091715,4.887837979279938,-7.216878364870321,4.1666666666666705C-7.348762015648927,3.445495354053403,-4.7679142718392855,-0.10260334720264719,-4.447022509695753,-0.7841300522772306C-4.12613074755222,-1.4656567573518142,-3.7367624282892438,-3.6581383161286265,-3.366177219147931,-4.011653794228331C-2.995592010006618,-4.3651692723280355,-0.459536756047833,-5.147270175229312,0,-5.026315789473684C0.459536756047833,-4.905361403718056,1.91348050261603,-2.937662174914652,2.1482638534260654,-2.560201165160795" style="stroke-width: 0.5px; stroke-opacity: 1; stroke: rgb(31, 119, 180); fill-opacity: 0.8; fill: rgb(31, 119, 180);"/></g><text class="tooltip" style="opacity: 0;"/></g><text class="currentTimeText" x="10" y="12" fill="#000" font-family="sans-serif" style="text-anchor: start; font-weight: bold; font-size: 12px; text-shadow: rgb(255, 255, 255) 1px 1px 0px;"/></svg></g></g></g><text class="computeSig_label label" text-anchor="end" dx="-5" dy="0.5rem" fill="black" width="200" transform="translate(-180,15)">2</text></g><g class="node computeNode h3 statics" transform="translate(210,0)" style="pointer-events: auto;"><g class="computeSig" stroke="black" style="stroke-width: 2;"><path class="linegg timeline hgroup_2" d="M-160,30C-153.33333333333334,30,-146.66666666666666,30,-140,30C-133.33333333333334,30,-126.66666666666667,30,-120,30C-113.33333333333333,30,-106.66666666666667,30,-100,30C-93.33333333333333,30,-86.66666666666667,30,-80,30C-73.33333333333333,30,-66.66666666666667,30,-60,30C-53.333333333333336,30,-46.666666666666664,30,-40,30C-33.333333333333336,30,-26.666666666666668,30,-20,30C-13.333333333333332,30,-6.666666666666667,30,0,30" style="stroke: rgb(255, 127, 14); stroke-width: 2;"/><g class="linkLinegg timeline" transform="translate(-180,30)" style="opacity: 1;"><g class="compute linkLineg hgroup_3" transform="translate(-15,-15)" style="display: none;"><svg width="30" height="30" class="radarGen radarPlot"><g id="radarGroup" transform="translate(15,15)"><g class="radarWrapper"><path class="radarStroke" d="M2.5542349753333533,-3.044018708183307C3.0911214024270297,-2.3952652182245115,6.120238227674013,-1.6987067555331203,6.442637125124115,-1.1360107520734004C6.765036022574217,-0.5733147486136805,6.755646141786545,3.0524604554689643,6.423021744734587,3.7083333333333317C6.09039734768263,4.3642062111977,3.1977836222561793,6.4627093152854975,2.451144360500627,6.73446378229901C1.7045050987450745,7.006218249312523,-1.815177750141284,7.23198114157596,-2.5366493963320424,6.9693869374954875C-3.258121042522801,6.706792733415015,-5.807527204897122,4.271741271574443,-6.206515393788476,3.5833333333333366C-6.60550358267983,2.89492539509223,-7.290555096310151,-0.3360476987526444,-7.324507663028298,-1.2915083213977916C-7.358460229746444,-2.246968944042939,-7.2243218329919285,-7.246398779226668,-6.613946194406237,-7.882194138408431C-6.003570555820546,-8.517989497590193,-0.7640150974782991,-9.324233917431041,0,-8.921052631578947C0.7640150974782991,-8.517871345726853,2.017348548239677,-3.6927721981421024,2.5542349753333533,-3.044018708183307" style="stroke-width: 0.5px; stroke-opacity: 1; stroke: rgb(44, 160, 44); fill-opacity: 0.8; fill: rgb(44, 160, 44);"/></g><text class="tooltip" style="opacity: 0;"/></g><text class="currentTimeText" x="10" y="12" fill="#000" font-family="sans-serif" style="text-anchor: start; font-weight: bold; font-size: 12px; text-shadow: rgb(255, 255, 255) 1px 1px 0px;"/></svg></g></g><g class="linkLinegg timeline" transform="translate(-160,30)" style="opacity: 1;"><g class="compute linkLineg hgroup_2" transform="translate(-15,-15)"><svg width="30" height="30" class="radarGen radarPlot"><g id="radarGroup" transform="translate(15,15)"><g class="radarWrapper"><path class="radarStroke" d="M2.5542349753333533,-3.044018708183307C2.785208452923077,-2.2360613535841214,2.3801210826299073,-1.091348830140839,2.771681731076684,-0.4887222711255635C3.163242379523461,0.11390428788971191,7.242859536037486,3.484420359282801,7.252962756694674,4.187499999999998C7.263065977351863,4.8905796407171955,3.7395982102098544,7.631576144424123,2.8929203789629496,7.948233417480808C2.046242547716045,8.264890690537493,-2.055666891659323,8.297309505914733,-2.9071712182681835,7.987387276680222C-3.758675544877044,7.67746504744571,-6.960867075231904,5.001729653312493,-7.325131540343376,4.2291666666666705C-7.6893960054548485,3.4566036800208475,-7.281225367057933,-0.20689161500471354,-7.278344799605851,-1.2833685630696543C-7.275464232153768,-2.359845511134595,-7.897093464218871,-7.946819879842106,-7.290564730918383,-8.688556710112618C-6.684035997617896,-9.43029354038313,-0.820399975520978,-10.654588693143232,0,-10.18421052631579C0.820399975520978,-9.713832359488347,2.3232614977436294,-3.8519760627824926,2.5542349753333533,-3.044018708183307" style="stroke-width: 0.5px; stroke-opacity: 1; stroke: rgb(255, 127, 14); fill-opacity: 0.8; fill: rgb(255, 127, 14);"/></g><text class="tooltip" style="opacity: 0;"/></g><text class="currentTimeText" x="10" y="12" fill="#000" font-family="sans-serif" style="text-anchor: start; font-weight: bold; font-size: 12px; text-shadow: rgb(255, 255, 255) 1px 1px 0px;"/></svg></g></g></g><text class="computeSig_label label" text-anchor="end" dx="-5" dy="0.5rem" fill="black" width="200" transform="translate(-180,30)">3</text></g><g class="node computeNode h4 statics" transform="translate(210,0)" style="pointer-events: auto;"><g class="computeSig" stroke="black" style="stroke-width: 2;"><path class="linegg timeline hgroup_4" d="M-180,45C-173.33333333333334,45,-166.66666666666666,45,-160,45C-153.33333333333334,45,-146.66666666666666,45,-140,45C-133.33333333333334,45,-126.66666666666667,45,-120,45C-113.33333333333333,45,-106.66666666666667,45,-100,45C-93.33333333333333,45,-86.66666666666667,45,-80,45C-73.33333333333333,45,-66.66666666666667,45,-60,45" style="stroke: rgb(214, 39, 40); stroke-width: 2;"/><path class="linegg timeline hgroup_2" d="M-20,45L0,45" style="stroke: rgb(255, 127, 14); stroke-width: 2;"/><g class="linkLinegg timeline" transform="translate(-180,45)" style="opacity: 1;"><g class="compute linkLineg hgroup_4" transform="translate(-15,-15)" style="display: none;"><svg width="30" height="30" class="radarGen radarPlot"><g id="radarGroup" transform="translate(15,15)"><g class="radarWrapper"><path class="radarStroke" d="M2.3512494143797094,-2.802109936672051C3.345156483713109,-2.4006081833474964,11.605612667050062,-2.6351518641847367,11.926884832000793,-2.1030315916842883C12.248156996951524,-1.5709113191838397,6.996160433080158,2.84687538550139,6.206515393788478,3.5833333333333317C5.4168703544967975,4.319791281165273,3.1702408668071795,6.478395221418439,2.451144360500627,6.73446378229901C1.7320478541940745,6.990532343179582,-1.701171035699394,6.9187502679806565,-2.4226426818901525,6.656156063900184C-3.144114328080911,6.3935618598197115,-5.8185434735480515,4.242021028406773,-6.206515393788476,3.5833333333333366C-6.594487314028901,2.9246456382599,-7.157122914142457,-0.42702941628660984,-7.078305724775246,-1.248096276981059C-6.999488535408036,-2.0691631376755084,-5.85056793177988,-5.796722632116897,-5.260709121381942,-6.269468995000055C-4.6708503109840045,-6.742215357883212,-0.6343298779801376,-7.209999219772948,0,-6.921052631578948C0.6343298779801376,-6.6321060433849475,1.35734234504631,-3.203611689996606,2.3512494143797094,-2.802109936672051" style="stroke-width: 0.5px; stroke-opacity: 1; stroke: rgb(214, 39, 40); fill-opacity: 0.8; fill: rgb(214, 39, 40);"/></g><text class="tooltip" style="opacity: 0;"/></g><text class="currentTimeText" x="10" y="12" fill="#000" font-family="sans-serif" style="text-anchor: start; font-weight: bold; font-size: 12px; text-shadow: rgb(255, 255, 255) 1px 1px 0px;"/></svg></g></g><g class="linkLinegg timeline" transform="translate(-40,45)" style="opacity: 1;"><g class="compute linkLineg hgroup_3" transform="translate(-15,-15)"><svg width="30" height="30" class="radarGen radarPlot"><g id="radarGroup" transform="translate(15,15)"><g class="radarWrapper"><path class="radarStroke" d="M2.5542349753333533,-3.044018708183307C3.0911214024270297,-2.3952652182245115,6.120238227674013,-1.6987067555331203,6.442637125124115,-1.1360107520734004C6.765036022574217,-0.5733147486136805,6.755646141786545,3.0524604554689643,6.423021744734587,3.7083333333333317C6.09039734768263,4.3642062111977,3.1977836222561793,6.4627093152854975,2.451144360500627,6.73446378229901C1.7045050987450745,7.006218249312523,-1.815177750141284,7.23198114157596,-2.5366493963320424,6.9693869374954875C-3.258121042522801,6.706792733415015,-5.807527204897122,4.271741271574443,-6.206515393788476,3.5833333333333366C-6.60550358267983,2.89492539509223,-7.290555096310151,-0.3360476987526444,-7.324507663028298,-1.2915083213977916C-7.358460229746444,-2.246968944042939,-7.2243218329919285,-7.246398779226668,-6.613946194406237,-7.882194138408431C-6.003570555820546,-8.517989497590193,-0.7640150974782991,-9.324233917431041,0,-8.921052631578947C0.7640150974782991,-8.517871345726853,2.017348548239677,-3.6927721981421024,2.5542349753333533,-3.044018708183307" style="stroke-width: 0.5px; stroke-opacity: 1; stroke: rgb(44, 160, 44); fill-opacity: 0.8; fill: rgb(44, 160, 44);"/></g><text class="tooltip" style="opacity: 0;"/></g><text class="currentTimeText" x="10" y="12" fill="#000" font-family="sans-serif" style="text-anchor: start; font-weight: bold; font-size: 12px; text-shadow: rgb(255, 255, 255) 1px 1px 0px;"/></svg></g></g><g class="linkLinegg timeline" transform="translate(-20,45)" style="opacity: 1;"><g class="compute linkLineg hgroup_2" transform="translate(-15,-15)"><svg width="30" height="30" class="radarGen radarPlot"><g id="radarGroup" transform="translate(15,15)"><g class="radarWrapper"><path class="radarStroke" d="M2.5542349753333533,-3.044018708183307C2.785208452923077,-2.2360613535841214,2.3801210826299073,-1.091348830140839,2.771681731076684,-0.4887222711255635C3.163242379523461,0.11390428788971191,7.242859536037486,3.484420359282801,7.252962756694674,4.187499999999998C7.263065977351863,4.8905796407171955,3.7395982102098544,7.631576144424123,2.8929203789629496,7.948233417480808C2.046242547716045,8.264890690537493,-2.055666891659323,8.297309505914733,-2.9071712182681835,7.987387276680222C-3.758675544877044,7.67746504744571,-6.960867075231904,5.001729653312493,-7.325131540343376,4.2291666666666705C-7.6893960054548485,3.4566036800208475,-7.281225367057933,-0.20689161500471354,-7.278344799605851,-1.2833685630696543C-7.275464232153768,-2.359845511134595,-7.897093464218871,-7.946819879842106,-7.290564730918383,-8.688556710112618C-6.684035997617896,-9.43029354038313,-0.820399975520978,-10.654588693143232,0,-10.18421052631579C0.820399975520978,-9.713832359488347,2.3232614977436294,-3.8519760627824926,2.5542349753333533,-3.044018708183307" style="stroke-width: 0.5px; stroke-opacity: 1; stroke: rgb(255, 127, 14); fill-opacity: 0.8; fill: rgb(255, 127, 14);"/></g><text class="tooltip" style="opacity: 0;"/></g><text class="currentTimeText" x="10" y="12" fill="#000" font-family="sans-serif" style="text-anchor: start; font-weight: bold; font-size: 12px; text-shadow: rgb(255, 255, 255) 1px 1px 0px;"/></svg></g></g></g><text class="computeSig_label label" text-anchor="end" dx="-5" dy="0.5rem" fill="black" width="200" transform="translate(-180,45)">4</text></g><g class="node computeNode h5 statics" transform="translate(210,0)" style="pointer-events: auto;"><g class="computeSig" stroke="black" style="stroke-width: 2;"><path class="linegg timeline hgroup_3" d="M-180,60C-173.33333333333334,60,-166.66666666666666,60,-160,60C-153.33333333333334,60,-146.66666666666666,60,-140,60C-133.33333333333334,60,-126.66666666666667,60,-120,60C-113.33333333333333,60,-106.66666666666667,60,-100,60C-93.33333333333333,60,-86.66666666666667,60,-80,60C-73.33333333333333,60,-66.66666666666667,60,-60,60C-53.333333333333336,60,-46.666666666666664,60,-40,60C-33.333333333333336,60,-26.666666666666668,60,-20,60C-13.333333333333332,60,-6.666666666666667,60,0,60" style="stroke: rgb(44, 160, 44); stroke-width: 2;"/><g class="linkLinegg timeline" transform="translate(-180,60)" style="opacity: 1;"><g class="compute linkLineg hgroup_3" transform="translate(-15,-15)" style="display: none;"><svg width="30" height="30" class="radarGen radarPlot"><g id="radarGroup" transform="translate(15,15)"><g class="radarWrapper"><path class="radarStroke" d="M2.5542349753333533,-3.044018708183307C3.0911214024270297,-2.3952652182245115,6.120238227674013,-1.6987067555331203,6.442637125124115,-1.1360107520734004C6.765036022574217,-0.5733147486136805,6.755646141786545,3.0524604554689643,6.423021744734587,3.7083333333333317C6.09039734768263,4.3642062111977,3.1977836222561793,6.4627093152854975,2.451144360500627,6.73446378229901C1.7045050987450745,7.006218249312523,-1.815177750141284,7.23198114157596,-2.5366493963320424,6.9693869374954875C-3.258121042522801,6.706792733415015,-5.807527204897122,4.271741271574443,-6.206515393788476,3.5833333333333366C-6.60550358267983,2.89492539509223,-7.290555096310151,-0.3360476987526444,-7.324507663028298,-1.2915083213977916C-7.358460229746444,-2.246968944042939,-7.2243218329919285,-7.246398779226668,-6.613946194406237,-7.882194138408431C-6.003570555820546,-8.517989497590193,-0.7640150974782991,-9.324233917431041,0,-8.921052631578947C0.7640150974782991,-8.517871345726853,2.017348548239677,-3.6927721981421024,2.5542349753333533,-3.044018708183307" style="stroke-width: 0.5px; stroke-opacity: 1; stroke: rgb(44, 160, 44); fill-opacity: 0.8; fill: rgb(44, 160, 44);"/></g><text class="tooltip" style="opacity: 0;"/></g><text class="currentTimeText" x="10" y="12" fill="#000" font-family="sans-serif" style="text-anchor: start; font-weight: bold; font-size: 12px; text-shadow: rgb(255, 255, 255) 1px 1px 0px;"/></svg></g></g></g><text class="computeSig_label label" text-anchor="end" dx="-5" dy="0.5rem" fill="black" width="200" transform="translate(-180,60)">5</text></g><g class="node computeNode h6 statics" transform="translate(210,0)" style="pointer-events: auto;"><g class="computeSig" stroke="black" style="stroke-width: 2;"><path class="linegg timeline hgroup_5" d="M-180,75C-173.33333333333334,75,-166.66666666666666,75,-160,75C-153.33333333333334,75,-146.66666666666666,75,-140,75C-133.33333333333334,75,-126.66666666666667,75,-120,75C-113.33333333333333,75,-106.66666666666667,75,-100,75C-93.33333333333333,75,-86.66666666666667,75,-80,75C-73.33333333333333,75,-66.66666666666667,75,-60,75C-53.333333333333336,75,-46.666666666666664,75,-40,75C-33.333333333333336,75,-26.666666666666668,75,-20,75C-13.333333333333332,75,-6.666666666666667,75,0,75" style="stroke: rgb(148, 103, 189); stroke-width: 2;"/><g class="linkLinegg timeline" transform="translate(-180,75)" style="opacity: 1;"><g class="compute linkLineg hgroup_5" transform="translate(-15,-15)" style="display: none;"><svg width="30" height="30" class="radarGen radarPlot"><g id="radarGroup" transform="translate(15,15)"><g class="radarWrapper"><path class="radarStroke" d="M2.7572205362869973,-3.2859274796945637C3.004677546993172,-2.761578371107175,2.639944433220567,-1.1203441272767594,2.9694841284741007,-0.5236001706355459C3.2990238237276346,0.07314378600566762,6.738265880804415,3.2244818348561375,6.711696879329401,3.8749999999999987C6.685127877854387,4.52551816514386,3.4308521932825453,6.998649660166557,2.650656110773934,7.28261781109079C1.870460028265323,7.566585962015023,-1.8644459629612626,7.563113739792801,-2.6506561107739324,7.282617811090791C-3.436866258586602,7.002121882388781,-6.429000181190407,4.625072358961283,-6.783865662978102,3.9166666666666705C-7.1387311447657975,3.2082609743720583,-7.035971604025953,-0.3694058579723285,-6.909041892226273,-1.2182504964445555C-6.7821121804265925,-2.0670951349167828,-5.836462612400798,-5.803007413563416,-5.260709121381942,-6.269468995000055C-4.684955630363087,-6.735930576436693,-0.668160804805745,-7.064417933293002,0,-6.815789473684211C0.668160804805745,-6.5671610140754195,2.5097635255808224,-3.8102765882819525,2.7572205362869973,-3.2859274796945637" style="stroke-width: 0.5px; stroke-opacity: 1; stroke: rgb(148, 103, 189); fill-opacity: 0.8; fill: rgb(148, 103, 189);"/></g><text class="tooltip" style="opacity: 0;"/></g><text class="currentTimeText" x="10" y="12" fill="#000" font-family="sans-serif" style="text-anchor: start; font-weight: bold; font-size: 12px; text-shadow: rgb(255, 255, 255) 1px 1px 0px;"/></svg></g></g></g><text class="computeSig_label label" text-anchor="end" dx="-5" dy="0.5rem" fill="black" width="200" transform="translate(-180,75)">6</text></g><g class="node computeNode h7 statics" transform="translate(210,0)" style="pointer-events: auto;"><g class="computeSig" stroke="black" style="stroke-width: 2;"><path class="linegg timeline hgroup_3" d="M-180,90C-173.33333333333334,90,-166.66666666666666,90,-160,90C-153.33333333333334,90,-146.66666666666666,90,-140,90C-133.33333333333334,90,-126.66666666666667,90,-120,90" style="stroke: rgb(44, 160, 44); stroke-width: 2;"/><path class="linegg timeline hgroup_2" d="M-100,90C-93.33333333333333,90,-86.66666666666667,90,-80,90C-73.33333333333333,90,-66.66666666666667,90,-60,90C-53.333333333333336,90,-46.666666666666664,90,-40,90C-33.333333333333336,90,-26.666666666666668,90,-20,90C-13.333333333333332,90,-6.666666666666667,90,0,90" style="stroke: rgb(255, 127, 14); stroke-width: 2;"/><g class="linkLinegg timeline" transform="translate(-180,90)" style="opacity: 1;"><g class="compute linkLineg hgroup_3" transform="translate(-15,-15)" style="display: none;"><svg width="30" height="30" class="radarGen radarPlot"><g id="radarGroup" transform="translate(15,15)"><g class="radarWrapper"><path class="radarStroke" d="M2.5542349753333533,-3.044018708183307C3.0911214024270297,-2.3952652182245115,6.120238227674013,-1.6987067555331203,6.442637125124115,-1.1360107520734004C6.765036022574217,-0.5733147486136805,6.755646141786545,3.0524604554689643,6.423021744734587,3.7083333333333317C6.09039734768263,4.3642062111977,3.1977836222561793,6.4627093152854975,2.451144360500627,6.73446378229901C1.7045050987450745,7.006218249312523,-1.815177750141284,7.23198114157596,-2.5366493963320424,6.9693869374954875C-3.258121042522801,6.706792733415015,-5.807527204897122,4.271741271574443,-6.206515393788476,3.5833333333333366C-6.60550358267983,2.89492539509223,-7.290555096310151,-0.3360476987526444,-7.324507663028298,-1.2915083213977916C-7.358460229746444,-2.246968944042939,-7.2243218329919285,-7.246398779226668,-6.613946194406237,-7.882194138408431C-6.003570555820546,-8.517989497590193,-0.7640150974782991,-9.324233917431041,0,-8.921052631578947C0.7640150974782991,-8.517871345726853,2.017348548239677,-3.6927721981421024,2.5542349753333533,-3.044018708183307" style="stroke-width: 0.5px; stroke-opacity: 1; stroke: rgb(44, 160, 44); fill-opacity: 0.8; fill: rgb(44, 160, 44);"/></g><text class="tooltip" style="opacity: 0;"/></g><text class="currentTimeText" x="10" y="12" fill="#000" font-family="sans-serif" style="text-anchor: start; font-weight: bold; font-size: 12px; text-shadow: rgb(255, 255, 255) 1px 1px 0px;"/></svg></g></g><g class="linkLinegg timeline" transform="translate(-100,90)" style="opacity: 1;"><g class="compute linkLineg hgroup_2" transform="translate(-15,-15)"><svg width="30" height="30" class="radarGen radarPlot"><g id="radarGroup" transform="translate(15,15)"><g class="radarWrapper"><path class="radarStroke" d="M2.5542349753333533,-3.044018708183307C2.785208452923077,-2.2360613535841214,2.3801210826299073,-1.091348830140839,2.771681731076684,-0.4887222711255635C3.163242379523461,0.11390428788971191,7.242859536037486,3.484420359282801,7.252962756694674,4.187499999999998C7.263065977351863,4.8905796407171955,3.7395982102098544,7.631576144424123,2.8929203789629496,7.948233417480808C2.046242547716045,8.264890690537493,-2.055666891659323,8.297309505914733,-2.9071712182681835,7.987387276680222C-3.758675544877044,7.67746504744571,-6.960867075231904,5.001729653312493,-7.325131540343376,4.2291666666666705C-7.6893960054548485,3.4566036800208475,-7.281225367057933,-0.20689161500471354,-7.278344799605851,-1.2833685630696543C-7.275464232153768,-2.359845511134595,-7.897093464218871,-7.946819879842106,-7.290564730918383,-8.688556710112618C-6.684035997617896,-9.43029354038313,-0.820399975520978,-10.654588693143232,0,-10.18421052631579C0.820399975520978,-9.713832359488347,2.3232614977436294,-3.8519760627824926,2.5542349753333533,-3.044018708183307" style="stroke-width: 0.5px; stroke-opacity: 1; stroke: rgb(255, 127, 14); fill-opacity: 0.8; fill: rgb(255, 127, 14);"/></g><text class="tooltip" style="opacity: 0;"/></g><text class="currentTimeText" x="10" y="12" fill="#000" font-family="sans-serif" style="text-anchor: start; font-weight: bold; font-size: 12px; text-shadow: rgb(255, 255, 255) 1px 1px 0px;"/></svg></g></g></g><text class="computeSig_label label" text-anchor="end" dx="-5" dy="0.5rem" fill="black" width="200" transform="translate(-180,90)">7</text></g><g class="node computeNode h8 statics" transform="translate(210,0)" style="pointer-events: auto;"><g class="computeSig" stroke="black" style="stroke-width: 2;"><path class="linegg timeline hgroup_4" d="M-180,105C-173.33333333333334,105,-166.66666666666666,105,-160,105C-153.33333333333334,105,-146.66666666666666,105,-140,105C-133.33333333333334,105,-126.66666666666667,105,-120,105C-113.33333333333333,105,-106.66666666666667,105,-100,105C-93.33333333333333,105,-86.66666666666667,105,-80,105C-73.33333333333333,105,-66.66666666666667,105,-60,105C-53.333333333333336,105,-46.666666666666664,105,-40,105C-33.333333333333336,105,-26.666666666666668,105,-20,105C-13.333333333333332,105,-6.666666666666667,105,0,105" style="stroke: rgb(214, 39, 40); stroke-width: 2;"/><g class="linkLinegg timeline" transform="translate(-180,105)" style="opacity: 1;"><g class="compute linkLineg hgroup_4" transform="translate(-15,-15)" style="display: none;"><svg width="30" height="30" class="radarGen radarPlot"><g id="radarGroup" transform="translate(15,15)"><g class="radarWrapper"><path class="radarStroke" d="M2.3512494143797094,-2.802109936672051C3.345156483713109,-2.4006081833474964,11.605612667050062,-2.6351518641847367,11.926884832000793,-2.1030315916842883C12.248156996951524,-1.5709113191838397,6.996160433080158,2.84687538550139,6.206515393788478,3.5833333333333317C5.4168703544967975,4.319791281165273,3.1702408668071795,6.478395221418439,2.451144360500627,6.73446378229901C1.7320478541940745,6.990532343179582,-1.701171035699394,6.9187502679806565,-2.4226426818901525,6.656156063900184C-3.144114328080911,6.3935618598197115,-5.8185434735480515,4.242021028406773,-6.206515393788476,3.5833333333333366C-6.594487314028901,2.9246456382599,-7.157122914142457,-0.42702941628660984,-7.078305724775246,-1.248096276981059C-6.999488535408036,-2.0691631376755084,-5.85056793177988,-5.796722632116897,-5.260709121381942,-6.269468995000055C-4.6708503109840045,-6.742215357883212,-0.6343298779801376,-7.209999219772948,0,-6.921052631578948C0.6343298779801376,-6.6321060433849475,1.35734234504631,-3.203611689996606,2.3512494143797094,-2.802109936672051" style="stroke-width: 0.5px; stroke-opacity: 1; stroke: rgb(214, 39, 40); fill-opacity: 0.8; fill: rgb(214, 39, 40);"/></g><text class="tooltip" style="opacity: 0;"/></g><text class="currentTimeText" x="10" y="12" fill="#000" font-family="sans-serif" style="text-anchor: start; font-weight: bold; font-size: 12px; text-shadow: rgb(255, 255, 255) 1px 1px 0px;"/></svg></g></g></g><text class="computeSig_label label" text-anchor="end" dx="-5" dy="0.5rem" fill="black" width="200" transform="translate(-180,105)">8</text></g><g class="node computeNode h9 statics" transform="translate(210,0)" style="pointer-events: auto;"><g class="computeSig" stroke="black" style="stroke-width: 2;"><path class="linegg timeline hgroup_3" d="M-180,120C-173.33333333333334,120,-166.66666666666666,120,-160,120C-153.33333333333334,120,-146.66666666666666,120,-140,120C-133.33333333333334,120,-126.66666666666667,120,-120,120C-113.33333333333333,120,-106.66666666666667,120,-100,120C-93.33333333333333,120,-86.66666666666667,120,-80,120C-73.33333333333333,120,-66.66666666666667,120,-60,120C-53.333333333333336,120,-46.666666666666664,120,-40,120C-33.333333333333336,120,-26.666666666666668,120,-20,120C-13.333333333333332,120,-6.666666666666667,120,0,120" style="stroke: rgb(44, 160, 44); stroke-width: 2;"/><g class="linkLinegg timeline" transform="translate(-180,120)" style="opacity: 1;"><g class="compute linkLineg hgroup_3" transform="translate(-15,-15)" style="display: none;"><svg width="30" height="30" class="radarGen radarPlot"><g id="radarGroup" transform="translate(15,15)"><g class="radarWrapper"><path class="radarStroke" d="M2.5542349753333533,-3.044018708183307C3.0911214024270297,-2.3952652182245115,6.120238227674013,-1.6987067555331203,6.442637125124115,-1.1360107520734004C6.765036022574217,-0.5733147486136805,6.755646141786545,3.0524604554689643,6.423021744734587,3.7083333333333317C6.09039734768263,4.3642062111977,3.1977836222561793,6.4627093152854975,2.451144360500627,6.73446378229901C1.7045050987450745,7.006218249312523,-1.815177750141284,7.23198114157596,-2.5366493963320424,6.9693869374954875C-3.258121042522801,6.706792733415015,-5.807527204897122,4.271741271574443,-6.206515393788476,3.5833333333333366C-6.60550358267983,2.89492539509223,-7.290555096310151,-0.3360476987526444,-7.324507663028298,-1.2915083213977916C-7.358460229746444,-2.246968944042939,-7.2243218329919285,-7.246398779226668,-6.613946194406237,-7.882194138408431C-6.003570555820546,-8.517989497590193,-0.7640150974782991,-9.324233917431041,0,-8.921052631578947C0.7640150974782991,-8.517871345726853,2.017348548239677,-3.6927721981421024,2.5542349753333533,-3.044018708183307" style="stroke-width: 0.5px; stroke-opacity: 1; stroke: rgb(44, 160, 44); fill-opacity: 0.8; fill: rgb(44, 160, 44);"/></g><text class="tooltip" style="opacity: 0;"/></g><text class="currentTimeText" x="10" y="12" fill="#000" font-family="sans-serif" style="text-anchor: start; font-weight: bold; font-size: 12px; text-shadow: rgb(255, 255, 255) 1px 1px 0px;"/></svg></g></g></g><text class="computeSig_label label" text-anchor="end" dx="-5" dy="0.5rem" fill="black" width="200" transform="translate(-180,120)">9</text></g><g class="node computeNode h10 statics" transform="translate(210,0)" style="pointer-events: auto;"><g class="computeSig" stroke="black" style="stroke-width: 2;"><path class="linegg timeline hgroup_2" d="M-140,135L-120,135" style="stroke: rgb(255, 127, 14); stroke-width: 2;"/><path class="linegg timeline hgroup_1" d="M-100,135C-93.33333333333333,135,-86.66666666666667,135,-80,135C-73.33333333333333,135,-66.66666666666667,135,-60,135C-53.333333333333336,135,-46.666666666666664,135,-40,135C-33.333333333333336,135,-26.666666666666668,135,-20,135C-13.333333333333332,135,-6.666666666666667,135,0,135" style="stroke: rgb(31, 119, 180); stroke-width: 2;"/><g class="linkLinegg timeline" transform="translate(-180,135)" style="opacity: 1;"><g class="compute linkLineg hgroup_2" transform="translate(-15,-15)" style="display: none;"><svg width="30" height="30" class="radarGen radarPlot"><g id="radarGroup" transform="translate(15,15)"><g class="radarWrapper"><path class="radarStroke" d="M2.5542349753333533,-3.044018708183307C2.785208452923077,-2.2360613535841214,2.3801210826299073,-1.091348830140839,2.771681731076684,-0.4887222711255635C3.163242379523461,0.11390428788971191,7.242859536037486,3.484420359282801,7.252962756694674,4.187499999999998C7.263065977351863,4.8905796407171955,3.7395982102098544,7.631576144424123,2.8929203789629496,7.948233417480808C2.046242547716045,8.264890690537493,-2.055666891659323,8.297309505914733,-2.9071712182681835,7.987387276680222C-3.758675544877044,7.67746504744571,-6.960867075231904,5.001729653312493,-7.325131540343376,4.2291666666666705C-7.6893960054548485,3.4566036800208475,-7.281225367057933,-0.20689161500471354,-7.278344799605851,-1.2833685630696543C-7.275464232153768,-2.359845511134595,-7.897093464218871,-7.946819879842106,-7.290564730918383,-8.688556710112618C-6.684035997617896,-9.43029354038313,-0.820399975520978,-10.654588693143232,0,-10.18421052631579C0.820399975520978,-9.713832359488347,2.3232614977436294,-3.8519760627824926,2.5542349753333533,-3.044018708183307" style="stroke-width: 0.5px; stroke-opacity: 1; stroke: rgb(255, 127, 14); fill-opacity: 0.8; fill: rgb(255, 127, 14);"/></g><text class="tooltip" style="opacity: 0;"/></g><text class="currentTimeText" x="10" y="12" fill="#000" font-family="sans-serif" style="text-anchor: start; font-weight: bold; font-size: 12px; text-shadow: rgb(255, 255, 255) 1px 1px 0px;"/></svg></g></g><g class="linkLinegg timeline" transform="translate(-160,135)" style="opacity: 1;"><g class="compute linkLineg hgroup_3" transform="translate(-15,-15)"><svg width="30" height="30" class="radarGen radarPlot"><g id="radarGroup" transform="translate(15,15)"><g class="radarWrapper"><path class="radarStroke" d="M2.5542349753333533,-3.044018708183307C3.0911214024270297,-2.3952652182245115,6.120238227674013,-1.6987067555331203,6.442637125124115,-1.1360107520734004C6.765036022574217,-0.5733147486136805,6.755646141786545,3.0524604554689643,6.423021744734587,3.7083333333333317C6.09039734768263,4.3642062111977,3.1977836222561793,6.4627093152854975,2.451144360500627,6.73446378229901C1.7045050987450745,7.006218249312523,-1.815177750141284,7.23198114157596,-2.5366493963320424,6.9693869374954875C-3.258121042522801,6.706792733415015,-5.807527204897122,4.271741271574443,-6.206515393788476,3.5833333333333366C-6.60550358267983,2.89492539509223,-7.290555096310151,-0.3360476987526444,-7.324507663028298,-1.2915083213977916C-7.358460229746444,-2.246968944042939,-7.2243218329919285,-7.246398779226668,-6.613946194406237,-7.882194138408431C-6.003570555820546,-8.517989497590193,-0.7640150974782991,-9.324233917431041,0,-8.921052631578947C0.7640150974782991,-8.517871345726853,2.017348548239677,-3.6927721981421024,2.5542349753333533,-3.044018708183307" style="stroke-width: 0.5px; stroke-opacity: 1; stroke: rgb(44, 160, 44); fill-opacity: 0.8; fill: rgb(44, 160, 44);"/></g><text class="tooltip" style="opacity: 0;"/></g><text class="currentTimeText" x="10" y="12" fill="#000" font-family="sans-serif" style="text-anchor: start; font-weight: bold; font-size: 12px; text-shadow: rgb(255, 255, 255) 1px 1px 0px;"/></svg></g></g><g class="linkLinegg timeline" transform="translate(-140,135)" style="opacity: 1;"><g class="compute linkLineg hgroup_2" transform="translate(-15,-15)"><svg width="30" height="30" class="radarGen radarPlot"><g id="radarGroup" transform="translate(15,15)"><g class="radarWrapper"><path class="radarStroke" d="M2.5542349753333533,-3.044018708183307C2.785208452923077,-2.2360613535841214,2.3801210826299073,-1.091348830140839,2.771681731076684,-0.4887222711255635C3.163242379523461,0.11390428788971191,7.242859536037486,3.484420359282801,7.252962756694674,4.187499999999998C7.263065977351863,4.8905796407171955,3.7395982102098544,7.631576144424123,2.8929203789629496,7.948233417480808C2.046242547716045,8.264890690537493,-2.055666891659323,8.297309505914733,-2.9071712182681835,7.987387276680222C-3.758675544877044,7.67746504744571,-6.960867075231904,5.001729653312493,-7.325131540343376,4.2291666666666705C-7.6893960054548485,3.4566036800208475,-7.281225367057933,-0.20689161500471354,-7.278344799605851,-1.2833685630696543C-7.275464232153768,-2.359845511134595,-7.897093464218871,-7.946819879842106,-7.290564730918383,-8.688556710112618C-6.684035997617896,-9.43029354038313,-0.820399975520978,-10.654588693143232,0,-10.18421052631579C0.820399975520978,-9.713832359488347,2.3232614977436294,-3.8519760627824926,2.5542349753333533,-3.044018708183307" style="stroke-width: 0.5px; stroke-opacity: 1; stroke: rgb(255, 127, 14); fill-opacity: 0.8; fill: rgb(255, 127, 14);"/></g><text class="tooltip" style="opacity: 0;"/></g><text class="currentTimeText" x="10" y="12" fill="#000" font-family="sans-serif" style="text-anchor: start; font-weight: bold; font-size: 12px; text-shadow: rgb(255, 255, 255) 1px 1px 0px;"/></svg></g></g><g class="linkLinegg timeline" transform="translate(-100,135)" style="opacity: 1;"><g class="compute linkLineg hgroup_1" transform="translate(-15,-15)"><svg width="30" height="30" class="radarGen radarPlot"><g id="radarGroup" transform="translate(15,15)"><g class="radarWrapper"><path class="radarStroke" d="M2.1482638534260654,-2.560201165160795C2.383047204236101,-2.182740155406938,2.3920086344480422,-1.0590921028574651,2.8174002097204265,-0.496783672427399C3.2427917849928107,0.06552475800266705,7.250232119084107,3.493537040640834,7.252962756694674,4.187499999999998C7.255693394305242,4.881462959359162,3.693282982467837,7.523903031625738,2.850167861047241,7.83077183988257C2.007052739626645,8.137640648139403,-2.0254981815260114,8.175267796849974,-2.864418700352475,7.869925699081983C-3.7033392191789383,7.564583601313991,-7.084994714091715,4.887837979279938,-7.216878364870321,4.1666666666666705C-7.348762015648927,3.445495354053403,-4.7679142718392855,-0.10260334720264719,-4.447022509695753,-0.7841300522772306C-4.12613074755222,-1.4656567573518142,-3.7367624282892438,-3.6581383161286265,-3.366177219147931,-4.011653794228331C-2.995592010006618,-4.3651692723280355,-0.459536756047833,-5.147270175229312,0,-5.026315789473684C0.459536756047833,-4.905361403718056,1.91348050261603,-2.937662174914652,2.1482638534260654,-2.560201165160795" style="stroke-width: 0.5px; stroke-opacity: 1; stroke: rgb(31, 119, 180); fill-opacity: 0.8; fill: rgb(31, 119, 180);"/></g><text class="tooltip" style="opacity: 0;"/></g><text class="currentTimeText" x="10" y="12" fill="#000" font-family="sans-serif" style="text-anchor: start; font-weight: bold; font-size: 12px; text-shadow: rgb(255, 255, 255) 1px 1px 0px;"/></svg></g></g></g><text class="computeSig_label label" text-anchor="end" dx="-5" dy="0.5rem" fill="black" width="200" transform="translate(-180,135)">10</text></g></g><rect class="fisheyeLayer" style="opacity: 0; pointer-events: none;" width="180" height="180" transform="translate(120,0)"/><g class="table header" transform="translate(600,0)"><g class="back"><path style="fill: rgb(221, 221, 221);"/></g></g></g><g class="timebox hide" transform="translate(40,20)" dy="1rem" style="font-size: 16px;"/><circle id="tipfollowscursor" cx="1008" cy="124"/></svg>