<svg id="jobmap" width="300" height="250" style="fill: none; font-size: 10px; font-family: sans-serif;" xmlns="http://www.w3.org/2000/svg" xmlns:xlink="http://www.w3.org/1999/xlink">

                    <defs id="defsmain"><pattern id="userpic" width="100%" height="100%" patternContentUnits="objectBoundingBox"><image height="1" width="1" preserveAspectRatio="none" xmlns:xlink="http://www.w3.org/1999/xlink" xlink:href="src/images/u.png"/></pattern><marker id="arrow" markerWidth="10" markerHeight="10" refX="0" refY="3" orient="auto" markerUnits="strokeWidth"><path d="M0,0 L0,6 L9,3 z" style="fill: black;"/></marker></defs><rect class="pantarget" opacity="0" width="1336" height="762"/><g class="pannel" transform="translate(50,50)"><text class="Time" text-anchor="middle" x="40" dy="-30" style="font-weight: bold; fill: black;">Time</text><line x1="60" x2="95" y1="-33" y2="-33" marker-end="url(#arrow)" style="stroke: black;"/><text class="Time" text-anchor="middle" x="-5" dy="-1rem" style="font-weight: bold; fill: black;">Instance</text><line x1="5" x2="5" y1="-5" y2="30" marker-end="url(#arrow)" style="stroke: black;"/><g class="gNodeaxis" transform="translate(210,-10)"><g class="gMainaxis" fill="none" font-size="10" font-family="sans-serif" text-anchor="middle"><g class="tick" opacity="1" transform="translate(-180, 0)"><line stroke="#000" y2="145" vector-effect="non-scaling-stroke" style="stroke-width: 0.1; stroke: black; stroke-dasharray: 1, 2; opacity: 0.5;"/><text fill="#000" y="-3" dy="-0.5rem">1</text></g><g class="tick" opacity="1" transform="translate(-160, 0)"><line stroke="#000" y2="145" vector-effect="non-scaling-stroke" style="stroke-width: 0.1; stroke: black; stroke-dasharray: 1, 2; opacity: 0.5;"/><text fill="#000" y="-3" dy="-0.5rem">2</text></g><g class="tick" opacity="1" transform="translate(-140, 0)"><line stroke="#000" y2="145" vector-effect="non-scaling-stroke" style="stroke-width: 0.1; stroke: black; stroke-dasharray: 1, 2; opacity: 0.5;"/><text fill="#000" y="-3" dy="-0.5rem">3</text></g><g class="tick" opacity="1" transform="translate(-120, 0)"><line stroke="#000" y2="145" vector-effect="non-scaling-stroke" style="stroke-width: 0.1; stroke: black; stroke-dasharray: 1, 2; opacity: 0.5;"/><text fill="#000" y="-3" dy="-0.5rem">4</text></g><g class="tick" opacity="1" transform="translate(-100, 0)"><line stroke="#000" y2="145" vector-effect="non-scaling-stroke" style="stroke-width: 0.1; stroke: black; stroke-dasharray: 1, 2; opacity: 0.5;"/><text fill="#000" y="-3" dy="-0.5rem">5</text></g><g class="tick" opacity="1" transform="translate(-80, 0)"><line stroke="#000" y2="145" vector-effect="non-scaling-stroke" style="stroke-width: 0.1; stroke: black; stroke-dasharray: 1, 2; opacity: 0.5;"/><text fill="#000" y="-3" dy="-0.5rem">6</text></g><g class="tick" opacity="1" transform="translate(-60, 0)"><line stroke="#000" y2="145" vector-effect="non-scaling-stroke" style="stroke-width: 0.1; stroke: black; stroke-dasharray: 1, 2; opacity: 0.5;"/><text fill="#000" y="-3" dy="-0.5rem">7</text></g><g class="tick" opacity="1" transform="translate(-40, 0)"><line stroke="#000" y2="145" vector-effect="non-scaling-stroke" style="stroke-width: 0.1; stroke: black; stroke-dasharray: 1, 2; opacity: 0.5;"/><text fill="#000" y="-3" dy="-0.5rem">8</text></g><g class="tick" opacity="1" transform="translate(-20, 0)"><line stroke="#000" y2="145" vector-effect="non-scaling-stroke" style="stroke-width: 0.1; stroke: black; stroke-dasharray: 1, 2; opacity: 0.5;"/><text fill="#000" y="-3" dy="-0.5rem">9</text></g><g class="tick" opacity="1" transform=""><line stroke="#000" y2="145" vector-effect="non-scaling-stroke" style="stroke-width: 0.1; stroke: black; stroke-dasharray: 1, 2; opacity: 0.5;"/><text fill="#000" y="-3" dy="-0.5rem">10</text></g></g><g class="gSubaxis hide"/></g><g class="annotation"/><g class="linkg"><g class="links" style="display: none;"><path stroke="black" style="stroke-width: 2;"/><text text-anchor="middle">1</text></g><g class="links" style="display: none;"><path stroke="black" style="stroke-width: 2;"/><text text-anchor="middle">1</text></g><g class="links" style="display: none;"><path stroke="black" style="stroke-width: 2;"/><text text-anchor="middle">1</text></g><g class="links" style="display: none;"><path stroke="black" style="stroke-width: 2;"/><text text-anchor="middle">1</text></g><g class="links" style="display: none;"><path stroke="black" style="stroke-width: 2;"/><text text-anchor="middle">1</text></g><g class="links" style="display: none;"><path stroke="black" style="stroke-width: 2;"/><text text-anchor="middle">1</text></g><g class="links" style="display: none;"><path stroke="black" style="stroke-width: 2;"/><text text-anchor="middle">1</text></g><g class="links" style="display: none;"><path stroke="black" style="stroke-width: 2;"/><text text-anchor="middle">1</text></g><g class="links" style="display: none;"><path stroke="black" style="stroke-width: 2;"/><text text-anchor="middle">1</text></g><g class="links" style="display: none;"><path stroke="black" style="stroke-width: 2;"/><text text-anchor="middle">1</text></g><g class="links" style="display: none;"><path stroke="black" style="stroke-width: 2;"/><text text-anchor="middle">1</text></g></g><g class="nodeg"><g class="node computeNode h1 statics" transform="translate(210,0)" style="pointer-events: auto;"><g class="computeSig" stroke="black" style="stroke-width: 2;"><path class="linegg timeline hgroup_1" d="M-180,33.75C-173.33333333333334,33.75,-166.66666666666666,33.75,-160,33.75C-153.33333333333334,33.75,-146.66666666666666,33.75,-140,33.75C-133.33333333333334,33.75,-126.66666666666667,33.75,-120,33.75C-113.33333333333333,33.75,-106.66666666666667,33.75,-100,33.75C-93.33333333333333,33.75,-86.66666666666667,33.75,-80,33.75C-73.33333333333333,33.75,-66.66666666666667,33.75,-60,33.75C-53.333333333333336,33.75,-46.666666666666664,33.75,-40,33.75C-33.333333333333336,33.75,-26.666666666666668,33.75,-20,33.75C-13.333333333333332,33.75,-6.666666666666667,33.75,0,33.75" style="stroke: rgb(31, 119, 180); stroke-width: 2; fill: none;"/></g><text class="computeSig_label label" text-anchor="end" dx="-5" dy="0.5rem" fill="black" width="200" transform="translate(-180,33.75)">1</text></g><g class="node computeNode h2 statics" transform="translate(210,0)" style="pointer-events: auto;"><g class="computeSig" stroke="black" style="stroke-width: 2;"><path class="linegg timeline hgroup_2" d="M-180,78.75C-173.33333333333334,78.75,-166.66666666666666,78.75,-160,78.75C-153.33333333333334,78.75,-146.66666666666666,78.75,-140,78.75C-133.33333333333334,78.75,-126.66666666666667,78.75,-120,78.75C-113.33333333333333,78.75,-106.66666666666667,78.75,-100,78.75C-93.33333333333333,78.75,-86.66666666666667,78.75,-80,78.75C-76.66666666666667,78.75,-73.33333333333333,78.75,-70,78.75C-66.66666666666667,78.75,-63.333333333333336,61.875,-60,45" style="stroke: rgb(255, 127, 14); stroke-width: 2; fill: none;"/><path class="linegg timeline hgroup_1" d="M-60,45C-53.333333333333336,45,-46.666666666666664,45,-40,45C-33.333333333333336,45,-26.666666666666668,45,-20,45C-13.333333333333332,45,-6.666666666666667,45,0,45" style="stroke: rgb(31, 119, 180); stroke-width: 2; fill: none;"/></g><text class="computeSig_label label" text-anchor="end" dx="-5" dy="0.5rem" fill="black" width="200" transform="translate(-180,78.75)">2</text></g><g class="node computeNode h3 statics" transform="translate(210,0)" style="pointer-events: auto;"><g class="computeSig" stroke="black" style="stroke-width: 2;"><path class="linegg timeline hgroup_1" d="M-180,50.625C-176.66666666666666,50.625,-173.33333333333334,50.625,-170,50.625C-166.66666666666666,50.625,-163.33333333333334,70.3125,-160,90" style="stroke: rgb(31, 119, 180); stroke-width: 2;"/><path class="linegg timeline hgroup_2" d="M-160,90C-153.33333333333334,90,-146.66666666666666,90,-140,90C-133.33333333333334,90,-126.66666666666667,90,-120,90C-113.33333333333333,90,-106.66666666666667,90,-100,90C-93.33333333333333,90,-86.66666666666667,90,-80,90C-73.33333333333333,90,-66.66666666666667,90,-60,90C-53.333333333333336,90,-46.666666666666664,90,-40,90C-33.333333333333336,90,-26.666666666666668,90,-20,90C-16.666666666666668,90,-13.333333333333334,90,-10,90C-6.666666666666666,90,-3.3333333333333335,106.875,0,123.75" style="stroke: rgb(255, 127, 14); stroke-width: 2; fill: none;"/><path class="linegg timeline hgroup_3" d="M0,123.75Z" style="stroke: rgb(44, 160, 44); stroke-width: 2;"/></g><text class="computeSig_label label" text-anchor="end" dx="-5" dy="0.5rem" fill="black" width="200" transform="translate(-180,50.625)">3</text></g><g class="node computeNode h4 statics" transform="translate(210,0)" style="pointer-events: auto;"><g class="computeSig" stroke="black" style="stroke-width: 2;"><path class="linegg timeline hgroup_1" d="M-180,39.375C-173.33333333333334,39.375,-166.66666666666666,39.375,-160,39.375C-153.33333333333334,39.375,-146.66666666666666,39.375,-140,39.375C-133.33333333333334,39.375,-126.66666666666667,39.375,-120,39.375C-113.33333333333333,39.375,-106.66666666666667,39.375,-100,39.375C-93.33333333333333,39.375,-86.66666666666667,39.375,-80,39.375C-76.66666666666667,39.375,-73.33333333333333,39.375,-70,39.375C-66.66666666666667,39.375,-63.333333333333336,56.25,-60,73.125" style="stroke: rgb(31, 119, 180); stroke-width: 2; fill: none;"/><path class="linegg timeline hgroup_2" d="M-60,73.125C-53.333333333333336,73.125,-46.666666666666664,73.125,-40,73.125C-33.333333333333336,73.125,-26.666666666666668,73.125,-20,73.125C-13.333333333333332,73.125,-6.666666666666667,73.125,0,73.125" style="stroke: rgb(255, 127, 14); stroke-width: 2; fill: none;"/></g><text class="computeSig_label label" text-anchor="end" dx="-5" dy="0.5rem" fill="black" width="200" transform="translate(-180,39.375)">4</text></g><g class="node computeNode h5 statics" transform="translate(210,0)" style="pointer-events: auto;"><g class="computeSig" stroke="black" style="stroke-width: 2;"><path class="linegg timeline hgroup_3" d="M-180,129.375C-173.33333333333334,129.375,-166.66666666666666,129.375,-160,129.375C-153.33333333333334,129.375,-146.66666666666666,129.375,-140,129.375C-136.66666666666666,129.375,-133.33333333333334,129.375,-130,129.375C-126.66666666666667,129.375,-123.33333333333333,92.8125,-120,56.25" style="stroke: rgb(44, 160, 44); stroke-width: 2; fill: none;"/><path class="linegg timeline hgroup_1" d="M-120,56.25C-113.33333333333333,56.25,-106.66666666666667,56.25,-100,56.25C-96.66666666666667,56.25,-93.33333333333333,56.25,-90,56.25C-86.66666666666667,56.25,-83.33333333333333,87.1875,-80,118.125" style="stroke: rgb(31, 119, 180); stroke-width: 2; fill: none;"/><path class="linegg timeline hgroup_4" d="M-80,118.125C-76.66666666666667,118.125,-73.33333333333333,118.125,-70,118.125C-66.66666666666667,118.125,-63.333333333333336,87.1875,-60,56.25" style="stroke: rgb(214, 39, 40); stroke-width: 2;"/><path class="linegg timeline hgroup_1" d="M-60,56.25C-56.666666666666664,56.25,-53.333333333333336,56.25,-50,56.25C-46.666666666666664,56.25,-43.333333333333336,87.1875,-40,118.125" style="stroke: rgb(31, 119, 180); stroke-width: 2;"/><path class="linegg timeline hgroup_4" d="M-40,118.125C-33.333333333333336,118.125,-26.666666666666668,118.125,-20,118.125C-13.333333333333332,118.125,-6.666666666666667,118.125,0,118.125" style="stroke: rgb(214, 39, 40); stroke-width: 2; fill: none;"/></g><text class="computeSig_label label" text-anchor="end" dx="-5" dy="0.5rem" fill="black" width="200" transform="translate(-180,129.375)">5</text></g><g class="node computeNode h6 statics" transform="translate(210,0)" style="pointer-events: auto;"><g class="computeSig" stroke="black" style="stroke-width: 2;"><path class="linegg timeline hgroup_4" d="M-180,112.5C-173.33333333333334,112.5,-166.66666666666666,112.5,-160,112.5C-153.33333333333334,112.5,-146.66666666666666,112.5,-140,112.5C-133.33333333333334,112.5,-126.66666666666667,112.5,-120,112.5C-113.33333333333333,112.5,-106.66666666666667,112.5,-100,112.5C-93.33333333333333,112.5,-86.66666666666667,112.5,-80,112.5C-76.66666666666667,112.5,-73.33333333333333,112.5,-70,112.5C-66.66666666666667,112.5,-63.333333333333336,104.0625,-60,95.625" style="stroke: rgb(214, 39, 40); stroke-width: 2; fill: none;"/><path class="linegg timeline hgroup_2" d="M-60,95.625C-53.333333333333336,95.625,-46.666666666666664,95.625,-40,95.625C-33.333333333333336,95.625,-26.666666666666668,95.625,-20,95.625C-13.333333333333332,95.625,-6.666666666666667,95.625,0,95.625" style="stroke: rgb(255, 127, 14); stroke-width: 2; fill: none;"/></g><text class="computeSig_label label" text-anchor="end" dx="-5" dy="0.5rem" fill="black" width="200" transform="translate(-180,112.5)">6</text></g><g class="node computeNode h7 statics" transform="translate(210,0)" style="pointer-events: auto;"><g class="computeSig" stroke="black" style="stroke-width: 2;"><path class="linegg timeline hgroup_5" d="M-180,16.875C-173.33333333333334,16.875,-166.66666666666666,16.875,-160,16.875C-153.33333333333334,16.875,-146.66666666666666,16.875,-140,16.875C-136.66666666666666,16.875,-133.33333333333334,16.875,-130,16.875C-126.66666666666667,16.875,-123.33333333333333,61.875,-120,106.875" style="stroke: rgb(148, 103, 189); stroke-width: 2; fill: none;"/><path class="linegg timeline hgroup_4" d="M-120,106.875C-113.33333333333333,106.875,-106.66666666666667,106.875,-100,106.875C-93.33333333333333,106.875,-86.66666666666667,106.875,-80,106.875C-76.66666666666667,106.875,-73.33333333333333,106.875,-70,106.875C-66.66666666666667,106.875,-63.333333333333336,95.625,-60,84.375" style="stroke: rgb(214, 39, 40); stroke-width: 2; fill: none;"/><path class="linegg timeline hgroup_2" d="M-60,84.375C-53.333333333333336,84.375,-46.666666666666664,84.375,-40,84.375C-33.333333333333336,84.375,-26.666666666666668,84.375,-20,84.375C-13.333333333333332,84.375,-6.666666666666667,84.375,0,84.375" style="stroke: rgb(255, 127, 14); stroke-width: 2; fill: none;"/></g><text class="computeSig_label label" text-anchor="end" dx="-5" dy="0.5rem" fill="black" width="200" transform="translate(-180,16.875)">7</text></g><g class="node computeNode h8 statics" transform="translate(210,0)" style="pointer-events: auto;"><g class="computeSig" stroke="black" style="stroke-width: 2;"><path class="linegg timeline hgroup_1" d="M-180,61.875C-176.66666666666666,61.875,-173.33333333333334,61.875,-170,61.875C-166.66666666666666,61.875,-163.33333333333334,98.4375,-160,135" style="stroke: rgb(31, 119, 180); stroke-width: 2;"/><path class="linegg timeline hgroup_3" d="M-160,135C-153.33333333333334,135,-146.66666666666666,135,-140,135C-133.33333333333334,135,-126.66666666666667,135,-120,135C-113.33333333333333,135,-106.66666666666667,135,-100,135C-93.33333333333333,135,-86.66666666666667,135,-80,135C-73.33333333333333,135,-66.66666666666667,135,-60,135C-53.333333333333336,135,-46.666666666666664,135,-40,135C-33.333333333333336,135,-26.666666666666668,135,-20,135C-13.333333333333332,135,-6.666666666666667,135,0,135" style="stroke: rgb(44, 160, 44); stroke-width: 2; fill: none;"/></g><text class="computeSig_label label" text-anchor="end" dx="-5" dy="0.5rem" fill="black" width="200" transform="translate(-180,61.875)">8</text></g><g class="node computeNode h9 statics" transform="translate(210,0)" style="pointer-events: auto;"><g class="computeSig" stroke="black" style="stroke-width: 2;"><path class="linegg timeline hgroup_1" d="M-180,28.125C-173.33333333333334,28.125,-166.66666666666666,28.125,-160,28.125C-153.33333333333334,28.125,-146.66666666666666,28.125,-140,28.125C-133.33333333333334,28.125,-126.66666666666667,28.125,-120,28.125C-113.33333333333333,28.125,-106.66666666666667,28.125,-100,28.125C-93.33333333333333,28.125,-86.66666666666667,28.125,-80,28.125C-73.33333333333333,28.125,-66.66666666666667,28.125,-60,28.125C-53.333333333333336,28.125,-46.666666666666664,28.125,-40,28.125C-36.666666666666664,28.125,-33.333333333333336,28.125,-30,28.125C-26.666666666666668,28.125,-23.333333333333332,19.6875,-20,11.25" style="stroke: rgb(31, 119, 180); stroke-width: 2; fill: none;"/><path class="linegg timeline hgroup_5" d="M-20,11.25L0,11.25" style="stroke: rgb(148, 103, 189); stroke-width: 2; fill: none;"/></g><text class="computeSig_label label" text-anchor="end" dx="-5" dy="0.5rem" fill="black" width="200" transform="translate(-180,28.125)">9</text></g><g class="node computeNode h10 statics" transform="translate(210,0)" style="pointer-events: auto;"><g class="computeSig" stroke="black" style="stroke-width: 2;"><path class="linegg timeline hgroup_5" d="M-180,5.625C-173.33333333333334,5.625,-166.66666666666666,5.625,-160,5.625C-153.33333333333334,5.625,-146.66666666666666,5.625,-140,5.625C-133.33333333333334,5.625,-126.66666666666667,5.625,-120,5.625C-113.33333333333333,5.625,-106.66666666666667,5.625,-100,5.625C-93.33333333333333,5.625,-86.66666666666667,5.625,-80,5.625C-73.33333333333333,5.625,-66.66666666666667,5.625,-60,5.625C-53.333333333333336,5.625,-46.666666666666664,5.625,-40,5.625C-33.333333333333336,5.625,-26.666666666666668,5.625,-20,5.625C-13.333333333333332,5.625,-6.666666666666667,5.625,0,5.625" style="stroke: rgb(148, 103, 189); stroke-width: 2; fill: none;"/></g><text class="computeSig_label label" text-anchor="end" dx="-5" dy="0.5rem" fill="black" width="200" transform="translate(-180,5.625)">10</text></g></g><rect class="fisheyeLayer" style="opacity: 0; pointer-events: none;" width="180" height="180" transform="translate(120,0)"/><g class="table header" transform="translate(600,0)"><g class="back"><path style="fill: rgb(221, 221, 221);"/></g></g></g><g class="timebox hide" transform="translate(40,20)" dy="1rem" style="font-size: 16px;"/><circle id="tipfollowscursor"/></svg>