<svg id="jobmap" width="300" height="250" style="fill: none; font-size: 10px; font-family: sans-serif;" xmlns="http://www.w3.org/2000/svg" xmlns:xlink="http://www.w3.org/1999/xlink">

                    <defs id="defsmain"><pattern id="userpic" width="100%" height="100%" patternContentUnits="objectBoundingBox"><image height="1" width="1" preserveAspectRatio="none" xmlns:xlink="http://www.w3.org/1999/xlink" xlink:href="src/images/u.png"/></pattern><marker id="arrow" markerWidth="10" markerHeight="10" refX="0" refY="3" orient="auto" markerUnits="strokeWidth"><path d="M0,0 L0,6 L9,3 z" style="fill: black;"/></marker></defs><rect class="pantarget" opacity="0" width="1146" height="762"/><g class="pannel" transform="translate(50,50)"><text class="Time" text-anchor="middle" x="40" dy="-30" style="font-weight: bold; fill: black;">Time</text><line x1="60" x2="95" y1="-33" y2="-33" marker-end="url(#arrow)" style="stroke: black;"/><text class="Time" text-anchor="middle" x="-5" dy="-1rem" style="font-weight: bold; fill: black;">Instance</text><line x1="5" x2="5" y1="-5" y2="30" marker-end="url(#arrow)" style="stroke: black;"/><g class="gNodeaxis" transform="translate(210,-10)"><g class="gMainaxis" fill="none" font-size="10" font-family="sans-serif" text-anchor="middle"><g class="tick" opacity="1" transform="translate(-180, 0)"><line stroke="#000" y2="145" vector-effect="non-scaling-stroke" style="stroke-width: 0.1; stroke: black; stroke-dasharray: 1, 2; opacity: 0.5;"/><text fill="#000" y="-3" dy="-0.5rem">1</text></g><g class="tick" opacity="1" transform="translate(-160, 0)"><line stroke="#000" y2="145" vector-effect="non-scaling-stroke" style="stroke-width: 0.1; stroke: black; stroke-dasharray: 1, 2; opacity: 0.5;"/><text fill="#000" y="-3" dy="-0.5rem">2</text></g><g class="tick" opacity="1" transform="translate(-140, 0)"><line stroke="#000" y2="145" vector-effect="non-scaling-stroke" style="stroke-width: 0.1; stroke: black; stroke-dasharray: 1, 2; opacity: 0.5;"/><text fill="#000" y="-3" dy="-0.5rem">3</text></g><g class="tick" opacity="1" transform="translate(-120, 0)"><line stroke="#000" y2="145" vector-effect="non-scaling-stroke" style="stroke-width: 0.1; stroke: black; stroke-dasharray: 1, 2; opacity: 0.5;"/><text fill="#000" y="-3" dy="-0.5rem">4</text></g><g class="tick" opacity="1" transform="translate(-100, 0)"><line stroke="#000" y2="145" vector-effect="non-scaling-stroke" style="stroke-width: 0.1; stroke: black; stroke-dasharray: 1, 2; opacity: 0.5;"/><text fill="#000" y="-3" dy="-0.5rem">5</text></g><g class="tick" opacity="1" transform="translate(-80, 0)"><line stroke="#000" y2="145" vector-effect="non-scaling-stroke" style="stroke-width: 0.1; stroke: black; stroke-dasharray: 1, 2; opacity: 0.5;"/><text fill="#000" y="-3" dy="-0.5rem">6</text></g><g class="tick" opacity="1" transform="translate(-60, 0)"><line stroke="#000" y2="145" vector-effect="non-scaling-stroke" style="stroke-width: 0.1; stroke: black; stroke-dasharray: 1, 2; opacity: 0.5;"/><text fill="#000" y="-3" dy="-0.5rem">7</text></g><g class="tick" opacity="1" transform="translate(-40, 0)"><line stroke="#000" y2="145" vector-effect="non-scaling-stroke" style="stroke-width: 0.1; stroke: black; stroke-dasharray: 1, 2; opacity: 0.5;"/><text fill="#000" y="-3" dy="-0.5rem">8</text></g><g class="tick" opacity="1" transform="translate(-20, 0)"><line stroke="#000" y2="145" vector-effect="non-scaling-stroke" style="stroke-width: 0.1; stroke: black; stroke-dasharray: 1, 2; opacity: 0.5;"/><text fill="#000" y="-3" dy="-0.5rem">9</text></g><g class="tick" opacity="1" transform=""><line stroke="#000" y2="145" vector-effect="non-scaling-stroke" style="stroke-width: 0.1; stroke: black; stroke-dasharray: 1, 2; opacity: 0.5;"/><text fill="#000" y="-3" dy="-0.5rem">10</text></g></g><g class="gSubaxis hide"/></g><g class="annotation"/><g class="linkg"><g class="links" style="display: none;"><path stroke="black" style="stroke-width: 2;"/><text text-anchor="middle">1</text></g><g class="links" style="display: none;"><path stroke="black" style="stroke-width: 2;"/><text text-anchor="middle">1</text></g><g class="links" style="display: none;"><path stroke="black" style="stroke-width: 2;"/><text text-anchor="middle">1</text></g><g class="links" style="display: none;"><path stroke="black" style="stroke-width: 2;"/><text text-anchor="middle">1</text></g><g class="links" style="display: none;"><path stroke="black" style="stroke-width: 2;"/><text text-anchor="middle">1</text></g><g class="links" style="display: none;"><path stroke="black" style="stroke-width: 2;"/><text text-anchor="middle">1</text></g><g class="links" style="display: none;"><path stroke="black" style="stroke-width: 2;"/><text text-anchor="middle">1</text></g><g class="links" style="display: none;"><path stroke="black" style="stroke-width: 2;"/><text text-anchor="middle">1</text></g><g class="links" style="display: none;"><path stroke="black" style="stroke-width: 2;"/><text text-anchor="middle">1</text></g><g class="links" style="display: none;"><path stroke="black" style="stroke-width: 2;"/><text text-anchor="middle">1</text></g><g class="links" style="display: none;"><path stroke="black" style="stroke-width: 2;"/><text text-anchor="middle">1</text></g></g><g class="nodeg"><g class="node computeNode h1 statics" transform="translate(210,0)" style="pointer-events: auto;"><g class="computeSig" stroke="black" style="stroke-width: 2;"><path class="linegg timeline hgroup_1" d="M-180,128.25C-173.33333333333334,128.25,-166.66666666666666,128.25,-160,128.25C-153.33333333333334,128.25,-146.66666666666666,128.25,-140,128.25C-136.66666666666666,128.25,-133.33333333333334,128.25,-130,128.25C-126.66666666666667,128.25,-123.33333333333333,101.25,-120,74.25" style="stroke: rgb(31, 119, 180); stroke-width: 2; fill: none;"/><path class="linegg timeline hgroup_3" d="M-120,74.25C-113.33333333333333,74.25,-106.66666666666667,74.25,-100,74.25C-93.33333333333333,74.25,-86.66666666666667,74.25,-80,74.25C-73.33333333333333,74.25,-66.66666666666667,74.25,-60,74.25C-56.666666666666664,74.25,-53.333333333333336,74.25,-50,74.25C-46.666666666666664,74.25,-43.333333333333336,60.75,-40,47.25" style="stroke: rgb(44, 160, 44); stroke-width: 2; fill: none;"/><path class="linegg timeline hgroup_2" d="M-40,47.25C-33.333333333333336,47.25,-26.666666666666668,47.25,-20,47.25C-13.333333333333332,47.25,-6.666666666666667,47.25,0,47.25" style="stroke: rgb(255, 127, 14); stroke-width: 2; fill: none;"/></g><text class="computeSig_label label" text-anchor="end" dx="-5" dy="0.5rem" fill="black" width="200" transform="translate(-180,128.25)">1</text></g><g class="node computeNode h2 statics" transform="translate(210,0)" style="pointer-events: auto;"><g class="computeSig" stroke="black" style="stroke-width: 2;"><path class="linegg timeline hgroup_2" d="M-180,13.5C-173.33333333333334,13.5,-166.66666666666666,13.5,-160,13.5C-153.33333333333334,13.5,-146.66666666666666,13.5,-140,13.5C-133.33333333333334,13.5,-126.66666666666667,13.5,-120,13.5C-113.33333333333333,13.5,-106.66666666666667,13.5,-100,13.5C-93.33333333333333,13.5,-86.66666666666667,13.5,-80,13.5C-73.33333333333333,13.5,-66.66666666666667,13.5,-60,13.5C-53.333333333333336,13.5,-46.666666666666664,13.5,-40,13.5C-33.333333333333336,13.5,-26.666666666666668,13.5,-20,13.5C-13.333333333333332,13.5,-6.666666666666667,13.5,0,13.5" style="stroke: rgb(255, 127, 14); stroke-width: 2; fill: none;"/></g><text class="computeSig_label label" text-anchor="end" dx="-5" dy="0.5rem" fill="black" width="200" transform="translate(-180,13.5)">2</text></g><g class="node computeNode h3 statics" transform="translate(210,0)" style="pointer-events: auto;"><g class="computeSig" stroke="black" style="stroke-width: 2;"><path class="linegg timeline hgroup_3" d="M-180,67.5C-173.33333333333334,67.5,-166.66666666666666,67.5,-160,67.5C-153.33333333333334,67.5,-146.66666666666666,67.5,-140,67.5C-133.33333333333334,67.5,-126.66666666666667,67.5,-120,67.5C-113.33333333333333,67.5,-106.66666666666667,67.5,-100,67.5C-93.33333333333333,67.5,-86.66666666666667,67.5,-80,67.5C-73.33333333333333,67.5,-66.66666666666667,67.5,-60,67.5C-53.333333333333336,67.5,-46.666666666666664,67.5,-40,67.5C-33.333333333333336,67.5,-26.666666666666668,67.5,-20,67.5C-13.333333333333332,67.5,-6.666666666666667,67.5,0,67.5" style="stroke: rgb(44, 160, 44); stroke-width: 2; fill: none;"/></g><text class="computeSig_label label" text-anchor="end" dx="-5" dy="0.5rem" fill="black" width="200" transform="translate(-180,67.5)">3</text></g><g class="node computeNode h4 statics" transform="translate(210,0)" style="pointer-events: auto;"><g class="computeSig" stroke="black" style="stroke-width: 2;"><path class="linegg timeline hgroup_1" d="M-180,135C-173.33333333333334,135,-166.66666666666666,135,-160,135C-153.33333333333334,135,-146.66666666666666,135,-140,135C-133.33333333333334,135,-126.66666666666667,135,-120,135C-113.33333333333333,135,-106.66666666666667,135,-100,135C-93.33333333333333,135,-86.66666666666667,135,-80,135C-76.66666666666667,135,-73.33333333333333,135,-70,135C-66.66666666666667,135,-63.333333333333336,124.875,-60,114.75" style="stroke: rgb(31, 119, 180); stroke-width: 2; fill: none;"/><path class="linegg timeline hgroup_4" d="M-60,114.75C-53.333333333333336,114.75,-46.666666666666664,114.75,-40,114.75C-33.333333333333336,114.75,-26.666666666666668,114.75,-20,114.75C-13.333333333333332,114.75,-6.666666666666667,114.75,0,114.75" style="stroke: rgb(214, 39, 40); stroke-width: 2; fill: none;"/></g><text class="computeSig_label label" text-anchor="end" dx="-5" dy="0.5rem" fill="black" width="200" transform="translate(-180,135)">4</text></g><g class="node computeNode h5 statics" transform="translate(210,0)" style="pointer-events: auto;"><g class="computeSig" stroke="black" style="stroke-width: 2;"><path class="linegg timeline hgroup_2" d="M-180,27C-173.33333333333334,27,-166.66666666666666,27,-160,27C-153.33333333333334,27,-146.66666666666666,27,-140,27C-133.33333333333334,27,-126.66666666666667,27,-120,27C-113.33333333333333,27,-106.66666666666667,27,-100,27C-96.66666666666667,27,-93.33333333333333,27,-90,27C-86.66666666666667,27,-83.33333333333333,43.875,-80,60.75" style="stroke: rgb(255, 127, 14); stroke-width: 2; fill: none;"/><path class="linegg timeline hgroup_3" d="M-80,60.75C-73.33333333333333,60.75,-66.66666666666667,60.75,-60,60.75C-56.666666666666664,60.75,-53.333333333333336,60.75,-50,60.75C-46.666666666666664,60.75,-43.333333333333336,43.875,-40,27" style="stroke: rgb(44, 160, 44); stroke-width: 2; fill: none;"/><path class="linegg timeline hgroup_2" d="M-40,27C-33.333333333333336,27,-26.666666666666668,27,-20,27C-13.333333333333332,27,-6.666666666666667,27,0,27" style="stroke: rgb(255, 127, 14); stroke-width: 2; fill: none;"/></g><text class="computeSig_label label" text-anchor="end" dx="-5" dy="0.5rem" fill="black" width="200" transform="translate(-180,27)">5</text></g><g class="node computeNode h6 statics" transform="translate(210,0)" style="pointer-events: auto;"><g class="computeSig" stroke="black" style="stroke-width: 2;"><path class="linegg timeline hgroup_4" d="M-180,108C-173.33333333333334,108,-166.66666666666666,108,-160,108C-153.33333333333334,108,-146.66666666666666,108,-140,108C-133.33333333333334,108,-126.66666666666667,108,-120,108C-113.33333333333333,108,-106.66666666666667,108,-100,108C-93.33333333333333,108,-86.66666666666667,108,-80,108C-73.33333333333333,108,-66.66666666666667,108,-60,108C-53.333333333333336,108,-46.666666666666664,108,-40,108C-33.333333333333336,108,-26.666666666666668,108,-20,108C-13.333333333333332,108,-6.666666666666667,108,0,108" style="stroke: rgb(214, 39, 40); stroke-width: 2; fill: none;"/></g><text class="computeSig_label label" text-anchor="end" dx="-5" dy="0.5rem" fill="black" width="200" transform="translate(-180,108)">6</text></g><g class="node computeNode h7 statics" transform="translate(210,0)" style="pointer-events: auto;"><g class="computeSig" stroke="black" style="stroke-width: 2;"><path class="linegg timeline hgroup_4" d="M-180,94.5C-173.33333333333334,94.5,-166.66666666666666,94.5,-160,94.5C-153.33333333333334,94.5,-146.66666666666666,94.5,-140,94.5C-133.33333333333334,94.5,-126.66666666666667,94.5,-120,94.5C-113.33333333333333,94.5,-106.66666666666667,94.5,-100,94.5C-96.66666666666667,94.5,-93.33333333333333,94.5,-90,94.5C-86.66666666666667,94.5,-83.33333333333333,47.25000000000001,-80,0" style="stroke: rgb(214, 39, 40); stroke-width: 2; fill: none;"/><path class="linegg timeline hgroup_5" d="M-80,0C-76.66666666666667,0,-73.33333333333333,0,-70,0C-66.66666666666667,0,-63.333333333333336,20.25,-60,40.5" style="stroke: rgb(148, 103, 189); stroke-width: 2;"/><path class="linegg timeline hgroup_2" d="M-60,40.5C-53.333333333333336,40.5,-46.666666666666664,40.5,-40,40.5C-33.333333333333336,40.5,-26.666666666666668,40.5,-20,40.5C-13.333333333333332,40.5,-6.666666666666667,40.5,0,40.5" style="stroke: rgb(255, 127, 14); stroke-width: 2; fill: none;"/></g><text class="computeSig_label label" text-anchor="end" dx="-5" dy="0.5rem" fill="black" width="200" transform="translate(-180,94.5)">7</text></g><g class="node computeNode h8 statics" transform="translate(210,0)" style="pointer-events: auto;"><g class="computeSig" stroke="black" style="stroke-width: 2;"><path class="linegg timeline hgroup_2" d="M-180,20.25C-173.33333333333334,20.25,-166.66666666666666,20.25,-160,20.25C-153.33333333333334,20.25,-146.66666666666666,20.25,-140,20.25C-133.33333333333334,20.25,-126.66666666666667,20.25,-120,20.25C-113.33333333333333,20.25,-106.66666666666667,20.25,-100,20.25C-93.33333333333333,20.25,-86.66666666666667,20.25,-80,20.25C-73.33333333333333,20.25,-66.66666666666667,20.25,-60,20.25C-53.333333333333336,20.25,-46.666666666666664,20.25,-40,20.25C-33.333333333333336,20.25,-26.666666666666668,20.25,-20,20.25C-13.333333333333332,20.25,-6.666666666666667,20.25,0,20.25" style="stroke: rgb(255, 127, 14); stroke-width: 2; fill: none;"/></g><text class="computeSig_label label" text-anchor="end" dx="-5" dy="0.5rem" fill="black" width="200" transform="translate(-180,20.25)">8</text></g><g class="node computeNode h9 statics" transform="translate(210,0)" style="pointer-events: auto;"><g class="computeSig" stroke="black" style="stroke-width: 2;"><path class="linegg timeline hgroup_4" d="M-180,87.75C-176.66666666666666,87.75,-173.33333333333334,87.75,-170,87.75C-166.66666666666666,87.75,-163.33333333333334,60.75,-160,33.75" style="stroke: rgb(214, 39, 40); stroke-width: 2;"/><path class="linegg timeline hgroup_2" d="M-160,33.75C-153.33333333333334,33.75,-146.66666666666666,33.75,-140,33.75C-133.33333333333334,33.75,-126.66666666666667,33.75,-120,33.75C-113.33333333333333,33.75,-106.66666666666667,33.75,-100,33.75C-93.33333333333333,33.75,-86.66666666666667,33.75,-80,33.75C-73.33333333333333,33.75,-66.66666666666667,33.75,-60,33.75C-53.333333333333336,33.75,-46.666666666666664,33.75,-40,33.75C-33.333333333333336,33.75,-26.666666666666668,33.75,-20,33.75C-13.333333333333332,33.75,-6.666666666666667,33.75,0,33.75" style="stroke: rgb(255, 127, 14); stroke-width: 2; fill: none;"/></g><text class="computeSig_label label" text-anchor="end" dx="-5" dy="0.5rem" fill="black" width="200" transform="translate(-180,87.75)">9</text></g><g class="node computeNode h10 statics" transform="translate(210,0)" style="pointer-events: auto;"><g class="computeSig" stroke="black" style="stroke-width: 2;"><path class="linegg timeline hgroup_4" d="M-180,101.25C-173.33333333333334,101.25,-166.66666666666666,101.25,-160,101.25C-153.33333333333334,101.25,-146.66666666666666,101.25,-140,101.25C-133.33333333333334,101.25,-126.66666666666667,101.25,-120,101.25C-116.66666666666667,101.25,-113.33333333333333,101.25,-110,101.25C-106.66666666666667,101.25,-103.33333333333333,91.125,-100,81" style="stroke: rgb(214, 39, 40); stroke-width: 2; fill: none;"/><path class="linegg timeline hgroup_3" d="M-100,81C-93.33333333333333,81,-86.66666666666667,81,-80,81C-73.33333333333333,81,-66.66666666666667,81,-60,81C-53.333333333333336,81,-46.666666666666664,81,-40,81C-33.333333333333336,81,-26.666666666666668,81,-20,81C-13.333333333333332,81,-6.666666666666667,81,0,81" style="stroke: rgb(44, 160, 44); stroke-width: 2; fill: none;"/></g><text class="computeSig_label label" text-anchor="end" dx="-5" dy="0.5rem" fill="black" width="200" transform="translate(-180,101.25)">10</text></g></g><rect class="fisheyeLayer" style="opacity: 0; pointer-events: none;" width="180" height="180" transform="translate(120,0)"/><g class="table header" transform="translate(600,0)"><g class="back"><path style="fill: rgb(221, 221, 221);"/></g></g></g><g class="timebox hide" transform="translate(40,20)" dy="1rem" style="font-size: 16px;"/><circle id="tipfollowscursor"/></svg>