<svg id="jobmap" width="300" height="250" style="fill: none; font-size: 10px; font-family: sans-serif;" xmlns="http://www.w3.org/2000/svg" xmlns:xlink="http://www.w3.org/1999/xlink">

                    <defs id="defsmain"><pattern id="userpic" width="100%" height="100%" patternContentUnits="objectBoundingBox"><image height="1" width="1" preserveAspectRatio="none" xmlns:xlink="http://www.w3.org/1999/xlink" xlink:href="src/images/u.png"/></pattern><marker id="arrow" markerWidth="10" markerHeight="10" refX="0" refY="3" orient="auto" markerUnits="strokeWidth"><path d="M0,0 L0,6 L9,3 z" style="fill: black;"/></marker></defs><rect class="pantarget" opacity="0" width="1146" height="762"/><g class="pannel" transform="translate(50,50)"><text class="Time" text-anchor="middle" x="40" dy="-30" style="font-weight: bold; fill: black;">Time</text><line x1="60" x2="95" y1="-33" y2="-33" marker-end="url(#arrow)" style="stroke: black;"/><text class="Time" text-anchor="middle" x="-5" dy="-1rem" style="font-weight: bold; fill: black;">Instance</text><line x1="5" x2="5" y1="-5" y2="30" marker-end="url(#arrow)" style="stroke: black;"/><g class="gNodeaxis" transform="translate(210,-10)"><g class="gMainaxis" fill="none" font-size="10" font-family="sans-serif" text-anchor="middle"><g class="tick" opacity="1" transform="translate(-180, 0)"><line stroke="#000" y2="145" vector-effect="non-scaling-stroke" style="stroke-width: 0.1; stroke: black; stroke-dasharray: 1, 2; opacity: 0.5;"/><text fill="#000" y="-3" dy="-0.5rem">1</text></g><g class="tick" opacity="1" transform="translate(-160, 0)"><line stroke="#000" y2="145" vector-effect="non-scaling-stroke" style="stroke-width: 0.1; stroke: black; stroke-dasharray: 1, 2; opacity: 0.5;"/><text fill="#000" y="-3" dy="-0.5rem">2</text></g><g class="tick" opacity="1" transform="translate(-140, 0)"><line stroke="#000" y2="145" vector-effect="non-scaling-stroke" style="stroke-width: 0.1; stroke: black; stroke-dasharray: 1, 2; opacity: 0.5;"/><text fill="#000" y="-3" dy="-0.5rem">3</text></g><g class="tick" opacity="1" transform="translate(-120, 0)"><line stroke="#000" y2="145" vector-effect="non-scaling-stroke" style="stroke-width: 0.1; stroke: black; stroke-dasharray: 1, 2; opacity: 0.5;"/><text fill="#000" y="-3" dy="-0.5rem">4</text></g><g class="tick" opacity="1" transform="translate(-100, 0)"><line stroke="#000" y2="145" vector-effect="non-scaling-stroke" style="stroke-width: 0.1; stroke: black; stroke-dasharray: 1, 2; opacity: 0.5;"/><text fill="#000" y="-3" dy="-0.5rem">5</text></g><g class="tick" opacity="1" transform="translate(-80, 0)"><line stroke="#000" y2="145" vector-effect="non-scaling-stroke" style="stroke-width: 0.1; stroke: black; stroke-dasharray: 1, 2; opacity: 0.5;"/><text fill="#000" y="-3" dy="-0.5rem">6</text></g><g class="tick" opacity="1" transform="translate(-60, 0)"><line stroke="#000" y2="145" vector-effect="non-scaling-stroke" style="stroke-width: 0.1; stroke: black; stroke-dasharray: 1, 2; opacity: 0.5;"/><text fill="#000" y="-3" dy="-0.5rem">7</text></g><g class="tick" opacity="1" transform="translate(-40, 0)"><line stroke="#000" y2="145" vector-effect="non-scaling-stroke" style="stroke-width: 0.1; stroke: black; stroke-dasharray: 1, 2; opacity: 0.5;"/><text fill="#000" y="-3" dy="-0.5rem">8</text></g><g class="tick" opacity="1" transform="translate(-20, 0)"><line stroke="#000" y2="145" vector-effect="non-scaling-stroke" style="stroke-width: 0.1; stroke: black; stroke-dasharray: 1, 2; opacity: 0.5;"/><text fill="#000" y="-3" dy="-0.5rem">9</text></g><g class="tick" opacity="1" transform=""><line stroke="#000" y2="145" vector-effect="non-scaling-stroke" style="stroke-width: 0.1; stroke: black; stroke-dasharray: 1, 2; opacity: 0.5;"/><text fill="#000" y="-3" dy="-0.5rem">10</text></g></g><g class="gSubaxis hide"/></g><g class="annotation"/><g class="linkg"><g class="links" style="display: none;"><path stroke="black" style="stroke-width: 2;"/><text text-anchor="middle">1</text></g><g class="links" style="display: none;"><path stroke="black" style="stroke-width: 2;"/><text text-anchor="middle">1</text></g><g class="links" style="display: none;"><path stroke="black" style="stroke-width: 2;"/><text text-anchor="middle">1</text></g><g class="links" style="display: none;"><path stroke="black" style="stroke-width: 2;"/><text text-anchor="middle">1</text></g><g class="links" style="display: none;"><path stroke="black" style="stroke-width: 2;"/><text text-anchor="middle">1</text></g><g class="links" style="display: none;"><path stroke="black" style="stroke-width: 2;"/><text text-anchor="middle">1</text></g><g class="links" style="display: none;"><path stroke="black" style="stroke-width: 2;"/><text text-anchor="middle">1</text></g><g class="links" style="display: none;"><path stroke="black" style="stroke-width: 2;"/><text text-anchor="middle">1</text></g><g class="links" style="display: none;"><path stroke="black" style="stroke-width: 2;"/><text text-anchor="middle">1</text></g><g class="links" style="display: none;"><path stroke="black" style="stroke-width: 2;"/><text text-anchor="middle">1</text></g><g class="links" style="display: none;"><path stroke="black" style="stroke-width: 2;"/><text text-anchor="middle">1</text></g></g><g class="nodeg"><g class="node computeNode h1 statics" transform="translate(210,0)" style="pointer-events: auto;"><g class="computeSig" stroke="black" style="stroke-width: 2;"><path class="linegg timeline hgroup_1" d="M-180,85.26315789473684C-173.33333333333334,85.26315789473684,-166.66666666666666,85.26315789473684,-160,85.26315789473684C-153.33333333333334,85.26315789473684,-146.66666666666666,85.26315789473684,-140,85.26315789473684C-136.66666666666666,85.26315789473684,-133.33333333333334,85.26315789473684,-130,85.26315789473684C-126.66666666666667,85.26315789473684,-123.33333333333333,78.15789473684211,-120,71.05263157894737" style="stroke: rgb(31, 119, 180); stroke-width: 2; fill: none;"/><path class="linegg timeline hgroup_3" d="M-120,71.05263157894737C-113.33333333333333,71.05263157894737,-106.66666666666667,71.05263157894737,-100,71.05263157894737C-93.33333333333333,71.05263157894737,-86.66666666666667,71.05263157894737,-80,71.05263157894737C-73.33333333333333,71.05263157894737,-66.66666666666667,71.05263157894737,-60,71.05263157894737C-53.333333333333336,71.05263157894737,-46.666666666666664,71.05263157894737,-40,71.05263157894737C-36.666666666666664,71.05263157894737,-33.333333333333336,71.05263157894737,-30,71.05263157894737C-26.666666666666668,71.05263157894737,-23.333333333333332,92.36842105263158,-20,113.68421052631578" style="stroke: rgb(44, 160, 44); stroke-width: 2; fill: none;"/><path class="linegg timeline hgroup_2" d="M-20,113.68421052631578L0,113.68421052631578" style="stroke: rgb(255, 127, 14); stroke-width: 2; fill: none;"/></g><text class="computeSig_label label" text-anchor="end" dx="-5" dy="0.5rem" fill="black" width="200" transform="translate(-180,85.26315789473684)">1</text></g><g class="node computeNode h2 statics" transform="translate(210,0)" style="pointer-events: auto;"><g class="computeSig" stroke="black" style="stroke-width: 2;"><path class="linegg timeline hgroup_2" d="M-180,135C-173.33333333333334,135,-166.66666666666666,135,-160,135C-153.33333333333334,135,-146.66666666666666,135,-140,135C-133.33333333333334,135,-126.66666666666667,135,-120,135C-113.33333333333333,135,-106.66666666666667,135,-100,135C-93.33333333333333,135,-86.66666666666667,135,-80,135C-73.33333333333333,135,-66.66666666666667,135,-60,135C-53.333333333333336,135,-46.666666666666664,135,-40,135C-33.333333333333336,135,-26.666666666666668,135,-20,135C-13.333333333333332,135,-6.666666666666667,135,0,135" style="stroke: rgb(255, 127, 14); stroke-width: 2; fill: none;"/></g><text class="computeSig_label label" text-anchor="end" dx="-5" dy="0.5rem" fill="black" width="200" transform="translate(-180,135)">2</text></g><g class="node computeNode h3 statics" transform="translate(210,0)" style="pointer-events: auto;"><g class="computeSig" stroke="black" style="stroke-width: 2;"><path class="linegg timeline hgroup_2" d="M-180,127.89473684210526C-173.33333333333334,127.89473684210526,-166.66666666666666,127.89473684210526,-160,127.89473684210526C-153.33333333333334,127.89473684210526,-146.66666666666666,127.89473684210526,-140,127.89473684210526C-133.33333333333334,127.89473684210526,-126.66666666666667,127.89473684210526,-120,127.89473684210526C-113.33333333333333,127.89473684210526,-106.66666666666667,127.89473684210526,-100,127.89473684210526C-93.33333333333333,127.89473684210526,-86.66666666666667,127.89473684210526,-80,127.89473684210526C-73.33333333333333,127.89473684210526,-66.66666666666667,127.89473684210526,-60,127.89473684210526C-53.333333333333336,127.89473684210526,-46.666666666666664,127.89473684210526,-40,127.89473684210526C-33.333333333333336,127.89473684210526,-26.666666666666668,127.89473684210526,-20,127.89473684210526C-16.666666666666668,127.89473684210526,-13.333333333333334,127.89473684210526,-10,127.89473684210526C-6.666666666666666,127.89473684210526,-3.3333333333333335,113.68421052631578,0,99.47368421052632" style="stroke: rgb(255, 127, 14); stroke-width: 2; fill: none;"/><path class="linegg timeline hgroup_1" d="M0,99.47368421052632Z" style="stroke: rgb(31, 119, 180); stroke-width: 2;"/></g><text class="computeSig_label label" text-anchor="end" dx="-5" dy="0.5rem" fill="black" width="200" transform="translate(-180,127.89473684210526)">3</text></g><g class="node computeNode h4 statics" transform="translate(210,0)" style="pointer-events: auto;"><g class="computeSig" stroke="black" style="stroke-width: 2;"><path class="linegg timeline hgroup_3" d="M-180,56.84210526315789C-173.33333333333334,56.84210526315789,-166.66666666666666,56.84210526315789,-160,56.84210526315789C-153.33333333333334,56.84210526315789,-146.66666666666666,56.84210526315789,-140,56.84210526315789C-133.33333333333334,56.84210526315789,-126.66666666666667,56.84210526315789,-120,56.84210526315789C-113.33333333333333,56.84210526315789,-106.66666666666667,56.84210526315789,-100,56.84210526315789C-93.33333333333333,56.84210526315789,-86.66666666666667,56.84210526315789,-80,56.84210526315789C-73.33333333333333,56.84210526315789,-66.66666666666667,56.84210526315789,-60,56.84210526315789C-53.333333333333336,56.84210526315789,-46.666666666666664,56.84210526315789,-40,56.84210526315789C-33.333333333333336,56.84210526315789,-26.666666666666668,56.84210526315789,-20,56.84210526315789C-13.333333333333332,56.84210526315789,-6.666666666666667,56.84210526315789,0,56.84210526315789" style="stroke: rgb(44, 160, 44); stroke-width: 2; fill: none;"/></g><text class="computeSig_label label" text-anchor="end" dx="-5" dy="0.5rem" fill="black" width="200" transform="translate(-180,56.84210526315789)">4</text></g><g class="node computeNode h5 statics" transform="translate(210,0)" style="pointer-events: auto;"><g class="computeSig" stroke="black" style="stroke-width: 2;"><path class="linegg timeline hgroup_2" d="M-180,120.78947368421052C-176.66666666666666,120.78947368421052,-173.33333333333334,120.78947368421052,-170,120.78947368421052C-166.66666666666666,120.78947368421052,-163.33333333333334,106.57894736842104,-160,92.36842105263158" style="stroke: rgb(255, 127, 14); stroke-width: 2;"/><path class="linegg timeline hgroup_1" d="M-160,92.36842105263158C-153.33333333333334,92.36842105263158,-146.66666666666666,92.36842105263158,-140,92.36842105263158C-133.33333333333334,92.36842105263158,-126.66666666666667,92.36842105263158,-120,92.36842105263158C-113.33333333333333,92.36842105263158,-106.66666666666667,92.36842105263158,-100,92.36842105263158C-93.33333333333333,92.36842105263158,-86.66666666666667,92.36842105263158,-80,92.36842105263158C-73.33333333333333,92.36842105263158,-66.66666666666667,92.36842105263158,-60,92.36842105263158C-53.333333333333336,92.36842105263158,-46.666666666666664,92.36842105263158,-40,92.36842105263158C-33.333333333333336,92.36842105263158,-26.666666666666668,92.36842105263158,-20,92.36842105263158C-13.333333333333332,92.36842105263158,-6.666666666666667,92.36842105263158,0,92.36842105263158" style="stroke: rgb(31, 119, 180); stroke-width: 2; fill: none;"/></g><text class="computeSig_label label" text-anchor="end" dx="-5" dy="0.5rem" fill="black" width="200" transform="translate(-180,120.78947368421052)">5</text></g><g class="node computeNode h6 statics" transform="translate(210,0)" style="pointer-events: auto;"><g class="computeSig" stroke="black" style="stroke-width: 2;"><path class="linegg timeline hgroup_4" d="M-180,35.526315789473685C-176.66666666666666,35.526315789473685,-173.33333333333334,35.526315789473685,-170,35.526315789473685C-166.66666666666666,35.526315789473685,-163.33333333333334,42.631578947368425,-160,49.73684210526316" style="stroke: rgb(214, 39, 40); stroke-width: 2;"/><path class="linegg timeline hgroup_3" d="M-160,49.73684210526316C-153.33333333333334,49.73684210526316,-146.66666666666666,49.73684210526316,-140,49.73684210526316C-136.66666666666666,49.73684210526316,-133.33333333333334,49.73684210526316,-130,49.73684210526316C-126.66666666666667,49.73684210526316,-123.33333333333333,42.631578947368425,-120,35.526315789473685" style="stroke: rgb(44, 160, 44); stroke-width: 2; fill: none;"/><path class="linegg timeline hgroup_4" d="M-120,35.526315789473685C-113.33333333333333,35.526315789473685,-106.66666666666667,35.526315789473685,-100,35.526315789473685C-93.33333333333333,35.526315789473685,-86.66666666666667,35.526315789473685,-80,35.526315789473685C-73.33333333333333,35.526315789473685,-66.66666666666667,35.526315789473685,-60,35.526315789473685C-53.333333333333336,35.526315789473685,-46.666666666666664,35.526315789473685,-40,35.526315789473685C-33.333333333333336,35.526315789473685,-26.666666666666668,35.526315789473685,-20,35.526315789473685C-13.333333333333332,35.526315789473685,-6.666666666666667,35.526315789473685,0,35.526315789473685" style="stroke: rgb(214, 39, 40); stroke-width: 2; fill: none;"/></g><text class="computeSig_label label" text-anchor="end" dx="-5" dy="0.5rem" fill="black" width="200" transform="translate(-180,35.526315789473685)">6</text></g><g class="node computeNode h7 statics" transform="translate(210,0)" style="pointer-events: auto;"><g class="computeSig" stroke="black" style="stroke-width: 2;"><path class="linegg timeline hgroup_4" d="M-180,21.31578947368421C-176.66666666666666,21.31578947368421,-173.33333333333334,21.31578947368421,-170,21.31578947368421C-166.66666666666666,21.31578947368421,-163.33333333333334,17.763157894736842,-160,14.210526315789473" style="stroke: rgb(214, 39, 40); stroke-width: 2;"/><path class="linegg timeline hgroup_5" d="M-160,14.21052631578948C-153.33333333333334,14.21052631578948,-146.66666666666666,14.21052631578948,-140,14.21052631578948C-133.33333333333334,14.21052631578948,-126.66666666666667,14.21052631578948,-120,14.21052631578948C-113.33333333333333,14.21052631578948,-106.66666666666667,14.21052631578948,-100,14.21052631578948C-93.33333333333333,14.21052631578948,-86.66666666666667,14.21052631578948,-80,14.21052631578948C-73.33333333333333,14.21052631578948,-66.66666666666667,14.21052631578948,-60,14.21052631578948C-53.333333333333336,14.21052631578948,-46.666666666666664,14.21052631578948,-40,14.21052631578948C-33.333333333333336,14.21052631578948,-26.666666666666668,14.21052631578948,-20,14.21052631578948C-13.333333333333332,14.21052631578948,-6.666666666666667,14.21052631578948,0,14.21052631578948" style="stroke: rgb(148, 103, 189); stroke-width: 2; fill: none;"/></g><text class="computeSig_label label" text-anchor="end" dx="-5" dy="0.5rem" fill="black" width="200" transform="translate(-180,21.31578947368421)">7</text></g><g class="node computeNode h8 statics" transform="translate(210,0)" style="pointer-events: auto;"><g class="computeSig" stroke="black" style="stroke-width: 2;"><path class="linegg timeline hgroup_5" d="M-180,7.10526315789474C-173.33333333333334,7.10526315789474,-166.66666666666666,7.10526315789474,-160,7.10526315789474C-153.33333333333334,7.10526315789474,-146.66666666666666,7.10526315789474,-140,7.10526315789474C-133.33333333333334,7.10526315789474,-126.66666666666667,7.10526315789474,-120,7.10526315789474C-113.33333333333333,7.10526315789474,-106.66666666666667,7.10526315789474,-100,7.10526315789474C-93.33333333333333,7.10526315789474,-86.66666666666667,7.10526315789474,-80,7.10526315789474C-73.33333333333333,7.10526315789474,-66.66666666666667,7.10526315789474,-60,7.10526315789474C-53.333333333333336,7.10526315789474,-46.666666666666664,7.10526315789474,-40,7.10526315789474C-33.333333333333336,7.10526315789474,-26.666666666666668,7.10526315789474,-20,7.10526315789474C-13.333333333333332,7.10526315789474,-6.666666666666667,7.10526315789474,0,7.10526315789474" style="stroke: rgb(148, 103, 189); stroke-width: 2; fill: none;"/></g><text class="computeSig_label label" text-anchor="end" dx="-5" dy="0.5rem" fill="black" width="200" transform="translate(-180,7.105263157894736)">8</text></g><g class="node computeNode h9 statics" transform="translate(210,0)" style="pointer-events: auto;"><g class="computeSig" stroke="black" style="stroke-width: 2;"><path class="linegg timeline hgroup_3" d="M-180,63.94736842105263C-173.33333333333334,63.94736842105263,-166.66666666666666,63.94736842105263,-160,63.94736842105263C-153.33333333333334,63.94736842105263,-146.66666666666666,63.94736842105263,-140,63.94736842105263C-133.33333333333334,63.94736842105263,-126.66666666666667,63.94736842105263,-120,63.94736842105263C-113.33333333333333,63.94736842105263,-106.66666666666667,63.94736842105263,-100,63.94736842105263C-93.33333333333333,63.94736842105263,-86.66666666666667,63.94736842105263,-80,63.94736842105263C-73.33333333333333,63.94736842105263,-66.66666666666667,63.94736842105263,-60,63.94736842105263C-53.333333333333336,63.94736842105263,-46.666666666666664,63.94736842105263,-40,63.94736842105263C-33.333333333333336,63.94736842105263,-26.666666666666668,63.94736842105263,-20,63.94736842105263C-13.333333333333332,63.94736842105263,-6.666666666666667,63.94736842105263,0,63.94736842105263" style="stroke: rgb(44, 160, 44); stroke-width: 2; fill: none;"/></g><text class="computeSig_label label" text-anchor="end" dx="-5" dy="0.5rem" fill="black" width="200" transform="translate(-180,63.94736842105263)">9</text></g><g class="node computeNode h10 statics" transform="translate(210,0)" style="pointer-events: auto;"><g class="computeSig" stroke="black" style="stroke-width: 2;"><path class="linegg timeline hgroup_4" d="M-180,28.421052631578945C-173.33333333333334,28.421052631578945,-166.66666666666666,28.421052631578945,-160,28.421052631578945C-153.33333333333334,28.421052631578945,-146.66666666666666,28.421052631578945,-140,28.421052631578945C-133.33333333333334,28.421052631578945,-126.66666666666667,28.421052631578945,-120,28.421052631578945C-113.33333333333333,28.421052631578945,-106.66666666666667,28.421052631578945,-100,28.421052631578945C-93.33333333333333,28.421052631578945,-86.66666666666667,28.421052631578945,-80,28.421052631578945C-73.33333333333333,28.421052631578945,-66.66666666666667,28.421052631578945,-60,28.421052631578945C-53.333333333333336,28.421052631578945,-46.666666666666664,28.421052631578945,-40,28.421052631578945C-33.333333333333336,28.421052631578945,-26.666666666666668,28.421052631578945,-20,28.421052631578945C-13.333333333333332,28.421052631578945,-6.666666666666667,28.421052631578945,0,28.421052631578945" style="stroke: rgb(214, 39, 40); stroke-width: 2; fill: none;"/></g><text class="computeSig_label label" text-anchor="end" dx="-5" dy="0.5rem" fill="black" width="200" transform="translate(-180,28.421052631578945)">10</text></g></g><rect class="fisheyeLayer" style="opacity: 0; pointer-events: none;" width="180" height="180" transform="translate(120,0)"/><g class="table header" transform="translate(600,0)"><g class="back"><path style="fill: rgb(221, 221, 221);"/></g></g></g><g class="timebox hide" transform="translate(40,20)" dy="1rem" style="font-size: 16px;"/><circle id="tipfollowscursor"/></svg>