<svg id="jobmap" width="700" height="250" style="fill: none; font-size: 10px; font-family: sans-serif;" xmlns="http://www.w3.org/2000/svg" xmlns:xlink="http://www.w3.org/1999/xlink">

                    <defs id="defsmain"><pattern id="userpic" width="100%" height="100%" patternContentUnits="objectBoundingBox"><image height="1" width="1" preserveAspectRatio="none" xmlns:xlink="http://www.w3.org/1999/xlink" xlink:href="src/images/u.png"/></pattern><marker id="arrow" markerWidth="10" markerHeight="10" refX="0" refY="3" orient="auto" markerUnits="strokeWidth"><path d="M0,0 L0,6 L9,3 z" style="fill: black;"/></marker></defs><rect class="pantarget" opacity="0" width="1336" height="762"/><g class="pannel" transform="translate(50,50)"><text class="Time" text-anchor="middle" x="40" dy="-30" style="font-weight: bold; fill: black;">Time</text><line x1="60" x2="95" y1="-33" y2="-33" marker-end="url(#arrow)" style="stroke: black;"/><text class="Time" text-anchor="middle" x="-5" dy="-1rem" style="font-weight: bold; fill: black;">Instance</text><line x1="5" x2="5" y1="-5" y2="30" marker-end="url(#arrow)" style="stroke: black;"/><g class="gNodeaxis" transform="translate(610,-10)"><g class="gMainaxis" fill="none" font-size="10" font-family="sans-serif" text-anchor="middle"><g class="tick" opacity="1" transform="translate(-580, 0)"><line stroke="#000" y2="145" vector-effect="non-scaling-stroke" style="stroke-width: 0.1; stroke: black; stroke-dasharray: 1, 2; opacity: 0.5;"/><text fill="#000" y="-3" dy="-0.5rem">1</text></g><g class="tick" opacity="1" transform="translate(-560, 0)"><line stroke="#000" y2="145" vector-effect="non-scaling-stroke" style="stroke-width: 0.1; stroke: black; stroke-dasharray: 1, 2; opacity: 0.5;"/><text fill="#000" y="-3" dy="-0.5rem">2</text></g><g class="tick" opacity="1" transform="translate(-540, 0)"><line stroke="#000" y2="145" vector-effect="non-scaling-stroke" style="stroke-width: 0.1; stroke: black; stroke-dasharray: 1, 2; opacity: 0.5;"/><text fill="#000" y="-3" dy="-0.5rem">3</text></g><g class="tick" opacity="1" transform="translate(-520, 0)"><line stroke="#000" y2="145" vector-effect="non-scaling-stroke" style="stroke-width: 0.1; stroke: black; stroke-dasharray: 1, 2; opacity: 0.5;"/><text fill="#000" y="-3" dy="-0.5rem">4</text></g><g class="tick" opacity="1" transform="translate(-500, 0)"><line stroke="#000" y2="145" vector-effect="non-scaling-stroke" style="stroke-width: 0.1; stroke: black; stroke-dasharray: 1, 2; opacity: 0.5;"/><text fill="#000" y="-3" dy="-0.5rem">5</text></g><g class="tick" opacity="1" transform="translate(-480, 0)"><line stroke="#000" y2="145" vector-effect="non-scaling-stroke" style="stroke-width: 0.1; stroke: black; stroke-dasharray: 1, 2; opacity: 0.5;"/><text fill="#000" y="-3" dy="-0.5rem">6</text></g><g class="tick" opacity="1" transform="translate(-460, 0)"><line stroke="#000" y2="145" vector-effect="non-scaling-stroke" style="stroke-width: 0.1; stroke: black; stroke-dasharray: 1, 2; opacity: 0.5;"/><text fill="#000" y="-3" dy="-0.5rem">7</text></g><g class="tick" opacity="1" transform="translate(-440, 0)"><line stroke="#000" y2="145" vector-effect="non-scaling-stroke" style="stroke-width: 0.1; stroke: black; stroke-dasharray: 1, 2; opacity: 0.5;"/><text fill="#000" y="-3" dy="-0.5rem">8</text></g><g class="tick" opacity="1" transform="translate(-420, 0)"><line stroke="#000" y2="145" vector-effect="non-scaling-stroke" style="stroke-width: 0.1; stroke: black; stroke-dasharray: 1, 2; opacity: 0.5;"/><text fill="#000" y="-3" dy="-0.5rem">9</text></g><g class="tick" opacity="1" transform="translate(-400, 0)"><line stroke="#000" y2="145" vector-effect="non-scaling-stroke" style="stroke-width: 0.1; stroke: black; stroke-dasharray: 1, 2; opacity: 0.5;"/><text fill="#000" y="-3" dy="-0.5rem">10</text></g><g class="tick" opacity="1" transform="translate(-380, 0)"><line stroke="#000" y2="145" vector-effect="non-scaling-stroke" style="stroke-width: 0.1; stroke: black; stroke-dasharray: 1, 2; opacity: 0.5;"/><text fill="#000" y="-3" dy="-0.5rem">11</text></g><g class="tick" opacity="1" transform="translate(-360, 0)"><line stroke="#000" y2="145" vector-effect="non-scaling-stroke" style="stroke-width: 0.1; stroke: black; stroke-dasharray: 1, 2; opacity: 0.5;"/><text fill="#000" y="-3" dy="-0.5rem">12</text></g><g class="tick" opacity="1" transform="translate(-340, 0)"><line stroke="#000" y2="145" vector-effect="non-scaling-stroke" style="stroke-width: 0.1; stroke: black; stroke-dasharray: 1, 2; opacity: 0.5;"/><text fill="#000" y="-3" dy="-0.5rem">13</text></g><g class="tick" opacity="1" transform="translate(-320, 0)"><line stroke="#000" y2="145" vector-effect="non-scaling-stroke" style="stroke-width: 0.1; stroke: black; stroke-dasharray: 1, 2; opacity: 0.5;"/><text fill="#000" y="-3" dy="-0.5rem">14</text></g><g class="tick" opacity="1" transform="translate(-300, 0)"><line stroke="#000" y2="145" vector-effect="non-scaling-stroke" style="stroke-width: 0.1; stroke: black; stroke-dasharray: 1, 2; opacity: 0.5;"/><text fill="#000" y="-3" dy="-0.5rem">15</text></g><g class="tick" opacity="1" transform="translate(-280, 0)"><line stroke="#000" y2="145" vector-effect="non-scaling-stroke" style="stroke-width: 0.1; stroke: black; stroke-dasharray: 1, 2; opacity: 0.5;"/><text fill="#000" y="-3" dy="-0.5rem">16</text></g><g class="tick" opacity="1" transform="translate(-260, 0)"><line stroke="#000" y2="145" vector-effect="non-scaling-stroke" style="stroke-width: 0.1; stroke: black; stroke-dasharray: 1, 2; opacity: 0.5;"/><text fill="#000" y="-3" dy="-0.5rem">17</text></g><g class="tick" opacity="1" transform="translate(-240, 0)"><line stroke="#000" y2="145" vector-effect="non-scaling-stroke" style="stroke-width: 0.1; stroke: black; stroke-dasharray: 1, 2; opacity: 0.5;"/><text fill="#000" y="-3" dy="-0.5rem">18</text></g><g class="tick" opacity="1" transform="translate(-220, 0)"><line stroke="#000" y2="145" vector-effect="non-scaling-stroke" style="stroke-width: 0.1; stroke: black; stroke-dasharray: 1, 2; opacity: 0.5;"/><text fill="#000" y="-3" dy="-0.5rem">19</text></g><g class="tick" opacity="1" transform="translate(-200, 0)"><line stroke="#000" y2="145" vector-effect="non-scaling-stroke" style="stroke-width: 0.1; stroke: black; stroke-dasharray: 1, 2; opacity: 0.5;"/><text fill="#000" y="-3" dy="-0.5rem">20</text></g><g class="tick" opacity="1" transform="translate(-180, 0)"><line stroke="#000" y2="145" vector-effect="non-scaling-stroke" style="stroke-width: 0.1; stroke: black; stroke-dasharray: 1, 2; opacity: 0.5;"/><text fill="#000" y="-3" dy="-0.5rem">21</text></g><g class="tick" opacity="1" transform="translate(-160, 0)"><line stroke="#000" y2="145" vector-effect="non-scaling-stroke" style="stroke-width: 0.1; stroke: black; stroke-dasharray: 1, 2; opacity: 0.5;"/><text fill="#000" y="-3" dy="-0.5rem">22</text></g><g class="tick" opacity="1" transform="translate(-140, 0)"><line stroke="#000" y2="145" vector-effect="non-scaling-stroke" style="stroke-width: 0.1; stroke: black; stroke-dasharray: 1, 2; opacity: 0.5;"/><text fill="#000" y="-3" dy="-0.5rem">23</text></g><g class="tick" opacity="1" transform="translate(-120, 0)"><line stroke="#000" y2="145" vector-effect="non-scaling-stroke" style="stroke-width: 0.1; stroke: black; stroke-dasharray: 1, 2; opacity: 0.5;"/><text fill="#000" y="-3" dy="-0.5rem">24</text></g><g class="tick" opacity="1" transform="translate(-100, 0)"><line stroke="#000" y2="145" vector-effect="non-scaling-stroke" style="stroke-width: 0.1; stroke: black; stroke-dasharray: 1, 2; opacity: 0.5;"/><text fill="#000" y="-3" dy="-0.5rem">25</text></g><g class="tick" opacity="1" transform="translate(-80, 0)"><line stroke="#000" y2="145" vector-effect="non-scaling-stroke" style="stroke-width: 0.1; stroke: black; stroke-dasharray: 1, 2; opacity: 0.5;"/><text fill="#000" y="-3" dy="-0.5rem">26</text></g><g class="tick" opacity="1" transform="translate(-60, 0)"><line stroke="#000" y2="145" vector-effect="non-scaling-stroke" style="stroke-width: 0.1; stroke: black; stroke-dasharray: 1, 2; opacity: 0.5;"/><text fill="#000" y="-3" dy="-0.5rem">27</text></g><g class="tick" opacity="1" transform="translate(-40, 0)"><line stroke="#000" y2="145" vector-effect="non-scaling-stroke" style="stroke-width: 0.1; stroke: black; stroke-dasharray: 1, 2; opacity: 0.5;"/><text fill="#000" y="-3" dy="-0.5rem">28</text></g><g class="tick" opacity="1" transform="translate(-20, 0)"><line stroke="#000" y2="145" vector-effect="non-scaling-stroke" style="stroke-width: 0.1; stroke: black; stroke-dasharray: 1, 2; opacity: 0.5;"/><text fill="#000" y="-3" dy="-0.5rem">29</text></g><g class="tick" opacity="1" transform=""><line stroke="#000" y2="145" vector-effect="non-scaling-stroke" style="stroke-width: 0.1; stroke: black; stroke-dasharray: 1, 2; opacity: 0.5;"/><text fill="#000" y="-3" dy="-0.5rem">30</text></g></g><g class="gSubaxis hide"/></g><g class="annotation"/><g class="linkg"><g class="links" style="display: none;"><path stroke="black" style="stroke-width: 2;"/><text text-anchor="middle">1</text></g><g class="links" style="display: none;"><path stroke="black" style="stroke-width: 2;"/><text text-anchor="middle">1</text></g><g class="links" style="display: none;"><path stroke="black" style="stroke-width: 2;"/><text text-anchor="middle">1</text></g><g class="links" style="display: none;"><path stroke="black" style="stroke-width: 2;"/><text text-anchor="middle">1</text></g><g class="links" style="display: none;"><path stroke="black" style="stroke-width: 2;"/><text text-anchor="middle">1</text></g><g class="links" style="display: none;"><path stroke="black" style="stroke-width: 2;"/><text text-anchor="middle">1</text></g><g class="links" style="display: none;"><path stroke="black" style="stroke-width: 2;"/><text text-anchor="middle">1</text></g><g class="links" style="display: none;"><path stroke="black" style="stroke-width: 2;"/><text text-anchor="middle">1</text></g><g class="links" style="display: none;"><path stroke="black" style="stroke-width: 2;"/><text text-anchor="middle">1</text></g><g class="links" style="display: none;"><path stroke="black" style="stroke-width: 2;"/><text text-anchor="middle">1</text></g><g class="links" style="display: none;"><path stroke="black" style="stroke-width: 2;"/><text text-anchor="middle">1</text></g></g><g class="nodeg"><g class="node computeNode h1 statics" transform="translate(610,0)" style="pointer-events: auto;"><g class="computeSig" stroke="black" style="stroke-width: 2;"><path class="linegg timeline hgroup_1" d="M-580,23.142857142857142C-573.3333333333334,23.142857142857142,-566.6666666666666,23.142857142857142,-560,23.142857142857142C-553.3333333333334,23.142857142857142,-546.6666666666666,23.142857142857142,-540,23.142857142857142C-533.3333333333334,23.142857142857142,-526.6666666666666,23.142857142857142,-520,23.142857142857142C-513.3333333333334,23.142857142857142,-506.6666666666667,23.142857142857142,-500,23.142857142857142C-493.3333333333333,23.142857142857142,-486.6666666666667,23.142857142857142,-480,23.142857142857142C-473.3333333333333,23.142857142857142,-466.6666666666667,23.142857142857142,-460,23.142857142857142C-453.3333333333333,23.142857142857142,-446.6666666666667,23.142857142857142,-440,23.142857142857142C-433.3333333333333,23.142857142857142,-426.6666666666667,23.142857142857142,-420,23.142857142857142C-413.3333333333333,23.142857142857142,-406.6666666666667,23.142857142857142,-400,23.142857142857142C-393.3333333333333,23.142857142857142,-386.6666666666667,23.142857142857142,-380,23.142857142857142C-373.3333333333333,23.142857142857142,-366.6666666666667,23.142857142857142,-360,23.142857142857142C-353.3333333333333,23.142857142857142,-346.6666666666667,23.142857142857142,-340,23.142857142857142C-336.6666666666667,23.142857142857142,-333.3333333333333,23.142857142857142,-330,23.142857142857142C-326.6666666666667,23.142857142857142,-323.3333333333333,69.42857142857142,-320,115.71428571428571" style="stroke: rgb(31, 119, 180); stroke-width: 2; fill: none;"/><path class="linegg timeline hgroup_2" d="M-320,115.71428571428571C-316.6666666666667,115.71428571428571,-313.3333333333333,115.71428571428571,-310,115.71428571428571C-306.6666666666667,115.71428571428571,-303.3333333333333,69.42857142857143,-300,23.142857142857142" style="stroke: rgb(255, 127, 14); stroke-width: 2;"/><path class="linegg timeline hgroup_1" d="M-300,23.142857142857142C-296.6666666666667,23.142857142857142,-293.3333333333333,23.142857142857142,-290,23.142857142857142C-286.6666666666667,23.142857142857142,-283.3333333333333,13.5,-280,3.857142857142857" style="stroke: rgb(31, 119, 180); stroke-width: 2;"/><path class="linegg timeline hgroup_5" d="M-280,3.857142857142857C-273.3333333333333,3.857142857142857,-266.6666666666667,3.857142857142857,-260,3.857142857142857C-253.33333333333334,3.857142857142857,-246.66666666666666,3.857142857142857,-240,3.857142857142857C-233.33333333333334,3.857142857142857,-226.66666666666666,3.857142857142857,-220,3.857142857142857C-213.33333333333334,3.857142857142857,-206.66666666666666,3.857142857142857,-200,3.857142857142857C-193.33333333333334,3.857142857142857,-186.66666666666666,3.857142857142857,-180,3.857142857142857C-173.33333333333334,3.857142857142857,-166.66666666666666,3.857142857142857,-160,3.857142857142857C-153.33333333333334,3.857142857142857,-146.66666666666666,3.857142857142857,-140,3.857142857142857C-133.33333333333334,3.857142857142857,-126.66666666666667,3.857142857142857,-120,3.857142857142857C-113.33333333333333,3.857142857142857,-106.66666666666667,3.857142857142857,-100,3.857142857142857C-93.33333333333333,3.857142857142857,-86.66666666666667,3.857142857142857,-80,3.857142857142857C-73.33333333333333,3.857142857142857,-66.66666666666667,3.857142857142857,-60,3.857142857142857C-53.333333333333336,3.857142857142857,-46.666666666666664,3.857142857142857,-40,3.857142857142857C-33.333333333333336,3.857142857142857,-26.666666666666668,3.857142857142857,-20,3.857142857142857C-13.333333333333332,3.857142857142857,-6.666666666666667,3.857142857142857,0,3.857142857142857" style="stroke: rgb(148, 103, 189); stroke-width: 2; fill: none;"/></g><text class="computeSig_label label" text-anchor="end" dx="-5" dy="0.5rem" fill="black" width="200" transform="translate(-580,23.142857142857142)">1</text></g><g class="node computeNode h2 statics" transform="translate(610,0)" style="pointer-events: auto;"><g class="computeSig" stroke="black" style="stroke-width: 2;"><path class="linegg timeline hgroup_2" d="M-580,123.42857142857143C-573.3333333333334,123.42857142857143,-566.6666666666666,123.42857142857143,-560,123.42857142857143C-553.3333333333334,123.42857142857143,-546.6666666666666,123.42857142857143,-540,123.42857142857143C-533.3333333333334,123.42857142857143,-526.6666666666666,123.42857142857143,-520,123.42857142857143C-513.3333333333334,123.42857142857143,-506.6666666666667,123.42857142857143,-500,123.42857142857143C-493.3333333333333,123.42857142857143,-486.6666666666667,123.42857142857143,-480,123.42857142857143C-473.3333333333333,123.42857142857143,-466.6666666666667,123.42857142857143,-460,123.42857142857143C-453.3333333333333,123.42857142857143,-446.6666666666667,123.42857142857143,-440,123.42857142857143C-433.3333333333333,123.42857142857143,-426.6666666666667,123.42857142857143,-420,123.42857142857143C-413.3333333333333,123.42857142857143,-406.6666666666667,123.42857142857143,-400,123.42857142857143C-393.3333333333333,123.42857142857143,-386.6666666666667,123.42857142857143,-380,123.42857142857143C-373.3333333333333,123.42857142857143,-366.6666666666667,123.42857142857143,-360,123.42857142857143C-353.3333333333333,123.42857142857143,-346.6666666666667,123.42857142857143,-340,123.42857142857143C-333.3333333333333,123.42857142857143,-326.6666666666667,123.42857142857143,-320,123.42857142857143C-313.3333333333333,123.42857142857143,-306.6666666666667,123.42857142857143,-300,123.42857142857143C-293.3333333333333,123.42857142857143,-286.6666666666667,123.42857142857143,-280,123.42857142857143C-273.3333333333333,123.42857142857143,-266.6666666666667,123.42857142857143,-260,123.42857142857143C-256.6666666666667,123.42857142857143,-253.33333333333334,123.42857142857143,-250,123.42857142857143C-246.66666666666666,123.42857142857143,-243.33333333333334,82.92857142857143,-240,42.42857142857143" style="stroke: rgb(255, 127, 14); stroke-width: 2; fill: none;"/><path class="linegg timeline hgroup_1" d="M-240,42.42857142857143C-233.33333333333334,42.42857142857143,-226.66666666666666,42.42857142857143,-220,42.42857142857143C-213.33333333333334,42.42857142857143,-206.66666666666666,42.42857142857143,-200,42.42857142857143C-193.33333333333334,42.42857142857143,-186.66666666666666,42.42857142857143,-180,42.42857142857143C-173.33333333333334,42.42857142857143,-166.66666666666666,42.42857142857143,-160,42.42857142857143C-153.33333333333334,42.42857142857143,-146.66666666666666,42.42857142857143,-140,42.42857142857143C-133.33333333333334,42.42857142857143,-126.66666666666667,42.42857142857143,-120,42.42857142857143C-113.33333333333333,42.42857142857143,-106.66666666666667,42.42857142857143,-100,42.42857142857143C-93.33333333333333,42.42857142857143,-86.66666666666667,42.42857142857143,-80,42.42857142857143C-73.33333333333333,42.42857142857143,-66.66666666666667,42.42857142857143,-60,42.42857142857143C-53.333333333333336,42.42857142857143,-46.666666666666664,42.42857142857143,-40,42.42857142857143C-33.333333333333336,42.42857142857143,-26.666666666666668,42.42857142857143,-20,42.42857142857143C-13.333333333333332,42.42857142857143,-6.666666666666667,42.42857142857143,0,42.42857142857143" style="stroke: rgb(31, 119, 180); stroke-width: 2; fill: none;"/></g><text class="computeSig_label label" text-anchor="end" dx="-5" dy="0.5rem" fill="black" width="200" transform="translate(-580,123.42857142857143)">2</text></g><g class="node computeNode h3 statics" transform="translate(610,0)" style="pointer-events: auto;"><g class="computeSig" stroke="black" style="stroke-width: 2;"><path class="linegg timeline hgroup_2" d="M-580,127.28571428571428C-576.6666666666666,127.28571428571428,-573.3333333333334,127.28571428571428,-570,127.28571428571428C-566.6666666666666,127.28571428571428,-563.3333333333334,115.71428571428572,-560,104.14285714285715" style="stroke: rgb(255, 127, 14); stroke-width: 2;"/><path class="linegg timeline hgroup_4" d="M-560,104.14285714285715C-553.3333333333334,104.14285714285715,-546.6666666666666,104.14285714285715,-540,104.14285714285715C-533.3333333333334,104.14285714285715,-526.6666666666666,104.14285714285715,-520,104.14285714285715C-513.3333333333334,104.14285714285715,-506.6666666666667,104.14285714285715,-500,104.14285714285715C-493.3333333333333,104.14285714285715,-486.6666666666667,104.14285714285715,-480,104.14285714285715C-473.3333333333333,104.14285714285715,-466.6666666666667,104.14285714285715,-460,104.14285714285715C-453.3333333333333,104.14285714285715,-446.6666666666667,104.14285714285715,-440,104.14285714285715C-433.3333333333333,104.14285714285715,-426.6666666666667,104.14285714285715,-420,104.14285714285715C-413.3333333333333,104.14285714285715,-406.6666666666667,104.14285714285715,-400,104.14285714285715C-393.3333333333333,104.14285714285715,-386.6666666666667,104.14285714285715,-380,104.14285714285715C-373.3333333333333,104.14285714285715,-366.6666666666667,104.14285714285715,-360,104.14285714285715C-353.3333333333333,104.14285714285715,-346.6666666666667,104.14285714285715,-340,104.14285714285715C-333.3333333333333,104.14285714285715,-326.6666666666667,104.14285714285715,-320,104.14285714285715C-313.3333333333333,104.14285714285715,-306.6666666666667,104.14285714285715,-300,104.14285714285715C-293.3333333333333,104.14285714285715,-286.6666666666667,104.14285714285715,-280,104.14285714285715C-273.3333333333333,104.14285714285715,-266.6666666666667,104.14285714285715,-260,104.14285714285715C-253.33333333333334,104.14285714285715,-246.66666666666666,104.14285714285715,-240,104.14285714285715C-233.33333333333334,104.14285714285715,-226.66666666666666,104.14285714285715,-220,104.14285714285715C-213.33333333333334,104.14285714285715,-206.66666666666666,104.14285714285715,-200,104.14285714285715C-193.33333333333334,104.14285714285715,-186.66666666666666,104.14285714285715,-180,104.14285714285715C-176.66666666666666,104.14285714285715,-173.33333333333334,104.14285714285715,-170,104.14285714285715C-166.66666666666666,104.14285714285715,-163.33333333333334,90.64285714285715,-160,77.14285714285714" style="stroke: rgb(214, 39, 40); stroke-width: 2; fill: none;"/><path class="linegg timeline hgroup_3" d="M-160,77.14285714285714C-153.33333333333334,77.14285714285714,-146.66666666666666,77.14285714285714,-140,77.14285714285714C-133.33333333333334,77.14285714285714,-126.66666666666667,77.14285714285714,-120,77.14285714285714C-113.33333333333333,77.14285714285714,-106.66666666666667,77.14285714285714,-100,77.14285714285714C-93.33333333333333,77.14285714285714,-86.66666666666667,77.14285714285714,-80,77.14285714285714C-73.33333333333333,77.14285714285714,-66.66666666666667,77.14285714285714,-60,77.14285714285714C-53.333333333333336,77.14285714285714,-46.666666666666664,77.14285714285714,-40,77.14285714285714C-33.333333333333336,77.14285714285714,-26.666666666666668,77.14285714285714,-20,77.14285714285714C-13.333333333333332,77.14285714285714,-6.666666666666667,77.14285714285714,0,77.14285714285714" style="stroke: rgb(44, 160, 44); stroke-width: 2; fill: none;"/></g><text class="computeSig_label label" text-anchor="end" dx="-5" dy="0.5rem" fill="black" width="200" transform="translate(-580,127.28571428571428)">3</text></g><g class="node computeNode h4 statics" transform="translate(610,0)" style="pointer-events: auto;"><g class="computeSig" stroke="black" style="stroke-width: 2;"><path class="linegg timeline hgroup_3" d="M-580,57.857142857142854C-573.3333333333334,57.857142857142854,-566.6666666666666,57.857142857142854,-560,57.857142857142854C-553.3333333333334,57.857142857142854,-546.6666666666666,57.857142857142854,-540,57.857142857142854C-533.3333333333334,57.857142857142854,-526.6666666666666,57.857142857142854,-520,57.857142857142854C-513.3333333333334,57.857142857142854,-506.6666666666667,57.857142857142854,-500,57.857142857142854C-496.6666666666667,57.857142857142854,-493.3333333333333,57.857142857142854,-490,57.857142857142854C-486.6666666666667,57.857142857142854,-483.3333333333333,42.42857142857143,-480,27" style="stroke: rgb(44, 160, 44); stroke-width: 2; fill: none;"/><path class="linegg timeline hgroup_1" d="M-480,27C-476.6666666666667,27,-473.3333333333333,27,-470,27C-466.6666666666667,27,-463.3333333333333,57.857142857142854,-460,88.71428571428571" style="stroke: rgb(31, 119, 180); stroke-width: 2;"/><path class="linegg timeline hgroup_4" d="M-460,88.71428571428571C-456.6666666666667,88.71428571428571,-453.3333333333333,88.71428571428571,-450,88.71428571428571C-446.6666666666667,88.71428571428571,-443.3333333333333,57.857142857142854,-440,27" style="stroke: rgb(214, 39, 40); stroke-width: 2;"/><path class="linegg timeline hgroup_1" d="M-440,27C-433.3333333333333,27,-426.6666666666667,27,-420,27C-413.3333333333333,27,-406.6666666666667,27,-400,27C-393.3333333333333,27,-386.6666666666667,27,-380,27C-373.3333333333333,27,-366.6666666666667,27,-360,27C-356.6666666666667,27,-353.3333333333333,27,-350,27C-346.6666666666667,27,-343.3333333333333,17.357142857142858,-340,7.714285714285714" style="stroke: rgb(31, 119, 180); stroke-width: 2; fill: none;"/><path class="linegg timeline hgroup_5" d="M-340,7.714285714285714C-336.6666666666667,7.714285714285714,-333.3333333333333,7.714285714285714,-330,7.714285714285714C-326.6666666666667,7.714285714285714,-323.3333333333333,17.357142857142858,-320,27" style="stroke: rgb(148, 103, 189); stroke-width: 2;"/><path class="linegg timeline hgroup_1" d="M-320,27C-313.3333333333333,27,-306.6666666666667,27,-300,27C-293.3333333333333,27,-286.6666666666667,27,-280,27C-273.3333333333333,27,-266.6666666666667,27,-260,27C-253.33333333333334,27,-246.66666666666666,27,-240,27C-233.33333333333334,27,-226.66666666666666,27,-220,27C-213.33333333333334,27,-206.66666666666666,27,-200,27C-193.33333333333334,27,-186.66666666666666,27,-180,27C-176.66666666666666,27,-173.33333333333334,27,-170,27C-166.66666666666666,27,-163.33333333333334,57.857142857142854,-160,88.71428571428571" style="stroke: rgb(31, 119, 180); stroke-width: 2; fill: none;"/><path class="linegg timeline hgroup_4" d="M-160,88.71428571428571C-156.66666666666666,88.71428571428571,-153.33333333333334,88.71428571428571,-150,88.71428571428571C-146.66666666666666,88.71428571428571,-143.33333333333334,73.28571428571428,-140,57.857142857142854" style="stroke: rgb(214, 39, 40); stroke-width: 2;"/><path class="linegg timeline hgroup_3" d="M-140,57.857142857142854C-133.33333333333334,57.857142857142854,-126.66666666666667,57.857142857142854,-120,57.857142857142854C-116.66666666666667,57.857142857142854,-113.33333333333333,57.857142857142854,-110,57.857142857142854C-106.66666666666667,57.857142857142854,-103.33333333333333,32.785714285714285,-100,7.714285714285714" style="stroke: rgb(44, 160, 44); stroke-width: 2; fill: none;"/><path class="linegg timeline hgroup_5" d="M-100,7.714285714285714C-96.66666666666667,7.714285714285714,-93.33333333333333,7.714285714285714,-90,7.714285714285714C-86.66666666666667,7.714285714285714,-83.33333333333333,17.357142857142858,-80,27" style="stroke: rgb(148, 103, 189); stroke-width: 2;"/><path class="linegg timeline hgroup_1" d="M-80,27C-76.66666666666667,27,-73.33333333333333,27,-70,27C-66.66666666666667,27,-63.333333333333336,42.42857142857143,-60,57.857142857142854" style="stroke: rgb(31, 119, 180); stroke-width: 2;"/><path class="linegg timeline hgroup_3" d="M-60,57.857142857142854C-53.333333333333336,57.857142857142854,-46.666666666666664,57.857142857142854,-40,57.857142857142854C-33.333333333333336,57.857142857142854,-26.666666666666668,57.857142857142854,-20,57.857142857142854C-13.333333333333332,57.857142857142854,-6.666666666666667,57.857142857142854,0,57.857142857142854" style="stroke: rgb(44, 160, 44); stroke-width: 2; fill: none;"/></g><text class="computeSig_label label" text-anchor="end" dx="-5" dy="0.5rem" fill="black" width="200" transform="translate(-580,57.857142857142854)">4</text></g><g class="node computeNode h5 statics" transform="translate(610,0)" style="pointer-events: auto;"><g class="computeSig" stroke="black" style="stroke-width: 2;"><path class="linegg timeline hgroup_3" d="M-580,69.42857142857142C-573.3333333333334,69.42857142857142,-566.6666666666666,69.42857142857142,-560,69.42857142857142C-553.3333333333334,69.42857142857142,-546.6666666666666,69.42857142857142,-540,69.42857142857142C-533.3333333333334,69.42857142857142,-526.6666666666666,69.42857142857142,-520,69.42857142857142C-513.3333333333334,69.42857142857142,-506.6666666666667,69.42857142857142,-500,69.42857142857142C-493.3333333333333,69.42857142857142,-486.6666666666667,69.42857142857142,-480,69.42857142857142C-473.3333333333333,69.42857142857142,-466.6666666666667,69.42857142857142,-460,69.42857142857142C-453.3333333333333,69.42857142857142,-446.6666666666667,69.42857142857142,-440,69.42857142857142C-433.3333333333333,69.42857142857142,-426.6666666666667,69.42857142857142,-420,69.42857142857142C-413.3333333333333,69.42857142857142,-406.6666666666667,69.42857142857142,-400,69.42857142857142C-393.3333333333333,69.42857142857142,-386.6666666666667,69.42857142857142,-380,69.42857142857142C-373.3333333333333,69.42857142857142,-366.6666666666667,69.42857142857142,-360,69.42857142857142C-353.3333333333333,69.42857142857142,-346.6666666666667,69.42857142857142,-340,69.42857142857142C-333.3333333333333,69.42857142857142,-326.6666666666667,69.42857142857142,-320,69.42857142857142C-313.3333333333333,69.42857142857142,-306.6666666666667,69.42857142857142,-300,69.42857142857142C-293.3333333333333,69.42857142857142,-286.6666666666667,69.42857142857142,-280,69.42857142857142C-273.3333333333333,69.42857142857142,-266.6666666666667,69.42857142857142,-260,69.42857142857142C-253.33333333333334,69.42857142857142,-246.66666666666666,69.42857142857142,-240,69.42857142857142C-233.33333333333334,69.42857142857142,-226.66666666666666,69.42857142857142,-220,69.42857142857142C-213.33333333333334,69.42857142857142,-206.66666666666666,69.42857142857142,-200,69.42857142857142C-193.33333333333334,69.42857142857142,-186.66666666666666,69.42857142857142,-180,69.42857142857142C-173.33333333333334,69.42857142857142,-166.66666666666666,69.42857142857142,-160,69.42857142857142C-153.33333333333334,69.42857142857142,-146.66666666666666,69.42857142857142,-140,69.42857142857142C-133.33333333333334,69.42857142857142,-126.66666666666667,69.42857142857142,-120,69.42857142857142C-113.33333333333333,69.42857142857142,-106.66666666666667,69.42857142857142,-100,69.42857142857142C-93.33333333333333,69.42857142857142,-86.66666666666667,69.42857142857142,-80,69.42857142857142C-73.33333333333333,69.42857142857142,-66.66666666666667,69.42857142857142,-60,69.42857142857142C-53.333333333333336,69.42857142857142,-46.666666666666664,69.42857142857142,-40,69.42857142857142C-33.333333333333336,69.42857142857142,-26.666666666666668,69.42857142857142,-20,69.42857142857142C-13.333333333333332,69.42857142857142,-6.666666666666667,69.42857142857142,0,69.42857142857142" style="stroke: rgb(44, 160, 44); stroke-width: 2; fill: none;"/></g><text class="computeSig_label label" text-anchor="end" dx="-5" dy="0.5rem" fill="black" width="200" transform="translate(-580,69.42857142857142)">5</text></g><g class="node computeNode h6 statics" transform="translate(610,0)" style="pointer-events: auto;"><g class="computeSig" stroke="black" style="stroke-width: 2;"><path class="linegg timeline hgroup_4" d="M-580,111.85714285714286C-573.3333333333334,111.85714285714286,-566.6666666666666,111.85714285714286,-560,111.85714285714286C-553.3333333333334,111.85714285714286,-546.6666666666666,111.85714285714286,-540,111.85714285714286C-533.3333333333334,111.85714285714286,-526.6666666666666,111.85714285714286,-520,111.85714285714286C-513.3333333333334,111.85714285714286,-506.6666666666667,111.85714285714286,-500,111.85714285714286C-493.3333333333333,111.85714285714286,-486.6666666666667,111.85714285714286,-480,111.85714285714286C-473.3333333333333,111.85714285714286,-466.6666666666667,111.85714285714286,-460,111.85714285714286C-453.3333333333333,111.85714285714286,-446.6666666666667,111.85714285714286,-440,111.85714285714286C-433.3333333333333,111.85714285714286,-426.6666666666667,111.85714285714286,-420,111.85714285714286C-413.3333333333333,111.85714285714286,-406.6666666666667,111.85714285714286,-400,111.85714285714286C-393.3333333333333,111.85714285714286,-386.6666666666667,111.85714285714286,-380,111.85714285714286C-373.3333333333333,111.85714285714286,-366.6666666666667,111.85714285714286,-360,111.85714285714286C-353.3333333333333,111.85714285714286,-346.6666666666667,111.85714285714286,-340,111.85714285714286C-333.3333333333333,111.85714285714286,-326.6666666666667,111.85714285714286,-320,111.85714285714286C-313.3333333333333,111.85714285714286,-306.6666666666667,111.85714285714286,-300,111.85714285714286C-296.6666666666667,111.85714285714286,-293.3333333333333,111.85714285714286,-290,111.85714285714286C-286.6666666666667,111.85714285714286,-283.3333333333333,81,-280,50.142857142857146" style="stroke: rgb(214, 39, 40); stroke-width: 2; fill: none;"/><path class="linegg timeline hgroup_1" d="M-280,50.142857142857146C-273.3333333333333,50.142857142857146,-266.6666666666667,50.142857142857146,-260,50.142857142857146C-256.6666666666667,50.142857142857146,-253.33333333333334,50.142857142857146,-250,50.142857142857146C-246.66666666666666,50.142857142857146,-243.33333333333334,92.57142857142857,-240,135" style="stroke: rgb(31, 119, 180); stroke-width: 2; fill: none;"/><path class="linegg timeline hgroup_2" d="M-240,135C-233.33333333333334,135,-226.66666666666666,135,-220,135C-213.33333333333334,135,-206.66666666666666,135,-200,135C-193.33333333333334,135,-186.66666666666666,135,-180,135C-173.33333333333334,135,-166.66666666666666,135,-160,135C-153.33333333333334,135,-146.66666666666666,135,-140,135C-133.33333333333334,135,-126.66666666666667,135,-120,135C-113.33333333333333,135,-106.66666666666667,135,-100,135C-93.33333333333333,135,-86.66666666666667,135,-80,135C-76.66666666666667,135,-73.33333333333333,135,-70,135C-66.66666666666667,135,-63.333333333333336,108,-60,81" style="stroke: rgb(255, 127, 14); stroke-width: 2; fill: none;"/><path class="linegg timeline hgroup_3" d="M-60,81C-56.666666666666664,81,-53.333333333333336,81,-50,81C-46.666666666666664,81,-43.333333333333336,65.57142857142857,-40,50.142857142857146" style="stroke: rgb(44, 160, 44); stroke-width: 2;"/><path class="linegg timeline hgroup_1" d="M-40,50.142857142857146C-33.333333333333336,50.142857142857146,-26.666666666666668,50.142857142857146,-20,50.142857142857146C-13.333333333333332,50.142857142857146,-6.666666666666667,50.142857142857146,0,50.142857142857146" style="stroke: rgb(31, 119, 180); stroke-width: 2; fill: none;"/></g><text class="computeSig_label label" text-anchor="end" dx="-5" dy="0.5rem" fill="black" width="200" transform="translate(-580,111.85714285714286)">6</text></g><g class="node computeNode h7 statics" transform="translate(610,0)" style="pointer-events: auto;"><g class="computeSig" stroke="black" style="stroke-width: 2;"><path class="linegg timeline hgroup_1" d="M-580,34.71428571428571C-573.3333333333334,34.71428571428571,-566.6666666666666,34.71428571428571,-560,34.71428571428571C-553.3333333333334,34.71428571428571,-546.6666666666666,34.71428571428571,-540,34.71428571428571C-533.3333333333334,34.71428571428571,-526.6666666666666,34.71428571428571,-520,34.71428571428571C-516.6666666666666,34.71428571428571,-513.3333333333334,34.71428571428571,-510,34.71428571428571C-506.6666666666667,34.71428571428571,-503.3333333333333,23.14285714285714,-500,11.571428571428571" style="stroke: rgb(31, 119, 180); stroke-width: 2; fill: none;"/><path class="linegg timeline hgroup_5" d="M-500,11.57142857142857C-493.3333333333333,11.57142857142857,-486.6666666666667,11.57142857142857,-480,11.57142857142857C-473.3333333333333,11.57142857142857,-466.6666666666667,11.57142857142857,-460,11.57142857142857C-453.3333333333333,11.57142857142857,-446.6666666666667,11.57142857142857,-440,11.57142857142857C-433.3333333333333,11.57142857142857,-426.6666666666667,11.57142857142857,-420,11.57142857142857C-416.6666666666667,11.571428571428571,-413.3333333333333,11.571428571428571,-410,11.571428571428571C-406.6666666666667,11.571428571428571,-403.3333333333333,38.57142857142857,-400,65.57142857142857" style="stroke: rgb(148, 103, 189); stroke-width: 2; fill: none;"/><path class="linegg timeline hgroup_3" d="M-400,65.57142857142857C-393.3333333333333,65.57142857142857,-386.6666666666667,65.57142857142857,-380,65.57142857142857C-376.6666666666667,65.57142857142857,-373.3333333333333,65.57142857142857,-370,65.57142857142857C-366.6666666666667,65.57142857142857,-363.3333333333333,81,-360,96.42857142857143" style="stroke: rgb(44, 160, 44); stroke-width: 2; fill: none;"/><path class="linegg timeline hgroup_4" d="M-360,96.42857142857143C-353.3333333333333,96.42857142857143,-346.6666666666667,96.42857142857143,-340,96.42857142857143C-333.3333333333333,96.42857142857143,-326.6666666666667,96.42857142857143,-320,96.42857142857143C-313.3333333333333,96.42857142857143,-306.6666666666667,96.42857142857143,-300,96.42857142857143C-293.3333333333333,96.42857142857143,-286.6666666666667,96.42857142857143,-280,96.42857142857143C-273.3333333333333,96.42857142857143,-266.6666666666667,96.42857142857143,-260,96.42857142857143C-256.6666666666667,96.42857142857143,-253.33333333333334,96.42857142857143,-250,96.42857142857143C-246.66666666666666,96.42857142857143,-243.33333333333334,81,-240,65.57142857142857" style="stroke: rgb(214, 39, 40); stroke-width: 2; fill: none;"/><path class="linegg timeline hgroup_3" d="M-240,65.57142857142857C-233.33333333333334,65.57142857142857,-226.66666666666666,65.57142857142857,-220,65.57142857142857C-213.33333333333334,65.57142857142857,-206.66666666666666,65.57142857142857,-200,65.57142857142857C-193.33333333333334,65.57142857142857,-186.66666666666666,65.57142857142857,-180,65.57142857142857C-173.33333333333334,65.57142857142857,-166.66666666666666,65.57142857142857,-160,65.57142857142857C-153.33333333333334,65.57142857142857,-146.66666666666666,65.57142857142857,-140,65.57142857142857C-133.33333333333334,65.57142857142857,-126.66666666666667,65.57142857142857,-120,65.57142857142857C-113.33333333333333,65.57142857142857,-106.66666666666667,65.57142857142857,-100,65.57142857142857C-93.33333333333333,65.57142857142857,-86.66666666666667,65.57142857142857,-80,65.57142857142857C-73.33333333333333,65.57142857142857,-66.66666666666667,65.57142857142857,-60,65.57142857142857C-53.333333333333336,65.57142857142857,-46.666666666666664,65.57142857142857,-40,65.57142857142857C-33.333333333333336,65.57142857142857,-26.666666666666668,65.57142857142857,-20,65.57142857142857C-13.333333333333332,65.57142857142857,-6.666666666666667,65.57142857142857,0,65.57142857142857" style="stroke: rgb(44, 160, 44); stroke-width: 2; fill: none;"/></g><text class="computeSig_label label" text-anchor="end" dx="-5" dy="0.5rem" fill="black" width="200" transform="translate(-580,34.71428571428571)">7</text></g><g class="node computeNode h8 statics" transform="translate(610,0)" style="pointer-events: auto;"><g class="computeSig" stroke="black" style="stroke-width: 2;"><path class="linegg timeline hgroup_4" d="M-580,92.57142857142857C-573.3333333333334,92.57142857142857,-566.6666666666666,92.57142857142857,-560,92.57142857142857C-553.3333333333334,92.57142857142857,-546.6666666666666,92.57142857142857,-540,92.57142857142857C-536.6666666666666,92.57142857142857,-533.3333333333334,92.57142857142857,-530,92.57142857142857C-526.6666666666666,92.57142857142857,-523.3333333333334,61.71428571428571,-520,30.857142857142858" style="stroke: rgb(214, 39, 40); stroke-width: 2; fill: none;"/><path class="linegg timeline hgroup_1" d="M-520,30.85714285714286C-513.3333333333334,30.85714285714286,-506.6666666666667,30.85714285714286,-500,30.85714285714286C-493.3333333333333,30.85714285714286,-486.6666666666667,30.85714285714286,-480,30.85714285714286C-473.3333333333333,30.85714285714286,-466.6666666666667,30.85714285714286,-460,30.85714285714286C-453.3333333333333,30.85714285714286,-446.6666666666667,30.85714285714286,-440,30.85714285714286C-433.3333333333333,30.85714285714286,-426.6666666666667,30.85714285714286,-420,30.85714285714286C-413.3333333333333,30.85714285714286,-406.6666666666667,30.85714285714286,-400,30.85714285714286C-393.3333333333333,30.85714285714286,-386.6666666666667,30.85714285714286,-380,30.85714285714286C-373.3333333333333,30.85714285714286,-366.6666666666667,30.85714285714286,-360,30.85714285714286C-353.3333333333333,30.85714285714286,-346.6666666666667,30.85714285714286,-340,30.85714285714286C-333.3333333333333,30.85714285714286,-326.6666666666667,30.85714285714286,-320,30.85714285714286C-316.6666666666667,30.857142857142858,-313.3333333333333,30.857142857142858,-310,30.857142857142858C-306.6666666666667,30.857142857142858,-303.3333333333333,46.28571428571429,-300,61.714285714285715" style="stroke: rgb(31, 119, 180); stroke-width: 2; fill: none;"/><path class="linegg timeline hgroup_3" d="M-300,61.714285714285715C-293.3333333333333,61.714285714285715,-286.6666666666667,61.714285714285715,-280,61.714285714285715C-273.3333333333333,61.714285714285715,-266.6666666666667,61.714285714285715,-260,61.714285714285715C-253.33333333333334,61.714285714285715,-246.66666666666666,61.714285714285715,-240,61.714285714285715C-233.33333333333334,61.714285714285715,-226.66666666666666,61.714285714285715,-220,61.714285714285715C-213.33333333333334,61.714285714285715,-206.66666666666666,61.714285714285715,-200,61.714285714285715C-193.33333333333334,61.714285714285715,-186.66666666666666,61.714285714285715,-180,61.714285714285715C-173.33333333333334,61.714285714285715,-166.66666666666666,61.714285714285715,-160,61.714285714285715C-153.33333333333334,61.714285714285715,-146.66666666666666,61.714285714285715,-140,61.714285714285715C-136.66666666666666,61.714285714285715,-133.33333333333334,61.714285714285715,-130,61.714285714285715C-126.66666666666667,61.714285714285715,-123.33333333333333,46.285714285714285,-120,30.857142857142858" style="stroke: rgb(44, 160, 44); stroke-width: 2; fill: none;"/><path class="linegg timeline hgroup_1" d="M-120,30.85714285714286C-113.33333333333333,30.85714285714286,-106.66666666666667,30.85714285714286,-100,30.85714285714286C-93.33333333333333,30.85714285714286,-86.66666666666667,30.85714285714286,-80,30.85714285714286C-73.33333333333333,30.85714285714286,-66.66666666666667,30.85714285714286,-60,30.85714285714286C-53.333333333333336,30.85714285714286,-46.666666666666664,30.85714285714286,-40,30.85714285714286C-33.333333333333336,30.85714285714286,-26.666666666666668,30.85714285714286,-20,30.85714285714286C-13.333333333333332,30.85714285714286,-6.666666666666667,30.85714285714286,0,30.85714285714286" style="stroke: rgb(31, 119, 180); stroke-width: 2; fill: none;"/></g><text class="computeSig_label label" text-anchor="end" dx="-5" dy="0.5rem" fill="black" width="200" transform="translate(-580,92.57142857142857)">8</text></g><g class="node computeNode h9 statics" transform="translate(610,0)" style="pointer-events: auto;"><g class="computeSig" stroke="black" style="stroke-width: 2;"><path class="linegg timeline hgroup_1" d="M-580,38.57142857142857C-573.3333333333334,38.57142857142857,-566.6666666666666,38.57142857142857,-560,38.57142857142857C-553.3333333333334,38.57142857142857,-546.6666666666666,38.57142857142857,-540,38.57142857142857C-536.6666666666666,38.57142857142857,-533.3333333333334,38.57142857142857,-530,38.57142857142857C-526.6666666666666,38.57142857142857,-523.3333333333334,55.92857142857142,-520,73.28571428571428" style="stroke: rgb(31, 119, 180); stroke-width: 2; fill: none;"/><path class="linegg timeline hgroup_3" d="M-520,73.28571428571428C-513.3333333333334,73.28571428571428,-506.6666666666667,73.28571428571428,-500,73.28571428571428C-493.3333333333333,73.28571428571428,-486.6666666666667,73.28571428571428,-480,73.28571428571428C-473.3333333333333,73.28571428571428,-466.6666666666667,73.28571428571428,-460,73.28571428571428C-453.3333333333333,73.28571428571428,-446.6666666666667,73.28571428571428,-440,73.28571428571428C-433.3333333333333,73.28571428571428,-426.6666666666667,73.28571428571428,-420,73.28571428571428C-413.3333333333333,73.28571428571428,-406.6666666666667,73.28571428571428,-400,73.28571428571428C-393.3333333333333,73.28571428571428,-386.6666666666667,73.28571428571428,-380,73.28571428571428C-373.3333333333333,73.28571428571428,-366.6666666666667,73.28571428571428,-360,73.28571428571428C-353.3333333333333,73.28571428571428,-346.6666666666667,73.28571428571428,-340,73.28571428571428C-333.3333333333333,73.28571428571428,-326.6666666666667,73.28571428571428,-320,73.28571428571428C-313.3333333333333,73.28571428571428,-306.6666666666667,73.28571428571428,-300,73.28571428571428C-293.3333333333333,73.28571428571428,-286.6666666666667,73.28571428571428,-280,73.28571428571428C-273.3333333333333,73.28571428571428,-266.6666666666667,73.28571428571428,-260,73.28571428571428C-256.6666666666667,73.28571428571428,-253.33333333333334,73.28571428571428,-250,73.28571428571428C-246.66666666666666,73.28571428571428,-243.33333333333334,86.78571428571428,-240,100.28571428571429" style="stroke: rgb(44, 160, 44); stroke-width: 2; fill: none;"/><path class="linegg timeline hgroup_4" d="M-240,100.28571428571429C-236.66666666666666,100.28571428571429,-233.33333333333334,100.28571428571429,-230,100.28571428571429C-226.66666666666666,100.28571428571429,-223.33333333333334,109.92857142857143,-220,119.57142857142857" style="stroke: rgb(214, 39, 40); stroke-width: 2;"/><path class="linegg timeline hgroup_2" d="M-220,119.57142857142857C-216.66666666666666,119.57142857142857,-213.33333333333334,119.57142857142857,-210,119.57142857142857C-206.66666666666666,119.57142857142857,-203.33333333333334,96.42857142857143,-200,73.28571428571428" style="stroke: rgb(255, 127, 14); stroke-width: 2;"/><path class="linegg timeline hgroup_3" d="M-200,73.28571428571428C-193.33333333333334,73.28571428571428,-186.66666666666666,73.28571428571428,-180,73.28571428571428C-173.33333333333334,73.28571428571428,-166.66666666666666,73.28571428571428,-160,73.28571428571428C-153.33333333333334,73.28571428571428,-146.66666666666666,73.28571428571428,-140,73.28571428571428C-133.33333333333334,73.28571428571428,-126.66666666666667,73.28571428571428,-120,73.28571428571428C-113.33333333333333,73.28571428571428,-106.66666666666667,73.28571428571428,-100,73.28571428571428C-93.33333333333333,73.28571428571428,-86.66666666666667,73.28571428571428,-80,73.28571428571428C-73.33333333333333,73.28571428571428,-66.66666666666667,73.28571428571428,-60,73.28571428571428C-53.333333333333336,73.28571428571428,-46.666666666666664,73.28571428571428,-40,73.28571428571428C-33.333333333333336,73.28571428571428,-26.666666666666668,73.28571428571428,-20,73.28571428571428C-13.333333333333332,73.28571428571428,-6.666666666666667,73.28571428571428,0,73.28571428571428" style="stroke: rgb(44, 160, 44); stroke-width: 2; fill: none;"/></g><text class="computeSig_label label" text-anchor="end" dx="-5" dy="0.5rem" fill="black" width="200" transform="translate(-580,38.57142857142857)">9</text></g><g class="node computeNode h10 statics" transform="translate(610,0)" style="pointer-events: auto;"><g class="computeSig" stroke="black" style="stroke-width: 2;"><path class="linegg timeline hgroup_4" d="M-580,108C-576.6666666666666,108,-573.3333333333334,108,-570,108C-566.6666666666666,108,-563.3333333333334,77.14285714285714,-560,46.285714285714285" style="stroke: rgb(214, 39, 40); stroke-width: 2;"/><path class="linegg timeline hgroup_1" d="M-560,46.285714285714285C-556.6666666666666,46.285714285714285,-553.3333333333334,46.285714285714285,-550,46.285714285714285C-546.6666666666666,46.285714285714285,-543.3333333333334,30.857142857142854,-540,15.428571428571429" style="stroke: rgb(31, 119, 180); stroke-width: 2;"/><path class="linegg timeline hgroup_5" d="M-540,15.42857142857143C-533.3333333333334,15.42857142857143,-526.6666666666666,15.42857142857143,-520,15.42857142857143C-513.3333333333334,15.42857142857143,-506.6666666666667,15.42857142857143,-500,15.42857142857143C-493.3333333333333,15.42857142857143,-486.6666666666667,15.42857142857143,-480,15.42857142857143C-473.3333333333333,15.42857142857143,-466.6666666666667,15.42857142857143,-460,15.42857142857143C-456.6666666666667,15.428571428571429,-453.3333333333333,15.428571428571429,-450,15.428571428571429C-446.6666666666667,15.428571428571429,-443.3333333333333,73.28571428571429,-440,131.14285714285714" style="stroke: rgb(148, 103, 189); stroke-width: 2; fill: none;"/><path class="linegg timeline hgroup_2" d="M-440,131.14285714285714C-433.3333333333333,131.14285714285714,-426.6666666666667,131.14285714285714,-420,131.14285714285714C-413.3333333333333,131.14285714285714,-406.6666666666667,131.14285714285714,-400,131.14285714285714C-393.3333333333333,131.14285714285714,-386.6666666666667,131.14285714285714,-380,131.14285714285714C-373.3333333333333,131.14285714285714,-366.6666666666667,131.14285714285714,-360,131.14285714285714C-353.3333333333333,131.14285714285714,-346.6666666666667,131.14285714285714,-340,131.14285714285714C-333.3333333333333,131.14285714285714,-326.6666666666667,131.14285714285714,-320,131.14285714285714C-313.3333333333333,131.14285714285714,-306.6666666666667,131.14285714285714,-300,131.14285714285714C-293.3333333333333,131.14285714285714,-286.6666666666667,131.14285714285714,-280,131.14285714285714C-273.3333333333333,131.14285714285714,-266.6666666666667,131.14285714285714,-260,131.14285714285714C-253.33333333333334,131.14285714285714,-246.66666666666666,131.14285714285714,-240,131.14285714285714C-233.33333333333334,131.14285714285714,-226.66666666666666,131.14285714285714,-220,131.14285714285714C-213.33333333333334,131.14285714285714,-206.66666666666666,131.14285714285714,-200,131.14285714285714C-193.33333333333334,131.14285714285714,-186.66666666666666,131.14285714285714,-180,131.14285714285714C-176.66666666666666,131.14285714285714,-173.33333333333334,131.14285714285714,-170,131.14285714285714C-166.66666666666666,131.14285714285714,-163.33333333333334,119.57142857142857,-160,108" style="stroke: rgb(255, 127, 14); stroke-width: 2; fill: none;"/><path class="linegg timeline hgroup_4" d="M-160,108C-153.33333333333334,108,-146.66666666666666,108,-140,108C-133.33333333333334,108,-126.66666666666667,108,-120,108C-113.33333333333333,108,-106.66666666666667,108,-100,108C-93.33333333333333,108,-86.66666666666667,108,-80,108C-73.33333333333333,108,-66.66666666666667,108,-60,108C-53.333333333333336,108,-46.666666666666664,108,-40,108C-33.333333333333336,108,-26.666666666666668,108,-20,108C-13.333333333333332,108,-6.666666666666667,108,0,108" style="stroke: rgb(214, 39, 40); stroke-width: 2; fill: none;"/></g><text class="computeSig_label label" text-anchor="end" dx="-5" dy="0.5rem" fill="black" width="200" transform="translate(-580,108)">10</text></g></g><rect class="fisheyeLayer" style="opacity: 0; pointer-events: none;" width="580" height="180" transform="translate(-280,0)"/><g class="table header" transform="translate(600,0)"><g class="back"><path style="fill: rgb(221, 221, 221);"/></g></g></g><g class="timebox hide" transform="translate(40,20)" dy="1rem" style="font-size: 16px;"/><circle id="tipfollowscursor"/></svg>