<svg id="jobmap" width="700" height="250" style="fill: none; font-size: 10px; font-family: sans-serif;" xmlns="http://www.w3.org/2000/svg" xmlns:xlink="http://www.w3.org/1999/xlink">

                    <defs id="defsmain"><pattern id="userpic" width="100%" height="100%" patternContentUnits="objectBoundingBox"><image height="1" width="1" preserveAspectRatio="none" xmlns:xlink="http://www.w3.org/1999/xlink" xlink:href="src/images/u.png"/></pattern><marker id="arrow" markerWidth="10" markerHeight="10" refX="0" refY="3" orient="auto" markerUnits="strokeWidth"><path d="M0,0 L0,6 L9,3 z" style="fill: black;"/></marker></defs><rect class="pantarget" opacity="0" width="1146" height="762"/><g class="pannel" transform="translate(50,50)"><text class="Time" text-anchor="middle" x="40" dy="-30" style="font-weight: bold; fill: black;">Time</text><line x1="60" x2="95" y1="-33" y2="-33" marker-end="url(#arrow)" style="stroke: black;"/><text class="Time" text-anchor="middle" x="-5" dy="-1rem" style="font-weight: bold; fill: black;">Instance</text><line x1="5" x2="5" y1="-5" y2="30" marker-end="url(#arrow)" style="stroke: black;"/><g class="gNodeaxis" transform="translate(610,-10)"><g class="gMainaxis" fill="none" font-size="10" font-family="sans-serif" text-anchor="middle"><g class="tick" opacity="1" transform="translate(-580, 0)"><line stroke="#000" y2="145" vector-effect="non-scaling-stroke" style="stroke-width: 0.1; stroke: black; stroke-dasharray: 1, 2; opacity: 0.5;"/><text fill="#000" y="-3" dy="-0.5rem">1</text></g><g class="tick" opacity="1" transform="translate(-560, 0)"><line stroke="#000" y2="145" vector-effect="non-scaling-stroke" style="stroke-width: 0.1; stroke: black; stroke-dasharray: 1, 2; opacity: 0.5;"/><text fill="#000" y="-3" dy="-0.5rem">2</text></g><g class="tick" opacity="1" transform="translate(-540, 0)"><line stroke="#000" y2="145" vector-effect="non-scaling-stroke" style="stroke-width: 0.1; stroke: black; stroke-dasharray: 1, 2; opacity: 0.5;"/><text fill="#000" y="-3" dy="-0.5rem">3</text></g><g class="tick" opacity="1" transform="translate(-520, 0)"><line stroke="#000" y2="145" vector-effect="non-scaling-stroke" style="stroke-width: 0.1; stroke: black; stroke-dasharray: 1, 2; opacity: 0.5;"/><text fill="#000" y="-3" dy="-0.5rem">4</text></g><g class="tick" opacity="1" transform="translate(-500, 0)"><line stroke="#000" y2="145" vector-effect="non-scaling-stroke" style="stroke-width: 0.1; stroke: black; stroke-dasharray: 1, 2; opacity: 0.5;"/><text fill="#000" y="-3" dy="-0.5rem">5</text></g><g class="tick" opacity="1" transform="translate(-480, 0)"><line stroke="#000" y2="145" vector-effect="non-scaling-stroke" style="stroke-width: 0.1; stroke: black; stroke-dasharray: 1, 2; opacity: 0.5;"/><text fill="#000" y="-3" dy="-0.5rem">6</text></g><g class="tick" opacity="1" transform="translate(-460, 0)"><line stroke="#000" y2="145" vector-effect="non-scaling-stroke" style="stroke-width: 0.1; stroke: black; stroke-dasharray: 1, 2; opacity: 0.5;"/><text fill="#000" y="-3" dy="-0.5rem">7</text></g><g class="tick" opacity="1" transform="translate(-440, 0)"><line stroke="#000" y2="145" vector-effect="non-scaling-stroke" style="stroke-width: 0.1; stroke: black; stroke-dasharray: 1, 2; opacity: 0.5;"/><text fill="#000" y="-3" dy="-0.5rem">8</text></g><g class="tick" opacity="1" transform="translate(-420, 0)"><line stroke="#000" y2="145" vector-effect="non-scaling-stroke" style="stroke-width: 0.1; stroke: black; stroke-dasharray: 1, 2; opacity: 0.5;"/><text fill="#000" y="-3" dy="-0.5rem">9</text></g><g class="tick" opacity="1" transform="translate(-400, 0)"><line stroke="#000" y2="145" vector-effect="non-scaling-stroke" style="stroke-width: 0.1; stroke: black; stroke-dasharray: 1, 2; opacity: 0.5;"/><text fill="#000" y="-3" dy="-0.5rem">10</text></g><g class="tick" opacity="1" transform="translate(-380, 0)"><line stroke="#000" y2="145" vector-effect="non-scaling-stroke" style="stroke-width: 0.1; stroke: black; stroke-dasharray: 1, 2; opacity: 0.5;"/><text fill="#000" y="-3" dy="-0.5rem">11</text></g><g class="tick" opacity="1" transform="translate(-360, 0)"><line stroke="#000" y2="145" vector-effect="non-scaling-stroke" style="stroke-width: 0.1; stroke: black; stroke-dasharray: 1, 2; opacity: 0.5;"/><text fill="#000" y="-3" dy="-0.5rem">12</text></g><g class="tick" opacity="1" transform="translate(-340, 0)"><line stroke="#000" y2="145" vector-effect="non-scaling-stroke" style="stroke-width: 0.1; stroke: black; stroke-dasharray: 1, 2; opacity: 0.5;"/><text fill="#000" y="-3" dy="-0.5rem">13</text></g><g class="tick" opacity="1" transform="translate(-320, 0)"><line stroke="#000" y2="145" vector-effect="non-scaling-stroke" style="stroke-width: 0.1; stroke: black; stroke-dasharray: 1, 2; opacity: 0.5;"/><text fill="#000" y="-3" dy="-0.5rem">14</text></g><g class="tick" opacity="1" transform="translate(-300, 0)"><line stroke="#000" y2="145" vector-effect="non-scaling-stroke" style="stroke-width: 0.1; stroke: black; stroke-dasharray: 1, 2; opacity: 0.5;"/><text fill="#000" y="-3" dy="-0.5rem">15</text></g><g class="tick" opacity="1" transform="translate(-280, 0)"><line stroke="#000" y2="145" vector-effect="non-scaling-stroke" style="stroke-width: 0.1; stroke: black; stroke-dasharray: 1, 2; opacity: 0.5;"/><text fill="#000" y="-3" dy="-0.5rem">16</text></g><g class="tick" opacity="1" transform="translate(-260, 0)"><line stroke="#000" y2="145" vector-effect="non-scaling-stroke" style="stroke-width: 0.1; stroke: black; stroke-dasharray: 1, 2; opacity: 0.5;"/><text fill="#000" y="-3" dy="-0.5rem">17</text></g><g class="tick" opacity="1" transform="translate(-240, 0)"><line stroke="#000" y2="145" vector-effect="non-scaling-stroke" style="stroke-width: 0.1; stroke: black; stroke-dasharray: 1, 2; opacity: 0.5;"/><text fill="#000" y="-3" dy="-0.5rem">18</text></g><g class="tick" opacity="1" transform="translate(-220, 0)"><line stroke="#000" y2="145" vector-effect="non-scaling-stroke" style="stroke-width: 0.1; stroke: black; stroke-dasharray: 1, 2; opacity: 0.5;"/><text fill="#000" y="-3" dy="-0.5rem">19</text></g><g class="tick" opacity="1" transform="translate(-200, 0)"><line stroke="#000" y2="145" vector-effect="non-scaling-stroke" style="stroke-width: 0.1; stroke: black; stroke-dasharray: 1, 2; opacity: 0.5;"/><text fill="#000" y="-3" dy="-0.5rem">20</text></g><g class="tick" opacity="1" transform="translate(-180, 0)"><line stroke="#000" y2="145" vector-effect="non-scaling-stroke" style="stroke-width: 0.1; stroke: black; stroke-dasharray: 1, 2; opacity: 0.5;"/><text fill="#000" y="-3" dy="-0.5rem">21</text></g><g class="tick" opacity="1" transform="translate(-160, 0)"><line stroke="#000" y2="145" vector-effect="non-scaling-stroke" style="stroke-width: 0.1; stroke: black; stroke-dasharray: 1, 2; opacity: 0.5;"/><text fill="#000" y="-3" dy="-0.5rem">22</text></g><g class="tick" opacity="1" transform="translate(-140, 0)"><line stroke="#000" y2="145" vector-effect="non-scaling-stroke" style="stroke-width: 0.1; stroke: black; stroke-dasharray: 1, 2; opacity: 0.5;"/><text fill="#000" y="-3" dy="-0.5rem">23</text></g><g class="tick" opacity="1" transform="translate(-120, 0)"><line stroke="#000" y2="145" vector-effect="non-scaling-stroke" style="stroke-width: 0.1; stroke: black; stroke-dasharray: 1, 2; opacity: 0.5;"/><text fill="#000" y="-3" dy="-0.5rem">24</text></g><g class="tick" opacity="1" transform="translate(-100, 0)"><line stroke="#000" y2="145" vector-effect="non-scaling-stroke" style="stroke-width: 0.1; stroke: black; stroke-dasharray: 1, 2; opacity: 0.5;"/><text fill="#000" y="-3" dy="-0.5rem">25</text></g><g class="tick" opacity="1" transform="translate(-80, 0)"><line stroke="#000" y2="145" vector-effect="non-scaling-stroke" style="stroke-width: 0.1; stroke: black; stroke-dasharray: 1, 2; opacity: 0.5;"/><text fill="#000" y="-3" dy="-0.5rem">26</text></g><g class="tick" opacity="1" transform="translate(-60, 0)"><line stroke="#000" y2="145" vector-effect="non-scaling-stroke" style="stroke-width: 0.1; stroke: black; stroke-dasharray: 1, 2; opacity: 0.5;"/><text fill="#000" y="-3" dy="-0.5rem">27</text></g><g class="tick" opacity="1" transform="translate(-40, 0)"><line stroke="#000" y2="145" vector-effect="non-scaling-stroke" style="stroke-width: 0.1; stroke: black; stroke-dasharray: 1, 2; opacity: 0.5;"/><text fill="#000" y="-3" dy="-0.5rem">28</text></g><g class="tick" opacity="1" transform="translate(-20, 0)"><line stroke="#000" y2="145" vector-effect="non-scaling-stroke" style="stroke-width: 0.1; stroke: black; stroke-dasharray: 1, 2; opacity: 0.5;"/><text fill="#000" y="-3" dy="-0.5rem">29</text></g><g class="tick" opacity="1" transform=""><line stroke="#000" y2="145" vector-effect="non-scaling-stroke" style="stroke-width: 0.1; stroke: black; stroke-dasharray: 1, 2; opacity: 0.5;"/><text fill="#000" y="-3" dy="-0.5rem">30</text></g></g><g class="gSubaxis hide"/></g><g class="annotation"/><g class="linkg"><g class="links" style="display: none;"><path stroke="black" style="stroke-width: 2;"/><text text-anchor="middle">1</text></g><g class="links" style="display: none;"><path stroke="black" style="stroke-width: 2;"/><text text-anchor="middle">1</text></g><g class="links" style="display: none;"><path stroke="black" style="stroke-width: 2;"/><text text-anchor="middle">1</text></g><g class="links" style="display: none;"><path stroke="black" style="stroke-width: 2;"/><text text-anchor="middle">1</text></g><g class="links" style="display: none;"><path stroke="black" style="stroke-width: 2;"/><text text-anchor="middle">1</text></g><g class="links" style="display: none;"><path stroke="black" style="stroke-width: 2;"/><text text-anchor="middle">1</text></g><g class="links" style="display: none;"><path stroke="black" style="stroke-width: 2;"/><text text-anchor="middle">1</text></g><g class="links" style="display: none;"><path stroke="black" style="stroke-width: 2;"/><text text-anchor="middle">1</text></g><g class="links" style="display: none;"><path stroke="black" style="stroke-width: 2;"/><text text-anchor="middle">1</text></g><g class="links" style="display: none;"><path stroke="black" style="stroke-width: 2;"/><text text-anchor="middle">1</text></g><g class="links" style="display: none;"><path stroke="black" style="stroke-width: 2;"/><text text-anchor="middle">1</text></g></g><g class="nodeg"><g class="node computeNode h1 statics" transform="translate(610,0)" style="pointer-events: auto;"><g class="computeSig" stroke="black" style="stroke-width: 2;"><path class="linegg timeline hgroup_1" d="M-580,37.96875C-576.6666666666666,37.96875,-573.3333333333334,37.96875,-570,37.96875C-566.6666666666666,37.96875,-563.3333333333334,69.609375,-560,101.25" style="stroke: rgb(31, 119, 180); stroke-width: 2;"/><path class="linegg timeline hgroup_5" d="M-560,101.25C-553.3333333333334,101.25,-546.6666666666666,101.25,-540,101.25C-533.3333333333334,101.25,-526.6666666666666,101.25,-520,101.25C-513.3333333333334,101.25,-506.6666666666667,101.25,-500,101.25C-493.3333333333333,101.25,-486.6666666666667,101.25,-480,101.25C-473.3333333333333,101.25,-466.6666666666667,101.25,-460,101.25C-453.3333333333333,101.25,-446.6666666666667,101.25,-440,101.25C-433.3333333333333,101.25,-426.6666666666667,101.25,-420,101.25C-413.3333333333333,101.25,-406.6666666666667,101.25,-400,101.25C-393.3333333333333,101.25,-386.6666666666667,101.25,-380,101.25C-373.3333333333333,101.25,-366.6666666666667,101.25,-360,101.25C-353.3333333333333,101.25,-346.6666666666667,101.25,-340,101.25C-333.3333333333333,101.25,-326.6666666666667,101.25,-320,101.25C-313.3333333333333,101.25,-306.6666666666667,101.25,-300,101.25C-293.3333333333333,101.25,-286.6666666666667,101.25,-280,101.25C-273.3333333333333,101.25,-266.6666666666667,101.25,-260,101.25C-253.33333333333334,101.25,-246.66666666666666,101.25,-240,101.25C-236.66666666666666,101.25,-233.33333333333334,101.25,-230,101.25C-226.66666666666666,101.25,-223.33333333333334,84.375,-220,67.5" style="stroke: rgb(148, 103, 189); stroke-width: 2; fill: none;"/><path class="linegg timeline hgroup_2" d="M-220,67.5C-213.33333333333334,67.5,-206.66666666666666,67.5,-200,67.5C-193.33333333333334,67.5,-186.66666666666666,67.5,-180,67.5C-173.33333333333334,67.5,-166.66666666666666,67.5,-160,67.5C-153.33333333333334,67.5,-146.66666666666666,67.5,-140,67.5C-133.33333333333334,67.5,-126.66666666666667,67.5,-120,67.5C-113.33333333333333,67.5,-106.66666666666667,67.5,-100,67.5C-93.33333333333333,67.5,-86.66666666666667,67.5,-80,67.5C-73.33333333333333,67.5,-66.66666666666667,67.5,-60,67.5C-53.333333333333336,67.5,-46.666666666666664,67.5,-40,67.5C-33.333333333333336,67.5,-26.666666666666668,67.5,-20,67.5C-13.333333333333332,67.5,-6.666666666666667,67.5,0,67.5" style="stroke: rgb(255, 127, 14); stroke-width: 2; fill: none;"/></g><text class="computeSig_label label" text-anchor="end" dx="-5" dy="0.5rem" fill="black" width="200" transform="translate(-580,37.96875)">1</text></g><g class="node computeNode h2 statics" transform="translate(610,0)" style="pointer-events: auto;"><g class="computeSig" stroke="black" style="stroke-width: 2;"><path class="linegg timeline hgroup_2" d="M-580,54.84375C-576.6666666666666,54.84375,-573.3333333333334,54.84375,-570,54.84375C-566.6666666666666,54.84375,-563.3333333333334,69.609375,-560,84.375" style="stroke: rgb(255, 127, 14); stroke-width: 2;"/><path class="linegg timeline hgroup_5" d="M-560,84.375C-553.3333333333334,84.375,-546.6666666666666,84.375,-540,84.375C-533.3333333333334,84.375,-526.6666666666666,84.375,-520,84.375C-516.6666666666666,84.375,-513.3333333333334,84.375,-510,84.375C-506.6666666666667,84.375,-503.3333333333333,69.609375,-500,54.84375" style="stroke: rgb(148, 103, 189); stroke-width: 2; fill: none;"/><path class="linegg timeline hgroup_2" d="M-500,54.84375C-493.3333333333333,54.84375,-486.6666666666667,54.84375,-480,54.84375C-473.3333333333333,54.84375,-466.6666666666667,54.84375,-460,54.84375C-453.3333333333333,54.84375,-446.6666666666667,54.84375,-440,54.84375C-433.3333333333333,54.84375,-426.6666666666667,54.84375,-420,54.84375C-413.3333333333333,54.84375,-406.6666666666667,54.84375,-400,54.84375C-393.3333333333333,54.84375,-386.6666666666667,54.84375,-380,54.84375C-373.3333333333333,54.84375,-366.6666666666667,54.84375,-360,54.84375C-353.3333333333333,54.84375,-346.6666666666667,54.84375,-340,54.84375C-336.6666666666667,54.84375,-333.3333333333333,54.84375,-330,54.84375C-326.6666666666667,54.84375,-323.3333333333333,37.96875,-320,21.09375" style="stroke: rgb(255, 127, 14); stroke-width: 2; fill: none;"/><path class="linegg timeline hgroup_1" d="M-320,21.09375C-313.3333333333333,21.09375,-306.6666666666667,21.09375,-300,21.09375C-293.3333333333333,21.09375,-286.6666666666667,21.09375,-280,21.09375C-273.3333333333333,21.09375,-266.6666666666667,21.09375,-260,21.09375C-253.33333333333334,21.09375,-246.66666666666666,21.09375,-240,21.09375C-233.33333333333334,21.09375,-226.66666666666666,21.09375,-220,21.09375C-213.33333333333334,21.09375,-206.66666666666666,21.09375,-200,21.09375C-193.33333333333334,21.09375,-186.66666666666666,21.09375,-180,21.09375C-173.33333333333334,21.09375,-166.66666666666666,21.09375,-160,21.09375C-153.33333333333334,21.09375,-146.66666666666666,21.09375,-140,21.09375C-133.33333333333334,21.09375,-126.66666666666667,21.09375,-120,21.09375C-113.33333333333333,21.09375,-106.66666666666667,21.09375,-100,21.09375C-93.33333333333333,21.09375,-86.66666666666667,21.09375,-80,21.09375C-73.33333333333333,21.09375,-66.66666666666667,21.09375,-60,21.09375C-53.333333333333336,21.09375,-46.666666666666664,21.09375,-40,21.09375C-33.333333333333336,21.09375,-26.666666666666668,21.09375,-20,21.09375C-13.333333333333332,21.09375,-6.666666666666667,21.09375,0,21.09375" style="stroke: rgb(31, 119, 180); stroke-width: 2; fill: none;"/></g><text class="computeSig_label label" text-anchor="end" dx="-5" dy="0.5rem" fill="black" width="200" transform="translate(-580,54.84375)">2</text></g><g class="node computeNode h3 statics" transform="translate(610,0)" style="pointer-events: auto;"><g class="computeSig" stroke="black" style="stroke-width: 2;"><path class="linegg timeline hgroup_3" d="M-580,135C-573.3333333333334,135,-566.6666666666666,135,-560,135C-553.3333333333334,135,-546.6666666666666,135,-540,135C-533.3333333333334,135,-526.6666666666666,135,-520,135C-513.3333333333334,135,-506.6666666666667,135,-500,135C-493.3333333333333,135,-486.6666666666667,135,-480,135C-473.3333333333333,135,-466.6666666666667,135,-460,135C-453.3333333333333,135,-446.6666666666667,135,-440,135C-433.3333333333333,135,-426.6666666666667,135,-420,135C-413.3333333333333,135,-406.6666666666667,135,-400,135C-393.3333333333333,135,-386.6666666666667,135,-380,135C-373.3333333333333,135,-366.6666666666667,135,-360,135C-353.3333333333333,135,-346.6666666666667,135,-340,135C-333.3333333333333,135,-326.6666666666667,135,-320,135C-313.3333333333333,135,-306.6666666666667,135,-300,135C-293.3333333333333,135,-286.6666666666667,135,-280,135C-273.3333333333333,135,-266.6666666666667,135,-260,135C-253.33333333333334,135,-246.66666666666666,135,-240,135C-233.33333333333334,135,-226.66666666666666,135,-220,135C-213.33333333333334,135,-206.66666666666666,135,-200,135C-193.33333333333334,135,-186.66666666666666,135,-180,135C-173.33333333333334,135,-166.66666666666666,135,-160,135C-153.33333333333334,135,-146.66666666666666,135,-140,135C-133.33333333333334,135,-126.66666666666667,135,-120,135C-113.33333333333333,135,-106.66666666666667,135,-100,135C-93.33333333333333,135,-86.66666666666667,135,-80,135C-76.66666666666667,135,-73.33333333333333,135,-70,135C-66.66666666666667,135,-63.333333333333336,90.703125,-60,46.40625" style="stroke: rgb(44, 160, 44); stroke-width: 2; fill: none;"/><path class="linegg timeline hgroup_1" d="M-60,46.40625C-53.333333333333336,46.40625,-46.666666666666664,46.40625,-40,46.40625C-36.666666666666664,46.40625,-33.333333333333336,46.40625,-30,46.40625C-26.666666666666668,46.40625,-23.333333333333332,61.171875,-20,75.9375" style="stroke: rgb(31, 119, 180); stroke-width: 2; fill: none;"/><path class="linegg timeline hgroup_2" d="M-20,75.9375L0,75.9375" style="stroke: rgb(255, 127, 14); stroke-width: 2; fill: none;"/></g><text class="computeSig_label label" text-anchor="end" dx="-5" dy="0.5rem" fill="black" width="200" transform="translate(-580,135)">3</text></g><g class="node computeNode h4 statics" transform="translate(610,0)" style="pointer-events: auto;"><g class="computeSig" stroke="black" style="stroke-width: 2;"><path class="linegg timeline hgroup_4" d="M-580,4.21875C-573.3333333333334,4.21875,-566.6666666666666,4.21875,-560,4.21875C-553.3333333333334,4.21875,-546.6666666666666,4.21875,-540,4.21875C-533.3333333333334,4.21875,-526.6666666666666,4.21875,-520,4.21875C-513.3333333333334,4.21875,-506.6666666666667,4.21875,-500,4.21875C-496.6666666666667,4.21875,-493.3333333333333,4.21875,-490,4.21875C-486.6666666666667,4.21875,-483.3333333333333,10.546875,-480,16.875" style="stroke: rgb(214, 39, 40); stroke-width: 2; fill: none;"/><path class="linegg timeline hgroup_1" d="M-480,16.875C-473.3333333333333,16.875,-466.6666666666667,16.875,-460,16.875C-453.3333333333333,16.875,-446.6666666666667,16.875,-440,16.875C-433.3333333333333,16.875,-426.6666666666667,16.875,-420,16.875C-413.3333333333333,16.875,-406.6666666666667,16.875,-400,16.875C-393.3333333333333,16.875,-386.6666666666667,16.875,-380,16.875C-373.3333333333333,16.875,-366.6666666666667,16.875,-360,16.875C-353.3333333333333,16.875,-346.6666666666667,16.875,-340,16.875C-333.3333333333333,16.875,-326.6666666666667,16.875,-320,16.875C-313.3333333333333,16.875,-306.6666666666667,16.875,-300,16.875C-293.3333333333333,16.875,-286.6666666666667,16.875,-280,16.875C-273.3333333333333,16.875,-266.6666666666667,16.875,-260,16.875C-253.33333333333334,16.875,-246.66666666666666,16.875,-240,16.875C-233.33333333333334,16.875,-226.66666666666666,16.875,-220,16.875C-213.33333333333334,16.875,-206.66666666666666,16.875,-200,16.875C-193.33333333333334,16.875,-186.66666666666666,16.875,-180,16.875C-173.33333333333334,16.875,-166.66666666666666,16.875,-160,16.875C-153.33333333333334,16.875,-146.66666666666666,16.875,-140,16.875C-133.33333333333334,16.875,-126.66666666666667,16.875,-120,16.875C-113.33333333333333,16.875,-106.66666666666667,16.875,-100,16.875C-93.33333333333333,16.875,-86.66666666666667,16.875,-80,16.875C-73.33333333333333,16.875,-66.66666666666667,16.875,-60,16.875C-53.333333333333336,16.875,-46.666666666666664,16.875,-40,16.875C-33.333333333333336,16.875,-26.666666666666668,16.875,-20,16.875C-13.333333333333332,16.875,-6.666666666666667,16.875,0,16.875" style="stroke: rgb(31, 119, 180); stroke-width: 2; fill: none;"/></g><text class="computeSig_label label" text-anchor="end" dx="-5" dy="0.5rem" fill="black" width="200" transform="translate(-580,4.21875)">4</text></g><g class="node computeNode h5 statics" transform="translate(610,0)" style="pointer-events: auto;"><g class="computeSig" stroke="black" style="stroke-width: 2;"><path class="linegg timeline hgroup_5" d="M-580,92.8125C-573.3333333333334,92.8125,-566.6666666666666,92.8125,-560,92.8125C-553.3333333333334,92.8125,-546.6666666666666,92.8125,-540,92.8125C-533.3333333333334,92.8125,-526.6666666666666,92.8125,-520,92.8125C-513.3333333333334,92.8125,-506.6666666666667,92.8125,-500,92.8125C-493.3333333333333,92.8125,-486.6666666666667,92.8125,-480,92.8125C-473.3333333333333,92.8125,-466.6666666666667,92.8125,-460,92.8125C-453.3333333333333,92.8125,-446.6666666666667,92.8125,-440,92.8125C-433.3333333333333,92.8125,-426.6666666666667,92.8125,-420,92.8125C-413.3333333333333,92.8125,-406.6666666666667,92.8125,-400,92.8125C-396.6666666666667,92.8125,-393.3333333333333,92.8125,-390,92.8125C-386.6666666666667,92.8125,-383.3333333333333,61.171875,-380,29.53125" style="stroke: rgb(148, 103, 189); stroke-width: 2; fill: none;"/><path class="linegg timeline hgroup_1" d="M-380,29.53125C-376.6666666666667,29.53125,-373.3333333333333,29.53125,-370,29.53125C-366.6666666666667,29.53125,-363.3333333333333,46.40625,-360,63.28125" style="stroke: rgb(31, 119, 180); stroke-width: 2;"/><path class="linegg timeline hgroup_2" d="M-360,63.28125C-353.3333333333333,63.28125,-346.6666666666667,63.28125,-340,63.28125C-333.3333333333333,63.28125,-326.6666666666667,63.28125,-320,63.28125C-313.3333333333333,63.28125,-306.6666666666667,63.28125,-300,63.28125C-296.6666666666667,63.28125,-293.3333333333333,63.28125,-290,63.28125C-286.6666666666667,63.28125,-283.3333333333333,46.40625,-280,29.53125" style="stroke: rgb(255, 127, 14); stroke-width: 2; fill: none;"/><path class="linegg timeline hgroup_1" d="M-280,29.53125C-273.3333333333333,29.53125,-266.6666666666667,29.53125,-260,29.53125C-253.33333333333334,29.53125,-246.66666666666666,29.53125,-240,29.53125C-233.33333333333334,29.53125,-226.66666666666666,29.53125,-220,29.53125C-213.33333333333334,29.53125,-206.66666666666666,29.53125,-200,29.53125C-193.33333333333334,29.53125,-186.66666666666666,29.53125,-180,29.53125C-173.33333333333334,29.53125,-166.66666666666666,29.53125,-160,29.53125C-153.33333333333334,29.53125,-146.66666666666666,29.53125,-140,29.53125C-133.33333333333334,29.53125,-126.66666666666667,29.53125,-120,29.53125C-113.33333333333333,29.53125,-106.66666666666667,29.53125,-100,29.53125C-93.33333333333333,29.53125,-86.66666666666667,29.53125,-80,29.53125C-73.33333333333333,29.53125,-66.66666666666667,29.53125,-60,29.53125C-53.333333333333336,29.53125,-46.666666666666664,29.53125,-40,29.53125C-33.333333333333336,29.53125,-26.666666666666668,29.53125,-20,29.53125C-13.333333333333332,29.53125,-6.666666666666667,29.53125,0,29.53125" style="stroke: rgb(31, 119, 180); stroke-width: 2; fill: none;"/></g><text class="computeSig_label label" text-anchor="end" dx="-5" dy="0.5rem" fill="black" width="200" transform="translate(-580,92.8125)">5</text></g><g class="node computeNode h6 statics" transform="translate(610,0)" style="pointer-events: auto;"><g class="computeSig" stroke="black" style="stroke-width: 2;"><path class="linegg timeline hgroup_5" d="M-580,105.46875C-573.3333333333334,105.46875,-566.6666666666666,105.46875,-560,105.46875C-553.3333333333334,105.46875,-546.6666666666666,105.46875,-540,105.46875C-533.3333333333334,105.46875,-526.6666666666666,105.46875,-520,105.46875C-513.3333333333334,105.46875,-506.6666666666667,105.46875,-500,105.46875C-493.3333333333333,105.46875,-486.6666666666667,105.46875,-480,105.46875C-473.3333333333333,105.46875,-466.6666666666667,105.46875,-460,105.46875C-453.3333333333333,105.46875,-446.6666666666667,105.46875,-440,105.46875C-433.3333333333333,105.46875,-426.6666666666667,105.46875,-420,105.46875C-413.3333333333333,105.46875,-406.6666666666667,105.46875,-400,105.46875C-393.3333333333333,105.46875,-386.6666666666667,105.46875,-380,105.46875C-373.3333333333333,105.46875,-366.6666666666667,105.46875,-360,105.46875C-353.3333333333333,105.46875,-346.6666666666667,105.46875,-340,105.46875C-333.3333333333333,105.46875,-326.6666666666667,105.46875,-320,105.46875C-313.3333333333333,105.46875,-306.6666666666667,105.46875,-300,105.46875C-293.3333333333333,105.46875,-286.6666666666667,105.46875,-280,105.46875C-273.3333333333333,105.46875,-266.6666666666667,105.46875,-260,105.46875C-253.33333333333334,105.46875,-246.66666666666666,105.46875,-240,105.46875C-233.33333333333334,105.46875,-226.66666666666666,105.46875,-220,105.46875C-213.33333333333334,105.46875,-206.66666666666666,105.46875,-200,105.46875C-196.66666666666666,105.46875,-193.33333333333334,105.46875,-190,105.46875C-186.66666666666666,105.46875,-183.33333333333334,88.59375,-180,71.71875" style="stroke: rgb(148, 103, 189); stroke-width: 2; fill: none;"/><path class="linegg timeline hgroup_2" d="M-180,71.71875C-176.66666666666666,71.71875,-173.33333333333334,71.71875,-170,71.71875C-166.66666666666666,71.71875,-163.33333333333334,56.953125,-160,42.1875" style="stroke: rgb(255, 127, 14); stroke-width: 2;"/><path class="linegg timeline hgroup_1" d="M-160,42.1875C-156.66666666666666,42.1875,-153.33333333333334,42.1875,-150,42.1875C-146.66666666666666,42.1875,-143.33333333333334,56.953125,-140,71.71875" style="stroke: rgb(31, 119, 180); stroke-width: 2;"/><path class="linegg timeline hgroup_2" d="M-140,71.71875C-133.33333333333334,71.71875,-126.66666666666667,71.71875,-120,71.71875C-113.33333333333333,71.71875,-106.66666666666667,71.71875,-100,71.71875C-93.33333333333333,71.71875,-86.66666666666667,71.71875,-80,71.71875C-73.33333333333333,71.71875,-66.66666666666667,71.71875,-60,71.71875C-53.333333333333336,71.71875,-46.666666666666664,71.71875,-40,71.71875C-33.333333333333336,71.71875,-26.666666666666668,71.71875,-20,71.71875C-13.333333333333332,71.71875,-6.666666666666667,71.71875,0,71.71875" style="stroke: rgb(255, 127, 14); stroke-width: 2; fill: none;"/></g><text class="computeSig_label label" text-anchor="end" dx="-5" dy="0.5rem" fill="black" width="200" transform="translate(-580,105.46875)">6</text></g><g class="node computeNode h7 statics" transform="translate(610,0)" style="pointer-events: auto;"><g class="computeSig" stroke="black" style="stroke-width: 2;"><path class="linegg timeline hgroup_3" d="M-580,122.34375C-573.3333333333334,122.34375,-566.6666666666666,122.34375,-560,122.34375C-553.3333333333334,122.34375,-546.6666666666666,122.34375,-540,122.34375C-533.3333333333334,122.34375,-526.6666666666666,122.34375,-520,122.34375C-513.3333333333334,122.34375,-506.6666666666667,122.34375,-500,122.34375C-493.3333333333333,122.34375,-486.6666666666667,122.34375,-480,122.34375C-473.3333333333333,122.34375,-466.6666666666667,122.34375,-460,122.34375C-453.3333333333333,122.34375,-446.6666666666667,122.34375,-440,122.34375C-433.3333333333333,122.34375,-426.6666666666667,122.34375,-420,122.34375C-413.3333333333333,122.34375,-406.6666666666667,122.34375,-400,122.34375C-396.6666666666667,122.34375,-393.3333333333333,122.34375,-390,122.34375C-386.6666666666667,122.34375,-383.3333333333333,65.390625,-380,8.4375" style="stroke: rgb(44, 160, 44); stroke-width: 2; fill: none;"/><path class="linegg timeline hgroup_4" d="M-380,8.4375C-376.6666666666667,8.4375,-373.3333333333333,8.4375,-370,8.4375C-366.6666666666667,8.4375,-363.3333333333333,21.09375,-360,33.75" style="stroke: rgb(214, 39, 40); stroke-width: 2;"/><path class="linegg timeline hgroup_1" d="M-360,33.75C-353.3333333333333,33.75,-346.6666666666667,33.75,-340,33.75C-333.3333333333333,33.75,-326.6666666666667,33.75,-320,33.75C-313.3333333333333,33.75,-306.6666666666667,33.75,-300,33.75C-293.3333333333333,33.75,-286.6666666666667,33.75,-280,33.75C-276.6666666666667,33.75,-273.3333333333333,33.75,-270,33.75C-266.6666666666667,33.75,-263.3333333333333,65.390625,-260,97.03125" style="stroke: rgb(31, 119, 180); stroke-width: 2; fill: none;"/><path class="linegg timeline hgroup_5" d="M-260,97.03125C-256.6666666666667,97.03125,-253.33333333333334,97.03125,-250,97.03125C-246.66666666666666,97.03125,-243.33333333333334,109.6875,-240,122.34375" style="stroke: rgb(148, 103, 189); stroke-width: 2;"/><path class="linegg timeline hgroup_3" d="M-240,122.34375C-233.33333333333334,122.34375,-226.66666666666666,122.34375,-220,122.34375C-213.33333333333334,122.34375,-206.66666666666666,122.34375,-200,122.34375C-193.33333333333334,122.34375,-186.66666666666666,122.34375,-180,122.34375C-176.66666666666666,122.34375,-173.33333333333334,122.34375,-170,122.34375C-166.66666666666666,122.34375,-163.33333333333334,78.046875,-160,33.75" style="stroke: rgb(44, 160, 44); stroke-width: 2; fill: none;"/><path class="linegg timeline hgroup_1" d="M-160,33.75C-153.33333333333334,33.75,-146.66666666666666,33.75,-140,33.75C-133.33333333333334,33.75,-126.66666666666667,33.75,-120,33.75C-113.33333333333333,33.75,-106.66666666666667,33.75,-100,33.75C-93.33333333333333,33.75,-86.66666666666667,33.75,-80,33.75C-73.33333333333333,33.75,-66.66666666666667,33.75,-60,33.75C-53.333333333333336,33.75,-46.666666666666664,33.75,-40,33.75C-33.333333333333336,33.75,-26.666666666666668,33.75,-20,33.75C-13.333333333333332,33.75,-6.666666666666667,33.75,0,33.75" style="stroke: rgb(31, 119, 180); stroke-width: 2; fill: none;"/></g><text class="computeSig_label label" text-anchor="end" dx="-5" dy="0.5rem" fill="black" width="200" transform="translate(-580,122.34375)">7</text></g><g class="node computeNode h8 statics" transform="translate(610,0)" style="pointer-events: auto;"><g class="computeSig" stroke="black" style="stroke-width: 2;"><path class="linegg timeline hgroup_1" d="M-580,25.3125C-573.3333333333334,25.3125,-566.6666666666666,25.3125,-560,25.3125C-553.3333333333334,25.3125,-546.6666666666666,25.3125,-540,25.3125C-533.3333333333334,25.3125,-526.6666666666666,25.3125,-520,25.3125C-516.6666666666666,25.3125,-513.3333333333334,25.3125,-510,25.3125C-506.6666666666667,25.3125,-503.3333333333333,56.953125,-500,88.59375" style="stroke: rgb(31, 119, 180); stroke-width: 2; fill: none;"/><path class="linegg timeline hgroup_5" d="M-500,88.59375C-496.6666666666667,88.59375,-493.3333333333333,88.59375,-490,88.59375C-486.6666666666667,88.59375,-483.3333333333333,56.953125,-480,25.3125" style="stroke: rgb(148, 103, 189); stroke-width: 2;"/><path class="linegg timeline hgroup_1" d="M-480,25.3125C-473.3333333333333,25.3125,-466.6666666666667,25.3125,-460,25.3125C-453.3333333333333,25.3125,-446.6666666666667,25.3125,-440,25.3125C-433.3333333333333,25.3125,-426.6666666666667,25.3125,-420,25.3125C-413.3333333333333,25.3125,-406.6666666666667,25.3125,-400,25.3125C-393.3333333333333,25.3125,-386.6666666666667,25.3125,-380,25.3125C-373.3333333333333,25.3125,-366.6666666666667,25.3125,-360,25.3125C-353.3333333333333,25.3125,-346.6666666666667,25.3125,-340,25.3125C-333.3333333333333,25.3125,-326.6666666666667,25.3125,-320,25.3125C-313.3333333333333,25.3125,-306.6666666666667,25.3125,-300,25.3125C-296.6666666666667,25.3125,-293.3333333333333,25.3125,-290,25.3125C-286.6666666666667,25.3125,-283.3333333333333,42.1875,-280,59.0625" style="stroke: rgb(31, 119, 180); stroke-width: 2; fill: none;"/><path class="linegg timeline hgroup_2" d="M-280,59.0625C-273.3333333333333,59.0625,-266.6666666666667,59.0625,-260,59.0625C-253.33333333333334,59.0625,-246.66666666666666,59.0625,-240,59.0625C-233.33333333333334,59.0625,-226.66666666666666,59.0625,-220,59.0625C-213.33333333333334,59.0625,-206.66666666666666,59.0625,-200,59.0625C-193.33333333333334,59.0625,-186.66666666666666,59.0625,-180,59.0625C-173.33333333333334,59.0625,-166.66666666666666,59.0625,-160,59.0625C-153.33333333333334,59.0625,-146.66666666666666,59.0625,-140,59.0625C-133.33333333333334,59.0625,-126.66666666666667,59.0625,-120,59.0625C-113.33333333333333,59.0625,-106.66666666666667,59.0625,-100,59.0625C-93.33333333333333,59.0625,-86.66666666666667,59.0625,-80,59.0625C-73.33333333333333,59.0625,-66.66666666666667,59.0625,-60,59.0625C-53.333333333333336,59.0625,-46.666666666666664,59.0625,-40,59.0625C-33.333333333333336,59.0625,-26.666666666666668,59.0625,-20,59.0625C-13.333333333333332,59.0625,-6.666666666666667,59.0625,0,59.0625" style="stroke: rgb(255, 127, 14); stroke-width: 2; fill: none;"/></g><text class="computeSig_label label" text-anchor="end" dx="-5" dy="0.5rem" fill="black" width="200" transform="translate(-580,25.3125)">8</text></g><g class="node computeNode h9 statics" transform="translate(610,0)" style="pointer-events: auto;"><g class="computeSig" stroke="black" style="stroke-width: 2;"><path class="linegg timeline hgroup_3" d="M-580,126.5625C-573.3333333333334,126.5625,-566.6666666666666,126.5625,-560,126.5625C-553.3333333333334,126.5625,-546.6666666666666,126.5625,-540,126.5625C-533.3333333333334,126.5625,-526.6666666666666,126.5625,-520,126.5625C-513.3333333333334,126.5625,-506.6666666666667,126.5625,-500,126.5625C-493.3333333333333,126.5625,-486.6666666666667,126.5625,-480,126.5625C-476.6666666666667,126.5625,-473.3333333333333,126.5625,-470,126.5625C-466.6666666666667,126.5625,-463.3333333333333,118.125,-460,109.6875" style="stroke: rgb(44, 160, 44); stroke-width: 2; fill: none;"/><path class="linegg timeline hgroup_5" d="M-460,109.6875C-453.3333333333333,109.6875,-446.6666666666667,109.6875,-440,109.6875C-433.3333333333333,109.6875,-426.6666666666667,109.6875,-420,109.6875C-413.3333333333333,109.6875,-406.6666666666667,109.6875,-400,109.6875C-393.3333333333333,109.6875,-386.6666666666667,109.6875,-380,109.6875C-373.3333333333333,109.6875,-366.6666666666667,109.6875,-360,109.6875C-353.3333333333333,109.6875,-346.6666666666667,109.6875,-340,109.6875C-333.3333333333333,109.6875,-326.6666666666667,109.6875,-320,109.6875C-313.3333333333333,109.6875,-306.6666666666667,109.6875,-300,109.6875C-293.3333333333333,109.6875,-286.6666666666667,109.6875,-280,109.6875C-273.3333333333333,109.6875,-266.6666666666667,109.6875,-260,109.6875C-253.33333333333334,109.6875,-246.66666666666666,109.6875,-240,109.6875C-233.33333333333334,109.6875,-226.66666666666666,109.6875,-220,109.6875C-213.33333333333334,109.6875,-206.66666666666666,109.6875,-200,109.6875C-193.33333333333334,109.6875,-186.66666666666666,109.6875,-180,109.6875C-173.33333333333334,109.6875,-166.66666666666666,109.6875,-160,109.6875C-153.33333333333334,109.6875,-146.66666666666666,109.6875,-140,109.6875C-133.33333333333334,109.6875,-126.66666666666667,109.6875,-120,109.6875C-113.33333333333333,109.6875,-106.66666666666667,109.6875,-100,109.6875C-93.33333333333333,109.6875,-86.66666666666667,109.6875,-80,109.6875C-73.33333333333333,109.6875,-66.66666666666667,109.6875,-60,109.6875C-53.333333333333336,109.6875,-46.666666666666664,109.6875,-40,109.6875C-33.333333333333336,109.6875,-26.666666666666668,109.6875,-20,109.6875C-13.333333333333332,109.6875,-6.666666666666667,109.6875,0,109.6875" style="stroke: rgb(148, 103, 189); stroke-width: 2; fill: none;"/></g><text class="computeSig_label label" text-anchor="end" dx="-5" dy="0.5rem" fill="black" width="200" transform="translate(-580,126.5625)">9</text></g><g class="node computeNode h10 statics" transform="translate(610,0)" style="pointer-events: auto;"><g class="computeSig" stroke="black" style="stroke-width: 2;"><path class="linegg timeline hgroup_3" d="M-580,130.78125C-573.3333333333334,130.78125,-566.6666666666666,130.78125,-560,130.78125C-553.3333333333334,130.78125,-546.6666666666666,130.78125,-540,130.78125C-533.3333333333334,130.78125,-526.6666666666666,130.78125,-520,130.78125C-513.3333333333334,130.78125,-506.6666666666667,130.78125,-500,130.78125C-493.3333333333333,130.78125,-486.6666666666667,130.78125,-480,130.78125C-476.6666666666667,130.78125,-473.3333333333333,130.78125,-470,130.78125C-466.6666666666667,130.78125,-463.3333333333333,122.34375,-460,113.90625" style="stroke: rgb(44, 160, 44); stroke-width: 2; fill: none;"/><path class="linegg timeline hgroup_5" d="M-460,113.90625C-453.3333333333333,113.90625,-446.6666666666667,113.90625,-440,113.90625C-433.3333333333333,113.90625,-426.6666666666667,113.90625,-420,113.90625C-413.3333333333333,113.90625,-406.6666666666667,113.90625,-400,113.90625C-393.3333333333333,113.90625,-386.6666666666667,113.90625,-380,113.90625C-376.6666666666667,113.90625,-373.3333333333333,113.90625,-370,113.90625C-366.6666666666667,113.90625,-363.3333333333333,122.34375,-360,130.78125" style="stroke: rgb(148, 103, 189); stroke-width: 2; fill: none;"/><path class="linegg timeline hgroup_3" d="M-360,130.78125C-353.3333333333333,130.78125,-346.6666666666667,130.78125,-340,130.78125C-333.3333333333333,130.78125,-326.6666666666667,130.78125,-320,130.78125C-313.3333333333333,130.78125,-306.6666666666667,130.78125,-300,130.78125C-293.3333333333333,130.78125,-286.6666666666667,130.78125,-280,130.78125C-273.3333333333333,130.78125,-266.6666666666667,130.78125,-260,130.78125C-253.33333333333334,130.78125,-246.66666666666666,130.78125,-240,130.78125C-233.33333333333334,130.78125,-226.66666666666666,130.78125,-220,130.78125C-213.33333333333334,130.78125,-206.66666666666666,130.78125,-200,130.78125C-196.66666666666666,130.78125,-193.33333333333334,130.78125,-190,130.78125C-186.66666666666666,130.78125,-183.33333333333334,122.34375,-180,113.90625" style="stroke: rgb(44, 160, 44); stroke-width: 2; fill: none;"/><path class="linegg timeline hgroup_5" d="M-180,113.90625C-173.33333333333334,113.90625,-166.66666666666666,113.90625,-160,113.90625C-153.33333333333334,113.90625,-146.66666666666666,113.90625,-140,113.90625C-133.33333333333334,113.90625,-126.66666666666667,113.90625,-120,113.90625C-113.33333333333333,113.90625,-106.66666666666667,113.90625,-100,113.90625C-93.33333333333333,113.90625,-86.66666666666667,113.90625,-80,113.90625C-73.33333333333333,113.90625,-66.66666666666667,113.90625,-60,113.90625C-53.333333333333336,113.90625,-46.666666666666664,113.90625,-40,113.90625C-33.333333333333336,113.90625,-26.666666666666668,113.90625,-20,113.90625C-13.333333333333332,113.90625,-6.666666666666667,113.90625,0,113.90625" style="stroke: rgb(148, 103, 189); stroke-width: 2; fill: none;"/></g><text class="computeSig_label label" text-anchor="end" dx="-5" dy="0.5rem" fill="black" width="200" transform="translate(-580,130.78125)">10</text></g></g><rect class="fisheyeLayer" style="opacity: 0; pointer-events: none;" width="580" height="180" transform="translate(-280,0)"/><g class="table header" transform="translate(600,0)"><g class="back"><path style="fill: rgb(221, 221, 221);"/></g></g></g><g class="timebox hide" transform="translate(40,20)" dy="1rem" style="font-size: 16px;"/><circle id="tipfollowscursor"/></svg>