<svg id="jobmap" width="700" height="250" style="fill: none; font-size: 10px; font-family: sans-serif;" xmlns="http://www.w3.org/2000/svg" xmlns:xlink="http://www.w3.org/1999/xlink">

                    <defs id="defsmain"><pattern id="userpic" width="100%" height="100%" patternContentUnits="objectBoundingBox"><image height="1" width="1" preserveAspectRatio="none" xmlns:xlink="http://www.w3.org/1999/xlink" xlink:href="src/images/u.png"/></pattern><marker id="arrow" markerWidth="10" markerHeight="10" refX="0" refY="3" orient="auto" markerUnits="strokeWidth"><path d="M0,0 L0,6 L9,3 z" style="fill: black;"/></marker></defs><rect class="pantarget" opacity="0" width="1146" height="762"/><g class="pannel" transform="translate(50,50)"><text class="Time" text-anchor="middle" x="40" dy="-30" style="font-weight: bold; fill: black;">Time</text><line x1="60" x2="95" y1="-33" y2="-33" marker-end="url(#arrow)" style="stroke: black;"/><text class="Time" text-anchor="middle" x="-5" dy="-1rem" style="font-weight: bold; fill: black;">Instance</text><line x1="5" x2="5" y1="-5" y2="30" marker-end="url(#arrow)" style="stroke: black;"/><g class="gNodeaxis" transform="translate(610,-10)"><g class="gMainaxis" fill="none" font-size="10" font-family="sans-serif" text-anchor="middle"><g class="tick" opacity="1" transform="translate(-580, 0)"><line stroke="#000" y2="145" vector-effect="non-scaling-stroke" style="stroke-width: 0.1; stroke: black; stroke-dasharray: 1, 2; opacity: 0.5;"/><text fill="#000" y="-3" dy="-0.5rem">1</text></g><g class="tick" opacity="1" transform="translate(-560, 0)"><line stroke="#000" y2="145" vector-effect="non-scaling-stroke" style="stroke-width: 0.1; stroke: black; stroke-dasharray: 1, 2; opacity: 0.5;"/><text fill="#000" y="-3" dy="-0.5rem">2</text></g><g class="tick" opacity="1" transform="translate(-540, 0)"><line stroke="#000" y2="145" vector-effect="non-scaling-stroke" style="stroke-width: 0.1; stroke: black; stroke-dasharray: 1, 2; opacity: 0.5;"/><text fill="#000" y="-3" dy="-0.5rem">3</text></g><g class="tick" opacity="1" transform="translate(-520, 0)"><line stroke="#000" y2="145" vector-effect="non-scaling-stroke" style="stroke-width: 0.1; stroke: black; stroke-dasharray: 1, 2; opacity: 0.5;"/><text fill="#000" y="-3" dy="-0.5rem">4</text></g><g class="tick" opacity="1" transform="translate(-500, 0)"><line stroke="#000" y2="145" vector-effect="non-scaling-stroke" style="stroke-width: 0.1; stroke: black; stroke-dasharray: 1, 2; opacity: 0.5;"/><text fill="#000" y="-3" dy="-0.5rem">5</text></g><g class="tick" opacity="1" transform="translate(-480, 0)"><line stroke="#000" y2="145" vector-effect="non-scaling-stroke" style="stroke-width: 0.1; stroke: black; stroke-dasharray: 1, 2; opacity: 0.5;"/><text fill="#000" y="-3" dy="-0.5rem">6</text></g><g class="tick" opacity="1" transform="translate(-460, 0)"><line stroke="#000" y2="145" vector-effect="non-scaling-stroke" style="stroke-width: 0.1; stroke: black; stroke-dasharray: 1, 2; opacity: 0.5;"/><text fill="#000" y="-3" dy="-0.5rem">7</text></g><g class="tick" opacity="1" transform="translate(-440, 0)"><line stroke="#000" y2="145" vector-effect="non-scaling-stroke" style="stroke-width: 0.1; stroke: black; stroke-dasharray: 1, 2; opacity: 0.5;"/><text fill="#000" y="-3" dy="-0.5rem">8</text></g><g class="tick" opacity="1" transform="translate(-420, 0)"><line stroke="#000" y2="145" vector-effect="non-scaling-stroke" style="stroke-width: 0.1; stroke: black; stroke-dasharray: 1, 2; opacity: 0.5;"/><text fill="#000" y="-3" dy="-0.5rem">9</text></g><g class="tick" opacity="1" transform="translate(-400, 0)"><line stroke="#000" y2="145" vector-effect="non-scaling-stroke" style="stroke-width: 0.1; stroke: black; stroke-dasharray: 1, 2; opacity: 0.5;"/><text fill="#000" y="-3" dy="-0.5rem">10</text></g><g class="tick" opacity="1" transform="translate(-380, 0)"><line stroke="#000" y2="145" vector-effect="non-scaling-stroke" style="stroke-width: 0.1; stroke: black; stroke-dasharray: 1, 2; opacity: 0.5;"/><text fill="#000" y="-3" dy="-0.5rem">11</text></g><g class="tick" opacity="1" transform="translate(-360, 0)"><line stroke="#000" y2="145" vector-effect="non-scaling-stroke" style="stroke-width: 0.1; stroke: black; stroke-dasharray: 1, 2; opacity: 0.5;"/><text fill="#000" y="-3" dy="-0.5rem">12</text></g><g class="tick" opacity="1" transform="translate(-340, 0)"><line stroke="#000" y2="145" vector-effect="non-scaling-stroke" style="stroke-width: 0.1; stroke: black; stroke-dasharray: 1, 2; opacity: 0.5;"/><text fill="#000" y="-3" dy="-0.5rem">13</text></g><g class="tick" opacity="1" transform="translate(-320, 0)"><line stroke="#000" y2="145" vector-effect="non-scaling-stroke" style="stroke-width: 0.1; stroke: black; stroke-dasharray: 1, 2; opacity: 0.5;"/><text fill="#000" y="-3" dy="-0.5rem">14</text></g><g class="tick" opacity="1" transform="translate(-300, 0)"><line stroke="#000" y2="145" vector-effect="non-scaling-stroke" style="stroke-width: 0.1; stroke: black; stroke-dasharray: 1, 2; opacity: 0.5;"/><text fill="#000" y="-3" dy="-0.5rem">15</text></g><g class="tick" opacity="1" transform="translate(-280, 0)"><line stroke="#000" y2="145" vector-effect="non-scaling-stroke" style="stroke-width: 0.1; stroke: black; stroke-dasharray: 1, 2; opacity: 0.5;"/><text fill="#000" y="-3" dy="-0.5rem">16</text></g><g class="tick" opacity="1" transform="translate(-260, 0)"><line stroke="#000" y2="145" vector-effect="non-scaling-stroke" style="stroke-width: 0.1; stroke: black; stroke-dasharray: 1, 2; opacity: 0.5;"/><text fill="#000" y="-3" dy="-0.5rem">17</text></g><g class="tick" opacity="1" transform="translate(-240, 0)"><line stroke="#000" y2="145" vector-effect="non-scaling-stroke" style="stroke-width: 0.1; stroke: black; stroke-dasharray: 1, 2; opacity: 0.5;"/><text fill="#000" y="-3" dy="-0.5rem">18</text></g><g class="tick" opacity="1" transform="translate(-220, 0)"><line stroke="#000" y2="145" vector-effect="non-scaling-stroke" style="stroke-width: 0.1; stroke: black; stroke-dasharray: 1, 2; opacity: 0.5;"/><text fill="#000" y="-3" dy="-0.5rem">19</text></g><g class="tick" opacity="1" transform="translate(-200, 0)"><line stroke="#000" y2="145" vector-effect="non-scaling-stroke" style="stroke-width: 0.1; stroke: black; stroke-dasharray: 1, 2; opacity: 0.5;"/><text fill="#000" y="-3" dy="-0.5rem">20</text></g><g class="tick" opacity="1" transform="translate(-180, 0)"><line stroke="#000" y2="145" vector-effect="non-scaling-stroke" style="stroke-width: 0.1; stroke: black; stroke-dasharray: 1, 2; opacity: 0.5;"/><text fill="#000" y="-3" dy="-0.5rem">21</text></g><g class="tick" opacity="1" transform="translate(-160, 0)"><line stroke="#000" y2="145" vector-effect="non-scaling-stroke" style="stroke-width: 0.1; stroke: black; stroke-dasharray: 1, 2; opacity: 0.5;"/><text fill="#000" y="-3" dy="-0.5rem">22</text></g><g class="tick" opacity="1" transform="translate(-140, 0)"><line stroke="#000" y2="145" vector-effect="non-scaling-stroke" style="stroke-width: 0.1; stroke: black; stroke-dasharray: 1, 2; opacity: 0.5;"/><text fill="#000" y="-3" dy="-0.5rem">23</text></g><g class="tick" opacity="1" transform="translate(-120, 0)"><line stroke="#000" y2="145" vector-effect="non-scaling-stroke" style="stroke-width: 0.1; stroke: black; stroke-dasharray: 1, 2; opacity: 0.5;"/><text fill="#000" y="-3" dy="-0.5rem">24</text></g><g class="tick" opacity="1" transform="translate(-100, 0)"><line stroke="#000" y2="145" vector-effect="non-scaling-stroke" style="stroke-width: 0.1; stroke: black; stroke-dasharray: 1, 2; opacity: 0.5;"/><text fill="#000" y="-3" dy="-0.5rem">25</text></g><g class="tick" opacity="1" transform="translate(-80, 0)"><line stroke="#000" y2="145" vector-effect="non-scaling-stroke" style="stroke-width: 0.1; stroke: black; stroke-dasharray: 1, 2; opacity: 0.5;"/><text fill="#000" y="-3" dy="-0.5rem">26</text></g><g class="tick" opacity="1" transform="translate(-60, 0)"><line stroke="#000" y2="145" vector-effect="non-scaling-stroke" style="stroke-width: 0.1; stroke: black; stroke-dasharray: 1, 2; opacity: 0.5;"/><text fill="#000" y="-3" dy="-0.5rem">27</text></g><g class="tick" opacity="1" transform="translate(-40, 0)"><line stroke="#000" y2="145" vector-effect="non-scaling-stroke" style="stroke-width: 0.1; stroke: black; stroke-dasharray: 1, 2; opacity: 0.5;"/><text fill="#000" y="-3" dy="-0.5rem">28</text></g><g class="tick" opacity="1" transform="translate(-20, 0)"><line stroke="#000" y2="145" vector-effect="non-scaling-stroke" style="stroke-width: 0.1; stroke: black; stroke-dasharray: 1, 2; opacity: 0.5;"/><text fill="#000" y="-3" dy="-0.5rem">29</text></g><g class="tick" opacity="1" transform=""><line stroke="#000" y2="145" vector-effect="non-scaling-stroke" style="stroke-width: 0.1; stroke: black; stroke-dasharray: 1, 2; opacity: 0.5;"/><text fill="#000" y="-3" dy="-0.5rem">30</text></g></g><g class="gSubaxis hide"/></g><g class="annotation"/><g class="linkg"><g class="links" style="display: none;"><path stroke="black" style="stroke-width: 2;"/><text text-anchor="middle">1</text></g><g class="links" style="display: none;"><path stroke="black" style="stroke-width: 2;"/><text text-anchor="middle">1</text></g><g class="links" style="display: none;"><path stroke="black" style="stroke-width: 2;"/><text text-anchor="middle">1</text></g><g class="links" style="display: none;"><path stroke="black" style="stroke-width: 2;"/><text text-anchor="middle">1</text></g><g class="links" style="display: none;"><path stroke="black" style="stroke-width: 2;"/><text text-anchor="middle">1</text></g><g class="links" style="display: none;"><path stroke="black" style="stroke-width: 2;"/><text text-anchor="middle">1</text></g><g class="links" style="display: none;"><path stroke="black" style="stroke-width: 2;"/><text text-anchor="middle">1</text></g><g class="links" style="display: none;"><path stroke="black" style="stroke-width: 2;"/><text text-anchor="middle">1</text></g><g class="links" style="display: none;"><path stroke="black" style="stroke-width: 2;"/><text text-anchor="middle">1</text></g><g class="links" style="display: none;"><path stroke="black" style="stroke-width: 2;"/><text text-anchor="middle">1</text></g><g class="links" style="display: none;"><path stroke="black" style="stroke-width: 2;"/><text text-anchor="middle">1</text></g></g><g class="nodeg"><g class="node computeNode h1 statics" transform="translate(610,0)" style="pointer-events: auto;"><g class="computeSig" stroke="black" style="stroke-width: 2;"><path class="linegg timeline hgroup_1" d="M-580,63.28125C-573.3333333333334,63.28125,-566.6666666666666,63.28125,-560,63.28125C-553.3333333333334,63.28125,-546.6666666666666,63.28125,-540,63.28125C-533.3333333333334,63.28125,-526.6666666666666,63.28125,-520,63.28125C-513.3333333333334,63.28125,-506.6666666666667,63.28125,-500,63.28125C-496.6666666666667,63.28125,-493.3333333333333,63.28125,-490,63.28125C-486.6666666666667,63.28125,-483.3333333333333,78.046875,-480,92.8125" style="stroke: rgb(31, 119, 180); stroke-width: 2; fill: none;"/><path class="linegg timeline hgroup_5" d="M-480,92.8125C-473.3333333333333,92.8125,-466.6666666666667,92.8125,-460,92.8125C-456.6666666666667,92.8125,-453.3333333333333,92.8125,-450,92.8125C-446.6666666666667,92.8125,-443.3333333333333,78.046875,-440,63.28125" style="stroke: rgb(148, 103, 189); stroke-width: 2; fill: none;"/><path class="linegg timeline hgroup_1" d="M-440,63.28125C-433.3333333333333,63.28125,-426.6666666666667,63.28125,-420,63.28125C-413.3333333333333,63.28125,-406.6666666666667,63.28125,-400,63.28125C-393.3333333333333,63.28125,-386.6666666666667,63.28125,-380,63.28125C-373.3333333333333,63.28125,-366.6666666666667,63.28125,-360,63.28125C-353.3333333333333,63.28125,-346.6666666666667,63.28125,-340,63.28125C-333.3333333333333,63.28125,-326.6666666666667,63.28125,-320,63.28125C-313.3333333333333,63.28125,-306.6666666666667,63.28125,-300,63.28125C-293.3333333333333,63.28125,-286.6666666666667,63.28125,-280,63.28125C-273.3333333333333,63.28125,-266.6666666666667,63.28125,-260,63.28125C-253.33333333333334,63.28125,-246.66666666666666,63.28125,-240,63.28125C-233.33333333333334,63.28125,-226.66666666666666,63.28125,-220,63.28125C-213.33333333333334,63.28125,-206.66666666666666,63.28125,-200,63.28125C-193.33333333333334,63.28125,-186.66666666666666,63.28125,-180,63.28125C-173.33333333333334,63.28125,-166.66666666666666,63.28125,-160,63.28125C-153.33333333333334,63.28125,-146.66666666666666,63.28125,-140,63.28125C-133.33333333333334,63.28125,-126.66666666666667,63.28125,-120,63.28125C-113.33333333333333,63.28125,-106.66666666666667,63.28125,-100,63.28125C-93.33333333333333,63.28125,-86.66666666666667,63.28125,-80,63.28125C-73.33333333333333,63.28125,-66.66666666666667,63.28125,-60,63.28125C-53.333333333333336,63.28125,-46.666666666666664,63.28125,-40,63.28125C-33.333333333333336,63.28125,-26.666666666666668,63.28125,-20,63.28125C-13.333333333333332,63.28125,-6.666666666666667,63.28125,0,63.28125" style="stroke: rgb(31, 119, 180); stroke-width: 2; fill: none;"/></g><text class="computeSig_label label" text-anchor="end" dx="-5" dy="0.5rem" fill="black" width="200" transform="translate(-580,63.28125)">1</text></g><g class="node computeNode h2 statics" transform="translate(610,0)" style="pointer-events: auto;"><g class="computeSig" stroke="black" style="stroke-width: 2;"><path class="linegg timeline hgroup_2" d="M-580,42.1875C-573.3333333333334,42.1875,-566.6666666666666,42.1875,-560,42.1875C-553.3333333333334,42.1875,-546.6666666666666,42.1875,-540,42.1875C-536.6666666666666,42.1875,-533.3333333333334,42.1875,-530,42.1875C-526.6666666666666,42.1875,-523.3333333333334,71.71875,-520,101.25" style="stroke: rgb(255, 127, 14); stroke-width: 2; fill: none;"/><path class="linegg timeline hgroup_5" d="M-520,101.25C-516.6666666666666,101.25,-513.3333333333334,101.25,-510,101.25C-506.6666666666667,101.25,-503.3333333333333,88.59375,-500,75.9375" style="stroke: rgb(148, 103, 189); stroke-width: 2;"/><path class="linegg timeline hgroup_1" d="M-500,75.9375C-496.6666666666667,75.9375,-493.3333333333333,75.9375,-490,75.9375C-486.6666666666667,75.9375,-483.3333333333333,103.359375,-480,130.78125" style="stroke: rgb(31, 119, 180); stroke-width: 2;"/><path class="linegg timeline hgroup_3" d="M-480,130.78125C-473.3333333333333,130.78125,-466.6666666666667,130.78125,-460,130.78125C-453.3333333333333,130.78125,-446.6666666666667,130.78125,-440,130.78125C-433.3333333333333,130.78125,-426.6666666666667,130.78125,-420,130.78125C-413.3333333333333,130.78125,-406.6666666666667,130.78125,-400,130.78125C-393.3333333333333,130.78125,-386.6666666666667,130.78125,-380,130.78125C-376.6666666666667,130.78125,-373.3333333333333,130.78125,-370,130.78125C-366.6666666666667,130.78125,-363.3333333333333,103.359375,-360,75.9375" style="stroke: rgb(44, 160, 44); stroke-width: 2; fill: none;"/><path class="linegg timeline hgroup_1" d="M-360,75.9375C-353.3333333333333,75.9375,-346.6666666666667,75.9375,-340,75.9375C-333.3333333333333,75.9375,-326.6666666666667,75.9375,-320,75.9375C-313.3333333333333,75.9375,-306.6666666666667,75.9375,-300,75.9375C-293.3333333333333,75.9375,-286.6666666666667,75.9375,-280,75.9375C-273.3333333333333,75.9375,-266.6666666666667,75.9375,-260,75.9375C-253.33333333333334,75.9375,-246.66666666666666,75.9375,-240,75.9375C-233.33333333333334,75.9375,-226.66666666666666,75.9375,-220,75.9375C-213.33333333333334,75.9375,-206.66666666666666,75.9375,-200,75.9375C-193.33333333333334,75.9375,-186.66666666666666,75.9375,-180,75.9375C-173.33333333333334,75.9375,-166.66666666666666,75.9375,-160,75.9375C-153.33333333333334,75.9375,-146.66666666666666,75.9375,-140,75.9375C-133.33333333333334,75.9375,-126.66666666666667,75.9375,-120,75.9375C-113.33333333333333,75.9375,-106.66666666666667,75.9375,-100,75.9375C-93.33333333333333,75.9375,-86.66666666666667,75.9375,-80,75.9375C-73.33333333333333,75.9375,-66.66666666666667,75.9375,-60,75.9375C-53.333333333333336,75.9375,-46.666666666666664,75.9375,-40,75.9375C-33.333333333333336,75.9375,-26.666666666666668,75.9375,-20,75.9375C-13.333333333333332,75.9375,-6.666666666666667,75.9375,0,75.9375" style="stroke: rgb(31, 119, 180); stroke-width: 2; fill: none;"/></g><text class="computeSig_label label" text-anchor="end" dx="-5" dy="0.5rem" fill="black" width="200" transform="translate(-580,42.1875)">2</text></g><g class="node computeNode h3 statics" transform="translate(610,0)" style="pointer-events: auto;"><g class="computeSig" stroke="black" style="stroke-width: 2;"><path class="linegg timeline hgroup_2" d="M-580,16.875C-576.6666666666666,16.875,-573.3333333333334,16.875,-570,16.875C-566.6666666666666,16.875,-563.3333333333334,10.546875,-560,4.21875" style="stroke: rgb(255, 127, 14); stroke-width: 2;"/><path class="linegg timeline hgroup_4" d="M-560,4.21875C-556.6666666666666,4.21875,-553.3333333333334,4.21875,-550,4.21875C-546.6666666666666,4.21875,-543.3333333333334,10.546875,-540,16.875" style="stroke: rgb(214, 39, 40); stroke-width: 2;"/><path class="linegg timeline hgroup_2" d="M-540,16.875C-533.3333333333334,16.875,-526.6666666666666,16.875,-520,16.875C-513.3333333333334,16.875,-506.6666666666667,16.875,-500,16.875C-493.3333333333333,16.875,-486.6666666666667,16.875,-480,16.875C-473.3333333333333,16.875,-466.6666666666667,16.875,-460,16.875C-453.3333333333333,16.875,-446.6666666666667,16.875,-440,16.875C-433.3333333333333,16.875,-426.6666666666667,16.875,-420,16.875C-413.3333333333333,16.875,-406.6666666666667,16.875,-400,16.875C-393.3333333333333,16.875,-386.6666666666667,16.875,-380,16.875C-373.3333333333333,16.875,-366.6666666666667,16.875,-360,16.875C-353.3333333333333,16.875,-346.6666666666667,16.875,-340,16.875C-333.3333333333333,16.875,-326.6666666666667,16.875,-320,16.875C-313.3333333333333,16.875,-306.6666666666667,16.875,-300,16.875C-293.3333333333333,16.875,-286.6666666666667,16.875,-280,16.875C-273.3333333333333,16.875,-266.6666666666667,16.875,-260,16.875C-253.33333333333334,16.875,-246.66666666666666,16.875,-240,16.875C-233.33333333333334,16.875,-226.66666666666666,16.875,-220,16.875C-216.66666666666666,16.875,-213.33333333333334,16.875,-210,16.875C-206.66666666666666,16.875,-203.33333333333334,10.546875,-200,4.21875" style="stroke: rgb(255, 127, 14); stroke-width: 2; fill: none;"/><path class="linegg timeline hgroup_4" d="M-200,4.21875C-193.33333333333334,4.21875,-186.66666666666666,4.21875,-180,4.21875C-173.33333333333334,4.21875,-166.66666666666666,4.21875,-160,4.21875C-153.33333333333334,4.21875,-146.66666666666666,4.21875,-140,4.21875C-133.33333333333334,4.21875,-126.66666666666667,4.21875,-120,4.21875C-113.33333333333333,4.21875,-106.66666666666667,4.21875,-100,4.21875C-93.33333333333333,4.21875,-86.66666666666667,4.21875,-80,4.21875C-73.33333333333333,4.21875,-66.66666666666667,4.21875,-60,4.21875C-53.333333333333336,4.21875,-46.666666666666664,4.21875,-40,4.21875C-33.333333333333336,4.21875,-26.666666666666668,4.21875,-20,4.21875C-13.333333333333332,4.21875,-6.666666666666667,4.21875,0,4.21875" style="stroke: rgb(214, 39, 40); stroke-width: 2; fill: none;"/></g><text class="computeSig_label label" text-anchor="end" dx="-5" dy="0.5rem" fill="black" width="200" transform="translate(-580,16.875)">3</text></g><g class="node computeNode h4 statics" transform="translate(610,0)" style="pointer-events: auto;"><g class="computeSig" stroke="black" style="stroke-width: 2;"><path class="linegg timeline hgroup_2" d="M-580,29.53125C-573.3333333333334,29.53125,-566.6666666666666,29.53125,-560,29.53125C-553.3333333333334,29.53125,-546.6666666666666,29.53125,-540,29.53125C-533.3333333333334,29.53125,-526.6666666666666,29.53125,-520,29.53125C-513.3333333333334,29.53125,-506.6666666666667,29.53125,-500,29.53125C-493.3333333333333,29.53125,-486.6666666666667,29.53125,-480,29.53125C-473.3333333333333,29.53125,-466.6666666666667,29.53125,-460,29.53125C-453.3333333333333,29.53125,-446.6666666666667,29.53125,-440,29.53125C-433.3333333333333,29.53125,-426.6666666666667,29.53125,-420,29.53125C-413.3333333333333,29.53125,-406.6666666666667,29.53125,-400,29.53125C-393.3333333333333,29.53125,-386.6666666666667,29.53125,-380,29.53125C-373.3333333333333,29.53125,-366.6666666666667,29.53125,-360,29.53125C-353.3333333333333,29.53125,-346.6666666666667,29.53125,-340,29.53125C-333.3333333333333,29.53125,-326.6666666666667,29.53125,-320,29.53125C-316.6666666666667,29.53125,-313.3333333333333,29.53125,-310,29.53125C-306.6666666666667,29.53125,-303.3333333333333,48.515625,-300,67.5" style="stroke: rgb(255, 127, 14); stroke-width: 2; fill: none;"/><path class="linegg timeline hgroup_1" d="M-300,67.5C-293.3333333333333,67.5,-286.6666666666667,67.5,-280,67.5C-273.3333333333333,67.5,-266.6666666666667,67.5,-260,67.5C-253.33333333333334,67.5,-246.66666666666666,67.5,-240,67.5C-233.33333333333334,67.5,-226.66666666666666,67.5,-220,67.5C-213.33333333333334,67.5,-206.66666666666666,67.5,-200,67.5C-193.33333333333334,67.5,-186.66666666666666,67.5,-180,67.5C-173.33333333333334,67.5,-166.66666666666666,67.5,-160,67.5C-156.66666666666666,67.5,-153.33333333333334,67.5,-150,67.5C-146.66666666666666,67.5,-143.33333333333334,94.921875,-140,122.34375" style="stroke: rgb(31, 119, 180); stroke-width: 2; fill: none;"/><path class="linegg timeline hgroup_3" d="M-140,122.34375C-133.33333333333334,122.34375,-126.66666666666667,122.34375,-120,122.34375C-113.33333333333333,122.34375,-106.66666666666667,122.34375,-100,122.34375C-93.33333333333333,122.34375,-86.66666666666667,122.34375,-80,122.34375C-73.33333333333333,122.34375,-66.66666666666667,122.34375,-60,122.34375C-53.333333333333336,122.34375,-46.666666666666664,122.34375,-40,122.34375C-33.333333333333336,122.34375,-26.666666666666668,122.34375,-20,122.34375C-13.333333333333332,122.34375,-6.666666666666667,122.34375,0,122.34375" style="stroke: rgb(44, 160, 44); stroke-width: 2; fill: none;"/></g><text class="computeSig_label label" text-anchor="end" dx="-5" dy="0.5rem" fill="black" width="200" transform="translate(-580,29.53125)">4</text></g><g class="node computeNode h5 statics" transform="translate(610,0)" style="pointer-events: auto;"><g class="computeSig" stroke="black" style="stroke-width: 2;"><path class="linegg timeline hgroup_2" d="M-580,25.3125C-573.3333333333334,25.3125,-566.6666666666666,25.3125,-560,25.3125C-556.6666666666666,25.3125,-553.3333333333334,25.3125,-550,25.3125C-546.6666666666666,25.3125,-543.3333333333334,42.1875,-540,59.0625" style="stroke: rgb(255, 127, 14); stroke-width: 2; fill: none;"/><path class="linegg timeline hgroup_1" d="M-540,59.0625C-533.3333333333334,59.0625,-526.6666666666666,59.0625,-520,59.0625C-513.3333333333334,59.0625,-506.6666666666667,59.0625,-500,59.0625C-493.3333333333333,59.0625,-486.6666666666667,59.0625,-480,59.0625C-473.3333333333333,59.0625,-466.6666666666667,59.0625,-460,59.0625C-453.3333333333333,59.0625,-446.6666666666667,59.0625,-440,59.0625C-433.3333333333333,59.0625,-426.6666666666667,59.0625,-420,59.0625C-413.3333333333333,59.0625,-406.6666666666667,59.0625,-400,59.0625C-393.3333333333333,59.0625,-386.6666666666667,59.0625,-380,59.0625C-373.3333333333333,59.0625,-366.6666666666667,59.0625,-360,59.0625C-353.3333333333333,59.0625,-346.6666666666667,59.0625,-340,59.0625C-333.3333333333333,59.0625,-326.6666666666667,59.0625,-320,59.0625C-313.3333333333333,59.0625,-306.6666666666667,59.0625,-300,59.0625C-293.3333333333333,59.0625,-286.6666666666667,59.0625,-280,59.0625C-273.3333333333333,59.0625,-266.6666666666667,59.0625,-260,59.0625C-253.33333333333334,59.0625,-246.66666666666666,59.0625,-240,59.0625C-233.33333333333334,59.0625,-226.66666666666666,59.0625,-220,59.0625C-213.33333333333334,59.0625,-206.66666666666666,59.0625,-200,59.0625C-193.33333333333334,59.0625,-186.66666666666666,59.0625,-180,59.0625C-173.33333333333334,59.0625,-166.66666666666666,59.0625,-160,59.0625C-153.33333333333334,59.0625,-146.66666666666666,59.0625,-140,59.0625C-133.33333333333334,59.0625,-126.66666666666667,59.0625,-120,59.0625C-113.33333333333333,59.0625,-106.66666666666667,59.0625,-100,59.0625C-93.33333333333333,59.0625,-86.66666666666667,59.0625,-80,59.0625C-73.33333333333333,59.0625,-66.66666666666667,59.0625,-60,59.0625C-53.333333333333336,59.0625,-46.666666666666664,59.0625,-40,59.0625C-33.333333333333336,59.0625,-26.666666666666668,59.0625,-20,59.0625C-13.333333333333332,59.0625,-6.666666666666667,59.0625,0,59.0625" style="stroke: rgb(31, 119, 180); stroke-width: 2; fill: none;"/></g><text class="computeSig_label label" text-anchor="end" dx="-5" dy="0.5rem" fill="black" width="200" transform="translate(-580,25.3125)">5</text></g><g class="node computeNode h6 statics" transform="translate(610,0)" style="pointer-events: auto;"><g class="computeSig" stroke="black" style="stroke-width: 2;"><path class="linegg timeline hgroup_2" d="M-580,21.09375C-573.3333333333334,21.09375,-566.6666666666666,21.09375,-560,21.09375C-553.3333333333334,21.09375,-546.6666666666666,21.09375,-540,21.09375C-533.3333333333334,21.09375,-526.6666666666666,21.09375,-520,21.09375C-513.3333333333334,21.09375,-506.6666666666667,21.09375,-500,21.09375C-496.6666666666667,21.09375,-493.3333333333333,21.09375,-490,21.09375C-486.6666666666667,21.09375,-483.3333333333333,54.84375,-480,88.59375" style="stroke: rgb(255, 127, 14); stroke-width: 2; fill: none;"/><path class="linegg timeline hgroup_5" d="M-480,88.59375C-473.3333333333333,88.59375,-466.6666666666667,88.59375,-460,88.59375C-453.3333333333333,88.59375,-446.6666666666667,88.59375,-440,88.59375C-436.6666666666667,88.59375,-433.3333333333333,88.59375,-430,88.59375C-426.6666666666667,88.59375,-423.3333333333333,71.71875,-420,54.84375" style="stroke: rgb(148, 103, 189); stroke-width: 2; fill: none;"/><path class="linegg timeline hgroup_1" d="M-420,54.84375C-413.3333333333333,54.84375,-406.6666666666667,54.84375,-400,54.84375C-393.3333333333333,54.84375,-386.6666666666667,54.84375,-380,54.84375C-376.6666666666667,54.84375,-373.3333333333333,54.84375,-370,54.84375C-366.6666666666667,54.84375,-363.3333333333333,37.96875,-360,21.09375" style="stroke: rgb(31, 119, 180); stroke-width: 2; fill: none;"/><path class="linegg timeline hgroup_2" d="M-360,21.09375C-353.3333333333333,21.09375,-346.6666666666667,21.09375,-340,21.09375C-333.3333333333333,21.09375,-326.6666666666667,21.09375,-320,21.09375C-313.3333333333333,21.09375,-306.6666666666667,21.09375,-300,21.09375C-293.3333333333333,21.09375,-286.6666666666667,21.09375,-280,21.09375C-273.3333333333333,21.09375,-266.6666666666667,21.09375,-260,21.09375C-253.33333333333334,21.09375,-246.66666666666666,21.09375,-240,21.09375C-233.33333333333334,21.09375,-226.66666666666666,21.09375,-220,21.09375C-213.33333333333334,21.09375,-206.66666666666666,21.09375,-200,21.09375C-193.33333333333334,21.09375,-186.66666666666666,21.09375,-180,21.09375C-173.33333333333334,21.09375,-166.66666666666666,21.09375,-160,21.09375C-153.33333333333334,21.09375,-146.66666666666666,21.09375,-140,21.09375C-133.33333333333334,21.09375,-126.66666666666667,21.09375,-120,21.09375C-116.66666666666667,21.09375,-113.33333333333333,21.09375,-110,21.09375C-106.66666666666667,21.09375,-103.33333333333333,69.609375,-100,118.125" style="stroke: rgb(255, 127, 14); stroke-width: 2; fill: none;"/><path class="linegg timeline hgroup_3" d="M-100,118.125C-93.33333333333333,118.125,-86.66666666666667,118.125,-80,118.125C-73.33333333333333,118.125,-66.66666666666667,118.125,-60,118.125C-53.333333333333336,118.125,-46.666666666666664,118.125,-40,118.125C-33.333333333333336,118.125,-26.666666666666668,118.125,-20,118.125C-13.333333333333332,118.125,-6.666666666666667,118.125,0,118.125" style="stroke: rgb(44, 160, 44); stroke-width: 2; fill: none;"/></g><text class="computeSig_label label" text-anchor="end" dx="-5" dy="0.5rem" fill="black" width="200" transform="translate(-580,21.09375)">6</text></g><g class="node computeNode h7 statics" transform="translate(610,0)" style="pointer-events: auto;"><g class="computeSig" stroke="black" style="stroke-width: 2;"><path class="linegg timeline hgroup_3" d="M-580,126.5625C-573.3333333333334,126.5625,-566.6666666666666,126.5625,-560,126.5625C-553.3333333333334,126.5625,-546.6666666666666,126.5625,-540,126.5625C-533.3333333333334,126.5625,-526.6666666666666,126.5625,-520,126.5625C-513.3333333333334,126.5625,-506.6666666666667,126.5625,-500,126.5625C-493.3333333333333,126.5625,-486.6666666666667,126.5625,-480,126.5625C-473.3333333333333,126.5625,-466.6666666666667,126.5625,-460,126.5625C-453.3333333333333,126.5625,-446.6666666666667,126.5625,-440,126.5625C-433.3333333333333,126.5625,-426.6666666666667,126.5625,-420,126.5625C-413.3333333333333,126.5625,-406.6666666666667,126.5625,-400,126.5625C-393.3333333333333,126.5625,-386.6666666666667,126.5625,-380,126.5625C-376.6666666666667,126.5625,-373.3333333333333,126.5625,-370,126.5625C-366.6666666666667,126.5625,-363.3333333333333,82.265625,-360,37.96875" style="stroke: rgb(44, 160, 44); stroke-width: 2; fill: none;"/><path class="linegg timeline hgroup_2" d="M-360,37.96875C-353.3333333333333,37.96875,-346.6666666666667,37.96875,-340,37.96875C-333.3333333333333,37.96875,-326.6666666666667,37.96875,-320,37.96875C-313.3333333333333,37.96875,-306.6666666666667,37.96875,-300,37.96875C-293.3333333333333,37.96875,-286.6666666666667,37.96875,-280,37.96875C-273.3333333333333,37.96875,-266.6666666666667,37.96875,-260,37.96875C-253.33333333333334,37.96875,-246.66666666666666,37.96875,-240,37.96875C-233.33333333333334,37.96875,-226.66666666666666,37.96875,-220,37.96875C-213.33333333333334,37.96875,-206.66666666666666,37.96875,-200,37.96875C-193.33333333333334,37.96875,-186.66666666666666,37.96875,-180,37.96875C-173.33333333333334,37.96875,-166.66666666666666,37.96875,-160,37.96875C-153.33333333333334,37.96875,-146.66666666666666,37.96875,-140,37.96875C-133.33333333333334,37.96875,-126.66666666666667,37.96875,-120,37.96875C-113.33333333333333,37.96875,-106.66666666666667,37.96875,-100,37.96875C-93.33333333333333,37.96875,-86.66666666666667,37.96875,-80,37.96875C-73.33333333333333,37.96875,-66.66666666666667,37.96875,-60,37.96875C-53.333333333333336,37.96875,-46.666666666666664,37.96875,-40,37.96875C-36.666666666666664,37.96875,-33.333333333333336,37.96875,-30,37.96875C-26.666666666666668,37.96875,-23.333333333333332,82.265625,-20,126.5625" style="stroke: rgb(255, 127, 14); stroke-width: 2; fill: none;"/><path class="linegg timeline hgroup_3" d="M-20,126.5625L0,126.5625" style="stroke: rgb(44, 160, 44); stroke-width: 2; fill: none;"/></g><text class="computeSig_label label" text-anchor="end" dx="-5" dy="0.5rem" fill="black" width="200" transform="translate(-580,126.5625)">7</text></g><g class="node computeNode h8 statics" transform="translate(610,0)" style="pointer-events: auto;"><g class="computeSig" stroke="black" style="stroke-width: 2;"><path class="linegg timeline hgroup_3" d="M-580,135C-573.3333333333334,135,-566.6666666666666,135,-560,135C-553.3333333333334,135,-546.6666666666666,135,-540,135C-536.6666666666666,135,-533.3333333333334,135,-530,135C-526.6666666666666,135,-523.3333333333334,122.34375,-520,109.6875" style="stroke: rgb(44, 160, 44); stroke-width: 2; fill: none;"/><path class="linegg timeline hgroup_5" d="M-520,109.6875C-513.3333333333334,109.6875,-506.6666666666667,109.6875,-500,109.6875C-493.3333333333333,109.6875,-486.6666666666667,109.6875,-480,109.6875C-473.3333333333333,109.6875,-466.6666666666667,109.6875,-460,109.6875C-453.3333333333333,109.6875,-446.6666666666667,109.6875,-440,109.6875C-433.3333333333333,109.6875,-426.6666666666667,109.6875,-420,109.6875C-413.3333333333333,109.6875,-406.6666666666667,109.6875,-400,109.6875C-393.3333333333333,109.6875,-386.6666666666667,109.6875,-380,109.6875C-373.3333333333333,109.6875,-366.6666666666667,109.6875,-360,109.6875C-353.3333333333333,109.6875,-346.6666666666667,109.6875,-340,109.6875C-333.3333333333333,109.6875,-326.6666666666667,109.6875,-320,109.6875C-313.3333333333333,109.6875,-306.6666666666667,109.6875,-300,109.6875C-293.3333333333333,109.6875,-286.6666666666667,109.6875,-280,109.6875C-273.3333333333333,109.6875,-266.6666666666667,109.6875,-260,109.6875C-253.33333333333334,109.6875,-246.66666666666666,109.6875,-240,109.6875C-233.33333333333334,109.6875,-226.66666666666666,109.6875,-220,109.6875C-213.33333333333334,109.6875,-206.66666666666666,109.6875,-200,109.6875C-193.33333333333334,109.6875,-186.66666666666666,109.6875,-180,109.6875C-173.33333333333334,109.6875,-166.66666666666666,109.6875,-160,109.6875C-153.33333333333334,109.6875,-146.66666666666666,109.6875,-140,109.6875C-133.33333333333334,109.6875,-126.66666666666667,109.6875,-120,109.6875C-113.33333333333333,109.6875,-106.66666666666667,109.6875,-100,109.6875C-93.33333333333333,109.6875,-86.66666666666667,109.6875,-80,109.6875C-73.33333333333333,109.6875,-66.66666666666667,109.6875,-60,109.6875C-53.333333333333336,109.6875,-46.666666666666664,109.6875,-40,109.6875C-33.333333333333336,109.6875,-26.666666666666668,109.6875,-20,109.6875C-13.333333333333332,109.6875,-6.666666666666667,109.6875,0,109.6875" style="stroke: rgb(148, 103, 189); stroke-width: 2; fill: none;"/></g><text class="computeSig_label label" text-anchor="end" dx="-5" dy="0.5rem" fill="black" width="200" transform="translate(-580,135)">8</text></g><g class="node computeNode h9 statics" transform="translate(610,0)" style="pointer-events: auto;"><g class="computeSig" stroke="black" style="stroke-width: 2;"><path class="linegg timeline hgroup_1" d="M-580,71.71875C-573.3333333333334,71.71875,-566.6666666666666,71.71875,-560,71.71875C-553.3333333333334,71.71875,-546.6666666666666,71.71875,-540,71.71875C-533.3333333333334,71.71875,-526.6666666666666,71.71875,-520,71.71875C-516.6666666666666,71.71875,-513.3333333333334,71.71875,-510,71.71875C-506.6666666666667,71.71875,-503.3333333333333,52.734375,-500,33.75" style="stroke: rgb(31, 119, 180); stroke-width: 2; fill: none;"/><path class="linegg timeline hgroup_2" d="M-500,33.75C-496.6666666666667,33.75,-493.3333333333333,33.75,-490,33.75C-486.6666666666667,33.75,-483.3333333333333,65.390625,-480,97.03125" style="stroke: rgb(255, 127, 14); stroke-width: 2;"/><path class="linegg timeline hgroup_5" d="M-480,97.03125C-473.3333333333333,97.03125,-466.6666666666667,97.03125,-460,97.03125C-453.3333333333333,97.03125,-446.6666666666667,97.03125,-440,97.03125C-433.3333333333333,97.03125,-426.6666666666667,97.03125,-420,97.03125C-413.3333333333333,97.03125,-406.6666666666667,97.03125,-400,97.03125C-393.3333333333333,97.03125,-386.6666666666667,97.03125,-380,97.03125C-373.3333333333333,97.03125,-366.6666666666667,97.03125,-360,97.03125C-353.3333333333333,97.03125,-346.6666666666667,97.03125,-340,97.03125C-333.3333333333333,97.03125,-326.6666666666667,97.03125,-320,97.03125C-313.3333333333333,97.03125,-306.6666666666667,97.03125,-300,97.03125C-293.3333333333333,97.03125,-286.6666666666667,97.03125,-280,97.03125C-273.3333333333333,97.03125,-266.6666666666667,97.03125,-260,97.03125C-253.33333333333334,97.03125,-246.66666666666666,97.03125,-240,97.03125C-233.33333333333334,97.03125,-226.66666666666666,97.03125,-220,97.03125C-213.33333333333334,97.03125,-206.66666666666666,97.03125,-200,97.03125C-193.33333333333334,97.03125,-186.66666666666666,97.03125,-180,97.03125C-173.33333333333334,97.03125,-166.66666666666666,97.03125,-160,97.03125C-156.66666666666666,97.03125,-153.33333333333334,97.03125,-150,97.03125C-146.66666666666666,97.03125,-143.33333333333334,52.734375,-140,8.4375" style="stroke: rgb(148, 103, 189); stroke-width: 2; fill: none;"/><path class="linegg timeline hgroup_4" d="M-140,8.4375C-133.33333333333334,8.4375,-126.66666666666667,8.4375,-120,8.4375C-113.33333333333333,8.4375,-106.66666666666667,8.4375,-100,8.4375C-93.33333333333333,8.4375,-86.66666666666667,8.4375,-80,8.4375C-76.66666666666667,8.4375,-73.33333333333333,8.4375,-70,8.4375C-66.66666666666667,8.4375,-63.333333333333336,40.078125,-60,71.71875" style="stroke: rgb(214, 39, 40); stroke-width: 2; fill: none;"/><path class="linegg timeline hgroup_1" d="M-60,71.71875C-53.333333333333336,71.71875,-46.666666666666664,71.71875,-40,71.71875C-33.333333333333336,71.71875,-26.666666666666668,71.71875,-20,71.71875C-13.333333333333332,71.71875,-6.666666666666667,71.71875,0,71.71875" style="stroke: rgb(31, 119, 180); stroke-width: 2; fill: none;"/></g><text class="computeSig_label label" text-anchor="end" dx="-5" dy="0.5rem" fill="black" width="200" transform="translate(-580,71.71875)">9</text></g><g class="node computeNode h10 statics" transform="translate(610,0)" style="pointer-events: auto;"><g class="computeSig" stroke="black" style="stroke-width: 2;"><path class="linegg timeline hgroup_2" d="M-580,46.40625C-573.3333333333334,46.40625,-566.6666666666666,46.40625,-560,46.40625C-553.3333333333334,46.40625,-546.6666666666666,46.40625,-540,46.40625C-533.3333333333334,46.40625,-526.6666666666666,46.40625,-520,46.40625C-513.3333333333334,46.40625,-506.6666666666667,46.40625,-500,46.40625C-493.3333333333333,46.40625,-486.6666666666667,46.40625,-480,46.40625C-473.3333333333333,46.40625,-466.6666666666667,46.40625,-460,46.40625C-453.3333333333333,46.40625,-446.6666666666667,46.40625,-440,46.40625C-436.6666666666667,46.40625,-433.3333333333333,46.40625,-430,46.40625C-426.6666666666667,46.40625,-423.3333333333333,63.28125,-420,80.15625" style="stroke: rgb(255, 127, 14); stroke-width: 2; fill: none;"/><path class="linegg timeline hgroup_1" d="M-420,80.15625C-416.6666666666667,80.15625,-413.3333333333333,80.15625,-410,80.15625C-406.6666666666667,80.15625,-403.3333333333333,92.8125,-400,105.46875" style="stroke: rgb(31, 119, 180); stroke-width: 2;"/><path class="linegg timeline hgroup_5" d="M-400,105.46875C-393.3333333333333,105.46875,-386.6666666666667,105.46875,-380,105.46875C-373.3333333333333,105.46875,-366.6666666666667,105.46875,-360,105.46875C-353.3333333333333,105.46875,-346.6666666666667,105.46875,-340,105.46875C-333.3333333333333,105.46875,-326.6666666666667,105.46875,-320,105.46875C-313.3333333333333,105.46875,-306.6666666666667,105.46875,-300,105.46875C-293.3333333333333,105.46875,-286.6666666666667,105.46875,-280,105.46875C-273.3333333333333,105.46875,-266.6666666666667,105.46875,-260,105.46875C-253.33333333333334,105.46875,-246.66666666666666,105.46875,-240,105.46875C-233.33333333333334,105.46875,-226.66666666666666,105.46875,-220,105.46875C-213.33333333333334,105.46875,-206.66666666666666,105.46875,-200,105.46875C-193.33333333333334,105.46875,-186.66666666666666,105.46875,-180,105.46875C-173.33333333333334,105.46875,-166.66666666666666,105.46875,-160,105.46875C-153.33333333333334,105.46875,-146.66666666666666,105.46875,-140,105.46875C-133.33333333333334,105.46875,-126.66666666666667,105.46875,-120,105.46875C-113.33333333333333,105.46875,-106.66666666666667,105.46875,-100,105.46875C-93.33333333333333,105.46875,-86.66666666666667,105.46875,-80,105.46875C-73.33333333333333,105.46875,-66.66666666666667,105.46875,-60,105.46875C-53.333333333333336,105.46875,-46.666666666666664,105.46875,-40,105.46875C-33.333333333333336,105.46875,-26.666666666666668,105.46875,-20,105.46875C-13.333333333333332,105.46875,-6.666666666666667,105.46875,0,105.46875" style="stroke: rgb(148, 103, 189); stroke-width: 2; fill: none;"/></g><text class="computeSig_label label" text-anchor="end" dx="-5" dy="0.5rem" fill="black" width="200" transform="translate(-580,46.40625)">10</text></g></g><rect class="fisheyeLayer" style="opacity: 0; pointer-events: none;" width="580" height="180" transform="translate(-280,0)"/><g class="table header" transform="translate(600,0)"><g class="back"><path style="fill: rgb(221, 221, 221);"/></g></g></g><g class="timebox hide" transform="translate(40,20)" dy="1rem" style="font-size: 16px;"/><circle id="tipfollowscursor"/></svg>