<svg id="jobmap" width="700" height="250" style="fill: none; font-size: 10px; font-family: sans-serif;" xmlns="http://www.w3.org/2000/svg" xmlns:xlink="http://www.w3.org/1999/xlink">

                    <defs id="defsmain"><pattern id="userpic" width="100%" height="100%" patternContentUnits="objectBoundingBox"><image height="1" width="1" preserveAspectRatio="none" xmlns:xlink="http://www.w3.org/1999/xlink" xlink:href="src/images/u.png"/></pattern><marker id="arrow" markerWidth="10" markerHeight="10" refX="0" refY="3" orient="auto" markerUnits="strokeWidth"><path d="M0,0 L0,6 L9,3 z" style="fill: black;"/></marker></defs><rect class="pantarget" opacity="0" width="1336" height="762"/><g class="pannel" transform="translate(50,50)"><text class="Time" text-anchor="middle" x="40" dy="-30" style="font-weight: bold; fill: black;">Time</text><line x1="60" x2="95" y1="-33" y2="-33" marker-end="url(#arrow)" style="stroke: black;"/><text class="Time" text-anchor="middle" x="-5" dy="-1rem" style="font-weight: bold; fill: black;">Instance</text><line x1="5" x2="5" y1="-5" y2="30" marker-end="url(#arrow)" style="stroke: black;"/><g class="gNodeaxis" transform="translate(610,-10)"><g class="gMainaxis" fill="none" font-size="10" font-family="sans-serif" text-anchor="middle"><g class="tick" opacity="1" transform="translate(-580, 0)"><line stroke="#000" y2="145" vector-effect="non-scaling-stroke" style="stroke-width: 0.1; stroke: black; stroke-dasharray: 1, 2; opacity: 0.5;"/><text fill="#000" y="-3" dy="-0.5rem">1</text></g><g class="tick" opacity="1" transform="translate(-560, 0)"><line stroke="#000" y2="145" vector-effect="non-scaling-stroke" style="stroke-width: 0.1; stroke: black; stroke-dasharray: 1, 2; opacity: 0.5;"/><text fill="#000" y="-3" dy="-0.5rem">2</text></g><g class="tick" opacity="1" transform="translate(-540, 0)"><line stroke="#000" y2="145" vector-effect="non-scaling-stroke" style="stroke-width: 0.1; stroke: black; stroke-dasharray: 1, 2; opacity: 0.5;"/><text fill="#000" y="-3" dy="-0.5rem">3</text></g><g class="tick" opacity="1" transform="translate(-520, 0)"><line stroke="#000" y2="145" vector-effect="non-scaling-stroke" style="stroke-width: 0.1; stroke: black; stroke-dasharray: 1, 2; opacity: 0.5;"/><text fill="#000" y="-3" dy="-0.5rem">4</text></g><g class="tick" opacity="1" transform="translate(-500, 0)"><line stroke="#000" y2="145" vector-effect="non-scaling-stroke" style="stroke-width: 0.1; stroke: black; stroke-dasharray: 1, 2; opacity: 0.5;"/><text fill="#000" y="-3" dy="-0.5rem">5</text></g><g class="tick" opacity="1" transform="translate(-480, 0)"><line stroke="#000" y2="145" vector-effect="non-scaling-stroke" style="stroke-width: 0.1; stroke: black; stroke-dasharray: 1, 2; opacity: 0.5;"/><text fill="#000" y="-3" dy="-0.5rem">6</text></g><g class="tick" opacity="1" transform="translate(-460, 0)"><line stroke="#000" y2="145" vector-effect="non-scaling-stroke" style="stroke-width: 0.1; stroke: black; stroke-dasharray: 1, 2; opacity: 0.5;"/><text fill="#000" y="-3" dy="-0.5rem">7</text></g><g class="tick" opacity="1" transform="translate(-440, 0)"><line stroke="#000" y2="145" vector-effect="non-scaling-stroke" style="stroke-width: 0.1; stroke: black; stroke-dasharray: 1, 2; opacity: 0.5;"/><text fill="#000" y="-3" dy="-0.5rem">8</text></g><g class="tick" opacity="1" transform="translate(-420, 0)"><line stroke="#000" y2="145" vector-effect="non-scaling-stroke" style="stroke-width: 0.1; stroke: black; stroke-dasharray: 1, 2; opacity: 0.5;"/><text fill="#000" y="-3" dy="-0.5rem">9</text></g><g class="tick" opacity="1" transform="translate(-400, 0)"><line stroke="#000" y2="145" vector-effect="non-scaling-stroke" style="stroke-width: 0.1; stroke: black; stroke-dasharray: 1, 2; opacity: 0.5;"/><text fill="#000" y="-3" dy="-0.5rem">10</text></g><g class="tick" opacity="1" transform="translate(-380, 0)"><line stroke="#000" y2="145" vector-effect="non-scaling-stroke" style="stroke-width: 0.1; stroke: black; stroke-dasharray: 1, 2; opacity: 0.5;"/><text fill="#000" y="-3" dy="-0.5rem">11</text></g><g class="tick" opacity="1" transform="translate(-360, 0)"><line stroke="#000" y2="145" vector-effect="non-scaling-stroke" style="stroke-width: 0.1; stroke: black; stroke-dasharray: 1, 2; opacity: 0.5;"/><text fill="#000" y="-3" dy="-0.5rem">12</text></g><g class="tick" opacity="1" transform="translate(-340, 0)"><line stroke="#000" y2="145" vector-effect="non-scaling-stroke" style="stroke-width: 0.1; stroke: black; stroke-dasharray: 1, 2; opacity: 0.5;"/><text fill="#000" y="-3" dy="-0.5rem">13</text></g><g class="tick" opacity="1" transform="translate(-320, 0)"><line stroke="#000" y2="145" vector-effect="non-scaling-stroke" style="stroke-width: 0.1; stroke: black; stroke-dasharray: 1, 2; opacity: 0.5;"/><text fill="#000" y="-3" dy="-0.5rem">14</text></g><g class="tick" opacity="1" transform="translate(-300, 0)"><line stroke="#000" y2="145" vector-effect="non-scaling-stroke" style="stroke-width: 0.1; stroke: black; stroke-dasharray: 1, 2; opacity: 0.5;"/><text fill="#000" y="-3" dy="-0.5rem">15</text></g><g class="tick" opacity="1" transform="translate(-280, 0)"><line stroke="#000" y2="145" vector-effect="non-scaling-stroke" style="stroke-width: 0.1; stroke: black; stroke-dasharray: 1, 2; opacity: 0.5;"/><text fill="#000" y="-3" dy="-0.5rem">16</text></g><g class="tick" opacity="1" transform="translate(-260, 0)"><line stroke="#000" y2="145" vector-effect="non-scaling-stroke" style="stroke-width: 0.1; stroke: black; stroke-dasharray: 1, 2; opacity: 0.5;"/><text fill="#000" y="-3" dy="-0.5rem">17</text></g><g class="tick" opacity="1" transform="translate(-240, 0)"><line stroke="#000" y2="145" vector-effect="non-scaling-stroke" style="stroke-width: 0.1; stroke: black; stroke-dasharray: 1, 2; opacity: 0.5;"/><text fill="#000" y="-3" dy="-0.5rem">18</text></g><g class="tick" opacity="1" transform="translate(-220, 0)"><line stroke="#000" y2="145" vector-effect="non-scaling-stroke" style="stroke-width: 0.1; stroke: black; stroke-dasharray: 1, 2; opacity: 0.5;"/><text fill="#000" y="-3" dy="-0.5rem">19</text></g><g class="tick" opacity="1" transform="translate(-200, 0)"><line stroke="#000" y2="145" vector-effect="non-scaling-stroke" style="stroke-width: 0.1; stroke: black; stroke-dasharray: 1, 2; opacity: 0.5;"/><text fill="#000" y="-3" dy="-0.5rem">20</text></g><g class="tick" opacity="1" transform="translate(-180, 0)"><line stroke="#000" y2="145" vector-effect="non-scaling-stroke" style="stroke-width: 0.1; stroke: black; stroke-dasharray: 1, 2; opacity: 0.5;"/><text fill="#000" y="-3" dy="-0.5rem">21</text></g><g class="tick" opacity="1" transform="translate(-160, 0)"><line stroke="#000" y2="145" vector-effect="non-scaling-stroke" style="stroke-width: 0.1; stroke: black; stroke-dasharray: 1, 2; opacity: 0.5;"/><text fill="#000" y="-3" dy="-0.5rem">22</text></g><g class="tick" opacity="1" transform="translate(-140, 0)"><line stroke="#000" y2="145" vector-effect="non-scaling-stroke" style="stroke-width: 0.1; stroke: black; stroke-dasharray: 1, 2; opacity: 0.5;"/><text fill="#000" y="-3" dy="-0.5rem">23</text></g><g class="tick" opacity="1" transform="translate(-120, 0)"><line stroke="#000" y2="145" vector-effect="non-scaling-stroke" style="stroke-width: 0.1; stroke: black; stroke-dasharray: 1, 2; opacity: 0.5;"/><text fill="#000" y="-3" dy="-0.5rem">24</text></g><g class="tick" opacity="1" transform="translate(-100, 0)"><line stroke="#000" y2="145" vector-effect="non-scaling-stroke" style="stroke-width: 0.1; stroke: black; stroke-dasharray: 1, 2; opacity: 0.5;"/><text fill="#000" y="-3" dy="-0.5rem">25</text></g><g class="tick" opacity="1" transform="translate(-80, 0)"><line stroke="#000" y2="145" vector-effect="non-scaling-stroke" style="stroke-width: 0.1; stroke: black; stroke-dasharray: 1, 2; opacity: 0.5;"/><text fill="#000" y="-3" dy="-0.5rem">26</text></g><g class="tick" opacity="1" transform="translate(-60, 0)"><line stroke="#000" y2="145" vector-effect="non-scaling-stroke" style="stroke-width: 0.1; stroke: black; stroke-dasharray: 1, 2; opacity: 0.5;"/><text fill="#000" y="-3" dy="-0.5rem">27</text></g><g class="tick" opacity="1" transform="translate(-40, 0)"><line stroke="#000" y2="145" vector-effect="non-scaling-stroke" style="stroke-width: 0.1; stroke: black; stroke-dasharray: 1, 2; opacity: 0.5;"/><text fill="#000" y="-3" dy="-0.5rem">28</text></g><g class="tick" opacity="1" transform="translate(-20, 0)"><line stroke="#000" y2="145" vector-effect="non-scaling-stroke" style="stroke-width: 0.1; stroke: black; stroke-dasharray: 1, 2; opacity: 0.5;"/><text fill="#000" y="-3" dy="-0.5rem">29</text></g><g class="tick" opacity="1" transform=""><line stroke="#000" y2="145" vector-effect="non-scaling-stroke" style="stroke-width: 0.1; stroke: black; stroke-dasharray: 1, 2; opacity: 0.5;"/><text fill="#000" y="-3" dy="-0.5rem">30</text></g></g><g class="gSubaxis hide"/></g><g class="annotation"/><g class="linkg"><g class="links" style="display: none;"><path stroke="black" style="stroke-width: 2;"/><text text-anchor="middle">1</text></g><g class="links" style="display: none;"><path stroke="black" style="stroke-width: 2;"/><text text-anchor="middle">1</text></g><g class="links" style="display: none;"><path stroke="black" style="stroke-width: 2;"/><text text-anchor="middle">1</text></g><g class="links" style="display: none;"><path stroke="black" style="stroke-width: 2;"/><text text-anchor="middle">1</text></g><g class="links" style="display: none;"><path stroke="black" style="stroke-width: 2;"/><text text-anchor="middle">1</text></g><g class="links" style="display: none;"><path stroke="black" style="stroke-width: 2;"/><text text-anchor="middle">1</text></g><g class="links" style="display: none;"><path stroke="black" style="stroke-width: 2;"/><text text-anchor="middle">1</text></g><g class="links" style="display: none;"><path stroke="black" style="stroke-width: 2;"/><text text-anchor="middle">1</text></g><g class="links" style="display: none;"><path stroke="black" style="stroke-width: 2;"/><text text-anchor="middle">1</text></g><g class="links" style="display: none;"><path stroke="black" style="stroke-width: 2;"/><text text-anchor="middle">1</text></g><g class="links" style="display: none;"><path stroke="black" style="stroke-width: 2;"/><text text-anchor="middle">1</text></g></g><g class="nodeg"><g class="node computeNode h1 statics" transform="translate(610,0)" style="pointer-events: auto;"><g class="computeSig" stroke="black" style="stroke-width: 2;"><path class="linegg timeline hgroup_1" d="M-580,53.28947368421053C-573.3333333333334,53.28947368421053,-566.6666666666666,53.28947368421053,-560,53.28947368421053C-553.3333333333334,53.28947368421053,-546.6666666666666,53.28947368421053,-540,53.28947368421053C-533.3333333333334,53.28947368421053,-526.6666666666666,53.28947368421053,-520,53.28947368421053C-513.3333333333334,53.28947368421053,-506.6666666666667,53.28947368421053,-500,53.28947368421053C-493.3333333333333,53.28947368421053,-486.6666666666667,53.28947368421053,-480,53.28947368421053C-473.3333333333333,53.28947368421053,-466.6666666666667,53.28947368421053,-460,53.28947368421053C-453.3333333333333,53.28947368421053,-446.6666666666667,53.28947368421053,-440,53.28947368421053C-433.3333333333333,53.28947368421053,-426.6666666666667,53.28947368421053,-420,53.28947368421053C-413.3333333333333,53.28947368421053,-406.6666666666667,53.28947368421053,-400,53.28947368421053C-393.3333333333333,53.28947368421053,-386.6666666666667,53.28947368421053,-380,53.28947368421053C-373.3333333333333,53.28947368421053,-366.6666666666667,53.28947368421053,-360,53.28947368421053C-353.3333333333333,53.28947368421053,-346.6666666666667,53.28947368421053,-340,53.28947368421053C-333.3333333333333,53.28947368421053,-326.6666666666667,53.28947368421053,-320,53.28947368421053C-313.3333333333333,53.28947368421053,-306.6666666666667,53.28947368421053,-300,53.28947368421053C-293.3333333333333,53.28947368421053,-286.6666666666667,53.28947368421053,-280,53.28947368421053C-273.3333333333333,53.28947368421053,-266.6666666666667,53.28947368421053,-260,53.28947368421053C-253.33333333333334,53.28947368421053,-246.66666666666666,53.28947368421053,-240,53.28947368421053C-233.33333333333334,53.28947368421053,-226.66666666666666,53.28947368421053,-220,53.28947368421053C-213.33333333333334,53.28947368421053,-206.66666666666666,53.28947368421053,-200,53.28947368421053C-193.33333333333334,53.28947368421053,-186.66666666666666,53.28947368421053,-180,53.28947368421053C-173.33333333333334,53.28947368421053,-166.66666666666666,53.28947368421053,-160,53.28947368421053C-153.33333333333334,53.28947368421053,-146.66666666666666,53.28947368421053,-140,53.28947368421053C-133.33333333333334,53.28947368421053,-126.66666666666667,53.28947368421053,-120,53.28947368421053C-113.33333333333333,53.28947368421053,-106.66666666666667,53.28947368421053,-100,53.28947368421053C-93.33333333333333,53.28947368421053,-86.66666666666667,53.28947368421053,-80,53.28947368421053C-73.33333333333333,53.28947368421053,-66.66666666666667,53.28947368421053,-60,53.28947368421053C-53.333333333333336,53.28947368421053,-46.666666666666664,53.28947368421053,-40,53.28947368421053C-33.333333333333336,53.28947368421053,-26.666666666666668,53.28947368421053,-20,53.28947368421053C-13.333333333333332,53.28947368421053,-6.666666666666667,53.28947368421053,0,53.28947368421053" style="stroke: rgb(31, 119, 180); stroke-width: 2; fill: none;"/></g><text class="computeSig_label label" text-anchor="end" dx="-5" dy="0.5rem" fill="black" width="200" transform="translate(-580,53.28947368421053)">1</text></g><g class="node computeNode h2 statics" transform="translate(610,0)" style="pointer-events: auto;"><g class="computeSig" stroke="black" style="stroke-width: 2;"><path class="linegg timeline hgroup_2" d="M-580,92.36842105263158C-573.3333333333334,92.36842105263158,-566.6666666666666,92.36842105263158,-560,92.36842105263158C-553.3333333333334,92.36842105263158,-546.6666666666666,92.36842105263158,-540,92.36842105263158C-533.3333333333334,92.36842105263158,-526.6666666666666,92.36842105263158,-520,92.36842105263158C-513.3333333333334,92.36842105263158,-506.6666666666667,92.36842105263158,-500,92.36842105263158C-493.3333333333333,92.36842105263158,-486.6666666666667,92.36842105263158,-480,92.36842105263158C-473.3333333333333,92.36842105263158,-466.6666666666667,92.36842105263158,-460,92.36842105263158C-453.3333333333333,92.36842105263158,-446.6666666666667,92.36842105263158,-440,92.36842105263158C-433.3333333333333,92.36842105263158,-426.6666666666667,92.36842105263158,-420,92.36842105263158C-413.3333333333333,92.36842105263158,-406.6666666666667,92.36842105263158,-400,92.36842105263158C-393.3333333333333,92.36842105263158,-386.6666666666667,92.36842105263158,-380,92.36842105263158C-373.3333333333333,92.36842105263158,-366.6666666666667,92.36842105263158,-360,92.36842105263158C-353.3333333333333,92.36842105263158,-346.6666666666667,92.36842105263158,-340,92.36842105263158C-333.3333333333333,92.36842105263158,-326.6666666666667,92.36842105263158,-320,92.36842105263158C-316.6666666666667,92.36842105263158,-313.3333333333333,92.36842105263158,-310,92.36842105263158C-306.6666666666667,92.36842105263158,-303.3333333333333,76.38157894736841,-300,60.39473684210526" style="stroke: rgb(255, 127, 14); stroke-width: 2; fill: none;"/><path class="linegg timeline hgroup_1" d="M-300,60.39473684210526C-293.3333333333333,60.39473684210526,-286.6666666666667,60.39473684210526,-280,60.39473684210526C-273.3333333333333,60.39473684210526,-266.6666666666667,60.39473684210526,-260,60.39473684210526C-253.33333333333334,60.39473684210526,-246.66666666666666,60.39473684210526,-240,60.39473684210526C-236.66666666666666,60.39473684210526,-233.33333333333334,60.39473684210526,-230,60.39473684210526C-226.66666666666666,60.39473684210526,-223.33333333333334,90.59210526315789,-220,120.78947368421052" style="stroke: rgb(31, 119, 180); stroke-width: 2; fill: none;"/><path class="linegg timeline hgroup_3" d="M-220,120.78947368421052C-213.33333333333334,120.78947368421052,-206.66666666666666,120.78947368421052,-200,120.78947368421052C-196.66666666666666,120.78947368421052,-193.33333333333334,120.78947368421052,-190,120.78947368421052C-186.66666666666666,120.78947368421052,-183.33333333333334,106.57894736842104,-180,92.36842105263158" style="stroke: rgb(44, 160, 44); stroke-width: 2; fill: none;"/><path class="linegg timeline hgroup_2" d="M-180,92.36842105263158C-173.33333333333334,92.36842105263158,-166.66666666666666,92.36842105263158,-160,92.36842105263158C-153.33333333333334,92.36842105263158,-146.66666666666666,92.36842105263158,-140,92.36842105263158C-133.33333333333334,92.36842105263158,-126.66666666666667,92.36842105263158,-120,92.36842105263158C-113.33333333333333,92.36842105263158,-106.66666666666667,92.36842105263158,-100,92.36842105263158C-93.33333333333333,92.36842105263158,-86.66666666666667,92.36842105263158,-80,92.36842105263158C-73.33333333333333,92.36842105263158,-66.66666666666667,92.36842105263158,-60,92.36842105263158C-53.333333333333336,92.36842105263158,-46.666666666666664,92.36842105263158,-40,92.36842105263158C-33.333333333333336,92.36842105263158,-26.666666666666668,92.36842105263158,-20,92.36842105263158C-16.666666666666668,92.36842105263158,-13.333333333333334,92.36842105263158,-10,92.36842105263158C-6.666666666666666,92.36842105263158,-3.3333333333333335,76.38157894736841,0,60.39473684210526" style="stroke: rgb(255, 127, 14); stroke-width: 2; fill: none;"/><path class="linegg timeline hgroup_1" d="M0,60.39473684210526Z" style="stroke: rgb(31, 119, 180); stroke-width: 2;"/></g><text class="computeSig_label label" text-anchor="end" dx="-5" dy="0.5rem" fill="black" width="200" transform="translate(-580,92.36842105263158)">2</text></g><g class="node computeNode h3 statics" transform="translate(610,0)" style="pointer-events: auto;"><g class="computeSig" stroke="black" style="stroke-width: 2;"><path class="linegg timeline hgroup_2" d="M-580,95.92105263157895C-573.3333333333334,95.92105263157895,-566.6666666666666,95.92105263157895,-560,95.92105263157895C-556.6666666666666,95.92105263157895,-553.3333333333334,95.92105263157895,-550,95.92105263157895C-546.6666666666666,95.92105263157895,-543.3333333333334,110.13157894736841,-540,124.34210526315789" style="stroke: rgb(255, 127, 14); stroke-width: 2; fill: none;"/><path class="linegg timeline hgroup_3" d="M-540,124.34210526315789C-536.6666666666666,124.34210526315789,-533.3333333333334,124.34210526315789,-530,124.34210526315789C-526.6666666666666,124.34210526315789,-523.3333333333334,110.13157894736841,-520,95.92105263157895" style="stroke: rgb(44, 160, 44); stroke-width: 2;"/><path class="linegg timeline hgroup_2" d="M-520,95.92105263157895C-513.3333333333334,95.92105263157895,-506.6666666666667,95.92105263157895,-500,95.92105263157895C-493.3333333333333,95.92105263157895,-486.6666666666667,95.92105263157895,-480,95.92105263157895C-473.3333333333333,95.92105263157895,-466.6666666666667,95.92105263157895,-460,95.92105263157895C-453.3333333333333,95.92105263157895,-446.6666666666667,95.92105263157895,-440,95.92105263157895C-436.6666666666667,95.92105263157895,-433.3333333333333,95.92105263157895,-430,95.92105263157895C-426.6666666666667,95.92105263157895,-423.3333333333333,63.94736842105263,-420,31.973684210526315" style="stroke: rgb(255, 127, 14); stroke-width: 2; fill: none;"/><path class="linegg timeline hgroup_4" d="M-420,31.973684210526315C-416.6666666666667,31.973684210526315,-413.3333333333333,31.973684210526315,-410,31.973684210526315C-406.6666666666667,31.973684210526315,-403.3333333333333,47.96052631578947,-400,63.94736842105263" style="stroke: rgb(214, 39, 40); stroke-width: 2;"/><path class="linegg timeline hgroup_1" d="M-400,63.94736842105263C-393.3333333333333,63.94736842105263,-386.6666666666667,63.94736842105263,-380,63.94736842105263C-376.6666666666667,63.94736842105263,-373.3333333333333,63.94736842105263,-370,63.94736842105263C-366.6666666666667,63.94736842105263,-363.3333333333333,94.14473684210526,-360,124.34210526315789" style="stroke: rgb(31, 119, 180); stroke-width: 2; fill: none;"/><path class="linegg timeline hgroup_3" d="M-360,124.34210526315789C-353.3333333333333,124.34210526315789,-346.6666666666667,124.34210526315789,-340,124.34210526315789C-333.3333333333333,124.34210526315789,-326.6666666666667,124.34210526315789,-320,124.34210526315789C-313.3333333333333,124.34210526315789,-306.6666666666667,124.34210526315789,-300,124.34210526315789C-293.3333333333333,124.34210526315789,-286.6666666666667,124.34210526315789,-280,124.34210526315789C-273.3333333333333,124.34210526315789,-266.6666666666667,124.34210526315789,-260,124.34210526315789C-253.33333333333334,124.34210526315789,-246.66666666666666,124.34210526315789,-240,124.34210526315789C-236.66666666666666,124.34210526315789,-233.33333333333334,124.34210526315789,-230,124.34210526315789C-226.66666666666666,124.34210526315789,-223.33333333333334,110.13157894736841,-220,95.92105263157895" style="stroke: rgb(44, 160, 44); stroke-width: 2; fill: none;"/><path class="linegg timeline hgroup_2" d="M-220,95.92105263157895C-213.33333333333334,95.92105263157895,-206.66666666666666,95.92105263157895,-200,95.92105263157895C-193.33333333333334,95.92105263157895,-186.66666666666666,95.92105263157895,-180,95.92105263157895C-173.33333333333334,95.92105263157895,-166.66666666666666,95.92105263157895,-160,95.92105263157895C-153.33333333333334,95.92105263157895,-146.66666666666666,95.92105263157895,-140,95.92105263157895C-133.33333333333334,95.92105263157895,-126.66666666666667,95.92105263157895,-120,95.92105263157895C-116.66666666666667,95.92105263157895,-113.33333333333333,95.92105263157895,-110,95.92105263157895C-106.66666666666667,95.92105263157895,-103.33333333333333,79.93421052631578,-100,63.94736842105263" style="stroke: rgb(255, 127, 14); stroke-width: 2; fill: none;"/><path class="linegg timeline hgroup_1" d="M-100,63.94736842105263C-93.33333333333333,63.94736842105263,-86.66666666666667,63.94736842105263,-80,63.94736842105263C-73.33333333333333,63.94736842105263,-66.66666666666667,63.94736842105263,-60,63.94736842105263C-53.333333333333336,63.94736842105263,-46.666666666666664,63.94736842105263,-40,63.94736842105263C-33.333333333333336,63.94736842105263,-26.666666666666668,63.94736842105263,-20,63.94736842105263C-16.666666666666668,63.94736842105263,-13.333333333333334,63.94736842105263,-10,63.94736842105263C-6.666666666666666,63.94736842105263,-3.3333333333333335,47.96052631578947,0,31.973684210526315" style="stroke: rgb(31, 119, 180); stroke-width: 2; fill: none;"/><path class="linegg timeline hgroup_4" d="M0,31.973684210526315Z" style="stroke: rgb(214, 39, 40); stroke-width: 2;"/></g><text class="computeSig_label label" text-anchor="end" dx="-5" dy="0.5rem" fill="black" width="200" transform="translate(-580,95.92105263157895)">3</text></g><g class="node computeNode h4 statics" transform="translate(610,0)" style="pointer-events: auto;"><g class="computeSig" stroke="black" style="stroke-width: 2;"><path class="linegg timeline hgroup_3" d="M-580,131.44736842105263C-573.3333333333334,131.44736842105263,-566.6666666666666,131.44736842105263,-560,131.44736842105263C-553.3333333333334,131.44736842105263,-546.6666666666666,131.44736842105263,-540,131.44736842105263C-536.6666666666666,131.44736842105263,-533.3333333333334,131.44736842105263,-530,131.44736842105263C-526.6666666666666,131.44736842105263,-523.3333333333334,117.23684210526315,-520,103.02631578947368" style="stroke: rgb(44, 160, 44); stroke-width: 2; fill: none;"/><path class="linegg timeline hgroup_2" d="M-520,103.02631578947368C-513.3333333333334,103.02631578947368,-506.6666666666667,103.02631578947368,-500,103.02631578947368C-493.3333333333333,103.02631578947368,-486.6666666666667,103.02631578947368,-480,103.02631578947368C-473.3333333333333,103.02631578947368,-466.6666666666667,103.02631578947368,-460,103.02631578947368C-453.3333333333333,103.02631578947368,-446.6666666666667,103.02631578947368,-440,103.02631578947368C-433.3333333333333,103.02631578947368,-426.6666666666667,103.02631578947368,-420,103.02631578947368C-413.3333333333333,103.02631578947368,-406.6666666666667,103.02631578947368,-400,103.02631578947368C-396.6666666666667,103.02631578947368,-393.3333333333333,103.02631578947368,-390,103.02631578947368C-386.6666666666667,103.02631578947368,-383.3333333333333,117.23684210526315,-380,131.44736842105263" style="stroke: rgb(255, 127, 14); stroke-width: 2; fill: none;"/><path class="linegg timeline hgroup_3" d="M-380,131.44736842105263C-373.3333333333333,131.44736842105263,-366.6666666666667,131.44736842105263,-360,131.44736842105263C-356.6666666666667,131.44736842105263,-353.3333333333333,131.44736842105263,-350,131.44736842105263C-346.6666666666667,131.44736842105263,-343.3333333333333,117.23684210526315,-340,103.02631578947368" style="stroke: rgb(44, 160, 44); stroke-width: 2; fill: none;"/><path class="linegg timeline hgroup_2" d="M-340,103.02631578947368C-333.3333333333333,103.02631578947368,-326.6666666666667,103.02631578947368,-320,103.02631578947368C-313.3333333333333,103.02631578947368,-306.6666666666667,103.02631578947368,-300,103.02631578947368C-293.3333333333333,103.02631578947368,-286.6666666666667,103.02631578947368,-280,103.02631578947368C-276.6666666666667,103.02631578947368,-273.3333333333333,103.02631578947368,-270,103.02631578947368C-266.6666666666667,103.02631578947368,-263.3333333333333,117.23684210526315,-260,131.44736842105263" style="stroke: rgb(255, 127, 14); stroke-width: 2; fill: none;"/><path class="linegg timeline hgroup_3" d="M-260,131.44736842105263C-253.33333333333334,131.44736842105263,-246.66666666666666,131.44736842105263,-240,131.44736842105263C-233.33333333333334,131.44736842105263,-226.66666666666666,131.44736842105263,-220,131.44736842105263C-213.33333333333334,131.44736842105263,-206.66666666666666,131.44736842105263,-200,131.44736842105263C-193.33333333333334,131.44736842105263,-186.66666666666666,131.44736842105263,-180,131.44736842105263C-173.33333333333334,131.44736842105263,-166.66666666666666,131.44736842105263,-160,131.44736842105263C-153.33333333333334,131.44736842105263,-146.66666666666666,131.44736842105263,-140,131.44736842105263C-133.33333333333334,131.44736842105263,-126.66666666666667,131.44736842105263,-120,131.44736842105263C-116.66666666666667,131.44736842105263,-113.33333333333333,131.44736842105263,-110,131.44736842105263C-106.66666666666667,131.44736842105263,-103.33333333333333,117.23684210526315,-100,103.02631578947368" style="stroke: rgb(44, 160, 44); stroke-width: 2; fill: none;"/><path class="linegg timeline hgroup_2" d="M-100,103.02631578947368C-93.33333333333333,103.02631578947368,-86.66666666666667,103.02631578947368,-80,103.02631578947368C-73.33333333333333,103.02631578947368,-66.66666666666667,103.02631578947368,-60,103.02631578947368C-53.333333333333336,103.02631578947368,-46.666666666666664,103.02631578947368,-40,103.02631578947368C-33.333333333333336,103.02631578947368,-26.666666666666668,103.02631578947368,-20,103.02631578947368C-16.666666666666668,103.02631578947368,-13.333333333333334,103.02631578947368,-10,103.02631578947368C-6.666666666666666,103.02631578947368,-3.3333333333333335,87.03947368421052,0,71.05263157894737" style="stroke: rgb(255, 127, 14); stroke-width: 2; fill: none;"/><path class="linegg timeline hgroup_1" d="M0,71.05263157894737Z" style="stroke: rgb(31, 119, 180); stroke-width: 2;"/></g><text class="computeSig_label label" text-anchor="end" dx="-5" dy="0.5rem" fill="black" width="200" transform="translate(-580,131.44736842105263)">4</text></g><g class="node computeNode h5 statics" transform="translate(610,0)" style="pointer-events: auto;"><g class="computeSig" stroke="black" style="stroke-width: 2;"><path class="linegg timeline hgroup_1" d="M-580,67.5C-576.6666666666666,67.5,-573.3333333333334,67.5,-570,67.5C-566.6666666666666,67.5,-563.3333333333334,97.69736842105263,-560,127.89473684210526" style="stroke: rgb(31, 119, 180); stroke-width: 2;"/><path class="linegg timeline hgroup_3" d="M-560,127.89473684210526C-553.3333333333334,127.89473684210526,-546.6666666666666,127.89473684210526,-540,127.89473684210526C-533.3333333333334,127.89473684210526,-526.6666666666666,127.89473684210526,-520,127.89473684210526C-513.3333333333334,127.89473684210526,-506.6666666666667,127.89473684210526,-500,127.89473684210526C-493.3333333333333,127.89473684210526,-486.6666666666667,127.89473684210526,-480,127.89473684210526C-473.3333333333333,127.89473684210526,-466.6666666666667,127.89473684210526,-460,127.89473684210526C-456.6666666666667,127.89473684210526,-453.3333333333333,127.89473684210526,-450,127.89473684210526C-446.6666666666667,127.89473684210526,-443.3333333333333,97.69736842105263,-440,67.5" style="stroke: rgb(44, 160, 44); stroke-width: 2; fill: none;"/><path class="linegg timeline hgroup_1" d="M-440,67.5C-433.3333333333333,67.5,-426.6666666666667,67.5,-420,67.5C-413.3333333333333,67.5,-406.6666666666667,67.5,-400,67.5C-393.3333333333333,67.5,-386.6666666666667,67.5,-380,67.5C-373.3333333333333,67.5,-366.6666666666667,67.5,-360,67.5C-353.3333333333333,67.5,-346.6666666666667,67.5,-340,67.5C-336.6666666666667,67.5,-333.3333333333333,67.5,-330,67.5C-326.6666666666667,67.5,-323.3333333333333,83.48684210526315,-320,99.47368421052632" style="stroke: rgb(31, 119, 180); stroke-width: 2; fill: none;"/><path class="linegg timeline hgroup_2" d="M-320,99.47368421052632C-313.3333333333333,99.47368421052632,-306.6666666666667,99.47368421052632,-300,99.47368421052632C-293.3333333333333,99.47368421052632,-286.6666666666667,99.47368421052632,-280,99.47368421052632C-276.6666666666667,99.47368421052632,-273.3333333333333,99.47368421052632,-270,99.47368421052632C-266.6666666666667,99.47368421052632,-263.3333333333333,83.48684210526315,-260,67.5" style="stroke: rgb(255, 127, 14); stroke-width: 2; fill: none;"/><path class="linegg timeline hgroup_1" d="M-260,67.5C-253.33333333333334,67.5,-246.66666666666666,67.5,-240,67.5C-233.33333333333334,67.5,-226.66666666666666,67.5,-220,67.5C-213.33333333333334,67.5,-206.66666666666666,67.5,-200,67.5C-196.66666666666666,67.5,-193.33333333333334,67.5,-190,67.5C-186.66666666666666,67.5,-183.33333333333334,51.51315789473684,-180,35.526315789473685" style="stroke: rgb(31, 119, 180); stroke-width: 2; fill: none;"/><path class="linegg timeline hgroup_4" d="M-180,35.526315789473685C-176.66666666666666,35.526315789473685,-173.33333333333334,35.526315789473685,-170,35.526315789473685C-166.66666666666666,35.526315789473685,-163.33333333333334,81.71052631578948,-160,127.89473684210526" style="stroke: rgb(214, 39, 40); stroke-width: 2;"/><path class="linegg timeline hgroup_3" d="M-160,127.89473684210526C-153.33333333333334,127.89473684210526,-146.66666666666666,127.89473684210526,-140,127.89473684210526C-133.33333333333334,127.89473684210526,-126.66666666666667,127.89473684210526,-120,127.89473684210526C-113.33333333333333,127.89473684210526,-106.66666666666667,127.89473684210526,-100,127.89473684210526C-93.33333333333333,127.89473684210526,-86.66666666666667,127.89473684210526,-80,127.89473684210526C-73.33333333333333,127.89473684210526,-66.66666666666667,127.89473684210526,-60,127.89473684210526C-53.333333333333336,127.89473684210526,-46.666666666666664,127.89473684210526,-40,127.89473684210526C-33.333333333333336,127.89473684210526,-26.666666666666668,127.89473684210526,-20,127.89473684210526C-13.333333333333332,127.89473684210526,-6.666666666666667,127.89473684210526,0,127.89473684210526" style="stroke: rgb(44, 160, 44); stroke-width: 2; fill: none;"/></g><text class="computeSig_label label" text-anchor="end" dx="-5" dy="0.5rem" fill="black" width="200" transform="translate(-580,67.5)">5</text></g><g class="node computeNode h6 statics" transform="translate(610,0)" style="pointer-events: auto;"><g class="computeSig" stroke="black" style="stroke-width: 2;"><path class="linegg timeline hgroup_4" d="M-580,28.421052631578945C-573.3333333333334,28.421052631578945,-566.6666666666666,28.421052631578945,-560,28.421052631578945C-553.3333333333334,28.421052631578945,-546.6666666666666,28.421052631578945,-540,28.421052631578945C-533.3333333333334,28.421052631578945,-526.6666666666666,28.421052631578945,-520,28.421052631578945C-516.6666666666666,28.421052631578945,-513.3333333333334,28.421052631578945,-510,28.421052631578945C-506.6666666666667,28.421052631578945,-503.3333333333333,72.82894736842104,-500,117.23684210526316" style="stroke: rgb(214, 39, 40); stroke-width: 2; fill: none;"/><path class="linegg timeline hgroup_3" d="M-500,117.23684210526316C-493.3333333333333,117.23684210526316,-486.6666666666667,117.23684210526316,-480,117.23684210526316C-473.3333333333333,117.23684210526316,-466.6666666666667,117.23684210526316,-460,117.23684210526316C-453.3333333333333,117.23684210526316,-446.6666666666667,117.23684210526316,-440,117.23684210526316C-433.3333333333333,117.23684210526316,-426.6666666666667,117.23684210526316,-420,117.23684210526316C-413.3333333333333,117.23684210526316,-406.6666666666667,117.23684210526316,-400,117.23684210526316C-396.6666666666667,117.23684210526316,-393.3333333333333,117.23684210526316,-390,117.23684210526316C-386.6666666666667,117.23684210526316,-383.3333333333333,103.0263157894737,-380,88.81578947368422" style="stroke: rgb(44, 160, 44); stroke-width: 2; fill: none;"/><path class="linegg timeline hgroup_2" d="M-380,88.81578947368422C-373.3333333333333,88.81578947368422,-366.6666666666667,88.81578947368422,-360,88.81578947368422C-356.6666666666667,88.81578947368422,-353.3333333333333,88.81578947368422,-350,88.81578947368422C-346.6666666666667,88.81578947368422,-343.3333333333333,72.82894736842105,-340,56.84210526315789" style="stroke: rgb(255, 127, 14); stroke-width: 2; fill: none;"/><path class="linegg timeline hgroup_1" d="M-340,56.84210526315789C-333.3333333333333,56.84210526315789,-326.6666666666667,56.84210526315789,-320,56.84210526315789C-313.3333333333333,56.84210526315789,-306.6666666666667,56.84210526315789,-300,56.84210526315789C-293.3333333333333,56.84210526315789,-286.6666666666667,56.84210526315789,-280,56.84210526315789C-273.3333333333333,56.84210526315789,-266.6666666666667,56.84210526315789,-260,56.84210526315789C-253.33333333333334,56.84210526315789,-246.66666666666666,56.84210526315789,-240,56.84210526315789C-233.33333333333334,56.84210526315789,-226.66666666666666,56.84210526315789,-220,56.84210526315789C-213.33333333333334,56.84210526315789,-206.66666666666666,56.84210526315789,-200,56.84210526315789C-193.33333333333334,56.84210526315789,-186.66666666666666,56.84210526315789,-180,56.84210526315789C-176.66666666666666,56.84210526315789,-173.33333333333334,56.84210526315789,-170,56.84210526315789C-166.66666666666666,56.84210526315789,-163.33333333333334,72.82894736842105,-160,88.81578947368422" style="stroke: rgb(31, 119, 180); stroke-width: 2; fill: none;"/><path class="linegg timeline hgroup_2" d="M-160,88.81578947368422C-153.33333333333334,88.81578947368422,-146.66666666666666,88.81578947368422,-140,88.81578947368422C-136.66666666666666,88.81578947368422,-133.33333333333334,88.81578947368422,-130,88.81578947368422C-126.66666666666667,88.81578947368422,-123.33333333333333,103.0263157894737,-120,117.23684210526316" style="stroke: rgb(255, 127, 14); stroke-width: 2; fill: none;"/><path class="linegg timeline hgroup_3" d="M-120,117.23684210526316C-113.33333333333333,117.23684210526316,-106.66666666666667,117.23684210526316,-100,117.23684210526316C-93.33333333333333,117.23684210526316,-86.66666666666667,117.23684210526316,-80,117.23684210526316C-73.33333333333333,117.23684210526316,-66.66666666666667,117.23684210526316,-60,117.23684210526316C-53.333333333333336,117.23684210526316,-46.666666666666664,117.23684210526316,-40,117.23684210526316C-36.666666666666664,117.23684210526316,-33.333333333333336,117.23684210526316,-30,117.23684210526316C-26.666666666666668,117.23684210526316,-23.333333333333332,63.94736842105264,-20,10.657894736842104" style="stroke: rgb(44, 160, 44); stroke-width: 2; fill: none;"/><path class="linegg timeline hgroup_5" d="M-20,10.657894736842104C-16.666666666666668,10.657894736842104,-13.333333333333334,10.657894736842104,-10,10.657894736842104C-6.666666666666666,10.657894736842104,-3.3333333333333335,19.53947368421052,0,28.421052631578945" style="stroke: rgb(148, 103, 189); stroke-width: 2;"/><path class="linegg timeline hgroup_4" d="M0,28.421052631578945Z" style="stroke: rgb(214, 39, 40); stroke-width: 2;"/></g><text class="computeSig_label label" text-anchor="end" dx="-5" dy="0.5rem" fill="black" width="200" transform="translate(-580,28.421052631578945)">6</text></g><g class="node computeNode h7 statics" transform="translate(610,0)" style="pointer-events: auto;"><g class="computeSig" stroke="black" style="stroke-width: 2;"><path class="linegg timeline hgroup_4" d="M-580,21.315789473684205C-573.3333333333334,21.315789473684205,-566.6666666666666,21.31578947368421,-560,21.31578947368421C-556.6666666666666,21.31578947368421,-553.3333333333334,21.31578947368421,-550,21.31578947368421C-546.6666666666666,21.31578947368421,-543.3333333333334,65.7236842105263,-540,110.13157894736842" style="stroke: rgb(214, 39, 40); stroke-width: 2; fill: none;"/><path class="linegg timeline hgroup_3" d="M-540,110.13157894736842C-533.3333333333334,110.13157894736842,-526.6666666666666,110.13157894736842,-520,110.13157894736842C-513.3333333333334,110.13157894736842,-506.6666666666667,110.13157894736842,-500,110.13157894736842C-496.6666666666667,110.13157894736842,-493.3333333333333,110.13157894736842,-490,110.13157894736842C-486.6666666666667,110.13157894736842,-483.3333333333333,95.92105263157896,-480,81.71052631578948" style="stroke: rgb(44, 160, 44); stroke-width: 2; fill: none;"/><path class="linegg timeline hgroup_2" d="M-480,81.71052631578948C-473.3333333333333,81.71052631578948,-466.6666666666667,81.71052631578948,-460,81.71052631578948C-453.3333333333333,81.71052631578948,-446.6666666666667,81.71052631578948,-440,81.71052631578948C-436.6666666666667,81.71052631578948,-433.3333333333333,81.71052631578948,-430,81.71052631578948C-426.6666666666667,81.71052631578948,-423.3333333333333,63.94736842105263,-420,46.18421052631579" style="stroke: rgb(255, 127, 14); stroke-width: 2; fill: none;"/><path class="linegg timeline hgroup_1" d="M-420,46.18421052631579C-413.3333333333333,46.18421052631579,-406.6666666666667,46.18421052631579,-400,46.18421052631579C-393.3333333333333,46.18421052631579,-386.6666666666667,46.18421052631579,-380,46.18421052631579C-373.3333333333333,46.18421052631579,-366.6666666666667,46.18421052631579,-360,46.18421052631579C-353.3333333333333,46.18421052631579,-346.6666666666667,46.18421052631579,-340,46.18421052631579C-333.3333333333333,46.18421052631579,-326.6666666666667,46.18421052631579,-320,46.18421052631579C-313.3333333333333,46.18421052631579,-306.6666666666667,46.18421052631579,-300,46.18421052631579C-293.3333333333333,46.18421052631579,-286.6666666666667,46.18421052631579,-280,46.18421052631579C-273.3333333333333,46.18421052631579,-266.6666666666667,46.18421052631579,-260,46.18421052631579C-256.6666666666667,46.18421052631579,-253.33333333333334,46.18421052631579,-250,46.18421052631579C-246.66666666666666,46.18421052631579,-243.33333333333334,63.94736842105263,-240,81.71052631578948" style="stroke: rgb(31, 119, 180); stroke-width: 2; fill: none;"/><path class="linegg timeline hgroup_2" d="M-240,81.71052631578948C-233.33333333333334,81.71052631578948,-226.66666666666666,81.71052631578948,-220,81.71052631578948C-213.33333333333334,81.71052631578948,-206.66666666666666,81.71052631578948,-200,81.71052631578948C-193.33333333333334,81.71052631578948,-186.66666666666666,81.71052631578948,-180,81.71052631578948C-176.66666666666666,81.71052631578948,-173.33333333333334,81.71052631578948,-170,81.71052631578948C-166.66666666666666,81.71052631578948,-163.33333333333334,63.94736842105263,-160,46.18421052631579" style="stroke: rgb(255, 127, 14); stroke-width: 2; fill: none;"/><path class="linegg timeline hgroup_1" d="M-160,46.18421052631579C-156.66666666666666,46.18421052631579,-153.33333333333334,46.18421052631579,-150,46.18421052631579C-146.66666666666666,46.18421052631579,-143.33333333333334,24.868421052631575,-140,3.552631578947368" style="stroke: rgb(31, 119, 180); stroke-width: 2;"/><path class="linegg timeline hgroup_5" d="M-140,3.55263157894737C-133.33333333333334,3.55263157894737,-126.66666666666667,3.55263157894737,-120,3.55263157894737C-113.33333333333333,3.55263157894737,-106.66666666666667,3.55263157894737,-100,3.55263157894737C-93.33333333333333,3.55263157894737,-86.66666666666667,3.55263157894737,-80,3.55263157894737C-73.33333333333333,3.55263157894737,-66.66666666666667,3.55263157894737,-60,3.55263157894737C-53.333333333333336,3.55263157894737,-46.666666666666664,3.55263157894737,-40,3.55263157894737C-36.666666666666664,3.552631578947368,-33.333333333333336,3.552631578947368,-30,3.552631578947368C-26.666666666666668,3.552631578947368,-23.333333333333332,12.434210526315786,-20,21.31578947368421" style="stroke: rgb(148, 103, 189); stroke-width: 2; fill: none;"/><path class="linegg timeline hgroup_4" d="M-20,21.315789473684205L0,21.315789473684205" style="stroke: rgb(214, 39, 40); stroke-width: 2; fill: none;"/></g><text class="computeSig_label label" text-anchor="end" dx="-5" dy="0.5rem" fill="black" width="200" transform="translate(-580,21.31578947368421)">7</text></g><g class="node computeNode h8 statics" transform="translate(610,0)" style="pointer-events: auto;"><g class="computeSig" stroke="black" style="stroke-width: 2;"><path class="linegg timeline hgroup_4" d="M-580,24.868421052631575C-573.3333333333334,24.868421052631575,-566.6666666666666,24.868421052631575,-560,24.868421052631575C-553.3333333333334,24.868421052631575,-546.6666666666666,24.868421052631575,-540,24.868421052631575C-533.3333333333334,24.868421052631575,-526.6666666666666,24.868421052631575,-520,24.868421052631575C-513.3333333333334,24.868421052631575,-506.6666666666667,24.868421052631575,-500,24.868421052631575C-493.3333333333333,24.868421052631575,-486.6666666666667,24.868421052631575,-480,24.868421052631575C-476.6666666666667,24.86842105263158,-473.3333333333333,24.86842105263158,-470,24.86842105263158C-466.6666666666667,24.86842105263158,-463.3333333333333,55.065789473684205,-460,85.26315789473684" style="stroke: rgb(214, 39, 40); stroke-width: 2; fill: none;"/><path class="linegg timeline hgroup_2" d="M-460,85.26315789473684C-456.6666666666667,85.26315789473684,-453.3333333333333,85.26315789473684,-450,85.26315789473684C-446.6666666666667,85.26315789473684,-443.3333333333333,67.5,-440,49.73684210526316" style="stroke: rgb(255, 127, 14); stroke-width: 2;"/><path class="linegg timeline hgroup_1" d="M-440,49.73684210526316C-433.3333333333333,49.73684210526316,-426.6666666666667,49.73684210526316,-420,49.73684210526316C-416.6666666666667,49.73684210526316,-413.3333333333333,49.73684210526316,-410,49.73684210526316C-406.6666666666667,49.73684210526316,-403.3333333333333,81.71052631578947,-400,113.68421052631578" style="stroke: rgb(31, 119, 180); stroke-width: 2; fill: none;"/><path class="linegg timeline hgroup_3" d="M-400,113.68421052631578C-393.3333333333333,113.68421052631578,-386.6666666666667,113.68421052631578,-380,113.68421052631578C-373.3333333333333,113.68421052631578,-366.6666666666667,113.68421052631578,-360,113.68421052631578C-353.3333333333333,113.68421052631578,-346.6666666666667,113.68421052631578,-340,113.68421052631578C-333.3333333333333,113.68421052631578,-326.6666666666667,113.68421052631578,-320,113.68421052631578C-313.3333333333333,113.68421052631578,-306.6666666666667,113.68421052631578,-300,113.68421052631578C-296.6666666666667,113.68421052631578,-293.3333333333333,113.68421052631578,-290,113.68421052631578C-286.6666666666667,113.68421052631578,-283.3333333333333,69.27631578947368,-280,24.86842105263158" style="stroke: rgb(44, 160, 44); stroke-width: 2; fill: none;"/><path class="linegg timeline hgroup_4" d="M-280,24.868421052631575C-273.3333333333333,24.868421052631575,-266.6666666666667,24.86842105263158,-260,24.86842105263158C-256.6666666666667,24.86842105263158,-253.33333333333334,24.86842105263158,-250,24.86842105263158C-246.66666666666666,24.86842105263158,-243.33333333333334,15.98684210526316,-240,7.105263157894736" style="stroke: rgb(214, 39, 40); stroke-width: 2; fill: none;"/><path class="linegg timeline hgroup_5" d="M-240,7.10526315789474C-233.33333333333334,7.10526315789474,-226.66666666666666,7.10526315789474,-220,7.10526315789474C-213.33333333333334,7.10526315789474,-206.66666666666666,7.10526315789474,-200,7.10526315789474C-193.33333333333334,7.10526315789474,-186.66666666666666,7.10526315789474,-180,7.10526315789474C-173.33333333333334,7.10526315789474,-166.66666666666666,7.10526315789474,-160,7.10526315789474C-153.33333333333334,7.10526315789474,-146.66666666666666,7.10526315789474,-140,7.10526315789474C-133.33333333333334,7.10526315789474,-126.66666666666667,7.10526315789474,-120,7.10526315789474C-113.33333333333333,7.10526315789474,-106.66666666666667,7.10526315789474,-100,7.10526315789474C-96.66666666666667,7.105263157894736,-93.33333333333333,7.105263157894736,-90,7.105263157894736C-86.66666666666667,7.105263157894736,-83.33333333333333,60.39473684210526,-80,113.68421052631578" style="stroke: rgb(148, 103, 189); stroke-width: 2; fill: none;"/><path class="linegg timeline hgroup_3" d="M-80,113.68421052631578C-73.33333333333333,113.68421052631578,-66.66666666666667,113.68421052631578,-60,113.68421052631578C-53.333333333333336,113.68421052631578,-46.666666666666664,113.68421052631578,-40,113.68421052631578C-33.333333333333336,113.68421052631578,-26.666666666666668,113.68421052631578,-20,113.68421052631578C-16.666666666666668,113.68421052631578,-13.333333333333334,113.68421052631578,-10,113.68421052631578C-6.666666666666666,113.68421052631578,-3.3333333333333335,81.71052631578948,0,49.73684210526316" style="stroke: rgb(44, 160, 44); stroke-width: 2; fill: none;"/><path class="linegg timeline hgroup_1" d="M0,49.73684210526316Z" style="stroke: rgb(31, 119, 180); stroke-width: 2;"/></g><text class="computeSig_label label" text-anchor="end" dx="-5" dy="0.5rem" fill="black" width="200" transform="translate(-580,24.86842105263158)">8</text></g><g class="node computeNode h9 statics" transform="translate(610,0)" style="pointer-events: auto;"><g class="computeSig" stroke="black" style="stroke-width: 2;"><path class="linegg timeline hgroup_2" d="M-580,78.15789473684211C-573.3333333333334,78.15789473684211,-566.6666666666666,78.15789473684211,-560,78.15789473684211C-553.3333333333334,78.15789473684211,-546.6666666666666,78.15789473684211,-540,78.15789473684211C-533.3333333333334,78.15789473684211,-526.6666666666666,78.15789473684211,-520,78.15789473684211C-513.3333333333334,78.15789473684211,-506.6666666666667,78.15789473684211,-500,78.15789473684211C-496.6666666666667,78.15789473684211,-493.3333333333333,78.15789473684211,-490,78.15789473684211C-486.6666666666667,78.15789473684211,-483.3333333333333,60.39473684210526,-480,42.63157894736842" style="stroke: rgb(255, 127, 14); stroke-width: 2; fill: none;"/><path class="linegg timeline hgroup_1" d="M-480,42.63157894736841C-473.3333333333333,42.63157894736841,-466.6666666666667,42.63157894736841,-460,42.63157894736841C-453.3333333333333,42.63157894736841,-446.6666666666667,42.63157894736841,-440,42.63157894736841C-433.3333333333333,42.63157894736841,-426.6666666666667,42.63157894736841,-420,42.63157894736841C-413.3333333333333,42.63157894736841,-406.6666666666667,42.63157894736841,-400,42.63157894736841C-393.3333333333333,42.63157894736841,-386.6666666666667,42.63157894736841,-380,42.63157894736841C-373.3333333333333,42.63157894736841,-366.6666666666667,42.63157894736841,-360,42.63157894736841C-353.3333333333333,42.63157894736841,-346.6666666666667,42.63157894736841,-340,42.63157894736841C-333.3333333333333,42.63157894736841,-326.6666666666667,42.63157894736841,-320,42.63157894736841C-316.6666666666667,42.63157894736842,-313.3333333333333,42.63157894736842,-310,42.63157894736842C-306.6666666666667,42.63157894736842,-303.3333333333333,30.19736842105263,-300,17.763157894736842" style="stroke: rgb(31, 119, 180); stroke-width: 2; fill: none;"/><path class="linegg timeline hgroup_4" d="M-300,17.76315789473685C-293.3333333333333,17.76315789473685,-286.6666666666667,17.76315789473685,-280,17.76315789473685C-273.3333333333333,17.76315789473685,-266.6666666666667,17.76315789473685,-260,17.76315789473685C-253.33333333333334,17.76315789473685,-246.66666666666666,17.76315789473685,-240,17.76315789473685C-233.33333333333334,17.76315789473685,-226.66666666666666,17.76315789473685,-220,17.76315789473685C-213.33333333333334,17.76315789473685,-206.66666666666666,17.76315789473685,-200,17.76315789473685C-193.33333333333334,17.76315789473685,-186.66666666666666,17.76315789473685,-180,17.76315789473685C-173.33333333333334,17.76315789473685,-166.66666666666666,17.76315789473685,-160,17.76315789473685C-153.33333333333334,17.76315789473685,-146.66666666666666,17.76315789473685,-140,17.76315789473685C-133.33333333333334,17.76315789473685,-126.66666666666667,17.76315789473685,-120,17.76315789473685C-113.33333333333333,17.76315789473685,-106.66666666666667,17.76315789473685,-100,17.76315789473685C-93.33333333333333,17.76315789473685,-86.66666666666667,17.76315789473685,-80,17.76315789473685C-73.33333333333333,17.76315789473685,-66.66666666666667,17.76315789473685,-60,17.76315789473685C-53.333333333333336,17.76315789473685,-46.666666666666664,17.76315789473685,-40,17.76315789473685C-33.333333333333336,17.76315789473685,-26.666666666666668,17.76315789473685,-20,17.76315789473685C-13.333333333333332,17.76315789473685,-6.666666666666667,17.76315789473685,0,17.76315789473685" style="stroke: rgb(214, 39, 40); stroke-width: 2; fill: none;"/></g><text class="computeSig_label label" text-anchor="end" dx="-5" dy="0.5rem" fill="black" width="200" transform="translate(-580,78.15789473684211)">9</text></g><g class="node computeNode h10 statics" transform="translate(610,0)" style="pointer-events: auto;"><g class="computeSig" stroke="black" style="stroke-width: 2;"><path class="linegg timeline hgroup_3" d="M-580,135C-573.3333333333334,135,-566.6666666666666,135,-560,135C-553.3333333333334,135,-546.6666666666666,135,-540,135C-533.3333333333334,135,-526.6666666666666,135,-520,135C-513.3333333333334,135,-506.6666666666667,135,-500,135C-493.3333333333333,135,-486.6666666666667,135,-480,135C-473.3333333333333,135,-466.6666666666667,135,-460,135C-453.3333333333333,135,-446.6666666666667,135,-440,135C-433.3333333333333,135,-426.6666666666667,135,-420,135C-413.3333333333333,135,-406.6666666666667,135,-400,135C-393.3333333333333,135,-386.6666666666667,135,-380,135C-373.3333333333333,135,-366.6666666666667,135,-360,135C-353.3333333333333,135,-346.6666666666667,135,-340,135C-333.3333333333333,135,-326.6666666666667,135,-320,135C-313.3333333333333,135,-306.6666666666667,135,-300,135C-293.3333333333333,135,-286.6666666666667,135,-280,135C-273.3333333333333,135,-266.6666666666667,135,-260,135C-253.33333333333334,135,-246.66666666666666,135,-240,135C-233.33333333333334,135,-226.66666666666666,135,-220,135C-213.33333333333334,135,-206.66666666666666,135,-200,135C-193.33333333333334,135,-186.66666666666666,135,-180,135C-173.33333333333334,135,-166.66666666666666,135,-160,135C-153.33333333333334,135,-146.66666666666666,135,-140,135C-133.33333333333334,135,-126.66666666666667,135,-120,135C-113.33333333333333,135,-106.66666666666667,135,-100,135C-93.33333333333333,135,-86.66666666666667,135,-80,135C-73.33333333333333,135,-66.66666666666667,135,-60,135C-53.333333333333336,135,-46.666666666666664,135,-40,135C-33.333333333333336,135,-26.666666666666668,135,-20,135C-13.333333333333332,135,-6.666666666666667,135,0,135" style="stroke: rgb(44, 160, 44); stroke-width: 2; fill: none;"/></g><text class="computeSig_label label" text-anchor="end" dx="-5" dy="0.5rem" fill="black" width="200" transform="translate(-580,135)">10</text></g></g><rect class="fisheyeLayer" style="opacity: 0; pointer-events: none;" width="580" height="180" transform="translate(-280,0)"/><g class="table header" transform="translate(600,0)"><g class="back"><path style="fill: rgb(221, 221, 221);"/></g></g></g><g class="timebox hide" transform="translate(40,20)" dy="1rem" style="font-size: 16px;"/><circle id="tipfollowscursor"/></svg>