<svg id="jobmap" width="1100" height="250" style="fill: none; font-size: 10px; font-family: sans-serif;" xmlns="http://www.w3.org/2000/svg" xmlns:xlink="http://www.w3.org/1999/xlink">

                    <defs id="defsmain"><pattern id="userpic" width="100%" height="100%" patternContentUnits="objectBoundingBox"><image height="1" width="1" preserveAspectRatio="none" xmlns:xlink="http://www.w3.org/1999/xlink" xlink:href="src/images/u.png"/></pattern><marker id="arrow" markerWidth="10" markerHeight="10" refX="0" refY="3" orient="auto" markerUnits="strokeWidth"><path d="M0,0 L0,6 L9,3 z" style="fill: black;"/></marker></defs><rect class="pantarget" opacity="0" width="1336" height="762"/><g class="pannel" transform="translate(50,50)"><text class="Time" text-anchor="middle" x="40" dy="-30" style="font-weight: bold; fill: black;">Time</text><line x1="60" x2="95" y1="-33" y2="-33" marker-end="url(#arrow)" style="stroke: black;"/><text class="Time" text-anchor="middle" x="-5" dy="-1rem" style="font-weight: bold; fill: black;">Instance</text><line x1="5" x2="5" y1="-5" y2="30" marker-end="url(#arrow)" style="stroke: black;"/><g class="gNodeaxis" transform="translate(1010,-10)"><g class="gMainaxis" fill="none" font-size="10" font-family="sans-serif" text-anchor="middle"><g class="tick" opacity="1" transform="translate(-980, 0)"><line stroke="#000" y2="145" vector-effect="non-scaling-stroke" style="stroke-width: 0.1; stroke: black; stroke-dasharray: 1, 2; opacity: 0.5;"/><text fill="#000" y="-3" dy="-0.5rem">1</text></g><g class="tick" opacity="1" transform="translate(-960, 0)"><line stroke="#000" y2="145" vector-effect="non-scaling-stroke" style="stroke-width: 0.1; stroke: black; stroke-dasharray: 1, 2; opacity: 0.5;"/><text fill="#000" y="-3" dy="-0.5rem">2</text></g><g class="tick" opacity="1" transform="translate(-940, 0)"><line stroke="#000" y2="145" vector-effect="non-scaling-stroke" style="stroke-width: 0.1; stroke: black; stroke-dasharray: 1, 2; opacity: 0.5;"/><text fill="#000" y="-3" dy="-0.5rem">3</text></g><g class="tick" opacity="1" transform="translate(-920, 0)"><line stroke="#000" y2="145" vector-effect="non-scaling-stroke" style="stroke-width: 0.1; stroke: black; stroke-dasharray: 1, 2; opacity: 0.5;"/><text fill="#000" y="-3" dy="-0.5rem">4</text></g><g class="tick" opacity="1" transform="translate(-900, 0)"><line stroke="#000" y2="145" vector-effect="non-scaling-stroke" style="stroke-width: 0.1; stroke: black; stroke-dasharray: 1, 2; opacity: 0.5;"/><text fill="#000" y="-3" dy="-0.5rem">5</text></g><g class="tick" opacity="1" transform="translate(-880, 0)"><line stroke="#000" y2="145" vector-effect="non-scaling-stroke" style="stroke-width: 0.1; stroke: black; stroke-dasharray: 1, 2; opacity: 0.5;"/><text fill="#000" y="-3" dy="-0.5rem">6</text></g><g class="tick" opacity="1" transform="translate(-860, 0)"><line stroke="#000" y2="145" vector-effect="non-scaling-stroke" style="stroke-width: 0.1; stroke: black; stroke-dasharray: 1, 2; opacity: 0.5;"/><text fill="#000" y="-3" dy="-0.5rem">7</text></g><g class="tick" opacity="1" transform="translate(-840, 0)"><line stroke="#000" y2="145" vector-effect="non-scaling-stroke" style="stroke-width: 0.1; stroke: black; stroke-dasharray: 1, 2; opacity: 0.5;"/><text fill="#000" y="-3" dy="-0.5rem">8</text></g><g class="tick" opacity="1" transform="translate(-820, 0)"><line stroke="#000" y2="145" vector-effect="non-scaling-stroke" style="stroke-width: 0.1; stroke: black; stroke-dasharray: 1, 2; opacity: 0.5;"/><text fill="#000" y="-3" dy="-0.5rem">9</text></g><g class="tick" opacity="1" transform="translate(-800, 0)"><line stroke="#000" y2="145" vector-effect="non-scaling-stroke" style="stroke-width: 0.1; stroke: black; stroke-dasharray: 1, 2; opacity: 0.5;"/><text fill="#000" y="-3" dy="-0.5rem">10</text></g><g class="tick" opacity="1" transform="translate(-780, 0)"><line stroke="#000" y2="145" vector-effect="non-scaling-stroke" style="stroke-width: 0.1; stroke: black; stroke-dasharray: 1, 2; opacity: 0.5;"/><text fill="#000" y="-3" dy="-0.5rem">11</text></g><g class="tick" opacity="1" transform="translate(-760, 0)"><line stroke="#000" y2="145" vector-effect="non-scaling-stroke" style="stroke-width: 0.1; stroke: black; stroke-dasharray: 1, 2; opacity: 0.5;"/><text fill="#000" y="-3" dy="-0.5rem">12</text></g><g class="tick" opacity="1" transform="translate(-740, 0)"><line stroke="#000" y2="145" vector-effect="non-scaling-stroke" style="stroke-width: 0.1; stroke: black; stroke-dasharray: 1, 2; opacity: 0.5;"/><text fill="#000" y="-3" dy="-0.5rem">13</text></g><g class="tick" opacity="1" transform="translate(-720, 0)"><line stroke="#000" y2="145" vector-effect="non-scaling-stroke" style="stroke-width: 0.1; stroke: black; stroke-dasharray: 1, 2; opacity: 0.5;"/><text fill="#000" y="-3" dy="-0.5rem">14</text></g><g class="tick" opacity="1" transform="translate(-700, 0)"><line stroke="#000" y2="145" vector-effect="non-scaling-stroke" style="stroke-width: 0.1; stroke: black; stroke-dasharray: 1, 2; opacity: 0.5;"/><text fill="#000" y="-3" dy="-0.5rem">15</text></g><g class="tick" opacity="1" transform="translate(-680, 0)"><line stroke="#000" y2="145" vector-effect="non-scaling-stroke" style="stroke-width: 0.1; stroke: black; stroke-dasharray: 1, 2; opacity: 0.5;"/><text fill="#000" y="-3" dy="-0.5rem">16</text></g><g class="tick" opacity="1" transform="translate(-660, 0)"><line stroke="#000" y2="145" vector-effect="non-scaling-stroke" style="stroke-width: 0.1; stroke: black; stroke-dasharray: 1, 2; opacity: 0.5;"/><text fill="#000" y="-3" dy="-0.5rem">17</text></g><g class="tick" opacity="1" transform="translate(-640, 0)"><line stroke="#000" y2="145" vector-effect="non-scaling-stroke" style="stroke-width: 0.1; stroke: black; stroke-dasharray: 1, 2; opacity: 0.5;"/><text fill="#000" y="-3" dy="-0.5rem">18</text></g><g class="tick" opacity="1" transform="translate(-620, 0)"><line stroke="#000" y2="145" vector-effect="non-scaling-stroke" style="stroke-width: 0.1; stroke: black; stroke-dasharray: 1, 2; opacity: 0.5;"/><text fill="#000" y="-3" dy="-0.5rem">19</text></g><g class="tick" opacity="1" transform="translate(-600, 0)"><line stroke="#000" y2="145" vector-effect="non-scaling-stroke" style="stroke-width: 0.1; stroke: black; stroke-dasharray: 1, 2; opacity: 0.5;"/><text fill="#000" y="-3" dy="-0.5rem">20</text></g><g class="tick" opacity="1" transform="translate(-580, 0)"><line stroke="#000" y2="145" vector-effect="non-scaling-stroke" style="stroke-width: 0.1; stroke: black; stroke-dasharray: 1, 2; opacity: 0.5;"/><text fill="#000" y="-3" dy="-0.5rem">21</text></g><g class="tick" opacity="1" transform="translate(-560, 0)"><line stroke="#000" y2="145" vector-effect="non-scaling-stroke" style="stroke-width: 0.1; stroke: black; stroke-dasharray: 1, 2; opacity: 0.5;"/><text fill="#000" y="-3" dy="-0.5rem">22</text></g><g class="tick" opacity="1" transform="translate(-540, 0)"><line stroke="#000" y2="145" vector-effect="non-scaling-stroke" style="stroke-width: 0.1; stroke: black; stroke-dasharray: 1, 2; opacity: 0.5;"/><text fill="#000" y="-3" dy="-0.5rem">23</text></g><g class="tick" opacity="1" transform="translate(-520, 0)"><line stroke="#000" y2="145" vector-effect="non-scaling-stroke" style="stroke-width: 0.1; stroke: black; stroke-dasharray: 1, 2; opacity: 0.5;"/><text fill="#000" y="-3" dy="-0.5rem">24</text></g><g class="tick" opacity="1" transform="translate(-500, 0)"><line stroke="#000" y2="145" vector-effect="non-scaling-stroke" style="stroke-width: 0.1; stroke: black; stroke-dasharray: 1, 2; opacity: 0.5;"/><text fill="#000" y="-3" dy="-0.5rem">25</text></g><g class="tick" opacity="1" transform="translate(-480, 0)"><line stroke="#000" y2="145" vector-effect="non-scaling-stroke" style="stroke-width: 0.1; stroke: black; stroke-dasharray: 1, 2; opacity: 0.5;"/><text fill="#000" y="-3" dy="-0.5rem">26</text></g><g class="tick" opacity="1" transform="translate(-460, 0)"><line stroke="#000" y2="145" vector-effect="non-scaling-stroke" style="stroke-width: 0.1; stroke: black; stroke-dasharray: 1, 2; opacity: 0.5;"/><text fill="#000" y="-3" dy="-0.5rem">27</text></g><g class="tick" opacity="1" transform="translate(-440, 0)"><line stroke="#000" y2="145" vector-effect="non-scaling-stroke" style="stroke-width: 0.1; stroke: black; stroke-dasharray: 1, 2; opacity: 0.5;"/><text fill="#000" y="-3" dy="-0.5rem">28</text></g><g class="tick" opacity="1" transform="translate(-420, 0)"><line stroke="#000" y2="145" vector-effect="non-scaling-stroke" style="stroke-width: 0.1; stroke: black; stroke-dasharray: 1, 2; opacity: 0.5;"/><text fill="#000" y="-3" dy="-0.5rem">29</text></g><g class="tick" opacity="1" transform="translate(-400, 0)"><line stroke="#000" y2="145" vector-effect="non-scaling-stroke" style="stroke-width: 0.1; stroke: black; stroke-dasharray: 1, 2; opacity: 0.5;"/><text fill="#000" y="-3" dy="-0.5rem">30</text></g><g class="tick" opacity="1" transform="translate(-380, 0)"><line stroke="#000" y2="145" vector-effect="non-scaling-stroke" style="stroke-width: 0.1; stroke: black; stroke-dasharray: 1, 2; opacity: 0.5;"/><text fill="#000" y="-3" dy="-0.5rem">31</text></g><g class="tick" opacity="1" transform="translate(-360, 0)"><line stroke="#000" y2="145" vector-effect="non-scaling-stroke" style="stroke-width: 0.1; stroke: black; stroke-dasharray: 1, 2; opacity: 0.5;"/><text fill="#000" y="-3" dy="-0.5rem">32</text></g><g class="tick" opacity="1" transform="translate(-340, 0)"><line stroke="#000" y2="145" vector-effect="non-scaling-stroke" style="stroke-width: 0.1; stroke: black; stroke-dasharray: 1, 2; opacity: 0.5;"/><text fill="#000" y="-3" dy="-0.5rem">33</text></g><g class="tick" opacity="1" transform="translate(-320, 0)"><line stroke="#000" y2="145" vector-effect="non-scaling-stroke" style="stroke-width: 0.1; stroke: black; stroke-dasharray: 1, 2; opacity: 0.5;"/><text fill="#000" y="-3" dy="-0.5rem">34</text></g><g class="tick" opacity="1" transform="translate(-300, 0)"><line stroke="#000" y2="145" vector-effect="non-scaling-stroke" style="stroke-width: 0.1; stroke: black; stroke-dasharray: 1, 2; opacity: 0.5;"/><text fill="#000" y="-3" dy="-0.5rem">35</text></g><g class="tick" opacity="1" transform="translate(-280, 0)"><line stroke="#000" y2="145" vector-effect="non-scaling-stroke" style="stroke-width: 0.1; stroke: black; stroke-dasharray: 1, 2; opacity: 0.5;"/><text fill="#000" y="-3" dy="-0.5rem">36</text></g><g class="tick" opacity="1" transform="translate(-260, 0)"><line stroke="#000" y2="145" vector-effect="non-scaling-stroke" style="stroke-width: 0.1; stroke: black; stroke-dasharray: 1, 2; opacity: 0.5;"/><text fill="#000" y="-3" dy="-0.5rem">37</text></g><g class="tick" opacity="1" transform="translate(-240, 0)"><line stroke="#000" y2="145" vector-effect="non-scaling-stroke" style="stroke-width: 0.1; stroke: black; stroke-dasharray: 1, 2; opacity: 0.5;"/><text fill="#000" y="-3" dy="-0.5rem">38</text></g><g class="tick" opacity="1" transform="translate(-220, 0)"><line stroke="#000" y2="145" vector-effect="non-scaling-stroke" style="stroke-width: 0.1; stroke: black; stroke-dasharray: 1, 2; opacity: 0.5;"/><text fill="#000" y="-3" dy="-0.5rem">39</text></g><g class="tick" opacity="1" transform="translate(-200, 0)"><line stroke="#000" y2="145" vector-effect="non-scaling-stroke" style="stroke-width: 0.1; stroke: black; stroke-dasharray: 1, 2; opacity: 0.5;"/><text fill="#000" y="-3" dy="-0.5rem">40</text></g><g class="tick" opacity="1" transform="translate(-180, 0)"><line stroke="#000" y2="145" vector-effect="non-scaling-stroke" style="stroke-width: 0.1; stroke: black; stroke-dasharray: 1, 2; opacity: 0.5;"/><text fill="#000" y="-3" dy="-0.5rem">41</text></g><g class="tick" opacity="1" transform="translate(-160, 0)"><line stroke="#000" y2="145" vector-effect="non-scaling-stroke" style="stroke-width: 0.1; stroke: black; stroke-dasharray: 1, 2; opacity: 0.5;"/><text fill="#000" y="-3" dy="-0.5rem">42</text></g><g class="tick" opacity="1" transform="translate(-140, 0)"><line stroke="#000" y2="145" vector-effect="non-scaling-stroke" style="stroke-width: 0.1; stroke: black; stroke-dasharray: 1, 2; opacity: 0.5;"/><text fill="#000" y="-3" dy="-0.5rem">43</text></g><g class="tick" opacity="1" transform="translate(-120, 0)"><line stroke="#000" y2="145" vector-effect="non-scaling-stroke" style="stroke-width: 0.1; stroke: black; stroke-dasharray: 1, 2; opacity: 0.5;"/><text fill="#000" y="-3" dy="-0.5rem">44</text></g><g class="tick" opacity="1" transform="translate(-100, 0)"><line stroke="#000" y2="145" vector-effect="non-scaling-stroke" style="stroke-width: 0.1; stroke: black; stroke-dasharray: 1, 2; opacity: 0.5;"/><text fill="#000" y="-3" dy="-0.5rem">45</text></g><g class="tick" opacity="1" transform="translate(-80, 0)"><line stroke="#000" y2="145" vector-effect="non-scaling-stroke" style="stroke-width: 0.1; stroke: black; stroke-dasharray: 1, 2; opacity: 0.5;"/><text fill="#000" y="-3" dy="-0.5rem">46</text></g><g class="tick" opacity="1" transform="translate(-60, 0)"><line stroke="#000" y2="145" vector-effect="non-scaling-stroke" style="stroke-width: 0.1; stroke: black; stroke-dasharray: 1, 2; opacity: 0.5;"/><text fill="#000" y="-3" dy="-0.5rem">47</text></g><g class="tick" opacity="1" transform="translate(-40, 0)"><line stroke="#000" y2="145" vector-effect="non-scaling-stroke" style="stroke-width: 0.1; stroke: black; stroke-dasharray: 1, 2; opacity: 0.5;"/><text fill="#000" y="-3" dy="-0.5rem">48</text></g><g class="tick" opacity="1" transform="translate(-20, 0)"><line stroke="#000" y2="145" vector-effect="non-scaling-stroke" style="stroke-width: 0.1; stroke: black; stroke-dasharray: 1, 2; opacity: 0.5;"/><text fill="#000" y="-3" dy="-0.5rem">49</text></g><g class="tick" opacity="1" transform=""><line stroke="#000" y2="145" vector-effect="non-scaling-stroke" style="stroke-width: 0.1; stroke: black; stroke-dasharray: 1, 2; opacity: 0.5;"/><text fill="#000" y="-3" dy="-0.5rem">50</text></g></g><g class="gSubaxis hide"/></g><g class="annotation"/><g class="linkg"><g class="links" style="display: none;"><path stroke="black" style="stroke-width: 2;"/><text text-anchor="middle">1</text></g><g class="links" style="display: none;"><path stroke="black" style="stroke-width: 2;"/><text text-anchor="middle">1</text></g><g class="links" style="display: none;"><path stroke="black" style="stroke-width: 2;"/><text text-anchor="middle">1</text></g><g class="links" style="display: none;"><path stroke="black" style="stroke-width: 2;"/><text text-anchor="middle">1</text></g><g class="links" style="display: none;"><path stroke="black" style="stroke-width: 2;"/><text text-anchor="middle">1</text></g><g class="links" style="display: none;"><path stroke="black" style="stroke-width: 2;"/><text text-anchor="middle">1</text></g><g class="links" style="display: none;"><path stroke="black" style="stroke-width: 2;"/><text text-anchor="middle">1</text></g><g class="links" style="display: none;"><path stroke="black" style="stroke-width: 2;"/><text text-anchor="middle">1</text></g><g class="links" style="display: none;"><path stroke="black" style="stroke-width: 2;"/><text text-anchor="middle">1</text></g><g class="links" style="display: none;"><path stroke="black" style="stroke-width: 2;"/><text text-anchor="middle">1</text></g><g class="links" style="display: none;"><path stroke="black" style="stroke-width: 2;"/><text text-anchor="middle">1</text></g></g><g class="nodeg"><g class="node computeNode h1 statics" transform="translate(1010,0)" style="pointer-events: auto;"><g class="computeSig" stroke="black" style="stroke-width: 2;"><path class="linegg timeline hgroup_1" d="M-980,73.92857142857143C-973.3333333333334,73.92857142857143,-966.6666666666666,73.92857142857143,-960,73.92857142857143C-953.3333333333334,73.92857142857143,-946.6666666666666,73.92857142857143,-940,73.92857142857143C-933.3333333333334,73.92857142857143,-926.6666666666666,73.92857142857143,-920,73.92857142857143C-913.3333333333334,73.92857142857143,-906.6666666666666,73.92857142857143,-900,73.92857142857143C-893.3333333333334,73.92857142857143,-886.6666666666666,73.92857142857143,-880,73.92857142857143C-873.3333333333334,73.92857142857143,-866.6666666666666,73.92857142857143,-860,73.92857142857143C-853.3333333333334,73.92857142857143,-846.6666666666666,73.92857142857143,-840,73.92857142857143C-833.3333333333334,73.92857142857143,-826.6666666666666,73.92857142857143,-820,73.92857142857143C-813.3333333333334,73.92857142857143,-806.6666666666666,73.92857142857143,-800,73.92857142857143C-793.3333333333334,73.92857142857143,-786.6666666666666,73.92857142857143,-780,73.92857142857143C-773.3333333333334,73.92857142857143,-766.6666666666666,73.92857142857143,-760,73.92857142857143C-753.3333333333334,73.92857142857143,-746.6666666666666,73.92857142857143,-740,73.92857142857143C-733.3333333333334,73.92857142857143,-726.6666666666666,73.92857142857143,-720,73.92857142857143C-713.3333333333334,73.92857142857143,-706.6666666666666,73.92857142857143,-700,73.92857142857143C-693.3333333333334,73.92857142857143,-686.6666666666666,73.92857142857143,-680,73.92857142857143C-673.3333333333334,73.92857142857143,-666.6666666666666,73.92857142857143,-660,73.92857142857143C-653.3333333333334,73.92857142857143,-646.6666666666666,73.92857142857143,-640,73.92857142857143C-633.3333333333334,73.92857142857143,-626.6666666666666,73.92857142857143,-620,73.92857142857143C-613.3333333333334,73.92857142857143,-606.6666666666666,73.92857142857143,-600,73.92857142857143C-593.3333333333334,73.92857142857143,-586.6666666666666,73.92857142857143,-580,73.92857142857143C-573.3333333333334,73.92857142857143,-566.6666666666666,73.92857142857143,-560,73.92857142857143C-553.3333333333334,73.92857142857143,-546.6666666666666,73.92857142857143,-540,73.92857142857143C-533.3333333333334,73.92857142857143,-526.6666666666666,73.92857142857143,-520,73.92857142857143C-513.3333333333334,73.92857142857143,-506.6666666666667,73.92857142857143,-500,73.92857142857143C-493.3333333333333,73.92857142857143,-486.6666666666667,73.92857142857143,-480,73.92857142857143C-473.3333333333333,73.92857142857143,-466.6666666666667,73.92857142857143,-460,73.92857142857143C-453.3333333333333,73.92857142857143,-446.6666666666667,73.92857142857143,-440,73.92857142857143C-433.3333333333333,73.92857142857143,-426.6666666666667,73.92857142857143,-420,73.92857142857143C-413.3333333333333,73.92857142857143,-406.6666666666667,73.92857142857143,-400,73.92857142857143C-393.3333333333333,73.92857142857143,-386.6666666666667,73.92857142857143,-380,73.92857142857143C-373.3333333333333,73.92857142857143,-366.6666666666667,73.92857142857143,-360,73.92857142857143C-353.3333333333333,73.92857142857143,-346.6666666666667,73.92857142857143,-340,73.92857142857143C-333.3333333333333,73.92857142857143,-326.6666666666667,73.92857142857143,-320,73.92857142857143C-313.3333333333333,73.92857142857143,-306.6666666666667,73.92857142857143,-300,73.92857142857143C-293.3333333333333,73.92857142857143,-286.6666666666667,73.92857142857143,-280,73.92857142857143C-273.3333333333333,73.92857142857143,-266.6666666666667,73.92857142857143,-260,73.92857142857143C-253.33333333333334,73.92857142857143,-246.66666666666666,73.92857142857143,-240,73.92857142857143C-233.33333333333334,73.92857142857143,-226.66666666666666,73.92857142857143,-220,73.92857142857143C-213.33333333333334,73.92857142857143,-206.66666666666666,73.92857142857143,-200,73.92857142857143C-193.33333333333334,73.92857142857143,-186.66666666666666,73.92857142857143,-180,73.92857142857143C-173.33333333333334,73.92857142857143,-166.66666666666666,73.92857142857143,-160,73.92857142857143C-153.33333333333334,73.92857142857143,-146.66666666666666,73.92857142857143,-140,73.92857142857143C-136.66666666666666,73.92857142857143,-133.33333333333334,73.92857142857143,-130,73.92857142857143C-126.66666666666667,73.92857142857143,-123.33333333333333,90,-120,106.07142857142857" style="stroke: rgb(31, 119, 180); stroke-width: 2; fill: none;"/><path class="linegg timeline hgroup_4" d="M-120,106.07142857142857C-113.33333333333333,106.07142857142857,-106.66666666666667,106.07142857142857,-100,106.07142857142857C-96.66666666666667,106.07142857142857,-93.33333333333333,106.07142857142857,-90,106.07142857142857C-86.66666666666667,106.07142857142857,-83.33333333333333,117.32142857142856,-80,128.57142857142856" style="stroke: rgb(214, 39, 40); stroke-width: 2; fill: none;"/><path class="linegg timeline hgroup_5" d="M-80,128.57142857142856C-73.33333333333333,128.57142857142856,-66.66666666666667,128.57142857142856,-60,128.57142857142856C-53.333333333333336,128.57142857142856,-46.666666666666664,128.57142857142856,-40,128.57142857142856C-33.333333333333336,128.57142857142856,-26.666666666666668,128.57142857142856,-20,128.57142857142856C-13.333333333333332,128.57142857142856,-6.666666666666667,128.57142857142856,0,128.57142857142856" style="stroke: rgb(148, 103, 189); stroke-width: 2; fill: none;"/></g><text class="computeSig_label label" text-anchor="end" dx="-5" dy="0.5rem" fill="black" width="200" transform="translate(-980,73.92857142857143)">1</text></g><g class="node computeNode h2 statics" transform="translate(1010,0)" style="pointer-events: auto;"><g class="computeSig" stroke="black" style="stroke-width: 2;"><path class="linegg timeline hgroup_2" d="M-980,38.57142857142857C-973.3333333333334,38.57142857142857,-966.6666666666666,38.57142857142857,-960,38.57142857142857C-953.3333333333334,38.57142857142857,-946.6666666666666,38.57142857142857,-940,38.57142857142857C-933.3333333333334,38.57142857142857,-926.6666666666666,38.57142857142857,-920,38.57142857142857C-913.3333333333334,38.57142857142857,-906.6666666666666,38.57142857142857,-900,38.57142857142857C-896.6666666666666,38.57142857142857,-893.3333333333334,38.57142857142857,-890,38.57142857142857C-886.6666666666666,38.57142857142857,-883.3333333333334,51.42857142857142,-880,64.28571428571428" style="stroke: rgb(255, 127, 14); stroke-width: 2; fill: none;"/><path class="linegg timeline hgroup_1" d="M-880,64.28571428571428C-873.3333333333334,64.28571428571428,-866.6666666666666,64.28571428571428,-860,64.28571428571428C-853.3333333333334,64.28571428571428,-846.6666666666666,64.28571428571428,-840,64.28571428571428C-833.3333333333334,64.28571428571428,-826.6666666666666,64.28571428571428,-820,64.28571428571428C-813.3333333333334,64.28571428571428,-806.6666666666666,64.28571428571428,-800,64.28571428571428C-793.3333333333334,64.28571428571428,-786.6666666666666,64.28571428571428,-780,64.28571428571428C-773.3333333333334,64.28571428571428,-766.6666666666666,64.28571428571428,-760,64.28571428571428C-753.3333333333334,64.28571428571428,-746.6666666666666,64.28571428571428,-740,64.28571428571428C-733.3333333333334,64.28571428571428,-726.6666666666666,64.28571428571428,-720,64.28571428571428C-713.3333333333334,64.28571428571428,-706.6666666666666,64.28571428571428,-700,64.28571428571428C-693.3333333333334,64.28571428571428,-686.6666666666666,64.28571428571428,-680,64.28571428571428C-673.3333333333334,64.28571428571428,-666.6666666666666,64.28571428571428,-660,64.28571428571428C-653.3333333333334,64.28571428571428,-646.6666666666666,64.28571428571428,-640,64.28571428571428C-633.3333333333334,64.28571428571428,-626.6666666666666,64.28571428571428,-620,64.28571428571428C-613.3333333333334,64.28571428571428,-606.6666666666666,64.28571428571428,-600,64.28571428571428C-593.3333333333334,64.28571428571428,-586.6666666666666,64.28571428571428,-580,64.28571428571428C-573.3333333333334,64.28571428571428,-566.6666666666666,64.28571428571428,-560,64.28571428571428C-553.3333333333334,64.28571428571428,-546.6666666666666,64.28571428571428,-540,64.28571428571428C-533.3333333333334,64.28571428571428,-526.6666666666666,64.28571428571428,-520,64.28571428571428C-513.3333333333334,64.28571428571428,-506.6666666666667,64.28571428571428,-500,64.28571428571428C-493.3333333333333,64.28571428571428,-486.6666666666667,64.28571428571428,-480,64.28571428571428C-473.3333333333333,64.28571428571428,-466.6666666666667,64.28571428571428,-460,64.28571428571428C-453.3333333333333,64.28571428571428,-446.6666666666667,64.28571428571428,-440,64.28571428571428C-433.3333333333333,64.28571428571428,-426.6666666666667,64.28571428571428,-420,64.28571428571428C-413.3333333333333,64.28571428571428,-406.6666666666667,64.28571428571428,-400,64.28571428571428C-393.3333333333333,64.28571428571428,-386.6666666666667,64.28571428571428,-380,64.28571428571428C-373.3333333333333,64.28571428571428,-366.6666666666667,64.28571428571428,-360,64.28571428571428C-353.3333333333333,64.28571428571428,-346.6666666666667,64.28571428571428,-340,64.28571428571428C-333.3333333333333,64.28571428571428,-326.6666666666667,64.28571428571428,-320,64.28571428571428C-313.3333333333333,64.28571428571428,-306.6666666666667,64.28571428571428,-300,64.28571428571428C-293.3333333333333,64.28571428571428,-286.6666666666667,64.28571428571428,-280,64.28571428571428C-273.3333333333333,64.28571428571428,-266.6666666666667,64.28571428571428,-260,64.28571428571428C-253.33333333333334,64.28571428571428,-246.66666666666666,64.28571428571428,-240,64.28571428571428C-233.33333333333334,64.28571428571428,-226.66666666666666,64.28571428571428,-220,64.28571428571428C-213.33333333333334,64.28571428571428,-206.66666666666666,64.28571428571428,-200,64.28571428571428C-193.33333333333334,64.28571428571428,-186.66666666666666,64.28571428571428,-180,64.28571428571428C-173.33333333333334,64.28571428571428,-166.66666666666666,64.28571428571428,-160,64.28571428571428C-153.33333333333334,64.28571428571428,-146.66666666666666,64.28571428571428,-140,64.28571428571428C-133.33333333333334,64.28571428571428,-126.66666666666667,64.28571428571428,-120,64.28571428571428C-113.33333333333333,64.28571428571428,-106.66666666666667,64.28571428571428,-100,64.28571428571428C-93.33333333333333,64.28571428571428,-86.66666666666667,64.28571428571428,-80,64.28571428571428C-73.33333333333333,64.28571428571428,-66.66666666666667,64.28571428571428,-60,64.28571428571428C-53.333333333333336,64.28571428571428,-46.666666666666664,64.28571428571428,-40,64.28571428571428C-33.333333333333336,64.28571428571428,-26.666666666666668,64.28571428571428,-20,64.28571428571428C-13.333333333333332,64.28571428571428,-6.666666666666667,64.28571428571428,0,64.28571428571428" style="stroke: rgb(31, 119, 180); stroke-width: 2; fill: none;"/></g><text class="computeSig_label label" text-anchor="end" dx="-5" dy="0.5rem" fill="black" width="200" transform="translate(-980,38.57142857142857)">2</text></g><g class="node computeNode h3 statics" transform="translate(1010,0)" style="pointer-events: auto;"><g class="computeSig" stroke="black" style="stroke-width: 2;"><path class="linegg timeline hgroup_1" d="M-980,77.14285714285714C-973.3333333333334,77.14285714285714,-966.6666666666666,77.14285714285714,-960,77.14285714285714C-953.3333333333334,77.14285714285714,-946.6666666666666,77.14285714285714,-940,77.14285714285714C-933.3333333333334,77.14285714285714,-926.6666666666666,77.14285714285714,-920,77.14285714285714C-913.3333333333334,77.14285714285714,-906.6666666666666,77.14285714285714,-900,77.14285714285714C-893.3333333333334,77.14285714285714,-886.6666666666666,77.14285714285714,-880,77.14285714285714C-873.3333333333334,77.14285714285714,-866.6666666666666,77.14285714285714,-860,77.14285714285714C-853.3333333333334,77.14285714285714,-846.6666666666666,77.14285714285714,-840,77.14285714285714C-833.3333333333334,77.14285714285714,-826.6666666666666,77.14285714285714,-820,77.14285714285714C-813.3333333333334,77.14285714285714,-806.6666666666666,77.14285714285714,-800,77.14285714285714C-793.3333333333334,77.14285714285714,-786.6666666666666,77.14285714285714,-780,77.14285714285714C-773.3333333333334,77.14285714285714,-766.6666666666666,77.14285714285714,-760,77.14285714285714C-753.3333333333334,77.14285714285714,-746.6666666666666,77.14285714285714,-740,77.14285714285714C-736.6666666666666,77.14285714285714,-733.3333333333334,77.14285714285714,-730,77.14285714285714C-726.6666666666666,77.14285714285714,-723.3333333333334,93.21428571428572,-720,109.28571428571429" style="stroke: rgb(31, 119, 180); stroke-width: 2; fill: none;"/><path class="linegg timeline hgroup_4" d="M-720,109.28571428571429C-713.3333333333334,109.28571428571429,-706.6666666666666,109.28571428571429,-700,109.28571428571429C-693.3333333333334,109.28571428571429,-686.6666666666666,109.28571428571429,-680,109.28571428571429C-673.3333333333334,109.28571428571429,-666.6666666666666,109.28571428571429,-660,109.28571428571429C-653.3333333333334,109.28571428571429,-646.6666666666666,109.28571428571429,-640,109.28571428571429C-633.3333333333334,109.28571428571429,-626.6666666666666,109.28571428571429,-620,109.28571428571429C-616.6666666666666,109.28571428571429,-613.3333333333334,109.28571428571429,-610,109.28571428571429C-606.6666666666666,109.28571428571429,-603.3333333333334,64.28571428571428,-600,19.285714285714285" style="stroke: rgb(214, 39, 40); stroke-width: 2; fill: none;"/><path class="linegg timeline hgroup_3" d="M-600,19.285714285714285C-593.3333333333334,19.285714285714285,-586.6666666666666,19.285714285714285,-580,19.285714285714285C-573.3333333333334,19.285714285714285,-566.6666666666666,19.285714285714285,-560,19.285714285714285C-556.6666666666666,19.285714285714285,-553.3333333333334,19.285714285714285,-550,19.285714285714285C-546.6666666666666,19.285714285714285,-543.3333333333334,75.53571428571428,-540,131.78571428571428" style="stroke: rgb(44, 160, 44); stroke-width: 2; fill: none;"/><path class="linegg timeline hgroup_5" d="M-540,131.78571428571428C-533.3333333333334,131.78571428571428,-526.6666666666666,131.78571428571428,-520,131.78571428571428C-513.3333333333334,131.78571428571428,-506.6666666666667,131.78571428571428,-500,131.78571428571428C-493.3333333333333,131.78571428571428,-486.6666666666667,131.78571428571428,-480,131.78571428571428C-473.3333333333333,131.78571428571428,-466.6666666666667,131.78571428571428,-460,131.78571428571428C-453.3333333333333,131.78571428571428,-446.6666666666667,131.78571428571428,-440,131.78571428571428C-433.3333333333333,131.78571428571428,-426.6666666666667,131.78571428571428,-420,131.78571428571428C-413.3333333333333,131.78571428571428,-406.6666666666667,131.78571428571428,-400,131.78571428571428C-393.3333333333333,131.78571428571428,-386.6666666666667,131.78571428571428,-380,131.78571428571428C-373.3333333333333,131.78571428571428,-366.6666666666667,131.78571428571428,-360,131.78571428571428C-353.3333333333333,131.78571428571428,-346.6666666666667,131.78571428571428,-340,131.78571428571428C-333.3333333333333,131.78571428571428,-326.6666666666667,131.78571428571428,-320,131.78571428571428C-313.3333333333333,131.78571428571428,-306.6666666666667,131.78571428571428,-300,131.78571428571428C-293.3333333333333,131.78571428571428,-286.6666666666667,131.78571428571428,-280,131.78571428571428C-273.3333333333333,131.78571428571428,-266.6666666666667,131.78571428571428,-260,131.78571428571428C-253.33333333333334,131.78571428571428,-246.66666666666666,131.78571428571428,-240,131.78571428571428C-233.33333333333334,131.78571428571428,-226.66666666666666,131.78571428571428,-220,131.78571428571428C-213.33333333333334,131.78571428571428,-206.66666666666666,131.78571428571428,-200,131.78571428571428C-196.66666666666666,131.78571428571428,-193.33333333333334,131.78571428571428,-190,131.78571428571428C-186.66666666666666,131.78571428571428,-183.33333333333334,90,-180,48.214285714285715" style="stroke: rgb(148, 103, 189); stroke-width: 2; fill: none;"/><path class="linegg timeline hgroup_2" d="M-180,48.214285714285715C-173.33333333333334,48.214285714285715,-166.66666666666666,48.214285714285715,-160,48.214285714285715C-153.33333333333334,48.214285714285715,-146.66666666666666,48.214285714285715,-140,48.214285714285715C-133.33333333333334,48.214285714285715,-126.66666666666667,48.214285714285715,-120,48.214285714285715C-113.33333333333333,48.214285714285715,-106.66666666666667,48.214285714285715,-100,48.214285714285715C-93.33333333333333,48.214285714285715,-86.66666666666667,48.214285714285715,-80,48.214285714285715C-73.33333333333333,48.214285714285715,-66.66666666666667,48.214285714285715,-60,48.214285714285715C-53.333333333333336,48.214285714285715,-46.666666666666664,48.214285714285715,-40,48.214285714285715C-33.333333333333336,48.214285714285715,-26.666666666666668,48.214285714285715,-20,48.214285714285715C-13.333333333333332,48.214285714285715,-6.666666666666667,48.214285714285715,0,48.214285714285715" style="stroke: rgb(255, 127, 14); stroke-width: 2; fill: none;"/></g><text class="computeSig_label label" text-anchor="end" dx="-5" dy="0.5rem" fill="black" width="200" transform="translate(-980,77.14285714285714)">3</text></g><g class="node computeNode h4 statics" transform="translate(1010,0)" style="pointer-events: auto;"><g class="computeSig" stroke="black" style="stroke-width: 2;"><path class="linegg timeline hgroup_1" d="M-980,54.642857142857146C-973.3333333333334,54.642857142857146,-966.6666666666666,54.642857142857146,-960,54.642857142857146C-953.3333333333334,54.642857142857146,-946.6666666666666,54.642857142857146,-940,54.642857142857146C-936.6666666666666,54.642857142857146,-933.3333333333334,54.642857142857146,-930,54.642857142857146C-926.6666666666666,54.642857142857146,-923.3333333333334,28.928571428571427,-920,3.214285714285714" style="stroke: rgb(31, 119, 180); stroke-width: 2; fill: none;"/><path class="linegg timeline hgroup_3" d="M-920,3.2142857142857153C-913.3333333333334,3.2142857142857153,-906.6666666666666,3.2142857142857153,-900,3.2142857142857153C-893.3333333333334,3.2142857142857153,-886.6666666666666,3.2142857142857153,-880,3.2142857142857153C-873.3333333333334,3.2142857142857153,-866.6666666666666,3.2142857142857153,-860,3.2142857142857153C-853.3333333333334,3.2142857142857153,-846.6666666666666,3.2142857142857153,-840,3.2142857142857153C-833.3333333333334,3.2142857142857153,-826.6666666666666,3.2142857142857153,-820,3.2142857142857153C-813.3333333333334,3.2142857142857153,-806.6666666666666,3.2142857142857153,-800,3.2142857142857153C-793.3333333333334,3.2142857142857153,-786.6666666666666,3.2142857142857153,-780,3.2142857142857153C-773.3333333333334,3.2142857142857153,-766.6666666666666,3.2142857142857153,-760,3.2142857142857153C-753.3333333333334,3.2142857142857153,-746.6666666666666,3.2142857142857153,-740,3.2142857142857153C-733.3333333333334,3.2142857142857153,-726.6666666666666,3.2142857142857153,-720,3.2142857142857153C-713.3333333333334,3.2142857142857153,-706.6666666666666,3.2142857142857153,-700,3.2142857142857153C-693.3333333333334,3.2142857142857153,-686.6666666666666,3.2142857142857153,-680,3.2142857142857153C-673.3333333333334,3.2142857142857153,-666.6666666666666,3.2142857142857153,-660,3.2142857142857153C-653.3333333333334,3.2142857142857153,-646.6666666666666,3.2142857142857153,-640,3.2142857142857153C-633.3333333333334,3.2142857142857153,-626.6666666666666,3.2142857142857153,-620,3.2142857142857153C-613.3333333333334,3.2142857142857153,-606.6666666666666,3.2142857142857153,-600,3.2142857142857153C-593.3333333333334,3.2142857142857153,-586.6666666666666,3.2142857142857153,-580,3.2142857142857153C-573.3333333333334,3.2142857142857153,-566.6666666666666,3.2142857142857153,-560,3.2142857142857153C-556.6666666666666,3.214285714285714,-553.3333333333334,3.214285714285714,-550,3.214285714285714C-546.6666666666666,3.214285714285714,-543.3333333333334,44.99999999999999,-540,86.78571428571429" style="stroke: rgb(44, 160, 44); stroke-width: 2; fill: none;"/><path class="linegg timeline hgroup_4" d="M-540,86.78571428571429C-533.3333333333334,86.78571428571429,-526.6666666666666,86.78571428571429,-520,86.78571428571429C-513.3333333333334,86.78571428571429,-506.6666666666667,86.78571428571429,-500,86.78571428571429C-493.3333333333333,86.78571428571429,-486.6666666666667,86.78571428571429,-480,86.78571428571429C-473.3333333333333,86.78571428571429,-466.6666666666667,86.78571428571429,-460,86.78571428571429C-456.6666666666667,86.78571428571429,-453.3333333333333,86.78571428571429,-450,86.78571428571429C-446.6666666666667,86.78571428571429,-443.3333333333333,70.71428571428572,-440,54.642857142857146" style="stroke: rgb(214, 39, 40); stroke-width: 2; fill: none;"/><path class="linegg timeline hgroup_1" d="M-440,54.642857142857146C-433.3333333333333,54.642857142857146,-426.6666666666667,54.642857142857146,-420,54.642857142857146C-413.3333333333333,54.642857142857146,-406.6666666666667,54.642857142857146,-400,54.642857142857146C-393.3333333333333,54.642857142857146,-386.6666666666667,54.642857142857146,-380,54.642857142857146C-373.3333333333333,54.642857142857146,-366.6666666666667,54.642857142857146,-360,54.642857142857146C-353.3333333333333,54.642857142857146,-346.6666666666667,54.642857142857146,-340,54.642857142857146C-333.3333333333333,54.642857142857146,-326.6666666666667,54.642857142857146,-320,54.642857142857146C-313.3333333333333,54.642857142857146,-306.6666666666667,54.642857142857146,-300,54.642857142857146C-293.3333333333333,54.642857142857146,-286.6666666666667,54.642857142857146,-280,54.642857142857146C-273.3333333333333,54.642857142857146,-266.6666666666667,54.642857142857146,-260,54.642857142857146C-253.33333333333334,54.642857142857146,-246.66666666666666,54.642857142857146,-240,54.642857142857146C-233.33333333333334,54.642857142857146,-226.66666666666666,54.642857142857146,-220,54.642857142857146C-213.33333333333334,54.642857142857146,-206.66666666666666,54.642857142857146,-200,54.642857142857146C-196.66666666666666,54.642857142857146,-193.33333333333334,54.642857142857146,-190,54.642857142857146C-186.66666666666666,54.642857142857146,-183.33333333333334,40.17857142857143,-180,25.71428571428571" style="stroke: rgb(31, 119, 180); stroke-width: 2; fill: none;"/><path class="linegg timeline hgroup_2" d="M-180,25.71428571428571C-173.33333333333334,25.71428571428571,-166.66666666666666,25.71428571428571,-160,25.71428571428571C-153.33333333333334,25.71428571428571,-146.66666666666666,25.71428571428571,-140,25.71428571428571C-133.33333333333334,25.71428571428571,-126.66666666666667,25.71428571428571,-120,25.71428571428571C-113.33333333333333,25.71428571428571,-106.66666666666667,25.71428571428571,-100,25.71428571428571C-93.33333333333333,25.71428571428571,-86.66666666666667,25.71428571428571,-80,25.71428571428571C-73.33333333333333,25.71428571428571,-66.66666666666667,25.71428571428571,-60,25.71428571428571C-56.666666666666664,25.71428571428571,-53.333333333333336,25.71428571428571,-50,25.71428571428571C-46.666666666666664,25.71428571428571,-43.333333333333336,56.25,-40,86.78571428571429" style="stroke: rgb(255, 127, 14); stroke-width: 2; fill: none;"/><path class="linegg timeline hgroup_4" d="M-40,86.78571428571429C-33.333333333333336,86.78571428571429,-26.666666666666668,86.78571428571429,-20,86.78571428571429C-13.333333333333332,86.78571428571429,-6.666666666666667,86.78571428571429,0,86.78571428571429" style="stroke: rgb(214, 39, 40); stroke-width: 2; fill: none;"/></g><text class="computeSig_label label" text-anchor="end" dx="-5" dy="0.5rem" fill="black" width="200" transform="translate(-980,54.642857142857146)">4</text></g><g class="node computeNode h5 statics" transform="translate(1010,0)" style="pointer-events: auto;"><g class="computeSig" stroke="black" style="stroke-width: 2;"><path class="linegg timeline hgroup_3" d="M-980,6.428571428571431C-973.3333333333334,6.428571428571431,-966.6666666666666,6.428571428571431,-960,6.428571428571431C-953.3333333333334,6.428571428571431,-946.6666666666666,6.428571428571431,-940,6.428571428571431C-933.3333333333334,6.428571428571431,-926.6666666666666,6.428571428571431,-920,6.428571428571431C-913.3333333333334,6.428571428571431,-906.6666666666666,6.428571428571431,-900,6.428571428571431C-893.3333333333334,6.428571428571431,-886.6666666666666,6.428571428571431,-880,6.428571428571431C-873.3333333333334,6.428571428571431,-866.6666666666666,6.428571428571431,-860,6.428571428571431C-853.3333333333334,6.428571428571431,-846.6666666666666,6.428571428571431,-840,6.428571428571431C-833.3333333333334,6.428571428571431,-826.6666666666666,6.428571428571431,-820,6.428571428571431C-813.3333333333334,6.428571428571431,-806.6666666666666,6.428571428571431,-800,6.428571428571431C-793.3333333333334,6.428571428571431,-786.6666666666666,6.428571428571431,-780,6.428571428571431C-773.3333333333334,6.428571428571431,-766.6666666666666,6.428571428571431,-760,6.428571428571431C-753.3333333333334,6.428571428571431,-746.6666666666666,6.428571428571431,-740,6.428571428571431C-733.3333333333334,6.428571428571431,-726.6666666666666,6.428571428571431,-720,6.428571428571431C-716.6666666666666,6.428571428571428,-713.3333333333334,6.428571428571428,-710,6.428571428571428C-706.6666666666666,6.428571428571428,-703.3333333333334,48.21428571428571,-700,90" style="stroke: rgb(44, 160, 44); stroke-width: 2; fill: none;"/><path class="linegg timeline hgroup_4" d="M-700,90C-693.3333333333334,90,-686.6666666666666,90,-680,90C-673.3333333333334,90,-666.6666666666666,90,-660,90C-653.3333333333334,90,-646.6666666666666,90,-640,90C-633.3333333333334,90,-626.6666666666666,90,-620,90C-613.3333333333334,90,-606.6666666666666,90,-600,90C-593.3333333333334,90,-586.6666666666666,90,-580,90C-573.3333333333334,90,-566.6666666666666,90,-560,90C-553.3333333333334,90,-546.6666666666666,90,-540,90C-533.3333333333334,90,-526.6666666666666,90,-520,90C-513.3333333333334,90,-506.6666666666667,90,-500,90C-493.3333333333333,90,-486.6666666666667,90,-480,90C-473.3333333333333,90,-466.6666666666667,90,-460,90C-453.3333333333333,90,-446.6666666666667,90,-440,90C-433.3333333333333,90,-426.6666666666667,90,-420,90C-413.3333333333333,90,-406.6666666666667,90,-400,90C-396.6666666666667,90,-393.3333333333333,90,-390,90C-386.6666666666667,90,-383.3333333333333,59.464285714285715,-380,28.928571428571427" style="stroke: rgb(214, 39, 40); stroke-width: 2; fill: none;"/><path class="linegg timeline hgroup_2" d="M-380,28.928571428571427C-373.3333333333333,28.928571428571427,-366.6666666666667,28.928571428571427,-360,28.928571428571427C-353.3333333333333,28.928571428571427,-346.6666666666667,28.928571428571427,-340,28.928571428571427C-333.3333333333333,28.928571428571427,-326.6666666666667,28.928571428571427,-320,28.928571428571427C-316.6666666666667,28.928571428571427,-313.3333333333333,28.928571428571427,-310,28.928571428571427C-306.6666666666667,28.928571428571427,-303.3333333333333,73.92857142857143,-300,118.92857142857143" style="stroke: rgb(255, 127, 14); stroke-width: 2; fill: none;"/><path class="linegg timeline hgroup_5" d="M-300,118.92857142857143C-293.3333333333333,118.92857142857143,-286.6666666666667,118.92857142857143,-280,118.92857142857143C-276.6666666666667,118.92857142857143,-273.3333333333333,118.92857142857143,-270,118.92857142857143C-266.6666666666667,118.92857142857143,-263.3333333333333,73.92857142857143,-260,28.928571428571427" style="stroke: rgb(148, 103, 189); stroke-width: 2; fill: none;"/><path class="linegg timeline hgroup_2" d="M-260,28.928571428571427C-253.33333333333334,28.928571428571427,-246.66666666666666,28.928571428571427,-240,28.928571428571427C-233.33333333333334,28.928571428571427,-226.66666666666666,28.928571428571427,-220,28.928571428571427C-213.33333333333334,28.928571428571427,-206.66666666666666,28.928571428571427,-200,28.928571428571427C-193.33333333333334,28.928571428571427,-186.66666666666666,28.928571428571427,-180,28.928571428571427C-173.33333333333334,28.928571428571427,-166.66666666666666,28.928571428571427,-160,28.928571428571427C-153.33333333333334,28.928571428571427,-146.66666666666666,28.928571428571427,-140,28.928571428571427C-133.33333333333334,28.928571428571427,-126.66666666666667,28.928571428571427,-120,28.928571428571427C-113.33333333333333,28.928571428571427,-106.66666666666667,28.928571428571427,-100,28.928571428571427C-93.33333333333333,28.928571428571427,-86.66666666666667,28.928571428571427,-80,28.928571428571427C-73.33333333333333,28.928571428571427,-66.66666666666667,28.928571428571427,-60,28.928571428571427C-53.333333333333336,28.928571428571427,-46.666666666666664,28.928571428571427,-40,28.928571428571427C-33.333333333333336,28.928571428571427,-26.666666666666668,28.928571428571427,-20,28.928571428571427C-13.333333333333332,28.928571428571427,-6.666666666666667,28.928571428571427,0,28.928571428571427" style="stroke: rgb(255, 127, 14); stroke-width: 2; fill: none;"/></g><text class="computeSig_label label" text-anchor="end" dx="-5" dy="0.5rem" fill="black" width="200" transform="translate(-980,6.428571428571428)">5</text></g><g class="node computeNode h6 statics" transform="translate(1010,0)" style="pointer-events: auto;"><g class="computeSig" stroke="black" style="stroke-width: 2;"><path class="linegg timeline hgroup_1" d="M-980,67.5C-973.3333333333334,67.5,-966.6666666666666,67.5,-960,67.5C-956.6666666666666,67.5,-953.3333333333334,67.5,-950,67.5C-946.6666666666666,67.5,-943.3333333333334,54.64285714285714,-940,41.785714285714285" style="stroke: rgb(31, 119, 180); stroke-width: 2; fill: none;"/><path class="linegg timeline hgroup_2" d="M-940,41.785714285714285C-936.6666666666666,41.785714285714285,-933.3333333333334,41.785714285714285,-930,41.785714285714285C-926.6666666666666,41.785714285714285,-923.3333333333334,54.642857142857146,-920,67.5" style="stroke: rgb(255, 127, 14); stroke-width: 2;"/><path class="linegg timeline hgroup_1" d="M-920,67.5C-916.6666666666666,67.5,-913.3333333333334,67.5,-910,67.5C-906.6666666666666,67.5,-903.3333333333334,83.57142857142858,-900,99.64285714285715" style="stroke: rgb(31, 119, 180); stroke-width: 2;"/><path class="linegg timeline hgroup_4" d="M-900,99.64285714285715C-893.3333333333334,99.64285714285715,-886.6666666666666,99.64285714285715,-880,99.64285714285715C-873.3333333333334,99.64285714285715,-866.6666666666666,99.64285714285715,-860,99.64285714285715C-856.6666666666666,99.64285714285715,-853.3333333333334,99.64285714285715,-850,99.64285714285715C-846.6666666666666,99.64285714285715,-843.3333333333334,70.71428571428572,-840,41.785714285714285" style="stroke: rgb(214, 39, 40); stroke-width: 2; fill: none;"/><path class="linegg timeline hgroup_2" d="M-840,41.785714285714285C-836.6666666666666,41.785714285714285,-833.3333333333334,41.785714285714285,-830,41.785714285714285C-826.6666666666666,41.785714285714285,-823.3333333333334,54.642857142857146,-820,67.5" style="stroke: rgb(255, 127, 14); stroke-width: 2;"/><path class="linegg timeline hgroup_1" d="M-820,67.5C-813.3333333333334,67.5,-806.6666666666666,67.5,-800,67.5C-793.3333333333334,67.5,-786.6666666666666,67.5,-780,67.5C-773.3333333333334,67.5,-766.6666666666666,67.5,-760,67.5C-753.3333333333334,67.5,-746.6666666666666,67.5,-740,67.5C-733.3333333333334,67.5,-726.6666666666666,67.5,-720,67.5C-713.3333333333334,67.5,-706.6666666666666,67.5,-700,67.5C-693.3333333333334,67.5,-686.6666666666666,67.5,-680,67.5C-676.6666666666666,67.5,-673.3333333333334,67.5,-670,67.5C-666.6666666666666,67.5,-663.3333333333334,54.64285714285714,-660,41.785714285714285" style="stroke: rgb(31, 119, 180); stroke-width: 2; fill: none;"/><path class="linegg timeline hgroup_2" d="M-660,41.785714285714285C-653.3333333333334,41.785714285714285,-646.6666666666666,41.785714285714285,-640,41.785714285714285C-636.6666666666666,41.785714285714285,-633.3333333333334,41.785714285714285,-630,41.785714285714285C-626.6666666666666,41.785714285714285,-623.3333333333334,70.71428571428572,-620,99.64285714285715" style="stroke: rgb(255, 127, 14); stroke-width: 2; fill: none;"/><path class="linegg timeline hgroup_4" d="M-620,99.64285714285715C-616.6666666666666,99.64285714285715,-613.3333333333334,99.64285714285715,-610,99.64285714285715C-606.6666666666666,99.64285714285715,-603.3333333333334,83.57142857142858,-600,67.5" style="stroke: rgb(214, 39, 40); stroke-width: 2;"/><path class="linegg timeline hgroup_1" d="M-600,67.5C-596.6666666666666,67.5,-593.3333333333334,67.5,-590,67.5C-586.6666666666666,67.5,-583.3333333333334,83.57142857142858,-580,99.64285714285715" style="stroke: rgb(31, 119, 180); stroke-width: 2;"/><path class="linegg timeline hgroup_4" d="M-580,99.64285714285715C-573.3333333333334,99.64285714285715,-566.6666666666666,99.64285714285715,-560,99.64285714285715C-553.3333333333334,99.64285714285715,-546.6666666666666,99.64285714285715,-540,99.64285714285715C-533.3333333333334,99.64285714285715,-526.6666666666666,99.64285714285715,-520,99.64285714285715C-513.3333333333334,99.64285714285715,-506.6666666666667,99.64285714285715,-500,99.64285714285715C-493.3333333333333,99.64285714285715,-486.6666666666667,99.64285714285715,-480,99.64285714285715C-473.3333333333333,99.64285714285715,-466.6666666666667,99.64285714285715,-460,99.64285714285715C-453.3333333333333,99.64285714285715,-446.6666666666667,99.64285714285715,-440,99.64285714285715C-433.3333333333333,99.64285714285715,-426.6666666666667,99.64285714285715,-420,99.64285714285715C-413.3333333333333,99.64285714285715,-406.6666666666667,99.64285714285715,-400,99.64285714285715C-393.3333333333333,99.64285714285715,-386.6666666666667,99.64285714285715,-380,99.64285714285715C-376.6666666666667,99.64285714285715,-373.3333333333333,99.64285714285715,-370,99.64285714285715C-366.6666666666667,99.64285714285715,-363.3333333333333,110.89285714285714,-360,122.14285714285714" style="stroke: rgb(214, 39, 40); stroke-width: 2; fill: none;"/><path class="linegg timeline hgroup_5" d="M-360,122.14285714285714C-353.3333333333333,122.14285714285714,-346.6666666666667,122.14285714285714,-340,122.14285714285714C-333.3333333333333,122.14285714285714,-326.6666666666667,122.14285714285714,-320,122.14285714285714C-316.6666666666667,122.14285714285714,-313.3333333333333,122.14285714285714,-310,122.14285714285714C-306.6666666666667,122.14285714285714,-303.3333333333333,81.96428571428572,-300,41.785714285714285" style="stroke: rgb(148, 103, 189); stroke-width: 2; fill: none;"/><path class="linegg timeline hgroup_2" d="M-300,41.785714285714285C-293.3333333333333,41.785714285714285,-286.6666666666667,41.785714285714285,-280,41.785714285714285C-273.3333333333333,41.785714285714285,-266.6666666666667,41.785714285714285,-260,41.785714285714285C-256.6666666666667,41.785714285714285,-253.33333333333334,41.785714285714285,-250,41.785714285714285C-246.66666666666666,41.785714285714285,-243.33333333333334,81.96428571428571,-240,122.14285714285714" style="stroke: rgb(255, 127, 14); stroke-width: 2; fill: none;"/><path class="linegg timeline hgroup_5" d="M-240,122.14285714285714C-233.33333333333334,122.14285714285714,-226.66666666666666,122.14285714285714,-220,122.14285714285714C-216.66666666666666,122.14285714285714,-213.33333333333334,122.14285714285714,-210,122.14285714285714C-206.66666666666666,122.14285714285714,-203.33333333333334,94.82142857142857,-200,67.5" style="stroke: rgb(148, 103, 189); stroke-width: 2; fill: none;"/><path class="linegg timeline hgroup_1" d="M-200,67.5C-196.66666666666666,67.5,-193.33333333333334,67.5,-190,67.5C-186.66666666666666,67.5,-183.33333333333334,54.64285714285714,-180,41.785714285714285" style="stroke: rgb(31, 119, 180); stroke-width: 2;"/><path class="linegg timeline hgroup_2" d="M-180,41.785714285714285C-173.33333333333334,41.785714285714285,-166.66666666666666,41.785714285714285,-160,41.785714285714285C-153.33333333333334,41.785714285714285,-146.66666666666666,41.785714285714285,-140,41.785714285714285C-136.66666666666666,41.785714285714285,-133.33333333333334,41.785714285714285,-130,41.785714285714285C-126.66666666666667,41.785714285714285,-123.33333333333333,28.928571428571423,-120,16.07142857142857" style="stroke: rgb(255, 127, 14); stroke-width: 2; fill: none;"/><path class="linegg timeline hgroup_3" d="M-120,16.07142857142857C-113.33333333333333,16.07142857142857,-106.66666666666667,16.07142857142857,-100,16.07142857142857C-93.33333333333333,16.07142857142857,-86.66666666666667,16.07142857142857,-80,16.07142857142857C-73.33333333333333,16.07142857142857,-66.66666666666667,16.07142857142857,-60,16.07142857142857C-53.333333333333336,16.07142857142857,-46.666666666666664,16.07142857142857,-40,16.07142857142857C-33.333333333333336,16.07142857142857,-26.666666666666668,16.07142857142857,-20,16.07142857142857C-13.333333333333332,16.07142857142857,-6.666666666666667,16.07142857142857,0,16.07142857142857" style="stroke: rgb(44, 160, 44); stroke-width: 2; fill: none;"/></g><text class="computeSig_label label" text-anchor="end" dx="-5" dy="0.5rem" fill="black" width="200" transform="translate(-980,67.5)">6</text></g><g class="node computeNode h7 statics" transform="translate(1010,0)" style="pointer-events: auto;"><g class="computeSig" stroke="black" style="stroke-width: 2;"><path class="linegg timeline hgroup_1" d="M-980,61.07142857142857C-973.3333333333334,61.07142857142857,-966.6666666666666,61.07142857142857,-960,61.07142857142857C-953.3333333333334,61.07142857142857,-946.6666666666666,61.07142857142857,-940,61.07142857142857C-933.3333333333334,61.07142857142857,-926.6666666666666,61.07142857142857,-920,61.07142857142857C-913.3333333333334,61.07142857142857,-906.6666666666666,61.07142857142857,-900,61.07142857142857C-896.6666666666666,61.07142857142857,-893.3333333333334,61.07142857142857,-890,61.07142857142857C-886.6666666666666,61.07142857142857,-883.3333333333334,48.214285714285715,-880,35.35714285714286" style="stroke: rgb(31, 119, 180); stroke-width: 2; fill: none;"/><path class="linegg timeline hgroup_2" d="M-880,35.35714285714286C-876.6666666666666,35.35714285714286,-873.3333333333334,35.35714285714286,-870,35.35714285714286C-866.6666666666666,35.35714285714286,-863.3333333333334,24.10714285714286,-860,12.857142857142856" style="stroke: rgb(255, 127, 14); stroke-width: 2;"/><path class="linegg timeline hgroup_3" d="M-860,12.857142857142861C-853.3333333333334,12.857142857142861,-846.6666666666666,12.857142857142856,-840,12.857142857142856C-836.6666666666666,12.857142857142856,-833.3333333333334,12.857142857142856,-830,12.857142857142856C-826.6666666666666,12.857142857142856,-823.3333333333334,24.107142857142854,-820,35.35714285714286" style="stroke: rgb(44, 160, 44); stroke-width: 2; fill: none;"/><path class="linegg timeline hgroup_2" d="M-820,35.35714285714286C-813.3333333333334,35.35714285714286,-806.6666666666666,35.35714285714286,-800,35.35714285714286C-793.3333333333334,35.35714285714286,-786.6666666666666,35.35714285714286,-780,35.35714285714286C-773.3333333333334,35.35714285714286,-766.6666666666666,35.35714285714286,-760,35.35714285714286C-753.3333333333334,35.35714285714286,-746.6666666666666,35.35714285714286,-740,35.35714285714286C-733.3333333333334,35.35714285714286,-726.6666666666666,35.35714285714286,-720,35.35714285714286C-713.3333333333334,35.35714285714286,-706.6666666666666,35.35714285714286,-700,35.35714285714286C-693.3333333333334,35.35714285714286,-686.6666666666666,35.35714285714286,-680,35.35714285714286C-673.3333333333334,35.35714285714286,-666.6666666666666,35.35714285714286,-660,35.35714285714286C-653.3333333333334,35.35714285714286,-646.6666666666666,35.35714285714286,-640,35.35714285714286C-633.3333333333334,35.35714285714286,-626.6666666666666,35.35714285714286,-620,35.35714285714286C-613.3333333333334,35.35714285714286,-606.6666666666666,35.35714285714286,-600,35.35714285714286C-593.3333333333334,35.35714285714286,-586.6666666666666,35.35714285714286,-580,35.35714285714286C-573.3333333333334,35.35714285714286,-566.6666666666666,35.35714285714286,-560,35.35714285714286C-553.3333333333334,35.35714285714286,-546.6666666666666,35.35714285714286,-540,35.35714285714286C-533.3333333333334,35.35714285714286,-526.6666666666666,35.35714285714286,-520,35.35714285714286C-513.3333333333334,35.35714285714286,-506.6666666666667,35.35714285714286,-500,35.35714285714286C-493.3333333333333,35.35714285714286,-486.6666666666667,35.35714285714286,-480,35.35714285714286C-473.3333333333333,35.35714285714286,-466.6666666666667,35.35714285714286,-460,35.35714285714286C-453.3333333333333,35.35714285714286,-446.6666666666667,35.35714285714286,-440,35.35714285714286C-433.3333333333333,35.35714285714286,-426.6666666666667,35.35714285714286,-420,35.35714285714286C-416.6666666666667,35.35714285714286,-413.3333333333333,35.35714285714286,-410,35.35714285714286C-406.6666666666667,35.35714285714286,-403.3333333333333,65.89285714285714,-400,96.42857142857143" style="stroke: rgb(255, 127, 14); stroke-width: 2; fill: none;"/><path class="linegg timeline hgroup_4" d="M-400,96.42857142857143C-393.3333333333333,96.42857142857143,-386.6666666666667,96.42857142857143,-380,96.42857142857143C-373.3333333333333,96.42857142857143,-366.6666666666667,96.42857142857143,-360,96.42857142857143C-353.3333333333333,96.42857142857143,-346.6666666666667,96.42857142857143,-340,96.42857142857143C-333.3333333333333,96.42857142857143,-326.6666666666667,96.42857142857143,-320,96.42857142857143C-313.3333333333333,96.42857142857143,-306.6666666666667,96.42857142857143,-300,96.42857142857143C-293.3333333333333,96.42857142857143,-286.6666666666667,96.42857142857143,-280,96.42857142857143C-273.3333333333333,96.42857142857143,-266.6666666666667,96.42857142857143,-260,96.42857142857143C-253.33333333333334,96.42857142857143,-246.66666666666666,96.42857142857143,-240,96.42857142857143C-233.33333333333334,96.42857142857143,-226.66666666666666,96.42857142857143,-220,96.42857142857143C-213.33333333333334,96.42857142857143,-206.66666666666666,96.42857142857143,-200,96.42857142857143C-193.33333333333334,96.42857142857143,-186.66666666666666,96.42857142857143,-180,96.42857142857143C-173.33333333333334,96.42857142857143,-166.66666666666666,96.42857142857143,-160,96.42857142857143C-153.33333333333334,96.42857142857143,-146.66666666666666,96.42857142857143,-140,96.42857142857143C-133.33333333333334,96.42857142857143,-126.66666666666667,96.42857142857143,-120,96.42857142857143C-113.33333333333333,96.42857142857143,-106.66666666666667,96.42857142857143,-100,96.42857142857143C-93.33333333333333,96.42857142857143,-86.66666666666667,96.42857142857143,-80,96.42857142857143C-73.33333333333333,96.42857142857143,-66.66666666666667,96.42857142857143,-60,96.42857142857143C-53.333333333333336,96.42857142857143,-46.666666666666664,96.42857142857143,-40,96.42857142857143C-36.666666666666664,96.42857142857143,-33.333333333333336,96.42857142857143,-30,96.42857142857143C-26.666666666666668,96.42857142857143,-23.333333333333332,65.89285714285715,-20,35.35714285714286" style="stroke: rgb(214, 39, 40); stroke-width: 2; fill: none;"/><path class="linegg timeline hgroup_2" d="M-20,35.35714285714286L0,35.35714285714286" style="stroke: rgb(255, 127, 14); stroke-width: 2; fill: none;"/></g><text class="computeSig_label label" text-anchor="end" dx="-5" dy="0.5rem" fill="black" width="200" transform="translate(-980,61.07142857142857)">7</text></g><g class="node computeNode h8 statics" transform="translate(1010,0)" style="pointer-events: auto;"><g class="computeSig" stroke="black" style="stroke-width: 2;"><path class="linegg timeline hgroup_4" d="M-980,93.21428571428571C-973.3333333333334,93.21428571428571,-966.6666666666666,93.21428571428571,-960,93.21428571428571C-953.3333333333334,93.21428571428571,-946.6666666666666,93.21428571428571,-940,93.21428571428571C-933.3333333333334,93.21428571428571,-926.6666666666666,93.21428571428571,-920,93.21428571428571C-913.3333333333334,93.21428571428571,-906.6666666666666,93.21428571428571,-900,93.21428571428571C-893.3333333333334,93.21428571428571,-886.6666666666666,93.21428571428571,-880,93.21428571428571C-873.3333333333334,93.21428571428571,-866.6666666666666,93.21428571428571,-860,93.21428571428571C-853.3333333333334,93.21428571428571,-846.6666666666666,93.21428571428571,-840,93.21428571428571C-833.3333333333334,93.21428571428571,-826.6666666666666,93.21428571428571,-820,93.21428571428571C-813.3333333333334,93.21428571428571,-806.6666666666666,93.21428571428571,-800,93.21428571428571C-793.3333333333334,93.21428571428571,-786.6666666666666,93.21428571428571,-780,93.21428571428571C-776.6666666666666,93.21428571428571,-773.3333333333334,93.21428571428571,-770,93.21428571428571C-766.6666666666666,93.21428571428571,-763.3333333333334,75.53571428571428,-760,57.857142857142854" style="stroke: rgb(214, 39, 40); stroke-width: 2; fill: none;"/><path class="linegg timeline hgroup_1" d="M-760,57.857142857142854C-753.3333333333334,57.857142857142854,-746.6666666666666,57.857142857142854,-740,57.857142857142854C-733.3333333333334,57.857142857142854,-726.6666666666666,57.857142857142854,-720,57.857142857142854C-713.3333333333334,57.857142857142854,-706.6666666666666,57.857142857142854,-700,57.857142857142854C-693.3333333333334,57.857142857142854,-686.6666666666666,57.857142857142854,-680,57.857142857142854C-676.6666666666666,57.857142857142854,-673.3333333333334,57.857142857142854,-670,57.857142857142854C-666.6666666666666,57.857142857142854,-663.3333333333334,33.75,-660,9.642857142857142" style="stroke: rgb(31, 119, 180); stroke-width: 2; fill: none;"/><path class="linegg timeline hgroup_3" d="M-660,9.642857142857139C-653.3333333333334,9.642857142857139,-646.6666666666666,9.642857142857139,-640,9.642857142857139C-633.3333333333334,9.642857142857139,-626.6666666666666,9.642857142857139,-620,9.642857142857139C-613.3333333333334,9.642857142857139,-606.6666666666666,9.642857142857139,-600,9.642857142857139C-593.3333333333334,9.642857142857139,-586.6666666666666,9.642857142857139,-580,9.642857142857139C-573.3333333333334,9.642857142857139,-566.6666666666666,9.642857142857139,-560,9.642857142857139C-553.3333333333334,9.642857142857139,-546.6666666666666,9.642857142857139,-540,9.642857142857139C-533.3333333333334,9.642857142857139,-526.6666666666666,9.642857142857139,-520,9.642857142857139C-513.3333333333334,9.642857142857139,-506.6666666666667,9.642857142857139,-500,9.642857142857139C-496.6666666666667,9.642857142857142,-493.3333333333333,9.642857142857142,-490,9.642857142857142C-486.6666666666667,9.642857142857142,-483.3333333333333,33.75,-480,57.857142857142854" style="stroke: rgb(44, 160, 44); stroke-width: 2; fill: none;"/><path class="linegg timeline hgroup_1" d="M-480,57.857142857142854C-473.3333333333333,57.857142857142854,-466.6666666666667,57.857142857142854,-460,57.857142857142854C-453.3333333333333,57.857142857142854,-446.6666666666667,57.857142857142854,-440,57.857142857142854C-433.3333333333333,57.857142857142854,-426.6666666666667,57.857142857142854,-420,57.857142857142854C-413.3333333333333,57.857142857142854,-406.6666666666667,57.857142857142854,-400,57.857142857142854C-393.3333333333333,57.857142857142854,-386.6666666666667,57.857142857142854,-380,57.857142857142854C-373.3333333333333,57.857142857142854,-366.6666666666667,57.857142857142854,-360,57.857142857142854C-353.3333333333333,57.857142857142854,-346.6666666666667,57.857142857142854,-340,57.857142857142854C-333.3333333333333,57.857142857142854,-326.6666666666667,57.857142857142854,-320,57.857142857142854C-313.3333333333333,57.857142857142854,-306.6666666666667,57.857142857142854,-300,57.857142857142854C-293.3333333333333,57.857142857142854,-286.6666666666667,57.857142857142854,-280,57.857142857142854C-273.3333333333333,57.857142857142854,-266.6666666666667,57.857142857142854,-260,57.857142857142854C-253.33333333333334,57.857142857142854,-246.66666666666666,57.857142857142854,-240,57.857142857142854C-233.33333333333334,57.857142857142854,-226.66666666666666,57.857142857142854,-220,57.857142857142854C-213.33333333333334,57.857142857142854,-206.66666666666666,57.857142857142854,-200,57.857142857142854C-193.33333333333334,57.857142857142854,-186.66666666666666,57.857142857142854,-180,57.857142857142854C-173.33333333333334,57.857142857142854,-166.66666666666666,57.857142857142854,-160,57.857142857142854C-153.33333333333334,57.857142857142854,-146.66666666666666,57.857142857142854,-140,57.857142857142854C-133.33333333333334,57.857142857142854,-126.66666666666667,57.857142857142854,-120,57.857142857142854C-113.33333333333333,57.857142857142854,-106.66666666666667,57.857142857142854,-100,57.857142857142854C-93.33333333333333,57.857142857142854,-86.66666666666667,57.857142857142854,-80,57.857142857142854C-73.33333333333333,57.857142857142854,-66.66666666666667,57.857142857142854,-60,57.857142857142854C-56.666666666666664,57.857142857142854,-53.333333333333336,57.857142857142854,-50,57.857142857142854C-46.666666666666664,57.857142857142854,-43.333333333333336,44.99999999999999,-40,32.14285714285714" style="stroke: rgb(31, 119, 180); stroke-width: 2; fill: none;"/><path class="linegg timeline hgroup_2" d="M-40,32.14285714285714C-33.333333333333336,32.14285714285714,-26.666666666666668,32.14285714285714,-20,32.14285714285714C-13.333333333333332,32.14285714285714,-6.666666666666667,32.14285714285714,0,32.14285714285714" style="stroke: rgb(255, 127, 14); stroke-width: 2; fill: none;"/></g><text class="computeSig_label label" text-anchor="end" dx="-5" dy="0.5rem" fill="black" width="200" transform="translate(-980,93.21428571428571)">8</text></g><g class="node computeNode h9 statics" transform="translate(1010,0)" style="pointer-events: auto;"><g class="computeSig" stroke="black" style="stroke-width: 2;"><path class="linegg timeline hgroup_4" d="M-980,112.5C-973.3333333333334,112.5,-966.6666666666666,112.5,-960,112.5C-953.3333333333334,112.5,-946.6666666666666,112.5,-940,112.5C-933.3333333333334,112.5,-926.6666666666666,112.5,-920,112.5C-913.3333333333334,112.5,-906.6666666666666,112.5,-900,112.5C-893.3333333333334,112.5,-886.6666666666666,112.5,-880,112.5C-873.3333333333334,112.5,-866.6666666666666,112.5,-860,112.5C-853.3333333333334,112.5,-846.6666666666666,112.5,-840,112.5C-833.3333333333334,112.5,-826.6666666666666,112.5,-820,112.5C-813.3333333333334,112.5,-806.6666666666666,112.5,-800,112.5C-793.3333333333334,112.5,-786.6666666666666,112.5,-780,112.5C-773.3333333333334,112.5,-766.6666666666666,112.5,-760,112.5C-753.3333333333334,112.5,-746.6666666666666,112.5,-740,112.5C-733.3333333333334,112.5,-726.6666666666666,112.5,-720,112.5C-713.3333333333334,112.5,-706.6666666666666,112.5,-700,112.5C-693.3333333333334,112.5,-686.6666666666666,112.5,-680,112.5C-673.3333333333334,112.5,-666.6666666666666,112.5,-660,112.5C-653.3333333333334,112.5,-646.6666666666666,112.5,-640,112.5C-633.3333333333334,112.5,-626.6666666666666,112.5,-620,112.5C-613.3333333333334,112.5,-606.6666666666666,112.5,-600,112.5C-593.3333333333334,112.5,-586.6666666666666,112.5,-580,112.5C-576.6666666666666,112.5,-573.3333333333334,112.5,-570,112.5C-566.6666666666666,112.5,-563.3333333333334,96.42857142857143,-560,80.35714285714286" style="stroke: rgb(214, 39, 40); stroke-width: 2; fill: none;"/><path class="linegg timeline hgroup_1" d="M-560,80.35714285714286C-553.3333333333334,80.35714285714286,-546.6666666666666,80.35714285714286,-540,80.35714285714286C-533.3333333333334,80.35714285714286,-526.6666666666666,80.35714285714286,-520,80.35714285714286C-513.3333333333334,80.35714285714286,-506.6666666666667,80.35714285714286,-500,80.35714285714286C-493.3333333333333,80.35714285714286,-486.6666666666667,80.35714285714286,-480,80.35714285714286C-473.3333333333333,80.35714285714286,-466.6666666666667,80.35714285714286,-460,80.35714285714286C-453.3333333333333,80.35714285714286,-446.6666666666667,80.35714285714286,-440,80.35714285714286C-433.3333333333333,80.35714285714286,-426.6666666666667,80.35714285714286,-420,80.35714285714286C-413.3333333333333,80.35714285714286,-406.6666666666667,80.35714285714286,-400,80.35714285714286C-396.6666666666667,80.35714285714286,-393.3333333333333,80.35714285714286,-390,80.35714285714286C-386.6666666666667,80.35714285714286,-383.3333333333333,107.67857142857143,-380,135" style="stroke: rgb(31, 119, 180); stroke-width: 2; fill: none;"/><path class="linegg timeline hgroup_5" d="M-380,135C-373.3333333333333,135,-366.6666666666667,135,-360,135C-353.3333333333333,135,-346.6666666666667,135,-340,135C-333.3333333333333,135,-326.6666666666667,135,-320,135C-313.3333333333333,135,-306.6666666666667,135,-300,135C-293.3333333333333,135,-286.6666666666667,135,-280,135C-273.3333333333333,135,-266.6666666666667,135,-260,135C-253.33333333333334,135,-246.66666666666666,135,-240,135C-233.33333333333334,135,-226.66666666666666,135,-220,135C-213.33333333333334,135,-206.66666666666666,135,-200,135C-193.33333333333334,135,-186.66666666666666,135,-180,135C-173.33333333333334,135,-166.66666666666666,135,-160,135C-153.33333333333334,135,-146.66666666666666,135,-140,135C-133.33333333333334,135,-126.66666666666667,135,-120,135C-113.33333333333333,135,-106.66666666666667,135,-100,135C-93.33333333333333,135,-86.66666666666667,135,-80,135C-73.33333333333333,135,-66.66666666666667,135,-60,135C-53.333333333333336,135,-46.666666666666664,135,-40,135C-33.333333333333336,135,-26.666666666666668,135,-20,135C-13.333333333333332,135,-6.666666666666667,135,0,135" style="stroke: rgb(148, 103, 189); stroke-width: 2; fill: none;"/></g><text class="computeSig_label label" text-anchor="end" dx="-5" dy="0.5rem" fill="black" width="200" transform="translate(-980,112.5)">9</text></g><g class="node computeNode h10 statics" transform="translate(1010,0)" style="pointer-events: auto;"><g class="computeSig" stroke="black" style="stroke-width: 2;"><path class="linegg timeline hgroup_2" d="M-980,45C-973.3333333333334,45,-966.6666666666666,45,-960,45C-953.3333333333334,45,-946.6666666666666,45,-940,45C-933.3333333333334,45,-926.6666666666666,45,-920,45C-916.6666666666666,45,-913.3333333333334,45,-910,45C-906.6666666666666,45,-903.3333333333334,73.92857142857142,-900,102.85714285714285" style="stroke: rgb(255, 127, 14); stroke-width: 2; fill: none;"/><path class="linegg timeline hgroup_4" d="M-900,102.85714285714285C-893.3333333333334,102.85714285714285,-886.6666666666666,102.85714285714285,-880,102.85714285714285C-873.3333333333334,102.85714285714285,-866.6666666666666,102.85714285714285,-860,102.85714285714285C-853.3333333333334,102.85714285714285,-846.6666666666666,102.85714285714285,-840,102.85714285714285C-833.3333333333334,102.85714285714285,-826.6666666666666,102.85714285714285,-820,102.85714285714285C-813.3333333333334,102.85714285714285,-806.6666666666666,102.85714285714285,-800,102.85714285714285C-793.3333333333334,102.85714285714285,-786.6666666666666,102.85714285714285,-780,102.85714285714285C-773.3333333333334,102.85714285714285,-766.6666666666666,102.85714285714285,-760,102.85714285714285C-753.3333333333334,102.85714285714285,-746.6666666666666,102.85714285714285,-740,102.85714285714285C-733.3333333333334,102.85714285714285,-726.6666666666666,102.85714285714285,-720,102.85714285714285C-713.3333333333334,102.85714285714285,-706.6666666666666,102.85714285714285,-700,102.85714285714285C-693.3333333333334,102.85714285714285,-686.6666666666666,102.85714285714285,-680,102.85714285714285C-673.3333333333334,102.85714285714285,-666.6666666666666,102.85714285714285,-660,102.85714285714285C-653.3333333333334,102.85714285714285,-646.6666666666666,102.85714285714285,-640,102.85714285714285C-633.3333333333334,102.85714285714285,-626.6666666666666,102.85714285714285,-620,102.85714285714285C-613.3333333333334,102.85714285714285,-606.6666666666666,102.85714285714285,-600,102.85714285714285C-593.3333333333334,102.85714285714285,-586.6666666666666,102.85714285714285,-580,102.85714285714285C-576.6666666666666,102.85714285714285,-573.3333333333334,102.85714285714285,-570,102.85714285714285C-566.6666666666666,102.85714285714285,-563.3333333333334,73.92857142857142,-560,45" style="stroke: rgb(214, 39, 40); stroke-width: 2; fill: none;"/><path class="linegg timeline hgroup_2" d="M-560,45C-553.3333333333334,45,-546.6666666666666,45,-540,45C-533.3333333333334,45,-526.6666666666666,45,-520,45C-513.3333333333334,45,-506.6666666666667,45,-500,45C-496.6666666666667,45,-493.3333333333333,45,-490,45C-486.6666666666667,45,-483.3333333333333,85.17857142857143,-480,125.35714285714286" style="stroke: rgb(255, 127, 14); stroke-width: 2; fill: none;"/><path class="linegg timeline hgroup_5" d="M-480,125.35714285714286C-473.3333333333333,125.35714285714286,-466.6666666666667,125.35714285714286,-460,125.35714285714286C-456.6666666666667,125.35714285714286,-453.3333333333333,125.35714285714286,-450,125.35714285714286C-446.6666666666667,125.35714285714286,-443.3333333333333,114.10714285714286,-440,102.85714285714285" style="stroke: rgb(148, 103, 189); stroke-width: 2; fill: none;"/><path class="linegg timeline hgroup_4" d="M-440,102.85714285714285C-433.3333333333333,102.85714285714285,-426.6666666666667,102.85714285714285,-420,102.85714285714285C-413.3333333333333,102.85714285714285,-406.6666666666667,102.85714285714285,-400,102.85714285714285C-393.3333333333333,102.85714285714285,-386.6666666666667,102.85714285714285,-380,102.85714285714285C-376.6666666666667,102.85714285714285,-373.3333333333333,102.85714285714285,-370,102.85714285714285C-366.6666666666667,102.85714285714285,-363.3333333333333,73.92857142857142,-360,45" style="stroke: rgb(214, 39, 40); stroke-width: 2; fill: none;"/><path class="linegg timeline hgroup_2" d="M-360,45C-353.3333333333333,45,-346.6666666666667,45,-340,45C-333.3333333333333,45,-326.6666666666667,45,-320,45C-313.3333333333333,45,-306.6666666666667,45,-300,45C-293.3333333333333,45,-286.6666666666667,45,-280,45C-276.6666666666667,45,-273.3333333333333,45,-270,45C-266.6666666666667,45,-263.3333333333333,57.85714285714286,-260,70.71428571428572" style="stroke: rgb(255, 127, 14); stroke-width: 2; fill: none;"/><path class="linegg timeline hgroup_1" d="M-260,70.71428571428572C-253.33333333333334,70.71428571428572,-246.66666666666666,70.71428571428572,-240,70.71428571428572C-233.33333333333334,70.71428571428572,-226.66666666666666,70.71428571428572,-220,70.71428571428572C-213.33333333333334,70.71428571428572,-206.66666666666666,70.71428571428572,-200,70.71428571428572C-193.33333333333334,70.71428571428572,-186.66666666666666,70.71428571428572,-180,70.71428571428572C-173.33333333333334,70.71428571428572,-166.66666666666666,70.71428571428572,-160,70.71428571428572C-156.66666666666666,70.71428571428572,-153.33333333333334,70.71428571428572,-150,70.71428571428572C-146.66666666666666,70.71428571428572,-143.33333333333334,57.85714285714286,-140,45" style="stroke: rgb(31, 119, 180); stroke-width: 2; fill: none;"/><path class="linegg timeline hgroup_2" d="M-140,45C-133.33333333333334,45,-126.66666666666667,45,-120,45C-113.33333333333333,45,-106.66666666666667,45,-100,45C-93.33333333333333,45,-86.66666666666667,45,-80,45C-73.33333333333333,45,-66.66666666666667,45,-60,45C-53.333333333333336,45,-46.666666666666664,45,-40,45C-33.333333333333336,45,-26.666666666666668,45,-20,45C-13.333333333333332,45,-6.666666666666667,45,0,45" style="stroke: rgb(255, 127, 14); stroke-width: 2; fill: none;"/></g><text class="computeSig_label label" text-anchor="end" dx="-5" dy="0.5rem" fill="black" width="200" transform="translate(-980,45)">10</text></g></g><rect class="fisheyeLayer" style="opacity: 0; pointer-events: none;" width="980" height="180" transform="translate(-680,0)"/><g class="table header" transform="translate(600,0)"><g class="back"><path style="fill: rgb(221, 221, 221);"/></g></g></g><g class="timebox hide" transform="translate(40,20)" dy="1rem" style="font-size: 16px;"/><circle id="tipfollowscursor"/></svg>