<svg id="jobmap" width="1100" height="250" style="fill: none; font-size: 10px; font-family: sans-serif;" xmlns="http://www.w3.org/2000/svg" xmlns:xlink="http://www.w3.org/1999/xlink">

                    <defs id="defsmain"><pattern id="userpic" width="100%" height="100%" patternContentUnits="objectBoundingBox"><image height="1" width="1" preserveAspectRatio="none" xmlns:xlink="http://www.w3.org/1999/xlink" xlink:href="src/images/u.png"/></pattern><marker id="arrow" markerWidth="10" markerHeight="10" refX="0" refY="3" orient="auto" markerUnits="strokeWidth"><path d="M0,0 L0,6 L9,3 z" style="fill: black;"/></marker></defs><rect class="pantarget" opacity="0" width="1146" height="762"/><g class="pannel" transform="translate(50,50)"><text class="Time" text-anchor="middle" x="40" dy="-30" style="font-weight: bold; fill: black;">Time</text><line x1="60" x2="95" y1="-33" y2="-33" marker-end="url(#arrow)" style="stroke: black;"/><text class="Time" text-anchor="middle" x="-5" dy="-1rem" style="font-weight: bold; fill: black;">Instance</text><line x1="5" x2="5" y1="-5" y2="30" marker-end="url(#arrow)" style="stroke: black;"/><g class="gNodeaxis" transform="translate(1010,-10)"><g class="gMainaxis" fill="none" font-size="10" font-family="sans-serif" text-anchor="middle"><g class="tick" opacity="1" transform="translate(-980, 0)"><line stroke="#000" y2="145" vector-effect="non-scaling-stroke" style="stroke-width: 0.1; stroke: black; stroke-dasharray: 1, 2; opacity: 0.5;"/><text fill="#000" y="-3" dy="-0.5rem">1</text></g><g class="tick" opacity="1" transform="translate(-960, 0)"><line stroke="#000" y2="145" vector-effect="non-scaling-stroke" style="stroke-width: 0.1; stroke: black; stroke-dasharray: 1, 2; opacity: 0.5;"/><text fill="#000" y="-3" dy="-0.5rem">2</text></g><g class="tick" opacity="1" transform="translate(-940, 0)"><line stroke="#000" y2="145" vector-effect="non-scaling-stroke" style="stroke-width: 0.1; stroke: black; stroke-dasharray: 1, 2; opacity: 0.5;"/><text fill="#000" y="-3" dy="-0.5rem">3</text></g><g class="tick" opacity="1" transform="translate(-920, 0)"><line stroke="#000" y2="145" vector-effect="non-scaling-stroke" style="stroke-width: 0.1; stroke: black; stroke-dasharray: 1, 2; opacity: 0.5;"/><text fill="#000" y="-3" dy="-0.5rem">4</text></g><g class="tick" opacity="1" transform="translate(-900, 0)"><line stroke="#000" y2="145" vector-effect="non-scaling-stroke" style="stroke-width: 0.1; stroke: black; stroke-dasharray: 1, 2; opacity: 0.5;"/><text fill="#000" y="-3" dy="-0.5rem">5</text></g><g class="tick" opacity="1" transform="translate(-880, 0)"><line stroke="#000" y2="145" vector-effect="non-scaling-stroke" style="stroke-width: 0.1; stroke: black; stroke-dasharray: 1, 2; opacity: 0.5;"/><text fill="#000" y="-3" dy="-0.5rem">6</text></g><g class="tick" opacity="1" transform="translate(-860, 0)"><line stroke="#000" y2="145" vector-effect="non-scaling-stroke" style="stroke-width: 0.1; stroke: black; stroke-dasharray: 1, 2; opacity: 0.5;"/><text fill="#000" y="-3" dy="-0.5rem">7</text></g><g class="tick" opacity="1" transform="translate(-840, 0)"><line stroke="#000" y2="145" vector-effect="non-scaling-stroke" style="stroke-width: 0.1; stroke: black; stroke-dasharray: 1, 2; opacity: 0.5;"/><text fill="#000" y="-3" dy="-0.5rem">8</text></g><g class="tick" opacity="1" transform="translate(-820, 0)"><line stroke="#000" y2="145" vector-effect="non-scaling-stroke" style="stroke-width: 0.1; stroke: black; stroke-dasharray: 1, 2; opacity: 0.5;"/><text fill="#000" y="-3" dy="-0.5rem">9</text></g><g class="tick" opacity="1" transform="translate(-800, 0)"><line stroke="#000" y2="145" vector-effect="non-scaling-stroke" style="stroke-width: 0.1; stroke: black; stroke-dasharray: 1, 2; opacity: 0.5;"/><text fill="#000" y="-3" dy="-0.5rem">10</text></g><g class="tick" opacity="1" transform="translate(-780, 0)"><line stroke="#000" y2="145" vector-effect="non-scaling-stroke" style="stroke-width: 0.1; stroke: black; stroke-dasharray: 1, 2; opacity: 0.5;"/><text fill="#000" y="-3" dy="-0.5rem">11</text></g><g class="tick" opacity="1" transform="translate(-760, 0)"><line stroke="#000" y2="145" vector-effect="non-scaling-stroke" style="stroke-width: 0.1; stroke: black; stroke-dasharray: 1, 2; opacity: 0.5;"/><text fill="#000" y="-3" dy="-0.5rem">12</text></g><g class="tick" opacity="1" transform="translate(-740, 0)"><line stroke="#000" y2="145" vector-effect="non-scaling-stroke" style="stroke-width: 0.1; stroke: black; stroke-dasharray: 1, 2; opacity: 0.5;"/><text fill="#000" y="-3" dy="-0.5rem">13</text></g><g class="tick" opacity="1" transform="translate(-720, 0)"><line stroke="#000" y2="145" vector-effect="non-scaling-stroke" style="stroke-width: 0.1; stroke: black; stroke-dasharray: 1, 2; opacity: 0.5;"/><text fill="#000" y="-3" dy="-0.5rem">14</text></g><g class="tick" opacity="1" transform="translate(-700, 0)"><line stroke="#000" y2="145" vector-effect="non-scaling-stroke" style="stroke-width: 0.1; stroke: black; stroke-dasharray: 1, 2; opacity: 0.5;"/><text fill="#000" y="-3" dy="-0.5rem">15</text></g><g class="tick" opacity="1" transform="translate(-680, 0)"><line stroke="#000" y2="145" vector-effect="non-scaling-stroke" style="stroke-width: 0.1; stroke: black; stroke-dasharray: 1, 2; opacity: 0.5;"/><text fill="#000" y="-3" dy="-0.5rem">16</text></g><g class="tick" opacity="1" transform="translate(-660, 0)"><line stroke="#000" y2="145" vector-effect="non-scaling-stroke" style="stroke-width: 0.1; stroke: black; stroke-dasharray: 1, 2; opacity: 0.5;"/><text fill="#000" y="-3" dy="-0.5rem">17</text></g><g class="tick" opacity="1" transform="translate(-640, 0)"><line stroke="#000" y2="145" vector-effect="non-scaling-stroke" style="stroke-width: 0.1; stroke: black; stroke-dasharray: 1, 2; opacity: 0.5;"/><text fill="#000" y="-3" dy="-0.5rem">18</text></g><g class="tick" opacity="1" transform="translate(-620, 0)"><line stroke="#000" y2="145" vector-effect="non-scaling-stroke" style="stroke-width: 0.1; stroke: black; stroke-dasharray: 1, 2; opacity: 0.5;"/><text fill="#000" y="-3" dy="-0.5rem">19</text></g><g class="tick" opacity="1" transform="translate(-600, 0)"><line stroke="#000" y2="145" vector-effect="non-scaling-stroke" style="stroke-width: 0.1; stroke: black; stroke-dasharray: 1, 2; opacity: 0.5;"/><text fill="#000" y="-3" dy="-0.5rem">20</text></g><g class="tick" opacity="1" transform="translate(-580, 0)"><line stroke="#000" y2="145" vector-effect="non-scaling-stroke" style="stroke-width: 0.1; stroke: black; stroke-dasharray: 1, 2; opacity: 0.5;"/><text fill="#000" y="-3" dy="-0.5rem">21</text></g><g class="tick" opacity="1" transform="translate(-560, 0)"><line stroke="#000" y2="145" vector-effect="non-scaling-stroke" style="stroke-width: 0.1; stroke: black; stroke-dasharray: 1, 2; opacity: 0.5;"/><text fill="#000" y="-3" dy="-0.5rem">22</text></g><g class="tick" opacity="1" transform="translate(-540, 0)"><line stroke="#000" y2="145" vector-effect="non-scaling-stroke" style="stroke-width: 0.1; stroke: black; stroke-dasharray: 1, 2; opacity: 0.5;"/><text fill="#000" y="-3" dy="-0.5rem">23</text></g><g class="tick" opacity="1" transform="translate(-520, 0)"><line stroke="#000" y2="145" vector-effect="non-scaling-stroke" style="stroke-width: 0.1; stroke: black; stroke-dasharray: 1, 2; opacity: 0.5;"/><text fill="#000" y="-3" dy="-0.5rem">24</text></g><g class="tick" opacity="1" transform="translate(-500, 0)"><line stroke="#000" y2="145" vector-effect="non-scaling-stroke" style="stroke-width: 0.1; stroke: black; stroke-dasharray: 1, 2; opacity: 0.5;"/><text fill="#000" y="-3" dy="-0.5rem">25</text></g><g class="tick" opacity="1" transform="translate(-480, 0)"><line stroke="#000" y2="145" vector-effect="non-scaling-stroke" style="stroke-width: 0.1; stroke: black; stroke-dasharray: 1, 2; opacity: 0.5;"/><text fill="#000" y="-3" dy="-0.5rem">26</text></g><g class="tick" opacity="1" transform="translate(-460, 0)"><line stroke="#000" y2="145" vector-effect="non-scaling-stroke" style="stroke-width: 0.1; stroke: black; stroke-dasharray: 1, 2; opacity: 0.5;"/><text fill="#000" y="-3" dy="-0.5rem">27</text></g><g class="tick" opacity="1" transform="translate(-440, 0)"><line stroke="#000" y2="145" vector-effect="non-scaling-stroke" style="stroke-width: 0.1; stroke: black; stroke-dasharray: 1, 2; opacity: 0.5;"/><text fill="#000" y="-3" dy="-0.5rem">28</text></g><g class="tick" opacity="1" transform="translate(-420, 0)"><line stroke="#000" y2="145" vector-effect="non-scaling-stroke" style="stroke-width: 0.1; stroke: black; stroke-dasharray: 1, 2; opacity: 0.5;"/><text fill="#000" y="-3" dy="-0.5rem">29</text></g><g class="tick" opacity="1" transform="translate(-400, 0)"><line stroke="#000" y2="145" vector-effect="non-scaling-stroke" style="stroke-width: 0.1; stroke: black; stroke-dasharray: 1, 2; opacity: 0.5;"/><text fill="#000" y="-3" dy="-0.5rem">30</text></g><g class="tick" opacity="1" transform="translate(-380, 0)"><line stroke="#000" y2="145" vector-effect="non-scaling-stroke" style="stroke-width: 0.1; stroke: black; stroke-dasharray: 1, 2; opacity: 0.5;"/><text fill="#000" y="-3" dy="-0.5rem">31</text></g><g class="tick" opacity="1" transform="translate(-360, 0)"><line stroke="#000" y2="145" vector-effect="non-scaling-stroke" style="stroke-width: 0.1; stroke: black; stroke-dasharray: 1, 2; opacity: 0.5;"/><text fill="#000" y="-3" dy="-0.5rem">32</text></g><g class="tick" opacity="1" transform="translate(-340, 0)"><line stroke="#000" y2="145" vector-effect="non-scaling-stroke" style="stroke-width: 0.1; stroke: black; stroke-dasharray: 1, 2; opacity: 0.5;"/><text fill="#000" y="-3" dy="-0.5rem">33</text></g><g class="tick" opacity="1" transform="translate(-320, 0)"><line stroke="#000" y2="145" vector-effect="non-scaling-stroke" style="stroke-width: 0.1; stroke: black; stroke-dasharray: 1, 2; opacity: 0.5;"/><text fill="#000" y="-3" dy="-0.5rem">34</text></g><g class="tick" opacity="1" transform="translate(-300, 0)"><line stroke="#000" y2="145" vector-effect="non-scaling-stroke" style="stroke-width: 0.1; stroke: black; stroke-dasharray: 1, 2; opacity: 0.5;"/><text fill="#000" y="-3" dy="-0.5rem">35</text></g><g class="tick" opacity="1" transform="translate(-280, 0)"><line stroke="#000" y2="145" vector-effect="non-scaling-stroke" style="stroke-width: 0.1; stroke: black; stroke-dasharray: 1, 2; opacity: 0.5;"/><text fill="#000" y="-3" dy="-0.5rem">36</text></g><g class="tick" opacity="1" transform="translate(-260, 0)"><line stroke="#000" y2="145" vector-effect="non-scaling-stroke" style="stroke-width: 0.1; stroke: black; stroke-dasharray: 1, 2; opacity: 0.5;"/><text fill="#000" y="-3" dy="-0.5rem">37</text></g><g class="tick" opacity="1" transform="translate(-240, 0)"><line stroke="#000" y2="145" vector-effect="non-scaling-stroke" style="stroke-width: 0.1; stroke: black; stroke-dasharray: 1, 2; opacity: 0.5;"/><text fill="#000" y="-3" dy="-0.5rem">38</text></g><g class="tick" opacity="1" transform="translate(-220, 0)"><line stroke="#000" y2="145" vector-effect="non-scaling-stroke" style="stroke-width: 0.1; stroke: black; stroke-dasharray: 1, 2; opacity: 0.5;"/><text fill="#000" y="-3" dy="-0.5rem">39</text></g><g class="tick" opacity="1" transform="translate(-200, 0)"><line stroke="#000" y2="145" vector-effect="non-scaling-stroke" style="stroke-width: 0.1; stroke: black; stroke-dasharray: 1, 2; opacity: 0.5;"/><text fill="#000" y="-3" dy="-0.5rem">40</text></g><g class="tick" opacity="1" transform="translate(-180, 0)"><line stroke="#000" y2="145" vector-effect="non-scaling-stroke" style="stroke-width: 0.1; stroke: black; stroke-dasharray: 1, 2; opacity: 0.5;"/><text fill="#000" y="-3" dy="-0.5rem">41</text></g><g class="tick" opacity="1" transform="translate(-160, 0)"><line stroke="#000" y2="145" vector-effect="non-scaling-stroke" style="stroke-width: 0.1; stroke: black; stroke-dasharray: 1, 2; opacity: 0.5;"/><text fill="#000" y="-3" dy="-0.5rem">42</text></g><g class="tick" opacity="1" transform="translate(-140, 0)"><line stroke="#000" y2="145" vector-effect="non-scaling-stroke" style="stroke-width: 0.1; stroke: black; stroke-dasharray: 1, 2; opacity: 0.5;"/><text fill="#000" y="-3" dy="-0.5rem">43</text></g><g class="tick" opacity="1" transform="translate(-120, 0)"><line stroke="#000" y2="145" vector-effect="non-scaling-stroke" style="stroke-width: 0.1; stroke: black; stroke-dasharray: 1, 2; opacity: 0.5;"/><text fill="#000" y="-3" dy="-0.5rem">44</text></g><g class="tick" opacity="1" transform="translate(-100, 0)"><line stroke="#000" y2="145" vector-effect="non-scaling-stroke" style="stroke-width: 0.1; stroke: black; stroke-dasharray: 1, 2; opacity: 0.5;"/><text fill="#000" y="-3" dy="-0.5rem">45</text></g><g class="tick" opacity="1" transform="translate(-80, 0)"><line stroke="#000" y2="145" vector-effect="non-scaling-stroke" style="stroke-width: 0.1; stroke: black; stroke-dasharray: 1, 2; opacity: 0.5;"/><text fill="#000" y="-3" dy="-0.5rem">46</text></g><g class="tick" opacity="1" transform="translate(-60, 0)"><line stroke="#000" y2="145" vector-effect="non-scaling-stroke" style="stroke-width: 0.1; stroke: black; stroke-dasharray: 1, 2; opacity: 0.5;"/><text fill="#000" y="-3" dy="-0.5rem">47</text></g><g class="tick" opacity="1" transform="translate(-40, 0)"><line stroke="#000" y2="145" vector-effect="non-scaling-stroke" style="stroke-width: 0.1; stroke: black; stroke-dasharray: 1, 2; opacity: 0.5;"/><text fill="#000" y="-3" dy="-0.5rem">48</text></g><g class="tick" opacity="1" transform="translate(-20, 0)"><line stroke="#000" y2="145" vector-effect="non-scaling-stroke" style="stroke-width: 0.1; stroke: black; stroke-dasharray: 1, 2; opacity: 0.5;"/><text fill="#000" y="-3" dy="-0.5rem">49</text></g><g class="tick" opacity="1" transform=""><line stroke="#000" y2="145" vector-effect="non-scaling-stroke" style="stroke-width: 0.1; stroke: black; stroke-dasharray: 1, 2; opacity: 0.5;"/><text fill="#000" y="-3" dy="-0.5rem">50</text></g></g><g class="gSubaxis hide"/></g><g class="annotation"/><g class="linkg"><g class="links" style="display: none;"><path stroke="black" style="stroke-width: 2;"/><text text-anchor="middle">1</text></g><g class="links" style="display: none;"><path stroke="black" style="stroke-width: 2;"/><text text-anchor="middle">1</text></g><g class="links" style="display: none;"><path stroke="black" style="stroke-width: 2;"/><text text-anchor="middle">1</text></g><g class="links" style="display: none;"><path stroke="black" style="stroke-width: 2;"/><text text-anchor="middle">1</text></g><g class="links" style="display: none;"><path stroke="black" style="stroke-width: 2;"/><text text-anchor="middle">1</text></g><g class="links" style="display: none;"><path stroke="black" style="stroke-width: 2;"/><text text-anchor="middle">1</text></g><g class="links" style="display: none;"><path stroke="black" style="stroke-width: 2;"/><text text-anchor="middle">1</text></g><g class="links" style="display: none;"><path stroke="black" style="stroke-width: 2;"/><text text-anchor="middle">1</text></g><g class="links" style="display: none;"><path stroke="black" style="stroke-width: 2;"/><text text-anchor="middle">1</text></g><g class="links" style="display: none;"><path stroke="black" style="stroke-width: 2;"/><text text-anchor="middle">1</text></g><g class="links" style="display: none;"><path stroke="black" style="stroke-width: 2;"/><text text-anchor="middle">1</text></g></g><g class="nodeg"><g class="node computeNode h1 statics" transform="translate(1010,0)" style="pointer-events: auto;"><g class="computeSig" stroke="black" style="stroke-width: 2;"><path class="linegg timeline hgroup_1" d="M-980,128.07692307692307C-973.3333333333334,128.07692307692307,-966.6666666666666,128.07692307692307,-960,128.07692307692307C-953.3333333333334,128.07692307692307,-946.6666666666666,128.07692307692307,-940,128.07692307692307C-933.3333333333334,128.07692307692307,-926.6666666666666,128.07692307692307,-920,128.07692307692307C-913.3333333333334,128.07692307692307,-906.6666666666666,128.07692307692307,-900,128.07692307692307C-893.3333333333334,128.07692307692307,-886.6666666666666,128.07692307692307,-880,128.07692307692307C-876.6666666666666,128.07692307692307,-873.3333333333334,128.07692307692307,-870,128.07692307692307C-866.6666666666666,128.07692307692307,-863.3333333333334,102.11538461538461,-860,76.15384615384615" style="stroke: rgb(31, 119, 180); stroke-width: 2; fill: none;"/><path class="linegg timeline hgroup_4" d="M-860,76.15384615384615C-853.3333333333334,76.15384615384615,-846.6666666666666,76.15384615384615,-840,76.15384615384615C-833.3333333333334,76.15384615384615,-826.6666666666666,76.15384615384615,-820,76.15384615384615C-813.3333333333334,76.15384615384615,-806.6666666666666,76.15384615384615,-800,76.15384615384615C-793.3333333333334,76.15384615384615,-786.6666666666666,76.15384615384615,-780,76.15384615384615C-773.3333333333334,76.15384615384615,-766.6666666666666,76.15384615384615,-760,76.15384615384615C-753.3333333333334,76.15384615384615,-746.6666666666666,76.15384615384615,-740,76.15384615384615C-733.3333333333334,76.15384615384615,-726.6666666666666,76.15384615384615,-720,76.15384615384615C-713.3333333333334,76.15384615384615,-706.6666666666666,76.15384615384615,-700,76.15384615384615C-693.3333333333334,76.15384615384615,-686.6666666666666,76.15384615384615,-680,76.15384615384615C-673.3333333333334,76.15384615384615,-666.6666666666666,76.15384615384615,-660,76.15384615384615C-653.3333333333334,76.15384615384615,-646.6666666666666,76.15384615384615,-640,76.15384615384615C-633.3333333333334,76.15384615384615,-626.6666666666666,76.15384615384615,-620,76.15384615384615C-613.3333333333334,76.15384615384615,-606.6666666666666,76.15384615384615,-600,76.15384615384615C-596.6666666666666,76.15384615384615,-593.3333333333334,76.15384615384615,-590,76.15384615384615C-586.6666666666666,76.15384615384615,-583.3333333333334,91.73076923076923,-580,107.3076923076923" style="stroke: rgb(214, 39, 40); stroke-width: 2; fill: none;"/><path class="linegg timeline hgroup_2" d="M-580,107.3076923076923C-573.3333333333334,107.3076923076923,-566.6666666666666,107.3076923076923,-560,107.3076923076923C-553.3333333333334,107.3076923076923,-546.6666666666666,107.3076923076923,-540,107.3076923076923C-533.3333333333334,107.3076923076923,-526.6666666666666,107.3076923076923,-520,107.3076923076923C-513.3333333333334,107.3076923076923,-506.6666666666667,107.3076923076923,-500,107.3076923076923C-493.3333333333333,107.3076923076923,-486.6666666666667,107.3076923076923,-480,107.3076923076923C-473.3333333333333,107.3076923076923,-466.6666666666667,107.3076923076923,-460,107.3076923076923C-453.3333333333333,107.3076923076923,-446.6666666666667,107.3076923076923,-440,107.3076923076923C-433.3333333333333,107.3076923076923,-426.6666666666667,107.3076923076923,-420,107.3076923076923C-413.3333333333333,107.3076923076923,-406.6666666666667,107.3076923076923,-400,107.3076923076923C-393.3333333333333,107.3076923076923,-386.6666666666667,107.3076923076923,-380,107.3076923076923C-376.6666666666667,107.3076923076923,-373.3333333333333,107.3076923076923,-370,107.3076923076923C-366.6666666666667,107.3076923076923,-363.3333333333333,91.73076923076923,-360,76.15384615384615" style="stroke: rgb(255, 127, 14); stroke-width: 2; fill: none;"/><path class="linegg timeline hgroup_4" d="M-360,76.15384615384615C-353.3333333333333,76.15384615384615,-346.6666666666667,76.15384615384615,-340,76.15384615384615C-333.3333333333333,76.15384615384615,-326.6666666666667,76.15384615384615,-320,76.15384615384615C-313.3333333333333,76.15384615384615,-306.6666666666667,76.15384615384615,-300,76.15384615384615C-293.3333333333333,76.15384615384615,-286.6666666666667,76.15384615384615,-280,76.15384615384615C-273.3333333333333,76.15384615384615,-266.6666666666667,76.15384615384615,-260,76.15384615384615C-253.33333333333334,76.15384615384615,-246.66666666666666,76.15384615384615,-240,76.15384615384615C-233.33333333333334,76.15384615384615,-226.66666666666666,76.15384615384615,-220,76.15384615384615C-213.33333333333334,76.15384615384615,-206.66666666666666,76.15384615384615,-200,76.15384615384615C-193.33333333333334,76.15384615384615,-186.66666666666666,76.15384615384615,-180,76.15384615384615C-173.33333333333334,76.15384615384615,-166.66666666666666,76.15384615384615,-160,76.15384615384615C-153.33333333333334,76.15384615384615,-146.66666666666666,76.15384615384615,-140,76.15384615384615C-133.33333333333334,76.15384615384615,-126.66666666666667,76.15384615384615,-120,76.15384615384615C-116.66666666666667,76.15384615384615,-113.33333333333333,76.15384615384615,-110,76.15384615384615C-106.66666666666667,76.15384615384615,-103.33333333333333,91.73076923076923,-100,107.3076923076923" style="stroke: rgb(214, 39, 40); stroke-width: 2; fill: none;"/><path class="linegg timeline hgroup_2" d="M-100,107.3076923076923C-93.33333333333333,107.3076923076923,-86.66666666666667,107.3076923076923,-80,107.3076923076923C-73.33333333333333,107.3076923076923,-66.66666666666667,107.3076923076923,-60,107.3076923076923C-53.333333333333336,107.3076923076923,-46.666666666666664,107.3076923076923,-40,107.3076923076923C-33.333333333333336,107.3076923076923,-26.666666666666668,107.3076923076923,-20,107.3076923076923C-13.333333333333332,107.3076923076923,-6.666666666666667,107.3076923076923,0,107.3076923076923" style="stroke: rgb(255, 127, 14); stroke-width: 2; fill: none;"/></g><text class="computeSig_label label" text-anchor="end" dx="-5" dy="0.5rem" fill="black" width="200" transform="translate(-980,128.07692307692307)">1</text></g><g class="node computeNode h2 statics" transform="translate(1010,0)" style="pointer-events: auto;"><g class="computeSig" stroke="black" style="stroke-width: 2;"><path class="linegg timeline hgroup_2" d="M-980,96.92307692307692C-973.3333333333334,96.92307692307692,-966.6666666666666,96.92307692307692,-960,96.92307692307692C-953.3333333333334,96.92307692307692,-946.6666666666666,96.92307692307692,-940,96.92307692307692C-933.3333333333334,96.92307692307692,-926.6666666666666,96.92307692307692,-920,96.92307692307692C-913.3333333333334,96.92307692307692,-906.6666666666666,96.92307692307692,-900,96.92307692307692C-893.3333333333334,96.92307692307692,-886.6666666666666,96.92307692307692,-880,96.92307692307692C-873.3333333333334,96.92307692307692,-866.6666666666666,96.92307692307692,-860,96.92307692307692C-856.6666666666666,96.92307692307692,-853.3333333333334,96.92307692307692,-850,96.92307692307692C-846.6666666666666,96.92307692307692,-843.3333333333334,67.5,-840,38.07692307692307" style="stroke: rgb(255, 127, 14); stroke-width: 2; fill: none;"/><path class="linegg timeline hgroup_3" d="M-840,38.07692307692307C-833.3333333333334,38.07692307692307,-826.6666666666666,38.07692307692307,-820,38.07692307692307C-813.3333333333334,38.07692307692307,-806.6666666666666,38.07692307692307,-800,38.07692307692307C-793.3333333333334,38.07692307692307,-786.6666666666666,38.07692307692307,-780,38.07692307692307C-773.3333333333334,38.07692307692307,-766.6666666666666,38.07692307692307,-760,38.07692307692307C-756.6666666666666,38.07692307692307,-753.3333333333334,38.07692307692307,-750,38.07692307692307C-746.6666666666666,38.07692307692307,-743.3333333333334,67.5,-740,96.92307692307692" style="stroke: rgb(44, 160, 44); stroke-width: 2; fill: none;"/><path class="linegg timeline hgroup_2" d="M-740,96.92307692307692C-733.3333333333334,96.92307692307692,-726.6666666666666,96.92307692307692,-720,96.92307692307692C-713.3333333333334,96.92307692307692,-706.6666666666666,96.92307692307692,-700,96.92307692307692C-693.3333333333334,96.92307692307692,-686.6666666666666,96.92307692307692,-680,96.92307692307692C-673.3333333333334,96.92307692307692,-666.6666666666666,96.92307692307692,-660,96.92307692307692C-653.3333333333334,96.92307692307692,-646.6666666666666,96.92307692307692,-640,96.92307692307692C-633.3333333333334,96.92307692307692,-626.6666666666666,96.92307692307692,-620,96.92307692307692C-616.6666666666666,96.92307692307692,-613.3333333333334,96.92307692307692,-610,96.92307692307692C-606.6666666666666,96.92307692307692,-603.3333333333334,110.76923076923077,-600,124.61538461538463" style="stroke: rgb(255, 127, 14); stroke-width: 2; fill: none;"/><path class="linegg timeline hgroup_1" d="M-600,124.61538461538463C-593.3333333333334,124.61538461538463,-586.6666666666666,124.61538461538463,-580,124.61538461538463C-573.3333333333334,124.61538461538463,-566.6666666666666,124.61538461538463,-560,124.61538461538463C-553.3333333333334,124.61538461538463,-546.6666666666666,124.61538461538463,-540,124.61538461538463C-533.3333333333334,124.61538461538463,-526.6666666666666,124.61538461538463,-520,124.61538461538463C-513.3333333333334,124.61538461538463,-506.6666666666667,124.61538461538463,-500,124.61538461538463C-493.3333333333333,124.61538461538463,-486.6666666666667,124.61538461538463,-480,124.61538461538463C-473.3333333333333,124.61538461538463,-466.6666666666667,124.61538461538463,-460,124.61538461538463C-453.3333333333333,124.61538461538463,-446.6666666666667,124.61538461538463,-440,124.61538461538463C-433.3333333333333,124.61538461538463,-426.6666666666667,124.61538461538463,-420,124.61538461538463C-416.6666666666667,124.61538461538463,-413.3333333333333,124.61538461538463,-410,124.61538461538463C-406.6666666666667,124.61538461538463,-403.3333333333333,95.1923076923077,-400,65.76923076923077" style="stroke: rgb(31, 119, 180); stroke-width: 2; fill: none;"/><path class="linegg timeline hgroup_4" d="M-400,65.76923076923077C-396.6666666666667,65.76923076923077,-393.3333333333333,65.76923076923077,-390,65.76923076923077C-386.6666666666667,65.76923076923077,-383.3333333333333,51.92307692307692,-380,38.07692307692307" style="stroke: rgb(214, 39, 40); stroke-width: 2;"/><path class="linegg timeline hgroup_3" d="M-380,38.07692307692307C-376.6666666666667,38.07692307692307,-373.3333333333333,38.07692307692307,-370,38.07692307692307C-366.6666666666667,38.07692307692307,-363.3333333333333,25.96153846153846,-360,13.846153846153845" style="stroke: rgb(44, 160, 44); stroke-width: 2;"/><path class="linegg timeline hgroup_5" d="M-360,13.846153846153845C-353.3333333333333,13.846153846153845,-346.6666666666667,13.846153846153845,-340,13.846153846153845C-333.3333333333333,13.846153846153845,-326.6666666666667,13.846153846153845,-320,13.846153846153845C-313.3333333333333,13.846153846153845,-306.6666666666667,13.846153846153845,-300,13.846153846153845C-293.3333333333333,13.846153846153845,-286.6666666666667,13.846153846153845,-280,13.846153846153845C-273.3333333333333,13.846153846153845,-266.6666666666667,13.846153846153845,-260,13.846153846153845C-253.33333333333334,13.846153846153845,-246.66666666666666,13.846153846153845,-240,13.846153846153845C-233.33333333333334,13.846153846153845,-226.66666666666666,13.846153846153845,-220,13.846153846153845C-213.33333333333334,13.846153846153845,-206.66666666666666,13.846153846153845,-200,13.846153846153845C-193.33333333333334,13.846153846153845,-186.66666666666666,13.846153846153845,-180,13.846153846153845C-173.33333333333334,13.846153846153845,-166.66666666666666,13.846153846153845,-160,13.846153846153845C-153.33333333333334,13.846153846153845,-146.66666666666666,13.846153846153845,-140,13.846153846153845C-133.33333333333334,13.846153846153845,-126.66666666666667,13.846153846153845,-120,13.846153846153845C-113.33333333333333,13.846153846153845,-106.66666666666667,13.846153846153845,-100,13.846153846153845C-93.33333333333333,13.846153846153845,-86.66666666666667,13.846153846153845,-80,13.846153846153845C-73.33333333333333,13.846153846153845,-66.66666666666667,13.846153846153845,-60,13.846153846153845C-53.333333333333336,13.846153846153845,-46.666666666666664,13.846153846153845,-40,13.846153846153845C-33.333333333333336,13.846153846153845,-26.666666666666668,13.846153846153845,-20,13.846153846153845C-13.333333333333332,13.846153846153845,-6.666666666666667,13.846153846153845,0,13.846153846153845" style="stroke: rgb(148, 103, 189); stroke-width: 2; fill: none;"/></g><text class="computeSig_label label" text-anchor="end" dx="-5" dy="0.5rem" fill="black" width="200" transform="translate(-980,96.92307692307692)">2</text></g><g class="node computeNode h3 statics" transform="translate(1010,0)" style="pointer-events: auto;"><g class="computeSig" stroke="black" style="stroke-width: 2;"><path class="linegg timeline hgroup_2" d="M-980,93.46153846153845C-973.3333333333334,93.46153846153845,-966.6666666666666,93.46153846153845,-960,93.46153846153845C-953.3333333333334,93.46153846153845,-946.6666666666666,93.46153846153845,-940,93.46153846153845C-933.3333333333334,93.46153846153845,-926.6666666666666,93.46153846153845,-920,93.46153846153845C-916.6666666666666,93.46153846153845,-913.3333333333334,93.46153846153845,-910,93.46153846153845C-906.6666666666666,93.46153846153845,-903.3333333333334,77.88461538461539,-900,62.307692307692314" style="stroke: rgb(255, 127, 14); stroke-width: 2; fill: none;"/><path class="linegg timeline hgroup_4" d="M-900,62.307692307692314C-893.3333333333334,62.307692307692314,-886.6666666666666,62.307692307692314,-880,62.307692307692314C-873.3333333333334,62.307692307692314,-866.6666666666666,62.307692307692314,-860,62.307692307692314C-853.3333333333334,62.307692307692314,-846.6666666666666,62.307692307692314,-840,62.307692307692314C-833.3333333333334,62.307692307692314,-826.6666666666666,62.307692307692314,-820,62.307692307692314C-813.3333333333334,62.307692307692314,-806.6666666666666,62.307692307692314,-800,62.307692307692314C-793.3333333333334,62.307692307692314,-786.6666666666666,62.307692307692314,-780,62.307692307692314C-773.3333333333334,62.307692307692314,-766.6666666666666,62.307692307692314,-760,62.307692307692314C-753.3333333333334,62.307692307692314,-746.6666666666666,62.307692307692314,-740,62.307692307692314C-733.3333333333334,62.307692307692314,-726.6666666666666,62.307692307692314,-720,62.307692307692314C-713.3333333333334,62.307692307692314,-706.6666666666666,62.307692307692314,-700,62.307692307692314C-693.3333333333334,62.307692307692314,-686.6666666666666,62.307692307692314,-680,62.307692307692314C-673.3333333333334,62.307692307692314,-666.6666666666666,62.307692307692314,-660,62.307692307692314C-653.3333333333334,62.307692307692314,-646.6666666666666,62.307692307692314,-640,62.307692307692314C-633.3333333333334,62.307692307692314,-626.6666666666666,62.307692307692314,-620,62.307692307692314C-613.3333333333334,62.307692307692314,-606.6666666666666,62.307692307692314,-600,62.307692307692314C-593.3333333333334,62.307692307692314,-586.6666666666666,62.307692307692314,-580,62.307692307692314C-573.3333333333334,62.307692307692314,-566.6666666666666,62.307692307692314,-560,62.307692307692314C-553.3333333333334,62.307692307692314,-546.6666666666666,62.307692307692314,-540,62.307692307692314C-533.3333333333334,62.307692307692314,-526.6666666666666,62.307692307692314,-520,62.307692307692314C-513.3333333333334,62.307692307692314,-506.6666666666667,62.307692307692314,-500,62.307692307692314C-493.3333333333333,62.307692307692314,-486.6666666666667,62.307692307692314,-480,62.307692307692314C-473.3333333333333,62.307692307692314,-466.6666666666667,62.307692307692314,-460,62.307692307692314C-453.3333333333333,62.307692307692314,-446.6666666666667,62.307692307692314,-440,62.307692307692314C-433.3333333333333,62.307692307692314,-426.6666666666667,62.307692307692314,-420,62.307692307692314C-413.3333333333333,62.307692307692314,-406.6666666666667,62.307692307692314,-400,62.307692307692314C-393.3333333333333,62.307692307692314,-386.6666666666667,62.307692307692314,-380,62.307692307692314C-376.6666666666667,62.307692307692314,-373.3333333333333,62.307692307692314,-370,62.307692307692314C-366.6666666666667,62.307692307692314,-363.3333333333333,48.46153846153847,-360,34.61538461538461" style="stroke: rgb(214, 39, 40); stroke-width: 2; fill: none;"/><path class="linegg timeline hgroup_3" d="M-360,34.61538461538461C-353.3333333333333,34.61538461538461,-346.6666666666667,34.61538461538461,-340,34.61538461538461C-333.3333333333333,34.61538461538461,-326.6666666666667,34.61538461538461,-320,34.61538461538461C-313.3333333333333,34.61538461538461,-306.6666666666667,34.61538461538461,-300,34.61538461538461C-293.3333333333333,34.61538461538461,-286.6666666666667,34.61538461538461,-280,34.61538461538461C-273.3333333333333,34.61538461538461,-266.6666666666667,34.61538461538461,-260,34.61538461538461C-253.33333333333334,34.61538461538461,-246.66666666666666,34.61538461538461,-240,34.61538461538461C-233.33333333333334,34.61538461538461,-226.66666666666666,34.61538461538461,-220,34.61538461538461C-213.33333333333334,34.61538461538461,-206.66666666666666,34.61538461538461,-200,34.61538461538461C-193.33333333333334,34.61538461538461,-186.66666666666666,34.61538461538461,-180,34.61538461538461C-173.33333333333334,34.61538461538461,-166.66666666666666,34.61538461538461,-160,34.61538461538461C-153.33333333333334,34.61538461538461,-146.66666666666666,34.61538461538461,-140,34.61538461538461C-133.33333333333334,34.61538461538461,-126.66666666666667,34.61538461538461,-120,34.61538461538461C-113.33333333333333,34.61538461538461,-106.66666666666667,34.61538461538461,-100,34.61538461538461C-93.33333333333333,34.61538461538461,-86.66666666666667,34.61538461538461,-80,34.61538461538461C-73.33333333333333,34.61538461538461,-66.66666666666667,34.61538461538461,-60,34.61538461538461C-53.333333333333336,34.61538461538461,-46.666666666666664,34.61538461538461,-40,34.61538461538461C-33.333333333333336,34.61538461538461,-26.666666666666668,34.61538461538461,-20,34.61538461538461C-13.333333333333332,34.61538461538461,-6.666666666666667,34.61538461538461,0,34.61538461538461" style="stroke: rgb(44, 160, 44); stroke-width: 2; fill: none;"/></g><text class="computeSig_label label" text-anchor="end" dx="-5" dy="0.5rem" fill="black" width="200" transform="translate(-980,93.46153846153845)">3</text></g><g class="node computeNode h4 statics" transform="translate(1010,0)" style="pointer-events: auto;"><g class="computeSig" stroke="black" style="stroke-width: 2;"><path class="linegg timeline hgroup_2" d="M-980,110.76923076923076C-976.6666666666666,110.76923076923076,-973.3333333333334,110.76923076923076,-970,110.76923076923076C-966.6666666666666,110.76923076923076,-963.3333333333334,121.15384615384616,-960,131.53846153846155" style="stroke: rgb(255, 127, 14); stroke-width: 2;"/><path class="linegg timeline hgroup_1" d="M-960,131.53846153846155C-953.3333333333334,131.53846153846155,-946.6666666666666,131.53846153846155,-940,131.53846153846155C-933.3333333333334,131.53846153846155,-926.6666666666666,131.53846153846155,-920,131.53846153846155C-913.3333333333334,131.53846153846155,-906.6666666666666,131.53846153846155,-900,131.53846153846155C-893.3333333333334,131.53846153846155,-886.6666666666666,131.53846153846155,-880,131.53846153846155C-873.3333333333334,131.53846153846155,-866.6666666666666,131.53846153846155,-860,131.53846153846155C-853.3333333333334,131.53846153846155,-846.6666666666666,131.53846153846155,-840,131.53846153846155C-833.3333333333334,131.53846153846155,-826.6666666666666,131.53846153846155,-820,131.53846153846155C-813.3333333333334,131.53846153846155,-806.6666666666666,131.53846153846155,-800,131.53846153846155C-793.3333333333334,131.53846153846155,-786.6666666666666,131.53846153846155,-780,131.53846153846155C-773.3333333333334,131.53846153846155,-766.6666666666666,131.53846153846155,-760,131.53846153846155C-753.3333333333334,131.53846153846155,-746.6666666666666,131.53846153846155,-740,131.53846153846155C-733.3333333333334,131.53846153846155,-726.6666666666666,131.53846153846155,-720,131.53846153846155C-713.3333333333334,131.53846153846155,-706.6666666666666,131.53846153846155,-700,131.53846153846155C-693.3333333333334,131.53846153846155,-686.6666666666666,131.53846153846155,-680,131.53846153846155C-673.3333333333334,131.53846153846155,-666.6666666666666,131.53846153846155,-660,131.53846153846155C-653.3333333333334,131.53846153846155,-646.6666666666666,131.53846153846155,-640,131.53846153846155C-633.3333333333334,131.53846153846155,-626.6666666666666,131.53846153846155,-620,131.53846153846155C-613.3333333333334,131.53846153846155,-606.6666666666666,131.53846153846155,-600,131.53846153846155C-593.3333333333334,131.53846153846155,-586.6666666666666,131.53846153846155,-580,131.53846153846155C-573.3333333333334,131.53846153846155,-566.6666666666666,131.53846153846155,-560,131.53846153846155C-553.3333333333334,131.53846153846155,-546.6666666666666,131.53846153846155,-540,131.53846153846155C-533.3333333333334,131.53846153846155,-526.6666666666666,131.53846153846155,-520,131.53846153846155C-513.3333333333334,131.53846153846155,-506.6666666666667,131.53846153846155,-500,131.53846153846155C-493.3333333333333,131.53846153846155,-486.6666666666667,131.53846153846155,-480,131.53846153846155C-476.6666666666667,131.53846153846155,-473.3333333333333,131.53846153846155,-470,131.53846153846155C-466.6666666666667,131.53846153846155,-463.3333333333333,90,-460,48.46153846153846" style="stroke: rgb(31, 119, 180); stroke-width: 2; fill: none;"/><path class="linegg timeline hgroup_3" d="M-460,48.46153846153846C-453.3333333333333,48.46153846153846,-446.6666666666667,48.46153846153846,-440,48.46153846153846C-433.3333333333333,48.46153846153846,-426.6666666666667,48.46153846153846,-420,48.46153846153846C-413.3333333333333,48.46153846153846,-406.6666666666667,48.46153846153846,-400,48.46153846153846C-393.3333333333333,48.46153846153846,-386.6666666666667,48.46153846153846,-380,48.46153846153846C-376.6666666666667,48.46153846153846,-373.3333333333333,48.46153846153846,-370,48.46153846153846C-366.6666666666667,48.46153846153846,-363.3333333333333,64.03846153846153,-360,79.61538461538461" style="stroke: rgb(44, 160, 44); stroke-width: 2; fill: none;"/><path class="linegg timeline hgroup_4" d="M-360,79.61538461538461C-353.3333333333333,79.61538461538461,-346.6666666666667,79.61538461538461,-340,79.61538461538461C-333.3333333333333,79.61538461538461,-326.6666666666667,79.61538461538461,-320,79.61538461538461C-313.3333333333333,79.61538461538461,-306.6666666666667,79.61538461538461,-300,79.61538461538461C-293.3333333333333,79.61538461538461,-286.6666666666667,79.61538461538461,-280,79.61538461538461C-273.3333333333333,79.61538461538461,-266.6666666666667,79.61538461538461,-260,79.61538461538461C-253.33333333333334,79.61538461538461,-246.66666666666666,79.61538461538461,-240,79.61538461538461C-236.66666666666666,79.61538461538461,-233.33333333333334,79.61538461538461,-230,79.61538461538461C-226.66666666666666,79.61538461538461,-223.33333333333334,105.57692307692308,-220,131.53846153846155" style="stroke: rgb(214, 39, 40); stroke-width: 2; fill: none;"/><path class="linegg timeline hgroup_1" d="M-220,131.53846153846155C-213.33333333333334,131.53846153846155,-206.66666666666666,131.53846153846155,-200,131.53846153846155C-193.33333333333334,131.53846153846155,-186.66666666666666,131.53846153846155,-180,131.53846153846155C-173.33333333333334,131.53846153846155,-166.66666666666666,131.53846153846155,-160,131.53846153846155C-153.33333333333334,131.53846153846155,-146.66666666666666,131.53846153846155,-140,131.53846153846155C-133.33333333333334,131.53846153846155,-126.66666666666667,131.53846153846155,-120,131.53846153846155C-113.33333333333333,131.53846153846155,-106.66666666666667,131.53846153846155,-100,131.53846153846155C-96.66666666666667,131.53846153846155,-93.33333333333333,131.53846153846155,-90,131.53846153846155C-86.66666666666667,131.53846153846155,-83.33333333333333,90,-80,48.46153846153846" style="stroke: rgb(31, 119, 180); stroke-width: 2; fill: none;"/><path class="linegg timeline hgroup_3" d="M-80,48.46153846153846C-73.33333333333333,48.46153846153846,-66.66666666666667,48.46153846153846,-60,48.46153846153846C-56.666666666666664,48.46153846153846,-53.333333333333336,48.46153846153846,-50,48.46153846153846C-46.666666666666664,48.46153846153846,-43.333333333333336,90,-40,131.53846153846155" style="stroke: rgb(44, 160, 44); stroke-width: 2; fill: none;"/><path class="linegg timeline hgroup_1" d="M-40,131.53846153846155C-33.333333333333336,131.53846153846155,-26.666666666666668,131.53846153846155,-20,131.53846153846155C-16.666666666666668,131.53846153846155,-13.333333333333334,131.53846153846155,-10,131.53846153846155C-6.666666666666666,131.53846153846155,-3.3333333333333335,90,0,48.46153846153846" style="stroke: rgb(31, 119, 180); stroke-width: 2; fill: none;"/><path class="linegg timeline hgroup_3" d="M0,48.46153846153846Z" style="stroke: rgb(44, 160, 44); stroke-width: 2;"/></g><text class="computeSig_label label" text-anchor="end" dx="-5" dy="0.5rem" fill="black" width="200" transform="translate(-980,110.76923076923076)">4</text></g><g class="node computeNode h5 statics" transform="translate(1010,0)" style="pointer-events: auto;"><g class="computeSig" stroke="black" style="stroke-width: 2;"><path class="linegg timeline hgroup_3" d="M-980,27.692307692307693C-973.3333333333334,27.692307692307693,-966.6666666666666,27.692307692307693,-960,27.692307692307693C-953.3333333333334,27.692307692307693,-946.6666666666666,27.692307692307693,-940,27.692307692307693C-933.3333333333334,27.692307692307693,-926.6666666666666,27.692307692307693,-920,27.692307692307693C-913.3333333333334,27.692307692307693,-906.6666666666666,27.692307692307693,-900,27.692307692307693C-893.3333333333334,27.692307692307693,-886.6666666666666,27.692307692307693,-880,27.692307692307693C-873.3333333333334,27.692307692307693,-866.6666666666666,27.692307692307693,-860,27.692307692307693C-856.6666666666666,27.69230769230769,-853.3333333333334,27.69230769230769,-850,27.69230769230769C-846.6666666666666,27.69230769230769,-843.3333333333334,70.96153846153845,-840,114.23076923076923" style="stroke: rgb(44, 160, 44); stroke-width: 2; fill: none;"/><path class="linegg timeline hgroup_1" d="M-840,114.23076923076923C-836.6666666666666,114.23076923076923,-833.3333333333334,114.23076923076923,-830,114.23076923076923C-826.6666666666666,114.23076923076923,-823.3333333333334,58.84615384615384,-820,3.4615384615384612" style="stroke: rgb(31, 119, 180); stroke-width: 2;"/><path class="linegg timeline hgroup_5" d="M-820,3.46153846153846C-813.3333333333334,3.46153846153846,-806.6666666666666,3.46153846153846,-800,3.46153846153846C-793.3333333333334,3.46153846153846,-786.6666666666666,3.46153846153846,-780,3.46153846153846C-773.3333333333334,3.46153846153846,-766.6666666666666,3.46153846153846,-760,3.46153846153846C-753.3333333333334,3.46153846153846,-746.6666666666666,3.46153846153846,-740,3.46153846153846C-733.3333333333334,3.46153846153846,-726.6666666666666,3.46153846153846,-720,3.46153846153846C-713.3333333333334,3.46153846153846,-706.6666666666666,3.46153846153846,-700,3.46153846153846C-693.3333333333334,3.46153846153846,-686.6666666666666,3.46153846153846,-680,3.46153846153846C-673.3333333333334,3.46153846153846,-666.6666666666666,3.46153846153846,-660,3.46153846153846C-653.3333333333334,3.46153846153846,-646.6666666666666,3.46153846153846,-640,3.46153846153846C-633.3333333333334,3.46153846153846,-626.6666666666666,3.46153846153846,-620,3.46153846153846C-613.3333333333334,3.46153846153846,-606.6666666666666,3.46153846153846,-600,3.46153846153846C-593.3333333333334,3.46153846153846,-586.6666666666666,3.46153846153846,-580,3.46153846153846C-573.3333333333334,3.46153846153846,-566.6666666666666,3.46153846153846,-560,3.46153846153846C-553.3333333333334,3.46153846153846,-546.6666666666666,3.46153846153846,-540,3.46153846153846C-533.3333333333334,3.46153846153846,-526.6666666666666,3.46153846153846,-520,3.46153846153846C-513.3333333333334,3.46153846153846,-506.6666666666667,3.46153846153846,-500,3.46153846153846C-493.3333333333333,3.46153846153846,-486.6666666666667,3.46153846153846,-480,3.46153846153846C-473.3333333333333,3.46153846153846,-466.6666666666667,3.46153846153846,-460,3.46153846153846C-453.3333333333333,3.46153846153846,-446.6666666666667,3.46153846153846,-440,3.46153846153846C-433.3333333333333,3.46153846153846,-426.6666666666667,3.46153846153846,-420,3.46153846153846C-413.3333333333333,3.46153846153846,-406.6666666666667,3.46153846153846,-400,3.46153846153846C-393.3333333333333,3.46153846153846,-386.6666666666667,3.46153846153846,-380,3.46153846153846C-373.3333333333333,3.46153846153846,-366.6666666666667,3.46153846153846,-360,3.46153846153846C-353.3333333333333,3.46153846153846,-346.6666666666667,3.46153846153846,-340,3.46153846153846C-333.3333333333333,3.46153846153846,-326.6666666666667,3.46153846153846,-320,3.46153846153846C-313.3333333333333,3.46153846153846,-306.6666666666667,3.46153846153846,-300,3.46153846153846C-293.3333333333333,3.46153846153846,-286.6666666666667,3.46153846153846,-280,3.46153846153846C-273.3333333333333,3.46153846153846,-266.6666666666667,3.46153846153846,-260,3.46153846153846C-256.6666666666667,3.4615384615384612,-253.33333333333334,3.4615384615384612,-250,3.4615384615384612C-246.66666666666666,3.4615384615384612,-243.33333333333334,15.576923076923075,-240,27.69230769230769" style="stroke: rgb(148, 103, 189); stroke-width: 2; fill: none;"/><path class="linegg timeline hgroup_3" d="M-240,27.692307692307693C-233.33333333333334,27.692307692307693,-226.66666666666666,27.692307692307693,-220,27.692307692307693C-213.33333333333334,27.692307692307693,-206.66666666666666,27.692307692307693,-200,27.692307692307693C-193.33333333333334,27.692307692307693,-186.66666666666666,27.692307692307693,-180,27.692307692307693C-173.33333333333334,27.692307692307693,-166.66666666666666,27.692307692307693,-160,27.692307692307693C-153.33333333333334,27.692307692307693,-146.66666666666666,27.692307692307693,-140,27.692307692307693C-133.33333333333334,27.692307692307693,-126.66666666666667,27.692307692307693,-120,27.692307692307693C-113.33333333333333,27.692307692307693,-106.66666666666667,27.692307692307693,-100,27.692307692307693C-93.33333333333333,27.692307692307693,-86.66666666666667,27.692307692307693,-80,27.692307692307693C-73.33333333333333,27.692307692307693,-66.66666666666667,27.692307692307693,-60,27.692307692307693C-53.333333333333336,27.692307692307693,-46.666666666666664,27.692307692307693,-40,27.692307692307693C-33.333333333333336,27.692307692307693,-26.666666666666668,27.692307692307693,-20,27.692307692307693C-13.333333333333332,27.692307692307693,-6.666666666666667,27.692307692307693,0,27.692307692307693" style="stroke: rgb(44, 160, 44); stroke-width: 2; fill: none;"/></g><text class="computeSig_label label" text-anchor="end" dx="-5" dy="0.5rem" fill="black" width="200" transform="translate(-980,27.69230769230769)">5</text></g><g class="node computeNode h6 statics" transform="translate(1010,0)" style="pointer-events: auto;"><g class="computeSig" stroke="black" style="stroke-width: 2;"><path class="linegg timeline hgroup_2" d="M-980,90C-973.3333333333334,90,-966.6666666666666,90,-960,90C-953.3333333333334,90,-946.6666666666666,90,-940,90C-936.6666666666666,90,-933.3333333333334,90,-930,90C-926.6666666666666,90,-923.3333333333334,74.42307692307692,-920,58.84615384615385" style="stroke: rgb(255, 127, 14); stroke-width: 2; fill: none;"/><path class="linegg timeline hgroup_4" d="M-920,58.84615384615385C-913.3333333333334,58.84615384615385,-906.6666666666666,58.84615384615385,-900,58.84615384615385C-893.3333333333334,58.84615384615385,-886.6666666666666,58.84615384615385,-880,58.84615384615385C-876.6666666666666,58.84615384615385,-873.3333333333334,58.84615384615385,-870,58.84615384615385C-866.6666666666666,58.84615384615385,-863.3333333333334,88.26923076923077,-860,117.6923076923077" style="stroke: rgb(214, 39, 40); stroke-width: 2; fill: none;"/><path class="linegg timeline hgroup_1" d="M-860,117.6923076923077C-853.3333333333334,117.6923076923077,-846.6666666666666,117.6923076923077,-840,117.6923076923077C-836.6666666666666,117.6923076923077,-833.3333333333334,117.6923076923077,-830,117.6923076923077C-826.6666666666666,117.6923076923077,-823.3333333333334,88.26923076923077,-820,58.84615384615385" style="stroke: rgb(31, 119, 180); stroke-width: 2; fill: none;"/><path class="linegg timeline hgroup_4" d="M-820,58.84615384615385C-813.3333333333334,58.84615384615385,-806.6666666666666,58.84615384615385,-800,58.84615384615385C-793.3333333333334,58.84615384615385,-786.6666666666666,58.84615384615385,-780,58.84615384615385C-773.3333333333334,58.84615384615385,-766.6666666666666,58.84615384615385,-760,58.84615384615385C-753.3333333333334,58.84615384615385,-746.6666666666666,58.84615384615385,-740,58.84615384615385C-733.3333333333334,58.84615384615385,-726.6666666666666,58.84615384615385,-720,58.84615384615385C-713.3333333333334,58.84615384615385,-706.6666666666666,58.84615384615385,-700,58.84615384615385C-693.3333333333334,58.84615384615385,-686.6666666666666,58.84615384615385,-680,58.84615384615385C-673.3333333333334,58.84615384615385,-666.6666666666666,58.84615384615385,-660,58.84615384615385C-656.6666666666666,58.84615384615385,-653.3333333333334,58.84615384615385,-650,58.84615384615385C-646.6666666666666,58.84615384615385,-643.3333333333334,74.42307692307692,-640,90" style="stroke: rgb(214, 39, 40); stroke-width: 2; fill: none;"/><path class="linegg timeline hgroup_2" d="M-640,90C-636.6666666666666,90,-633.3333333333334,90,-630,90C-626.6666666666666,90,-623.3333333333334,48.46153846153846,-620,6.9230769230769225" style="stroke: rgb(255, 127, 14); stroke-width: 2;"/><path class="linegg timeline hgroup_5" d="M-620,6.92307692307692C-613.3333333333334,6.92307692307692,-606.6666666666666,6.92307692307692,-600,6.92307692307692C-593.3333333333334,6.92307692307692,-586.6666666666666,6.92307692307692,-580,6.92307692307692C-573.3333333333334,6.92307692307692,-566.6666666666666,6.92307692307692,-560,6.92307692307692C-553.3333333333334,6.92307692307692,-546.6666666666666,6.92307692307692,-540,6.92307692307692C-533.3333333333334,6.92307692307692,-526.6666666666666,6.92307692307692,-520,6.92307692307692C-513.3333333333334,6.92307692307692,-506.6666666666667,6.92307692307692,-500,6.92307692307692C-493.3333333333333,6.92307692307692,-486.6666666666667,6.92307692307692,-480,6.92307692307692C-473.3333333333333,6.92307692307692,-466.6666666666667,6.92307692307692,-460,6.92307692307692C-453.3333333333333,6.92307692307692,-446.6666666666667,6.92307692307692,-440,6.92307692307692C-433.3333333333333,6.92307692307692,-426.6666666666667,6.92307692307692,-420,6.92307692307692C-413.3333333333333,6.92307692307692,-406.6666666666667,6.92307692307692,-400,6.92307692307692C-393.3333333333333,6.92307692307692,-386.6666666666667,6.92307692307692,-380,6.92307692307692C-373.3333333333333,6.92307692307692,-366.6666666666667,6.92307692307692,-360,6.92307692307692C-353.3333333333333,6.92307692307692,-346.6666666666667,6.92307692307692,-340,6.92307692307692C-333.3333333333333,6.92307692307692,-326.6666666666667,6.92307692307692,-320,6.92307692307692C-313.3333333333333,6.92307692307692,-306.6666666666667,6.92307692307692,-300,6.92307692307692C-293.3333333333333,6.92307692307692,-286.6666666666667,6.92307692307692,-280,6.92307692307692C-273.3333333333333,6.92307692307692,-266.6666666666667,6.92307692307692,-260,6.92307692307692C-253.33333333333334,6.92307692307692,-246.66666666666666,6.92307692307692,-240,6.92307692307692C-233.33333333333334,6.92307692307692,-226.66666666666666,6.92307692307692,-220,6.92307692307692C-213.33333333333334,6.92307692307692,-206.66666666666666,6.92307692307692,-200,6.92307692307692C-193.33333333333334,6.92307692307692,-186.66666666666666,6.92307692307692,-180,6.92307692307692C-173.33333333333334,6.92307692307692,-166.66666666666666,6.92307692307692,-160,6.92307692307692C-153.33333333333334,6.92307692307692,-146.66666666666666,6.92307692307692,-140,6.92307692307692C-133.33333333333334,6.92307692307692,-126.66666666666667,6.92307692307692,-120,6.92307692307692C-113.33333333333333,6.92307692307692,-106.66666666666667,6.92307692307692,-100,6.92307692307692C-93.33333333333333,6.92307692307692,-86.66666666666667,6.92307692307692,-80,6.92307692307692C-73.33333333333333,6.92307692307692,-66.66666666666667,6.92307692307692,-60,6.92307692307692C-53.333333333333336,6.92307692307692,-46.666666666666664,6.92307692307692,-40,6.92307692307692C-36.666666666666664,6.9230769230769225,-33.333333333333336,6.9230769230769225,-30,6.9230769230769225C-26.666666666666668,6.9230769230769225,-23.333333333333332,62.3076923076923,-20,117.6923076923077" style="stroke: rgb(148, 103, 189); stroke-width: 2; fill: none;"/><path class="linegg timeline hgroup_1" d="M-20,117.6923076923077L0,117.6923076923077" style="stroke: rgb(31, 119, 180); stroke-width: 2; fill: none;"/></g><text class="computeSig_label label" text-anchor="end" dx="-5" dy="0.5rem" fill="black" width="200" transform="translate(-980,90)">6</text></g><g class="node computeNode h7 statics" transform="translate(1010,0)" style="pointer-events: auto;"><g class="computeSig" stroke="black" style="stroke-width: 2;"><path class="linegg timeline hgroup_3" d="M-980,45C-976.6666666666666,45,-973.3333333333334,45,-970,45C-966.6666666666666,45,-963.3333333333334,58.84615384615385,-960,72.6923076923077" style="stroke: rgb(44, 160, 44); stroke-width: 2;"/><path class="linegg timeline hgroup_4" d="M-960,72.6923076923077C-953.3333333333334,72.6923076923077,-946.6666666666666,72.6923076923077,-940,72.6923076923077C-933.3333333333334,72.6923076923077,-926.6666666666666,72.6923076923077,-920,72.6923076923077C-913.3333333333334,72.6923076923077,-906.6666666666666,72.6923076923077,-900,72.6923076923077C-893.3333333333334,72.6923076923077,-886.6666666666666,72.6923076923077,-880,72.6923076923077C-873.3333333333334,72.6923076923077,-866.6666666666666,72.6923076923077,-860,72.6923076923077C-853.3333333333334,72.6923076923077,-846.6666666666666,72.6923076923077,-840,72.6923076923077C-836.6666666666666,72.6923076923077,-833.3333333333334,72.6923076923077,-830,72.6923076923077C-826.6666666666666,72.6923076923077,-823.3333333333334,88.26923076923077,-820,103.84615384615385" style="stroke: rgb(214, 39, 40); stroke-width: 2; fill: none;"/><path class="linegg timeline hgroup_2" d="M-820,103.84615384615385C-813.3333333333334,103.84615384615385,-806.6666666666666,103.84615384615385,-800,103.84615384615385C-793.3333333333334,103.84615384615385,-786.6666666666666,103.84615384615385,-780,103.84615384615385C-773.3333333333334,103.84615384615385,-766.6666666666666,103.84615384615385,-760,103.84615384615385C-753.3333333333334,103.84615384615385,-746.6666666666666,103.84615384615385,-740,103.84615384615385C-733.3333333333334,103.84615384615385,-726.6666666666666,103.84615384615385,-720,103.84615384615385C-713.3333333333334,103.84615384615385,-706.6666666666666,103.84615384615385,-700,103.84615384615385C-693.3333333333334,103.84615384615385,-686.6666666666666,103.84615384615385,-680,103.84615384615385C-673.3333333333334,103.84615384615385,-666.6666666666666,103.84615384615385,-660,103.84615384615385C-653.3333333333334,103.84615384615385,-646.6666666666666,103.84615384615385,-640,103.84615384615385C-633.3333333333334,103.84615384615385,-626.6666666666666,103.84615384615385,-620,103.84615384615385C-613.3333333333334,103.84615384615385,-606.6666666666666,103.84615384615385,-600,103.84615384615385C-593.3333333333334,103.84615384615385,-586.6666666666666,103.84615384615385,-580,103.84615384615385C-573.3333333333334,103.84615384615385,-566.6666666666666,103.84615384615385,-560,103.84615384615385C-553.3333333333334,103.84615384615385,-546.6666666666666,103.84615384615385,-540,103.84615384615385C-533.3333333333334,103.84615384615385,-526.6666666666666,103.84615384615385,-520,103.84615384615385C-513.3333333333334,103.84615384615385,-506.6666666666667,103.84615384615385,-500,103.84615384615385C-493.3333333333333,103.84615384615385,-486.6666666666667,103.84615384615385,-480,103.84615384615385C-473.3333333333333,103.84615384615385,-466.6666666666667,103.84615384615385,-460,103.84615384615385C-453.3333333333333,103.84615384615385,-446.6666666666667,103.84615384615385,-440,103.84615384615385C-433.3333333333333,103.84615384615385,-426.6666666666667,103.84615384615385,-420,103.84615384615385C-413.3333333333333,103.84615384615385,-406.6666666666667,103.84615384615385,-400,103.84615384615385C-393.3333333333333,103.84615384615385,-386.6666666666667,103.84615384615385,-380,103.84615384615385C-373.3333333333333,103.84615384615385,-366.6666666666667,103.84615384615385,-360,103.84615384615385C-353.3333333333333,103.84615384615385,-346.6666666666667,103.84615384615385,-340,103.84615384615385C-333.3333333333333,103.84615384615385,-326.6666666666667,103.84615384615385,-320,103.84615384615385C-313.3333333333333,103.84615384615385,-306.6666666666667,103.84615384615385,-300,103.84615384615385C-296.6666666666667,103.84615384615385,-293.3333333333333,103.84615384615385,-290,103.84615384615385C-286.6666666666667,103.84615384615385,-283.3333333333333,74.42307692307692,-280,45" style="stroke: rgb(255, 127, 14); stroke-width: 2; fill: none;"/><path class="linegg timeline hgroup_3" d="M-280,45C-273.3333333333333,45,-266.6666666666667,45,-260,45C-253.33333333333334,45,-246.66666666666666,45,-240,45C-236.66666666666666,45,-233.33333333333334,45,-230,45C-226.66666666666666,45,-223.33333333333334,58.84615384615385,-220,72.6923076923077" style="stroke: rgb(44, 160, 44); stroke-width: 2; fill: none;"/><path class="linegg timeline hgroup_4" d="M-220,72.6923076923077C-213.33333333333334,72.6923076923077,-206.66666666666666,72.6923076923077,-200,72.6923076923077C-193.33333333333334,72.6923076923077,-186.66666666666666,72.6923076923077,-180,72.6923076923077C-173.33333333333334,72.6923076923077,-166.66666666666666,72.6923076923077,-160,72.6923076923077C-153.33333333333334,72.6923076923077,-146.66666666666666,72.6923076923077,-140,72.6923076923077C-133.33333333333334,72.6923076923077,-126.66666666666667,72.6923076923077,-120,72.6923076923077C-113.33333333333333,72.6923076923077,-106.66666666666667,72.6923076923077,-100,72.6923076923077C-93.33333333333333,72.6923076923077,-86.66666666666667,72.6923076923077,-80,72.6923076923077C-73.33333333333333,72.6923076923077,-66.66666666666667,72.6923076923077,-60,72.6923076923077C-53.333333333333336,72.6923076923077,-46.666666666666664,72.6923076923077,-40,72.6923076923077C-36.666666666666664,72.6923076923077,-33.333333333333336,72.6923076923077,-30,72.6923076923077C-26.666666666666668,72.6923076923077,-23.333333333333332,88.26923076923077,-20,103.84615384615385" style="stroke: rgb(214, 39, 40); stroke-width: 2; fill: none;"/><path class="linegg timeline hgroup_2" d="M-20,103.84615384615385C-16.666666666666668,103.84615384615385,-13.333333333333334,103.84615384615385,-10,103.84615384615385C-6.666666666666666,103.84615384615385,-3.3333333333333335,62.30769230769231,0,20.76923076923077" style="stroke: rgb(255, 127, 14); stroke-width: 2;"/><path class="linegg timeline hgroup_5" d="M0,20.76923076923077Z" style="stroke: rgb(148, 103, 189); stroke-width: 2;"/></g><text class="computeSig_label label" text-anchor="end" dx="-5" dy="0.5rem" fill="black" width="200" transform="translate(-980,45)">7</text></g><g class="node computeNode h8 statics" transform="translate(1010,0)" style="pointer-events: auto;"><g class="computeSig" stroke="black" style="stroke-width: 2;"><path class="linegg timeline hgroup_4" d="M-980,83.07692307692308C-973.3333333333334,83.07692307692308,-966.6666666666666,83.07692307692308,-960,83.07692307692308C-953.3333333333334,83.07692307692308,-946.6666666666666,83.07692307692308,-940,83.07692307692308C-933.3333333333334,83.07692307692308,-926.6666666666666,83.07692307692308,-920,83.07692307692308C-916.6666666666666,83.07692307692308,-913.3333333333334,83.07692307692308,-910,83.07692307692308C-906.6666666666666,83.07692307692308,-903.3333333333334,67.5,-900,51.92307692307693" style="stroke: rgb(214, 39, 40); stroke-width: 2; fill: none;"/><path class="linegg timeline hgroup_3" d="M-900,51.92307692307693C-893.3333333333334,51.92307692307693,-886.6666666666666,51.92307692307693,-880,51.92307692307693C-873.3333333333334,51.92307692307693,-866.6666666666666,51.92307692307693,-860,51.92307692307693C-853.3333333333334,51.92307692307693,-846.6666666666666,51.92307692307693,-840,51.92307692307693C-833.3333333333334,51.92307692307693,-826.6666666666666,51.92307692307693,-820,51.92307692307693C-813.3333333333334,51.92307692307693,-806.6666666666666,51.92307692307693,-800,51.92307692307693C-793.3333333333334,51.92307692307693,-786.6666666666666,51.92307692307693,-780,51.92307692307693C-773.3333333333334,51.92307692307693,-766.6666666666666,51.92307692307693,-760,51.92307692307693C-756.6666666666666,51.92307692307693,-753.3333333333334,51.92307692307693,-750,51.92307692307693C-746.6666666666666,51.92307692307693,-743.3333333333334,93.46153846153847,-740,135" style="stroke: rgb(44, 160, 44); stroke-width: 2; fill: none;"/><path class="linegg timeline hgroup_1" d="M-740,135C-733.3333333333334,135,-726.6666666666666,135,-720,135C-713.3333333333334,135,-706.6666666666666,135,-700,135C-693.3333333333334,135,-686.6666666666666,135,-680,135C-673.3333333333334,135,-666.6666666666666,135,-660,135C-653.3333333333334,135,-646.6666666666666,135,-640,135C-633.3333333333334,135,-626.6666666666666,135,-620,135C-613.3333333333334,135,-606.6666666666666,135,-600,135C-593.3333333333334,135,-586.6666666666666,135,-580,135C-573.3333333333334,135,-566.6666666666666,135,-560,135C-553.3333333333334,135,-546.6666666666666,135,-540,135C-533.3333333333334,135,-526.6666666666666,135,-520,135C-513.3333333333334,135,-506.6666666666667,135,-500,135C-493.3333333333333,135,-486.6666666666667,135,-480,135C-473.3333333333333,135,-466.6666666666667,135,-460,135C-453.3333333333333,135,-446.6666666666667,135,-440,135C-433.3333333333333,135,-426.6666666666667,135,-420,135C-413.3333333333333,135,-406.6666666666667,135,-400,135C-393.3333333333333,135,-386.6666666666667,135,-380,135C-373.3333333333333,135,-366.6666666666667,135,-360,135C-353.3333333333333,135,-346.6666666666667,135,-340,135C-333.3333333333333,135,-326.6666666666667,135,-320,135C-313.3333333333333,135,-306.6666666666667,135,-300,135C-293.3333333333333,135,-286.6666666666667,135,-280,135C-273.3333333333333,135,-266.6666666666667,135,-260,135C-253.33333333333334,135,-246.66666666666666,135,-240,135C-233.33333333333334,135,-226.66666666666666,135,-220,135C-213.33333333333334,135,-206.66666666666666,135,-200,135C-193.33333333333334,135,-186.66666666666666,135,-180,135C-173.33333333333334,135,-166.66666666666666,135,-160,135C-153.33333333333334,135,-146.66666666666666,135,-140,135C-133.33333333333334,135,-126.66666666666667,135,-120,135C-113.33333333333333,135,-106.66666666666667,135,-100,135C-93.33333333333333,135,-86.66666666666667,135,-80,135C-73.33333333333333,135,-66.66666666666667,135,-60,135C-53.333333333333336,135,-46.666666666666664,135,-40,135C-33.333333333333336,135,-26.666666666666668,135,-20,135C-16.666666666666668,135,-13.333333333333334,135,-10,135C-6.666666666666666,135,-3.3333333333333335,109.03846153846155,0,83.07692307692308" style="stroke: rgb(31, 119, 180); stroke-width: 2; fill: none;"/><path class="linegg timeline hgroup_4" d="M0,83.07692307692308Z" style="stroke: rgb(214, 39, 40); stroke-width: 2;"/></g><text class="computeSig_label label" text-anchor="end" dx="-5" dy="0.5rem" fill="black" width="200" transform="translate(-980,83.07692307692308)">8</text></g><g class="node computeNode h9 statics" transform="translate(1010,0)" style="pointer-events: auto;"><g class="computeSig" stroke="black" style="stroke-width: 2;"><path class="linegg timeline hgroup_5" d="M-980,17.307692307692307C-973.3333333333334,17.307692307692307,-966.6666666666666,17.307692307692307,-960,17.307692307692307C-953.3333333333334,17.307692307692307,-946.6666666666666,17.307692307692307,-940,17.307692307692307C-933.3333333333334,17.307692307692307,-926.6666666666666,17.307692307692307,-920,17.307692307692307C-913.3333333333334,17.307692307692307,-906.6666666666666,17.307692307692307,-900,17.307692307692307C-893.3333333333334,17.307692307692307,-886.6666666666666,17.307692307692307,-880,17.307692307692307C-876.6666666666666,17.307692307692307,-873.3333333333334,17.307692307692307,-870,17.307692307692307C-866.6666666666666,17.307692307692307,-863.3333333333334,43.26923076923076,-860,69.23076923076923" style="stroke: rgb(148, 103, 189); stroke-width: 2; fill: none;"/><path class="linegg timeline hgroup_4" d="M-860,69.23076923076923C-853.3333333333334,69.23076923076923,-846.6666666666666,69.23076923076923,-840,69.23076923076923C-833.3333333333334,69.23076923076923,-826.6666666666666,69.23076923076923,-820,69.23076923076923C-813.3333333333334,69.23076923076923,-806.6666666666666,69.23076923076923,-800,69.23076923076923C-793.3333333333334,69.23076923076923,-786.6666666666666,69.23076923076923,-780,69.23076923076923C-773.3333333333334,69.23076923076923,-766.6666666666666,69.23076923076923,-760,69.23076923076923C-753.3333333333334,69.23076923076923,-746.6666666666666,69.23076923076923,-740,69.23076923076923C-733.3333333333334,69.23076923076923,-726.6666666666666,69.23076923076923,-720,69.23076923076923C-713.3333333333334,69.23076923076923,-706.6666666666666,69.23076923076923,-700,69.23076923076923C-693.3333333333334,69.23076923076923,-686.6666666666666,69.23076923076923,-680,69.23076923076923C-673.3333333333334,69.23076923076923,-666.6666666666666,69.23076923076923,-660,69.23076923076923C-653.3333333333334,69.23076923076923,-646.6666666666666,69.23076923076923,-640,69.23076923076923C-633.3333333333334,69.23076923076923,-626.6666666666666,69.23076923076923,-620,69.23076923076923C-616.6666666666666,69.23076923076923,-613.3333333333334,69.23076923076923,-610,69.23076923076923C-606.6666666666666,69.23076923076923,-603.3333333333334,55.38461538461539,-600,41.53846153846154" style="stroke: rgb(214, 39, 40); stroke-width: 2; fill: none;"/><path class="linegg timeline hgroup_3" d="M-600,41.53846153846155C-593.3333333333334,41.53846153846155,-586.6666666666666,41.53846153846155,-580,41.53846153846155C-573.3333333333334,41.53846153846155,-566.6666666666666,41.53846153846155,-560,41.53846153846155C-553.3333333333334,41.53846153846155,-546.6666666666666,41.53846153846155,-540,41.53846153846155C-536.6666666666666,41.53846153846154,-533.3333333333334,41.53846153846154,-530,41.53846153846154C-526.6666666666666,41.53846153846154,-523.3333333333334,70.96153846153847,-520,100.38461538461539" style="stroke: rgb(44, 160, 44); stroke-width: 2; fill: none;"/><path class="linegg timeline hgroup_2" d="M-520,100.38461538461539C-513.3333333333334,100.38461538461539,-506.6666666666667,100.38461538461539,-500,100.38461538461539C-493.3333333333333,100.38461538461539,-486.6666666666667,100.38461538461539,-480,100.38461538461539C-473.3333333333333,100.38461538461539,-466.6666666666667,100.38461538461539,-460,100.38461538461539C-453.3333333333333,100.38461538461539,-446.6666666666667,100.38461538461539,-440,100.38461538461539C-433.3333333333333,100.38461538461539,-426.6666666666667,100.38461538461539,-420,100.38461538461539C-413.3333333333333,100.38461538461539,-406.6666666666667,100.38461538461539,-400,100.38461538461539C-396.6666666666667,100.38461538461539,-393.3333333333333,100.38461538461539,-390,100.38461538461539C-386.6666666666667,100.38461538461539,-383.3333333333333,70.96153846153847,-380,41.53846153846154" style="stroke: rgb(255, 127, 14); stroke-width: 2; fill: none;"/><path class="linegg timeline hgroup_3" d="M-380,41.53846153846155C-373.3333333333333,41.53846153846155,-366.6666666666667,41.53846153846155,-360,41.53846153846155C-353.3333333333333,41.53846153846155,-346.6666666666667,41.53846153846155,-340,41.53846153846155C-333.3333333333333,41.53846153846155,-326.6666666666667,41.53846153846155,-320,41.53846153846155C-316.6666666666667,41.53846153846154,-313.3333333333333,41.53846153846154,-310,41.53846153846154C-306.6666666666667,41.53846153846154,-303.3333333333333,55.38461538461538,-300,69.23076923076923" style="stroke: rgb(44, 160, 44); stroke-width: 2; fill: none;"/><path class="linegg timeline hgroup_4" d="M-300,69.23076923076923C-293.3333333333333,69.23076923076923,-286.6666666666667,69.23076923076923,-280,69.23076923076923C-273.3333333333333,69.23076923076923,-266.6666666666667,69.23076923076923,-260,69.23076923076923C-253.33333333333334,69.23076923076923,-246.66666666666666,69.23076923076923,-240,69.23076923076923C-233.33333333333334,69.23076923076923,-226.66666666666666,69.23076923076923,-220,69.23076923076923C-213.33333333333334,69.23076923076923,-206.66666666666666,69.23076923076923,-200,69.23076923076923C-193.33333333333334,69.23076923076923,-186.66666666666666,69.23076923076923,-180,69.23076923076923C-173.33333333333334,69.23076923076923,-166.66666666666666,69.23076923076923,-160,69.23076923076923C-156.66666666666666,69.23076923076923,-153.33333333333334,69.23076923076923,-150,69.23076923076923C-146.66666666666666,69.23076923076923,-143.33333333333334,84.8076923076923,-140,100.38461538461539" style="stroke: rgb(214, 39, 40); stroke-width: 2; fill: none;"/><path class="linegg timeline hgroup_2" d="M-140,100.38461538461539C-133.33333333333334,100.38461538461539,-126.66666666666667,100.38461538461539,-120,100.38461538461539C-113.33333333333333,100.38461538461539,-106.66666666666667,100.38461538461539,-100,100.38461538461539C-93.33333333333333,100.38461538461539,-86.66666666666667,100.38461538461539,-80,100.38461538461539C-73.33333333333333,100.38461538461539,-66.66666666666667,100.38461538461539,-60,100.38461538461539C-53.333333333333336,100.38461538461539,-46.666666666666664,100.38461538461539,-40,100.38461538461539C-33.333333333333336,100.38461538461539,-26.666666666666668,100.38461538461539,-20,100.38461538461539C-13.333333333333332,100.38461538461539,-6.666666666666667,100.38461538461539,0,100.38461538461539" style="stroke: rgb(255, 127, 14); stroke-width: 2; fill: none;"/></g><text class="computeSig_label label" text-anchor="end" dx="-5" dy="0.5rem" fill="black" width="200" transform="translate(-980,17.307692307692307)">9</text></g><g class="node computeNode h10 statics" transform="translate(1010,0)" style="pointer-events: auto;"><g class="computeSig" stroke="black" style="stroke-width: 2;"><path class="linegg timeline hgroup_1" d="M-980,121.15384615384616C-973.3333333333334,121.15384615384616,-966.6666666666666,121.15384615384616,-960,121.15384615384616C-953.3333333333334,121.15384615384616,-946.6666666666666,121.15384615384616,-940,121.15384615384616C-933.3333333333334,121.15384615384616,-926.6666666666666,121.15384615384616,-920,121.15384615384616C-913.3333333333334,121.15384615384616,-906.6666666666666,121.15384615384616,-900,121.15384615384616C-893.3333333333334,121.15384615384616,-886.6666666666666,121.15384615384616,-880,121.15384615384616C-873.3333333333334,121.15384615384616,-866.6666666666666,121.15384615384616,-860,121.15384615384616C-853.3333333333334,121.15384615384616,-846.6666666666666,121.15384615384616,-840,121.15384615384616C-833.3333333333334,121.15384615384616,-826.6666666666666,121.15384615384616,-820,121.15384615384616C-813.3333333333334,121.15384615384616,-806.6666666666666,121.15384615384616,-800,121.15384615384616C-793.3333333333334,121.15384615384616,-786.6666666666666,121.15384615384616,-780,121.15384615384616C-773.3333333333334,121.15384615384616,-766.6666666666666,121.15384615384616,-760,121.15384615384616C-753.3333333333334,121.15384615384616,-746.6666666666666,121.15384615384616,-740,121.15384615384616C-733.3333333333334,121.15384615384616,-726.6666666666666,121.15384615384616,-720,121.15384615384616C-713.3333333333334,121.15384615384616,-706.6666666666666,121.15384615384616,-700,121.15384615384616C-696.6666666666666,121.15384615384616,-693.3333333333334,121.15384615384616,-690,121.15384615384616C-686.6666666666666,121.15384615384616,-683.3333333333334,65.76923076923077,-680,10.384615384615385" style="stroke: rgb(31, 119, 180); stroke-width: 2; fill: none;"/><path class="linegg timeline hgroup_5" d="M-680,10.384615384615387C-673.3333333333334,10.384615384615387,-666.6666666666666,10.384615384615387,-660,10.384615384615387C-653.3333333333334,10.384615384615387,-646.6666666666666,10.384615384615387,-640,10.384615384615387C-633.3333333333334,10.384615384615387,-626.6666666666666,10.384615384615387,-620,10.384615384615387C-613.3333333333334,10.384615384615387,-606.6666666666666,10.384615384615387,-600,10.384615384615387C-593.3333333333334,10.384615384615387,-586.6666666666666,10.384615384615387,-580,10.384615384615387C-573.3333333333334,10.384615384615387,-566.6666666666666,10.384615384615387,-560,10.384615384615387C-553.3333333333334,10.384615384615387,-546.6666666666666,10.384615384615387,-540,10.384615384615387C-533.3333333333334,10.384615384615387,-526.6666666666666,10.384615384615387,-520,10.384615384615387C-513.3333333333334,10.384615384615387,-506.6666666666667,10.384615384615387,-500,10.384615384615387C-493.3333333333333,10.384615384615387,-486.6666666666667,10.384615384615387,-480,10.384615384615387C-473.3333333333333,10.384615384615387,-466.6666666666667,10.384615384615387,-460,10.384615384615387C-453.3333333333333,10.384615384615387,-446.6666666666667,10.384615384615387,-440,10.384615384615387C-433.3333333333333,10.384615384615387,-426.6666666666667,10.384615384615387,-420,10.384615384615387C-413.3333333333333,10.384615384615387,-406.6666666666667,10.384615384615387,-400,10.384615384615387C-393.3333333333333,10.384615384615387,-386.6666666666667,10.384615384615387,-380,10.384615384615387C-373.3333333333333,10.384615384615387,-366.6666666666667,10.384615384615387,-360,10.384615384615387C-353.3333333333333,10.384615384615387,-346.6666666666667,10.384615384615387,-340,10.384615384615387C-333.3333333333333,10.384615384615387,-326.6666666666667,10.384615384615387,-320,10.384615384615387C-313.3333333333333,10.384615384615387,-306.6666666666667,10.384615384615387,-300,10.384615384615387C-293.3333333333333,10.384615384615387,-286.6666666666667,10.384615384615387,-280,10.384615384615387C-273.3333333333333,10.384615384615387,-266.6666666666667,10.384615384615387,-260,10.384615384615387C-253.33333333333334,10.384615384615387,-246.66666666666666,10.384615384615387,-240,10.384615384615387C-233.33333333333334,10.384615384615387,-226.66666666666666,10.384615384615387,-220,10.384615384615387C-213.33333333333334,10.384615384615387,-206.66666666666666,10.384615384615387,-200,10.384615384615387C-193.33333333333334,10.384615384615387,-186.66666666666666,10.384615384615387,-180,10.384615384615387C-173.33333333333334,10.384615384615387,-166.66666666666666,10.384615384615387,-160,10.384615384615387C-153.33333333333334,10.384615384615387,-146.66666666666666,10.384615384615387,-140,10.384615384615387C-133.33333333333334,10.384615384615387,-126.66666666666667,10.384615384615387,-120,10.384615384615387C-116.66666666666667,10.384615384615385,-113.33333333333333,10.384615384615385,-110,10.384615384615385C-106.66666666666667,10.384615384615385,-103.33333333333333,20.76923076923077,-100,31.153846153846157" style="stroke: rgb(148, 103, 189); stroke-width: 2; fill: none;"/><path class="linegg timeline hgroup_3" d="M-100,31.15384615384616C-93.33333333333333,31.15384615384616,-86.66666666666667,31.15384615384616,-80,31.15384615384616C-73.33333333333333,31.15384615384616,-66.66666666666667,31.15384615384616,-60,31.15384615384616C-53.333333333333336,31.15384615384616,-46.666666666666664,31.15384615384616,-40,31.15384615384616C-33.333333333333336,31.15384615384616,-26.666666666666668,31.15384615384616,-20,31.15384615384616C-13.333333333333332,31.15384615384616,-6.666666666666667,31.15384615384616,0,31.15384615384616" style="stroke: rgb(44, 160, 44); stroke-width: 2; fill: none;"/></g><text class="computeSig_label label" text-anchor="end" dx="-5" dy="0.5rem" fill="black" width="200" transform="translate(-980,121.15384615384616)">10</text></g></g><rect class="fisheyeLayer" style="opacity: 0; pointer-events: none;" width="980" height="180" transform="translate(-680,0)"/><g class="table header" transform="translate(600,0)"><g class="back"><path style="fill: rgb(221, 221, 221);"/></g></g></g><g class="timebox hide" transform="translate(40,20)" dy="1rem" style="font-size: 16px;"/><circle id="tipfollowscursor"/></svg>