<svg id="jobmap" width="1100" height="250" style="fill: none; font-size: 10px; font-family: sans-serif;" xmlns="http://www.w3.org/2000/svg" xmlns:xlink="http://www.w3.org/1999/xlink">

                    <defs id="defsmain"><pattern id="userpic" width="100%" height="100%" patternContentUnits="objectBoundingBox"><image height="1" width="1" preserveAspectRatio="none" xmlns:xlink="http://www.w3.org/1999/xlink" xlink:href="src/images/u.png"/></pattern><marker id="arrow" markerWidth="10" markerHeight="10" refX="0" refY="3" orient="auto" markerUnits="strokeWidth"><path d="M0,0 L0,6 L9,3 z" style="fill: black;"/></marker></defs><rect class="pantarget" opacity="0" width="1336" height="762"/><g class="pannel" transform="translate(50,50)"><text class="Time" text-anchor="middle" x="40" dy="-30" style="font-weight: bold; fill: black;">Time</text><line x1="60" x2="95" y1="-33" y2="-33" marker-end="url(#arrow)" style="stroke: black;"/><text class="Time" text-anchor="middle" x="-5" dy="-1rem" style="font-weight: bold; fill: black;">Instance</text><line x1="5" x2="5" y1="-5" y2="30" marker-end="url(#arrow)" style="stroke: black;"/><g class="gNodeaxis" transform="translate(1010,-10)"><g class="gMainaxis" fill="none" font-size="10" font-family="sans-serif" text-anchor="middle"><g class="tick" opacity="1" transform="translate(-980, 0)"><line stroke="#000" y2="145" vector-effect="non-scaling-stroke" style="stroke-width: 0.1; stroke: black; stroke-dasharray: 1, 2; opacity: 0.5;"/><text fill="#000" y="-3" dy="-0.5rem">1</text></g><g class="tick" opacity="1" transform="translate(-960, 0)"><line stroke="#000" y2="145" vector-effect="non-scaling-stroke" style="stroke-width: 0.1; stroke: black; stroke-dasharray: 1, 2; opacity: 0.5;"/><text fill="#000" y="-3" dy="-0.5rem">2</text></g><g class="tick" opacity="1" transform="translate(-940, 0)"><line stroke="#000" y2="145" vector-effect="non-scaling-stroke" style="stroke-width: 0.1; stroke: black; stroke-dasharray: 1, 2; opacity: 0.5;"/><text fill="#000" y="-3" dy="-0.5rem">3</text></g><g class="tick" opacity="1" transform="translate(-920, 0)"><line stroke="#000" y2="145" vector-effect="non-scaling-stroke" style="stroke-width: 0.1; stroke: black; stroke-dasharray: 1, 2; opacity: 0.5;"/><text fill="#000" y="-3" dy="-0.5rem">4</text></g><g class="tick" opacity="1" transform="translate(-900, 0)"><line stroke="#000" y2="145" vector-effect="non-scaling-stroke" style="stroke-width: 0.1; stroke: black; stroke-dasharray: 1, 2; opacity: 0.5;"/><text fill="#000" y="-3" dy="-0.5rem">5</text></g><g class="tick" opacity="1" transform="translate(-880, 0)"><line stroke="#000" y2="145" vector-effect="non-scaling-stroke" style="stroke-width: 0.1; stroke: black; stroke-dasharray: 1, 2; opacity: 0.5;"/><text fill="#000" y="-3" dy="-0.5rem">6</text></g><g class="tick" opacity="1" transform="translate(-860, 0)"><line stroke="#000" y2="145" vector-effect="non-scaling-stroke" style="stroke-width: 0.1; stroke: black; stroke-dasharray: 1, 2; opacity: 0.5;"/><text fill="#000" y="-3" dy="-0.5rem">7</text></g><g class="tick" opacity="1" transform="translate(-840, 0)"><line stroke="#000" y2="145" vector-effect="non-scaling-stroke" style="stroke-width: 0.1; stroke: black; stroke-dasharray: 1, 2; opacity: 0.5;"/><text fill="#000" y="-3" dy="-0.5rem">8</text></g><g class="tick" opacity="1" transform="translate(-820, 0)"><line stroke="#000" y2="145" vector-effect="non-scaling-stroke" style="stroke-width: 0.1; stroke: black; stroke-dasharray: 1, 2; opacity: 0.5;"/><text fill="#000" y="-3" dy="-0.5rem">9</text></g><g class="tick" opacity="1" transform="translate(-800, 0)"><line stroke="#000" y2="145" vector-effect="non-scaling-stroke" style="stroke-width: 0.1; stroke: black; stroke-dasharray: 1, 2; opacity: 0.5;"/><text fill="#000" y="-3" dy="-0.5rem">10</text></g><g class="tick" opacity="1" transform="translate(-780, 0)"><line stroke="#000" y2="145" vector-effect="non-scaling-stroke" style="stroke-width: 0.1; stroke: black; stroke-dasharray: 1, 2; opacity: 0.5;"/><text fill="#000" y="-3" dy="-0.5rem">11</text></g><g class="tick" opacity="1" transform="translate(-760, 0)"><line stroke="#000" y2="145" vector-effect="non-scaling-stroke" style="stroke-width: 0.1; stroke: black; stroke-dasharray: 1, 2; opacity: 0.5;"/><text fill="#000" y="-3" dy="-0.5rem">12</text></g><g class="tick" opacity="1" transform="translate(-740, 0)"><line stroke="#000" y2="145" vector-effect="non-scaling-stroke" style="stroke-width: 0.1; stroke: black; stroke-dasharray: 1, 2; opacity: 0.5;"/><text fill="#000" y="-3" dy="-0.5rem">13</text></g><g class="tick" opacity="1" transform="translate(-720, 0)"><line stroke="#000" y2="145" vector-effect="non-scaling-stroke" style="stroke-width: 0.1; stroke: black; stroke-dasharray: 1, 2; opacity: 0.5;"/><text fill="#000" y="-3" dy="-0.5rem">14</text></g><g class="tick" opacity="1" transform="translate(-700, 0)"><line stroke="#000" y2="145" vector-effect="non-scaling-stroke" style="stroke-width: 0.1; stroke: black; stroke-dasharray: 1, 2; opacity: 0.5;"/><text fill="#000" y="-3" dy="-0.5rem">15</text></g><g class="tick" opacity="1" transform="translate(-680, 0)"><line stroke="#000" y2="145" vector-effect="non-scaling-stroke" style="stroke-width: 0.1; stroke: black; stroke-dasharray: 1, 2; opacity: 0.5;"/><text fill="#000" y="-3" dy="-0.5rem">16</text></g><g class="tick" opacity="1" transform="translate(-660, 0)"><line stroke="#000" y2="145" vector-effect="non-scaling-stroke" style="stroke-width: 0.1; stroke: black; stroke-dasharray: 1, 2; opacity: 0.5;"/><text fill="#000" y="-3" dy="-0.5rem">17</text></g><g class="tick" opacity="1" transform="translate(-640, 0)"><line stroke="#000" y2="145" vector-effect="non-scaling-stroke" style="stroke-width: 0.1; stroke: black; stroke-dasharray: 1, 2; opacity: 0.5;"/><text fill="#000" y="-3" dy="-0.5rem">18</text></g><g class="tick" opacity="1" transform="translate(-620, 0)"><line stroke="#000" y2="145" vector-effect="non-scaling-stroke" style="stroke-width: 0.1; stroke: black; stroke-dasharray: 1, 2; opacity: 0.5;"/><text fill="#000" y="-3" dy="-0.5rem">19</text></g><g class="tick" opacity="1" transform="translate(-600, 0)"><line stroke="#000" y2="145" vector-effect="non-scaling-stroke" style="stroke-width: 0.1; stroke: black; stroke-dasharray: 1, 2; opacity: 0.5;"/><text fill="#000" y="-3" dy="-0.5rem">20</text></g><g class="tick" opacity="1" transform="translate(-580, 0)"><line stroke="#000" y2="145" vector-effect="non-scaling-stroke" style="stroke-width: 0.1; stroke: black; stroke-dasharray: 1, 2; opacity: 0.5;"/><text fill="#000" y="-3" dy="-0.5rem">21</text></g><g class="tick" opacity="1" transform="translate(-560, 0)"><line stroke="#000" y2="145" vector-effect="non-scaling-stroke" style="stroke-width: 0.1; stroke: black; stroke-dasharray: 1, 2; opacity: 0.5;"/><text fill="#000" y="-3" dy="-0.5rem">22</text></g><g class="tick" opacity="1" transform="translate(-540, 0)"><line stroke="#000" y2="145" vector-effect="non-scaling-stroke" style="stroke-width: 0.1; stroke: black; stroke-dasharray: 1, 2; opacity: 0.5;"/><text fill="#000" y="-3" dy="-0.5rem">23</text></g><g class="tick" opacity="1" transform="translate(-520, 0)"><line stroke="#000" y2="145" vector-effect="non-scaling-stroke" style="stroke-width: 0.1; stroke: black; stroke-dasharray: 1, 2; opacity: 0.5;"/><text fill="#000" y="-3" dy="-0.5rem">24</text></g><g class="tick" opacity="1" transform="translate(-500, 0)"><line stroke="#000" y2="145" vector-effect="non-scaling-stroke" style="stroke-width: 0.1; stroke: black; stroke-dasharray: 1, 2; opacity: 0.5;"/><text fill="#000" y="-3" dy="-0.5rem">25</text></g><g class="tick" opacity="1" transform="translate(-480, 0)"><line stroke="#000" y2="145" vector-effect="non-scaling-stroke" style="stroke-width: 0.1; stroke: black; stroke-dasharray: 1, 2; opacity: 0.5;"/><text fill="#000" y="-3" dy="-0.5rem">26</text></g><g class="tick" opacity="1" transform="translate(-460, 0)"><line stroke="#000" y2="145" vector-effect="non-scaling-stroke" style="stroke-width: 0.1; stroke: black; stroke-dasharray: 1, 2; opacity: 0.5;"/><text fill="#000" y="-3" dy="-0.5rem">27</text></g><g class="tick" opacity="1" transform="translate(-440, 0)"><line stroke="#000" y2="145" vector-effect="non-scaling-stroke" style="stroke-width: 0.1; stroke: black; stroke-dasharray: 1, 2; opacity: 0.5;"/><text fill="#000" y="-3" dy="-0.5rem">28</text></g><g class="tick" opacity="1" transform="translate(-420, 0)"><line stroke="#000" y2="145" vector-effect="non-scaling-stroke" style="stroke-width: 0.1; stroke: black; stroke-dasharray: 1, 2; opacity: 0.5;"/><text fill="#000" y="-3" dy="-0.5rem">29</text></g><g class="tick" opacity="1" transform="translate(-400, 0)"><line stroke="#000" y2="145" vector-effect="non-scaling-stroke" style="stroke-width: 0.1; stroke: black; stroke-dasharray: 1, 2; opacity: 0.5;"/><text fill="#000" y="-3" dy="-0.5rem">30</text></g><g class="tick" opacity="1" transform="translate(-380, 0)"><line stroke="#000" y2="145" vector-effect="non-scaling-stroke" style="stroke-width: 0.1; stroke: black; stroke-dasharray: 1, 2; opacity: 0.5;"/><text fill="#000" y="-3" dy="-0.5rem">31</text></g><g class="tick" opacity="1" transform="translate(-360, 0)"><line stroke="#000" y2="145" vector-effect="non-scaling-stroke" style="stroke-width: 0.1; stroke: black; stroke-dasharray: 1, 2; opacity: 0.5;"/><text fill="#000" y="-3" dy="-0.5rem">32</text></g><g class="tick" opacity="1" transform="translate(-340, 0)"><line stroke="#000" y2="145" vector-effect="non-scaling-stroke" style="stroke-width: 0.1; stroke: black; stroke-dasharray: 1, 2; opacity: 0.5;"/><text fill="#000" y="-3" dy="-0.5rem">33</text></g><g class="tick" opacity="1" transform="translate(-320, 0)"><line stroke="#000" y2="145" vector-effect="non-scaling-stroke" style="stroke-width: 0.1; stroke: black; stroke-dasharray: 1, 2; opacity: 0.5;"/><text fill="#000" y="-3" dy="-0.5rem">34</text></g><g class="tick" opacity="1" transform="translate(-300, 0)"><line stroke="#000" y2="145" vector-effect="non-scaling-stroke" style="stroke-width: 0.1; stroke: black; stroke-dasharray: 1, 2; opacity: 0.5;"/><text fill="#000" y="-3" dy="-0.5rem">35</text></g><g class="tick" opacity="1" transform="translate(-280, 0)"><line stroke="#000" y2="145" vector-effect="non-scaling-stroke" style="stroke-width: 0.1; stroke: black; stroke-dasharray: 1, 2; opacity: 0.5;"/><text fill="#000" y="-3" dy="-0.5rem">36</text></g><g class="tick" opacity="1" transform="translate(-260, 0)"><line stroke="#000" y2="145" vector-effect="non-scaling-stroke" style="stroke-width: 0.1; stroke: black; stroke-dasharray: 1, 2; opacity: 0.5;"/><text fill="#000" y="-3" dy="-0.5rem">37</text></g><g class="tick" opacity="1" transform="translate(-240, 0)"><line stroke="#000" y2="145" vector-effect="non-scaling-stroke" style="stroke-width: 0.1; stroke: black; stroke-dasharray: 1, 2; opacity: 0.5;"/><text fill="#000" y="-3" dy="-0.5rem">38</text></g><g class="tick" opacity="1" transform="translate(-220, 0)"><line stroke="#000" y2="145" vector-effect="non-scaling-stroke" style="stroke-width: 0.1; stroke: black; stroke-dasharray: 1, 2; opacity: 0.5;"/><text fill="#000" y="-3" dy="-0.5rem">39</text></g><g class="tick" opacity="1" transform="translate(-200, 0)"><line stroke="#000" y2="145" vector-effect="non-scaling-stroke" style="stroke-width: 0.1; stroke: black; stroke-dasharray: 1, 2; opacity: 0.5;"/><text fill="#000" y="-3" dy="-0.5rem">40</text></g><g class="tick" opacity="1" transform="translate(-180, 0)"><line stroke="#000" y2="145" vector-effect="non-scaling-stroke" style="stroke-width: 0.1; stroke: black; stroke-dasharray: 1, 2; opacity: 0.5;"/><text fill="#000" y="-3" dy="-0.5rem">41</text></g><g class="tick" opacity="1" transform="translate(-160, 0)"><line stroke="#000" y2="145" vector-effect="non-scaling-stroke" style="stroke-width: 0.1; stroke: black; stroke-dasharray: 1, 2; opacity: 0.5;"/><text fill="#000" y="-3" dy="-0.5rem">42</text></g><g class="tick" opacity="1" transform="translate(-140, 0)"><line stroke="#000" y2="145" vector-effect="non-scaling-stroke" style="stroke-width: 0.1; stroke: black; stroke-dasharray: 1, 2; opacity: 0.5;"/><text fill="#000" y="-3" dy="-0.5rem">43</text></g><g class="tick" opacity="1" transform="translate(-120, 0)"><line stroke="#000" y2="145" vector-effect="non-scaling-stroke" style="stroke-width: 0.1; stroke: black; stroke-dasharray: 1, 2; opacity: 0.5;"/><text fill="#000" y="-3" dy="-0.5rem">44</text></g><g class="tick" opacity="1" transform="translate(-100, 0)"><line stroke="#000" y2="145" vector-effect="non-scaling-stroke" style="stroke-width: 0.1; stroke: black; stroke-dasharray: 1, 2; opacity: 0.5;"/><text fill="#000" y="-3" dy="-0.5rem">45</text></g><g class="tick" opacity="1" transform="translate(-80, 0)"><line stroke="#000" y2="145" vector-effect="non-scaling-stroke" style="stroke-width: 0.1; stroke: black; stroke-dasharray: 1, 2; opacity: 0.5;"/><text fill="#000" y="-3" dy="-0.5rem">46</text></g><g class="tick" opacity="1" transform="translate(-60, 0)"><line stroke="#000" y2="145" vector-effect="non-scaling-stroke" style="stroke-width: 0.1; stroke: black; stroke-dasharray: 1, 2; opacity: 0.5;"/><text fill="#000" y="-3" dy="-0.5rem">47</text></g><g class="tick" opacity="1" transform="translate(-40, 0)"><line stroke="#000" y2="145" vector-effect="non-scaling-stroke" style="stroke-width: 0.1; stroke: black; stroke-dasharray: 1, 2; opacity: 0.5;"/><text fill="#000" y="-3" dy="-0.5rem">48</text></g><g class="tick" opacity="1" transform="translate(-20, 0)"><line stroke="#000" y2="145" vector-effect="non-scaling-stroke" style="stroke-width: 0.1; stroke: black; stroke-dasharray: 1, 2; opacity: 0.5;"/><text fill="#000" y="-3" dy="-0.5rem">49</text></g><g class="tick" opacity="1" transform=""><line stroke="#000" y2="145" vector-effect="non-scaling-stroke" style="stroke-width: 0.1; stroke: black; stroke-dasharray: 1, 2; opacity: 0.5;"/><text fill="#000" y="-3" dy="-0.5rem">50</text></g></g><g class="gSubaxis hide"/></g><g class="annotation"/><g class="linkg"><g class="links" style="display: none;"><path stroke="black" style="stroke-width: 2;"/><text text-anchor="middle">1</text></g><g class="links" style="display: none;"><path stroke="black" style="stroke-width: 2;"/><text text-anchor="middle">1</text></g><g class="links" style="display: none;"><path stroke="black" style="stroke-width: 2;"/><text text-anchor="middle">1</text></g><g class="links" style="display: none;"><path stroke="black" style="stroke-width: 2;"/><text text-anchor="middle">1</text></g><g class="links" style="display: none;"><path stroke="black" style="stroke-width: 2;"/><text text-anchor="middle">1</text></g><g class="links" style="display: none;"><path stroke="black" style="stroke-width: 2;"/><text text-anchor="middle">1</text></g><g class="links" style="display: none;"><path stroke="black" style="stroke-width: 2;"/><text text-anchor="middle">1</text></g><g class="links" style="display: none;"><path stroke="black" style="stroke-width: 2;"/><text text-anchor="middle">1</text></g><g class="links" style="display: none;"><path stroke="black" style="stroke-width: 2;"/><text text-anchor="middle">1</text></g><g class="links" style="display: none;"><path stroke="black" style="stroke-width: 2;"/><text text-anchor="middle">1</text></g><g class="links" style="display: none;"><path stroke="black" style="stroke-width: 2;"/><text text-anchor="middle">1</text></g></g><g class="nodeg"><g class="node computeNode h1 statics" transform="translate(1010,0)" style="pointer-events: auto;"><g class="computeSig" stroke="black" style="stroke-width: 2;"><path class="linegg timeline hgroup_1" d="M-980,3.13953488372093C-973.3333333333334,3.13953488372093,-966.6666666666666,3.13953488372093,-960,3.13953488372093C-953.3333333333334,3.13953488372093,-946.6666666666666,3.13953488372093,-940,3.13953488372093C-933.3333333333334,3.13953488372093,-926.6666666666666,3.13953488372093,-920,3.13953488372093C-913.3333333333334,3.13953488372093,-906.6666666666666,3.13953488372093,-900,3.13953488372093C-893.3333333333334,3.13953488372093,-886.6666666666666,3.13953488372093,-880,3.13953488372093C-873.3333333333334,3.13953488372093,-866.6666666666666,3.13953488372093,-860,3.13953488372093C-853.3333333333334,3.13953488372093,-846.6666666666666,3.13953488372093,-840,3.13953488372093C-833.3333333333334,3.13953488372093,-826.6666666666666,3.13953488372093,-820,3.13953488372093C-813.3333333333334,3.13953488372093,-806.6666666666666,3.13953488372093,-800,3.13953488372093C-793.3333333333334,3.13953488372093,-786.6666666666666,3.13953488372093,-780,3.13953488372093C-773.3333333333334,3.13953488372093,-766.6666666666666,3.13953488372093,-760,3.13953488372093C-753.3333333333334,3.13953488372093,-746.6666666666666,3.13953488372093,-740,3.13953488372093C-733.3333333333334,3.13953488372093,-726.6666666666666,3.13953488372093,-720,3.13953488372093C-713.3333333333334,3.13953488372093,-706.6666666666666,3.13953488372093,-700,3.13953488372093C-693.3333333333334,3.13953488372093,-686.6666666666666,3.13953488372093,-680,3.13953488372093C-673.3333333333334,3.13953488372093,-666.6666666666666,3.13953488372093,-660,3.13953488372093C-653.3333333333334,3.13953488372093,-646.6666666666666,3.13953488372093,-640,3.13953488372093C-633.3333333333334,3.13953488372093,-626.6666666666666,3.13953488372093,-620,3.13953488372093C-613.3333333333334,3.13953488372093,-606.6666666666666,3.13953488372093,-600,3.13953488372093C-593.3333333333334,3.13953488372093,-586.6666666666666,3.13953488372093,-580,3.13953488372093C-573.3333333333334,3.13953488372093,-566.6666666666666,3.13953488372093,-560,3.13953488372093C-553.3333333333334,3.13953488372093,-546.6666666666666,3.13953488372093,-540,3.13953488372093C-533.3333333333334,3.13953488372093,-526.6666666666666,3.13953488372093,-520,3.13953488372093C-513.3333333333334,3.13953488372093,-506.6666666666667,3.13953488372093,-500,3.13953488372093C-493.3333333333333,3.13953488372093,-486.6666666666667,3.13953488372093,-480,3.13953488372093C-473.3333333333333,3.13953488372093,-466.6666666666667,3.13953488372093,-460,3.13953488372093C-453.3333333333333,3.13953488372093,-446.6666666666667,3.13953488372093,-440,3.13953488372093C-433.3333333333333,3.13953488372093,-426.6666666666667,3.13953488372093,-420,3.13953488372093C-413.3333333333333,3.13953488372093,-406.6666666666667,3.13953488372093,-400,3.13953488372093C-393.3333333333333,3.13953488372093,-386.6666666666667,3.13953488372093,-380,3.13953488372093C-373.3333333333333,3.13953488372093,-366.6666666666667,3.13953488372093,-360,3.13953488372093C-353.3333333333333,3.13953488372093,-346.6666666666667,3.13953488372093,-340,3.13953488372093C-333.3333333333333,3.13953488372093,-326.6666666666667,3.13953488372093,-320,3.13953488372093C-313.3333333333333,3.13953488372093,-306.6666666666667,3.13953488372093,-300,3.13953488372093C-293.3333333333333,3.13953488372093,-286.6666666666667,3.13953488372093,-280,3.13953488372093C-273.3333333333333,3.13953488372093,-266.6666666666667,3.13953488372093,-260,3.13953488372093C-253.33333333333334,3.13953488372093,-246.66666666666666,3.13953488372093,-240,3.13953488372093C-233.33333333333334,3.13953488372093,-226.66666666666666,3.13953488372093,-220,3.13953488372093C-216.66666666666666,3.13953488372093,-213.33333333333334,3.13953488372093,-210,3.13953488372093C-206.66666666666666,3.13953488372093,-203.33333333333334,56.511627906976734,-200,109.88372093023256" style="stroke: rgb(31, 119, 180); stroke-width: 2; fill: none;"/><path class="linegg timeline hgroup_5" d="M-200,109.88372093023256C-193.33333333333334,109.88372093023256,-186.66666666666666,109.88372093023256,-180,109.88372093023256C-173.33333333333334,109.88372093023256,-166.66666666666666,109.88372093023256,-160,109.88372093023256C-153.33333333333334,109.88372093023256,-146.66666666666666,109.88372093023256,-140,109.88372093023256C-133.33333333333334,109.88372093023256,-126.66666666666667,109.88372093023256,-120,109.88372093023256C-113.33333333333333,109.88372093023256,-106.66666666666667,109.88372093023256,-100,109.88372093023256C-93.33333333333333,109.88372093023256,-86.66666666666667,109.88372093023256,-80,109.88372093023256C-73.33333333333333,109.88372093023256,-66.66666666666667,109.88372093023256,-60,109.88372093023256C-53.333333333333336,109.88372093023256,-46.666666666666664,109.88372093023256,-40,109.88372093023256C-33.333333333333336,109.88372093023256,-26.666666666666668,109.88372093023256,-20,109.88372093023256C-13.333333333333332,109.88372093023256,-6.666666666666667,109.88372093023256,0,109.88372093023256" style="stroke: rgb(148, 103, 189); stroke-width: 2; fill: none;"/></g><text class="computeSig_label label" text-anchor="end" dx="-5" dy="0.5rem" fill="black" width="200" transform="translate(-980,3.13953488372093)">1</text></g><g class="node computeNode h2 statics" transform="translate(1010,0)" style="pointer-events: auto;"><g class="computeSig" stroke="black" style="stroke-width: 2;"><path class="linegg timeline hgroup_2" d="M-980,72.20930232558139C-973.3333333333334,72.20930232558139,-966.6666666666666,72.20930232558139,-960,72.20930232558139C-953.3333333333334,72.20930232558139,-946.6666666666666,72.20930232558139,-940,72.20930232558139C-933.3333333333334,72.20930232558139,-926.6666666666666,72.20930232558139,-920,72.20930232558139C-913.3333333333334,72.20930232558139,-906.6666666666666,72.20930232558139,-900,72.20930232558139C-893.3333333333334,72.20930232558139,-886.6666666666666,72.20930232558139,-880,72.20930232558139C-873.3333333333334,72.20930232558139,-866.6666666666666,72.20930232558139,-860,72.20930232558139C-853.3333333333334,72.20930232558139,-846.6666666666666,72.20930232558139,-840,72.20930232558139C-833.3333333333334,72.20930232558139,-826.6666666666666,72.20930232558139,-820,72.20930232558139C-813.3333333333334,72.20930232558139,-806.6666666666666,72.20930232558139,-800,72.20930232558139C-796.6666666666666,72.20930232558139,-793.3333333333334,72.20930232558139,-790,72.20930232558139C-786.6666666666666,72.20930232558139,-783.3333333333334,84.76744186046511,-780,97.32558139534883" style="stroke: rgb(255, 127, 14); stroke-width: 2; fill: none;"/><path class="linegg timeline hgroup_3" d="M-780,97.32558139534883C-773.3333333333334,97.32558139534883,-766.6666666666666,97.32558139534883,-760,97.32558139534883C-753.3333333333334,97.32558139534883,-746.6666666666666,97.32558139534883,-740,97.32558139534883C-733.3333333333334,97.32558139534883,-726.6666666666666,97.32558139534883,-720,97.32558139534883C-713.3333333333334,97.32558139534883,-706.6666666666666,97.32558139534883,-700,97.32558139534883C-693.3333333333334,97.32558139534883,-686.6666666666666,97.32558139534883,-680,97.32558139534883C-673.3333333333334,97.32558139534883,-666.6666666666666,97.32558139534883,-660,97.32558139534883C-653.3333333333334,97.32558139534883,-646.6666666666666,97.32558139534883,-640,97.32558139534883C-633.3333333333334,97.32558139534883,-626.6666666666666,97.32558139534883,-620,97.32558139534883C-613.3333333333334,97.32558139534883,-606.6666666666666,97.32558139534883,-600,97.32558139534883C-593.3333333333334,97.32558139534883,-586.6666666666666,97.32558139534883,-580,97.32558139534883C-573.3333333333334,97.32558139534883,-566.6666666666666,97.32558139534883,-560,97.32558139534883C-553.3333333333334,97.32558139534883,-546.6666666666666,97.32558139534883,-540,97.32558139534883C-533.3333333333334,97.32558139534883,-526.6666666666666,97.32558139534883,-520,97.32558139534883C-513.3333333333334,97.32558139534883,-506.6666666666667,97.32558139534883,-500,97.32558139534883C-493.3333333333333,97.32558139534883,-486.6666666666667,97.32558139534883,-480,97.32558139534883C-473.3333333333333,97.32558139534883,-466.6666666666667,97.32558139534883,-460,97.32558139534883C-453.3333333333333,97.32558139534883,-446.6666666666667,97.32558139534883,-440,97.32558139534883C-433.3333333333333,97.32558139534883,-426.6666666666667,97.32558139534883,-420,97.32558139534883C-413.3333333333333,97.32558139534883,-406.6666666666667,97.32558139534883,-400,97.32558139534883C-396.6666666666667,97.32558139534883,-393.3333333333333,97.32558139534883,-390,97.32558139534883C-386.6666666666667,97.32558139534883,-383.3333333333333,84.76744186046511,-380,72.20930232558139" style="stroke: rgb(44, 160, 44); stroke-width: 2; fill: none;"/><path class="linegg timeline hgroup_2" d="M-380,72.20930232558139C-373.3333333333333,72.20930232558139,-366.6666666666667,72.20930232558139,-360,72.20930232558139C-353.3333333333333,72.20930232558139,-346.6666666666667,72.20930232558139,-340,72.20930232558139C-333.3333333333333,72.20930232558139,-326.6666666666667,72.20930232558139,-320,72.20930232558139C-313.3333333333333,72.20930232558139,-306.6666666666667,72.20930232558139,-300,72.20930232558139C-293.3333333333333,72.20930232558139,-286.6666666666667,72.20930232558139,-280,72.20930232558139C-273.3333333333333,72.20930232558139,-266.6666666666667,72.20930232558139,-260,72.20930232558139C-253.33333333333334,72.20930232558139,-246.66666666666666,72.20930232558139,-240,72.20930232558139C-233.33333333333334,72.20930232558139,-226.66666666666666,72.20930232558139,-220,72.20930232558139C-216.66666666666666,72.20930232558139,-213.33333333333334,72.20930232558139,-210,72.20930232558139C-206.66666666666666,72.20930232558139,-203.33333333333334,47.09302325581395,-200,21.976744186046513" style="stroke: rgb(255, 127, 14); stroke-width: 2; fill: none;"/><path class="linegg timeline hgroup_1" d="M-200,21.976744186046513C-193.33333333333334,21.976744186046513,-186.66666666666666,21.976744186046513,-180,21.976744186046513C-173.33333333333334,21.976744186046513,-166.66666666666666,21.976744186046513,-160,21.976744186046513C-156.66666666666666,21.976744186046513,-153.33333333333334,21.976744186046513,-150,21.976744186046513C-146.66666666666666,21.976744186046513,-143.33333333333334,32.96511627906977,-140,43.95348837209303" style="stroke: rgb(31, 119, 180); stroke-width: 2; fill: none;"/><path class="linegg timeline hgroup_4" d="M-140,43.95348837209303C-136.66666666666666,43.95348837209303,-133.33333333333334,43.95348837209303,-130,43.95348837209303C-126.66666666666667,43.95348837209303,-123.33333333333333,84.76744186046511,-120,125.5813953488372" style="stroke: rgb(214, 39, 40); stroke-width: 2;"/><path class="linegg timeline hgroup_5" d="M-120,125.5813953488372C-113.33333333333333,125.5813953488372,-106.66666666666667,125.5813953488372,-100,125.5813953488372C-93.33333333333333,125.5813953488372,-86.66666666666667,125.5813953488372,-80,125.5813953488372C-73.33333333333333,125.5813953488372,-66.66666666666667,125.5813953488372,-60,125.5813953488372C-53.333333333333336,125.5813953488372,-46.666666666666664,125.5813953488372,-40,125.5813953488372C-33.333333333333336,125.5813953488372,-26.666666666666668,125.5813953488372,-20,125.5813953488372C-13.333333333333332,125.5813953488372,-6.666666666666667,125.5813953488372,0,125.5813953488372" style="stroke: rgb(148, 103, 189); stroke-width: 2; fill: none;"/></g><text class="computeSig_label label" text-anchor="end" dx="-5" dy="0.5rem" fill="black" width="200" transform="translate(-980,72.20930232558139)">2</text></g><g class="node computeNode h3 statics" transform="translate(1010,0)" style="pointer-events: auto;"><g class="computeSig" stroke="black" style="stroke-width: 2;"><path class="linegg timeline hgroup_3" d="M-980,91.04651162790698C-973.3333333333334,91.04651162790698,-966.6666666666666,91.04651162790698,-960,91.04651162790698C-953.3333333333334,91.04651162790698,-946.6666666666666,91.04651162790698,-940,91.04651162790698C-933.3333333333334,91.04651162790698,-926.6666666666666,91.04651162790698,-920,91.04651162790698C-913.3333333333334,91.04651162790698,-906.6666666666666,91.04651162790698,-900,91.04651162790698C-896.6666666666666,91.04651162790698,-893.3333333333334,91.04651162790698,-890,91.04651162790698C-886.6666666666666,91.04651162790698,-883.3333333333334,53.372093023255815,-880,15.69767441860465" style="stroke: rgb(44, 160, 44); stroke-width: 2; fill: none;"/><path class="linegg timeline hgroup_1" d="M-880,15.69767441860465C-873.3333333333334,15.69767441860465,-866.6666666666666,15.69767441860465,-860,15.69767441860465C-853.3333333333334,15.69767441860465,-846.6666666666666,15.69767441860465,-840,15.69767441860465C-833.3333333333334,15.69767441860465,-826.6666666666666,15.69767441860465,-820,15.69767441860465C-813.3333333333334,15.69767441860465,-806.6666666666666,15.69767441860465,-800,15.69767441860465C-793.3333333333334,15.69767441860465,-786.6666666666666,15.69767441860465,-780,15.69767441860465C-773.3333333333334,15.69767441860465,-766.6666666666666,15.69767441860465,-760,15.69767441860465C-753.3333333333334,15.69767441860465,-746.6666666666666,15.69767441860465,-740,15.69767441860465C-733.3333333333334,15.69767441860465,-726.6666666666666,15.69767441860465,-720,15.69767441860465C-713.3333333333334,15.69767441860465,-706.6666666666666,15.69767441860465,-700,15.69767441860465C-693.3333333333334,15.69767441860465,-686.6666666666666,15.69767441860465,-680,15.69767441860465C-673.3333333333334,15.69767441860465,-666.6666666666666,15.69767441860465,-660,15.69767441860465C-653.3333333333334,15.69767441860465,-646.6666666666666,15.69767441860465,-640,15.69767441860465C-633.3333333333334,15.69767441860465,-626.6666666666666,15.69767441860465,-620,15.69767441860465C-616.6666666666666,15.69767441860465,-613.3333333333334,15.69767441860465,-610,15.69767441860465C-606.6666666666666,15.69767441860465,-603.3333333333334,26.686046511627907,-600,37.674418604651166" style="stroke: rgb(31, 119, 180); stroke-width: 2; fill: none;"/><path class="linegg timeline hgroup_4" d="M-600,37.674418604651166C-596.6666666666666,37.674418604651166,-593.3333333333334,37.674418604651166,-590,37.674418604651166C-586.6666666666666,37.674418604651166,-583.3333333333334,78.48837209302326,-580,119.30232558139535" style="stroke: rgb(214, 39, 40); stroke-width: 2;"/><path class="linegg timeline hgroup_5" d="M-580,119.30232558139535C-573.3333333333334,119.30232558139535,-566.6666666666666,119.30232558139535,-560,119.30232558139535C-553.3333333333334,119.30232558139535,-546.6666666666666,119.30232558139535,-540,119.30232558139535C-533.3333333333334,119.30232558139535,-526.6666666666666,119.30232558139535,-520,119.30232558139535C-513.3333333333334,119.30232558139535,-506.6666666666667,119.30232558139535,-500,119.30232558139535C-493.3333333333333,119.30232558139535,-486.6666666666667,119.30232558139535,-480,119.30232558139535C-473.3333333333333,119.30232558139535,-466.6666666666667,119.30232558139535,-460,119.30232558139535C-456.6666666666667,119.30232558139535,-453.3333333333333,119.30232558139535,-450,119.30232558139535C-446.6666666666667,119.30232558139535,-443.3333333333333,78.48837209302326,-440,37.674418604651166" style="stroke: rgb(148, 103, 189); stroke-width: 2; fill: none;"/><path class="linegg timeline hgroup_4" d="M-440,37.674418604651166C-433.3333333333333,37.674418604651166,-426.6666666666667,37.674418604651166,-420,37.674418604651166C-413.3333333333333,37.674418604651166,-406.6666666666667,37.674418604651166,-400,37.674418604651166C-393.3333333333333,37.674418604651166,-386.6666666666667,37.674418604651166,-380,37.674418604651166C-373.3333333333333,37.674418604651166,-366.6666666666667,37.674418604651166,-360,37.674418604651166C-353.3333333333333,37.674418604651166,-346.6666666666667,37.674418604651166,-340,37.674418604651166C-333.3333333333333,37.674418604651166,-326.6666666666667,37.674418604651166,-320,37.674418604651166C-313.3333333333333,37.674418604651166,-306.6666666666667,37.674418604651166,-300,37.674418604651166C-293.3333333333333,37.674418604651166,-286.6666666666667,37.674418604651166,-280,37.674418604651166C-273.3333333333333,37.674418604651166,-266.6666666666667,37.674418604651166,-260,37.674418604651166C-253.33333333333334,37.674418604651166,-246.66666666666666,37.674418604651166,-240,37.674418604651166C-236.66666666666666,37.674418604651166,-233.33333333333334,37.674418604651166,-230,37.674418604651166C-226.66666666666666,37.674418604651166,-223.33333333333334,64.36046511627907,-220,91.04651162790698" style="stroke: rgb(214, 39, 40); stroke-width: 2; fill: none;"/><path class="linegg timeline hgroup_3" d="M-220,91.04651162790698C-216.66666666666666,91.04651162790698,-213.33333333333334,91.04651162790698,-210,91.04651162790698C-206.66666666666666,91.04651162790698,-203.33333333333334,105.17441860465117,-200,119.30232558139535" style="stroke: rgb(44, 160, 44); stroke-width: 2;"/><path class="linegg timeline hgroup_5" d="M-200,119.30232558139535C-193.33333333333334,119.30232558139535,-186.66666666666666,119.30232558139535,-180,119.30232558139535C-173.33333333333334,119.30232558139535,-166.66666666666666,119.30232558139535,-160,119.30232558139535C-153.33333333333334,119.30232558139535,-146.66666666666666,119.30232558139535,-140,119.30232558139535C-133.33333333333334,119.30232558139535,-126.66666666666667,119.30232558139535,-120,119.30232558139535C-113.33333333333333,119.30232558139535,-106.66666666666667,119.30232558139535,-100,119.30232558139535C-96.66666666666667,119.30232558139535,-93.33333333333333,119.30232558139535,-90,119.30232558139535C-86.66666666666667,119.30232558139535,-83.33333333333333,105.17441860465117,-80,91.04651162790698" style="stroke: rgb(148, 103, 189); stroke-width: 2; fill: none;"/><path class="linegg timeline hgroup_3" d="M-80,91.04651162790698C-76.66666666666667,91.04651162790698,-73.33333333333333,91.04651162790698,-70,91.04651162790698C-66.66666666666667,91.04651162790698,-63.333333333333336,78.48837209302326,-60,65.93023255813954" style="stroke: rgb(44, 160, 44); stroke-width: 2;"/><path class="linegg timeline hgroup_2" d="M-60,65.93023255813954C-53.333333333333336,65.93023255813954,-46.666666666666664,65.93023255813954,-40,65.93023255813954C-33.333333333333336,65.93023255813954,-26.666666666666668,65.93023255813954,-20,65.93023255813954C-13.333333333333332,65.93023255813954,-6.666666666666667,65.93023255813954,0,65.93023255813954" style="stroke: rgb(255, 127, 14); stroke-width: 2; fill: none;"/></g><text class="computeSig_label label" text-anchor="end" dx="-5" dy="0.5rem" fill="black" width="200" transform="translate(-980,91.04651162790698)">3</text></g><g class="node computeNode h4 statics" transform="translate(1010,0)" style="pointer-events: auto;"><g class="computeSig" stroke="black" style="stroke-width: 2;"><path class="linegg timeline hgroup_2" d="M-980,59.651162790697676C-973.3333333333334,59.651162790697676,-966.6666666666666,59.651162790697676,-960,59.651162790697676C-953.3333333333334,59.651162790697676,-946.6666666666666,59.651162790697676,-940,59.651162790697676C-933.3333333333334,59.651162790697676,-926.6666666666666,59.651162790697676,-920,59.651162790697676C-913.3333333333334,59.651162790697676,-906.6666666666666,59.651162790697676,-900,59.651162790697676C-893.3333333333334,59.651162790697676,-886.6666666666666,59.651162790697676,-880,59.651162790697676C-873.3333333333334,59.651162790697676,-866.6666666666666,59.651162790697676,-860,59.651162790697676C-853.3333333333334,59.651162790697676,-846.6666666666666,59.651162790697676,-840,59.651162790697676C-833.3333333333334,59.651162790697676,-826.6666666666666,59.651162790697676,-820,59.651162790697676C-813.3333333333334,59.651162790697676,-806.6666666666666,59.651162790697676,-800,59.651162790697676C-796.6666666666666,59.651162790697676,-793.3333333333334,59.651162790697676,-790,59.651162790697676C-786.6666666666666,59.651162790697676,-783.3333333333334,47.093023255813954,-780,34.53488372093023" style="stroke: rgb(255, 127, 14); stroke-width: 2; fill: none;"/><path class="linegg timeline hgroup_4" d="M-780,34.53488372093023C-773.3333333333334,34.53488372093023,-766.6666666666666,34.53488372093023,-760,34.53488372093023C-753.3333333333334,34.53488372093023,-746.6666666666666,34.53488372093023,-740,34.53488372093023C-733.3333333333334,34.53488372093023,-726.6666666666666,34.53488372093023,-720,34.53488372093023C-713.3333333333334,34.53488372093023,-706.6666666666666,34.53488372093023,-700,34.53488372093023C-693.3333333333334,34.53488372093023,-686.6666666666666,34.53488372093023,-680,34.53488372093023C-673.3333333333334,34.53488372093023,-666.6666666666666,34.53488372093023,-660,34.53488372093023C-653.3333333333334,34.53488372093023,-646.6666666666666,34.53488372093023,-640,34.53488372093023C-633.3333333333334,34.53488372093023,-626.6666666666666,34.53488372093023,-620,34.53488372093023C-613.3333333333334,34.53488372093023,-606.6666666666666,34.53488372093023,-600,34.53488372093023C-596.6666666666666,34.53488372093023,-593.3333333333334,34.53488372093023,-590,34.53488372093023C-586.6666666666666,34.53488372093023,-583.3333333333334,47.093023255813954,-580,59.651162790697676" style="stroke: rgb(214, 39, 40); stroke-width: 2; fill: none;"/><path class="linegg timeline hgroup_2" d="M-580,59.651162790697676C-576.6666666666666,59.651162790697676,-573.3333333333334,59.651162790697676,-570,59.651162790697676C-566.6666666666666,59.651162790697676,-563.3333333333334,72.20930232558139,-560,84.76744186046511" style="stroke: rgb(255, 127, 14); stroke-width: 2;"/><path class="linegg timeline hgroup_3" d="M-560,84.76744186046511C-556.6666666666666,84.76744186046511,-553.3333333333334,84.76744186046511,-550,84.76744186046511C-546.6666666666666,84.76744186046511,-543.3333333333334,59.65116279069767,-540,34.53488372093023" style="stroke: rgb(44, 160, 44); stroke-width: 2;"/><path class="linegg timeline hgroup_4" d="M-540,34.53488372093023C-536.6666666666666,34.53488372093023,-533.3333333333334,34.53488372093023,-530,34.53488372093023C-526.6666666666666,34.53488372093023,-523.3333333333334,21.97674418604651,-520,9.418604651162791" style="stroke: rgb(214, 39, 40); stroke-width: 2;"/><path class="linegg timeline hgroup_1" d="M-520,9.418604651162795C-513.3333333333334,9.418604651162795,-506.6666666666667,9.418604651162795,-500,9.418604651162795C-493.3333333333333,9.418604651162795,-486.6666666666667,9.418604651162795,-480,9.418604651162795C-473.3333333333333,9.418604651162795,-466.6666666666667,9.418604651162795,-460,9.418604651162795C-456.6666666666667,9.418604651162791,-453.3333333333333,9.418604651162791,-450,9.418604651162791C-446.6666666666667,9.418604651162791,-443.3333333333333,47.093023255813954,-440,84.76744186046511" style="stroke: rgb(31, 119, 180); stroke-width: 2; fill: none;"/><path class="linegg timeline hgroup_3" d="M-440,84.76744186046511C-436.6666666666667,84.76744186046511,-433.3333333333333,84.76744186046511,-430,84.76744186046511C-426.6666666666667,84.76744186046511,-423.3333333333333,59.65116279069767,-420,34.53488372093023" style="stroke: rgb(44, 160, 44); stroke-width: 2;"/><path class="linegg timeline hgroup_4" d="M-420,34.53488372093023C-413.3333333333333,34.53488372093023,-406.6666666666667,34.53488372093023,-400,34.53488372093023C-393.3333333333333,34.53488372093023,-386.6666666666667,34.53488372093023,-380,34.53488372093023C-373.3333333333333,34.53488372093023,-366.6666666666667,34.53488372093023,-360,34.53488372093023C-353.3333333333333,34.53488372093023,-346.6666666666667,34.53488372093023,-340,34.53488372093023C-333.3333333333333,34.53488372093023,-326.6666666666667,34.53488372093023,-320,34.53488372093023C-316.6666666666667,34.53488372093023,-313.3333333333333,34.53488372093023,-310,34.53488372093023C-306.6666666666667,34.53488372093023,-303.3333333333333,59.65116279069767,-300,84.76744186046511" style="stroke: rgb(214, 39, 40); stroke-width: 2; fill: none;"/><path class="linegg timeline hgroup_3" d="M-300,84.76744186046511C-293.3333333333333,84.76744186046511,-286.6666666666667,84.76744186046511,-280,84.76744186046511C-273.3333333333333,84.76744186046511,-266.6666666666667,84.76744186046511,-260,84.76744186046511C-253.33333333333334,84.76744186046511,-246.66666666666666,84.76744186046511,-240,84.76744186046511C-233.33333333333334,84.76744186046511,-226.66666666666666,84.76744186046511,-220,84.76744186046511C-216.66666666666666,84.76744186046511,-213.33333333333334,84.76744186046511,-210,84.76744186046511C-206.66666666666666,84.76744186046511,-203.33333333333334,72.20930232558139,-200,59.651162790697676" style="stroke: rgb(44, 160, 44); stroke-width: 2; fill: none;"/><path class="linegg timeline hgroup_2" d="M-200,59.651162790697676C-193.33333333333334,59.651162790697676,-186.66666666666666,59.651162790697676,-180,59.651162790697676C-176.66666666666666,59.651162790697676,-173.33333333333334,59.651162790697676,-170,59.651162790697676C-166.66666666666666,59.651162790697676,-163.33333333333334,72.20930232558139,-160,84.76744186046511" style="stroke: rgb(255, 127, 14); stroke-width: 2; fill: none;"/><path class="linegg timeline hgroup_3" d="M-160,84.76744186046511C-156.66666666666666,84.76744186046511,-153.33333333333334,84.76744186046511,-150,84.76744186046511C-146.66666666666666,84.76744186046511,-143.33333333333334,72.20930232558139,-140,59.651162790697676" style="stroke: rgb(44, 160, 44); stroke-width: 2;"/><path class="linegg timeline hgroup_2" d="M-140,59.651162790697676C-133.33333333333334,59.651162790697676,-126.66666666666667,59.651162790697676,-120,59.651162790697676C-113.33333333333333,59.651162790697676,-106.66666666666667,59.651162790697676,-100,59.651162790697676C-93.33333333333333,59.651162790697676,-86.66666666666667,59.651162790697676,-80,59.651162790697676C-76.66666666666667,59.651162790697676,-73.33333333333333,59.651162790697676,-70,59.651162790697676C-66.66666666666667,59.651162790697676,-63.333333333333336,47.093023255813954,-60,34.53488372093023" style="stroke: rgb(255, 127, 14); stroke-width: 2; fill: none;"/><path class="linegg timeline hgroup_4" d="M-60,34.53488372093023C-53.333333333333336,34.53488372093023,-46.666666666666664,34.53488372093023,-40,34.53488372093023C-33.333333333333336,34.53488372093023,-26.666666666666668,34.53488372093023,-20,34.53488372093023C-13.333333333333332,34.53488372093023,-6.666666666666667,34.53488372093023,0,34.53488372093023" style="stroke: rgb(214, 39, 40); stroke-width: 2; fill: none;"/></g><text class="computeSig_label label" text-anchor="end" dx="-5" dy="0.5rem" fill="black" width="200" transform="translate(-980,59.651162790697676)">4</text></g><g class="node computeNode h5 statics" transform="translate(1010,0)" style="pointer-events: auto;"><g class="computeSig" stroke="black" style="stroke-width: 2;"><path class="linegg timeline hgroup_4" d="M-980,31.3953488372093C-973.3333333333334,31.3953488372093,-966.6666666666666,31.3953488372093,-960,31.3953488372093C-953.3333333333334,31.3953488372093,-946.6666666666666,31.3953488372093,-940,31.3953488372093C-933.3333333333334,31.3953488372093,-926.6666666666666,31.3953488372093,-920,31.3953488372093C-913.3333333333334,31.3953488372093,-906.6666666666666,31.3953488372093,-900,31.3953488372093C-893.3333333333334,31.3953488372093,-886.6666666666666,31.3953488372093,-880,31.3953488372093C-873.3333333333334,31.3953488372093,-866.6666666666666,31.3953488372093,-860,31.3953488372093C-856.6666666666666,31.3953488372093,-853.3333333333334,31.3953488372093,-850,31.3953488372093C-846.6666666666666,31.3953488372093,-843.3333333333334,18.83720930232558,-840,6.27906976744186" style="stroke: rgb(214, 39, 40); stroke-width: 2; fill: none;"/><path class="linegg timeline hgroup_1" d="M-840,6.279069767441861C-833.3333333333334,6.279069767441861,-826.6666666666666,6.279069767441861,-820,6.279069767441861C-813.3333333333334,6.279069767441861,-806.6666666666666,6.279069767441861,-800,6.279069767441861C-796.6666666666666,6.27906976744186,-793.3333333333334,6.27906976744186,-790,6.27906976744186C-786.6666666666666,6.27906976744186,-783.3333333333334,31.3953488372093,-780,56.51162790697675" style="stroke: rgb(31, 119, 180); stroke-width: 2; fill: none;"/><path class="linegg timeline hgroup_2" d="M-780,56.51162790697675C-773.3333333333334,56.51162790697675,-766.6666666666666,56.51162790697675,-760,56.51162790697675C-756.6666666666666,56.51162790697675,-753.3333333333334,56.51162790697675,-750,56.51162790697675C-746.6666666666666,56.51162790697675,-743.3333333333334,69.06976744186046,-740,81.62790697674419" style="stroke: rgb(255, 127, 14); stroke-width: 2; fill: none;"/><path class="linegg timeline hgroup_3" d="M-740,81.62790697674419C-733.3333333333334,81.62790697674419,-726.6666666666666,81.62790697674419,-720,81.62790697674419C-716.6666666666666,81.62790697674419,-713.3333333333334,81.62790697674419,-710,81.62790697674419C-706.6666666666666,81.62790697674419,-703.3333333333334,69.06976744186046,-700,56.51162790697675" style="stroke: rgb(44, 160, 44); stroke-width: 2; fill: none;"/><path class="linegg timeline hgroup_2" d="M-700,56.51162790697675C-696.6666666666666,56.51162790697675,-693.3333333333334,56.51162790697675,-690,56.51162790697675C-686.6666666666666,56.51162790697675,-683.3333333333334,31.39534883720931,-680,6.27906976744186" style="stroke: rgb(255, 127, 14); stroke-width: 2;"/><path class="linegg timeline hgroup_1" d="M-680,6.279069767441861C-673.3333333333334,6.279069767441861,-666.6666666666666,6.279069767441861,-660,6.279069767441861C-653.3333333333334,6.279069767441861,-646.6666666666666,6.279069767441861,-640,6.279069767441861C-633.3333333333334,6.279069767441861,-626.6666666666666,6.279069767441861,-620,6.279069767441861C-613.3333333333334,6.279069767441861,-606.6666666666666,6.279069767441861,-600,6.279069767441861C-596.6666666666666,6.27906976744186,-593.3333333333334,6.27906976744186,-590,6.27906976744186C-586.6666666666666,6.27906976744186,-583.3333333333334,59.65116279069767,-580,113.0232558139535" style="stroke: rgb(31, 119, 180); stroke-width: 2; fill: none;"/><path class="linegg timeline hgroup_5" d="M-580,113.0232558139535C-576.6666666666666,113.0232558139535,-573.3333333333334,113.0232558139535,-570,113.0232558139535C-566.6666666666666,113.0232558139535,-563.3333333333334,97.32558139534885,-560,81.62790697674419" style="stroke: rgb(148, 103, 189); stroke-width: 2;"/><path class="linegg timeline hgroup_3" d="M-560,81.62790697674419C-556.6666666666666,81.62790697674419,-553.3333333333334,81.62790697674419,-550,81.62790697674419C-546.6666666666666,81.62790697674419,-543.3333333333334,56.51162790697675,-540,31.3953488372093" style="stroke: rgb(44, 160, 44); stroke-width: 2;"/><path class="linegg timeline hgroup_4" d="M-540,31.3953488372093C-533.3333333333334,31.3953488372093,-526.6666666666666,31.3953488372093,-520,31.3953488372093C-513.3333333333334,31.3953488372093,-506.6666666666667,31.3953488372093,-500,31.3953488372093C-493.3333333333333,31.3953488372093,-486.6666666666667,31.3953488372093,-480,31.3953488372093C-473.3333333333333,31.3953488372093,-466.6666666666667,31.3953488372093,-460,31.3953488372093C-453.3333333333333,31.3953488372093,-446.6666666666667,31.3953488372093,-440,31.3953488372093C-433.3333333333333,31.3953488372093,-426.6666666666667,31.3953488372093,-420,31.3953488372093C-416.6666666666667,31.3953488372093,-413.3333333333333,31.3953488372093,-410,31.3953488372093C-406.6666666666667,31.3953488372093,-403.3333333333333,56.51162790697674,-400,81.62790697674419" style="stroke: rgb(214, 39, 40); stroke-width: 2; fill: none;"/><path class="linegg timeline hgroup_3" d="M-400,81.62790697674419C-396.6666666666667,81.62790697674419,-393.3333333333333,81.62790697674419,-390,81.62790697674419C-386.6666666666667,81.62790697674419,-383.3333333333333,69.06976744186046,-380,56.51162790697675" style="stroke: rgb(44, 160, 44); stroke-width: 2;"/><path class="linegg timeline hgroup_2" d="M-380,56.51162790697675C-376.6666666666667,56.51162790697675,-373.3333333333333,56.51162790697675,-370,56.51162790697675C-366.6666666666667,56.51162790697675,-363.3333333333333,69.06976744186046,-360,81.62790697674419" style="stroke: rgb(255, 127, 14); stroke-width: 2;"/><path class="linegg timeline hgroup_3" d="M-360,81.62790697674419C-353.3333333333333,81.62790697674419,-346.6666666666667,81.62790697674419,-340,81.62790697674419C-336.6666666666667,81.62790697674419,-333.3333333333333,81.62790697674419,-330,81.62790697674419C-326.6666666666667,81.62790697674419,-323.3333333333333,69.06976744186046,-320,56.51162790697675" style="stroke: rgb(44, 160, 44); stroke-width: 2; fill: none;"/><path class="linegg timeline hgroup_2" d="M-320,56.51162790697675C-313.3333333333333,56.51162790697675,-306.6666666666667,56.51162790697675,-300,56.51162790697675C-293.3333333333333,56.51162790697675,-286.6666666666667,56.51162790697675,-280,56.51162790697675C-273.3333333333333,56.51162790697675,-266.6666666666667,56.51162790697675,-260,56.51162790697675C-253.33333333333334,56.51162790697675,-246.66666666666666,56.51162790697675,-240,56.51162790697675C-233.33333333333334,56.51162790697675,-226.66666666666666,56.51162790697675,-220,56.51162790697675C-213.33333333333334,56.51162790697675,-206.66666666666666,56.51162790697675,-200,56.51162790697675C-193.33333333333334,56.51162790697675,-186.66666666666666,56.51162790697675,-180,56.51162790697675C-176.66666666666666,56.51162790697675,-173.33333333333334,56.51162790697675,-170,56.51162790697675C-166.66666666666666,56.51162790697675,-163.33333333333334,31.39534883720931,-160,6.27906976744186" style="stroke: rgb(255, 127, 14); stroke-width: 2; fill: none;"/><path class="linegg timeline hgroup_1" d="M-160,6.279069767441861C-153.33333333333334,6.279069767441861,-146.66666666666666,6.279069767441861,-140,6.279069767441861C-133.33333333333334,6.279069767441861,-126.66666666666667,6.279069767441861,-120,6.279069767441861C-113.33333333333333,6.279069767441861,-106.66666666666667,6.279069767441861,-100,6.279069767441861C-93.33333333333333,6.279069767441861,-86.66666666666667,6.279069767441861,-80,6.279069767441861C-73.33333333333333,6.279069767441861,-66.66666666666667,6.279069767441861,-60,6.279069767441861C-53.333333333333336,6.279069767441861,-46.666666666666664,6.279069767441861,-40,6.279069767441861C-33.333333333333336,6.279069767441861,-26.666666666666668,6.279069767441861,-20,6.279069767441861C-16.666666666666668,6.27906976744186,-13.333333333333334,6.27906976744186,-10,6.27906976744186C-6.666666666666666,6.27906976744186,-3.3333333333333335,59.65116279069767,0,113.0232558139535" style="stroke: rgb(31, 119, 180); stroke-width: 2; fill: none;"/><path class="linegg timeline hgroup_5" d="M0,113.0232558139535Z" style="stroke: rgb(148, 103, 189); stroke-width: 2;"/></g><text class="computeSig_label label" text-anchor="end" dx="-5" dy="0.5rem" fill="black" width="200" transform="translate(-980,31.3953488372093)">5</text></g><g class="node computeNode h6 statics" transform="translate(1010,0)" style="pointer-events: auto;"><g class="computeSig" stroke="black" style="stroke-width: 2;"><path class="linegg timeline hgroup_5" d="M-980,116.16279069767441C-973.3333333333334,116.16279069767441,-966.6666666666666,116.16279069767441,-960,116.16279069767441C-956.6666666666666,116.16279069767441,-953.3333333333334,116.16279069767441,-950,116.16279069767441C-946.6666666666666,116.16279069767441,-943.3333333333334,102.03488372093022,-940,87.90697674418605" style="stroke: rgb(148, 103, 189); stroke-width: 2; fill: none;"/><path class="linegg timeline hgroup_3" d="M-940,87.90697674418605C-933.3333333333334,87.90697674418605,-926.6666666666666,87.90697674418605,-920,87.90697674418605C-913.3333333333334,87.90697674418605,-906.6666666666666,87.90697674418605,-900,87.90697674418605C-893.3333333333334,87.90697674418605,-886.6666666666666,87.90697674418605,-880,87.90697674418605C-873.3333333333334,87.90697674418605,-866.6666666666666,87.90697674418605,-860,87.90697674418605C-853.3333333333334,87.90697674418605,-846.6666666666666,87.90697674418605,-840,87.90697674418605C-833.3333333333334,87.90697674418605,-826.6666666666666,87.90697674418605,-820,87.90697674418605C-816.6666666666666,87.90697674418605,-813.3333333333334,87.90697674418605,-810,87.90697674418605C-806.6666666666666,87.90697674418605,-803.3333333333334,75.34883720930233,-800,62.7906976744186" style="stroke: rgb(44, 160, 44); stroke-width: 2; fill: none;"/><path class="linegg timeline hgroup_2" d="M-800,62.7906976744186C-793.3333333333334,62.7906976744186,-786.6666666666666,62.7906976744186,-780,62.7906976744186C-773.3333333333334,62.7906976744186,-766.6666666666666,62.7906976744186,-760,62.7906976744186C-753.3333333333334,62.7906976744186,-746.6666666666666,62.7906976744186,-740,62.7906976744186C-733.3333333333334,62.7906976744186,-726.6666666666666,62.7906976744186,-720,62.7906976744186C-713.3333333333334,62.7906976744186,-706.6666666666666,62.7906976744186,-700,62.7906976744186C-693.3333333333334,62.7906976744186,-686.6666666666666,62.7906976744186,-680,62.7906976744186C-676.6666666666666,62.7906976744186,-673.3333333333334,62.7906976744186,-670,62.7906976744186C-666.6666666666666,62.7906976744186,-663.3333333333334,75.34883720930233,-660,87.90697674418605" style="stroke: rgb(255, 127, 14); stroke-width: 2; fill: none;"/><path class="linegg timeline hgroup_3" d="M-660,87.90697674418605C-653.3333333333334,87.90697674418605,-646.6666666666666,87.90697674418605,-640,87.90697674418605C-633.3333333333334,87.90697674418605,-626.6666666666666,87.90697674418605,-620,87.90697674418605C-613.3333333333334,87.90697674418605,-606.6666666666666,87.90697674418605,-600,87.90697674418605C-593.3333333333334,87.90697674418605,-586.6666666666666,87.90697674418605,-580,87.90697674418605C-573.3333333333334,87.90697674418605,-566.6666666666666,87.90697674418605,-560,87.90697674418605C-556.6666666666666,87.90697674418605,-553.3333333333334,87.90697674418605,-550,87.90697674418605C-546.6666666666666,87.90697674418605,-543.3333333333334,50.23255813953489,-540,12.55813953488372" style="stroke: rgb(44, 160, 44); stroke-width: 2; fill: none;"/><path class="linegg timeline hgroup_1" d="M-540,12.558139534883722C-533.3333333333334,12.558139534883722,-526.6666666666666,12.558139534883722,-520,12.558139534883722C-513.3333333333334,12.558139534883722,-506.6666666666667,12.558139534883722,-500,12.558139534883722C-493.3333333333333,12.558139534883722,-486.6666666666667,12.558139534883722,-480,12.558139534883722C-473.3333333333333,12.558139534883722,-466.6666666666667,12.558139534883722,-460,12.558139534883722C-453.3333333333333,12.558139534883722,-446.6666666666667,12.558139534883722,-440,12.558139534883722C-433.3333333333333,12.558139534883722,-426.6666666666667,12.558139534883722,-420,12.558139534883722C-413.3333333333333,12.558139534883722,-406.6666666666667,12.558139534883722,-400,12.558139534883722C-393.3333333333333,12.558139534883722,-386.6666666666667,12.558139534883722,-380,12.558139534883722C-373.3333333333333,12.558139534883722,-366.6666666666667,12.558139534883722,-360,12.558139534883722C-353.3333333333333,12.558139534883722,-346.6666666666667,12.558139534883722,-340,12.558139534883722C-333.3333333333333,12.558139534883722,-326.6666666666667,12.558139534883722,-320,12.558139534883722C-313.3333333333333,12.558139534883722,-306.6666666666667,12.558139534883722,-300,12.558139534883722C-293.3333333333333,12.558139534883722,-286.6666666666667,12.558139534883722,-280,12.558139534883722C-273.3333333333333,12.558139534883722,-266.6666666666667,12.558139534883722,-260,12.558139534883722C-253.33333333333334,12.558139534883722,-246.66666666666666,12.558139534883722,-240,12.558139534883722C-233.33333333333334,12.558139534883722,-226.66666666666666,12.558139534883722,-220,12.558139534883722C-213.33333333333334,12.558139534883722,-206.66666666666666,12.558139534883722,-200,12.558139534883722C-193.33333333333334,12.558139534883722,-186.66666666666666,12.558139534883722,-180,12.558139534883722C-173.33333333333334,12.558139534883722,-166.66666666666666,12.558139534883722,-160,12.558139534883722C-153.33333333333334,12.558139534883722,-146.66666666666666,12.558139534883722,-140,12.558139534883722C-136.66666666666666,12.55813953488372,-133.33333333333334,12.55813953488372,-130,12.55813953488372C-126.66666666666667,12.55813953488372,-123.33333333333333,64.36046511627906,-120,116.16279069767441" style="stroke: rgb(31, 119, 180); stroke-width: 2; fill: none;"/><path class="linegg timeline hgroup_5" d="M-120,116.16279069767441C-113.33333333333333,116.16279069767441,-106.66666666666667,116.16279069767441,-100,116.16279069767441C-93.33333333333333,116.16279069767441,-86.66666666666667,116.16279069767441,-80,116.16279069767441C-76.66666666666667,116.16279069767441,-73.33333333333333,116.16279069767441,-70,116.16279069767441C-66.66666666666667,116.16279069767441,-63.333333333333336,102.03488372093022,-60,87.90697674418605" style="stroke: rgb(148, 103, 189); stroke-width: 2; fill: none;"/><path class="linegg timeline hgroup_3" d="M-60,87.90697674418605C-53.333333333333336,87.90697674418605,-46.666666666666664,87.90697674418605,-40,87.90697674418605C-36.666666666666664,87.90697674418605,-33.333333333333336,87.90697674418605,-30,87.90697674418605C-26.666666666666668,87.90697674418605,-23.333333333333332,102.03488372093022,-20,116.16279069767441" style="stroke: rgb(44, 160, 44); stroke-width: 2; fill: none;"/><path class="linegg timeline hgroup_5" d="M-20,116.16279069767441L0,116.16279069767441" style="stroke: rgb(148, 103, 189); stroke-width: 2; fill: none;"/></g><text class="computeSig_label label" text-anchor="end" dx="-5" dy="0.5rem" fill="black" width="200" transform="translate(-980,116.16279069767441)">6</text></g><g class="node computeNode h7 statics" transform="translate(1010,0)" style="pointer-events: auto;"><g class="computeSig" stroke="black" style="stroke-width: 2;"><path class="linegg timeline hgroup_3" d="M-980,94.18604651162791C-973.3333333333334,94.18604651162791,-966.6666666666666,94.18604651162791,-960,94.18604651162791C-956.6666666666666,94.18604651162791,-953.3333333333334,94.18604651162791,-950,94.18604651162791C-946.6666666666666,94.18604651162791,-943.3333333333334,56.51162790697675,-940,18.837209302325583" style="stroke: rgb(44, 160, 44); stroke-width: 2; fill: none;"/><path class="linegg timeline hgroup_1" d="M-940,18.83720930232559C-933.3333333333334,18.83720930232559,-926.6666666666666,18.83720930232559,-920,18.83720930232559C-913.3333333333334,18.83720930232559,-906.6666666666666,18.83720930232559,-900,18.83720930232559C-893.3333333333334,18.83720930232559,-886.6666666666666,18.83720930232559,-880,18.83720930232559C-873.3333333333334,18.83720930232559,-866.6666666666666,18.83720930232559,-860,18.83720930232559C-853.3333333333334,18.83720930232559,-846.6666666666666,18.83720930232559,-840,18.83720930232559C-833.3333333333334,18.83720930232559,-826.6666666666666,18.83720930232559,-820,18.83720930232559C-813.3333333333334,18.83720930232559,-806.6666666666666,18.83720930232559,-800,18.83720930232559C-793.3333333333334,18.83720930232559,-786.6666666666666,18.83720930232559,-780,18.83720930232559C-773.3333333333334,18.83720930232559,-766.6666666666666,18.83720930232559,-760,18.83720930232559C-753.3333333333334,18.83720930232559,-746.6666666666666,18.83720930232559,-740,18.83720930232559C-736.6666666666666,18.837209302325583,-733.3333333333334,18.837209302325583,-730,18.837209302325583C-726.6666666666666,18.837209302325583,-723.3333333333334,43.95348837209302,-720,69.06976744186046" style="stroke: rgb(31, 119, 180); stroke-width: 2; fill: none;"/><path class="linegg timeline hgroup_2" d="M-720,69.06976744186046C-713.3333333333334,69.06976744186046,-706.6666666666666,69.06976744186046,-700,69.06976744186046C-693.3333333333334,69.06976744186046,-686.6666666666666,69.06976744186046,-680,69.06976744186046C-676.6666666666666,69.06976744186046,-673.3333333333334,69.06976744186046,-670,69.06976744186046C-666.6666666666666,69.06976744186046,-663.3333333333334,54.94186046511628,-660,40.81395348837209" style="stroke: rgb(255, 127, 14); stroke-width: 2; fill: none;"/><path class="linegg timeline hgroup_4" d="M-660,40.81395348837209C-653.3333333333334,40.81395348837209,-646.6666666666666,40.81395348837209,-640,40.81395348837209C-633.3333333333334,40.81395348837209,-626.6666666666666,40.81395348837209,-620,40.81395348837209C-613.3333333333334,40.81395348837209,-606.6666666666666,40.81395348837209,-600,40.81395348837209C-593.3333333333334,40.81395348837209,-586.6666666666666,40.81395348837209,-580,40.81395348837209C-573.3333333333334,40.81395348837209,-566.6666666666666,40.81395348837209,-560,40.81395348837209C-553.3333333333334,40.81395348837209,-546.6666666666666,40.81395348837209,-540,40.81395348837209C-533.3333333333334,40.81395348837209,-526.6666666666666,40.81395348837209,-520,40.81395348837209C-513.3333333333334,40.81395348837209,-506.6666666666667,40.81395348837209,-500,40.81395348837209C-493.3333333333333,40.81395348837209,-486.6666666666667,40.81395348837209,-480,40.81395348837209C-473.3333333333333,40.81395348837209,-466.6666666666667,40.81395348837209,-460,40.81395348837209C-453.3333333333333,40.81395348837209,-446.6666666666667,40.81395348837209,-440,40.81395348837209C-436.6666666666667,40.81395348837209,-433.3333333333333,40.81395348837209,-430,40.81395348837209C-426.6666666666667,40.81395348837209,-423.3333333333333,29.825581395348834,-420,18.837209302325583" style="stroke: rgb(214, 39, 40); stroke-width: 2; fill: none;"/><path class="linegg timeline hgroup_1" d="M-420,18.83720930232559C-413.3333333333333,18.83720930232559,-406.6666666666667,18.83720930232559,-400,18.83720930232559C-393.3333333333333,18.83720930232559,-386.6666666666667,18.83720930232559,-380,18.83720930232559C-376.6666666666667,18.837209302325583,-373.3333333333333,18.837209302325583,-370,18.837209302325583C-366.6666666666667,18.837209302325583,-363.3333333333333,70.63953488372093,-360,122.44186046511628" style="stroke: rgb(31, 119, 180); stroke-width: 2; fill: none;"/><path class="linegg timeline hgroup_5" d="M-360,122.44186046511628C-353.3333333333333,122.44186046511628,-346.6666666666667,122.44186046511628,-340,122.44186046511628C-333.3333333333333,122.44186046511628,-326.6666666666667,122.44186046511628,-320,122.44186046511628C-313.3333333333333,122.44186046511628,-306.6666666666667,122.44186046511628,-300,122.44186046511628C-293.3333333333333,122.44186046511628,-286.6666666666667,122.44186046511628,-280,122.44186046511628C-273.3333333333333,122.44186046511628,-266.6666666666667,122.44186046511628,-260,122.44186046511628C-253.33333333333334,122.44186046511628,-246.66666666666666,122.44186046511628,-240,122.44186046511628C-233.33333333333334,122.44186046511628,-226.66666666666666,122.44186046511628,-220,122.44186046511628C-213.33333333333334,122.44186046511628,-206.66666666666666,122.44186046511628,-200,122.44186046511628C-193.33333333333334,122.44186046511628,-186.66666666666666,122.44186046511628,-180,122.44186046511628C-173.33333333333334,122.44186046511628,-166.66666666666666,122.44186046511628,-160,122.44186046511628C-153.33333333333334,122.44186046511628,-146.66666666666666,122.44186046511628,-140,122.44186046511628C-133.33333333333334,122.44186046511628,-126.66666666666667,122.44186046511628,-120,122.44186046511628C-113.33333333333333,122.44186046511628,-106.66666666666667,122.44186046511628,-100,122.44186046511628C-93.33333333333333,122.44186046511628,-86.66666666666667,122.44186046511628,-80,122.44186046511628C-73.33333333333333,122.44186046511628,-66.66666666666667,122.44186046511628,-60,122.44186046511628C-56.666666666666664,122.44186046511628,-53.333333333333336,122.44186046511628,-50,122.44186046511628C-46.666666666666664,122.44186046511628,-43.333333333333336,95.75581395348837,-40,69.06976744186046" style="stroke: rgb(148, 103, 189); stroke-width: 2; fill: none;"/><path class="linegg timeline hgroup_2" d="M-40,69.06976744186046C-33.333333333333336,69.06976744186046,-26.666666666666668,69.06976744186046,-20,69.06976744186046C-16.666666666666668,69.06976744186046,-13.333333333333334,69.06976744186046,-10,69.06976744186046C-6.666666666666666,69.06976744186046,-3.3333333333333335,54.94186046511628,0,40.81395348837209" style="stroke: rgb(255, 127, 14); stroke-width: 2; fill: none;"/><path class="linegg timeline hgroup_4" d="M0,40.81395348837209Z" style="stroke: rgb(214, 39, 40); stroke-width: 2;"/></g><text class="computeSig_label label" text-anchor="end" dx="-5" dy="0.5rem" fill="black" width="200" transform="translate(-980,94.18604651162791)">7</text></g><g class="node computeNode h8 statics" transform="translate(1010,0)" style="pointer-events: auto;"><g class="computeSig" stroke="black" style="stroke-width: 2;"><path class="linegg timeline hgroup_2" d="M-980,75.34883720930233C-973.3333333333334,75.34883720930233,-966.6666666666666,75.34883720930233,-960,75.34883720930233C-953.3333333333334,75.34883720930233,-946.6666666666666,75.34883720930233,-940,75.34883720930233C-933.3333333333334,75.34883720930233,-926.6666666666666,75.34883720930233,-920,75.34883720930233C-916.6666666666666,75.34883720930233,-913.3333333333334,75.34883720930233,-910,75.34883720930233C-906.6666666666666,75.34883720930233,-903.3333333333334,102.03488372093024,-900,128.72093023255815" style="stroke: rgb(255, 127, 14); stroke-width: 2; fill: none;"/><path class="linegg timeline hgroup_5" d="M-900,128.72093023255815C-893.3333333333334,128.72093023255815,-886.6666666666666,128.72093023255815,-880,128.72093023255815C-873.3333333333334,128.72093023255815,-866.6666666666666,128.72093023255815,-860,128.72093023255815C-853.3333333333334,128.72093023255815,-846.6666666666666,128.72093023255815,-840,128.72093023255815C-833.3333333333334,128.72093023255815,-826.6666666666666,128.72093023255815,-820,128.72093023255815C-813.3333333333334,128.72093023255815,-806.6666666666666,128.72093023255815,-800,128.72093023255815C-793.3333333333334,128.72093023255815,-786.6666666666666,128.72093023255815,-780,128.72093023255815C-776.6666666666666,128.72093023255815,-773.3333333333334,128.72093023255815,-770,128.72093023255815C-766.6666666666666,128.72093023255815,-763.3333333333334,102.03488372093024,-760,75.34883720930233" style="stroke: rgb(148, 103, 189); stroke-width: 2; fill: none;"/><path class="linegg timeline hgroup_2" d="M-760,75.34883720930233C-753.3333333333334,75.34883720930233,-746.6666666666666,75.34883720930233,-740,75.34883720930233C-736.6666666666666,75.34883720930233,-733.3333333333334,75.34883720930233,-730,75.34883720930233C-726.6666666666666,75.34883720930233,-723.3333333333334,61.220930232558146,-720,47.093023255813954" style="stroke: rgb(255, 127, 14); stroke-width: 2; fill: none;"/><path class="linegg timeline hgroup_4" d="M-720,47.093023255813954C-716.6666666666666,47.093023255813954,-713.3333333333334,47.093023255813954,-710,47.093023255813954C-706.6666666666666,47.093023255813954,-703.3333333333334,36.104651162790695,-700,25.11627906976744" style="stroke: rgb(214, 39, 40); stroke-width: 2;"/><path class="linegg timeline hgroup_1" d="M-700,25.116279069767444C-693.3333333333334,25.116279069767444,-686.6666666666666,25.116279069767444,-680,25.116279069767444C-673.3333333333334,25.116279069767444,-666.6666666666666,25.116279069767444,-660,25.116279069767444C-653.3333333333334,25.116279069767444,-646.6666666666666,25.116279069767444,-640,25.116279069767444C-633.3333333333334,25.116279069767444,-626.6666666666666,25.116279069767444,-620,25.116279069767444C-616.6666666666666,25.11627906976744,-613.3333333333334,25.11627906976744,-610,25.11627906976744C-606.6666666666666,25.11627906976744,-603.3333333333334,62.7906976744186,-600,100.46511627906976" style="stroke: rgb(31, 119, 180); stroke-width: 2; fill: none;"/><path class="linegg timeline hgroup_3" d="M-600,100.46511627906976C-593.3333333333334,100.46511627906976,-586.6666666666666,100.46511627906976,-580,100.46511627906976C-573.3333333333334,100.46511627906976,-566.6666666666666,100.46511627906976,-560,100.46511627906976C-553.3333333333334,100.46511627906976,-546.6666666666666,100.46511627906976,-540,100.46511627906976C-533.3333333333334,100.46511627906976,-526.6666666666666,100.46511627906976,-520,100.46511627906976C-513.3333333333334,100.46511627906976,-506.6666666666667,100.46511627906976,-500,100.46511627906976C-496.6666666666667,100.46511627906976,-493.3333333333333,100.46511627906976,-490,100.46511627906976C-486.6666666666667,100.46511627906976,-483.3333333333333,87.90697674418604,-480,75.34883720930233" style="stroke: rgb(44, 160, 44); stroke-width: 2; fill: none;"/><path class="linegg timeline hgroup_2" d="M-480,75.34883720930233C-473.3333333333333,75.34883720930233,-466.6666666666667,75.34883720930233,-460,75.34883720930233C-453.3333333333333,75.34883720930233,-446.6666666666667,75.34883720930233,-440,75.34883720930233C-433.3333333333333,75.34883720930233,-426.6666666666667,75.34883720930233,-420,75.34883720930233C-413.3333333333333,75.34883720930233,-406.6666666666667,75.34883720930233,-400,75.34883720930233C-393.3333333333333,75.34883720930233,-386.6666666666667,75.34883720930233,-380,75.34883720930233C-376.6666666666667,75.34883720930233,-373.3333333333333,75.34883720930233,-370,75.34883720930233C-366.6666666666667,75.34883720930233,-363.3333333333333,61.220930232558146,-360,47.093023255813954" style="stroke: rgb(255, 127, 14); stroke-width: 2; fill: none;"/><path class="linegg timeline hgroup_4" d="M-360,47.093023255813954C-353.3333333333333,47.093023255813954,-346.6666666666667,47.093023255813954,-340,47.093023255813954C-333.3333333333333,47.093023255813954,-326.6666666666667,47.093023255813954,-320,47.093023255813954C-316.6666666666667,47.093023255813954,-313.3333333333333,47.093023255813954,-310,47.093023255813954C-306.6666666666667,47.093023255813954,-303.3333333333333,87.90697674418605,-300,128.72093023255815" style="stroke: rgb(214, 39, 40); stroke-width: 2; fill: none;"/><path class="linegg timeline hgroup_5" d="M-300,128.72093023255815C-296.6666666666667,128.72093023255815,-293.3333333333333,128.72093023255815,-290,128.72093023255815C-286.6666666666667,128.72093023255815,-283.3333333333333,114.59302325581396,-280,100.46511627906976" style="stroke: rgb(148, 103, 189); stroke-width: 2;"/><path class="linegg timeline hgroup_3" d="M-280,100.46511627906976C-273.3333333333333,100.46511627906976,-266.6666666666667,100.46511627906976,-260,100.46511627906976C-253.33333333333334,100.46511627906976,-246.66666666666666,100.46511627906976,-240,100.46511627906976C-233.33333333333334,100.46511627906976,-226.66666666666666,100.46511627906976,-220,100.46511627906976C-216.66666666666666,100.46511627906976,-213.33333333333334,100.46511627906976,-210,100.46511627906976C-206.66666666666666,100.46511627906976,-203.33333333333334,114.59302325581396,-200,128.72093023255815" style="stroke: rgb(44, 160, 44); stroke-width: 2; fill: none;"/><path class="linegg timeline hgroup_5" d="M-200,128.72093023255815C-193.33333333333334,128.72093023255815,-186.66666666666666,128.72093023255815,-180,128.72093023255815C-173.33333333333334,128.72093023255815,-166.66666666666666,128.72093023255815,-160,128.72093023255815C-153.33333333333334,128.72093023255815,-146.66666666666666,128.72093023255815,-140,128.72093023255815C-133.33333333333334,128.72093023255815,-126.66666666666667,128.72093023255815,-120,128.72093023255815C-116.66666666666667,128.72093023255815,-113.33333333333333,128.72093023255815,-110,128.72093023255815C-106.66666666666667,128.72093023255815,-103.33333333333333,114.59302325581396,-100,100.46511627906976" style="stroke: rgb(148, 103, 189); stroke-width: 2; fill: none;"/><path class="linegg timeline hgroup_3" d="M-100,100.46511627906976C-93.33333333333333,100.46511627906976,-86.66666666666667,100.46511627906976,-80,100.46511627906976C-73.33333333333333,100.46511627906976,-66.66666666666667,100.46511627906976,-60,100.46511627906976C-53.333333333333336,100.46511627906976,-46.666666666666664,100.46511627906976,-40,100.46511627906976C-33.333333333333336,100.46511627906976,-26.666666666666668,100.46511627906976,-20,100.46511627906976C-13.333333333333332,100.46511627906976,-6.666666666666667,100.46511627906976,0,100.46511627906976" style="stroke: rgb(44, 160, 44); stroke-width: 2; fill: none;"/></g><text class="computeSig_label label" text-anchor="end" dx="-5" dy="0.5rem" fill="black" width="200" transform="translate(-980,75.34883720930233)">8</text></g><g class="node computeNode h9 statics" transform="translate(1010,0)" style="pointer-events: auto;"><g class="computeSig" stroke="black" style="stroke-width: 2;"><path class="linegg timeline hgroup_5" d="M-980,131.86046511627907C-976.6666666666666,131.86046511627907,-973.3333333333334,131.86046511627907,-970,131.86046511627907C-966.6666666666666,131.86046511627907,-963.3333333333334,117.73255813953489,-960,103.6046511627907" style="stroke: rgb(148, 103, 189); stroke-width: 2;"/><path class="linegg timeline hgroup_3" d="M-960,103.6046511627907C-953.3333333333334,103.6046511627907,-946.6666666666666,103.6046511627907,-940,103.6046511627907C-933.3333333333334,103.6046511627907,-926.6666666666666,103.6046511627907,-920,103.6046511627907C-913.3333333333334,103.6046511627907,-906.6666666666666,103.6046511627907,-900,103.6046511627907C-893.3333333333334,103.6046511627907,-886.6666666666666,103.6046511627907,-880,103.6046511627907C-873.3333333333334,103.6046511627907,-866.6666666666666,103.6046511627907,-860,103.6046511627907C-853.3333333333334,103.6046511627907,-846.6666666666666,103.6046511627907,-840,103.6046511627907C-833.3333333333334,103.6046511627907,-826.6666666666666,103.6046511627907,-820,103.6046511627907C-813.3333333333334,103.6046511627907,-806.6666666666666,103.6046511627907,-800,103.6046511627907C-793.3333333333334,103.6046511627907,-786.6666666666666,103.6046511627907,-780,103.6046511627907C-773.3333333333334,103.6046511627907,-766.6666666666666,103.6046511627907,-760,103.6046511627907C-753.3333333333334,103.6046511627907,-746.6666666666666,103.6046511627907,-740,103.6046511627907C-733.3333333333334,103.6046511627907,-726.6666666666666,103.6046511627907,-720,103.6046511627907C-713.3333333333334,103.6046511627907,-706.6666666666666,103.6046511627907,-700,103.6046511627907C-696.6666666666666,103.6046511627907,-693.3333333333334,103.6046511627907,-690,103.6046511627907C-686.6666666666666,103.6046511627907,-683.3333333333334,117.73255813953489,-680,131.86046511627907" style="stroke: rgb(44, 160, 44); stroke-width: 2; fill: none;"/><path class="linegg timeline hgroup_5" d="M-680,131.86046511627907C-673.3333333333334,131.86046511627907,-666.6666666666666,131.86046511627907,-660,131.86046511627907C-653.3333333333334,131.86046511627907,-646.6666666666666,131.86046511627907,-640,131.86046511627907C-633.3333333333334,131.86046511627907,-626.6666666666666,131.86046511627907,-620,131.86046511627907C-613.3333333333334,131.86046511627907,-606.6666666666666,131.86046511627907,-600,131.86046511627907C-593.3333333333334,131.86046511627907,-586.6666666666666,131.86046511627907,-580,131.86046511627907C-573.3333333333334,131.86046511627907,-566.6666666666666,131.86046511627907,-560,131.86046511627907C-553.3333333333334,131.86046511627907,-546.6666666666666,131.86046511627907,-540,131.86046511627907C-533.3333333333334,131.86046511627907,-526.6666666666666,131.86046511627907,-520,131.86046511627907C-513.3333333333334,131.86046511627907,-506.6666666666667,131.86046511627907,-500,131.86046511627907C-493.3333333333333,131.86046511627907,-486.6666666666667,131.86046511627907,-480,131.86046511627907C-473.3333333333333,131.86046511627907,-466.6666666666667,131.86046511627907,-460,131.86046511627907C-456.6666666666667,131.86046511627907,-453.3333333333333,131.86046511627907,-450,131.86046511627907C-446.6666666666667,131.86046511627907,-443.3333333333333,117.73255813953489,-440,103.6046511627907" style="stroke: rgb(148, 103, 189); stroke-width: 2; fill: none;"/><path class="linegg timeline hgroup_3" d="M-440,103.6046511627907C-433.3333333333333,103.6046511627907,-426.6666666666667,103.6046511627907,-420,103.6046511627907C-413.3333333333333,103.6046511627907,-406.6666666666667,103.6046511627907,-400,103.6046511627907C-393.3333333333333,103.6046511627907,-386.6666666666667,103.6046511627907,-380,103.6046511627907C-373.3333333333333,103.6046511627907,-366.6666666666667,103.6046511627907,-360,103.6046511627907C-353.3333333333333,103.6046511627907,-346.6666666666667,103.6046511627907,-340,103.6046511627907C-333.3333333333333,103.6046511627907,-326.6666666666667,103.6046511627907,-320,103.6046511627907C-313.3333333333333,103.6046511627907,-306.6666666666667,103.6046511627907,-300,103.6046511627907C-296.6666666666667,103.6046511627907,-293.3333333333333,103.6046511627907,-290,103.6046511627907C-286.6666666666667,103.6046511627907,-283.3333333333333,117.73255813953489,-280,131.86046511627907" style="stroke: rgb(44, 160, 44); stroke-width: 2; fill: none;"/><path class="linegg timeline hgroup_5" d="M-280,131.86046511627907C-276.6666666666667,131.86046511627907,-273.3333333333333,131.86046511627907,-270,131.86046511627907C-266.6666666666667,131.86046511627907,-263.3333333333333,91.04651162790697,-260,50.23255813953488" style="stroke: rgb(148, 103, 189); stroke-width: 2;"/><path class="linegg timeline hgroup_4" d="M-260,50.23255813953489C-253.33333333333334,50.23255813953489,-246.66666666666666,50.23255813953489,-240,50.23255813953489C-233.33333333333334,50.23255813953489,-226.66666666666666,50.23255813953489,-220,50.23255813953489C-213.33333333333334,50.23255813953489,-206.66666666666666,50.23255813953489,-200,50.23255813953489C-193.33333333333334,50.23255813953489,-186.66666666666666,50.23255813953489,-180,50.23255813953489C-173.33333333333334,50.23255813953489,-166.66666666666666,50.23255813953489,-160,50.23255813953489C-153.33333333333334,50.23255813953489,-146.66666666666666,50.23255813953489,-140,50.23255813953489C-133.33333333333334,50.23255813953489,-126.66666666666667,50.23255813953489,-120,50.23255813953489C-113.33333333333333,50.23255813953489,-106.66666666666667,50.23255813953489,-100,50.23255813953489C-93.33333333333333,50.23255813953489,-86.66666666666667,50.23255813953489,-80,50.23255813953489C-73.33333333333333,50.23255813953489,-66.66666666666667,50.23255813953489,-60,50.23255813953489C-53.333333333333336,50.23255813953489,-46.666666666666664,50.23255813953489,-40,50.23255813953489C-33.333333333333336,50.23255813953489,-26.666666666666668,50.23255813953489,-20,50.23255813953489C-13.333333333333332,50.23255813953489,-6.666666666666667,50.23255813953489,0,50.23255813953489" style="stroke: rgb(214, 39, 40); stroke-width: 2; fill: none;"/></g><text class="computeSig_label label" text-anchor="end" dx="-5" dy="0.5rem" fill="black" width="200" transform="translate(-980,131.86046511627907)">9</text></g><g class="node computeNode h10 statics" transform="translate(1010,0)" style="pointer-events: auto;"><g class="computeSig" stroke="black" style="stroke-width: 2;"><path class="linegg timeline hgroup_5" d="M-980,135C-973.3333333333334,135,-966.6666666666666,135,-960,135C-953.3333333333334,135,-946.6666666666666,135,-940,135C-933.3333333333334,135,-926.6666666666666,135,-920,135C-913.3333333333334,135,-906.6666666666666,135,-900,135C-893.3333333333334,135,-886.6666666666666,135,-880,135C-873.3333333333334,135,-866.6666666666666,135,-860,135C-853.3333333333334,135,-846.6666666666666,135,-840,135C-833.3333333333334,135,-826.6666666666666,135,-820,135C-813.3333333333334,135,-806.6666666666666,135,-800,135C-793.3333333333334,135,-786.6666666666666,135,-780,135C-773.3333333333334,135,-766.6666666666666,135,-760,135C-753.3333333333334,135,-746.6666666666666,135,-740,135C-733.3333333333334,135,-726.6666666666666,135,-720,135C-713.3333333333334,135,-706.6666666666666,135,-700,135C-693.3333333333334,135,-686.6666666666666,135,-680,135C-673.3333333333334,135,-666.6666666666666,135,-660,135C-653.3333333333334,135,-646.6666666666666,135,-640,135C-633.3333333333334,135,-626.6666666666666,135,-620,135C-613.3333333333334,135,-606.6666666666666,135,-600,135C-593.3333333333334,135,-586.6666666666666,135,-580,135C-573.3333333333334,135,-566.6666666666666,135,-560,135C-553.3333333333334,135,-546.6666666666666,135,-540,135C-533.3333333333334,135,-526.6666666666666,135,-520,135C-513.3333333333334,135,-506.6666666666667,135,-500,135C-493.3333333333333,135,-486.6666666666667,135,-480,135C-473.3333333333333,135,-466.6666666666667,135,-460,135C-453.3333333333333,135,-446.6666666666667,135,-440,135C-433.3333333333333,135,-426.6666666666667,135,-420,135C-413.3333333333333,135,-406.6666666666667,135,-400,135C-393.3333333333333,135,-386.6666666666667,135,-380,135C-373.3333333333333,135,-366.6666666666667,135,-360,135C-353.3333333333333,135,-346.6666666666667,135,-340,135C-333.3333333333333,135,-326.6666666666667,135,-320,135C-313.3333333333333,135,-306.6666666666667,135,-300,135C-293.3333333333333,135,-286.6666666666667,135,-280,135C-273.3333333333333,135,-266.6666666666667,135,-260,135C-253.33333333333334,135,-246.66666666666666,135,-240,135C-233.33333333333334,135,-226.66666666666666,135,-220,135C-213.33333333333334,135,-206.66666666666666,135,-200,135C-193.33333333333334,135,-186.66666666666666,135,-180,135C-173.33333333333334,135,-166.66666666666666,135,-160,135C-153.33333333333334,135,-146.66666666666666,135,-140,135C-133.33333333333334,135,-126.66666666666667,135,-120,135C-113.33333333333333,135,-106.66666666666667,135,-100,135C-93.33333333333333,135,-86.66666666666667,135,-80,135C-73.33333333333333,135,-66.66666666666667,135,-60,135C-53.333333333333336,135,-46.666666666666664,135,-40,135C-33.333333333333336,135,-26.666666666666668,135,-20,135C-13.333333333333332,135,-6.666666666666667,135,0,135" style="stroke: rgb(148, 103, 189); stroke-width: 2; fill: none;"/></g><text class="computeSig_label label" text-anchor="end" dx="-5" dy="0.5rem" fill="black" width="200" transform="translate(-980,135)">10</text></g></g><rect class="fisheyeLayer" style="opacity: 0; pointer-events: none;" width="980" height="180" transform="translate(-680,0)"/><g class="table header" transform="translate(600,0)"><g class="back"><path style="fill: rgb(221, 221, 221);"/></g></g></g><g class="timebox hide" transform="translate(40,20)" dy="1rem" style="font-size: 16px;"/><circle id="tipfollowscursor"/></svg>