<svg id="jobmap" width="1100" height="250" style="fill: none; font-size: 10px; font-family: sans-serif;" xmlns="http://www.w3.org/2000/svg" xmlns:xlink="http://www.w3.org/1999/xlink">

                    <defs id="defsmain"><pattern id="userpic" width="100%" height="100%" patternContentUnits="objectBoundingBox"><image height="1" width="1" preserveAspectRatio="none" xmlns:xlink="http://www.w3.org/1999/xlink" xlink:href="src/images/u.png"/></pattern><marker id="arrow" markerWidth="10" markerHeight="10" refX="0" refY="3" orient="auto" markerUnits="strokeWidth"><path d="M0,0 L0,6 L9,3 z" style="fill: black;"/></marker></defs><rect class="pantarget" opacity="0" width="1146" height="762"/><g class="pannel" transform="translate(50,50)"><text class="Time" text-anchor="middle" x="40" dy="-30" style="font-weight: bold; fill: black;">Time</text><line x1="60" x2="95" y1="-33" y2="-33" marker-end="url(#arrow)" style="stroke: black;"/><text class="Time" text-anchor="middle" x="-5" dy="-1rem" style="font-weight: bold; fill: black;">Instance</text><line x1="5" x2="5" y1="-5" y2="30" marker-end="url(#arrow)" style="stroke: black;"/><g class="gNodeaxis" transform="translate(1010,-10)"><g class="gMainaxis" fill="none" font-size="10" font-family="sans-serif" text-anchor="middle"><g class="tick" opacity="1" transform="translate(-980, 0)"><line stroke="#000" y2="145" vector-effect="non-scaling-stroke" style="stroke-width: 0.1; stroke: black; stroke-dasharray: 1, 2; opacity: 0.5;"/><text fill="#000" y="-3" dy="-0.5rem">1</text></g><g class="tick" opacity="1" transform="translate(-960, 0)"><line stroke="#000" y2="145" vector-effect="non-scaling-stroke" style="stroke-width: 0.1; stroke: black; stroke-dasharray: 1, 2; opacity: 0.5;"/><text fill="#000" y="-3" dy="-0.5rem">2</text></g><g class="tick" opacity="1" transform="translate(-940, 0)"><line stroke="#000" y2="145" vector-effect="non-scaling-stroke" style="stroke-width: 0.1; stroke: black; stroke-dasharray: 1, 2; opacity: 0.5;"/><text fill="#000" y="-3" dy="-0.5rem">3</text></g><g class="tick" opacity="1" transform="translate(-920, 0)"><line stroke="#000" y2="145" vector-effect="non-scaling-stroke" style="stroke-width: 0.1; stroke: black; stroke-dasharray: 1, 2; opacity: 0.5;"/><text fill="#000" y="-3" dy="-0.5rem">4</text></g><g class="tick" opacity="1" transform="translate(-900, 0)"><line stroke="#000" y2="145" vector-effect="non-scaling-stroke" style="stroke-width: 0.1; stroke: black; stroke-dasharray: 1, 2; opacity: 0.5;"/><text fill="#000" y="-3" dy="-0.5rem">5</text></g><g class="tick" opacity="1" transform="translate(-880, 0)"><line stroke="#000" y2="145" vector-effect="non-scaling-stroke" style="stroke-width: 0.1; stroke: black; stroke-dasharray: 1, 2; opacity: 0.5;"/><text fill="#000" y="-3" dy="-0.5rem">6</text></g><g class="tick" opacity="1" transform="translate(-860, 0)"><line stroke="#000" y2="145" vector-effect="non-scaling-stroke" style="stroke-width: 0.1; stroke: black; stroke-dasharray: 1, 2; opacity: 0.5;"/><text fill="#000" y="-3" dy="-0.5rem">7</text></g><g class="tick" opacity="1" transform="translate(-840, 0)"><line stroke="#000" y2="145" vector-effect="non-scaling-stroke" style="stroke-width: 0.1; stroke: black; stroke-dasharray: 1, 2; opacity: 0.5;"/><text fill="#000" y="-3" dy="-0.5rem">8</text></g><g class="tick" opacity="1" transform="translate(-820, 0)"><line stroke="#000" y2="145" vector-effect="non-scaling-stroke" style="stroke-width: 0.1; stroke: black; stroke-dasharray: 1, 2; opacity: 0.5;"/><text fill="#000" y="-3" dy="-0.5rem">9</text></g><g class="tick" opacity="1" transform="translate(-800, 0)"><line stroke="#000" y2="145" vector-effect="non-scaling-stroke" style="stroke-width: 0.1; stroke: black; stroke-dasharray: 1, 2; opacity: 0.5;"/><text fill="#000" y="-3" dy="-0.5rem">10</text></g><g class="tick" opacity="1" transform="translate(-780, 0)"><line stroke="#000" y2="145" vector-effect="non-scaling-stroke" style="stroke-width: 0.1; stroke: black; stroke-dasharray: 1, 2; opacity: 0.5;"/><text fill="#000" y="-3" dy="-0.5rem">11</text></g><g class="tick" opacity="1" transform="translate(-760, 0)"><line stroke="#000" y2="145" vector-effect="non-scaling-stroke" style="stroke-width: 0.1; stroke: black; stroke-dasharray: 1, 2; opacity: 0.5;"/><text fill="#000" y="-3" dy="-0.5rem">12</text></g><g class="tick" opacity="1" transform="translate(-740, 0)"><line stroke="#000" y2="145" vector-effect="non-scaling-stroke" style="stroke-width: 0.1; stroke: black; stroke-dasharray: 1, 2; opacity: 0.5;"/><text fill="#000" y="-3" dy="-0.5rem">13</text></g><g class="tick" opacity="1" transform="translate(-720, 0)"><line stroke="#000" y2="145" vector-effect="non-scaling-stroke" style="stroke-width: 0.1; stroke: black; stroke-dasharray: 1, 2; opacity: 0.5;"/><text fill="#000" y="-3" dy="-0.5rem">14</text></g><g class="tick" opacity="1" transform="translate(-700, 0)"><line stroke="#000" y2="145" vector-effect="non-scaling-stroke" style="stroke-width: 0.1; stroke: black; stroke-dasharray: 1, 2; opacity: 0.5;"/><text fill="#000" y="-3" dy="-0.5rem">15</text></g><g class="tick" opacity="1" transform="translate(-680, 0)"><line stroke="#000" y2="145" vector-effect="non-scaling-stroke" style="stroke-width: 0.1; stroke: black; stroke-dasharray: 1, 2; opacity: 0.5;"/><text fill="#000" y="-3" dy="-0.5rem">16</text></g><g class="tick" opacity="1" transform="translate(-660, 0)"><line stroke="#000" y2="145" vector-effect="non-scaling-stroke" style="stroke-width: 0.1; stroke: black; stroke-dasharray: 1, 2; opacity: 0.5;"/><text fill="#000" y="-3" dy="-0.5rem">17</text></g><g class="tick" opacity="1" transform="translate(-640, 0)"><line stroke="#000" y2="145" vector-effect="non-scaling-stroke" style="stroke-width: 0.1; stroke: black; stroke-dasharray: 1, 2; opacity: 0.5;"/><text fill="#000" y="-3" dy="-0.5rem">18</text></g><g class="tick" opacity="1" transform="translate(-620, 0)"><line stroke="#000" y2="145" vector-effect="non-scaling-stroke" style="stroke-width: 0.1; stroke: black; stroke-dasharray: 1, 2; opacity: 0.5;"/><text fill="#000" y="-3" dy="-0.5rem">19</text></g><g class="tick" opacity="1" transform="translate(-600, 0)"><line stroke="#000" y2="145" vector-effect="non-scaling-stroke" style="stroke-width: 0.1; stroke: black; stroke-dasharray: 1, 2; opacity: 0.5;"/><text fill="#000" y="-3" dy="-0.5rem">20</text></g><g class="tick" opacity="1" transform="translate(-580, 0)"><line stroke="#000" y2="145" vector-effect="non-scaling-stroke" style="stroke-width: 0.1; stroke: black; stroke-dasharray: 1, 2; opacity: 0.5;"/><text fill="#000" y="-3" dy="-0.5rem">21</text></g><g class="tick" opacity="1" transform="translate(-560, 0)"><line stroke="#000" y2="145" vector-effect="non-scaling-stroke" style="stroke-width: 0.1; stroke: black; stroke-dasharray: 1, 2; opacity: 0.5;"/><text fill="#000" y="-3" dy="-0.5rem">22</text></g><g class="tick" opacity="1" transform="translate(-540, 0)"><line stroke="#000" y2="145" vector-effect="non-scaling-stroke" style="stroke-width: 0.1; stroke: black; stroke-dasharray: 1, 2; opacity: 0.5;"/><text fill="#000" y="-3" dy="-0.5rem">23</text></g><g class="tick" opacity="1" transform="translate(-520, 0)"><line stroke="#000" y2="145" vector-effect="non-scaling-stroke" style="stroke-width: 0.1; stroke: black; stroke-dasharray: 1, 2; opacity: 0.5;"/><text fill="#000" y="-3" dy="-0.5rem">24</text></g><g class="tick" opacity="1" transform="translate(-500, 0)"><line stroke="#000" y2="145" vector-effect="non-scaling-stroke" style="stroke-width: 0.1; stroke: black; stroke-dasharray: 1, 2; opacity: 0.5;"/><text fill="#000" y="-3" dy="-0.5rem">25</text></g><g class="tick" opacity="1" transform="translate(-480, 0)"><line stroke="#000" y2="145" vector-effect="non-scaling-stroke" style="stroke-width: 0.1; stroke: black; stroke-dasharray: 1, 2; opacity: 0.5;"/><text fill="#000" y="-3" dy="-0.5rem">26</text></g><g class="tick" opacity="1" transform="translate(-460, 0)"><line stroke="#000" y2="145" vector-effect="non-scaling-stroke" style="stroke-width: 0.1; stroke: black; stroke-dasharray: 1, 2; opacity: 0.5;"/><text fill="#000" y="-3" dy="-0.5rem">27</text></g><g class="tick" opacity="1" transform="translate(-440, 0)"><line stroke="#000" y2="145" vector-effect="non-scaling-stroke" style="stroke-width: 0.1; stroke: black; stroke-dasharray: 1, 2; opacity: 0.5;"/><text fill="#000" y="-3" dy="-0.5rem">28</text></g><g class="tick" opacity="1" transform="translate(-420, 0)"><line stroke="#000" y2="145" vector-effect="non-scaling-stroke" style="stroke-width: 0.1; stroke: black; stroke-dasharray: 1, 2; opacity: 0.5;"/><text fill="#000" y="-3" dy="-0.5rem">29</text></g><g class="tick" opacity="1" transform="translate(-400, 0)"><line stroke="#000" y2="145" vector-effect="non-scaling-stroke" style="stroke-width: 0.1; stroke: black; stroke-dasharray: 1, 2; opacity: 0.5;"/><text fill="#000" y="-3" dy="-0.5rem">30</text></g><g class="tick" opacity="1" transform="translate(-380, 0)"><line stroke="#000" y2="145" vector-effect="non-scaling-stroke" style="stroke-width: 0.1; stroke: black; stroke-dasharray: 1, 2; opacity: 0.5;"/><text fill="#000" y="-3" dy="-0.5rem">31</text></g><g class="tick" opacity="1" transform="translate(-360, 0)"><line stroke="#000" y2="145" vector-effect="non-scaling-stroke" style="stroke-width: 0.1; stroke: black; stroke-dasharray: 1, 2; opacity: 0.5;"/><text fill="#000" y="-3" dy="-0.5rem">32</text></g><g class="tick" opacity="1" transform="translate(-340, 0)"><line stroke="#000" y2="145" vector-effect="non-scaling-stroke" style="stroke-width: 0.1; stroke: black; stroke-dasharray: 1, 2; opacity: 0.5;"/><text fill="#000" y="-3" dy="-0.5rem">33</text></g><g class="tick" opacity="1" transform="translate(-320, 0)"><line stroke="#000" y2="145" vector-effect="non-scaling-stroke" style="stroke-width: 0.1; stroke: black; stroke-dasharray: 1, 2; opacity: 0.5;"/><text fill="#000" y="-3" dy="-0.5rem">34</text></g><g class="tick" opacity="1" transform="translate(-300, 0)"><line stroke="#000" y2="145" vector-effect="non-scaling-stroke" style="stroke-width: 0.1; stroke: black; stroke-dasharray: 1, 2; opacity: 0.5;"/><text fill="#000" y="-3" dy="-0.5rem">35</text></g><g class="tick" opacity="1" transform="translate(-280, 0)"><line stroke="#000" y2="145" vector-effect="non-scaling-stroke" style="stroke-width: 0.1; stroke: black; stroke-dasharray: 1, 2; opacity: 0.5;"/><text fill="#000" y="-3" dy="-0.5rem">36</text></g><g class="tick" opacity="1" transform="translate(-260, 0)"><line stroke="#000" y2="145" vector-effect="non-scaling-stroke" style="stroke-width: 0.1; stroke: black; stroke-dasharray: 1, 2; opacity: 0.5;"/><text fill="#000" y="-3" dy="-0.5rem">37</text></g><g class="tick" opacity="1" transform="translate(-240, 0)"><line stroke="#000" y2="145" vector-effect="non-scaling-stroke" style="stroke-width: 0.1; stroke: black; stroke-dasharray: 1, 2; opacity: 0.5;"/><text fill="#000" y="-3" dy="-0.5rem">38</text></g><g class="tick" opacity="1" transform="translate(-220, 0)"><line stroke="#000" y2="145" vector-effect="non-scaling-stroke" style="stroke-width: 0.1; stroke: black; stroke-dasharray: 1, 2; opacity: 0.5;"/><text fill="#000" y="-3" dy="-0.5rem">39</text></g><g class="tick" opacity="1" transform="translate(-200, 0)"><line stroke="#000" y2="145" vector-effect="non-scaling-stroke" style="stroke-width: 0.1; stroke: black; stroke-dasharray: 1, 2; opacity: 0.5;"/><text fill="#000" y="-3" dy="-0.5rem">40</text></g><g class="tick" opacity="1" transform="translate(-180, 0)"><line stroke="#000" y2="145" vector-effect="non-scaling-stroke" style="stroke-width: 0.1; stroke: black; stroke-dasharray: 1, 2; opacity: 0.5;"/><text fill="#000" y="-3" dy="-0.5rem">41</text></g><g class="tick" opacity="1" transform="translate(-160, 0)"><line stroke="#000" y2="145" vector-effect="non-scaling-stroke" style="stroke-width: 0.1; stroke: black; stroke-dasharray: 1, 2; opacity: 0.5;"/><text fill="#000" y="-3" dy="-0.5rem">42</text></g><g class="tick" opacity="1" transform="translate(-140, 0)"><line stroke="#000" y2="145" vector-effect="non-scaling-stroke" style="stroke-width: 0.1; stroke: black; stroke-dasharray: 1, 2; opacity: 0.5;"/><text fill="#000" y="-3" dy="-0.5rem">43</text></g><g class="tick" opacity="1" transform="translate(-120, 0)"><line stroke="#000" y2="145" vector-effect="non-scaling-stroke" style="stroke-width: 0.1; stroke: black; stroke-dasharray: 1, 2; opacity: 0.5;"/><text fill="#000" y="-3" dy="-0.5rem">44</text></g><g class="tick" opacity="1" transform="translate(-100, 0)"><line stroke="#000" y2="145" vector-effect="non-scaling-stroke" style="stroke-width: 0.1; stroke: black; stroke-dasharray: 1, 2; opacity: 0.5;"/><text fill="#000" y="-3" dy="-0.5rem">45</text></g><g class="tick" opacity="1" transform="translate(-80, 0)"><line stroke="#000" y2="145" vector-effect="non-scaling-stroke" style="stroke-width: 0.1; stroke: black; stroke-dasharray: 1, 2; opacity: 0.5;"/><text fill="#000" y="-3" dy="-0.5rem">46</text></g><g class="tick" opacity="1" transform="translate(-60, 0)"><line stroke="#000" y2="145" vector-effect="non-scaling-stroke" style="stroke-width: 0.1; stroke: black; stroke-dasharray: 1, 2; opacity: 0.5;"/><text fill="#000" y="-3" dy="-0.5rem">47</text></g><g class="tick" opacity="1" transform="translate(-40, 0)"><line stroke="#000" y2="145" vector-effect="non-scaling-stroke" style="stroke-width: 0.1; stroke: black; stroke-dasharray: 1, 2; opacity: 0.5;"/><text fill="#000" y="-3" dy="-0.5rem">48</text></g><g class="tick" opacity="1" transform="translate(-20, 0)"><line stroke="#000" y2="145" vector-effect="non-scaling-stroke" style="stroke-width: 0.1; stroke: black; stroke-dasharray: 1, 2; opacity: 0.5;"/><text fill="#000" y="-3" dy="-0.5rem">49</text></g><g class="tick" opacity="1" transform=""><line stroke="#000" y2="145" vector-effect="non-scaling-stroke" style="stroke-width: 0.1; stroke: black; stroke-dasharray: 1, 2; opacity: 0.5;"/><text fill="#000" y="-3" dy="-0.5rem">50</text></g></g><g class="gSubaxis hide"/></g><g class="annotation"/><g class="linkg"><g class="links" style="display: none;"><path stroke="black" style="stroke-width: 2;"/><text text-anchor="middle">1</text></g><g class="links" style="display: none;"><path stroke="black" style="stroke-width: 2;"/><text text-anchor="middle">1</text></g><g class="links" style="display: none;"><path stroke="black" style="stroke-width: 2;"/><text text-anchor="middle">1</text></g><g class="links" style="display: none;"><path stroke="black" style="stroke-width: 2;"/><text text-anchor="middle">1</text></g><g class="links" style="display: none;"><path stroke="black" style="stroke-width: 2;"/><text text-anchor="middle">1</text></g><g class="links" style="display: none;"><path stroke="black" style="stroke-width: 2;"/><text text-anchor="middle">1</text></g><g class="links" style="display: none;"><path stroke="black" style="stroke-width: 2;"/><text text-anchor="middle">1</text></g><g class="links" style="display: none;"><path stroke="black" style="stroke-width: 2;"/><text text-anchor="middle">1</text></g><g class="links" style="display: none;"><path stroke="black" style="stroke-width: 2;"/><text text-anchor="middle">1</text></g><g class="links" style="display: none;"><path stroke="black" style="stroke-width: 2;"/><text text-anchor="middle">1</text></g><g class="links" style="display: none;"><path stroke="black" style="stroke-width: 2;"/><text text-anchor="middle">1</text></g></g><g class="nodeg"><g class="node computeNode h1 statics" transform="translate(1010,0)" style="pointer-events: auto;"><g class="computeSig" stroke="black" style="stroke-width: 2;"><path class="linegg timeline hgroup_1" d="M-980,50.625C-973.3333333333334,50.625,-966.6666666666666,50.625,-960,50.625C-953.3333333333334,50.625,-946.6666666666666,50.625,-940,50.625C-933.3333333333334,50.625,-926.6666666666666,50.625,-920,50.625C-913.3333333333334,50.625,-906.6666666666666,50.625,-900,50.625C-893.3333333333334,50.625,-886.6666666666666,50.625,-880,50.625C-873.3333333333334,50.625,-866.6666666666666,50.625,-860,50.625C-853.3333333333334,50.625,-846.6666666666666,50.625,-840,50.625C-833.3333333333334,50.625,-826.6666666666666,50.625,-820,50.625C-813.3333333333334,50.625,-806.6666666666666,50.625,-800,50.625C-793.3333333333334,50.625,-786.6666666666666,50.625,-780,50.625C-773.3333333333334,50.625,-766.6666666666666,50.625,-760,50.625C-753.3333333333334,50.625,-746.6666666666666,50.625,-740,50.625C-733.3333333333334,50.625,-726.6666666666666,50.625,-720,50.625C-713.3333333333334,50.625,-706.6666666666666,50.625,-700,50.625C-693.3333333333334,50.625,-686.6666666666666,50.625,-680,50.625C-673.3333333333334,50.625,-666.6666666666666,50.625,-660,50.625C-653.3333333333334,50.625,-646.6666666666666,50.625,-640,50.625C-633.3333333333334,50.625,-626.6666666666666,50.625,-620,50.625C-613.3333333333334,50.625,-606.6666666666666,50.625,-600,50.625C-593.3333333333334,50.625,-586.6666666666666,50.625,-580,50.625C-573.3333333333334,50.625,-566.6666666666666,50.625,-560,50.625C-553.3333333333334,50.625,-546.6666666666666,50.625,-540,50.625C-533.3333333333334,50.625,-526.6666666666666,50.625,-520,50.625C-516.6666666666666,50.625,-513.3333333333334,50.625,-510,50.625C-506.6666666666667,50.625,-503.3333333333333,88.59375,-500,126.5625" style="stroke: rgb(31, 119, 180); stroke-width: 2; fill: none;"/><path class="linegg timeline hgroup_2" d="M-500,126.5625C-493.3333333333333,126.5625,-486.6666666666667,126.5625,-480,126.5625C-473.3333333333333,126.5625,-466.6666666666667,126.5625,-460,126.5625C-453.3333333333333,126.5625,-446.6666666666667,126.5625,-440,126.5625C-433.3333333333333,126.5625,-426.6666666666667,126.5625,-420,126.5625C-413.3333333333333,126.5625,-406.6666666666667,126.5625,-400,126.5625C-393.3333333333333,126.5625,-386.6666666666667,126.5625,-380,126.5625C-373.3333333333333,126.5625,-366.6666666666667,126.5625,-360,126.5625C-353.3333333333333,126.5625,-346.6666666666667,126.5625,-340,126.5625C-333.3333333333333,126.5625,-326.6666666666667,126.5625,-320,126.5625C-313.3333333333333,126.5625,-306.6666666666667,126.5625,-300,126.5625C-293.3333333333333,126.5625,-286.6666666666667,126.5625,-280,126.5625C-273.3333333333333,126.5625,-266.6666666666667,126.5625,-260,126.5625C-253.33333333333334,126.5625,-246.66666666666666,126.5625,-240,126.5625C-233.33333333333334,126.5625,-226.66666666666666,126.5625,-220,126.5625C-213.33333333333334,126.5625,-206.66666666666666,126.5625,-200,126.5625C-193.33333333333334,126.5625,-186.66666666666666,126.5625,-180,126.5625C-173.33333333333334,126.5625,-166.66666666666666,126.5625,-160,126.5625C-153.33333333333334,126.5625,-146.66666666666666,126.5625,-140,126.5625C-133.33333333333334,126.5625,-126.66666666666667,126.5625,-120,126.5625C-113.33333333333333,126.5625,-106.66666666666667,126.5625,-100,126.5625C-93.33333333333333,126.5625,-86.66666666666667,126.5625,-80,126.5625C-76.66666666666667,126.5625,-73.33333333333333,126.5625,-70,126.5625C-66.66666666666667,126.5625,-63.333333333333336,88.59375,-60,50.625" style="stroke: rgb(255, 127, 14); stroke-width: 2; fill: none;"/><path class="linegg timeline hgroup_1" d="M-60,50.625C-53.333333333333336,50.625,-46.666666666666664,50.625,-40,50.625C-36.666666666666664,50.625,-33.333333333333336,50.625,-30,50.625C-26.666666666666668,50.625,-23.333333333333332,31.640625,-20,12.65625" style="stroke: rgb(31, 119, 180); stroke-width: 2; fill: none;"/><path class="linegg timeline hgroup_5" d="M-20,12.65625L0,12.65625" style="stroke: rgb(148, 103, 189); stroke-width: 2; fill: none;"/></g><text class="computeSig_label label" text-anchor="end" dx="-5" dy="0.5rem" fill="black" width="200" transform="translate(-980,50.625)">1</text></g><g class="node computeNode h2 statics" transform="translate(1010,0)" style="pointer-events: auto;"><g class="computeSig" stroke="black" style="stroke-width: 2;"><path class="linegg timeline hgroup_1" d="M-980,25.3125C-973.3333333333334,25.3125,-966.6666666666666,25.3125,-960,25.3125C-953.3333333333334,25.3125,-946.6666666666666,25.3125,-940,25.3125C-933.3333333333334,25.3125,-926.6666666666666,25.3125,-920,25.3125C-913.3333333333334,25.3125,-906.6666666666666,25.3125,-900,25.3125C-893.3333333333334,25.3125,-886.6666666666666,25.3125,-880,25.3125C-873.3333333333334,25.3125,-866.6666666666666,25.3125,-860,25.3125C-853.3333333333334,25.3125,-846.6666666666666,25.3125,-840,25.3125C-833.3333333333334,25.3125,-826.6666666666666,25.3125,-820,25.3125C-813.3333333333334,25.3125,-806.6666666666666,25.3125,-800,25.3125C-793.3333333333334,25.3125,-786.6666666666666,25.3125,-780,25.3125C-773.3333333333334,25.3125,-766.6666666666666,25.3125,-760,25.3125C-753.3333333333334,25.3125,-746.6666666666666,25.3125,-740,25.3125C-733.3333333333334,25.3125,-726.6666666666666,25.3125,-720,25.3125C-713.3333333333334,25.3125,-706.6666666666666,25.3125,-700,25.3125C-693.3333333333334,25.3125,-686.6666666666666,25.3125,-680,25.3125C-673.3333333333334,25.3125,-666.6666666666666,25.3125,-660,25.3125C-653.3333333333334,25.3125,-646.6666666666666,25.3125,-640,25.3125C-633.3333333333334,25.3125,-626.6666666666666,25.3125,-620,25.3125C-613.3333333333334,25.3125,-606.6666666666666,25.3125,-600,25.3125C-593.3333333333334,25.3125,-586.6666666666666,25.3125,-580,25.3125C-573.3333333333334,25.3125,-566.6666666666666,25.3125,-560,25.3125C-553.3333333333334,25.3125,-546.6666666666666,25.3125,-540,25.3125C-533.3333333333334,25.3125,-526.6666666666666,25.3125,-520,25.3125C-513.3333333333334,25.3125,-506.6666666666667,25.3125,-500,25.3125C-493.3333333333333,25.3125,-486.6666666666667,25.3125,-480,25.3125C-473.3333333333333,25.3125,-466.6666666666667,25.3125,-460,25.3125C-453.3333333333333,25.3125,-446.6666666666667,25.3125,-440,25.3125C-433.3333333333333,25.3125,-426.6666666666667,25.3125,-420,25.3125C-413.3333333333333,25.3125,-406.6666666666667,25.3125,-400,25.3125C-393.3333333333333,25.3125,-386.6666666666667,25.3125,-380,25.3125C-373.3333333333333,25.3125,-366.6666666666667,25.3125,-360,25.3125C-353.3333333333333,25.3125,-346.6666666666667,25.3125,-340,25.3125C-333.3333333333333,25.3125,-326.6666666666667,25.3125,-320,25.3125C-313.3333333333333,25.3125,-306.6666666666667,25.3125,-300,25.3125C-293.3333333333333,25.3125,-286.6666666666667,25.3125,-280,25.3125C-273.3333333333333,25.3125,-266.6666666666667,25.3125,-260,25.3125C-253.33333333333334,25.3125,-246.66666666666666,25.3125,-240,25.3125C-233.33333333333334,25.3125,-226.66666666666666,25.3125,-220,25.3125C-213.33333333333334,25.3125,-206.66666666666666,25.3125,-200,25.3125C-193.33333333333334,25.3125,-186.66666666666666,25.3125,-180,25.3125C-173.33333333333334,25.3125,-166.66666666666666,25.3125,-160,25.3125C-153.33333333333334,25.3125,-146.66666666666666,25.3125,-140,25.3125C-133.33333333333334,25.3125,-126.66666666666667,25.3125,-120,25.3125C-116.66666666666667,25.3125,-113.33333333333333,25.3125,-110,25.3125C-106.66666666666667,25.3125,-103.33333333333333,42.1875,-100,59.0625" style="stroke: rgb(31, 119, 180); stroke-width: 2; fill: none;"/><path class="linegg timeline hgroup_3" d="M-100,59.0625C-96.66666666666667,59.0625,-93.33333333333333,59.0625,-90,59.0625C-86.66666666666667,59.0625,-83.33333333333333,86.484375,-80,113.90625" style="stroke: rgb(44, 160, 44); stroke-width: 2;"/><path class="linegg timeline hgroup_2" d="M-80,113.90625C-73.33333333333333,113.90625,-66.66666666666667,113.90625,-60,113.90625C-53.333333333333336,113.90625,-46.666666666666664,113.90625,-40,113.90625C-33.333333333333336,113.90625,-26.666666666666668,113.90625,-20,113.90625C-13.333333333333332,113.90625,-6.666666666666667,113.90625,0,113.90625" style="stroke: rgb(255, 127, 14); stroke-width: 2; fill: none;"/></g><text class="computeSig_label label" text-anchor="end" dx="-5" dy="0.5rem" fill="black" width="200" transform="translate(-980,25.3125)">2</text></g><g class="node computeNode h3 statics" transform="translate(1010,0)" style="pointer-events: auto;"><g class="computeSig" stroke="black" style="stroke-width: 2;"><path class="linegg timeline hgroup_2" d="M-980,135C-973.3333333333334,135,-966.6666666666666,135,-960,135C-953.3333333333334,135,-946.6666666666666,135,-940,135C-933.3333333333334,135,-926.6666666666666,135,-920,135C-913.3333333333334,135,-906.6666666666666,135,-900,135C-893.3333333333334,135,-886.6666666666666,135,-880,135C-873.3333333333334,135,-866.6666666666666,135,-860,135C-853.3333333333334,135,-846.6666666666666,135,-840,135C-833.3333333333334,135,-826.6666666666666,135,-820,135C-813.3333333333334,135,-806.6666666666666,135,-800,135C-793.3333333333334,135,-786.6666666666666,135,-780,135C-773.3333333333334,135,-766.6666666666666,135,-760,135C-753.3333333333334,135,-746.6666666666666,135,-740,135C-733.3333333333334,135,-726.6666666666666,135,-720,135C-713.3333333333334,135,-706.6666666666666,135,-700,135C-693.3333333333334,135,-686.6666666666666,135,-680,135C-673.3333333333334,135,-666.6666666666666,135,-660,135C-653.3333333333334,135,-646.6666666666666,135,-640,135C-633.3333333333334,135,-626.6666666666666,135,-620,135C-613.3333333333334,135,-606.6666666666666,135,-600,135C-593.3333333333334,135,-586.6666666666666,135,-580,135C-573.3333333333334,135,-566.6666666666666,135,-560,135C-553.3333333333334,135,-546.6666666666666,135,-540,135C-533.3333333333334,135,-526.6666666666666,135,-520,135C-513.3333333333334,135,-506.6666666666667,135,-500,135C-493.3333333333333,135,-486.6666666666667,135,-480,135C-473.3333333333333,135,-466.6666666666667,135,-460,135C-453.3333333333333,135,-446.6666666666667,135,-440,135C-433.3333333333333,135,-426.6666666666667,135,-420,135C-413.3333333333333,135,-406.6666666666667,135,-400,135C-393.3333333333333,135,-386.6666666666667,135,-380,135C-373.3333333333333,135,-366.6666666666667,135,-360,135C-353.3333333333333,135,-346.6666666666667,135,-340,135C-333.3333333333333,135,-326.6666666666667,135,-320,135C-313.3333333333333,135,-306.6666666666667,135,-300,135C-293.3333333333333,135,-286.6666666666667,135,-280,135C-273.3333333333333,135,-266.6666666666667,135,-260,135C-253.33333333333334,135,-246.66666666666666,135,-240,135C-233.33333333333334,135,-226.66666666666666,135,-220,135C-213.33333333333334,135,-206.66666666666666,135,-200,135C-193.33333333333334,135,-186.66666666666666,135,-180,135C-173.33333333333334,135,-166.66666666666666,135,-160,135C-153.33333333333334,135,-146.66666666666666,135,-140,135C-133.33333333333334,135,-126.66666666666667,135,-120,135C-113.33333333333333,135,-106.66666666666667,135,-100,135C-93.33333333333333,135,-86.66666666666667,135,-80,135C-73.33333333333333,135,-66.66666666666667,135,-60,135C-53.333333333333336,135,-46.666666666666664,135,-40,135C-33.333333333333336,135,-26.666666666666668,135,-20,135C-13.333333333333332,135,-6.666666666666667,135,0,135" style="stroke: rgb(255, 127, 14); stroke-width: 2; fill: none;"/></g><text class="computeSig_label label" text-anchor="end" dx="-5" dy="0.5rem" fill="black" width="200" transform="translate(-980,135)">3</text></g><g class="node computeNode h4 statics" transform="translate(1010,0)" style="pointer-events: auto;"><g class="computeSig" stroke="black" style="stroke-width: 2;"><path class="linegg timeline hgroup_3" d="M-980,63.28125C-973.3333333333334,63.28125,-966.6666666666666,63.28125,-960,63.28125C-953.3333333333334,63.28125,-946.6666666666666,63.28125,-940,63.28125C-933.3333333333334,63.28125,-926.6666666666666,63.28125,-920,63.28125C-913.3333333333334,63.28125,-906.6666666666666,63.28125,-900,63.28125C-893.3333333333334,63.28125,-886.6666666666666,63.28125,-880,63.28125C-876.6666666666666,63.28125,-873.3333333333334,63.28125,-870,63.28125C-866.6666666666666,63.28125,-863.3333333333334,48.515625,-860,33.75" style="stroke: rgb(44, 160, 44); stroke-width: 2; fill: none;"/><path class="linegg timeline hgroup_1" d="M-860,33.75C-853.3333333333334,33.75,-846.6666666666666,33.75,-840,33.75C-833.3333333333334,33.75,-826.6666666666666,33.75,-820,33.75C-813.3333333333334,33.75,-806.6666666666666,33.75,-800,33.75C-793.3333333333334,33.75,-786.6666666666666,33.75,-780,33.75C-773.3333333333334,33.75,-766.6666666666666,33.75,-760,33.75C-753.3333333333334,33.75,-746.6666666666666,33.75,-740,33.75C-733.3333333333334,33.75,-726.6666666666666,33.75,-720,33.75C-713.3333333333334,33.75,-706.6666666666666,33.75,-700,33.75C-693.3333333333334,33.75,-686.6666666666666,33.75,-680,33.75C-673.3333333333334,33.75,-666.6666666666666,33.75,-660,33.75C-653.3333333333334,33.75,-646.6666666666666,33.75,-640,33.75C-633.3333333333334,33.75,-626.6666666666666,33.75,-620,33.75C-613.3333333333334,33.75,-606.6666666666666,33.75,-600,33.75C-593.3333333333334,33.75,-586.6666666666666,33.75,-580,33.75C-573.3333333333334,33.75,-566.6666666666666,33.75,-560,33.75C-553.3333333333334,33.75,-546.6666666666666,33.75,-540,33.75C-533.3333333333334,33.75,-526.6666666666666,33.75,-520,33.75C-513.3333333333334,33.75,-506.6666666666667,33.75,-500,33.75C-493.3333333333333,33.75,-486.6666666666667,33.75,-480,33.75C-473.3333333333333,33.75,-466.6666666666667,33.75,-460,33.75C-453.3333333333333,33.75,-446.6666666666667,33.75,-440,33.75C-433.3333333333333,33.75,-426.6666666666667,33.75,-420,33.75C-413.3333333333333,33.75,-406.6666666666667,33.75,-400,33.75C-393.3333333333333,33.75,-386.6666666666667,33.75,-380,33.75C-373.3333333333333,33.75,-366.6666666666667,33.75,-360,33.75C-353.3333333333333,33.75,-346.6666666666667,33.75,-340,33.75C-333.3333333333333,33.75,-326.6666666666667,33.75,-320,33.75C-313.3333333333333,33.75,-306.6666666666667,33.75,-300,33.75C-293.3333333333333,33.75,-286.6666666666667,33.75,-280,33.75C-273.3333333333333,33.75,-266.6666666666667,33.75,-260,33.75C-256.6666666666667,33.75,-253.33333333333334,33.75,-250,33.75C-246.66666666666666,33.75,-243.33333333333334,48.515625,-240,63.28125" style="stroke: rgb(31, 119, 180); stroke-width: 2; fill: none;"/><path class="linegg timeline hgroup_3" d="M-240,63.28125C-233.33333333333334,63.28125,-226.66666666666666,63.28125,-220,63.28125C-213.33333333333334,63.28125,-206.66666666666666,63.28125,-200,63.28125C-193.33333333333334,63.28125,-186.66666666666666,63.28125,-180,63.28125C-173.33333333333334,63.28125,-166.66666666666666,63.28125,-160,63.28125C-153.33333333333334,63.28125,-146.66666666666666,63.28125,-140,63.28125C-133.33333333333334,63.28125,-126.66666666666667,63.28125,-120,63.28125C-113.33333333333333,63.28125,-106.66666666666667,63.28125,-100,63.28125C-96.66666666666667,63.28125,-93.33333333333333,63.28125,-90,63.28125C-86.66666666666667,63.28125,-83.33333333333333,78.046875,-80,92.8125" style="stroke: rgb(44, 160, 44); stroke-width: 2; fill: none;"/><path class="linegg timeline hgroup_4" d="M-80,92.8125C-73.33333333333333,92.8125,-66.66666666666667,92.8125,-60,92.8125C-53.333333333333336,92.8125,-46.666666666666664,92.8125,-40,92.8125C-33.333333333333336,92.8125,-26.666666666666668,92.8125,-20,92.8125C-16.666666666666668,92.8125,-13.333333333333334,92.8125,-10,92.8125C-6.666666666666666,92.8125,-3.3333333333333335,105.46875,0,118.125" style="stroke: rgb(214, 39, 40); stroke-width: 2; fill: none;"/><path class="linegg timeline hgroup_2" d="M0,118.125Z" style="stroke: rgb(255, 127, 14); stroke-width: 2;"/></g><text class="computeSig_label label" text-anchor="end" dx="-5" dy="0.5rem" fill="black" width="200" transform="translate(-980,63.28125)">4</text></g><g class="node computeNode h5 statics" transform="translate(1010,0)" style="pointer-events: auto;"><g class="computeSig" stroke="black" style="stroke-width: 2;"><path class="linegg timeline hgroup_3" d="M-980,80.15625C-973.3333333333334,80.15625,-966.6666666666666,80.15625,-960,80.15625C-953.3333333333334,80.15625,-946.6666666666666,80.15625,-940,80.15625C-933.3333333333334,80.15625,-926.6666666666666,80.15625,-920,80.15625C-913.3333333333334,80.15625,-906.6666666666666,80.15625,-900,80.15625C-893.3333333333334,80.15625,-886.6666666666666,80.15625,-880,80.15625C-873.3333333333334,80.15625,-866.6666666666666,80.15625,-860,80.15625C-853.3333333333334,80.15625,-846.6666666666666,80.15625,-840,80.15625C-833.3333333333334,80.15625,-826.6666666666666,80.15625,-820,80.15625C-813.3333333333334,80.15625,-806.6666666666666,80.15625,-800,80.15625C-793.3333333333334,80.15625,-786.6666666666666,80.15625,-780,80.15625C-773.3333333333334,80.15625,-766.6666666666666,80.15625,-760,80.15625C-753.3333333333334,80.15625,-746.6666666666666,80.15625,-740,80.15625C-733.3333333333334,80.15625,-726.6666666666666,80.15625,-720,80.15625C-713.3333333333334,80.15625,-706.6666666666666,80.15625,-700,80.15625C-693.3333333333334,80.15625,-686.6666666666666,80.15625,-680,80.15625C-673.3333333333334,80.15625,-666.6666666666666,80.15625,-660,80.15625C-653.3333333333334,80.15625,-646.6666666666666,80.15625,-640,80.15625C-633.3333333333334,80.15625,-626.6666666666666,80.15625,-620,80.15625C-613.3333333333334,80.15625,-606.6666666666666,80.15625,-600,80.15625C-593.3333333333334,80.15625,-586.6666666666666,80.15625,-580,80.15625C-573.3333333333334,80.15625,-566.6666666666666,80.15625,-560,80.15625C-553.3333333333334,80.15625,-546.6666666666666,80.15625,-540,80.15625C-533.3333333333334,80.15625,-526.6666666666666,80.15625,-520,80.15625C-513.3333333333334,80.15625,-506.6666666666667,80.15625,-500,80.15625C-493.3333333333333,80.15625,-486.6666666666667,80.15625,-480,80.15625C-473.3333333333333,80.15625,-466.6666666666667,80.15625,-460,80.15625C-453.3333333333333,80.15625,-446.6666666666667,80.15625,-440,80.15625C-433.3333333333333,80.15625,-426.6666666666667,80.15625,-420,80.15625C-413.3333333333333,80.15625,-406.6666666666667,80.15625,-400,80.15625C-393.3333333333333,80.15625,-386.6666666666667,80.15625,-380,80.15625C-373.3333333333333,80.15625,-366.6666666666667,80.15625,-360,80.15625C-353.3333333333333,80.15625,-346.6666666666667,80.15625,-340,80.15625C-333.3333333333333,80.15625,-326.6666666666667,80.15625,-320,80.15625C-313.3333333333333,80.15625,-306.6666666666667,80.15625,-300,80.15625C-293.3333333333333,80.15625,-286.6666666666667,80.15625,-280,80.15625C-273.3333333333333,80.15625,-266.6666666666667,80.15625,-260,80.15625C-253.33333333333334,80.15625,-246.66666666666666,80.15625,-240,80.15625C-233.33333333333334,80.15625,-226.66666666666666,80.15625,-220,80.15625C-213.33333333333334,80.15625,-206.66666666666666,80.15625,-200,80.15625C-193.33333333333334,80.15625,-186.66666666666666,80.15625,-180,80.15625C-173.33333333333334,80.15625,-166.66666666666666,80.15625,-160,80.15625C-153.33333333333334,80.15625,-146.66666666666666,80.15625,-140,80.15625C-133.33333333333334,80.15625,-126.66666666666667,80.15625,-120,80.15625C-113.33333333333333,80.15625,-106.66666666666667,80.15625,-100,80.15625C-93.33333333333333,80.15625,-86.66666666666667,80.15625,-80,80.15625C-73.33333333333333,80.15625,-66.66666666666667,80.15625,-60,80.15625C-53.333333333333336,80.15625,-46.666666666666664,80.15625,-40,80.15625C-33.333333333333336,80.15625,-26.666666666666668,80.15625,-20,80.15625C-13.333333333333332,80.15625,-6.666666666666667,80.15625,0,80.15625" style="stroke: rgb(44, 160, 44); stroke-width: 2; fill: none;"/></g><text class="computeSig_label label" text-anchor="end" dx="-5" dy="0.5rem" fill="black" width="200" transform="translate(-980,80.15625)">5</text></g><g class="node computeNode h6 statics" transform="translate(1010,0)" style="pointer-events: auto;"><g class="computeSig" stroke="black" style="stroke-width: 2;"><path class="linegg timeline hgroup_2" d="M-980,130.78125C-973.3333333333334,130.78125,-966.6666666666666,130.78125,-960,130.78125C-953.3333333333334,130.78125,-946.6666666666666,130.78125,-940,130.78125C-933.3333333333334,130.78125,-926.6666666666666,130.78125,-920,130.78125C-913.3333333333334,130.78125,-906.6666666666666,130.78125,-900,130.78125C-893.3333333333334,130.78125,-886.6666666666666,130.78125,-880,130.78125C-873.3333333333334,130.78125,-866.6666666666666,130.78125,-860,130.78125C-853.3333333333334,130.78125,-846.6666666666666,130.78125,-840,130.78125C-833.3333333333334,130.78125,-826.6666666666666,130.78125,-820,130.78125C-813.3333333333334,130.78125,-806.6666666666666,130.78125,-800,130.78125C-793.3333333333334,130.78125,-786.6666666666666,130.78125,-780,130.78125C-776.6666666666666,130.78125,-773.3333333333334,130.78125,-770,130.78125C-766.6666666666666,130.78125,-763.3333333333334,118.125,-760,105.46875" style="stroke: rgb(255, 127, 14); stroke-width: 2; fill: none;"/><path class="linegg timeline hgroup_4" d="M-760,105.46875C-753.3333333333334,105.46875,-746.6666666666666,105.46875,-740,105.46875C-733.3333333333334,105.46875,-726.6666666666666,105.46875,-720,105.46875C-713.3333333333334,105.46875,-706.6666666666666,105.46875,-700,105.46875C-693.3333333333334,105.46875,-686.6666666666666,105.46875,-680,105.46875C-673.3333333333334,105.46875,-666.6666666666666,105.46875,-660,105.46875C-653.3333333333334,105.46875,-646.6666666666666,105.46875,-640,105.46875C-633.3333333333334,105.46875,-626.6666666666666,105.46875,-620,105.46875C-613.3333333333334,105.46875,-606.6666666666666,105.46875,-600,105.46875C-593.3333333333334,105.46875,-586.6666666666666,105.46875,-580,105.46875C-573.3333333333334,105.46875,-566.6666666666666,105.46875,-560,105.46875C-553.3333333333334,105.46875,-546.6666666666666,105.46875,-540,105.46875C-533.3333333333334,105.46875,-526.6666666666666,105.46875,-520,105.46875C-513.3333333333334,105.46875,-506.6666666666667,105.46875,-500,105.46875C-493.3333333333333,105.46875,-486.6666666666667,105.46875,-480,105.46875C-473.3333333333333,105.46875,-466.6666666666667,105.46875,-460,105.46875C-453.3333333333333,105.46875,-446.6666666666667,105.46875,-440,105.46875C-433.3333333333333,105.46875,-426.6666666666667,105.46875,-420,105.46875C-413.3333333333333,105.46875,-406.6666666666667,105.46875,-400,105.46875C-393.3333333333333,105.46875,-386.6666666666667,105.46875,-380,105.46875C-373.3333333333333,105.46875,-366.6666666666667,105.46875,-360,105.46875C-353.3333333333333,105.46875,-346.6666666666667,105.46875,-340,105.46875C-333.3333333333333,105.46875,-326.6666666666667,105.46875,-320,105.46875C-313.3333333333333,105.46875,-306.6666666666667,105.46875,-300,105.46875C-296.6666666666667,105.46875,-293.3333333333333,105.46875,-290,105.46875C-286.6666666666667,105.46875,-283.3333333333333,61.171875,-280,16.875" style="stroke: rgb(214, 39, 40); stroke-width: 2; fill: none;"/><path class="linegg timeline hgroup_5" d="M-280,16.875C-273.3333333333333,16.875,-266.6666666666667,16.875,-260,16.875C-253.33333333333334,16.875,-246.66666666666666,16.875,-240,16.875C-236.66666666666666,16.875,-233.33333333333334,16.875,-230,16.875C-226.66666666666666,16.875,-223.33333333333334,35.859375,-220,54.84375" style="stroke: rgb(148, 103, 189); stroke-width: 2; fill: none;"/><path class="linegg timeline hgroup_1" d="M-220,54.84375C-213.33333333333334,54.84375,-206.66666666666666,54.84375,-200,54.84375C-193.33333333333334,54.84375,-186.66666666666666,54.84375,-180,54.84375C-173.33333333333334,54.84375,-166.66666666666666,54.84375,-160,54.84375C-153.33333333333334,54.84375,-146.66666666666666,54.84375,-140,54.84375C-133.33333333333334,54.84375,-126.66666666666667,54.84375,-120,54.84375C-113.33333333333333,54.84375,-106.66666666666667,54.84375,-100,54.84375C-93.33333333333333,54.84375,-86.66666666666667,54.84375,-80,54.84375C-73.33333333333333,54.84375,-66.66666666666667,54.84375,-60,54.84375C-53.333333333333336,54.84375,-46.666666666666664,54.84375,-40,54.84375C-33.333333333333336,54.84375,-26.666666666666668,54.84375,-20,54.84375C-13.333333333333332,54.84375,-6.666666666666667,54.84375,0,54.84375" style="stroke: rgb(31, 119, 180); stroke-width: 2; fill: none;"/></g><text class="computeSig_label label" text-anchor="end" dx="-5" dy="0.5rem" fill="black" width="200" transform="translate(-980,130.78125)">6</text></g><g class="node computeNode h7 statics" transform="translate(1010,0)" style="pointer-events: auto;"><g class="computeSig" stroke="black" style="stroke-width: 2;"><path class="linegg timeline hgroup_3" d="M-980,71.71875C-973.3333333333334,71.71875,-966.6666666666666,71.71875,-960,71.71875C-953.3333333333334,71.71875,-946.6666666666666,71.71875,-940,71.71875C-933.3333333333334,71.71875,-926.6666666666666,71.71875,-920,71.71875C-913.3333333333334,71.71875,-906.6666666666666,71.71875,-900,71.71875C-893.3333333333334,71.71875,-886.6666666666666,71.71875,-880,71.71875C-873.3333333333334,71.71875,-866.6666666666666,71.71875,-860,71.71875C-853.3333333333334,71.71875,-846.6666666666666,71.71875,-840,71.71875C-833.3333333333334,71.71875,-826.6666666666666,71.71875,-820,71.71875C-813.3333333333334,71.71875,-806.6666666666666,71.71875,-800,71.71875C-793.3333333333334,71.71875,-786.6666666666666,71.71875,-780,71.71875C-773.3333333333334,71.71875,-766.6666666666666,71.71875,-760,71.71875C-753.3333333333334,71.71875,-746.6666666666666,71.71875,-740,71.71875C-733.3333333333334,71.71875,-726.6666666666666,71.71875,-720,71.71875C-713.3333333333334,71.71875,-706.6666666666666,71.71875,-700,71.71875C-693.3333333333334,71.71875,-686.6666666666666,71.71875,-680,71.71875C-673.3333333333334,71.71875,-666.6666666666666,71.71875,-660,71.71875C-653.3333333333334,71.71875,-646.6666666666666,71.71875,-640,71.71875C-633.3333333333334,71.71875,-626.6666666666666,71.71875,-620,71.71875C-613.3333333333334,71.71875,-606.6666666666666,71.71875,-600,71.71875C-593.3333333333334,71.71875,-586.6666666666666,71.71875,-580,71.71875C-573.3333333333334,71.71875,-566.6666666666666,71.71875,-560,71.71875C-553.3333333333334,71.71875,-546.6666666666666,71.71875,-540,71.71875C-533.3333333333334,71.71875,-526.6666666666666,71.71875,-520,71.71875C-513.3333333333334,71.71875,-506.6666666666667,71.71875,-500,71.71875C-493.3333333333333,71.71875,-486.6666666666667,71.71875,-480,71.71875C-473.3333333333333,71.71875,-466.6666666666667,71.71875,-460,71.71875C-453.3333333333333,71.71875,-446.6666666666667,71.71875,-440,71.71875C-433.3333333333333,71.71875,-426.6666666666667,71.71875,-420,71.71875C-413.3333333333333,71.71875,-406.6666666666667,71.71875,-400,71.71875C-393.3333333333333,71.71875,-386.6666666666667,71.71875,-380,71.71875C-373.3333333333333,71.71875,-366.6666666666667,71.71875,-360,71.71875C-353.3333333333333,71.71875,-346.6666666666667,71.71875,-340,71.71875C-333.3333333333333,71.71875,-326.6666666666667,71.71875,-320,71.71875C-313.3333333333333,71.71875,-306.6666666666667,71.71875,-300,71.71875C-293.3333333333333,71.71875,-286.6666666666667,71.71875,-280,71.71875C-273.3333333333333,71.71875,-266.6666666666667,71.71875,-260,71.71875C-253.33333333333334,71.71875,-246.66666666666666,71.71875,-240,71.71875C-233.33333333333334,71.71875,-226.66666666666666,71.71875,-220,71.71875C-216.66666666666666,71.71875,-213.33333333333334,71.71875,-210,71.71875C-206.66666666666666,71.71875,-203.33333333333334,86.484375,-200,101.25" style="stroke: rgb(44, 160, 44); stroke-width: 2; fill: none;"/><path class="linegg timeline hgroup_4" d="M-200,101.25C-196.66666666666666,101.25,-193.33333333333334,101.25,-190,101.25C-186.66666666666666,101.25,-183.33333333333334,71.71875,-180,42.1875" style="stroke: rgb(214, 39, 40); stroke-width: 2;"/><path class="linegg timeline hgroup_1" d="M-180,42.1875C-173.33333333333334,42.1875,-166.66666666666666,42.1875,-160,42.1875C-153.33333333333334,42.1875,-146.66666666666666,42.1875,-140,42.1875C-133.33333333333334,42.1875,-126.66666666666667,42.1875,-120,42.1875C-113.33333333333333,42.1875,-106.66666666666667,42.1875,-100,42.1875C-93.33333333333333,42.1875,-86.66666666666667,42.1875,-80,42.1875C-73.33333333333333,42.1875,-66.66666666666667,42.1875,-60,42.1875C-53.333333333333336,42.1875,-46.666666666666664,42.1875,-40,42.1875C-33.333333333333336,42.1875,-26.666666666666668,42.1875,-20,42.1875C-13.333333333333332,42.1875,-6.666666666666667,42.1875,0,42.1875" style="stroke: rgb(31, 119, 180); stroke-width: 2; fill: none;"/></g><text class="computeSig_label label" text-anchor="end" dx="-5" dy="0.5rem" fill="black" width="200" transform="translate(-980,71.71875)">7</text></g><g class="node computeNode h8 statics" transform="translate(1010,0)" style="pointer-events: auto;"><g class="computeSig" stroke="black" style="stroke-width: 2;"><path class="linegg timeline hgroup_2" d="M-980,122.34375C-973.3333333333334,122.34375,-966.6666666666666,122.34375,-960,122.34375C-953.3333333333334,122.34375,-946.6666666666666,122.34375,-940,122.34375C-933.3333333333334,122.34375,-926.6666666666666,122.34375,-920,122.34375C-916.6666666666666,122.34375,-913.3333333333334,122.34375,-910,122.34375C-906.6666666666666,122.34375,-903.3333333333334,65.390625,-900,8.4375" style="stroke: rgb(255, 127, 14); stroke-width: 2; fill: none;"/><path class="linegg timeline hgroup_5" d="M-900,8.4375C-893.3333333333334,8.4375,-886.6666666666666,8.4375,-880,8.4375C-873.3333333333334,8.4375,-866.6666666666666,8.4375,-860,8.4375C-853.3333333333334,8.4375,-846.6666666666666,8.4375,-840,8.4375C-836.6666666666666,8.4375,-833.3333333333334,8.4375,-830,8.4375C-826.6666666666666,8.4375,-823.3333333333334,42.1875,-820,75.9375" style="stroke: rgb(148, 103, 189); stroke-width: 2; fill: none;"/><path class="linegg timeline hgroup_3" d="M-820,75.9375C-813.3333333333334,75.9375,-806.6666666666666,75.9375,-800,75.9375C-793.3333333333334,75.9375,-786.6666666666666,75.9375,-780,75.9375C-773.3333333333334,75.9375,-766.6666666666666,75.9375,-760,75.9375C-753.3333333333334,75.9375,-746.6666666666666,75.9375,-740,75.9375C-733.3333333333334,75.9375,-726.6666666666666,75.9375,-720,75.9375C-713.3333333333334,75.9375,-706.6666666666666,75.9375,-700,75.9375C-693.3333333333334,75.9375,-686.6666666666666,75.9375,-680,75.9375C-673.3333333333334,75.9375,-666.6666666666666,75.9375,-660,75.9375C-653.3333333333334,75.9375,-646.6666666666666,75.9375,-640,75.9375C-633.3333333333334,75.9375,-626.6666666666666,75.9375,-620,75.9375C-613.3333333333334,75.9375,-606.6666666666666,75.9375,-600,75.9375C-593.3333333333334,75.9375,-586.6666666666666,75.9375,-580,75.9375C-573.3333333333334,75.9375,-566.6666666666666,75.9375,-560,75.9375C-553.3333333333334,75.9375,-546.6666666666666,75.9375,-540,75.9375C-536.6666666666666,75.9375,-533.3333333333334,75.9375,-530,75.9375C-526.6666666666666,75.9375,-523.3333333333334,61.171875,-520,46.40625" style="stroke: rgb(44, 160, 44); stroke-width: 2; fill: none;"/><path class="linegg timeline hgroup_1" d="M-520,46.40625C-513.3333333333334,46.40625,-506.6666666666667,46.40625,-500,46.40625C-493.3333333333333,46.40625,-486.6666666666667,46.40625,-480,46.40625C-473.3333333333333,46.40625,-466.6666666666667,46.40625,-460,46.40625C-453.3333333333333,46.40625,-446.6666666666667,46.40625,-440,46.40625C-433.3333333333333,46.40625,-426.6666666666667,46.40625,-420,46.40625C-413.3333333333333,46.40625,-406.6666666666667,46.40625,-400,46.40625C-393.3333333333333,46.40625,-386.6666666666667,46.40625,-380,46.40625C-373.3333333333333,46.40625,-366.6666666666667,46.40625,-360,46.40625C-353.3333333333333,46.40625,-346.6666666666667,46.40625,-340,46.40625C-333.3333333333333,46.40625,-326.6666666666667,46.40625,-320,46.40625C-313.3333333333333,46.40625,-306.6666666666667,46.40625,-300,46.40625C-293.3333333333333,46.40625,-286.6666666666667,46.40625,-280,46.40625C-273.3333333333333,46.40625,-266.6666666666667,46.40625,-260,46.40625C-253.33333333333334,46.40625,-246.66666666666666,46.40625,-240,46.40625C-233.33333333333334,46.40625,-226.66666666666666,46.40625,-220,46.40625C-213.33333333333334,46.40625,-206.66666666666666,46.40625,-200,46.40625C-193.33333333333334,46.40625,-186.66666666666666,46.40625,-180,46.40625C-173.33333333333334,46.40625,-166.66666666666666,46.40625,-160,46.40625C-153.33333333333334,46.40625,-146.66666666666666,46.40625,-140,46.40625C-136.66666666666666,46.40625,-133.33333333333334,46.40625,-130,46.40625C-126.66666666666667,46.40625,-123.33333333333333,84.375,-120,122.34375" style="stroke: rgb(31, 119, 180); stroke-width: 2; fill: none;"/><path class="linegg timeline hgroup_2" d="M-120,122.34375C-113.33333333333333,122.34375,-106.66666666666667,122.34375,-100,122.34375C-93.33333333333333,122.34375,-86.66666666666667,122.34375,-80,122.34375C-73.33333333333333,122.34375,-66.66666666666667,122.34375,-60,122.34375C-53.333333333333336,122.34375,-46.666666666666664,122.34375,-40,122.34375C-33.333333333333336,122.34375,-26.666666666666668,122.34375,-20,122.34375C-13.333333333333332,122.34375,-6.666666666666667,122.34375,0,122.34375" style="stroke: rgb(255, 127, 14); stroke-width: 2; fill: none;"/></g><text class="computeSig_label label" text-anchor="end" dx="-5" dy="0.5rem" fill="black" width="200" transform="translate(-980,122.34375)">8</text></g><g class="node computeNode h9 statics" transform="translate(1010,0)" style="pointer-events: auto;"><g class="computeSig" stroke="black" style="stroke-width: 2;"><path class="linegg timeline hgroup_4" d="M-980,88.59375C-973.3333333333334,88.59375,-966.6666666666666,88.59375,-960,88.59375C-953.3333333333334,88.59375,-946.6666666666666,88.59375,-940,88.59375C-933.3333333333334,88.59375,-926.6666666666666,88.59375,-920,88.59375C-913.3333333333334,88.59375,-906.6666666666666,88.59375,-900,88.59375C-893.3333333333334,88.59375,-886.6666666666666,88.59375,-880,88.59375C-873.3333333333334,88.59375,-866.6666666666666,88.59375,-860,88.59375C-853.3333333333334,88.59375,-846.6666666666666,88.59375,-840,88.59375C-833.3333333333334,88.59375,-826.6666666666666,88.59375,-820,88.59375C-813.3333333333334,88.59375,-806.6666666666666,88.59375,-800,88.59375C-793.3333333333334,88.59375,-786.6666666666666,88.59375,-780,88.59375C-773.3333333333334,88.59375,-766.6666666666666,88.59375,-760,88.59375C-753.3333333333334,88.59375,-746.6666666666666,88.59375,-740,88.59375C-733.3333333333334,88.59375,-726.6666666666666,88.59375,-720,88.59375C-713.3333333333334,88.59375,-706.6666666666666,88.59375,-700,88.59375C-693.3333333333334,88.59375,-686.6666666666666,88.59375,-680,88.59375C-673.3333333333334,88.59375,-666.6666666666666,88.59375,-660,88.59375C-653.3333333333334,88.59375,-646.6666666666666,88.59375,-640,88.59375C-633.3333333333334,88.59375,-626.6666666666666,88.59375,-620,88.59375C-613.3333333333334,88.59375,-606.6666666666666,88.59375,-600,88.59375C-593.3333333333334,88.59375,-586.6666666666666,88.59375,-580,88.59375C-573.3333333333334,88.59375,-566.6666666666666,88.59375,-560,88.59375C-556.6666666666666,88.59375,-553.3333333333334,88.59375,-550,88.59375C-546.6666666666666,88.59375,-543.3333333333334,59.0625,-540,29.53125" style="stroke: rgb(214, 39, 40); stroke-width: 2; fill: none;"/><path class="linegg timeline hgroup_1" d="M-540,29.53125C-536.6666666666666,29.53125,-533.3333333333334,29.53125,-530,29.53125C-526.6666666666666,29.53125,-523.3333333333334,16.875,-520,4.21875" style="stroke: rgb(31, 119, 180); stroke-width: 2;"/><path class="linegg timeline hgroup_5" d="M-520,4.21875C-513.3333333333334,4.21875,-506.6666666666667,4.21875,-500,4.21875C-493.3333333333333,4.21875,-486.6666666666667,4.21875,-480,4.21875C-473.3333333333333,4.21875,-466.6666666666667,4.21875,-460,4.21875C-453.3333333333333,4.21875,-446.6666666666667,4.21875,-440,4.21875C-433.3333333333333,4.21875,-426.6666666666667,4.21875,-420,4.21875C-413.3333333333333,4.21875,-406.6666666666667,4.21875,-400,4.21875C-393.3333333333333,4.21875,-386.6666666666667,4.21875,-380,4.21875C-373.3333333333333,4.21875,-366.6666666666667,4.21875,-360,4.21875C-353.3333333333333,4.21875,-346.6666666666667,4.21875,-340,4.21875C-333.3333333333333,4.21875,-326.6666666666667,4.21875,-320,4.21875C-313.3333333333333,4.21875,-306.6666666666667,4.21875,-300,4.21875C-293.3333333333333,4.21875,-286.6666666666667,4.21875,-280,4.21875C-273.3333333333333,4.21875,-266.6666666666667,4.21875,-260,4.21875C-253.33333333333334,4.21875,-246.66666666666666,4.21875,-240,4.21875C-233.33333333333334,4.21875,-226.66666666666666,4.21875,-220,4.21875C-213.33333333333334,4.21875,-206.66666666666666,4.21875,-200,4.21875C-193.33333333333334,4.21875,-186.66666666666666,4.21875,-180,4.21875C-173.33333333333334,4.21875,-166.66666666666666,4.21875,-160,4.21875C-153.33333333333334,4.21875,-146.66666666666666,4.21875,-140,4.21875C-133.33333333333334,4.21875,-126.66666666666667,4.21875,-120,4.21875C-113.33333333333333,4.21875,-106.66666666666667,4.21875,-100,4.21875C-93.33333333333333,4.21875,-86.66666666666667,4.21875,-80,4.21875C-73.33333333333333,4.21875,-66.66666666666667,4.21875,-60,4.21875C-53.333333333333336,4.21875,-46.666666666666664,4.21875,-40,4.21875C-33.333333333333336,4.21875,-26.666666666666668,4.21875,-20,4.21875C-13.333333333333332,4.21875,-6.666666666666667,4.21875,0,4.21875" style="stroke: rgb(148, 103, 189); stroke-width: 2; fill: none;"/></g><text class="computeSig_label label" text-anchor="end" dx="-5" dy="0.5rem" fill="black" width="200" transform="translate(-980,88.59375)">9</text></g><g class="node computeNode h10 statics" transform="translate(1010,0)" style="pointer-events: auto;"><g class="computeSig" stroke="black" style="stroke-width: 2;"><path class="linegg timeline hgroup_3" d="M-980,67.5C-973.3333333333334,67.5,-966.6666666666666,67.5,-960,67.5C-953.3333333333334,67.5,-946.6666666666666,67.5,-940,67.5C-933.3333333333334,67.5,-926.6666666666666,67.5,-920,67.5C-913.3333333333334,67.5,-906.6666666666666,67.5,-900,67.5C-896.6666666666666,67.5,-893.3333333333334,67.5,-890,67.5C-886.6666666666666,67.5,-883.3333333333334,82.265625,-880,97.03125" style="stroke: rgb(44, 160, 44); stroke-width: 2; fill: none;"/><path class="linegg timeline hgroup_4" d="M-880,97.03125C-873.3333333333334,97.03125,-866.6666666666666,97.03125,-860,97.03125C-853.3333333333334,97.03125,-846.6666666666666,97.03125,-840,97.03125C-833.3333333333334,97.03125,-826.6666666666666,97.03125,-820,97.03125C-816.6666666666666,97.03125,-813.3333333333334,97.03125,-810,97.03125C-806.6666666666666,97.03125,-803.3333333333334,67.5,-800,37.96875" style="stroke: rgb(214, 39, 40); stroke-width: 2; fill: none;"/><path class="linegg timeline hgroup_1" d="M-800,37.96875C-793.3333333333334,37.96875,-786.6666666666666,37.96875,-780,37.96875C-773.3333333333334,37.96875,-766.6666666666666,37.96875,-760,37.96875C-753.3333333333334,37.96875,-746.6666666666666,37.96875,-740,37.96875C-733.3333333333334,37.96875,-726.6666666666666,37.96875,-720,37.96875C-713.3333333333334,37.96875,-706.6666666666666,37.96875,-700,37.96875C-693.3333333333334,37.96875,-686.6666666666666,37.96875,-680,37.96875C-673.3333333333334,37.96875,-666.6666666666666,37.96875,-660,37.96875C-653.3333333333334,37.96875,-646.6666666666666,37.96875,-640,37.96875C-633.3333333333334,37.96875,-626.6666666666666,37.96875,-620,37.96875C-613.3333333333334,37.96875,-606.6666666666666,37.96875,-600,37.96875C-593.3333333333334,37.96875,-586.6666666666666,37.96875,-580,37.96875C-573.3333333333334,37.96875,-566.6666666666666,37.96875,-560,37.96875C-553.3333333333334,37.96875,-546.6666666666666,37.96875,-540,37.96875C-533.3333333333334,37.96875,-526.6666666666666,37.96875,-520,37.96875C-513.3333333333334,37.96875,-506.6666666666667,37.96875,-500,37.96875C-493.3333333333333,37.96875,-486.6666666666667,37.96875,-480,37.96875C-473.3333333333333,37.96875,-466.6666666666667,37.96875,-460,37.96875C-453.3333333333333,37.96875,-446.6666666666667,37.96875,-440,37.96875C-433.3333333333333,37.96875,-426.6666666666667,37.96875,-420,37.96875C-413.3333333333333,37.96875,-406.6666666666667,37.96875,-400,37.96875C-393.3333333333333,37.96875,-386.6666666666667,37.96875,-380,37.96875C-373.3333333333333,37.96875,-366.6666666666667,37.96875,-360,37.96875C-353.3333333333333,37.96875,-346.6666666666667,37.96875,-340,37.96875C-333.3333333333333,37.96875,-326.6666666666667,37.96875,-320,37.96875C-313.3333333333333,37.96875,-306.6666666666667,37.96875,-300,37.96875C-293.3333333333333,37.96875,-286.6666666666667,37.96875,-280,37.96875C-273.3333333333333,37.96875,-266.6666666666667,37.96875,-260,37.96875C-256.6666666666667,37.96875,-253.33333333333334,37.96875,-250,37.96875C-246.66666666666666,37.96875,-243.33333333333334,67.5,-240,97.03125" style="stroke: rgb(31, 119, 180); stroke-width: 2; fill: none;"/><path class="linegg timeline hgroup_4" d="M-240,97.03125C-233.33333333333334,97.03125,-226.66666666666666,97.03125,-220,97.03125C-213.33333333333334,97.03125,-206.66666666666666,97.03125,-200,97.03125C-193.33333333333334,97.03125,-186.66666666666666,97.03125,-180,97.03125C-173.33333333333334,97.03125,-166.66666666666666,97.03125,-160,97.03125C-153.33333333333334,97.03125,-146.66666666666666,97.03125,-140,97.03125C-133.33333333333334,97.03125,-126.66666666666667,97.03125,-120,97.03125C-113.33333333333333,97.03125,-106.66666666666667,97.03125,-100,97.03125C-93.33333333333333,97.03125,-86.66666666666667,97.03125,-80,97.03125C-76.66666666666667,97.03125,-73.33333333333333,97.03125,-70,97.03125C-66.66666666666667,97.03125,-63.333333333333336,82.265625,-60,67.5" style="stroke: rgb(214, 39, 40); stroke-width: 2; fill: none;"/><path class="linegg timeline hgroup_3" d="M-60,67.5C-56.666666666666664,67.5,-53.333333333333336,67.5,-50,67.5C-46.666666666666664,67.5,-43.333333333333336,52.734375,-40,37.96875" style="stroke: rgb(44, 160, 44); stroke-width: 2;"/><path class="linegg timeline hgroup_1" d="M-40,37.96875C-33.333333333333336,37.96875,-26.666666666666668,37.96875,-20,37.96875C-13.333333333333332,37.96875,-6.666666666666667,37.96875,0,37.96875" style="stroke: rgb(31, 119, 180); stroke-width: 2; fill: none;"/></g><text class="computeSig_label label" text-anchor="end" dx="-5" dy="0.5rem" fill="black" width="200" transform="translate(-980,67.5)">10</text></g></g><rect class="fisheyeLayer" style="opacity: 0; pointer-events: none;" width="980" height="180" transform="translate(-680,0)"/><g class="table header" transform="translate(600,0)"><g class="back"><path style="fill: rgb(221, 221, 221);"/></g></g></g><g class="timebox hide" transform="translate(40,20)" dy="1rem" style="font-size: 16px;"/><circle id="tipfollowscursor"/></svg>