<svg id="jobmap" width="1100" height="250" style="fill: none; font-size: 10px; font-family: sans-serif;" xmlns="http://www.w3.org/2000/svg" xmlns:xlink="http://www.w3.org/1999/xlink">

                    <defs id="defsmain"><pattern id="userpic" width="100%" height="100%" patternContentUnits="objectBoundingBox"><image height="1" width="1" preserveAspectRatio="none" xmlns:xlink="http://www.w3.org/1999/xlink" xlink:href="src/images/u.png"/></pattern><marker id="arrow" markerWidth="10" markerHeight="10" refX="0" refY="3" orient="auto" markerUnits="strokeWidth"><path d="M0,0 L0,6 L9,3 z" style="fill: black;"/></marker></defs><rect class="pantarget" opacity="0" width="1146" height="762"/><g class="pannel" transform="translate(50,50)"><text class="Time" text-anchor="middle" x="40" dy="-30" style="font-weight: bold; fill: black;">Time</text><line x1="60" x2="95" y1="-33" y2="-33" marker-end="url(#arrow)" style="stroke: black;"/><text class="Time" text-anchor="middle" x="-5" dy="-1rem" style="font-weight: bold; fill: black;">Instance</text><line x1="5" x2="5" y1="-5" y2="30" marker-end="url(#arrow)" style="stroke: black;"/><g class="gNodeaxis" transform="translate(1010,-10)"><g class="gMainaxis" fill="none" font-size="10" font-family="sans-serif" text-anchor="middle"><g class="tick" opacity="1" transform="translate(-980, 0)"><line stroke="#000" y2="145" vector-effect="non-scaling-stroke" style="stroke-width: 0.1; stroke: black; stroke-dasharray: 1, 2; opacity: 0.5;"/><text fill="#000" y="-3" dy="-0.5rem">1</text></g><g class="tick" opacity="1" transform="translate(-960, 0)"><line stroke="#000" y2="145" vector-effect="non-scaling-stroke" style="stroke-width: 0.1; stroke: black; stroke-dasharray: 1, 2; opacity: 0.5;"/><text fill="#000" y="-3" dy="-0.5rem">2</text></g><g class="tick" opacity="1" transform="translate(-940, 0)"><line stroke="#000" y2="145" vector-effect="non-scaling-stroke" style="stroke-width: 0.1; stroke: black; stroke-dasharray: 1, 2; opacity: 0.5;"/><text fill="#000" y="-3" dy="-0.5rem">3</text></g><g class="tick" opacity="1" transform="translate(-920, 0)"><line stroke="#000" y2="145" vector-effect="non-scaling-stroke" style="stroke-width: 0.1; stroke: black; stroke-dasharray: 1, 2; opacity: 0.5;"/><text fill="#000" y="-3" dy="-0.5rem">4</text></g><g class="tick" opacity="1" transform="translate(-900, 0)"><line stroke="#000" y2="145" vector-effect="non-scaling-stroke" style="stroke-width: 0.1; stroke: black; stroke-dasharray: 1, 2; opacity: 0.5;"/><text fill="#000" y="-3" dy="-0.5rem">5</text></g><g class="tick" opacity="1" transform="translate(-880, 0)"><line stroke="#000" y2="145" vector-effect="non-scaling-stroke" style="stroke-width: 0.1; stroke: black; stroke-dasharray: 1, 2; opacity: 0.5;"/><text fill="#000" y="-3" dy="-0.5rem">6</text></g><g class="tick" opacity="1" transform="translate(-860, 0)"><line stroke="#000" y2="145" vector-effect="non-scaling-stroke" style="stroke-width: 0.1; stroke: black; stroke-dasharray: 1, 2; opacity: 0.5;"/><text fill="#000" y="-3" dy="-0.5rem">7</text></g><g class="tick" opacity="1" transform="translate(-840, 0)"><line stroke="#000" y2="145" vector-effect="non-scaling-stroke" style="stroke-width: 0.1; stroke: black; stroke-dasharray: 1, 2; opacity: 0.5;"/><text fill="#000" y="-3" dy="-0.5rem">8</text></g><g class="tick" opacity="1" transform="translate(-820, 0)"><line stroke="#000" y2="145" vector-effect="non-scaling-stroke" style="stroke-width: 0.1; stroke: black; stroke-dasharray: 1, 2; opacity: 0.5;"/><text fill="#000" y="-3" dy="-0.5rem">9</text></g><g class="tick" opacity="1" transform="translate(-800, 0)"><line stroke="#000" y2="145" vector-effect="non-scaling-stroke" style="stroke-width: 0.1; stroke: black; stroke-dasharray: 1, 2; opacity: 0.5;"/><text fill="#000" y="-3" dy="-0.5rem">10</text></g><g class="tick" opacity="1" transform="translate(-780, 0)"><line stroke="#000" y2="145" vector-effect="non-scaling-stroke" style="stroke-width: 0.1; stroke: black; stroke-dasharray: 1, 2; opacity: 0.5;"/><text fill="#000" y="-3" dy="-0.5rem">11</text></g><g class="tick" opacity="1" transform="translate(-760, 0)"><line stroke="#000" y2="145" vector-effect="non-scaling-stroke" style="stroke-width: 0.1; stroke: black; stroke-dasharray: 1, 2; opacity: 0.5;"/><text fill="#000" y="-3" dy="-0.5rem">12</text></g><g class="tick" opacity="1" transform="translate(-740, 0)"><line stroke="#000" y2="145" vector-effect="non-scaling-stroke" style="stroke-width: 0.1; stroke: black; stroke-dasharray: 1, 2; opacity: 0.5;"/><text fill="#000" y="-3" dy="-0.5rem">13</text></g><g class="tick" opacity="1" transform="translate(-720, 0)"><line stroke="#000" y2="145" vector-effect="non-scaling-stroke" style="stroke-width: 0.1; stroke: black; stroke-dasharray: 1, 2; opacity: 0.5;"/><text fill="#000" y="-3" dy="-0.5rem">14</text></g><g class="tick" opacity="1" transform="translate(-700, 0)"><line stroke="#000" y2="145" vector-effect="non-scaling-stroke" style="stroke-width: 0.1; stroke: black; stroke-dasharray: 1, 2; opacity: 0.5;"/><text fill="#000" y="-3" dy="-0.5rem">15</text></g><g class="tick" opacity="1" transform="translate(-680, 0)"><line stroke="#000" y2="145" vector-effect="non-scaling-stroke" style="stroke-width: 0.1; stroke: black; stroke-dasharray: 1, 2; opacity: 0.5;"/><text fill="#000" y="-3" dy="-0.5rem">16</text></g><g class="tick" opacity="1" transform="translate(-660, 0)"><line stroke="#000" y2="145" vector-effect="non-scaling-stroke" style="stroke-width: 0.1; stroke: black; stroke-dasharray: 1, 2; opacity: 0.5;"/><text fill="#000" y="-3" dy="-0.5rem">17</text></g><g class="tick" opacity="1" transform="translate(-640, 0)"><line stroke="#000" y2="145" vector-effect="non-scaling-stroke" style="stroke-width: 0.1; stroke: black; stroke-dasharray: 1, 2; opacity: 0.5;"/><text fill="#000" y="-3" dy="-0.5rem">18</text></g><g class="tick" opacity="1" transform="translate(-620, 0)"><line stroke="#000" y2="145" vector-effect="non-scaling-stroke" style="stroke-width: 0.1; stroke: black; stroke-dasharray: 1, 2; opacity: 0.5;"/><text fill="#000" y="-3" dy="-0.5rem">19</text></g><g class="tick" opacity="1" transform="translate(-600, 0)"><line stroke="#000" y2="145" vector-effect="non-scaling-stroke" style="stroke-width: 0.1; stroke: black; stroke-dasharray: 1, 2; opacity: 0.5;"/><text fill="#000" y="-3" dy="-0.5rem">20</text></g><g class="tick" opacity="1" transform="translate(-580, 0)"><line stroke="#000" y2="145" vector-effect="non-scaling-stroke" style="stroke-width: 0.1; stroke: black; stroke-dasharray: 1, 2; opacity: 0.5;"/><text fill="#000" y="-3" dy="-0.5rem">21</text></g><g class="tick" opacity="1" transform="translate(-560, 0)"><line stroke="#000" y2="145" vector-effect="non-scaling-stroke" style="stroke-width: 0.1; stroke: black; stroke-dasharray: 1, 2; opacity: 0.5;"/><text fill="#000" y="-3" dy="-0.5rem">22</text></g><g class="tick" opacity="1" transform="translate(-540, 0)"><line stroke="#000" y2="145" vector-effect="non-scaling-stroke" style="stroke-width: 0.1; stroke: black; stroke-dasharray: 1, 2; opacity: 0.5;"/><text fill="#000" y="-3" dy="-0.5rem">23</text></g><g class="tick" opacity="1" transform="translate(-520, 0)"><line stroke="#000" y2="145" vector-effect="non-scaling-stroke" style="stroke-width: 0.1; stroke: black; stroke-dasharray: 1, 2; opacity: 0.5;"/><text fill="#000" y="-3" dy="-0.5rem">24</text></g><g class="tick" opacity="1" transform="translate(-500, 0)"><line stroke="#000" y2="145" vector-effect="non-scaling-stroke" style="stroke-width: 0.1; stroke: black; stroke-dasharray: 1, 2; opacity: 0.5;"/><text fill="#000" y="-3" dy="-0.5rem">25</text></g><g class="tick" opacity="1" transform="translate(-480, 0)"><line stroke="#000" y2="145" vector-effect="non-scaling-stroke" style="stroke-width: 0.1; stroke: black; stroke-dasharray: 1, 2; opacity: 0.5;"/><text fill="#000" y="-3" dy="-0.5rem">26</text></g><g class="tick" opacity="1" transform="translate(-460, 0)"><line stroke="#000" y2="145" vector-effect="non-scaling-stroke" style="stroke-width: 0.1; stroke: black; stroke-dasharray: 1, 2; opacity: 0.5;"/><text fill="#000" y="-3" dy="-0.5rem">27</text></g><g class="tick" opacity="1" transform="translate(-440, 0)"><line stroke="#000" y2="145" vector-effect="non-scaling-stroke" style="stroke-width: 0.1; stroke: black; stroke-dasharray: 1, 2; opacity: 0.5;"/><text fill="#000" y="-3" dy="-0.5rem">28</text></g><g class="tick" opacity="1" transform="translate(-420, 0)"><line stroke="#000" y2="145" vector-effect="non-scaling-stroke" style="stroke-width: 0.1; stroke: black; stroke-dasharray: 1, 2; opacity: 0.5;"/><text fill="#000" y="-3" dy="-0.5rem">29</text></g><g class="tick" opacity="1" transform="translate(-400, 0)"><line stroke="#000" y2="145" vector-effect="non-scaling-stroke" style="stroke-width: 0.1; stroke: black; stroke-dasharray: 1, 2; opacity: 0.5;"/><text fill="#000" y="-3" dy="-0.5rem">30</text></g><g class="tick" opacity="1" transform="translate(-380, 0)"><line stroke="#000" y2="145" vector-effect="non-scaling-stroke" style="stroke-width: 0.1; stroke: black; stroke-dasharray: 1, 2; opacity: 0.5;"/><text fill="#000" y="-3" dy="-0.5rem">31</text></g><g class="tick" opacity="1" transform="translate(-360, 0)"><line stroke="#000" y2="145" vector-effect="non-scaling-stroke" style="stroke-width: 0.1; stroke: black; stroke-dasharray: 1, 2; opacity: 0.5;"/><text fill="#000" y="-3" dy="-0.5rem">32</text></g><g class="tick" opacity="1" transform="translate(-340, 0)"><line stroke="#000" y2="145" vector-effect="non-scaling-stroke" style="stroke-width: 0.1; stroke: black; stroke-dasharray: 1, 2; opacity: 0.5;"/><text fill="#000" y="-3" dy="-0.5rem">33</text></g><g class="tick" opacity="1" transform="translate(-320, 0)"><line stroke="#000" y2="145" vector-effect="non-scaling-stroke" style="stroke-width: 0.1; stroke: black; stroke-dasharray: 1, 2; opacity: 0.5;"/><text fill="#000" y="-3" dy="-0.5rem">34</text></g><g class="tick" opacity="1" transform="translate(-300, 0)"><line stroke="#000" y2="145" vector-effect="non-scaling-stroke" style="stroke-width: 0.1; stroke: black; stroke-dasharray: 1, 2; opacity: 0.5;"/><text fill="#000" y="-3" dy="-0.5rem">35</text></g><g class="tick" opacity="1" transform="translate(-280, 0)"><line stroke="#000" y2="145" vector-effect="non-scaling-stroke" style="stroke-width: 0.1; stroke: black; stroke-dasharray: 1, 2; opacity: 0.5;"/><text fill="#000" y="-3" dy="-0.5rem">36</text></g><g class="tick" opacity="1" transform="translate(-260, 0)"><line stroke="#000" y2="145" vector-effect="non-scaling-stroke" style="stroke-width: 0.1; stroke: black; stroke-dasharray: 1, 2; opacity: 0.5;"/><text fill="#000" y="-3" dy="-0.5rem">37</text></g><g class="tick" opacity="1" transform="translate(-240, 0)"><line stroke="#000" y2="145" vector-effect="non-scaling-stroke" style="stroke-width: 0.1; stroke: black; stroke-dasharray: 1, 2; opacity: 0.5;"/><text fill="#000" y="-3" dy="-0.5rem">38</text></g><g class="tick" opacity="1" transform="translate(-220, 0)"><line stroke="#000" y2="145" vector-effect="non-scaling-stroke" style="stroke-width: 0.1; stroke: black; stroke-dasharray: 1, 2; opacity: 0.5;"/><text fill="#000" y="-3" dy="-0.5rem">39</text></g><g class="tick" opacity="1" transform="translate(-200, 0)"><line stroke="#000" y2="145" vector-effect="non-scaling-stroke" style="stroke-width: 0.1; stroke: black; stroke-dasharray: 1, 2; opacity: 0.5;"/><text fill="#000" y="-3" dy="-0.5rem">40</text></g><g class="tick" opacity="1" transform="translate(-180, 0)"><line stroke="#000" y2="145" vector-effect="non-scaling-stroke" style="stroke-width: 0.1; stroke: black; stroke-dasharray: 1, 2; opacity: 0.5;"/><text fill="#000" y="-3" dy="-0.5rem">41</text></g><g class="tick" opacity="1" transform="translate(-160, 0)"><line stroke="#000" y2="145" vector-effect="non-scaling-stroke" style="stroke-width: 0.1; stroke: black; stroke-dasharray: 1, 2; opacity: 0.5;"/><text fill="#000" y="-3" dy="-0.5rem">42</text></g><g class="tick" opacity="1" transform="translate(-140, 0)"><line stroke="#000" y2="145" vector-effect="non-scaling-stroke" style="stroke-width: 0.1; stroke: black; stroke-dasharray: 1, 2; opacity: 0.5;"/><text fill="#000" y="-3" dy="-0.5rem">43</text></g><g class="tick" opacity="1" transform="translate(-120, 0)"><line stroke="#000" y2="145" vector-effect="non-scaling-stroke" style="stroke-width: 0.1; stroke: black; stroke-dasharray: 1, 2; opacity: 0.5;"/><text fill="#000" y="-3" dy="-0.5rem">44</text></g><g class="tick" opacity="1" transform="translate(-100, 0)"><line stroke="#000" y2="145" vector-effect="non-scaling-stroke" style="stroke-width: 0.1; stroke: black; stroke-dasharray: 1, 2; opacity: 0.5;"/><text fill="#000" y="-3" dy="-0.5rem">45</text></g><g class="tick" opacity="1" transform="translate(-80, 0)"><line stroke="#000" y2="145" vector-effect="non-scaling-stroke" style="stroke-width: 0.1; stroke: black; stroke-dasharray: 1, 2; opacity: 0.5;"/><text fill="#000" y="-3" dy="-0.5rem">46</text></g><g class="tick" opacity="1" transform="translate(-60, 0)"><line stroke="#000" y2="145" vector-effect="non-scaling-stroke" style="stroke-width: 0.1; stroke: black; stroke-dasharray: 1, 2; opacity: 0.5;"/><text fill="#000" y="-3" dy="-0.5rem">47</text></g><g class="tick" opacity="1" transform="translate(-40, 0)"><line stroke="#000" y2="145" vector-effect="non-scaling-stroke" style="stroke-width: 0.1; stroke: black; stroke-dasharray: 1, 2; opacity: 0.5;"/><text fill="#000" y="-3" dy="-0.5rem">48</text></g><g class="tick" opacity="1" transform="translate(-20, 0)"><line stroke="#000" y2="145" vector-effect="non-scaling-stroke" style="stroke-width: 0.1; stroke: black; stroke-dasharray: 1, 2; opacity: 0.5;"/><text fill="#000" y="-3" dy="-0.5rem">49</text></g><g class="tick" opacity="1" transform=""><line stroke="#000" y2="145" vector-effect="non-scaling-stroke" style="stroke-width: 0.1; stroke: black; stroke-dasharray: 1, 2; opacity: 0.5;"/><text fill="#000" y="-3" dy="-0.5rem">50</text></g></g><g class="gSubaxis hide"/></g><g class="annotation"/><g class="linkg"><g class="links" style="display: none;"><path stroke="black" style="stroke-width: 2;"/><text text-anchor="middle">1</text></g><g class="links" style="display: none;"><path stroke="black" style="stroke-width: 2;"/><text text-anchor="middle">1</text></g><g class="links" style="display: none;"><path stroke="black" style="stroke-width: 2;"/><text text-anchor="middle">1</text></g><g class="links" style="display: none;"><path stroke="black" style="stroke-width: 2;"/><text text-anchor="middle">1</text></g><g class="links" style="display: none;"><path stroke="black" style="stroke-width: 2;"/><text text-anchor="middle">1</text></g><g class="links" style="display: none;"><path stroke="black" style="stroke-width: 2;"/><text text-anchor="middle">1</text></g><g class="links" style="display: none;"><path stroke="black" style="stroke-width: 2;"/><text text-anchor="middle">1</text></g><g class="links" style="display: none;"><path stroke="black" style="stroke-width: 2;"/><text text-anchor="middle">1</text></g><g class="links" style="display: none;"><path stroke="black" style="stroke-width: 2;"/><text text-anchor="middle">1</text></g><g class="links" style="display: none;"><path stroke="black" style="stroke-width: 2;"/><text text-anchor="middle">1</text></g><g class="links" style="display: none;"><path stroke="black" style="stroke-width: 2;"/><text text-anchor="middle">1</text></g></g><g class="nodeg"><g class="node computeNode h1 statics" transform="translate(1010,0)" style="pointer-events: auto;"><g class="computeSig" stroke="black" style="stroke-width: 2;"><path class="linegg timeline hgroup_1" d="M-980,93.21428571428571C-973.3333333333334,93.21428571428571,-966.6666666666666,93.21428571428571,-960,93.21428571428571C-953.3333333333334,93.21428571428571,-946.6666666666666,93.21428571428571,-940,93.21428571428571C-933.3333333333334,93.21428571428571,-926.6666666666666,93.21428571428571,-920,93.21428571428571C-913.3333333333334,93.21428571428571,-906.6666666666666,93.21428571428571,-900,93.21428571428571C-893.3333333333334,93.21428571428571,-886.6666666666666,93.21428571428571,-880,93.21428571428571C-873.3333333333334,93.21428571428571,-866.6666666666666,93.21428571428571,-860,93.21428571428571C-853.3333333333334,93.21428571428571,-846.6666666666666,93.21428571428571,-840,93.21428571428571C-836.6666666666666,93.21428571428571,-833.3333333333334,93.21428571428571,-830,93.21428571428571C-826.6666666666666,93.21428571428571,-823.3333333333334,106.07142857142857,-820,118.92857142857143" style="stroke: rgb(31, 119, 180); stroke-width: 2; fill: none;"/><path class="linegg timeline hgroup_4" d="M-820,118.92857142857143C-813.3333333333334,118.92857142857143,-806.6666666666666,118.92857142857143,-800,118.92857142857143C-793.3333333333334,118.92857142857143,-786.6666666666666,118.92857142857143,-780,118.92857142857143C-773.3333333333334,118.92857142857143,-766.6666666666666,118.92857142857143,-760,118.92857142857143C-756.6666666666666,118.92857142857143,-753.3333333333334,118.92857142857143,-750,118.92857142857143C-746.6666666666666,118.92857142857143,-743.3333333333334,88.39285714285714,-740,57.857142857142854" style="stroke: rgb(214, 39, 40); stroke-width: 2; fill: none;"/><path class="linegg timeline hgroup_2" d="M-740,57.857142857142854C-736.6666666666666,57.857142857142854,-733.3333333333334,57.857142857142854,-730,57.857142857142854C-726.6666666666666,57.857142857142854,-723.3333333333334,75.53571428571428,-720,93.21428571428571" style="stroke: rgb(255, 127, 14); stroke-width: 2;"/><path class="linegg timeline hgroup_1" d="M-720,93.21428571428571C-713.3333333333334,93.21428571428571,-706.6666666666666,93.21428571428571,-700,93.21428571428571C-693.3333333333334,93.21428571428571,-686.6666666666666,93.21428571428571,-680,93.21428571428571C-673.3333333333334,93.21428571428571,-666.6666666666666,93.21428571428571,-660,93.21428571428571C-653.3333333333334,93.21428571428571,-646.6666666666666,93.21428571428571,-640,93.21428571428571C-633.3333333333334,93.21428571428571,-626.6666666666666,93.21428571428571,-620,93.21428571428571C-613.3333333333334,93.21428571428571,-606.6666666666666,93.21428571428571,-600,93.21428571428571C-593.3333333333334,93.21428571428571,-586.6666666666666,93.21428571428571,-580,93.21428571428571C-573.3333333333334,93.21428571428571,-566.6666666666666,93.21428571428571,-560,93.21428571428571C-553.3333333333334,93.21428571428571,-546.6666666666666,93.21428571428571,-540,93.21428571428571C-533.3333333333334,93.21428571428571,-526.6666666666666,93.21428571428571,-520,93.21428571428571C-516.6666666666666,93.21428571428571,-513.3333333333334,93.21428571428571,-510,93.21428571428571C-506.6666666666667,93.21428571428571,-503.3333333333333,75.53571428571428,-500,57.857142857142854" style="stroke: rgb(31, 119, 180); stroke-width: 2; fill: none;"/><path class="linegg timeline hgroup_2" d="M-500,57.857142857142854C-493.3333333333333,57.857142857142854,-486.6666666666667,57.857142857142854,-480,57.857142857142854C-473.3333333333333,57.857142857142854,-466.6666666666667,57.857142857142854,-460,57.857142857142854C-456.6666666666667,57.857142857142854,-453.3333333333333,57.857142857142854,-450,57.857142857142854C-446.6666666666667,57.857142857142854,-443.3333333333333,33.75,-440,9.642857142857142" style="stroke: rgb(255, 127, 14); stroke-width: 2; fill: none;"/><path class="linegg timeline hgroup_5" d="M-440,9.642857142857142C-433.3333333333333,9.642857142857142,-426.6666666666667,9.642857142857142,-420,9.642857142857142C-413.3333333333333,9.642857142857142,-406.6666666666667,9.642857142857142,-400,9.642857142857142C-393.3333333333333,9.642857142857142,-386.6666666666667,9.642857142857142,-380,9.642857142857142C-373.3333333333333,9.642857142857142,-366.6666666666667,9.642857142857142,-360,9.642857142857142C-353.3333333333333,9.642857142857142,-346.6666666666667,9.642857142857142,-340,9.642857142857142C-333.3333333333333,9.642857142857142,-326.6666666666667,9.642857142857142,-320,9.642857142857142C-313.3333333333333,9.642857142857142,-306.6666666666667,9.642857142857142,-300,9.642857142857142C-293.3333333333333,9.642857142857142,-286.6666666666667,9.642857142857142,-280,9.642857142857142C-273.3333333333333,9.642857142857142,-266.6666666666667,9.642857142857142,-260,9.642857142857142C-253.33333333333334,9.642857142857142,-246.66666666666666,9.642857142857142,-240,9.642857142857142C-233.33333333333334,9.642857142857142,-226.66666666666666,9.642857142857142,-220,9.642857142857142C-213.33333333333334,9.642857142857142,-206.66666666666666,9.642857142857142,-200,9.642857142857142C-193.33333333333334,9.642857142857142,-186.66666666666666,9.642857142857142,-180,9.642857142857142C-173.33333333333334,9.642857142857142,-166.66666666666666,9.642857142857142,-160,9.642857142857142C-153.33333333333334,9.642857142857142,-146.66666666666666,9.642857142857142,-140,9.642857142857142C-133.33333333333334,9.642857142857142,-126.66666666666667,9.642857142857142,-120,9.642857142857142C-113.33333333333333,9.642857142857142,-106.66666666666667,9.642857142857142,-100,9.642857142857142C-96.66666666666667,9.642857142857142,-93.33333333333333,9.642857142857142,-90,9.642857142857142C-86.66666666666667,9.642857142857142,-83.33333333333333,33.75,-80,57.857142857142854" style="stroke: rgb(148, 103, 189); stroke-width: 2; fill: none;"/><path class="linegg timeline hgroup_2" d="M-80,57.857142857142854C-76.66666666666667,57.857142857142854,-73.33333333333333,57.857142857142854,-70,57.857142857142854C-66.66666666666667,57.857142857142854,-63.333333333333336,46.60714285714286,-60,35.35714285714286" style="stroke: rgb(255, 127, 14); stroke-width: 2;"/><path class="linegg timeline hgroup_3" d="M-60,35.35714285714286C-53.333333333333336,35.35714285714286,-46.666666666666664,35.35714285714286,-40,35.35714285714286C-36.666666666666664,35.35714285714286,-33.333333333333336,35.35714285714286,-30,35.35714285714286C-26.666666666666668,35.35714285714286,-23.333333333333332,22.5,-20,9.642857142857142" style="stroke: rgb(44, 160, 44); stroke-width: 2; fill: none;"/><path class="linegg timeline hgroup_5" d="M-20,9.642857142857142L0,9.642857142857142" style="stroke: rgb(148, 103, 189); stroke-width: 2; fill: none;"/></g><text class="computeSig_label label" text-anchor="end" dx="-5" dy="0.5rem" fill="black" width="200" transform="translate(-980,93.21428571428571)">1</text></g><g class="node computeNode h2 statics" transform="translate(1010,0)" style="pointer-events: auto;"><g class="computeSig" stroke="black" style="stroke-width: 2;"><path class="linegg timeline hgroup_2" d="M-980,77.14285714285714C-973.3333333333334,77.14285714285714,-966.6666666666666,77.14285714285714,-960,77.14285714285714C-953.3333333333334,77.14285714285714,-946.6666666666666,77.14285714285714,-940,77.14285714285714C-933.3333333333334,77.14285714285714,-926.6666666666666,77.14285714285714,-920,77.14285714285714C-913.3333333333334,77.14285714285714,-906.6666666666666,77.14285714285714,-900,77.14285714285714C-893.3333333333334,77.14285714285714,-886.6666666666666,77.14285714285714,-880,77.14285714285714C-873.3333333333334,77.14285714285714,-866.6666666666666,77.14285714285714,-860,77.14285714285714C-856.6666666666666,77.14285714285714,-853.3333333333334,77.14285714285714,-850,77.14285714285714C-846.6666666666666,77.14285714285714,-843.3333333333334,91.60714285714286,-840,106.07142857142857" style="stroke: rgb(255, 127, 14); stroke-width: 2; fill: none;"/><path class="linegg timeline hgroup_1" d="M-840,106.07142857142857C-833.3333333333334,106.07142857142857,-826.6666666666666,106.07142857142857,-820,106.07142857142857C-813.3333333333334,106.07142857142857,-806.6666666666666,106.07142857142857,-800,106.07142857142857C-793.3333333333334,106.07142857142857,-786.6666666666666,106.07142857142857,-780,106.07142857142857C-773.3333333333334,106.07142857142857,-766.6666666666666,106.07142857142857,-760,106.07142857142857C-753.3333333333334,106.07142857142857,-746.6666666666666,106.07142857142857,-740,106.07142857142857C-733.3333333333334,106.07142857142857,-726.6666666666666,106.07142857142857,-720,106.07142857142857C-713.3333333333334,106.07142857142857,-706.6666666666666,106.07142857142857,-700,106.07142857142857C-693.3333333333334,106.07142857142857,-686.6666666666666,106.07142857142857,-680,106.07142857142857C-673.3333333333334,106.07142857142857,-666.6666666666666,106.07142857142857,-660,106.07142857142857C-653.3333333333334,106.07142857142857,-646.6666666666666,106.07142857142857,-640,106.07142857142857C-633.3333333333334,106.07142857142857,-626.6666666666666,106.07142857142857,-620,106.07142857142857C-613.3333333333334,106.07142857142857,-606.6666666666666,106.07142857142857,-600,106.07142857142857C-593.3333333333334,106.07142857142857,-586.6666666666666,106.07142857142857,-580,106.07142857142857C-573.3333333333334,106.07142857142857,-566.6666666666666,106.07142857142857,-560,106.07142857142857C-553.3333333333334,106.07142857142857,-546.6666666666666,106.07142857142857,-540,106.07142857142857C-533.3333333333334,106.07142857142857,-526.6666666666666,106.07142857142857,-520,106.07142857142857C-513.3333333333334,106.07142857142857,-506.6666666666667,106.07142857142857,-500,106.07142857142857C-493.3333333333333,106.07142857142857,-486.6666666666667,106.07142857142857,-480,106.07142857142857C-473.3333333333333,106.07142857142857,-466.6666666666667,106.07142857142857,-460,106.07142857142857C-453.3333333333333,106.07142857142857,-446.6666666666667,106.07142857142857,-440,106.07142857142857C-433.3333333333333,106.07142857142857,-426.6666666666667,106.07142857142857,-420,106.07142857142857C-413.3333333333333,106.07142857142857,-406.6666666666667,106.07142857142857,-400,106.07142857142857C-393.3333333333333,106.07142857142857,-386.6666666666667,106.07142857142857,-380,106.07142857142857C-373.3333333333333,106.07142857142857,-366.6666666666667,106.07142857142857,-360,106.07142857142857C-353.3333333333333,106.07142857142857,-346.6666666666667,106.07142857142857,-340,106.07142857142857C-333.3333333333333,106.07142857142857,-326.6666666666667,106.07142857142857,-320,106.07142857142857C-313.3333333333333,106.07142857142857,-306.6666666666667,106.07142857142857,-300,106.07142857142857C-293.3333333333333,106.07142857142857,-286.6666666666667,106.07142857142857,-280,106.07142857142857C-273.3333333333333,106.07142857142857,-266.6666666666667,106.07142857142857,-260,106.07142857142857C-253.33333333333334,106.07142857142857,-246.66666666666666,106.07142857142857,-240,106.07142857142857C-233.33333333333334,106.07142857142857,-226.66666666666666,106.07142857142857,-220,106.07142857142857C-213.33333333333334,106.07142857142857,-206.66666666666666,106.07142857142857,-200,106.07142857142857C-193.33333333333334,106.07142857142857,-186.66666666666666,106.07142857142857,-180,106.07142857142857C-173.33333333333334,106.07142857142857,-166.66666666666666,106.07142857142857,-160,106.07142857142857C-153.33333333333334,106.07142857142857,-146.66666666666666,106.07142857142857,-140,106.07142857142857C-133.33333333333334,106.07142857142857,-126.66666666666667,106.07142857142857,-120,106.07142857142857C-113.33333333333333,106.07142857142857,-106.66666666666667,106.07142857142857,-100,106.07142857142857C-93.33333333333333,106.07142857142857,-86.66666666666667,106.07142857142857,-80,106.07142857142857C-73.33333333333333,106.07142857142857,-66.66666666666667,106.07142857142857,-60,106.07142857142857C-56.666666666666664,106.07142857142857,-53.333333333333336,106.07142857142857,-50,106.07142857142857C-46.666666666666664,106.07142857142857,-43.333333333333336,91.60714285714286,-40,77.14285714285714" style="stroke: rgb(31, 119, 180); stroke-width: 2; fill: none;"/><path class="linegg timeline hgroup_2" d="M-40,77.14285714285714C-33.333333333333336,77.14285714285714,-26.666666666666668,77.14285714285714,-20,77.14285714285714C-13.333333333333332,77.14285714285714,-6.666666666666667,77.14285714285714,0,77.14285714285714" style="stroke: rgb(255, 127, 14); stroke-width: 2; fill: none;"/></g><text class="computeSig_label label" text-anchor="end" dx="-5" dy="0.5rem" fill="black" width="200" transform="translate(-980,77.14285714285714)">2</text></g><g class="node computeNode h3 statics" transform="translate(1010,0)" style="pointer-events: auto;"><g class="computeSig" stroke="black" style="stroke-width: 2;"><path class="linegg timeline hgroup_3" d="M-980,41.785714285714285C-973.3333333333334,41.785714285714285,-966.6666666666666,41.785714285714285,-960,41.785714285714285C-953.3333333333334,41.785714285714285,-946.6666666666666,41.785714285714285,-940,41.785714285714285C-933.3333333333334,41.785714285714285,-926.6666666666666,41.785714285714285,-920,41.785714285714285C-916.6666666666666,41.785714285714285,-913.3333333333334,41.785714285714285,-910,41.785714285714285C-906.6666666666666,41.785714285714285,-903.3333333333334,28.928571428571423,-900,16.07142857142857" style="stroke: rgb(44, 160, 44); stroke-width: 2; fill: none;"/><path class="linegg timeline hgroup_5" d="M-900,16.07142857142857C-893.3333333333334,16.07142857142857,-886.6666666666666,16.07142857142857,-880,16.07142857142857C-873.3333333333334,16.07142857142857,-866.6666666666666,16.07142857142857,-860,16.07142857142857C-853.3333333333334,16.07142857142857,-846.6666666666666,16.07142857142857,-840,16.07142857142857C-833.3333333333334,16.07142857142857,-826.6666666666666,16.07142857142857,-820,16.07142857142857C-813.3333333333334,16.07142857142857,-806.6666666666666,16.07142857142857,-800,16.07142857142857C-796.6666666666666,16.07142857142857,-793.3333333333334,16.07142857142857,-790,16.07142857142857C-786.6666666666666,16.07142857142857,-783.3333333333334,28.92857142857143,-780,41.785714285714285" style="stroke: rgb(148, 103, 189); stroke-width: 2; fill: none;"/><path class="linegg timeline hgroup_3" d="M-780,41.785714285714285C-773.3333333333334,41.785714285714285,-766.6666666666666,41.785714285714285,-760,41.785714285714285C-753.3333333333334,41.785714285714285,-746.6666666666666,41.785714285714285,-740,41.785714285714285C-733.3333333333334,41.785714285714285,-726.6666666666666,41.785714285714285,-720,41.785714285714285C-713.3333333333334,41.785714285714285,-706.6666666666666,41.785714285714285,-700,41.785714285714285C-693.3333333333334,41.785714285714285,-686.6666666666666,41.785714285714285,-680,41.785714285714285C-673.3333333333334,41.785714285714285,-666.6666666666666,41.785714285714285,-660,41.785714285714285C-653.3333333333334,41.785714285714285,-646.6666666666666,41.785714285714285,-640,41.785714285714285C-633.3333333333334,41.785714285714285,-626.6666666666666,41.785714285714285,-620,41.785714285714285C-613.3333333333334,41.785714285714285,-606.6666666666666,41.785714285714285,-600,41.785714285714285C-593.3333333333334,41.785714285714285,-586.6666666666666,41.785714285714285,-580,41.785714285714285C-573.3333333333334,41.785714285714285,-566.6666666666666,41.785714285714285,-560,41.785714285714285C-553.3333333333334,41.785714285714285,-546.6666666666666,41.785714285714285,-540,41.785714285714285C-536.6666666666666,41.785714285714285,-533.3333333333334,41.785714285714285,-530,41.785714285714285C-526.6666666666666,41.785714285714285,-523.3333333333334,81.96428571428571,-520,122.14285714285714" style="stroke: rgb(44, 160, 44); stroke-width: 2; fill: none;"/><path class="linegg timeline hgroup_4" d="M-520,122.14285714285714C-513.3333333333334,122.14285714285714,-506.6666666666667,122.14285714285714,-500,122.14285714285714C-493.3333333333333,122.14285714285714,-486.6666666666667,122.14285714285714,-480,122.14285714285714C-476.6666666666667,122.14285714285714,-473.3333333333333,122.14285714285714,-470,122.14285714285714C-466.6666666666667,122.14285714285714,-463.3333333333333,110.89285714285714,-460,99.64285714285715" style="stroke: rgb(214, 39, 40); stroke-width: 2; fill: none;"/><path class="linegg timeline hgroup_1" d="M-460,99.64285714285715C-453.3333333333333,99.64285714285715,-446.6666666666667,99.64285714285715,-440,99.64285714285715C-433.3333333333333,99.64285714285715,-426.6666666666667,99.64285714285715,-420,99.64285714285715C-413.3333333333333,99.64285714285715,-406.6666666666667,99.64285714285715,-400,99.64285714285715C-393.3333333333333,99.64285714285715,-386.6666666666667,99.64285714285715,-380,99.64285714285715C-373.3333333333333,99.64285714285715,-366.6666666666667,99.64285714285715,-360,99.64285714285715C-353.3333333333333,99.64285714285715,-346.6666666666667,99.64285714285715,-340,99.64285714285715C-333.3333333333333,99.64285714285715,-326.6666666666667,99.64285714285715,-320,99.64285714285715C-313.3333333333333,99.64285714285715,-306.6666666666667,99.64285714285715,-300,99.64285714285715C-293.3333333333333,99.64285714285715,-286.6666666666667,99.64285714285715,-280,99.64285714285715C-273.3333333333333,99.64285714285715,-266.6666666666667,99.64285714285715,-260,99.64285714285715C-253.33333333333334,99.64285714285715,-246.66666666666666,99.64285714285715,-240,99.64285714285715C-233.33333333333334,99.64285714285715,-226.66666666666666,99.64285714285715,-220,99.64285714285715C-213.33333333333334,99.64285714285715,-206.66666666666666,99.64285714285715,-200,99.64285714285715C-193.33333333333334,99.64285714285715,-186.66666666666666,99.64285714285715,-180,99.64285714285715C-173.33333333333334,99.64285714285715,-166.66666666666666,99.64285714285715,-160,99.64285714285715C-153.33333333333334,99.64285714285715,-146.66666666666666,99.64285714285715,-140,99.64285714285715C-133.33333333333334,99.64285714285715,-126.66666666666667,99.64285714285715,-120,99.64285714285715C-113.33333333333333,99.64285714285715,-106.66666666666667,99.64285714285715,-100,99.64285714285715C-93.33333333333333,99.64285714285715,-86.66666666666667,99.64285714285715,-80,99.64285714285715C-73.33333333333333,99.64285714285715,-66.66666666666667,99.64285714285715,-60,99.64285714285715C-53.333333333333336,99.64285714285715,-46.666666666666664,99.64285714285715,-40,99.64285714285715C-36.666666666666664,99.64285714285715,-33.333333333333336,99.64285714285715,-30,99.64285714285715C-26.666666666666668,99.64285714285715,-23.333333333333332,81.96428571428572,-20,64.28571428571428" style="stroke: rgb(31, 119, 180); stroke-width: 2; fill: none;"/><path class="linegg timeline hgroup_2" d="M-20,64.28571428571428L0,64.28571428571428" style="stroke: rgb(255, 127, 14); stroke-width: 2; fill: none;"/></g><text class="computeSig_label label" text-anchor="end" dx="-5" dy="0.5rem" fill="black" width="200" transform="translate(-980,41.785714285714285)">3</text></g><g class="node computeNode h4 statics" transform="translate(1010,0)" style="pointer-events: auto;"><g class="computeSig" stroke="black" style="stroke-width: 2;"><path class="linegg timeline hgroup_4" d="M-980,115.71428571428571C-976.6666666666666,115.71428571428571,-973.3333333333334,115.71428571428571,-970,115.71428571428571C-966.6666666666666,115.71428571428571,-963.3333333333334,102.85714285714286,-960,90" style="stroke: rgb(214, 39, 40); stroke-width: 2;"/><path class="linegg timeline hgroup_1" d="M-960,90C-953.3333333333334,90,-946.6666666666666,90,-940,90C-933.3333333333334,90,-926.6666666666666,90,-920,90C-913.3333333333334,90,-906.6666666666666,90,-900,90C-893.3333333333334,90,-886.6666666666666,90,-880,90C-873.3333333333334,90,-866.6666666666666,90,-860,90C-856.6666666666666,90,-853.3333333333334,90,-850,90C-846.6666666666666,90,-843.3333333333334,72.32142857142857,-840,54.642857142857146" style="stroke: rgb(31, 119, 180); stroke-width: 2; fill: none;"/><path class="linegg timeline hgroup_2" d="M-840,54.642857142857146C-833.3333333333334,54.642857142857146,-826.6666666666666,54.642857142857146,-820,54.642857142857146C-813.3333333333334,54.642857142857146,-806.6666666666666,54.642857142857146,-800,54.642857142857146C-793.3333333333334,54.642857142857146,-786.6666666666666,54.642857142857146,-780,54.642857142857146C-773.3333333333334,54.642857142857146,-766.6666666666666,54.642857142857146,-760,54.642857142857146C-753.3333333333334,54.642857142857146,-746.6666666666666,54.642857142857146,-740,54.642857142857146C-733.3333333333334,54.642857142857146,-726.6666666666666,54.642857142857146,-720,54.642857142857146C-713.3333333333334,54.642857142857146,-706.6666666666666,54.642857142857146,-700,54.642857142857146C-696.6666666666666,54.642857142857146,-693.3333333333334,54.642857142857146,-690,54.642857142857146C-686.6666666666666,54.642857142857146,-683.3333333333334,72.32142857142857,-680,90" style="stroke: rgb(255, 127, 14); stroke-width: 2; fill: none;"/><path class="linegg timeline hgroup_1" d="M-680,90C-673.3333333333334,90,-666.6666666666666,90,-660,90C-653.3333333333334,90,-646.6666666666666,90,-640,90C-633.3333333333334,90,-626.6666666666666,90,-620,90C-613.3333333333334,90,-606.6666666666666,90,-600,90C-593.3333333333334,90,-586.6666666666666,90,-580,90C-576.6666666666666,90,-573.3333333333334,90,-570,90C-566.6666666666666,90,-563.3333333333334,61.07142857142857,-560,32.14285714285714" style="stroke: rgb(31, 119, 180); stroke-width: 2; fill: none;"/><path class="linegg timeline hgroup_3" d="M-560,32.14285714285714C-553.3333333333334,32.14285714285714,-546.6666666666666,32.14285714285714,-540,32.14285714285714C-533.3333333333334,32.14285714285714,-526.6666666666666,32.14285714285714,-520,32.14285714285714C-513.3333333333334,32.14285714285714,-506.6666666666667,32.14285714285714,-500,32.14285714285714C-493.3333333333333,32.14285714285714,-486.6666666666667,32.14285714285714,-480,32.14285714285714C-473.3333333333333,32.14285714285714,-466.6666666666667,32.14285714285714,-460,32.14285714285714C-453.3333333333333,32.14285714285714,-446.6666666666667,32.14285714285714,-440,32.14285714285714C-433.3333333333333,32.14285714285714,-426.6666666666667,32.14285714285714,-420,32.14285714285714C-413.3333333333333,32.14285714285714,-406.6666666666667,32.14285714285714,-400,32.14285714285714C-393.3333333333333,32.14285714285714,-386.6666666666667,32.14285714285714,-380,32.14285714285714C-373.3333333333333,32.14285714285714,-366.6666666666667,32.14285714285714,-360,32.14285714285714C-353.3333333333333,32.14285714285714,-346.6666666666667,32.14285714285714,-340,32.14285714285714C-333.3333333333333,32.14285714285714,-326.6666666666667,32.14285714285714,-320,32.14285714285714C-313.3333333333333,32.14285714285714,-306.6666666666667,32.14285714285714,-300,32.14285714285714C-293.3333333333333,32.14285714285714,-286.6666666666667,32.14285714285714,-280,32.14285714285714C-273.3333333333333,32.14285714285714,-266.6666666666667,32.14285714285714,-260,32.14285714285714C-253.33333333333334,32.14285714285714,-246.66666666666666,32.14285714285714,-240,32.14285714285714C-236.66666666666666,32.14285714285714,-233.33333333333334,32.14285714285714,-230,32.14285714285714C-226.66666666666666,32.14285714285714,-223.33333333333334,19.285714285714285,-220,6.428571428571428" style="stroke: rgb(44, 160, 44); stroke-width: 2; fill: none;"/><path class="linegg timeline hgroup_5" d="M-220,6.428571428571431C-213.33333333333334,6.428571428571431,-206.66666666666666,6.428571428571431,-200,6.428571428571431C-193.33333333333334,6.428571428571431,-186.66666666666666,6.428571428571431,-180,6.428571428571431C-173.33333333333334,6.428571428571431,-166.66666666666666,6.428571428571431,-160,6.428571428571431C-153.33333333333334,6.428571428571431,-146.66666666666666,6.428571428571431,-140,6.428571428571431C-133.33333333333334,6.428571428571431,-126.66666666666667,6.428571428571431,-120,6.428571428571431C-113.33333333333333,6.428571428571431,-106.66666666666667,6.428571428571431,-100,6.428571428571431C-93.33333333333333,6.428571428571431,-86.66666666666667,6.428571428571431,-80,6.428571428571431C-73.33333333333333,6.428571428571431,-66.66666666666667,6.428571428571431,-60,6.428571428571431C-53.333333333333336,6.428571428571431,-46.666666666666664,6.428571428571431,-40,6.428571428571431C-33.333333333333336,6.428571428571431,-26.666666666666668,6.428571428571431,-20,6.428571428571431C-13.333333333333332,6.428571428571431,-6.666666666666667,6.428571428571431,0,6.428571428571431" style="stroke: rgb(148, 103, 189); stroke-width: 2; fill: none;"/></g><text class="computeSig_label label" text-anchor="end" dx="-5" dy="0.5rem" fill="black" width="200" transform="translate(-980,115.71428571428571)">4</text></g><g class="node computeNode h5 statics" transform="translate(1010,0)" style="pointer-events: auto;"><g class="computeSig" stroke="black" style="stroke-width: 2;"><path class="linegg timeline hgroup_2" d="M-980,70.71428571428572C-973.3333333333334,70.71428571428572,-966.6666666666666,70.71428571428572,-960,70.71428571428572C-953.3333333333334,70.71428571428572,-946.6666666666666,70.71428571428572,-940,70.71428571428572C-936.6666666666666,70.71428571428572,-933.3333333333334,70.71428571428572,-930,70.71428571428572C-926.6666666666666,70.71428571428572,-923.3333333333334,99.64285714285714,-920,128.57142857142856" style="stroke: rgb(255, 127, 14); stroke-width: 2; fill: none;"/><path class="linegg timeline hgroup_4" d="M-920,128.57142857142856C-913.3333333333334,128.57142857142856,-906.6666666666666,128.57142857142856,-900,128.57142857142856C-893.3333333333334,128.57142857142856,-886.6666666666666,128.57142857142856,-880,128.57142857142856C-873.3333333333334,128.57142857142856,-866.6666666666666,128.57142857142856,-860,128.57142857142856C-853.3333333333334,128.57142857142856,-846.6666666666666,128.57142857142856,-840,128.57142857142856C-833.3333333333334,128.57142857142856,-826.6666666666666,128.57142857142856,-820,128.57142857142856C-813.3333333333334,128.57142857142856,-806.6666666666666,128.57142857142856,-800,128.57142857142856C-793.3333333333334,128.57142857142856,-786.6666666666666,128.57142857142856,-780,128.57142857142856C-773.3333333333334,128.57142857142856,-766.6666666666666,128.57142857142856,-760,128.57142857142856C-753.3333333333334,128.57142857142856,-746.6666666666666,128.57142857142856,-740,128.57142857142856C-736.6666666666666,128.57142857142856,-733.3333333333334,128.57142857142856,-730,128.57142857142856C-726.6666666666666,128.57142857142856,-723.3333333333334,99.64285714285714,-720,70.71428571428572" style="stroke: rgb(214, 39, 40); stroke-width: 2; fill: none;"/><path class="linegg timeline hgroup_2" d="M-720,70.71428571428572C-713.3333333333334,70.71428571428572,-706.6666666666666,70.71428571428572,-700,70.71428571428572C-693.3333333333334,70.71428571428572,-686.6666666666666,70.71428571428572,-680,70.71428571428572C-673.3333333333334,70.71428571428572,-666.6666666666666,70.71428571428572,-660,70.71428571428572C-653.3333333333334,70.71428571428572,-646.6666666666666,70.71428571428572,-640,70.71428571428572C-633.3333333333334,70.71428571428572,-626.6666666666666,70.71428571428572,-620,70.71428571428572C-613.3333333333334,70.71428571428572,-606.6666666666666,70.71428571428572,-600,70.71428571428572C-593.3333333333334,70.71428571428572,-586.6666666666666,70.71428571428572,-580,70.71428571428572C-573.3333333333334,70.71428571428572,-566.6666666666666,70.71428571428572,-560,70.71428571428572C-553.3333333333334,70.71428571428572,-546.6666666666666,70.71428571428572,-540,70.71428571428572C-533.3333333333334,70.71428571428572,-526.6666666666666,70.71428571428572,-520,70.71428571428572C-513.3333333333334,70.71428571428572,-506.6666666666667,70.71428571428572,-500,70.71428571428572C-493.3333333333333,70.71428571428572,-486.6666666666667,70.71428571428572,-480,70.71428571428572C-473.3333333333333,70.71428571428572,-466.6666666666667,70.71428571428572,-460,70.71428571428572C-453.3333333333333,70.71428571428572,-446.6666666666667,70.71428571428572,-440,70.71428571428572C-433.3333333333333,70.71428571428572,-426.6666666666667,70.71428571428572,-420,70.71428571428572C-413.3333333333333,70.71428571428572,-406.6666666666667,70.71428571428572,-400,70.71428571428572C-393.3333333333333,70.71428571428572,-386.6666666666667,70.71428571428572,-380,70.71428571428572C-373.3333333333333,70.71428571428572,-366.6666666666667,70.71428571428572,-360,70.71428571428572C-353.3333333333333,70.71428571428572,-346.6666666666667,70.71428571428572,-340,70.71428571428572C-333.3333333333333,70.71428571428572,-326.6666666666667,70.71428571428572,-320,70.71428571428572C-313.3333333333333,70.71428571428572,-306.6666666666667,70.71428571428572,-300,70.71428571428572C-293.3333333333333,70.71428571428572,-286.6666666666667,70.71428571428572,-280,70.71428571428572C-273.3333333333333,70.71428571428572,-266.6666666666667,70.71428571428572,-260,70.71428571428572C-253.33333333333334,70.71428571428572,-246.66666666666666,70.71428571428572,-240,70.71428571428572C-233.33333333333334,70.71428571428572,-226.66666666666666,70.71428571428572,-220,70.71428571428572C-213.33333333333334,70.71428571428572,-206.66666666666666,70.71428571428572,-200,70.71428571428572C-193.33333333333334,70.71428571428572,-186.66666666666666,70.71428571428572,-180,70.71428571428572C-173.33333333333334,70.71428571428572,-166.66666666666666,70.71428571428572,-160,70.71428571428572C-153.33333333333334,70.71428571428572,-146.66666666666666,70.71428571428572,-140,70.71428571428572C-133.33333333333334,70.71428571428572,-126.66666666666667,70.71428571428572,-120,70.71428571428572C-113.33333333333333,70.71428571428572,-106.66666666666667,70.71428571428572,-100,70.71428571428572C-93.33333333333333,70.71428571428572,-86.66666666666667,70.71428571428572,-80,70.71428571428572C-73.33333333333333,70.71428571428572,-66.66666666666667,70.71428571428572,-60,70.71428571428572C-53.333333333333336,70.71428571428572,-46.666666666666664,70.71428571428572,-40,70.71428571428572C-33.333333333333336,70.71428571428572,-26.666666666666668,70.71428571428572,-20,70.71428571428572C-13.333333333333332,70.71428571428572,-6.666666666666667,70.71428571428572,0,70.71428571428572" style="stroke: rgb(255, 127, 14); stroke-width: 2; fill: none;"/></g><text class="computeSig_label label" text-anchor="end" dx="-5" dy="0.5rem" fill="black" width="200" transform="translate(-980,70.71428571428572)">5</text></g><g class="node computeNode h6 statics" transform="translate(1010,0)" style="pointer-events: auto;"><g class="computeSig" stroke="black" style="stroke-width: 2;"><path class="linegg timeline hgroup_4" d="M-980,131.78571428571428C-973.3333333333334,131.78571428571428,-966.6666666666666,131.78571428571428,-960,131.78571428571428C-953.3333333333334,131.78571428571428,-946.6666666666666,131.78571428571428,-940,131.78571428571428C-933.3333333333334,131.78571428571428,-926.6666666666666,131.78571428571428,-920,131.78571428571428C-913.3333333333334,131.78571428571428,-906.6666666666666,131.78571428571428,-900,131.78571428571428C-893.3333333333334,131.78571428571428,-886.6666666666666,131.78571428571428,-880,131.78571428571428C-873.3333333333334,131.78571428571428,-866.6666666666666,131.78571428571428,-860,131.78571428571428C-853.3333333333334,131.78571428571428,-846.6666666666666,131.78571428571428,-840,131.78571428571428C-833.3333333333334,131.78571428571428,-826.6666666666666,131.78571428571428,-820,131.78571428571428C-813.3333333333334,131.78571428571428,-806.6666666666666,131.78571428571428,-800,131.78571428571428C-793.3333333333334,131.78571428571428,-786.6666666666666,131.78571428571428,-780,131.78571428571428C-773.3333333333334,131.78571428571428,-766.6666666666666,131.78571428571428,-760,131.78571428571428C-753.3333333333334,131.78571428571428,-746.6666666666666,131.78571428571428,-740,131.78571428571428C-733.3333333333334,131.78571428571428,-726.6666666666666,131.78571428571428,-720,131.78571428571428C-713.3333333333334,131.78571428571428,-706.6666666666666,131.78571428571428,-700,131.78571428571428C-693.3333333333334,131.78571428571428,-686.6666666666666,131.78571428571428,-680,131.78571428571428C-676.6666666666666,131.78571428571428,-673.3333333333334,131.78571428571428,-670,131.78571428571428C-666.6666666666666,131.78571428571428,-663.3333333333334,102.85714285714286,-660,73.92857142857143" style="stroke: rgb(214, 39, 40); stroke-width: 2; fill: none;"/><path class="linegg timeline hgroup_2" d="M-660,73.92857142857143C-653.3333333333334,73.92857142857143,-646.6666666666666,73.92857142857143,-640,73.92857142857143C-633.3333333333334,73.92857142857143,-626.6666666666666,73.92857142857143,-620,73.92857142857143C-613.3333333333334,73.92857142857143,-606.6666666666666,73.92857142857143,-600,73.92857142857143C-593.3333333333334,73.92857142857143,-586.6666666666666,73.92857142857143,-580,73.92857142857143C-573.3333333333334,73.92857142857143,-566.6666666666666,73.92857142857143,-560,73.92857142857143C-556.6666666666666,73.92857142857143,-553.3333333333334,73.92857142857143,-550,73.92857142857143C-546.6666666666666,73.92857142857143,-543.3333333333334,88.39285714285714,-540,102.85714285714285" style="stroke: rgb(255, 127, 14); stroke-width: 2; fill: none;"/><path class="linegg timeline hgroup_1" d="M-540,102.85714285714285C-536.6666666666666,102.85714285714285,-533.3333333333334,102.85714285714285,-530,102.85714285714285C-526.6666666666666,102.85714285714285,-523.3333333333334,88.39285714285714,-520,73.92857142857143" style="stroke: rgb(31, 119, 180); stroke-width: 2;"/><path class="linegg timeline hgroup_2" d="M-520,73.92857142857143C-513.3333333333334,73.92857142857143,-506.6666666666667,73.92857142857143,-500,73.92857142857143C-493.3333333333333,73.92857142857143,-486.6666666666667,73.92857142857143,-480,73.92857142857143C-473.3333333333333,73.92857142857143,-466.6666666666667,73.92857142857143,-460,73.92857142857143C-453.3333333333333,73.92857142857143,-446.6666666666667,73.92857142857143,-440,73.92857142857143C-433.3333333333333,73.92857142857143,-426.6666666666667,73.92857142857143,-420,73.92857142857143C-413.3333333333333,73.92857142857143,-406.6666666666667,73.92857142857143,-400,73.92857142857143C-393.3333333333333,73.92857142857143,-386.6666666666667,73.92857142857143,-380,73.92857142857143C-373.3333333333333,73.92857142857143,-366.6666666666667,73.92857142857143,-360,73.92857142857143C-353.3333333333333,73.92857142857143,-346.6666666666667,73.92857142857143,-340,73.92857142857143C-333.3333333333333,73.92857142857143,-326.6666666666667,73.92857142857143,-320,73.92857142857143C-313.3333333333333,73.92857142857143,-306.6666666666667,73.92857142857143,-300,73.92857142857143C-293.3333333333333,73.92857142857143,-286.6666666666667,73.92857142857143,-280,73.92857142857143C-273.3333333333333,73.92857142857143,-266.6666666666667,73.92857142857143,-260,73.92857142857143C-253.33333333333334,73.92857142857143,-246.66666666666666,73.92857142857143,-240,73.92857142857143C-233.33333333333334,73.92857142857143,-226.66666666666666,73.92857142857143,-220,73.92857142857143C-216.66666666666666,73.92857142857143,-213.33333333333334,73.92857142857143,-210,73.92857142857143C-206.66666666666666,73.92857142857143,-203.33333333333334,61.07142857142857,-200,48.214285714285715" style="stroke: rgb(255, 127, 14); stroke-width: 2; fill: none;"/><path class="linegg timeline hgroup_3" d="M-200,48.214285714285715C-193.33333333333334,48.214285714285715,-186.66666666666666,48.214285714285715,-180,48.214285714285715C-173.33333333333334,48.214285714285715,-166.66666666666666,48.214285714285715,-160,48.214285714285715C-153.33333333333334,48.214285714285715,-146.66666666666666,48.214285714285715,-140,48.214285714285715C-133.33333333333334,48.214285714285715,-126.66666666666667,48.214285714285715,-120,48.214285714285715C-113.33333333333333,48.214285714285715,-106.66666666666667,48.214285714285715,-100,48.214285714285715C-96.66666666666667,48.214285714285715,-93.33333333333333,48.214285714285715,-90,48.214285714285715C-86.66666666666667,48.214285714285715,-83.33333333333333,90,-80,131.78571428571428" style="stroke: rgb(44, 160, 44); stroke-width: 2; fill: none;"/><path class="linegg timeline hgroup_4" d="M-80,131.78571428571428C-73.33333333333333,131.78571428571428,-66.66666666666667,131.78571428571428,-60,131.78571428571428C-53.333333333333336,131.78571428571428,-46.666666666666664,131.78571428571428,-40,131.78571428571428C-33.333333333333336,131.78571428571428,-26.666666666666668,131.78571428571428,-20,131.78571428571428C-13.333333333333332,131.78571428571428,-6.666666666666667,131.78571428571428,0,131.78571428571428" style="stroke: rgb(214, 39, 40); stroke-width: 2; fill: none;"/></g><text class="computeSig_label label" text-anchor="end" dx="-5" dy="0.5rem" fill="black" width="200" transform="translate(-980,131.78571428571428)">6</text></g><g class="node computeNode h7 statics" transform="translate(1010,0)" style="pointer-events: auto;"><g class="computeSig" stroke="black" style="stroke-width: 2;"><path class="linegg timeline hgroup_2" d="M-980,61.07142857142857C-973.3333333333334,61.07142857142857,-966.6666666666666,61.07142857142857,-960,61.07142857142857C-956.6666666666666,61.07142857142857,-953.3333333333334,61.07142857142857,-950,61.07142857142857C-946.6666666666666,61.07142857142857,-943.3333333333334,49.82142857142857,-940,38.57142857142857" style="stroke: rgb(255, 127, 14); stroke-width: 2; fill: none;"/><path class="linegg timeline hgroup_3" d="M-940,38.57142857142857C-933.3333333333334,38.57142857142857,-926.6666666666666,38.57142857142857,-920,38.57142857142857C-913.3333333333334,38.57142857142857,-906.6666666666666,38.57142857142857,-900,38.57142857142857C-893.3333333333334,38.57142857142857,-886.6666666666666,38.57142857142857,-880,38.57142857142857C-873.3333333333334,38.57142857142857,-866.6666666666666,38.57142857142857,-860,38.57142857142857C-853.3333333333334,38.57142857142857,-846.6666666666666,38.57142857142857,-840,38.57142857142857C-833.3333333333334,38.57142857142857,-826.6666666666666,38.57142857142857,-820,38.57142857142857C-813.3333333333334,38.57142857142857,-806.6666666666666,38.57142857142857,-800,38.57142857142857C-793.3333333333334,38.57142857142857,-786.6666666666666,38.57142857142857,-780,38.57142857142857C-773.3333333333334,38.57142857142857,-766.6666666666666,38.57142857142857,-760,38.57142857142857C-753.3333333333334,38.57142857142857,-746.6666666666666,38.57142857142857,-740,38.57142857142857C-733.3333333333334,38.57142857142857,-726.6666666666666,38.57142857142857,-720,38.57142857142857C-713.3333333333334,38.57142857142857,-706.6666666666666,38.57142857142857,-700,38.57142857142857C-693.3333333333334,38.57142857142857,-686.6666666666666,38.57142857142857,-680,38.57142857142857C-673.3333333333334,38.57142857142857,-666.6666666666666,38.57142857142857,-660,38.57142857142857C-653.3333333333334,38.57142857142857,-646.6666666666666,38.57142857142857,-640,38.57142857142857C-633.3333333333334,38.57142857142857,-626.6666666666666,38.57142857142857,-620,38.57142857142857C-616.6666666666666,38.57142857142857,-613.3333333333334,38.57142857142857,-610,38.57142857142857C-606.6666666666666,38.57142857142857,-603.3333333333334,25.71428571428571,-600,12.857142857142856" style="stroke: rgb(44, 160, 44); stroke-width: 2; fill: none;"/><path class="linegg timeline hgroup_5" d="M-600,12.857142857142861C-593.3333333333334,12.857142857142861,-586.6666666666666,12.857142857142861,-580,12.857142857142861C-573.3333333333334,12.857142857142861,-566.6666666666666,12.857142857142861,-560,12.857142857142861C-553.3333333333334,12.857142857142861,-546.6666666666666,12.857142857142861,-540,12.857142857142861C-533.3333333333334,12.857142857142861,-526.6666666666666,12.857142857142861,-520,12.857142857142861C-516.6666666666666,12.857142857142856,-513.3333333333334,12.857142857142856,-510,12.857142857142856C-506.6666666666667,12.857142857142856,-503.3333333333333,54.64285714285714,-500,96.42857142857143" style="stroke: rgb(148, 103, 189); stroke-width: 2; fill: none;"/><path class="linegg timeline hgroup_1" d="M-500,96.42857142857143C-493.3333333333333,96.42857142857143,-486.6666666666667,96.42857142857143,-480,96.42857142857143C-473.3333333333333,96.42857142857143,-466.6666666666667,96.42857142857143,-460,96.42857142857143C-453.3333333333333,96.42857142857143,-446.6666666666667,96.42857142857143,-440,96.42857142857143C-433.3333333333333,96.42857142857143,-426.6666666666667,96.42857142857143,-420,96.42857142857143C-413.3333333333333,96.42857142857143,-406.6666666666667,96.42857142857143,-400,96.42857142857143C-393.3333333333333,96.42857142857143,-386.6666666666667,96.42857142857143,-380,96.42857142857143C-373.3333333333333,96.42857142857143,-366.6666666666667,96.42857142857143,-360,96.42857142857143C-353.3333333333333,96.42857142857143,-346.6666666666667,96.42857142857143,-340,96.42857142857143C-333.3333333333333,96.42857142857143,-326.6666666666667,96.42857142857143,-320,96.42857142857143C-313.3333333333333,96.42857142857143,-306.6666666666667,96.42857142857143,-300,96.42857142857143C-293.3333333333333,96.42857142857143,-286.6666666666667,96.42857142857143,-280,96.42857142857143C-273.3333333333333,96.42857142857143,-266.6666666666667,96.42857142857143,-260,96.42857142857143C-253.33333333333334,96.42857142857143,-246.66666666666666,96.42857142857143,-240,96.42857142857143C-233.33333333333334,96.42857142857143,-226.66666666666666,96.42857142857143,-220,96.42857142857143C-213.33333333333334,96.42857142857143,-206.66666666666666,96.42857142857143,-200,96.42857142857143C-193.33333333333334,96.42857142857143,-186.66666666666666,96.42857142857143,-180,96.42857142857143C-173.33333333333334,96.42857142857143,-166.66666666666666,96.42857142857143,-160,96.42857142857143C-153.33333333333334,96.42857142857143,-146.66666666666666,96.42857142857143,-140,96.42857142857143C-133.33333333333334,96.42857142857143,-126.66666666666667,96.42857142857143,-120,96.42857142857143C-113.33333333333333,96.42857142857143,-106.66666666666667,96.42857142857143,-100,96.42857142857143C-93.33333333333333,96.42857142857143,-86.66666666666667,96.42857142857143,-80,96.42857142857143C-73.33333333333333,96.42857142857143,-66.66666666666667,96.42857142857143,-60,96.42857142857143C-53.333333333333336,96.42857142857143,-46.666666666666664,96.42857142857143,-40,96.42857142857143C-36.666666666666664,96.42857142857143,-33.333333333333336,96.42857142857143,-30,96.42857142857143C-26.666666666666668,96.42857142857143,-23.333333333333332,54.642857142857146,-20,12.857142857142856" style="stroke: rgb(31, 119, 180); stroke-width: 2; fill: none;"/><path class="linegg timeline hgroup_5" d="M-20,12.857142857142861L0,12.857142857142861" style="stroke: rgb(148, 103, 189); stroke-width: 2; fill: none;"/></g><text class="computeSig_label label" text-anchor="end" dx="-5" dy="0.5rem" fill="black" width="200" transform="translate(-980,61.07142857142857)">7</text></g><g class="node computeNode h8 statics" transform="translate(1010,0)" style="pointer-events: auto;"><g class="computeSig" stroke="black" style="stroke-width: 2;"><path class="linegg timeline hgroup_3" d="M-980,28.92857142857143C-973.3333333333334,28.92857142857143,-966.6666666666666,28.92857142857143,-960,28.92857142857143C-953.3333333333334,28.92857142857143,-946.6666666666666,28.92857142857143,-940,28.92857142857143C-933.3333333333334,28.92857142857143,-926.6666666666666,28.92857142857143,-920,28.92857142857143C-913.3333333333334,28.92857142857143,-906.6666666666666,28.92857142857143,-900,28.92857142857143C-893.3333333333334,28.92857142857143,-886.6666666666666,28.92857142857143,-880,28.92857142857143C-873.3333333333334,28.92857142857143,-866.6666666666666,28.92857142857143,-860,28.92857142857143C-853.3333333333334,28.92857142857143,-846.6666666666666,28.92857142857143,-840,28.92857142857143C-833.3333333333334,28.92857142857143,-826.6666666666666,28.92857142857143,-820,28.92857142857143C-813.3333333333334,28.92857142857143,-806.6666666666666,28.92857142857143,-800,28.92857142857143C-793.3333333333334,28.92857142857143,-786.6666666666666,28.92857142857143,-780,28.92857142857143C-773.3333333333334,28.92857142857143,-766.6666666666666,28.92857142857143,-760,28.92857142857143C-753.3333333333334,28.92857142857143,-746.6666666666666,28.92857142857143,-740,28.92857142857143C-733.3333333333334,28.92857142857143,-726.6666666666666,28.92857142857143,-720,28.92857142857143C-713.3333333333334,28.92857142857143,-706.6666666666666,28.92857142857143,-700,28.92857142857143C-693.3333333333334,28.92857142857143,-686.6666666666666,28.92857142857143,-680,28.92857142857143C-673.3333333333334,28.92857142857143,-666.6666666666666,28.92857142857143,-660,28.92857142857143C-653.3333333333334,28.92857142857143,-646.6666666666666,28.92857142857143,-640,28.92857142857143C-633.3333333333334,28.92857142857143,-626.6666666666666,28.92857142857143,-620,28.92857142857143C-613.3333333333334,28.92857142857143,-606.6666666666666,28.92857142857143,-600,28.92857142857143C-593.3333333333334,28.92857142857143,-586.6666666666666,28.92857142857143,-580,28.92857142857143C-573.3333333333334,28.92857142857143,-566.6666666666666,28.92857142857143,-560,28.92857142857143C-553.3333333333334,28.92857142857143,-546.6666666666666,28.92857142857143,-540,28.92857142857143C-533.3333333333334,28.92857142857143,-526.6666666666666,28.92857142857143,-520,28.92857142857143C-513.3333333333334,28.92857142857143,-506.6666666666667,28.92857142857143,-500,28.92857142857143C-493.3333333333333,28.92857142857143,-486.6666666666667,28.92857142857143,-480,28.92857142857143C-473.3333333333333,28.92857142857143,-466.6666666666667,28.92857142857143,-460,28.92857142857143C-453.3333333333333,28.92857142857143,-446.6666666666667,28.92857142857143,-440,28.92857142857143C-433.3333333333333,28.92857142857143,-426.6666666666667,28.92857142857143,-420,28.92857142857143C-413.3333333333333,28.92857142857143,-406.6666666666667,28.92857142857143,-400,28.92857142857143C-393.3333333333333,28.92857142857143,-386.6666666666667,28.92857142857143,-380,28.92857142857143C-373.3333333333333,28.92857142857143,-366.6666666666667,28.92857142857143,-360,28.92857142857143C-353.3333333333333,28.92857142857143,-346.6666666666667,28.92857142857143,-340,28.92857142857143C-333.3333333333333,28.92857142857143,-326.6666666666667,28.92857142857143,-320,28.92857142857143C-313.3333333333333,28.92857142857143,-306.6666666666667,28.92857142857143,-300,28.92857142857143C-293.3333333333333,28.92857142857143,-286.6666666666667,28.92857142857143,-280,28.92857142857143C-273.3333333333333,28.92857142857143,-266.6666666666667,28.92857142857143,-260,28.92857142857143C-256.6666666666667,28.928571428571427,-253.33333333333334,28.928571428571427,-250,28.928571428571427C-246.66666666666666,28.928571428571427,-243.33333333333334,57.85714285714286,-240,86.78571428571429" style="stroke: rgb(44, 160, 44); stroke-width: 2; fill: none;"/><path class="linegg timeline hgroup_1" d="M-240,86.78571428571429C-233.33333333333334,86.78571428571429,-226.66666666666666,86.78571428571429,-220,86.78571428571429C-213.33333333333334,86.78571428571429,-206.66666666666666,86.78571428571429,-200,86.78571428571429C-196.66666666666666,86.78571428571429,-193.33333333333334,86.78571428571429,-190,86.78571428571429C-186.66666666666666,86.78571428571429,-183.33333333333334,45.000000000000014,-180,3.214285714285714" style="stroke: rgb(31, 119, 180); stroke-width: 2; fill: none;"/><path class="linegg timeline hgroup_5" d="M-180,3.214285714285708C-173.33333333333334,3.214285714285708,-166.66666666666666,3.214285714285708,-160,3.214285714285708C-153.33333333333334,3.214285714285708,-146.66666666666666,3.214285714285708,-140,3.214285714285708C-136.66666666666666,3.214285714285714,-133.33333333333334,3.214285714285714,-130,3.214285714285714C-126.66666666666667,3.214285714285714,-123.33333333333333,57.85714285714285,-120,112.5" style="stroke: rgb(148, 103, 189); stroke-width: 2; fill: none;"/><path class="linegg timeline hgroup_4" d="M-120,112.5C-113.33333333333333,112.5,-106.66666666666667,112.5,-100,112.5C-96.66666666666667,112.5,-93.33333333333333,112.5,-90,112.5C-86.66666666666667,112.5,-83.33333333333333,70.71428571428572,-80,28.928571428571427" style="stroke: rgb(214, 39, 40); stroke-width: 2; fill: none;"/><path class="linegg timeline hgroup_3" d="M-80,28.928571428571427C-76.66666666666667,28.928571428571427,-73.33333333333333,28.928571428571427,-70,28.928571428571427C-66.66666666666667,28.928571428571427,-63.333333333333336,57.85714285714286,-60,86.78571428571429" style="stroke: rgb(44, 160, 44); stroke-width: 2;"/><path class="linegg timeline hgroup_1" d="M-60,86.78571428571429C-56.666666666666664,86.78571428571429,-53.333333333333336,86.78571428571429,-50,86.78571428571429C-46.666666666666664,86.78571428571429,-43.333333333333336,99.64285714285714,-40,112.5" style="stroke: rgb(31, 119, 180); stroke-width: 2;"/><path class="linegg timeline hgroup_4" d="M-40,112.5C-33.333333333333336,112.5,-26.666666666666668,112.5,-20,112.5C-13.333333333333332,112.5,-6.666666666666667,112.5,0,112.5" style="stroke: rgb(214, 39, 40); stroke-width: 2; fill: none;"/></g><text class="computeSig_label label" text-anchor="end" dx="-5" dy="0.5rem" fill="black" width="200" transform="translate(-980,28.928571428571427)">8</text></g><g class="node computeNode h9 statics" transform="translate(1010,0)" style="pointer-events: auto;"><g class="computeSig" stroke="black" style="stroke-width: 2;"><path class="linegg timeline hgroup_4" d="M-980,125.35714285714286C-973.3333333333334,125.35714285714286,-966.6666666666666,125.35714285714286,-960,125.35714285714286C-953.3333333333334,125.35714285714286,-946.6666666666666,125.35714285714286,-940,125.35714285714286C-933.3333333333334,125.35714285714286,-926.6666666666666,125.35714285714286,-920,125.35714285714286C-913.3333333333334,125.35714285714286,-906.6666666666666,125.35714285714286,-900,125.35714285714286C-893.3333333333334,125.35714285714286,-886.6666666666666,125.35714285714286,-880,125.35714285714286C-873.3333333333334,125.35714285714286,-866.6666666666666,125.35714285714286,-860,125.35714285714286C-853.3333333333334,125.35714285714286,-846.6666666666666,125.35714285714286,-840,125.35714285714286C-833.3333333333334,125.35714285714286,-826.6666666666666,125.35714285714286,-820,125.35714285714286C-813.3333333333334,125.35714285714286,-806.6666666666666,125.35714285714286,-800,125.35714285714286C-793.3333333333334,125.35714285714286,-786.6666666666666,125.35714285714286,-780,125.35714285714286C-773.3333333333334,125.35714285714286,-766.6666666666666,125.35714285714286,-760,125.35714285714286C-753.3333333333334,125.35714285714286,-746.6666666666666,125.35714285714286,-740,125.35714285714286C-733.3333333333334,125.35714285714286,-726.6666666666666,125.35714285714286,-720,125.35714285714286C-713.3333333333334,125.35714285714286,-706.6666666666666,125.35714285714286,-700,125.35714285714286C-693.3333333333334,125.35714285714286,-686.6666666666666,125.35714285714286,-680,125.35714285714286C-673.3333333333334,125.35714285714286,-666.6666666666666,125.35714285714286,-660,125.35714285714286C-653.3333333333334,125.35714285714286,-646.6666666666666,125.35714285714286,-640,125.35714285714286C-633.3333333333334,125.35714285714286,-626.6666666666666,125.35714285714286,-620,125.35714285714286C-613.3333333333334,125.35714285714286,-606.6666666666666,125.35714285714286,-600,125.35714285714286C-593.3333333333334,125.35714285714286,-586.6666666666666,125.35714285714286,-580,125.35714285714286C-573.3333333333334,125.35714285714286,-566.6666666666666,125.35714285714286,-560,125.35714285714286C-556.6666666666666,125.35714285714286,-553.3333333333334,125.35714285714286,-550,125.35714285714286C-546.6666666666666,125.35714285714286,-543.3333333333334,72.32142857142858,-540,19.285714285714285" style="stroke: rgb(214, 39, 40); stroke-width: 2; fill: none;"/><path class="linegg timeline hgroup_5" d="M-540,19.285714285714278C-533.3333333333334,19.285714285714278,-526.6666666666666,19.285714285714278,-520,19.285714285714278C-513.3333333333334,19.285714285714278,-506.6666666666667,19.285714285714278,-500,19.285714285714278C-493.3333333333333,19.285714285714278,-486.6666666666667,19.285714285714278,-480,19.285714285714278C-473.3333333333333,19.285714285714278,-466.6666666666667,19.285714285714278,-460,19.285714285714278C-453.3333333333333,19.285714285714278,-446.6666666666667,19.285714285714278,-440,19.285714285714278C-433.3333333333333,19.285714285714278,-426.6666666666667,19.285714285714278,-420,19.285714285714278C-413.3333333333333,19.285714285714278,-406.6666666666667,19.285714285714278,-400,19.285714285714278C-393.3333333333333,19.285714285714278,-386.6666666666667,19.285714285714278,-380,19.285714285714278C-373.3333333333333,19.285714285714278,-366.6666666666667,19.285714285714278,-360,19.285714285714278C-353.3333333333333,19.285714285714278,-346.6666666666667,19.285714285714278,-340,19.285714285714278C-333.3333333333333,19.285714285714278,-326.6666666666667,19.285714285714278,-320,19.285714285714278C-313.3333333333333,19.285714285714278,-306.6666666666667,19.285714285714278,-300,19.285714285714278C-293.3333333333333,19.285714285714278,-286.6666666666667,19.285714285714278,-280,19.285714285714278C-276.6666666666667,19.285714285714285,-273.3333333333333,19.285714285714285,-270,19.285714285714285C-266.6666666666667,19.285714285714285,-263.3333333333333,43.39285714285714,-260,67.5" style="stroke: rgb(148, 103, 189); stroke-width: 2; fill: none;"/><path class="linegg timeline hgroup_2" d="M-260,67.5C-253.33333333333334,67.5,-246.66666666666666,67.5,-240,67.5C-233.33333333333334,67.5,-226.66666666666666,67.5,-220,67.5C-216.66666666666666,67.5,-213.33333333333334,67.5,-210,67.5C-206.66666666666666,67.5,-203.33333333333334,56.25,-200,45" style="stroke: rgb(255, 127, 14); stroke-width: 2; fill: none;"/><path class="linegg timeline hgroup_3" d="M-200,45C-193.33333333333334,45,-186.66666666666666,45,-180,45C-173.33333333333334,45,-166.66666666666666,45,-160,45C-153.33333333333334,45,-146.66666666666666,45,-140,45C-133.33333333333334,45,-126.66666666666667,45,-120,45C-113.33333333333333,45,-106.66666666666667,45,-100,45C-93.33333333333333,45,-86.66666666666667,45,-80,45C-73.33333333333333,45,-66.66666666666667,45,-60,45C-53.333333333333336,45,-46.666666666666664,45,-40,45C-33.333333333333336,45,-26.666666666666668,45,-20,45C-13.333333333333332,45,-6.666666666666667,45,0,45" style="stroke: rgb(44, 160, 44); stroke-width: 2; fill: none;"/></g><text class="computeSig_label label" text-anchor="end" dx="-5" dy="0.5rem" fill="black" width="200" transform="translate(-980,125.35714285714286)">9</text></g><g class="node computeNode h10 statics" transform="translate(1010,0)" style="pointer-events: auto;"><g class="computeSig" stroke="black" style="stroke-width: 2;"><path class="linegg timeline hgroup_2" d="M-980,80.35714285714286C-973.3333333333334,80.35714285714286,-966.6666666666666,80.35714285714286,-960,80.35714285714286C-953.3333333333334,80.35714285714286,-946.6666666666666,80.35714285714286,-940,80.35714285714286C-933.3333333333334,80.35714285714286,-926.6666666666666,80.35714285714286,-920,80.35714285714286C-913.3333333333334,80.35714285714286,-906.6666666666666,80.35714285714286,-900,80.35714285714286C-893.3333333333334,80.35714285714286,-886.6666666666666,80.35714285714286,-880,80.35714285714286C-873.3333333333334,80.35714285714286,-866.6666666666666,80.35714285714286,-860,80.35714285714286C-853.3333333333334,80.35714285714286,-846.6666666666666,80.35714285714286,-840,80.35714285714286C-833.3333333333334,80.35714285714286,-826.6666666666666,80.35714285714286,-820,80.35714285714286C-813.3333333333334,80.35714285714286,-806.6666666666666,80.35714285714286,-800,80.35714285714286C-793.3333333333334,80.35714285714286,-786.6666666666666,80.35714285714286,-780,80.35714285714286C-773.3333333333334,80.35714285714286,-766.6666666666666,80.35714285714286,-760,80.35714285714286C-753.3333333333334,80.35714285714286,-746.6666666666666,80.35714285714286,-740,80.35714285714286C-733.3333333333334,80.35714285714286,-726.6666666666666,80.35714285714286,-720,80.35714285714286C-713.3333333333334,80.35714285714286,-706.6666666666666,80.35714285714286,-700,80.35714285714286C-693.3333333333334,80.35714285714286,-686.6666666666666,80.35714285714286,-680,80.35714285714286C-673.3333333333334,80.35714285714286,-666.6666666666666,80.35714285714286,-660,80.35714285714286C-653.3333333333334,80.35714285714286,-646.6666666666666,80.35714285714286,-640,80.35714285714286C-633.3333333333334,80.35714285714286,-626.6666666666666,80.35714285714286,-620,80.35714285714286C-613.3333333333334,80.35714285714286,-606.6666666666666,80.35714285714286,-600,80.35714285714286C-596.6666666666666,80.35714285714286,-593.3333333333334,80.35714285714286,-590,80.35714285714286C-586.6666666666666,80.35714285714286,-583.3333333333334,107.67857142857143,-580,135" style="stroke: rgb(255, 127, 14); stroke-width: 2; fill: none;"/><path class="linegg timeline hgroup_4" d="M-580,135C-573.3333333333334,135,-566.6666666666666,135,-560,135C-553.3333333333334,135,-546.6666666666666,135,-540,135C-533.3333333333334,135,-526.6666666666666,135,-520,135C-513.3333333333334,135,-506.6666666666667,135,-500,135C-493.3333333333333,135,-486.6666666666667,135,-480,135C-473.3333333333333,135,-466.6666666666667,135,-460,135C-453.3333333333333,135,-446.6666666666667,135,-440,135C-433.3333333333333,135,-426.6666666666667,135,-420,135C-413.3333333333333,135,-406.6666666666667,135,-400,135C-393.3333333333333,135,-386.6666666666667,135,-380,135C-373.3333333333333,135,-366.6666666666667,135,-360,135C-353.3333333333333,135,-346.6666666666667,135,-340,135C-333.3333333333333,135,-326.6666666666667,135,-320,135C-313.3333333333333,135,-306.6666666666667,135,-300,135C-293.3333333333333,135,-286.6666666666667,135,-280,135C-273.3333333333333,135,-266.6666666666667,135,-260,135C-253.33333333333334,135,-246.66666666666666,135,-240,135C-233.33333333333334,135,-226.66666666666666,135,-220,135C-213.33333333333334,135,-206.66666666666666,135,-200,135C-193.33333333333334,135,-186.66666666666666,135,-180,135C-173.33333333333334,135,-166.66666666666666,135,-160,135C-153.33333333333334,135,-146.66666666666666,135,-140,135C-133.33333333333334,135,-126.66666666666667,135,-120,135C-113.33333333333333,135,-106.66666666666667,135,-100,135C-96.66666666666667,135,-93.33333333333333,135,-90,135C-86.66666666666667,135,-83.33333333333333,78.75,-80,22.5" style="stroke: rgb(214, 39, 40); stroke-width: 2; fill: none;"/><path class="linegg timeline hgroup_5" d="M-80,22.5C-73.33333333333333,22.5,-66.66666666666667,22.5,-60,22.5C-53.333333333333336,22.5,-46.666666666666664,22.5,-40,22.5C-33.333333333333336,22.5,-26.666666666666668,22.5,-20,22.5C-13.333333333333332,22.5,-6.666666666666667,22.5,0,22.5" style="stroke: rgb(148, 103, 189); stroke-width: 2; fill: none;"/></g><text class="computeSig_label label" text-anchor="end" dx="-5" dy="0.5rem" fill="black" width="200" transform="translate(-980,80.35714285714286)">10</text></g></g><rect class="fisheyeLayer" style="opacity: 0; pointer-events: none;" width="980" height="180" transform="translate(-680,0)"/><g class="table header" transform="translate(600,0)"><g class="back"><path style="fill: rgb(221, 221, 221);"/></g></g></g><g class="timebox hide" transform="translate(40,20)" dy="1rem" style="font-size: 16px;"/><circle id="tipfollowscursor" cx="1008" cy="124"/></svg>