<svg id="jobmap" width="300" height="550" style="fill: none; font-size: 10px; font-family: sans-serif;" xmlns="http://www.w3.org/2000/svg" xmlns:xlink="http://www.w3.org/1999/xlink">

                    <defs id="defsmain"><pattern id="userpic" width="100%" height="100%" patternContentUnits="objectBoundingBox"><image height="1" width="1" preserveAspectRatio="none" xmlns:xlink="http://www.w3.org/1999/xlink" xlink:href="src/images/u.png"/></pattern><marker id="arrow" markerWidth="10" markerHeight="10" refX="0" refY="3" orient="auto" markerUnits="strokeWidth"><path d="M0,0 L0,6 L9,3 z" style="fill: black;"/></marker></defs><rect class="pantarget" opacity="0" width="1146" height="762"/><g class="pannel" transform="translate(50,50)"><text class="Time" text-anchor="middle" x="40" dy="-30" style="font-weight: bold; fill: black;">Time</text><line x1="60" x2="95" y1="-33" y2="-33" marker-end="url(#arrow)" style="stroke: black;"/><text class="Time" text-anchor="middle" x="-5" dy="-1rem" style="font-weight: bold; fill: black;">Instance</text><line x1="5" x2="5" y1="-5" y2="30" marker-end="url(#arrow)" style="stroke: black;"/><g class="gNodeaxis" transform="translate(210,-10)"><g class="gMainaxis" fill="none" font-size="10" font-family="sans-serif" text-anchor="middle"><g class="tick" opacity="1" transform="translate(-180, 0)"><line stroke="#000" y2="445" vector-effect="non-scaling-stroke" style="stroke-width: 0.1; stroke: black; stroke-dasharray: 1, 2; opacity: 0.5;"/><text fill="#000" y="-3" dy="-0.5rem">1</text></g><g class="tick" opacity="1" transform="translate(-160, 0)"><line stroke="#000" y2="445" vector-effect="non-scaling-stroke" style="stroke-width: 0.1; stroke: black; stroke-dasharray: 1, 2; opacity: 0.5;"/><text fill="#000" y="-3" dy="-0.5rem">2</text></g><g class="tick" opacity="1" transform="translate(-140, 0)"><line stroke="#000" y2="445" vector-effect="non-scaling-stroke" style="stroke-width: 0.1; stroke: black; stroke-dasharray: 1, 2; opacity: 0.5;"/><text fill="#000" y="-3" dy="-0.5rem">3</text></g><g class="tick" opacity="1" transform="translate(-120, 0)"><line stroke="#000" y2="445" vector-effect="non-scaling-stroke" style="stroke-width: 0.1; stroke: black; stroke-dasharray: 1, 2; opacity: 0.5;"/><text fill="#000" y="-3" dy="-0.5rem">4</text></g><g class="tick" opacity="1" transform="translate(-100, 0)"><line stroke="#000" y2="445" vector-effect="non-scaling-stroke" style="stroke-width: 0.1; stroke: black; stroke-dasharray: 1, 2; opacity: 0.5;"/><text fill="#000" y="-3" dy="-0.5rem">5</text></g><g class="tick" opacity="1" transform="translate(-80, 0)"><line stroke="#000" y2="445" vector-effect="non-scaling-stroke" style="stroke-width: 0.1; stroke: black; stroke-dasharray: 1, 2; opacity: 0.5;"/><text fill="#000" y="-3" dy="-0.5rem">6</text></g><g class="tick" opacity="1" transform="translate(-60, 0)"><line stroke="#000" y2="445" vector-effect="non-scaling-stroke" style="stroke-width: 0.1; stroke: black; stroke-dasharray: 1, 2; opacity: 0.5;"/><text fill="#000" y="-3" dy="-0.5rem">7</text></g><g class="tick" opacity="1" transform="translate(-40, 0)"><line stroke="#000" y2="445" vector-effect="non-scaling-stroke" style="stroke-width: 0.1; stroke: black; stroke-dasharray: 1, 2; opacity: 0.5;"/><text fill="#000" y="-3" dy="-0.5rem">8</text></g><g class="tick" opacity="1" transform="translate(-20, 0)"><line stroke="#000" y2="445" vector-effect="non-scaling-stroke" style="stroke-width: 0.1; stroke: black; stroke-dasharray: 1, 2; opacity: 0.5;"/><text fill="#000" y="-3" dy="-0.5rem">9</text></g><g class="tick" opacity="1" transform=""><line stroke="#000" y2="445" vector-effect="non-scaling-stroke" style="stroke-width: 0.1; stroke: black; stroke-dasharray: 1, 2; opacity: 0.5;"/><text fill="#000" y="-3" dy="-0.5rem">10</text></g></g><g class="gSubaxis hide"/></g><g class="annotation"/><g class="linkg"><g class="links" style="display: none;"><path stroke="black" style="stroke-width: 2;"/><text text-anchor="middle">1</text></g><g class="links" style="display: none;"><path stroke="black" style="stroke-width: 2;"/><text text-anchor="middle">1</text></g><g class="links" style="display: none;"><path stroke="black" style="stroke-width: 2;"/><text text-anchor="middle">1</text></g><g class="links" style="display: none;"><path stroke="black" style="stroke-width: 2;"/><text text-anchor="middle">1</text></g><g class="links" style="display: none;"><path stroke="black" style="stroke-width: 2;"/><text text-anchor="middle">1</text></g><g class="links" style="display: none;"><path stroke="black" style="stroke-width: 2;"/><text text-anchor="middle">1</text></g><g class="links" style="display: none;"><path stroke="black" style="stroke-width: 2;"/><text text-anchor="middle">1</text></g><g class="links" style="display: none;"><path stroke="black" style="stroke-width: 2;"/><text text-anchor="middle">1</text></g><g class="links" style="display: none;"><path stroke="black" style="stroke-width: 2;"/><text text-anchor="middle">1</text></g><g class="links" style="display: none;"><path stroke="black" style="stroke-width: 2;"/><text text-anchor="middle">1</text></g><g class="links" style="display: none;"><path stroke="black" style="stroke-width: 2;"/><text text-anchor="middle">1</text></g><g class="links" style="display: none;"><path stroke="black" style="stroke-width: 2;"/><text text-anchor="middle">1</text></g><g class="links" style="display: none;"><path stroke="black" style="stroke-width: 2;"/><text text-anchor="middle">1</text></g><g class="links" style="display: none;"><path stroke="black" style="stroke-width: 2;"/><text text-anchor="middle">1</text></g><g class="links" style="display: none;"><path stroke="black" style="stroke-width: 2;"/><text text-anchor="middle">1</text></g><g class="links" style="display: none;"><path stroke="black" style="stroke-width: 2;"/><text text-anchor="middle">1</text></g><g class="links" style="display: none;"><path stroke="black" style="stroke-width: 2;"/><text text-anchor="middle">1</text></g><g class="links" style="display: none;"><path stroke="black" style="stroke-width: 2;"/><text text-anchor="middle">1</text></g><g class="links" style="display: none;"><path stroke="black" style="stroke-width: 2;"/><text text-anchor="middle">1</text></g><g class="links" style="display: none;"><path stroke="black" style="stroke-width: 2;"/><text text-anchor="middle">1</text></g><g class="links" style="display: none;"><path stroke="black" style="stroke-width: 2;"/><text text-anchor="middle">1</text></g><g class="links" style="display: none;"><path stroke="black" style="stroke-width: 2;"/><text text-anchor="middle">1</text></g><g class="links" style="display: none;"><path stroke="black" style="stroke-width: 2;"/><text text-anchor="middle">1</text></g><g class="links" style="display: none;"><path stroke="black" style="stroke-width: 2;"/><text text-anchor="middle">1</text></g><g class="links" style="display: none;"><path stroke="black" style="stroke-width: 2;"/><text text-anchor="middle">1</text></g><g class="links" style="display: none;"><path stroke="black" style="stroke-width: 2;"/><text text-anchor="middle">1</text></g><g class="links" style="display: none;"><path stroke="black" style="stroke-width: 2;"/><text text-anchor="middle">1</text></g><g class="links" style="display: none;"><path stroke="black" style="stroke-width: 2;"/><text text-anchor="middle">1</text></g><g class="links" style="display: none;"><path stroke="black" style="stroke-width: 2;"/><text text-anchor="middle">1</text></g><g class="links" style="display: none;"><path stroke="black" style="stroke-width: 2;"/><text text-anchor="middle">1</text></g><g class="links" style="display: none;"><path stroke="black" style="stroke-width: 2;"/><text text-anchor="middle">1</text></g></g><g class="nodeg"><g class="node computeNode h1 statics" transform="translate(210,0)" style="pointer-events: auto;"><g class="computeSig" stroke="black" style="stroke-width: 2;"><path class="linegg timeline hgroup_1" d="M-180,64.44444444444444C-173.33333333333334,64.44444444444444,-166.66666666666666,64.44444444444444,-160,64.44444444444444C-153.33333333333334,64.44444444444444,-146.66666666666666,64.44444444444444,-140,64.44444444444444C-133.33333333333334,64.44444444444444,-126.66666666666667,64.44444444444444,-120,64.44444444444444C-113.33333333333333,64.44444444444444,-106.66666666666667,64.44444444444444,-100,64.44444444444444C-93.33333333333333,64.44444444444444,-86.66666666666667,64.44444444444444,-80,64.44444444444444C-73.33333333333333,64.44444444444444,-66.66666666666667,64.44444444444444,-60,64.44444444444444C-53.333333333333336,64.44444444444444,-46.666666666666664,64.44444444444444,-40,64.44444444444444C-33.333333333333336,64.44444444444444,-26.666666666666668,64.44444444444444,-20,64.44444444444444C-13.333333333333332,64.44444444444444,-6.666666666666667,64.44444444444444,0,64.44444444444444" style="stroke: rgb(31, 119, 180); stroke-width: 2; fill: none;"/></g><text class="computeSig_label label" text-anchor="end" dx="-5" dy="0.5rem" fill="black" width="200" transform="translate(-180,64.44444444444444)">1</text></g><g class="node computeNode h2 statics" transform="translate(210,0)" style="pointer-events: auto;"><g class="computeSig" stroke="black" style="stroke-width: 2;"><path class="linegg timeline hgroup_2" d="M-180,8.055555555555555C-173.33333333333334,8.055555555555555,-166.66666666666666,8.055555555555555,-160,8.055555555555555C-153.33333333333334,8.055555555555555,-146.66666666666666,8.055555555555555,-140,8.055555555555555C-133.33333333333334,8.055555555555555,-126.66666666666667,8.055555555555555,-120,8.055555555555555C-113.33333333333333,8.055555555555555,-106.66666666666667,8.055555555555555,-100,8.055555555555555C-93.33333333333333,8.055555555555555,-86.66666666666667,8.055555555555555,-80,8.055555555555555C-73.33333333333333,8.055555555555555,-66.66666666666667,8.055555555555555,-60,8.055555555555555C-53.333333333333336,8.055555555555555,-46.666666666666664,8.055555555555555,-40,8.055555555555555C-33.333333333333336,8.055555555555555,-26.666666666666668,8.055555555555555,-20,8.055555555555555C-13.333333333333332,8.055555555555555,-6.666666666666667,8.055555555555555,0,8.055555555555555" style="stroke: rgb(255, 127, 14); stroke-width: 2; fill: none;"/></g><text class="computeSig_label label" text-anchor="end" dx="-5" dy="0.5rem" fill="black" width="200" transform="translate(-180,8.055555555555555)">2</text></g><g class="node computeNode h3 statics" transform="translate(210,0)" style="pointer-events: auto;"><g class="computeSig" stroke="black" style="stroke-width: 2;"><path class="linegg timeline hgroup_2" d="M-180,16.11111111111111C-173.33333333333334,16.11111111111111,-166.66666666666666,16.11111111111111,-160,16.11111111111111C-153.33333333333334,16.11111111111111,-146.66666666666666,16.11111111111111,-140,16.11111111111111C-133.33333333333334,16.11111111111111,-126.66666666666667,16.11111111111111,-120,16.11111111111111C-113.33333333333333,16.11111111111111,-106.66666666666667,16.11111111111111,-100,16.11111111111111C-93.33333333333333,16.11111111111111,-86.66666666666667,16.11111111111111,-80,16.11111111111111C-73.33333333333333,16.11111111111111,-66.66666666666667,16.11111111111111,-60,16.11111111111111C-53.333333333333336,16.11111111111111,-46.666666666666664,16.11111111111111,-40,16.11111111111111C-33.333333333333336,16.11111111111111,-26.666666666666668,16.11111111111111,-20,16.11111111111111C-13.333333333333332,16.11111111111111,-6.666666666666667,16.11111111111111,0,16.11111111111111" style="stroke: rgb(255, 127, 14); stroke-width: 2; fill: none;"/></g><text class="computeSig_label label" text-anchor="end" dx="-5" dy="0.5rem" fill="black" width="200" transform="translate(-180,16.11111111111111)">3</text></g><g class="node computeNode h4 statics" transform="translate(210,0)" style="pointer-events: auto;"><g class="computeSig" stroke="black" style="stroke-width: 2;"><path class="linegg timeline hgroup_1" d="M-180,72.5C-173.33333333333334,72.5,-166.66666666666666,72.5,-160,72.5C-153.33333333333334,72.5,-146.66666666666666,72.5,-140,72.5C-133.33333333333334,72.5,-126.66666666666667,72.5,-120,72.5C-113.33333333333333,72.5,-106.66666666666667,72.5,-100,72.5C-93.33333333333333,72.5,-86.66666666666667,72.5,-80,72.5C-73.33333333333333,72.5,-66.66666666666667,72.5,-60,72.5C-53.333333333333336,72.5,-46.666666666666664,72.5,-40,72.5C-33.333333333333336,72.5,-26.666666666666668,72.5,-20,72.5C-13.333333333333332,72.5,-6.666666666666667,72.5,0,72.5" style="stroke: rgb(31, 119, 180); stroke-width: 2; fill: none;"/></g><text class="computeSig_label label" text-anchor="end" dx="-5" dy="0.5rem" fill="black" width="200" transform="translate(-180,72.5)">4</text></g><g class="node computeNode h5 statics" transform="translate(210,0)" style="pointer-events: auto;"><g class="computeSig" stroke="black" style="stroke-width: 2;"><path class="linegg timeline hgroup_3" d="M-180,435C-173.33333333333334,435,-166.66666666666666,435,-160,435C-153.33333333333334,435,-146.66666666666666,435,-140,435C-133.33333333333334,435,-126.66666666666667,435,-120,435C-113.33333333333333,435,-106.66666666666667,435,-100,435C-93.33333333333333,435,-86.66666666666667,435,-80,435C-73.33333333333333,435,-66.66666666666667,435,-60,435C-53.333333333333336,435,-46.666666666666664,435,-40,435C-33.333333333333336,435,-26.666666666666668,435,-20,435C-13.333333333333332,435,-6.666666666666667,435,0,435" style="stroke: rgb(44, 160, 44); stroke-width: 2; fill: none;"/></g><text class="computeSig_label label" text-anchor="end" dx="-5" dy="0.5rem" fill="black" width="200" transform="translate(-180,435)">5</text></g><g class="node computeNode h6 statics" transform="translate(210,0)" style="pointer-events: auto;"><g class="computeSig" stroke="black" style="stroke-width: 2;"><path class="linegg timeline hgroup_4" d="M-180,265.83333333333337C-173.33333333333334,265.83333333333337,-166.66666666666666,265.83333333333337,-160,265.83333333333337C-153.33333333333334,265.83333333333337,-146.66666666666666,265.83333333333337,-140,265.83333333333337C-133.33333333333334,265.83333333333337,-126.66666666666667,265.83333333333337,-120,265.83333333333337C-113.33333333333333,265.83333333333337,-106.66666666666667,265.83333333333337,-100,265.83333333333337C-96.66666666666667,265.83333333333337,-93.33333333333333,265.83333333333337,-90,265.83333333333337C-86.66666666666667,265.83333333333337,-83.33333333333333,294.0277777777778,-80,322.22222222222223" style="stroke: rgb(214, 39, 40); stroke-width: 2; fill: none;"/><path class="linegg timeline hgroup_5" d="M-80,322.22222222222223C-73.33333333333333,322.22222222222223,-66.66666666666667,322.22222222222223,-60,322.22222222222223C-53.333333333333336,322.22222222222223,-46.666666666666664,322.22222222222223,-40,322.22222222222223C-33.333333333333336,322.22222222222223,-26.666666666666668,322.22222222222223,-20,322.22222222222223C-13.333333333333332,322.22222222222223,-6.666666666666667,322.22222222222223,0,322.22222222222223" style="stroke: rgb(148, 103, 189); stroke-width: 2; fill: none;"/></g><text class="computeSig_label label" text-anchor="end" dx="-5" dy="0.5rem" fill="black" width="200" transform="translate(-180,265.83333333333337)">6</text></g><g class="node computeNode h7 statics" transform="translate(210,0)" style="pointer-events: auto;"><g class="computeSig" stroke="black" style="stroke-width: 2;"><path class="linegg timeline hgroup_2" d="M-180,48.33333333333333C-176.66666666666666,48.33333333333333,-173.33333333333334,48.33333333333333,-170,48.33333333333333C-166.66666666666666,48.33333333333333,-163.33333333333334,140.97222222222223,-160,233.61111111111114" style="stroke: rgb(255, 127, 14); stroke-width: 2;"/><path class="linegg timeline hgroup_4" d="M-160,233.61111111111114C-153.33333333333334,233.61111111111114,-146.66666666666666,233.61111111111114,-140,233.61111111111114C-133.33333333333334,233.61111111111114,-126.66666666666667,233.61111111111114,-120,233.61111111111114C-113.33333333333333,233.61111111111114,-106.66666666666667,233.61111111111114,-100,233.61111111111114C-93.33333333333333,233.61111111111114,-86.66666666666667,233.61111111111114,-80,233.61111111111114C-73.33333333333333,233.61111111111114,-66.66666666666667,233.61111111111114,-60,233.61111111111114C-53.333333333333336,233.61111111111114,-46.666666666666664,233.61111111111114,-40,233.61111111111114C-33.333333333333336,233.61111111111114,-26.666666666666668,233.61111111111114,-20,233.61111111111114C-13.333333333333332,233.61111111111114,-6.666666666666667,233.61111111111114,0,233.61111111111114" style="stroke: rgb(214, 39, 40); stroke-width: 2; fill: none;"/></g><text class="computeSig_label label" text-anchor="end" dx="-5" dy="0.5rem" fill="black" width="200" transform="translate(-180,48.33333333333333)">7</text></g><g class="node computeNode h8 statics" transform="translate(210,0)" style="pointer-events: auto;"><g class="computeSig" stroke="black" style="stroke-width: 2;"><path class="linegg timeline hgroup_4" d="M-180,193.33333333333331C-176.66666666666666,193.33333333333331,-173.33333333333334,193.33333333333331,-170,193.33333333333331C-166.66666666666666,193.33333333333331,-163.33333333333334,149.02777777777777,-160,104.72222222222221" style="stroke: rgb(214, 39, 40); stroke-width: 2;"/><path class="linegg timeline hgroup_1" d="M-160,104.72222222222221C-153.33333333333334,104.72222222222221,-146.66666666666666,104.72222222222221,-140,104.72222222222221C-133.33333333333334,104.72222222222221,-126.66666666666667,104.72222222222221,-120,104.72222222222221C-113.33333333333333,104.72222222222221,-106.66666666666667,104.72222222222221,-100,104.72222222222221C-96.66666666666667,104.72222222222221,-93.33333333333333,104.72222222222221,-90,104.72222222222221C-86.66666666666667,104.72222222222221,-83.33333333333333,149.02777777777777,-80,193.33333333333331" style="stroke: rgb(31, 119, 180); stroke-width: 2; fill: none;"/><path class="linegg timeline hgroup_4" d="M-80,193.33333333333331C-76.66666666666667,193.33333333333331,-73.33333333333333,193.33333333333331,-70,193.33333333333331C-66.66666666666667,193.33333333333331,-63.333333333333336,149.02777777777777,-60,104.72222222222221" style="stroke: rgb(214, 39, 40); stroke-width: 2;"/><path class="linegg timeline hgroup_1" d="M-60,104.72222222222221C-53.333333333333336,104.72222222222221,-46.666666666666664,104.72222222222221,-40,104.72222222222221C-33.333333333333336,104.72222222222221,-26.666666666666668,104.72222222222221,-20,104.72222222222221C-16.666666666666668,104.72222222222221,-13.333333333333334,104.72222222222221,-10,104.72222222222221C-6.666666666666666,104.72222222222221,-3.3333333333333335,72.5,0,40.27777777777778" style="stroke: rgb(31, 119, 180); stroke-width: 2; fill: none;"/><path class="linegg timeline hgroup_2" d="M0,40.27777777777778Z" style="stroke: rgb(255, 127, 14); stroke-width: 2;"/></g><text class="computeSig_label label" text-anchor="end" dx="-5" dy="0.5rem" fill="black" width="200" transform="translate(-180,193.33333333333331)">8</text></g><g class="node computeNode h9 statics" transform="translate(210,0)" style="pointer-events: auto;"><g class="computeSig" stroke="black" style="stroke-width: 2;"><path class="linegg timeline hgroup_1" d="M-180,56.388888888888886C-176.66666666666666,56.388888888888886,-173.33333333333334,56.388888888888886,-170,56.388888888888886C-166.66666666666666,56.388888888888886,-163.33333333333334,40.27777777777777,-160,24.166666666666664" style="stroke: rgb(31, 119, 180); stroke-width: 2;"/><path class="linegg timeline hgroup_2" d="M-160,24.166666666666657C-153.33333333333334,24.166666666666657,-146.66666666666666,24.166666666666657,-140,24.166666666666657C-133.33333333333334,24.166666666666657,-126.66666666666667,24.166666666666657,-120,24.166666666666657C-113.33333333333333,24.166666666666657,-106.66666666666667,24.166666666666657,-100,24.166666666666657C-93.33333333333333,24.166666666666657,-86.66666666666667,24.166666666666657,-80,24.166666666666657C-73.33333333333333,24.166666666666657,-66.66666666666667,24.166666666666657,-60,24.166666666666657C-53.333333333333336,24.166666666666657,-46.666666666666664,24.166666666666657,-40,24.166666666666657C-33.333333333333336,24.166666666666657,-26.666666666666668,24.166666666666657,-20,24.166666666666657C-13.333333333333332,24.166666666666657,-6.666666666666667,24.166666666666657,0,24.166666666666657" style="stroke: rgb(255, 127, 14); stroke-width: 2; fill: none;"/></g><text class="computeSig_label label" text-anchor="end" dx="-5" dy="0.5rem" fill="black" width="200" transform="translate(-180,56.388888888888886)">9</text></g><g class="node computeNode h10 statics" transform="translate(210,0)" style="pointer-events: auto;"><g class="computeSig" stroke="black" style="stroke-width: 2;"><path class="linegg timeline hgroup_4" d="M-180,290C-173.33333333333334,290,-166.66666666666666,290,-160,290C-156.66666666666666,290,-153.33333333333334,290,-150,290C-146.66666666666666,290,-143.33333333333334,318.19444444444446,-140,346.38888888888886" style="stroke: rgb(214, 39, 40); stroke-width: 2; fill: none;"/><path class="linegg timeline hgroup_5" d="M-140,346.38888888888886C-133.33333333333334,346.38888888888886,-126.66666666666667,346.38888888888886,-120,346.38888888888886C-113.33333333333333,346.38888888888886,-106.66666666666667,346.38888888888886,-100,346.38888888888886C-93.33333333333333,346.38888888888886,-86.66666666666667,346.38888888888886,-80,346.38888888888886C-73.33333333333333,346.38888888888886,-66.66666666666667,346.38888888888886,-60,346.38888888888886C-53.333333333333336,346.38888888888886,-46.666666666666664,346.38888888888886,-40,346.38888888888886C-33.333333333333336,346.38888888888886,-26.666666666666668,346.38888888888886,-20,346.38888888888886C-13.333333333333332,346.38888888888886,-6.666666666666667,346.38888888888886,0,346.38888888888886" style="stroke: rgb(148, 103, 189); stroke-width: 2; fill: none;"/></g><text class="computeSig_label label" text-anchor="end" dx="-5" dy="0.5rem" fill="black" width="200" transform="translate(-180,290)">10</text></g><g class="node computeNode h11 statics" transform="translate(210,0)" style="pointer-events: auto;"><g class="computeSig" stroke="black" style="stroke-width: 2;"><path class="linegg timeline hgroup_1" d="M-180,145C-173.33333333333334,145,-166.66666666666666,145,-160,145C-153.33333333333334,145,-146.66666666666666,145,-140,145C-133.33333333333334,145,-126.66666666666667,145,-120,145C-113.33333333333333,145,-106.66666666666667,145,-100,145C-96.66666666666667,145,-93.33333333333333,145,-90,145C-86.66666666666667,145,-83.33333333333333,225.55555555555557,-80,306.11111111111114" style="stroke: rgb(31, 119, 180); stroke-width: 2; fill: none;"/><path class="linegg timeline hgroup_5" d="M-80,306.11111111111114C-76.66666666666667,306.11111111111114,-73.33333333333333,306.11111111111114,-70,306.11111111111114C-66.66666666666667,306.11111111111114,-63.333333333333336,225.55555555555557,-60,145" style="stroke: rgb(148, 103, 189); stroke-width: 2;"/><path class="linegg timeline hgroup_1" d="M-60,145C-53.333333333333336,145,-46.666666666666664,145,-40,145C-36.666666666666664,145,-33.333333333333336,145,-30,145C-26.666666666666668,145,-23.333333333333332,225.55555555555557,-20,306.11111111111114" style="stroke: rgb(31, 119, 180); stroke-width: 2; fill: none;"/><path class="linegg timeline hgroup_5" d="M-20,306.11111111111114L0,306.11111111111114" style="stroke: rgb(148, 103, 189); stroke-width: 2; fill: none;"/></g><text class="computeSig_label label" text-anchor="end" dx="-5" dy="0.5rem" fill="black" width="200" transform="translate(-180,145)">11</text></g><g class="node computeNode h12 statics" transform="translate(210,0)" style="pointer-events: auto;"><g class="computeSig" stroke="black" style="stroke-width: 2;"><path class="linegg timeline hgroup_1" d="M-180,153.05555555555557C-173.33333333333334,153.05555555555557,-166.66666666666666,153.05555555555557,-160,153.05555555555557C-153.33333333333334,153.05555555555557,-146.66666666666666,153.05555555555557,-140,153.05555555555557C-133.33333333333334,153.05555555555557,-126.66666666666667,153.05555555555557,-120,153.05555555555557C-116.66666666666667,153.05555555555557,-113.33333333333333,153.05555555555557,-110,153.05555555555557C-106.66666666666667,153.05555555555557,-103.33333333333333,189.30555555555554,-100,225.55555555555554" style="stroke: rgb(31, 119, 180); stroke-width: 2; fill: none;"/><path class="linegg timeline hgroup_4" d="M-100,225.55555555555554C-93.33333333333333,225.55555555555554,-86.66666666666667,225.55555555555554,-80,225.55555555555554C-73.33333333333333,225.55555555555554,-66.66666666666667,225.55555555555554,-60,225.55555555555554C-53.333333333333336,225.55555555555554,-46.666666666666664,225.55555555555554,-40,225.55555555555554C-33.333333333333336,225.55555555555554,-26.666666666666668,225.55555555555554,-20,225.55555555555554C-13.333333333333332,225.55555555555554,-6.666666666666667,225.55555555555554,0,225.55555555555554" style="stroke: rgb(214, 39, 40); stroke-width: 2; fill: none;"/></g><text class="computeSig_label label" text-anchor="end" dx="-5" dy="0.5rem" fill="black" width="200" transform="translate(-180,153.05555555555557)">12</text></g><g class="node computeNode h13 statics" transform="translate(210,0)" style="pointer-events: auto;"><g class="computeSig" stroke="black" style="stroke-width: 2;"><path class="linegg timeline hgroup_1" d="M-180,128.88888888888889C-173.33333333333334,128.88888888888889,-166.66666666666666,128.88888888888889,-160,128.88888888888889C-153.33333333333334,128.88888888888889,-146.66666666666666,128.88888888888889,-140,128.88888888888889C-133.33333333333334,128.88888888888889,-126.66666666666667,128.88888888888889,-120,128.88888888888889C-113.33333333333333,128.88888888888889,-106.66666666666667,128.88888888888889,-100,128.88888888888889C-93.33333333333333,128.88888888888889,-86.66666666666667,128.88888888888889,-80,128.88888888888889C-73.33333333333333,128.88888888888889,-66.66666666666667,128.88888888888889,-60,128.88888888888889C-53.333333333333336,128.88888888888889,-46.666666666666664,128.88888888888889,-40,128.88888888888889C-33.333333333333336,128.88888888888889,-26.666666666666668,128.88888888888889,-20,128.88888888888889C-16.666666666666668,128.88888888888889,-13.333333333333334,128.88888888888889,-10,128.88888888888889C-6.666666666666666,128.88888888888889,-3.3333333333333335,257.77777777777777,0,386.66666666666663" style="stroke: rgb(31, 119, 180); stroke-width: 2; fill: none;"/><path class="linegg timeline hgroup_3" d="M0,386.66666666666663Z" style="stroke: rgb(44, 160, 44); stroke-width: 2;"/></g><text class="computeSig_label label" text-anchor="end" dx="-5" dy="0.5rem" fill="black" width="200" transform="translate(-180,128.88888888888889)">13</text></g><g class="node computeNode h14 statics" transform="translate(210,0)" style="pointer-events: auto;"><g class="computeSig" stroke="black" style="stroke-width: 2;"><path class="linegg timeline hgroup_2" d="M-180,32.22222222222222C-176.66666666666666,32.22222222222222,-173.33333333333334,32.22222222222222,-170,32.22222222222222C-166.66666666666666,32.22222222222222,-163.33333333333334,56.388888888888886,-160,80.55555555555556" style="stroke: rgb(255, 127, 14); stroke-width: 2;"/><path class="linegg timeline hgroup_1" d="M-160,80.55555555555556C-153.33333333333334,80.55555555555556,-146.66666666666666,80.55555555555556,-140,80.55555555555556C-133.33333333333334,80.55555555555556,-126.66666666666667,80.55555555555556,-120,80.55555555555556C-113.33333333333333,80.55555555555556,-106.66666666666667,80.55555555555556,-100,80.55555555555556C-93.33333333333333,80.55555555555556,-86.66666666666667,80.55555555555556,-80,80.55555555555556C-73.33333333333333,80.55555555555556,-66.66666666666667,80.55555555555556,-60,80.55555555555556C-53.333333333333336,80.55555555555556,-46.666666666666664,80.55555555555556,-40,80.55555555555556C-33.333333333333336,80.55555555555556,-26.666666666666668,80.55555555555556,-20,80.55555555555556C-16.666666666666668,80.55555555555556,-13.333333333333334,80.55555555555556,-10,80.55555555555556C-6.666666666666666,80.55555555555556,-3.3333333333333335,132.91666666666666,0,185.27777777777777" style="stroke: rgb(31, 119, 180); stroke-width: 2; fill: none;"/><path class="linegg timeline hgroup_4" d="M0,185.27777777777777Z" style="stroke: rgb(214, 39, 40); stroke-width: 2;"/></g><text class="computeSig_label label" text-anchor="end" dx="-5" dy="0.5rem" fill="black" width="200" transform="translate(-180,32.22222222222222)">14</text></g><g class="node computeNode h15 statics" transform="translate(210,0)" style="pointer-events: auto;"><g class="computeSig" stroke="black" style="stroke-width: 2;"><path class="linegg timeline hgroup_4" d="M-180,273.8888888888889C-173.33333333333334,273.8888888888889,-166.66666666666666,273.8888888888889,-160,273.8888888888889C-153.33333333333334,273.8888888888889,-146.66666666666666,273.8888888888889,-140,273.8888888888889C-133.33333333333334,273.8888888888889,-126.66666666666667,273.8888888888889,-120,273.8888888888889C-113.33333333333333,273.8888888888889,-106.66666666666667,273.8888888888889,-100,273.8888888888889C-96.66666666666667,273.8888888888889,-93.33333333333333,273.8888888888889,-90,273.8888888888889C-86.66666666666667,273.8888888888889,-83.33333333333333,302.08333333333337,-80,330.27777777777777" style="stroke: rgb(214, 39, 40); stroke-width: 2; fill: none;"/><path class="linegg timeline hgroup_5" d="M-80,330.27777777777777C-73.33333333333333,330.27777777777777,-66.66666666666667,330.27777777777777,-60,330.27777777777777C-53.333333333333336,330.27777777777777,-46.666666666666664,330.27777777777777,-40,330.27777777777777C-33.333333333333336,330.27777777777777,-26.666666666666668,330.27777777777777,-20,330.27777777777777C-13.333333333333332,330.27777777777777,-6.666666666666667,330.27777777777777,0,330.27777777777777" style="stroke: rgb(148, 103, 189); stroke-width: 2; fill: none;"/></g><text class="computeSig_label label" text-anchor="end" dx="-5" dy="0.5rem" fill="black" width="200" transform="translate(-180,273.8888888888889)">15</text></g><g class="node computeNode h16 statics" transform="translate(210,0)" style="pointer-events: auto;"><g class="computeSig" stroke="black" style="stroke-width: 2;"><path class="linegg timeline hgroup_5" d="M-180,370.55555555555554C-173.33333333333334,370.55555555555554,-166.66666666666666,370.55555555555554,-160,370.55555555555554C-153.33333333333334,370.55555555555554,-146.66666666666666,370.55555555555554,-140,370.55555555555554C-133.33333333333334,370.55555555555554,-126.66666666666667,370.55555555555554,-120,370.55555555555554C-113.33333333333333,370.55555555555554,-106.66666666666667,370.55555555555554,-100,370.55555555555554C-96.66666666666667,370.55555555555554,-93.33333333333333,370.55555555555554,-90,370.55555555555554C-86.66666666666667,370.55555555555554,-83.33333333333333,394.7222222222222,-80,418.88888888888886" style="stroke: rgb(148, 103, 189); stroke-width: 2; fill: none;"/><path class="linegg timeline hgroup_3" d="M-80,418.88888888888886C-73.33333333333333,418.88888888888886,-66.66666666666667,418.88888888888886,-60,418.88888888888886C-53.333333333333336,418.88888888888886,-46.666666666666664,418.88888888888886,-40,418.88888888888886C-36.666666666666664,418.88888888888886,-33.333333333333336,418.88888888888886,-30,418.88888888888886C-26.666666666666668,418.88888888888886,-23.333333333333332,394.7222222222222,-20,370.55555555555554" style="stroke: rgb(44, 160, 44); stroke-width: 2; fill: none;"/><path class="linegg timeline hgroup_5" d="M-20,370.55555555555554L0,370.55555555555554" style="stroke: rgb(148, 103, 189); stroke-width: 2; fill: none;"/></g><text class="computeSig_label label" text-anchor="end" dx="-5" dy="0.5rem" fill="black" width="200" transform="translate(-180,370.55555555555554)">16</text></g><g class="node computeNode h17 statics" transform="translate(210,0)" style="pointer-events: auto;"><g class="computeSig" stroke="black" style="stroke-width: 2;"><path class="linegg timeline hgroup_4" d="M-180,209.44444444444443C-173.33333333333334,209.44444444444443,-166.66666666666666,209.44444444444443,-160,209.44444444444443C-156.66666666666666,209.44444444444443,-153.33333333333334,209.44444444444443,-150,209.44444444444443C-146.66666666666666,209.44444444444443,-143.33333333333334,165.13888888888889,-140,120.83333333333334" style="stroke: rgb(214, 39, 40); stroke-width: 2; fill: none;"/><path class="linegg timeline hgroup_1" d="M-140,120.83333333333334C-133.33333333333334,120.83333333333334,-126.66666666666667,120.83333333333334,-120,120.83333333333334C-113.33333333333333,120.83333333333334,-106.66666666666667,120.83333333333334,-100,120.83333333333334C-93.33333333333333,120.83333333333334,-86.66666666666667,120.83333333333334,-80,120.83333333333334C-73.33333333333333,120.83333333333334,-66.66666666666667,120.83333333333334,-60,120.83333333333334C-53.333333333333336,120.83333333333334,-46.666666666666664,120.83333333333334,-40,120.83333333333334C-33.333333333333336,120.83333333333334,-26.666666666666668,120.83333333333334,-20,120.83333333333334C-13.333333333333332,120.83333333333334,-6.666666666666667,120.83333333333334,0,120.83333333333334" style="stroke: rgb(31, 119, 180); stroke-width: 2; fill: none;"/></g><text class="computeSig_label label" text-anchor="end" dx="-5" dy="0.5rem" fill="black" width="200" transform="translate(-180,209.44444444444443)">17</text></g><g class="node computeNode h18 statics" transform="translate(210,0)" style="pointer-events: auto;"><g class="computeSig" stroke="black" style="stroke-width: 2;"><path class="linegg timeline hgroup_1" d="M-180,161.11111111111111C-173.33333333333334,161.11111111111111,-166.66666666666666,161.11111111111111,-160,161.11111111111111C-153.33333333333334,161.11111111111111,-146.66666666666666,161.11111111111111,-140,161.11111111111111C-133.33333333333334,161.11111111111111,-126.66666666666667,161.11111111111111,-120,161.11111111111111C-113.33333333333333,161.11111111111111,-106.66666666666667,161.11111111111111,-100,161.11111111111111C-96.66666666666667,161.11111111111111,-93.33333333333333,161.11111111111111,-90,161.11111111111111C-86.66666666666667,161.11111111111111,-83.33333333333333,237.6388888888889,-80,314.1666666666667" style="stroke: rgb(31, 119, 180); stroke-width: 2; fill: none;"/><path class="linegg timeline hgroup_5" d="M-80,314.1666666666667C-73.33333333333333,314.1666666666667,-66.66666666666667,314.1666666666667,-60,314.1666666666667C-56.666666666666664,314.1666666666667,-53.333333333333336,314.1666666666667,-50,314.1666666666667C-46.666666666666664,314.1666666666667,-43.333333333333336,354.44444444444446,-40,394.72222222222223" style="stroke: rgb(148, 103, 189); stroke-width: 2; fill: none;"/><path class="linegg timeline hgroup_3" d="M-40,394.72222222222223C-33.333333333333336,394.72222222222223,-26.666666666666668,394.72222222222223,-20,394.72222222222223C-13.333333333333332,394.72222222222223,-6.666666666666667,394.72222222222223,0,394.72222222222223" style="stroke: rgb(44, 160, 44); stroke-width: 2; fill: none;"/></g><text class="computeSig_label label" text-anchor="end" dx="-5" dy="0.5rem" fill="black" width="200" transform="translate(-180,161.11111111111111)">18</text></g><g class="node computeNode h19 statics" transform="translate(210,0)" style="pointer-events: auto;"><g class="computeSig" stroke="black" style="stroke-width: 2;"><path class="linegg timeline hgroup_4" d="M-180,241.66666666666669C-173.33333333333334,241.66666666666669,-166.66666666666666,241.66666666666669,-160,241.66666666666669C-153.33333333333334,241.66666666666669,-146.66666666666666,241.66666666666669,-140,241.66666666666669C-133.33333333333334,241.66666666666669,-126.66666666666667,241.66666666666669,-120,241.66666666666669C-113.33333333333333,241.66666666666669,-106.66666666666667,241.66666666666669,-100,241.66666666666669C-93.33333333333333,241.66666666666669,-86.66666666666667,241.66666666666669,-80,241.66666666666669C-73.33333333333333,241.66666666666669,-66.66666666666667,241.66666666666669,-60,241.66666666666669C-53.333333333333336,241.66666666666669,-46.666666666666664,241.66666666666669,-40,241.66666666666669C-33.333333333333336,241.66666666666669,-26.666666666666668,241.66666666666669,-20,241.66666666666669C-13.333333333333332,241.66666666666669,-6.666666666666667,241.66666666666669,0,241.66666666666669" style="stroke: rgb(214, 39, 40); stroke-width: 2; fill: none;"/></g><text class="computeSig_label label" text-anchor="end" dx="-5" dy="0.5rem" fill="black" width="200" transform="translate(-180,241.66666666666669)">19</text></g><g class="node computeNode h20 statics" transform="translate(210,0)" style="pointer-events: auto;"><g class="computeSig" stroke="black" style="stroke-width: 2;"><path class="linegg timeline hgroup_3" d="M-180,426.94444444444446C-173.33333333333334,426.94444444444446,-166.66666666666666,426.94444444444446,-160,426.94444444444446C-153.33333333333334,426.94444444444446,-146.66666666666666,426.94444444444446,-140,426.94444444444446C-133.33333333333334,426.94444444444446,-126.66666666666667,426.94444444444446,-120,426.94444444444446C-113.33333333333333,426.94444444444446,-106.66666666666667,426.94444444444446,-100,426.94444444444446C-96.66666666666667,426.94444444444446,-93.33333333333333,426.94444444444446,-90,426.94444444444446C-86.66666666666667,426.94444444444446,-83.33333333333333,402.77777777777777,-80,378.6111111111111" style="stroke: rgb(44, 160, 44); stroke-width: 2; fill: none;"/><path class="linegg timeline hgroup_5" d="M-80,378.6111111111111C-73.33333333333333,378.6111111111111,-66.66666666666667,378.6111111111111,-60,378.6111111111111C-53.333333333333336,378.6111111111111,-46.666666666666664,378.6111111111111,-40,378.6111111111111C-33.333333333333336,378.6111111111111,-26.666666666666668,378.6111111111111,-20,378.6111111111111C-13.333333333333332,378.6111111111111,-6.666666666666667,378.6111111111111,0,378.6111111111111" style="stroke: rgb(148, 103, 189); stroke-width: 2; fill: none;"/></g><text class="computeSig_label label" text-anchor="end" dx="-5" dy="0.5rem" fill="black" width="200" transform="translate(-180,426.94444444444446)">20</text></g><g class="node computeNode h21 statics" transform="translate(210,0)" style="pointer-events: auto;"><g class="computeSig" stroke="black" style="stroke-width: 2;"><path class="linegg timeline hgroup_5" d="M-180,354.4444444444444C-173.33333333333334,354.4444444444444,-166.66666666666666,354.4444444444444,-160,354.4444444444444C-153.33333333333334,354.4444444444444,-146.66666666666666,354.4444444444444,-140,354.4444444444444C-133.33333333333334,354.4444444444444,-126.66666666666667,354.4444444444444,-120,354.4444444444444C-113.33333333333333,354.4444444444444,-106.66666666666667,354.4444444444444,-100,354.4444444444444C-93.33333333333333,354.4444444444444,-86.66666666666667,354.4444444444444,-80,354.4444444444444C-73.33333333333333,354.4444444444444,-66.66666666666667,354.4444444444444,-60,354.4444444444444C-53.333333333333336,354.4444444444444,-46.666666666666664,354.4444444444444,-40,354.4444444444444C-33.333333333333336,354.4444444444444,-26.666666666666668,354.4444444444444,-20,354.4444444444444C-13.333333333333332,354.4444444444444,-6.666666666666667,354.4444444444444,0,354.4444444444444" style="stroke: rgb(148, 103, 189); stroke-width: 2; fill: none;"/></g><text class="computeSig_label label" text-anchor="end" dx="-5" dy="0.5rem" fill="black" width="200" transform="translate(-180,354.4444444444444)">21</text></g><g class="node computeNode h22 statics" transform="translate(210,0)" style="pointer-events: auto;"><g class="computeSig" stroke="black" style="stroke-width: 2;"><path class="linegg timeline hgroup_1" d="M-180,88.61111111111109C-173.33333333333334,88.61111111111109,-166.66666666666666,88.61111111111109,-160,88.61111111111109C-153.33333333333334,88.61111111111109,-146.66666666666666,88.61111111111109,-140,88.61111111111109C-133.33333333333334,88.61111111111109,-126.66666666666667,88.61111111111109,-120,88.61111111111109C-113.33333333333333,88.61111111111109,-106.66666666666667,88.61111111111109,-100,88.61111111111109C-93.33333333333333,88.61111111111109,-86.66666666666667,88.61111111111109,-80,88.61111111111109C-73.33333333333333,88.61111111111109,-66.66666666666667,88.61111111111109,-60,88.61111111111109C-53.333333333333336,88.61111111111109,-46.666666666666664,88.61111111111109,-40,88.61111111111109C-33.333333333333336,88.61111111111109,-26.666666666666668,88.61111111111109,-20,88.61111111111109C-13.333333333333332,88.61111111111109,-6.666666666666667,88.61111111111109,0,88.61111111111109" style="stroke: rgb(31, 119, 180); stroke-width: 2; fill: none;"/></g><text class="computeSig_label label" text-anchor="end" dx="-5" dy="0.5rem" fill="black" width="200" transform="translate(-180,88.6111111111111)">22</text></g><g class="node computeNode h23 statics" transform="translate(210,0)" style="pointer-events: auto;"><g class="computeSig" stroke="black" style="stroke-width: 2;"><path class="linegg timeline hgroup_5" d="M-180,362.5C-173.33333333333334,362.5,-166.66666666666666,362.5,-160,362.5C-153.33333333333334,362.5,-146.66666666666666,362.5,-140,362.5C-133.33333333333334,362.5,-126.66666666666667,362.5,-120,362.5C-113.33333333333333,362.5,-106.66666666666667,362.5,-100,362.5C-93.33333333333333,362.5,-86.66666666666667,362.5,-80,362.5C-73.33333333333333,362.5,-66.66666666666667,362.5,-60,362.5C-53.333333333333336,362.5,-46.666666666666664,362.5,-40,362.5C-33.333333333333336,362.5,-26.666666666666668,362.5,-20,362.5C-13.333333333333332,362.5,-6.666666666666667,362.5,0,362.5" style="stroke: rgb(148, 103, 189); stroke-width: 2; fill: none;"/></g><text class="computeSig_label label" text-anchor="end" dx="-5" dy="0.5rem" fill="black" width="200" transform="translate(-180,362.5)">23</text></g><g class="node computeNode h24 statics" transform="translate(210,0)" style="pointer-events: auto;"><g class="computeSig" stroke="black" style="stroke-width: 2;"><path class="linegg timeline hgroup_1" d="M-180,96.66666666666666C-173.33333333333334,96.66666666666666,-166.66666666666666,96.66666666666666,-160,96.66666666666666C-153.33333333333334,96.66666666666666,-146.66666666666666,96.66666666666666,-140,96.66666666666666C-133.33333333333334,96.66666666666666,-126.66666666666667,96.66666666666666,-120,96.66666666666666C-113.33333333333333,96.66666666666666,-106.66666666666667,96.66666666666666,-100,96.66666666666666C-93.33333333333333,96.66666666666666,-86.66666666666667,96.66666666666666,-80,96.66666666666666C-73.33333333333333,96.66666666666666,-66.66666666666667,96.66666666666666,-60,96.66666666666666C-53.333333333333336,96.66666666666666,-46.666666666666664,96.66666666666666,-40,96.66666666666666C-33.333333333333336,96.66666666666666,-26.666666666666668,96.66666666666666,-20,96.66666666666666C-13.333333333333332,96.66666666666666,-6.666666666666667,96.66666666666666,0,96.66666666666666" style="stroke: rgb(31, 119, 180); stroke-width: 2; fill: none;"/></g><text class="computeSig_label label" text-anchor="end" dx="-5" dy="0.5rem" fill="black" width="200" transform="translate(-180,96.66666666666666)">24</text></g><g class="node computeNode h25 statics" transform="translate(210,0)" style="pointer-events: auto;"><g class="computeSig" stroke="black" style="stroke-width: 2;"><path class="linegg timeline hgroup_3" d="M-180,402.77777777777777C-173.33333333333334,402.77777777777777,-166.66666666666666,402.77777777777777,-160,402.77777777777777C-153.33333333333334,402.77777777777777,-146.66666666666666,402.77777777777777,-140,402.77777777777777C-133.33333333333334,402.77777777777777,-126.66666666666667,402.77777777777777,-120,402.77777777777777C-113.33333333333333,402.77777777777777,-106.66666666666667,402.77777777777777,-100,402.77777777777777C-96.66666666666667,402.77777777777777,-93.33333333333333,402.77777777777777,-90,402.77777777777777C-86.66666666666667,402.77777777777777,-83.33333333333333,285.97222222222223,-80,169.16666666666666" style="stroke: rgb(44, 160, 44); stroke-width: 2; fill: none;"/><path class="linegg timeline hgroup_1" d="M-80,169.16666666666666C-73.33333333333333,169.16666666666666,-66.66666666666667,169.16666666666666,-60,169.16666666666666C-53.333333333333336,169.16666666666666,-46.666666666666664,169.16666666666666,-40,169.16666666666666C-33.333333333333336,169.16666666666666,-26.666666666666668,169.16666666666666,-20,169.16666666666666C-13.333333333333332,169.16666666666666,-6.666666666666667,169.16666666666666,0,169.16666666666666" style="stroke: rgb(31, 119, 180); stroke-width: 2; fill: none;"/></g><text class="computeSig_label label" text-anchor="end" dx="-5" dy="0.5rem" fill="black" width="200" transform="translate(-180,402.77777777777777)">25</text></g><g class="node computeNode h26 statics" transform="translate(210,0)" style="pointer-events: auto;"><g class="computeSig" stroke="black" style="stroke-width: 2;"><path class="linegg timeline hgroup_1" d="M-180,112.77777777777777C-173.33333333333334,112.77777777777777,-166.66666666666666,112.77777777777777,-160,112.77777777777777C-156.66666666666666,112.77777777777777,-153.33333333333334,112.77777777777777,-150,112.77777777777777C-146.66666666666666,112.77777777777777,-143.33333333333334,157.08333333333331,-140,201.38888888888889" style="stroke: rgb(31, 119, 180); stroke-width: 2; fill: none;"/><path class="linegg timeline hgroup_4" d="M-140,201.38888888888889C-136.66666666666666,201.38888888888889,-133.33333333333334,201.38888888888889,-130,201.38888888888889C-126.66666666666667,201.38888888888889,-123.33333333333333,157.08333333333334,-120,112.77777777777777" style="stroke: rgb(214, 39, 40); stroke-width: 2;"/><path class="linegg timeline hgroup_1" d="M-120,112.77777777777777C-113.33333333333333,112.77777777777777,-106.66666666666667,112.77777777777777,-100,112.77777777777777C-93.33333333333333,112.77777777777777,-86.66666666666667,112.77777777777777,-80,112.77777777777777C-73.33333333333333,112.77777777777777,-66.66666666666667,112.77777777777777,-60,112.77777777777777C-53.333333333333336,112.77777777777777,-46.666666666666664,112.77777777777777,-40,112.77777777777777C-33.333333333333336,112.77777777777777,-26.666666666666668,112.77777777777777,-20,112.77777777777777C-13.333333333333332,112.77777777777777,-6.666666666666667,112.77777777777777,0,112.77777777777777" style="stroke: rgb(31, 119, 180); stroke-width: 2; fill: none;"/></g><text class="computeSig_label label" text-anchor="end" dx="-5" dy="0.5rem" fill="black" width="200" transform="translate(-180,112.77777777777777)">26</text></g><g class="node computeNode h27 statics" transform="translate(210,0)" style="pointer-events: auto;"><g class="computeSig" stroke="black" style="stroke-width: 2;"><path class="linegg timeline hgroup_4" d="M-180,249.72222222222223C-173.33333333333334,249.72222222222223,-166.66666666666666,249.72222222222223,-160,249.72222222222223C-153.33333333333334,249.72222222222223,-146.66666666666666,249.72222222222223,-140,249.72222222222223C-133.33333333333334,249.72222222222223,-126.66666666666667,249.72222222222223,-120,249.72222222222223C-113.33333333333333,249.72222222222223,-106.66666666666667,249.72222222222223,-100,249.72222222222223C-93.33333333333333,249.72222222222223,-86.66666666666667,249.72222222222223,-80,249.72222222222223C-73.33333333333333,249.72222222222223,-66.66666666666667,249.72222222222223,-60,249.72222222222223C-53.333333333333336,249.72222222222223,-46.666666666666664,249.72222222222223,-40,249.72222222222223C-33.333333333333336,249.72222222222223,-26.666666666666668,249.72222222222223,-20,249.72222222222223C-13.333333333333332,249.72222222222223,-6.666666666666667,249.72222222222223,0,249.72222222222223" style="stroke: rgb(214, 39, 40); stroke-width: 2; fill: none;"/></g><text class="computeSig_label label" text-anchor="end" dx="-5" dy="0.5rem" fill="black" width="200" transform="translate(-180,249.72222222222223)">27</text></g><g class="node computeNode h28 statics" transform="translate(210,0)" style="pointer-events: auto;"><g class="computeSig" stroke="black" style="stroke-width: 2;"><path class="linegg timeline hgroup_4" d="M-180,257.77777777777777C-173.33333333333334,257.77777777777777,-166.66666666666666,257.77777777777777,-160,257.77777777777777C-153.33333333333334,257.77777777777777,-146.66666666666666,257.77777777777777,-140,257.77777777777777C-133.33333333333334,257.77777777777777,-126.66666666666667,257.77777777777777,-120,257.77777777777777C-113.33333333333333,257.77777777777777,-106.66666666666667,257.77777777777777,-100,257.77777777777777C-93.33333333333333,257.77777777777777,-86.66666666666667,257.77777777777777,-80,257.77777777777777C-73.33333333333333,257.77777777777777,-66.66666666666667,257.77777777777777,-60,257.77777777777777C-53.333333333333336,257.77777777777777,-46.666666666666664,257.77777777777777,-40,257.77777777777777C-33.333333333333336,257.77777777777777,-26.666666666666668,257.77777777777777,-20,257.77777777777777C-13.333333333333332,257.77777777777777,-6.666666666666667,257.77777777777777,0,257.77777777777777" style="stroke: rgb(214, 39, 40); stroke-width: 2; fill: none;"/></g><text class="computeSig_label label" text-anchor="end" dx="-5" dy="0.5rem" fill="black" width="200" transform="translate(-180,257.77777777777777)">28</text></g><g class="node computeNode h29 statics" transform="translate(210,0)" style="pointer-events: auto;"><g class="computeSig" stroke="black" style="stroke-width: 2;"><path class="linegg timeline hgroup_4" d="M-180,281.94444444444446C-176.66666666666666,281.94444444444446,-173.33333333333334,281.94444444444446,-170,281.94444444444446C-166.66666666666666,281.94444444444446,-163.33333333333334,229.58333333333331,-160,177.2222222222222" style="stroke: rgb(214, 39, 40); stroke-width: 2;"/><path class="linegg timeline hgroup_1" d="M-160,177.2222222222222C-156.66666666666666,177.2222222222222,-153.33333333333334,177.2222222222222,-150,177.2222222222222C-146.66666666666666,177.2222222222222,-143.33333333333334,294.0277777777777,-140,410.8333333333333" style="stroke: rgb(31, 119, 180); stroke-width: 2;"/><path class="linegg timeline hgroup_3" d="M-140,410.8333333333333C-136.66666666666666,410.8333333333333,-133.33333333333334,410.8333333333333,-130,410.8333333333333C-126.66666666666667,410.8333333333333,-123.33333333333333,346.3888888888889,-120,281.94444444444446" style="stroke: rgb(44, 160, 44); stroke-width: 2;"/><path class="linegg timeline hgroup_4" d="M-120,281.94444444444446C-113.33333333333333,281.94444444444446,-106.66666666666667,281.94444444444446,-100,281.94444444444446C-96.66666666666667,281.94444444444446,-93.33333333333333,281.94444444444446,-90,281.94444444444446C-86.66666666666667,281.94444444444446,-83.33333333333333,310.1388888888889,-80,338.3333333333333" style="stroke: rgb(214, 39, 40); stroke-width: 2; fill: none;"/><path class="linegg timeline hgroup_5" d="M-80,338.3333333333333C-73.33333333333333,338.3333333333333,-66.66666666666667,338.3333333333333,-60,338.3333333333333C-53.333333333333336,338.3333333333333,-46.666666666666664,338.3333333333333,-40,338.3333333333333C-33.333333333333336,338.3333333333333,-26.666666666666668,338.3333333333333,-20,338.3333333333333C-13.333333333333332,338.3333333333333,-6.666666666666667,338.3333333333333,0,338.3333333333333" style="stroke: rgb(148, 103, 189); stroke-width: 2; fill: none;"/></g><text class="computeSig_label label" text-anchor="end" dx="-5" dy="0.5rem" fill="black" width="200" transform="translate(-180,281.94444444444446)">29</text></g><g class="node computeNode h30 statics" transform="translate(210,0)" style="pointer-events: auto;"><g class="computeSig" stroke="black" style="stroke-width: 2;"><path class="linegg timeline hgroup_4" d="M-180,217.5C-173.33333333333334,217.5,-166.66666666666666,217.5,-160,217.5C-153.33333333333334,217.5,-146.66666666666666,217.5,-140,217.5C-133.33333333333334,217.5,-126.66666666666667,217.5,-120,217.5C-113.33333333333333,217.5,-106.66666666666667,217.5,-100,217.5C-96.66666666666667,217.5,-93.33333333333333,217.5,-90,217.5C-86.66666666666667,217.5,-83.33333333333333,177.22222222222223,-80,136.94444444444446" style="stroke: rgb(214, 39, 40); stroke-width: 2; fill: none;"/><path class="linegg timeline hgroup_1" d="M-80,136.94444444444446C-73.33333333333333,136.94444444444446,-66.66666666666667,136.94444444444446,-60,136.94444444444446C-53.333333333333336,136.94444444444446,-46.666666666666664,136.94444444444446,-40,136.94444444444446C-33.333333333333336,136.94444444444446,-26.666666666666668,136.94444444444446,-20,136.94444444444446C-13.333333333333332,136.94444444444446,-6.666666666666667,136.94444444444446,0,136.94444444444446" style="stroke: rgb(31, 119, 180); stroke-width: 2; fill: none;"/></g><text class="computeSig_label label" text-anchor="end" dx="-5" dy="0.5rem" fill="black" width="200" transform="translate(-180,217.5)">30</text></g></g><rect class="fisheyeLayer" style="opacity: 0; pointer-events: none;" width="180" height="480" transform="translate(120,0)"/><g class="table header" transform="translate(600,0)"><g class="back"><path style="fill: rgb(221, 221, 221);"/></g></g></g><g class="timebox hide" transform="translate(40,20)" dy="1rem" style="font-size: 16px;"/><circle id="tipfollowscursor"/></svg>