<svg id="jobmap" width="300" height="550" style="fill: none; font-size: 10px; font-family: sans-serif;" xmlns="http://www.w3.org/2000/svg" xmlns:xlink="http://www.w3.org/1999/xlink">

                    <defs id="defsmain"><pattern id="userpic" width="100%" height="100%" patternContentUnits="objectBoundingBox"><image height="1" width="1" preserveAspectRatio="none" xmlns:xlink="http://www.w3.org/1999/xlink" xlink:href="src/images/u.png"/></pattern><marker id="arrow" markerWidth="10" markerHeight="10" refX="0" refY="3" orient="auto" markerUnits="strokeWidth"><path d="M0,0 L0,6 L9,3 z" style="fill: black;"/></marker></defs><rect class="pantarget" opacity="0" width="1336" height="762"/><g class="pannel" transform="translate(50,50)"><text class="Time" text-anchor="middle" x="40" dy="-30" style="font-weight: bold; fill: black;">Time</text><line x1="60" x2="95" y1="-33" y2="-33" marker-end="url(#arrow)" style="stroke: black;"/><text class="Time" text-anchor="middle" x="-5" dy="-1rem" style="font-weight: bold; fill: black;">Instance</text><line x1="5" x2="5" y1="-5" y2="30" marker-end="url(#arrow)" style="stroke: black;"/><g class="gNodeaxis" transform="translate(210,-10)"><g class="gMainaxis" fill="none" font-size="10" font-family="sans-serif" text-anchor="middle"><g class="tick" opacity="1" transform="translate(-180, 0)"><line stroke="#000" y2="445" vector-effect="non-scaling-stroke" style="stroke-width: 0.1; stroke: black; stroke-dasharray: 1, 2; opacity: 0.5;"/><text fill="#000" y="-3" dy="-0.5rem">1</text></g><g class="tick" opacity="1" transform="translate(-160, 0)"><line stroke="#000" y2="445" vector-effect="non-scaling-stroke" style="stroke-width: 0.1; stroke: black; stroke-dasharray: 1, 2; opacity: 0.5;"/><text fill="#000" y="-3" dy="-0.5rem">2</text></g><g class="tick" opacity="1" transform="translate(-140, 0)"><line stroke="#000" y2="445" vector-effect="non-scaling-stroke" style="stroke-width: 0.1; stroke: black; stroke-dasharray: 1, 2; opacity: 0.5;"/><text fill="#000" y="-3" dy="-0.5rem">3</text></g><g class="tick" opacity="1" transform="translate(-120, 0)"><line stroke="#000" y2="445" vector-effect="non-scaling-stroke" style="stroke-width: 0.1; stroke: black; stroke-dasharray: 1, 2; opacity: 0.5;"/><text fill="#000" y="-3" dy="-0.5rem">4</text></g><g class="tick" opacity="1" transform="translate(-100, 0)"><line stroke="#000" y2="445" vector-effect="non-scaling-stroke" style="stroke-width: 0.1; stroke: black; stroke-dasharray: 1, 2; opacity: 0.5;"/><text fill="#000" y="-3" dy="-0.5rem">5</text></g><g class="tick" opacity="1" transform="translate(-80, 0)"><line stroke="#000" y2="445" vector-effect="non-scaling-stroke" style="stroke-width: 0.1; stroke: black; stroke-dasharray: 1, 2; opacity: 0.5;"/><text fill="#000" y="-3" dy="-0.5rem">6</text></g><g class="tick" opacity="1" transform="translate(-60, 0)"><line stroke="#000" y2="445" vector-effect="non-scaling-stroke" style="stroke-width: 0.1; stroke: black; stroke-dasharray: 1, 2; opacity: 0.5;"/><text fill="#000" y="-3" dy="-0.5rem">7</text></g><g class="tick" opacity="1" transform="translate(-40, 0)"><line stroke="#000" y2="445" vector-effect="non-scaling-stroke" style="stroke-width: 0.1; stroke: black; stroke-dasharray: 1, 2; opacity: 0.5;"/><text fill="#000" y="-3" dy="-0.5rem">8</text></g><g class="tick" opacity="1" transform="translate(-20, 0)"><line stroke="#000" y2="445" vector-effect="non-scaling-stroke" style="stroke-width: 0.1; stroke: black; stroke-dasharray: 1, 2; opacity: 0.5;"/><text fill="#000" y="-3" dy="-0.5rem">9</text></g><g class="tick" opacity="1" transform=""><line stroke="#000" y2="445" vector-effect="non-scaling-stroke" style="stroke-width: 0.1; stroke: black; stroke-dasharray: 1, 2; opacity: 0.5;"/><text fill="#000" y="-3" dy="-0.5rem">10</text></g></g><g class="gSubaxis hide"/></g><g class="annotation"/><g class="linkg"><g class="links" style="display: none;"><path stroke="black" style="stroke-width: 2;"/><text text-anchor="middle">1</text></g><g class="links" style="display: none;"><path stroke="black" style="stroke-width: 2;"/><text text-anchor="middle">1</text></g><g class="links" style="display: none;"><path stroke="black" style="stroke-width: 2;"/><text text-anchor="middle">1</text></g><g class="links" style="display: none;"><path stroke="black" style="stroke-width: 2;"/><text text-anchor="middle">1</text></g><g class="links" style="display: none;"><path stroke="black" style="stroke-width: 2;"/><text text-anchor="middle">1</text></g><g class="links" style="display: none;"><path stroke="black" style="stroke-width: 2;"/><text text-anchor="middle">1</text></g><g class="links" style="display: none;"><path stroke="black" style="stroke-width: 2;"/><text text-anchor="middle">1</text></g><g class="links" style="display: none;"><path stroke="black" style="stroke-width: 2;"/><text text-anchor="middle">1</text></g><g class="links" style="display: none;"><path stroke="black" style="stroke-width: 2;"/><text text-anchor="middle">1</text></g><g class="links" style="display: none;"><path stroke="black" style="stroke-width: 2;"/><text text-anchor="middle">1</text></g><g class="links" style="display: none;"><path stroke="black" style="stroke-width: 2;"/><text text-anchor="middle">1</text></g><g class="links" style="display: none;"><path stroke="black" style="stroke-width: 2;"/><text text-anchor="middle">1</text></g><g class="links" style="display: none;"><path stroke="black" style="stroke-width: 2;"/><text text-anchor="middle">1</text></g><g class="links" style="display: none;"><path stroke="black" style="stroke-width: 2;"/><text text-anchor="middle">1</text></g><g class="links" style="display: none;"><path stroke="black" style="stroke-width: 2;"/><text text-anchor="middle">1</text></g><g class="links" style="display: none;"><path stroke="black" style="stroke-width: 2;"/><text text-anchor="middle">1</text></g><g class="links" style="display: none;"><path stroke="black" style="stroke-width: 2;"/><text text-anchor="middle">1</text></g><g class="links" style="display: none;"><path stroke="black" style="stroke-width: 2;"/><text text-anchor="middle">1</text></g><g class="links" style="display: none;"><path stroke="black" style="stroke-width: 2;"/><text text-anchor="middle">1</text></g><g class="links" style="display: none;"><path stroke="black" style="stroke-width: 2;"/><text text-anchor="middle">1</text></g><g class="links" style="display: none;"><path stroke="black" style="stroke-width: 2;"/><text text-anchor="middle">1</text></g><g class="links" style="display: none;"><path stroke="black" style="stroke-width: 2;"/><text text-anchor="middle">1</text></g><g class="links" style="display: none;"><path stroke="black" style="stroke-width: 2;"/><text text-anchor="middle">1</text></g><g class="links" style="display: none;"><path stroke="black" style="stroke-width: 2;"/><text text-anchor="middle">1</text></g><g class="links" style="display: none;"><path stroke="black" style="stroke-width: 2;"/><text text-anchor="middle">1</text></g><g class="links" style="display: none;"><path stroke="black" style="stroke-width: 2;"/><text text-anchor="middle">1</text></g><g class="links" style="display: none;"><path stroke="black" style="stroke-width: 2;"/><text text-anchor="middle">1</text></g><g class="links" style="display: none;"><path stroke="black" style="stroke-width: 2;"/><text text-anchor="middle">1</text></g><g class="links" style="display: none;"><path stroke="black" style="stroke-width: 2;"/><text text-anchor="middle">1</text></g><g class="links" style="display: none;"><path stroke="black" style="stroke-width: 2;"/><text text-anchor="middle">1</text></g><g class="links" style="display: none;"><path stroke="black" style="stroke-width: 2;"/><text text-anchor="middle">1</text></g></g><g class="nodeg"><g class="node computeNode h1 statics" transform="translate(210,0)" style="pointer-events: auto;"><g class="computeSig" stroke="black" style="stroke-width: 2;"><path class="linegg timeline hgroup_1" d="M-180,193.33333333333331C-173.33333333333334,193.33333333333331,-166.66666666666666,193.33333333333331,-160,193.33333333333331C-153.33333333333334,193.33333333333331,-146.66666666666666,193.33333333333331,-140,193.33333333333331C-133.33333333333334,193.33333333333331,-126.66666666666667,193.33333333333331,-120,193.33333333333331C-113.33333333333333,193.33333333333331,-106.66666666666667,193.33333333333331,-100,193.33333333333331C-93.33333333333333,193.33333333333331,-86.66666666666667,193.33333333333331,-80,193.33333333333331C-73.33333333333333,193.33333333333331,-66.66666666666667,193.33333333333331,-60,193.33333333333331C-53.333333333333336,193.33333333333331,-46.666666666666664,193.33333333333331,-40,193.33333333333331C-33.333333333333336,193.33333333333331,-26.666666666666668,193.33333333333331,-20,193.33333333333331C-13.333333333333332,193.33333333333331,-6.666666666666667,193.33333333333331,0,193.33333333333331" style="stroke: rgb(31, 119, 180); stroke-width: 2; fill: none;"/></g><text class="computeSig_label label" text-anchor="end" dx="-5" dy="0.5rem" fill="black" width="200" transform="translate(-180,193.33333333333331)">1</text></g><g class="node computeNode h2 statics" transform="translate(210,0)" style="pointer-events: auto;"><g class="computeSig" stroke="black" style="stroke-width: 2;"><path class="linegg timeline hgroup_1" d="M-180,200.23809523809524C-173.33333333333334,200.23809523809524,-166.66666666666666,200.23809523809524,-160,200.23809523809524C-153.33333333333334,200.23809523809524,-146.66666666666666,200.23809523809524,-140,200.23809523809524C-133.33333333333334,200.23809523809524,-126.66666666666667,200.23809523809524,-120,200.23809523809524C-113.33333333333333,200.23809523809524,-106.66666666666667,200.23809523809524,-100,200.23809523809524C-93.33333333333333,200.23809523809524,-86.66666666666667,200.23809523809524,-80,200.23809523809524C-73.33333333333333,200.23809523809524,-66.66666666666667,200.23809523809524,-60,200.23809523809524C-53.333333333333336,200.23809523809524,-46.666666666666664,200.23809523809524,-40,200.23809523809524C-33.333333333333336,200.23809523809524,-26.666666666666668,200.23809523809524,-20,200.23809523809524C-13.333333333333332,200.23809523809524,-6.666666666666667,200.23809523809524,0,200.23809523809524" style="stroke: rgb(31, 119, 180); stroke-width: 2; fill: none;"/></g><text class="computeSig_label label" text-anchor="end" dx="-5" dy="0.5rem" fill="black" width="200" transform="translate(-180,200.23809523809524)">2</text></g><g class="node computeNode h3 statics" transform="translate(210,0)" style="pointer-events: auto;"><g class="computeSig" stroke="black" style="stroke-width: 2;"><path class="linegg timeline hgroup_2" d="M-180,276.19047619047615C-176.66666666666666,276.19047619047615,-173.33333333333334,276.19047619047615,-170,276.19047619047615C-166.66666666666666,276.19047619047615,-163.33333333333334,148.45238095238096,-160,20.71428571428571" style="stroke: rgb(255, 127, 14); stroke-width: 2;"/><path class="linegg timeline hgroup_5" d="M-160,20.71428571428571C-153.33333333333334,20.71428571428571,-146.66666666666666,20.71428571428571,-140,20.71428571428571C-133.33333333333334,20.71428571428571,-126.66666666666667,20.71428571428571,-120,20.71428571428571C-113.33333333333333,20.71428571428571,-106.66666666666667,20.71428571428571,-100,20.71428571428571C-93.33333333333333,20.71428571428571,-86.66666666666667,20.71428571428571,-80,20.71428571428571C-73.33333333333333,20.71428571428571,-66.66666666666667,20.71428571428571,-60,20.71428571428571C-53.333333333333336,20.71428571428571,-46.666666666666664,20.71428571428571,-40,20.71428571428571C-33.333333333333336,20.71428571428571,-26.666666666666668,20.71428571428571,-20,20.71428571428571C-13.333333333333332,20.71428571428571,-6.666666666666667,20.71428571428571,0,20.71428571428571" style="stroke: rgb(148, 103, 189); stroke-width: 2; fill: none;"/></g><text class="computeSig_label label" text-anchor="end" dx="-5" dy="0.5rem" fill="black" width="200" transform="translate(-180,276.19047619047615)">3</text></g><g class="node computeNode h4 statics" transform="translate(210,0)" style="pointer-events: auto;"><g class="computeSig" stroke="black" style="stroke-width: 2;"><path class="linegg timeline hgroup_3" d="M-180,414.2857142857143C-173.33333333333334,414.2857142857143,-166.66666666666666,414.2857142857143,-160,414.2857142857143C-153.33333333333334,414.2857142857143,-146.66666666666666,414.2857142857143,-140,414.2857142857143C-133.33333333333334,414.2857142857143,-126.66666666666667,414.2857142857143,-120,414.2857142857143C-113.33333333333333,414.2857142857143,-106.66666666666667,414.2857142857143,-100,414.2857142857143C-96.66666666666667,414.2857142857143,-93.33333333333333,414.2857142857143,-90,414.2857142857143C-86.66666666666667,414.2857142857143,-83.33333333333333,341.7857142857143,-80,269.2857142857143" style="stroke: rgb(44, 160, 44); stroke-width: 2; fill: none;"/><path class="linegg timeline hgroup_1" d="M-80,269.2857142857143C-73.33333333333333,269.2857142857143,-66.66666666666667,269.2857142857143,-60,269.2857142857143C-53.333333333333336,269.2857142857143,-46.666666666666664,269.2857142857143,-40,269.2857142857143C-33.333333333333336,269.2857142857143,-26.666666666666668,269.2857142857143,-20,269.2857142857143C-13.333333333333332,269.2857142857143,-6.666666666666667,269.2857142857143,0,269.2857142857143" style="stroke: rgb(31, 119, 180); stroke-width: 2; fill: none;"/></g><text class="computeSig_label label" text-anchor="end" dx="-5" dy="0.5rem" fill="black" width="200" transform="translate(-180,414.2857142857143)">4</text></g><g class="node computeNode h5 statics" transform="translate(210,0)" style="pointer-events: auto;"><g class="computeSig" stroke="black" style="stroke-width: 2;"><path class="linegg timeline hgroup_4" d="M-180,62.14285714285714C-173.33333333333334,62.14285714285714,-166.66666666666666,62.14285714285714,-160,62.14285714285714C-156.66666666666666,62.14285714285714,-153.33333333333334,62.14285714285714,-150,62.14285714285714C-146.66666666666666,62.14285714285714,-143.33333333333334,34.52380952380952,-140,6.904761904761904" style="stroke: rgb(214, 39, 40); stroke-width: 2; fill: none;"/><path class="linegg timeline hgroup_5" d="M-140,6.904761904761905C-133.33333333333334,6.904761904761905,-126.66666666666667,6.904761904761905,-120,6.904761904761905C-113.33333333333333,6.904761904761905,-106.66666666666667,6.904761904761905,-100,6.904761904761905C-93.33333333333333,6.904761904761905,-86.66666666666667,6.904761904761905,-80,6.904761904761905C-73.33333333333333,6.904761904761905,-66.66666666666667,6.904761904761905,-60,6.904761904761905C-53.333333333333336,6.904761904761905,-46.666666666666664,6.904761904761905,-40,6.904761904761905C-33.333333333333336,6.904761904761905,-26.666666666666668,6.904761904761905,-20,6.904761904761905C-13.333333333333332,6.904761904761905,-6.666666666666667,6.904761904761905,0,6.904761904761905" style="stroke: rgb(148, 103, 189); stroke-width: 2; fill: none;"/></g><text class="computeSig_label label" text-anchor="end" dx="-5" dy="0.5rem" fill="black" width="200" transform="translate(-180,62.14285714285714)">5</text></g><g class="node computeNode h6 statics" transform="translate(210,0)" style="pointer-events: auto;"><g class="computeSig" stroke="black" style="stroke-width: 2;"><path class="linegg timeline hgroup_5" d="M-180,13.80952380952381C-173.33333333333334,13.80952380952381,-166.66666666666666,13.80952380952381,-160,13.80952380952381C-153.33333333333334,13.80952380952381,-146.66666666666666,13.80952380952381,-140,13.80952380952381C-133.33333333333334,13.80952380952381,-126.66666666666667,13.80952380952381,-120,13.80952380952381C-113.33333333333333,13.80952380952381,-106.66666666666667,13.80952380952381,-100,13.80952380952381C-93.33333333333333,13.80952380952381,-86.66666666666667,13.80952380952381,-80,13.80952380952381C-73.33333333333333,13.80952380952381,-66.66666666666667,13.80952380952381,-60,13.80952380952381C-53.333333333333336,13.80952380952381,-46.666666666666664,13.80952380952381,-40,13.80952380952381C-33.333333333333336,13.80952380952381,-26.666666666666668,13.80952380952381,-20,13.80952380952381C-16.666666666666668,13.809523809523808,-13.333333333333334,13.809523809523808,-10,13.809523809523808C-6.666666666666666,13.809523809523808,-3.3333333333333335,93.21428571428571,0,172.61904761904762" style="stroke: rgb(148, 103, 189); stroke-width: 2; fill: none;"/><path class="linegg timeline hgroup_1" d="M0,172.61904761904762Z" style="stroke: rgb(31, 119, 180); stroke-width: 2;"/></g><text class="computeSig_label label" text-anchor="end" dx="-5" dy="0.5rem" fill="black" width="200" transform="translate(-180,13.809523809523808)">6</text></g><g class="node computeNode h7 statics" transform="translate(210,0)" style="pointer-events: auto;"><g class="computeSig" stroke="black" style="stroke-width: 2;"><path class="linegg timeline hgroup_3" d="M-180,428.0952380952381C-173.33333333333334,428.0952380952381,-166.66666666666666,428.0952380952381,-160,428.0952380952381C-153.33333333333334,428.0952380952381,-146.66666666666666,428.0952380952381,-140,428.0952380952381C-133.33333333333334,428.0952380952381,-126.66666666666667,428.0952380952381,-120,428.0952380952381C-113.33333333333333,428.0952380952381,-106.66666666666667,428.0952380952381,-100,428.0952380952381C-93.33333333333333,428.0952380952381,-86.66666666666667,428.0952380952381,-80,428.0952380952381C-73.33333333333333,428.0952380952381,-66.66666666666667,428.0952380952381,-60,428.0952380952381C-53.333333333333336,428.0952380952381,-46.666666666666664,428.0952380952381,-40,428.0952380952381C-33.333333333333336,428.0952380952381,-26.666666666666668,428.0952380952381,-20,428.0952380952381C-13.333333333333332,428.0952380952381,-6.666666666666667,428.0952380952381,0,428.0952380952381" style="stroke: rgb(44, 160, 44); stroke-width: 2; fill: none;"/></g><text class="computeSig_label label" text-anchor="end" dx="-5" dy="0.5rem" fill="black" width="200" transform="translate(-180,428.0952380952381)">7</text></g><g class="node computeNode h8 statics" transform="translate(210,0)" style="pointer-events: auto;"><g class="computeSig" stroke="black" style="stroke-width: 2;"><path class="linegg timeline hgroup_2" d="M-180,303.8095238095238C-173.33333333333334,303.8095238095238,-166.66666666666666,303.8095238095238,-160,303.8095238095238C-156.66666666666666,303.8095238095238,-153.33333333333334,303.8095238095238,-150,303.8095238095238C-146.66666666666666,303.8095238095238,-143.33333333333334,176.07142857142856,-140,48.33333333333333" style="stroke: rgb(255, 127, 14); stroke-width: 2; fill: none;"/><path class="linegg timeline hgroup_5" d="M-140,48.33333333333333C-133.33333333333334,48.33333333333333,-126.66666666666667,48.33333333333333,-120,48.33333333333333C-116.66666666666667,48.33333333333333,-113.33333333333333,48.33333333333333,-110,48.33333333333333C-106.66666666666667,48.33333333333333,-103.33333333333333,176.07142857142856,-100,303.8095238095238" style="stroke: rgb(148, 103, 189); stroke-width: 2; fill: none;"/><path class="linegg timeline hgroup_2" d="M-100,303.8095238095238C-93.33333333333333,303.8095238095238,-86.66666666666667,303.8095238095238,-80,303.8095238095238C-73.33333333333333,303.8095238095238,-66.66666666666667,303.8095238095238,-60,303.8095238095238C-56.666666666666664,303.8095238095238,-53.333333333333336,303.8095238095238,-50,303.8095238095238C-46.666666666666664,303.8095238095238,-43.333333333333336,269.2857142857143,-40,234.76190476190476" style="stroke: rgb(255, 127, 14); stroke-width: 2; fill: none;"/><path class="linegg timeline hgroup_1" d="M-40,234.76190476190476C-33.333333333333336,234.76190476190476,-26.666666666666668,234.76190476190476,-20,234.76190476190476C-13.333333333333332,234.76190476190476,-6.666666666666667,234.76190476190476,0,234.76190476190476" style="stroke: rgb(31, 119, 180); stroke-width: 2; fill: none;"/></g><text class="computeSig_label label" text-anchor="end" dx="-5" dy="0.5rem" fill="black" width="200" transform="translate(-180,303.8095238095238)">8</text></g><g class="node computeNode h9 statics" transform="translate(210,0)" style="pointer-events: auto;"><g class="computeSig" stroke="black" style="stroke-width: 2;"><path class="linegg timeline hgroup_1" d="M-180,207.14285714285714C-173.33333333333334,207.14285714285714,-166.66666666666666,207.14285714285714,-160,207.14285714285714C-153.33333333333334,207.14285714285714,-146.66666666666666,207.14285714285714,-140,207.14285714285714C-133.33333333333334,207.14285714285714,-126.66666666666667,207.14285714285714,-120,207.14285714285714C-113.33333333333333,207.14285714285714,-106.66666666666667,207.14285714285714,-100,207.14285714285714C-93.33333333333333,207.14285714285714,-86.66666666666667,207.14285714285714,-80,207.14285714285714C-76.66666666666667,207.14285714285714,-73.33333333333333,207.14285714285714,-70,207.14285714285714C-66.66666666666667,207.14285714285714,-63.333333333333336,248.57142857142856,-60,290" style="stroke: rgb(31, 119, 180); stroke-width: 2; fill: none;"/><path class="linegg timeline hgroup_2" d="M-60,290C-53.333333333333336,290,-46.666666666666664,290,-40,290C-36.666666666666664,290,-33.333333333333336,290,-30,290C-26.666666666666668,290,-23.333333333333332,200.23809523809524,-20,110.47619047619047" style="stroke: rgb(255, 127, 14); stroke-width: 2; fill: none;"/><path class="linegg timeline hgroup_4" d="M-20,110.47619047619047L0,110.47619047619047" style="stroke: rgb(214, 39, 40); stroke-width: 2; fill: none;"/></g><text class="computeSig_label label" text-anchor="end" dx="-5" dy="0.5rem" fill="black" width="200" transform="translate(-180,207.14285714285714)">9</text></g><g class="node computeNode h10 statics" transform="translate(210,0)" style="pointer-events: auto;"><g class="computeSig" stroke="black" style="stroke-width: 2;"><path class="linegg timeline hgroup_2" d="M-180,352.14285714285717C-173.33333333333334,352.14285714285717,-166.66666666666666,352.14285714285717,-160,352.14285714285717C-153.33333333333334,352.14285714285717,-146.66666666666666,352.14285714285717,-140,352.14285714285717C-133.33333333333334,352.14285714285717,-126.66666666666667,352.14285714285717,-120,352.14285714285717C-113.33333333333333,352.14285714285717,-106.66666666666667,352.14285714285717,-100,352.14285714285717C-93.33333333333333,352.14285714285717,-86.66666666666667,352.14285714285717,-80,352.14285714285717C-73.33333333333333,352.14285714285717,-66.66666666666667,352.14285714285717,-60,352.14285714285717C-53.333333333333336,352.14285714285717,-46.666666666666664,352.14285714285717,-40,352.14285714285717C-33.333333333333336,352.14285714285717,-26.666666666666668,352.14285714285717,-20,352.14285714285717C-13.333333333333332,352.14285714285717,-6.666666666666667,352.14285714285717,0,352.14285714285717" style="stroke: rgb(255, 127, 14); stroke-width: 2; fill: none;"/></g><text class="computeSig_label label" text-anchor="end" dx="-5" dy="0.5rem" fill="black" width="200" transform="translate(-180,352.14285714285717)">10</text></g><g class="node computeNode h11 statics" transform="translate(210,0)" style="pointer-events: auto;"><g class="computeSig" stroke="black" style="stroke-width: 2;"><path class="linegg timeline hgroup_4" d="M-180,103.57142857142857C-173.33333333333334,103.57142857142857,-166.66666666666666,103.57142857142857,-160,103.57142857142857C-153.33333333333334,103.57142857142857,-146.66666666666666,103.57142857142857,-140,103.57142857142857C-133.33333333333334,103.57142857142857,-126.66666666666667,103.57142857142857,-120,103.57142857142857C-113.33333333333333,103.57142857142857,-106.66666666666667,103.57142857142857,-100,103.57142857142857C-93.33333333333333,103.57142857142857,-86.66666666666667,103.57142857142857,-80,103.57142857142857C-73.33333333333333,103.57142857142857,-66.66666666666667,103.57142857142857,-60,103.57142857142857C-53.333333333333336,103.57142857142857,-46.666666666666664,103.57142857142857,-40,103.57142857142857C-36.666666666666664,103.57142857142857,-33.333333333333336,103.57142857142857,-30,103.57142857142857C-26.666666666666668,103.57142857142857,-23.333333333333332,245.1190476190476,-20,386.66666666666663" style="stroke: rgb(214, 39, 40); stroke-width: 2; fill: none;"/><path class="linegg timeline hgroup_3" d="M-20,386.66666666666663L0,386.66666666666663" style="stroke: rgb(44, 160, 44); stroke-width: 2; fill: none;"/></g><text class="computeSig_label label" text-anchor="end" dx="-5" dy="0.5rem" fill="black" width="200" transform="translate(-180,103.57142857142857)">11</text></g><g class="node computeNode h12 statics" transform="translate(210,0)" style="pointer-events: auto;"><g class="computeSig" stroke="black" style="stroke-width: 2;"><path class="linegg timeline hgroup_4" d="M-180,165.7142857142857C-176.66666666666666,165.7142857142857,-173.33333333333334,165.7142857142857,-170,165.7142857142857C-166.66666666666666,165.7142857142857,-163.33333333333334,293.45238095238096,-160,421.1904761904762" style="stroke: rgb(214, 39, 40); stroke-width: 2;"/><path class="linegg timeline hgroup_3" d="M-160,421.1904761904762C-153.33333333333334,421.1904761904762,-146.66666666666666,421.1904761904762,-140,421.1904761904762C-133.33333333333334,421.1904761904762,-126.66666666666667,421.1904761904762,-120,421.1904761904762C-113.33333333333333,421.1904761904762,-106.66666666666667,421.1904761904762,-100,421.1904761904762C-93.33333333333333,421.1904761904762,-86.66666666666667,421.1904761904762,-80,421.1904761904762C-73.33333333333333,421.1904761904762,-66.66666666666667,421.1904761904762,-60,421.1904761904762C-56.666666666666664,421.1904761904762,-53.333333333333336,421.1904761904762,-50,421.1904761904762C-46.666666666666664,421.1904761904762,-43.333333333333336,393.5714285714286,-40,365.95238095238096" style="stroke: rgb(44, 160, 44); stroke-width: 2; fill: none;"/><path class="linegg timeline hgroup_2" d="M-40,365.95238095238096C-33.333333333333336,365.95238095238096,-26.666666666666668,365.95238095238096,-20,365.95238095238096C-13.333333333333332,365.95238095238096,-6.666666666666667,365.95238095238096,0,365.95238095238096" style="stroke: rgb(255, 127, 14); stroke-width: 2; fill: none;"/></g><text class="computeSig_label label" text-anchor="end" dx="-5" dy="0.5rem" fill="black" width="200" transform="translate(-180,165.7142857142857)">12</text></g><g class="node computeNode h13 statics" transform="translate(210,0)" style="pointer-events: auto;"><g class="computeSig" stroke="black" style="stroke-width: 2;"><path class="linegg timeline hgroup_4" d="M-180,69.04761904761904C-173.33333333333334,69.04761904761904,-166.66666666666666,69.04761904761904,-160,69.04761904761904C-153.33333333333334,69.04761904761904,-146.66666666666666,69.04761904761904,-140,69.04761904761904C-136.66666666666666,69.04761904761904,-133.33333333333334,69.04761904761904,-130,69.04761904761904C-126.66666666666667,69.04761904761904,-123.33333333333333,51.78571428571428,-120,34.52380952380952" style="stroke: rgb(214, 39, 40); stroke-width: 2; fill: none;"/><path class="linegg timeline hgroup_5" d="M-120,34.52380952380952C-113.33333333333333,34.52380952380952,-106.66666666666667,34.52380952380952,-100,34.52380952380952C-93.33333333333333,34.52380952380952,-86.66666666666667,34.52380952380952,-80,34.52380952380952C-73.33333333333333,34.52380952380952,-66.66666666666667,34.52380952380952,-60,34.52380952380952C-56.666666666666664,34.52380952380952,-53.333333333333336,34.52380952380952,-50,34.52380952380952C-46.666666666666664,34.52380952380952,-43.333333333333336,51.78571428571428,-40,69.04761904761904" style="stroke: rgb(148, 103, 189); stroke-width: 2; fill: none;"/><path class="linegg timeline hgroup_4" d="M-40,69.04761904761904C-33.333333333333336,69.04761904761904,-26.666666666666668,69.04761904761904,-20,69.04761904761904C-13.333333333333332,69.04761904761904,-6.666666666666667,69.04761904761904,0,69.04761904761904" style="stroke: rgb(214, 39, 40); stroke-width: 2; fill: none;"/></g><text class="computeSig_label label" text-anchor="end" dx="-5" dy="0.5rem" fill="black" width="200" transform="translate(-180,69.04761904761904)">13</text></g><g class="node computeNode h14 statics" transform="translate(210,0)" style="pointer-events: auto;"><g class="computeSig" stroke="black" style="stroke-width: 2;"><path class="linegg timeline hgroup_4" d="M-180,151.9047619047619C-176.66666666666666,151.9047619047619,-173.33333333333334,151.9047619047619,-170,151.9047619047619C-166.66666666666666,151.9047619047619,-163.33333333333334,245.1190476190476,-160,338.3333333333333" style="stroke: rgb(214, 39, 40); stroke-width: 2;"/><path class="linegg timeline hgroup_2" d="M-160,338.3333333333333C-153.33333333333334,338.3333333333333,-146.66666666666666,338.3333333333333,-140,338.3333333333333C-133.33333333333334,338.3333333333333,-126.66666666666667,338.3333333333333,-120,338.3333333333333C-113.33333333333333,338.3333333333333,-106.66666666666667,338.3333333333333,-100,338.3333333333333C-93.33333333333333,338.3333333333333,-86.66666666666667,338.3333333333333,-80,338.3333333333333C-73.33333333333333,338.3333333333333,-66.66666666666667,338.3333333333333,-60,338.3333333333333C-53.333333333333336,338.3333333333333,-46.666666666666664,338.3333333333333,-40,338.3333333333333C-33.333333333333336,338.3333333333333,-26.666666666666668,338.3333333333333,-20,338.3333333333333C-13.333333333333332,338.3333333333333,-6.666666666666667,338.3333333333333,0,338.3333333333333" style="stroke: rgb(255, 127, 14); stroke-width: 2; fill: none;"/></g><text class="computeSig_label label" text-anchor="end" dx="-5" dy="0.5rem" fill="black" width="200" transform="translate(-180,151.9047619047619)">14</text></g><g class="node computeNode h15 statics" transform="translate(210,0)" style="pointer-events: auto;"><g class="computeSig" stroke="black" style="stroke-width: 2;"><path class="linegg timeline hgroup_1" d="M-180,214.04761904761904C-173.33333333333334,214.04761904761904,-166.66666666666666,214.04761904761904,-160,214.04761904761904C-153.33333333333334,214.04761904761904,-146.66666666666666,214.04761904761904,-140,214.04761904761904C-133.33333333333334,214.04761904761904,-126.66666666666667,214.04761904761904,-120,214.04761904761904C-113.33333333333333,214.04761904761904,-106.66666666666667,214.04761904761904,-100,214.04761904761904C-93.33333333333333,214.04761904761904,-86.66666666666667,214.04761904761904,-80,214.04761904761904C-73.33333333333333,214.04761904761904,-66.66666666666667,214.04761904761904,-60,214.04761904761904C-53.333333333333336,214.04761904761904,-46.666666666666664,214.04761904761904,-40,214.04761904761904C-33.333333333333336,214.04761904761904,-26.666666666666668,214.04761904761904,-20,214.04761904761904C-13.333333333333332,214.04761904761904,-6.666666666666667,214.04761904761904,0,214.04761904761904" style="stroke: rgb(31, 119, 180); stroke-width: 2; fill: none;"/></g><text class="computeSig_label label" text-anchor="end" dx="-5" dy="0.5rem" fill="black" width="200" transform="translate(-180,214.04761904761904)">15</text></g><g class="node computeNode h16 statics" transform="translate(210,0)" style="pointer-events: auto;"><g class="computeSig" stroke="black" style="stroke-width: 2;"><path class="linegg timeline hgroup_1" d="M-180,248.57142857142856C-176.66666666666666,248.57142857142856,-173.33333333333334,248.57142857142856,-170,248.57142857142856C-166.66666666666666,248.57142857142856,-163.33333333333334,189.88095238095235,-160,131.19047619047618" style="stroke: rgb(31, 119, 180); stroke-width: 2;"/><path class="linegg timeline hgroup_4" d="M-160,131.19047619047618C-153.33333333333334,131.19047619047618,-146.66666666666666,131.19047619047618,-140,131.19047619047618C-136.66666666666666,131.19047619047618,-133.33333333333334,131.19047619047618,-130,131.19047619047618C-126.66666666666667,131.19047619047618,-123.33333333333333,224.40476190476187,-120,317.6190476190476" style="stroke: rgb(214, 39, 40); stroke-width: 2; fill: none;"/><path class="linegg timeline hgroup_2" d="M-120,317.6190476190476C-113.33333333333333,317.6190476190476,-106.66666666666667,317.6190476190476,-100,317.6190476190476C-93.33333333333333,317.6190476190476,-86.66666666666667,317.6190476190476,-80,317.6190476190476C-73.33333333333333,317.6190476190476,-66.66666666666667,317.6190476190476,-60,317.6190476190476C-53.333333333333336,317.6190476190476,-46.666666666666664,317.6190476190476,-40,317.6190476190476C-33.333333333333336,317.6190476190476,-26.666666666666668,317.6190476190476,-20,317.6190476190476C-13.333333333333332,317.6190476190476,-6.666666666666667,317.6190476190476,0,317.6190476190476" style="stroke: rgb(255, 127, 14); stroke-width: 2; fill: none;"/></g><text class="computeSig_label label" text-anchor="end" dx="-5" dy="0.5rem" fill="black" width="200" transform="translate(-180,248.57142857142856)">16</text></g><g class="node computeNode h17 statics" transform="translate(210,0)" style="pointer-events: auto;"><g class="computeSig" stroke="black" style="stroke-width: 2;"><path class="linegg timeline hgroup_3" d="M-180,372.85714285714283C-176.66666666666666,372.85714285714283,-173.33333333333334,372.85714285714283,-170,372.85714285714283C-166.66666666666666,372.85714285714283,-163.33333333333334,200.23809523809527,-160,27.619047619047617" style="stroke: rgb(44, 160, 44); stroke-width: 2;"/><path class="linegg timeline hgroup_5" d="M-160,27.61904761904762C-153.33333333333334,27.61904761904762,-146.66666666666666,27.61904761904762,-140,27.61904761904762C-133.33333333333334,27.61904761904762,-126.66666666666667,27.61904761904762,-120,27.61904761904762C-113.33333333333333,27.61904761904762,-106.66666666666667,27.61904761904762,-100,27.61904761904762C-93.33333333333333,27.61904761904762,-86.66666666666667,27.61904761904762,-80,27.61904761904762C-73.33333333333333,27.61904761904762,-66.66666666666667,27.61904761904762,-60,27.61904761904762C-53.333333333333336,27.61904761904762,-46.666666666666664,27.61904761904762,-40,27.61904761904762C-33.333333333333336,27.61904761904762,-26.666666666666668,27.61904761904762,-20,27.61904761904762C-13.333333333333332,27.61904761904762,-6.666666666666667,27.61904761904762,0,27.61904761904762" style="stroke: rgb(148, 103, 189); stroke-width: 2; fill: none;"/></g><text class="computeSig_label label" text-anchor="end" dx="-5" dy="0.5rem" fill="black" width="200" transform="translate(-180,372.85714285714283)">17</text></g><g class="node computeNode h18 statics" transform="translate(210,0)" style="pointer-events: auto;"><g class="computeSig" stroke="black" style="stroke-width: 2;"><path class="linegg timeline hgroup_4" d="M-180,96.66666666666666C-173.33333333333334,96.66666666666666,-166.66666666666666,96.66666666666666,-160,96.66666666666666C-156.66666666666666,96.66666666666666,-153.33333333333334,96.66666666666666,-150,96.66666666666666C-146.66666666666666,96.66666666666666,-143.33333333333334,141.54761904761904,-140,186.42857142857142" style="stroke: rgb(214, 39, 40); stroke-width: 2; fill: none;"/><path class="linegg timeline hgroup_1" d="M-140,186.42857142857142C-133.33333333333334,186.42857142857142,-126.66666666666667,186.42857142857142,-120,186.42857142857142C-113.33333333333333,186.42857142857142,-106.66666666666667,186.42857142857142,-100,186.42857142857142C-96.66666666666667,186.42857142857142,-93.33333333333333,186.42857142857142,-90,186.42857142857142C-86.66666666666667,186.42857142857142,-83.33333333333333,141.54761904761904,-80,96.66666666666666" style="stroke: rgb(31, 119, 180); stroke-width: 2; fill: none;"/><path class="linegg timeline hgroup_4" d="M-80,96.66666666666666C-73.33333333333333,96.66666666666666,-66.66666666666667,96.66666666666666,-60,96.66666666666666C-53.333333333333336,96.66666666666666,-46.666666666666664,96.66666666666666,-40,96.66666666666666C-33.333333333333336,96.66666666666666,-26.666666666666668,96.66666666666666,-20,96.66666666666666C-13.333333333333332,96.66666666666666,-6.666666666666667,96.66666666666666,0,96.66666666666666" style="stroke: rgb(214, 39, 40); stroke-width: 2; fill: none;"/></g><text class="computeSig_label label" text-anchor="end" dx="-5" dy="0.5rem" fill="black" width="200" transform="translate(-180,96.66666666666666)">18</text></g><g class="node computeNode h19 statics" transform="translate(210,0)" style="pointer-events: auto;"><g class="computeSig" stroke="black" style="stroke-width: 2;"><path class="linegg timeline hgroup_4" d="M-180,117.38095238095238C-173.33333333333334,117.38095238095238,-166.66666666666666,117.38095238095238,-160,117.38095238095238C-153.33333333333334,117.38095238095238,-146.66666666666666,117.38095238095238,-140,117.38095238095238C-133.33333333333334,117.38095238095238,-126.66666666666667,117.38095238095238,-120,117.38095238095238C-116.66666666666667,117.38095238095238,-113.33333333333333,117.38095238095238,-110,117.38095238095238C-106.66666666666667,117.38095238095238,-103.33333333333333,169.16666666666666,-100,220.95238095238093" style="stroke: rgb(214, 39, 40); stroke-width: 2; fill: none;"/><path class="linegg timeline hgroup_1" d="M-100,220.95238095238093C-93.33333333333333,220.95238095238093,-86.66666666666667,220.95238095238093,-80,220.95238095238093C-76.66666666666667,220.95238095238093,-73.33333333333333,220.95238095238093,-70,220.95238095238093C-66.66666666666667,220.95238095238093,-63.333333333333336,258.92857142857144,-60,296.9047619047619" style="stroke: rgb(31, 119, 180); stroke-width: 2; fill: none;"/><path class="linegg timeline hgroup_2" d="M-60,296.9047619047619C-53.333333333333336,296.9047619047619,-46.666666666666664,296.9047619047619,-40,296.9047619047619C-33.333333333333336,296.9047619047619,-26.666666666666668,296.9047619047619,-20,296.9047619047619C-13.333333333333332,296.9047619047619,-6.666666666666667,296.9047619047619,0,296.9047619047619" style="stroke: rgb(255, 127, 14); stroke-width: 2; fill: none;"/></g><text class="computeSig_label label" text-anchor="end" dx="-5" dy="0.5rem" fill="black" width="200" transform="translate(-180,117.38095238095238)">19</text></g><g class="node computeNode h20 statics" transform="translate(210,0)" style="pointer-events: auto;"><g class="computeSig" stroke="black" style="stroke-width: 2;"><path class="linegg timeline hgroup_2" d="M-180,359.04761904761904C-173.33333333333334,359.04761904761904,-166.66666666666666,359.04761904761904,-160,359.04761904761904C-153.33333333333334,359.04761904761904,-146.66666666666666,359.04761904761904,-140,359.04761904761904C-133.33333333333334,359.04761904761904,-126.66666666666667,359.04761904761904,-120,359.04761904761904C-113.33333333333333,359.04761904761904,-106.66666666666667,359.04761904761904,-100,359.04761904761904C-93.33333333333333,359.04761904761904,-86.66666666666667,359.04761904761904,-80,359.04761904761904C-73.33333333333333,359.04761904761904,-66.66666666666667,359.04761904761904,-60,359.04761904761904C-53.333333333333336,359.04761904761904,-46.666666666666664,359.04761904761904,-40,359.04761904761904C-33.333333333333336,359.04761904761904,-26.666666666666668,359.04761904761904,-20,359.04761904761904C-13.333333333333332,359.04761904761904,-6.666666666666667,359.04761904761904,0,359.04761904761904" style="stroke: rgb(255, 127, 14); stroke-width: 2; fill: none;"/></g><text class="computeSig_label label" text-anchor="end" dx="-5" dy="0.5rem" fill="black" width="200" transform="translate(-180,359.04761904761904)">20</text></g><g class="node computeNode h21 statics" transform="translate(210,0)" style="pointer-events: auto;"><g class="computeSig" stroke="black" style="stroke-width: 2;"><path class="linegg timeline hgroup_4" d="M-180,145C-173.33333333333334,145,-166.66666666666666,145,-160,145C-153.33333333333334,145,-146.66666666666666,145,-140,145C-133.33333333333334,145,-126.66666666666667,145,-120,145C-116.66666666666667,145,-113.33333333333333,145,-110,145C-106.66666666666667,145,-103.33333333333333,238.21428571428567,-100,331.4285714285714" style="stroke: rgb(214, 39, 40); stroke-width: 2; fill: none;"/><path class="linegg timeline hgroup_2" d="M-100,331.4285714285714C-96.66666666666667,331.4285714285714,-93.33333333333333,331.4285714285714,-90,331.4285714285714C-86.66666666666667,331.4285714285714,-83.33333333333333,365.9523809523809,-80,400.4761904761905" style="stroke: rgb(255, 127, 14); stroke-width: 2;"/><path class="linegg timeline hgroup_3" d="M-80,400.4761904761905C-73.33333333333333,400.4761904761905,-66.66666666666667,400.4761904761905,-60,400.4761904761905C-53.333333333333336,400.4761904761905,-46.666666666666664,400.4761904761905,-40,400.4761904761905C-33.333333333333336,400.4761904761905,-26.666666666666668,400.4761904761905,-20,400.4761904761905C-13.333333333333332,400.4761904761905,-6.666666666666667,400.4761904761905,0,400.4761904761905" style="stroke: rgb(44, 160, 44); stroke-width: 2; fill: none;"/></g><text class="computeSig_label label" text-anchor="end" dx="-5" dy="0.5rem" fill="black" width="200" transform="translate(-180,145)">21</text></g><g class="node computeNode h22 statics" transform="translate(210,0)" style="pointer-events: auto;"><g class="computeSig" stroke="black" style="stroke-width: 2;"><path class="linegg timeline hgroup_4" d="M-180,75.95238095238096C-173.33333333333334,75.95238095238096,-166.66666666666666,75.95238095238096,-160,75.95238095238096C-153.33333333333334,75.95238095238096,-146.66666666666666,75.95238095238096,-140,75.95238095238096C-133.33333333333334,75.95238095238096,-126.66666666666667,75.95238095238096,-120,75.95238095238096C-113.33333333333333,75.95238095238096,-106.66666666666667,75.95238095238096,-100,75.95238095238096C-93.33333333333333,75.95238095238096,-86.66666666666667,75.95238095238096,-80,75.95238095238096C-73.33333333333333,75.95238095238096,-66.66666666666667,75.95238095238096,-60,75.95238095238096C-53.333333333333336,75.95238095238096,-46.666666666666664,75.95238095238096,-40,75.95238095238096C-33.333333333333336,75.95238095238096,-26.666666666666668,75.95238095238096,-20,75.95238095238096C-13.333333333333332,75.95238095238096,-6.666666666666667,75.95238095238096,0,75.95238095238096" style="stroke: rgb(214, 39, 40); stroke-width: 2; fill: none;"/></g><text class="computeSig_label label" text-anchor="end" dx="-5" dy="0.5rem" fill="black" width="200" transform="translate(-180,75.95238095238095)">22</text></g><g class="node computeNode h23 statics" transform="translate(210,0)" style="pointer-events: auto;"><g class="computeSig" stroke="black" style="stroke-width: 2;"><path class="linegg timeline hgroup_1" d="M-180,255.47619047619048C-176.66666666666666,255.47619047619048,-173.33333333333334,255.47619047619048,-170,255.47619047619048C-166.66666666666666,255.47619047619048,-163.33333333333334,207.14285714285714,-160,158.8095238095238" style="stroke: rgb(31, 119, 180); stroke-width: 2;"/><path class="linegg timeline hgroup_4" d="M-160,158.8095238095238C-153.33333333333334,158.8095238095238,-146.66666666666666,158.8095238095238,-140,158.8095238095238C-133.33333333333334,158.8095238095238,-126.66666666666667,158.8095238095238,-120,158.8095238095238C-116.66666666666667,158.8095238095238,-113.33333333333333,158.8095238095238,-110,158.8095238095238C-106.66666666666667,158.8095238095238,-103.33333333333333,283.0952380952381,-100,407.3809523809524" style="stroke: rgb(214, 39, 40); stroke-width: 2; fill: none;"/><path class="linegg timeline hgroup_3" d="M-100,407.3809523809524C-93.33333333333333,407.3809523809524,-86.66666666666667,407.3809523809524,-80,407.3809523809524C-73.33333333333333,407.3809523809524,-66.66666666666667,407.3809523809524,-60,407.3809523809524C-53.333333333333336,407.3809523809524,-46.666666666666664,407.3809523809524,-40,407.3809523809524C-33.333333333333336,407.3809523809524,-26.666666666666668,407.3809523809524,-20,407.3809523809524C-13.333333333333332,407.3809523809524,-6.666666666666667,407.3809523809524,0,407.3809523809524" style="stroke: rgb(44, 160, 44); stroke-width: 2; fill: none;"/></g><text class="computeSig_label label" text-anchor="end" dx="-5" dy="0.5rem" fill="black" width="200" transform="translate(-180,255.47619047619048)">23</text></g><g class="node computeNode h24 statics" transform="translate(210,0)" style="pointer-events: auto;"><g class="computeSig" stroke="black" style="stroke-width: 2;"><path class="linegg timeline hgroup_4" d="M-180,124.28571428571428C-176.66666666666666,124.28571428571428,-173.33333333333334,124.28571428571428,-170,124.28571428571428C-166.66666666666666,124.28571428571428,-163.33333333333334,217.5,-160,310.7142857142857" style="stroke: rgb(214, 39, 40); stroke-width: 2;"/><path class="linegg timeline hgroup_2" d="M-160,310.7142857142857C-153.33333333333334,310.7142857142857,-146.66666666666666,310.7142857142857,-140,310.7142857142857C-133.33333333333334,310.7142857142857,-126.66666666666667,310.7142857142857,-120,310.7142857142857C-113.33333333333333,310.7142857142857,-106.66666666666667,310.7142857142857,-100,310.7142857142857C-96.66666666666667,310.7142857142857,-93.33333333333333,310.7142857142857,-90,310.7142857142857C-86.66666666666667,310.7142857142857,-83.33333333333333,217.5,-80,124.28571428571428" style="stroke: rgb(255, 127, 14); stroke-width: 2; fill: none;"/><path class="linegg timeline hgroup_4" d="M-80,124.28571428571428C-73.33333333333333,124.28571428571428,-66.66666666666667,124.28571428571428,-60,124.28571428571428C-56.666666666666664,124.28571428571428,-53.333333333333336,124.28571428571428,-50,124.28571428571428C-46.666666666666664,124.28571428571428,-43.333333333333336,182.97619047619048,-40,241.66666666666669" style="stroke: rgb(214, 39, 40); stroke-width: 2; fill: none;"/><path class="linegg timeline hgroup_1" d="M-40,241.66666666666669C-33.333333333333336,241.66666666666669,-26.666666666666668,241.66666666666669,-20,241.66666666666669C-13.333333333333332,241.66666666666669,-6.666666666666667,241.66666666666669,0,241.66666666666669" style="stroke: rgb(31, 119, 180); stroke-width: 2; fill: none;"/></g><text class="computeSig_label label" text-anchor="end" dx="-5" dy="0.5rem" fill="black" width="200" transform="translate(-180,124.28571428571428)">24</text></g><g class="node computeNode h25 statics" transform="translate(210,0)" style="pointer-events: auto;"><g class="computeSig" stroke="black" style="stroke-width: 2;"><path class="linegg timeline hgroup_1" d="M-180,179.52380952380952C-176.66666666666666,179.52380952380952,-173.33333333333334,179.52380952380952,-170,179.52380952380952C-166.66666666666666,179.52380952380952,-163.33333333333334,131.19047619047618,-160,82.85714285714285" style="stroke: rgb(31, 119, 180); stroke-width: 2;"/><path class="linegg timeline hgroup_4" d="M-160,82.85714285714283C-153.33333333333334,82.85714285714283,-146.66666666666666,82.85714285714283,-140,82.85714285714283C-133.33333333333334,82.85714285714283,-126.66666666666667,82.85714285714283,-120,82.85714285714283C-113.33333333333333,82.85714285714283,-106.66666666666667,82.85714285714283,-100,82.85714285714283C-93.33333333333333,82.85714285714283,-86.66666666666667,82.85714285714283,-80,82.85714285714283C-73.33333333333333,82.85714285714283,-66.66666666666667,82.85714285714283,-60,82.85714285714283C-53.333333333333336,82.85714285714283,-46.666666666666664,82.85714285714283,-40,82.85714285714283C-33.333333333333336,82.85714285714283,-26.666666666666668,82.85714285714283,-20,82.85714285714283C-13.333333333333332,82.85714285714283,-6.666666666666667,82.85714285714283,0,82.85714285714283" style="stroke: rgb(214, 39, 40); stroke-width: 2; fill: none;"/></g><text class="computeSig_label label" text-anchor="end" dx="-5" dy="0.5rem" fill="black" width="200" transform="translate(-180,179.52380952380952)">25</text></g><g class="node computeNode h26 statics" transform="translate(210,0)" style="pointer-events: auto;"><g class="computeSig" stroke="black" style="stroke-width: 2;"><path class="linegg timeline hgroup_1" d="M-180,227.85714285714286C-173.33333333333334,227.85714285714286,-166.66666666666666,227.85714285714286,-160,227.85714285714286C-153.33333333333334,227.85714285714286,-146.66666666666666,227.85714285714286,-140,227.85714285714286C-133.33333333333334,227.85714285714286,-126.66666666666667,227.85714285714286,-120,227.85714285714286C-113.33333333333333,227.85714285714286,-106.66666666666667,227.85714285714286,-100,227.85714285714286C-93.33333333333333,227.85714285714286,-86.66666666666667,227.85714285714286,-80,227.85714285714286C-73.33333333333333,227.85714285714286,-66.66666666666667,227.85714285714286,-60,227.85714285714286C-53.333333333333336,227.85714285714286,-46.666666666666664,227.85714285714286,-40,227.85714285714286C-33.333333333333336,227.85714285714286,-26.666666666666668,227.85714285714286,-20,227.85714285714286C-13.333333333333332,227.85714285714286,-6.666666666666667,227.85714285714286,0,227.85714285714286" style="stroke: rgb(31, 119, 180); stroke-width: 2; fill: none;"/></g><text class="computeSig_label label" text-anchor="end" dx="-5" dy="0.5rem" fill="black" width="200" transform="translate(-180,227.85714285714286)">26</text></g><g class="node computeNode h27 statics" transform="translate(210,0)" style="pointer-events: auto;"><g class="computeSig" stroke="black" style="stroke-width: 2;"><path class="linegg timeline hgroup_1" d="M-180,262.38095238095235C-176.66666666666666,262.38095238095235,-173.33333333333334,262.38095238095235,-170,262.38095238095235C-166.66666666666666,262.38095238095235,-163.33333333333334,303.8095238095238,-160,345.23809523809524" style="stroke: rgb(31, 119, 180); stroke-width: 2;"/><path class="linegg timeline hgroup_2" d="M-160,345.23809523809524C-153.33333333333334,345.23809523809524,-146.66666666666666,345.23809523809524,-140,345.23809523809524C-133.33333333333334,345.23809523809524,-126.66666666666667,345.23809523809524,-120,345.23809523809524C-113.33333333333333,345.23809523809524,-106.66666666666667,345.23809523809524,-100,345.23809523809524C-93.33333333333333,345.23809523809524,-86.66666666666667,345.23809523809524,-80,345.23809523809524C-73.33333333333333,345.23809523809524,-66.66666666666667,345.23809523809524,-60,345.23809523809524C-53.333333333333336,345.23809523809524,-46.666666666666664,345.23809523809524,-40,345.23809523809524C-33.333333333333336,345.23809523809524,-26.666666666666668,345.23809523809524,-20,345.23809523809524C-13.333333333333332,345.23809523809524,-6.666666666666667,345.23809523809524,0,345.23809523809524" style="stroke: rgb(255, 127, 14); stroke-width: 2; fill: none;"/></g><text class="computeSig_label label" text-anchor="end" dx="-5" dy="0.5rem" fill="black" width="200" transform="translate(-180,262.38095238095235)">27</text></g><g class="node computeNode h28 statics" transform="translate(210,0)" style="pointer-events: auto;"><g class="computeSig" stroke="black" style="stroke-width: 2;"><path class="linegg timeline hgroup_2" d="M-180,283.09523809523813C-176.66666666666666,283.09523809523813,-173.33333333333334,283.09523809523813,-170,283.09523809523813C-166.66666666666666,283.09523809523813,-163.33333333333334,331.42857142857144,-160,379.76190476190476" style="stroke: rgb(255, 127, 14); stroke-width: 2;"/><path class="linegg timeline hgroup_3" d="M-160,379.76190476190476C-156.66666666666666,379.76190476190476,-153.33333333333334,379.76190476190476,-150,379.76190476190476C-146.66666666666666,379.76190476190476,-143.33333333333334,234.76190476190476,-140,89.76190476190476" style="stroke: rgb(44, 160, 44); stroke-width: 2;"/><path class="linegg timeline hgroup_4" d="M-140,89.76190476190476C-133.33333333333334,89.76190476190476,-126.66666666666667,89.76190476190476,-120,89.76190476190476C-113.33333333333333,89.76190476190476,-106.66666666666667,89.76190476190476,-100,89.76190476190476C-93.33333333333333,89.76190476190476,-86.66666666666667,89.76190476190476,-80,89.76190476190476C-76.66666666666667,89.76190476190476,-73.33333333333333,89.76190476190476,-70,89.76190476190476C-66.66666666666667,89.76190476190476,-63.333333333333336,65.59523809523809,-60,41.42857142857142" style="stroke: rgb(214, 39, 40); stroke-width: 2; fill: none;"/><path class="linegg timeline hgroup_5" d="M-60,41.428571428571445C-53.333333333333336,41.428571428571445,-46.666666666666664,41.428571428571445,-40,41.428571428571445C-33.333333333333336,41.428571428571445,-26.666666666666668,41.428571428571445,-20,41.428571428571445C-13.333333333333332,41.428571428571445,-6.666666666666667,41.428571428571445,0,41.428571428571445" style="stroke: rgb(148, 103, 189); stroke-width: 2; fill: none;"/></g><text class="computeSig_label label" text-anchor="end" dx="-5" dy="0.5rem" fill="black" width="200" transform="translate(-180,283.09523809523813)">28</text></g><g class="node computeNode h29 statics" transform="translate(210,0)" style="pointer-events: auto;"><g class="computeSig" stroke="black" style="stroke-width: 2;"><path class="linegg timeline hgroup_2" d="M-180,324.5238095238095C-173.33333333333334,324.5238095238095,-166.66666666666666,324.5238095238095,-160,324.5238095238095C-153.33333333333334,324.5238095238095,-146.66666666666666,324.5238095238095,-140,324.5238095238095C-136.66666666666666,324.5238095238095,-133.33333333333334,324.5238095238095,-130,324.5238095238095C-126.66666666666667,324.5238095238095,-123.33333333333333,359.04761904761904,-120,393.57142857142856" style="stroke: rgb(255, 127, 14); stroke-width: 2; fill: none;"/><path class="linegg timeline hgroup_3" d="M-120,393.57142857142856C-113.33333333333333,393.57142857142856,-106.66666666666667,393.57142857142856,-100,393.57142857142856C-93.33333333333333,393.57142857142856,-86.66666666666667,393.57142857142856,-80,393.57142857142856C-76.66666666666667,393.57142857142856,-73.33333333333333,393.57142857142856,-70,393.57142857142856C-66.66666666666667,393.57142857142856,-63.333333333333336,265.8333333333333,-60,138.09523809523807" style="stroke: rgb(44, 160, 44); stroke-width: 2; fill: none;"/><path class="linegg timeline hgroup_4" d="M-60,138.09523809523807C-53.333333333333336,138.09523809523807,-46.666666666666664,138.09523809523807,-40,138.09523809523807C-33.333333333333336,138.09523809523807,-26.666666666666668,138.09523809523807,-20,138.09523809523807C-13.333333333333332,138.09523809523807,-6.666666666666667,138.09523809523807,0,138.09523809523807" style="stroke: rgb(214, 39, 40); stroke-width: 2; fill: none;"/></g><text class="computeSig_label label" text-anchor="end" dx="-5" dy="0.5rem" fill="black" width="200" transform="translate(-180,324.5238095238095)">29</text></g><g class="node computeNode h30 statics" transform="translate(210,0)" style="pointer-events: auto;"><g class="computeSig" stroke="black" style="stroke-width: 2;"><path class="linegg timeline hgroup_3" d="M-180,435C-173.33333333333334,435,-166.66666666666666,435,-160,435C-153.33333333333334,435,-146.66666666666666,435,-140,435C-133.33333333333334,435,-126.66666666666667,435,-120,435C-113.33333333333333,435,-106.66666666666667,435,-100,435C-93.33333333333333,435,-86.66666666666667,435,-80,435C-73.33333333333333,435,-66.66666666666667,435,-60,435C-53.333333333333336,435,-46.666666666666664,435,-40,435C-33.333333333333336,435,-26.666666666666668,435,-20,435C-13.333333333333332,435,-6.666666666666667,435,0,435" style="stroke: rgb(44, 160, 44); stroke-width: 2; fill: none;"/></g><text class="computeSig_label label" text-anchor="end" dx="-5" dy="0.5rem" fill="black" width="200" transform="translate(-180,435)">30</text></g></g><rect class="fisheyeLayer" style="opacity: 0; pointer-events: none;" width="180" height="480" transform="translate(120,0)"/><g class="table header" transform="translate(600,0)"><g class="back"><path style="fill: rgb(221, 221, 221);"/></g></g></g><g class="timebox hide" transform="translate(40,20)" dy="1rem" style="font-size: 16px;"/><circle id="tipfollowscursor"/></svg>