<svg id="jobmap" width="300" height="550" style="fill: none; font-size: 10px; font-family: sans-serif;" xmlns="http://www.w3.org/2000/svg" xmlns:xlink="http://www.w3.org/1999/xlink">

                    <defs id="defsmain"><pattern id="userpic" width="100%" height="100%" patternContentUnits="objectBoundingBox"><image height="1" width="1" preserveAspectRatio="none" xmlns:xlink="http://www.w3.org/1999/xlink" xlink:href="src/images/u.png"/></pattern><marker id="arrow" markerWidth="10" markerHeight="10" refX="0" refY="3" orient="auto" markerUnits="strokeWidth"><path d="M0,0 L0,6 L9,3 z" style="fill: black;"/></marker></defs><rect class="pantarget" opacity="0" width="1336" height="762"/><g class="pannel" transform="translate(50,50)"><text class="Time" text-anchor="middle" x="40" dy="-30" style="font-weight: bold; fill: black;">Time</text><line x1="60" x2="95" y1="-33" y2="-33" marker-end="url(#arrow)" style="stroke: black;"/><text class="Time" text-anchor="middle" x="-5" dy="-1rem" style="font-weight: bold; fill: black;">Instance</text><line x1="5" x2="5" y1="-5" y2="30" marker-end="url(#arrow)" style="stroke: black;"/><g class="gNodeaxis" transform="translate(210,-10)"><g class="gMainaxis" fill="none" font-size="10" font-family="sans-serif" text-anchor="middle"><g class="tick" opacity="1" transform="translate(-180, 0)"><line stroke="#000" y2="445" vector-effect="non-scaling-stroke" style="stroke-width: 0.1; stroke: black; stroke-dasharray: 1, 2; opacity: 0.5;"/><text fill="#000" y="-3" dy="-0.5rem">1</text></g><g class="tick" opacity="1" transform="translate(-160, 0)"><line stroke="#000" y2="445" vector-effect="non-scaling-stroke" style="stroke-width: 0.1; stroke: black; stroke-dasharray: 1, 2; opacity: 0.5;"/><text fill="#000" y="-3" dy="-0.5rem">2</text></g><g class="tick" opacity="1" transform="translate(-140, 0)"><line stroke="#000" y2="445" vector-effect="non-scaling-stroke" style="stroke-width: 0.1; stroke: black; stroke-dasharray: 1, 2; opacity: 0.5;"/><text fill="#000" y="-3" dy="-0.5rem">3</text></g><g class="tick" opacity="1" transform="translate(-120, 0)"><line stroke="#000" y2="445" vector-effect="non-scaling-stroke" style="stroke-width: 0.1; stroke: black; stroke-dasharray: 1, 2; opacity: 0.5;"/><text fill="#000" y="-3" dy="-0.5rem">4</text></g><g class="tick" opacity="1" transform="translate(-100, 0)"><line stroke="#000" y2="445" vector-effect="non-scaling-stroke" style="stroke-width: 0.1; stroke: black; stroke-dasharray: 1, 2; opacity: 0.5;"/><text fill="#000" y="-3" dy="-0.5rem">5</text></g><g class="tick" opacity="1" transform="translate(-80, 0)"><line stroke="#000" y2="445" vector-effect="non-scaling-stroke" style="stroke-width: 0.1; stroke: black; stroke-dasharray: 1, 2; opacity: 0.5;"/><text fill="#000" y="-3" dy="-0.5rem">6</text></g><g class="tick" opacity="1" transform="translate(-60, 0)"><line stroke="#000" y2="445" vector-effect="non-scaling-stroke" style="stroke-width: 0.1; stroke: black; stroke-dasharray: 1, 2; opacity: 0.5;"/><text fill="#000" y="-3" dy="-0.5rem">7</text></g><g class="tick" opacity="1" transform="translate(-40, 0)"><line stroke="#000" y2="445" vector-effect="non-scaling-stroke" style="stroke-width: 0.1; stroke: black; stroke-dasharray: 1, 2; opacity: 0.5;"/><text fill="#000" y="-3" dy="-0.5rem">8</text></g><g class="tick" opacity="1" transform="translate(-20, 0)"><line stroke="#000" y2="445" vector-effect="non-scaling-stroke" style="stroke-width: 0.1; stroke: black; stroke-dasharray: 1, 2; opacity: 0.5;"/><text fill="#000" y="-3" dy="-0.5rem">9</text></g><g class="tick" opacity="1" transform=""><line stroke="#000" y2="445" vector-effect="non-scaling-stroke" style="stroke-width: 0.1; stroke: black; stroke-dasharray: 1, 2; opacity: 0.5;"/><text fill="#000" y="-3" dy="-0.5rem">10</text></g></g><g class="gSubaxis hide"/></g><g class="annotation"/><g class="linkg"><g class="links" style="display: none;"><path stroke="black" style="stroke-width: 2;"/><text text-anchor="middle">1</text></g><g class="links" style="display: none;"><path stroke="black" style="stroke-width: 2;"/><text text-anchor="middle">1</text></g><g class="links" style="display: none;"><path stroke="black" style="stroke-width: 2;"/><text text-anchor="middle">1</text></g><g class="links" style="display: none;"><path stroke="black" style="stroke-width: 2;"/><text text-anchor="middle">1</text></g><g class="links" style="display: none;"><path stroke="black" style="stroke-width: 2;"/><text text-anchor="middle">1</text></g><g class="links" style="display: none;"><path stroke="black" style="stroke-width: 2;"/><text text-anchor="middle">1</text></g><g class="links" style="display: none;"><path stroke="black" style="stroke-width: 2;"/><text text-anchor="middle">1</text></g><g class="links" style="display: none;"><path stroke="black" style="stroke-width: 2;"/><text text-anchor="middle">1</text></g><g class="links" style="display: none;"><path stroke="black" style="stroke-width: 2;"/><text text-anchor="middle">1</text></g><g class="links" style="display: none;"><path stroke="black" style="stroke-width: 2;"/><text text-anchor="middle">1</text></g><g class="links" style="display: none;"><path stroke="black" style="stroke-width: 2;"/><text text-anchor="middle">1</text></g><g class="links" style="display: none;"><path stroke="black" style="stroke-width: 2;"/><text text-anchor="middle">1</text></g><g class="links" style="display: none;"><path stroke="black" style="stroke-width: 2;"/><text text-anchor="middle">1</text></g><g class="links" style="display: none;"><path stroke="black" style="stroke-width: 2;"/><text text-anchor="middle">1</text></g><g class="links" style="display: none;"><path stroke="black" style="stroke-width: 2;"/><text text-anchor="middle">1</text></g><g class="links" style="display: none;"><path stroke="black" style="stroke-width: 2;"/><text text-anchor="middle">1</text></g><g class="links" style="display: none;"><path stroke="black" style="stroke-width: 2;"/><text text-anchor="middle">1</text></g><g class="links" style="display: none;"><path stroke="black" style="stroke-width: 2;"/><text text-anchor="middle">1</text></g><g class="links" style="display: none;"><path stroke="black" style="stroke-width: 2;"/><text text-anchor="middle">1</text></g><g class="links" style="display: none;"><path stroke="black" style="stroke-width: 2;"/><text text-anchor="middle">1</text></g><g class="links" style="display: none;"><path stroke="black" style="stroke-width: 2;"/><text text-anchor="middle">1</text></g><g class="links" style="display: none;"><path stroke="black" style="stroke-width: 2;"/><text text-anchor="middle">1</text></g><g class="links" style="display: none;"><path stroke="black" style="stroke-width: 2;"/><text text-anchor="middle">1</text></g><g class="links" style="display: none;"><path stroke="black" style="stroke-width: 2;"/><text text-anchor="middle">1</text></g><g class="links" style="display: none;"><path stroke="black" style="stroke-width: 2;"/><text text-anchor="middle">1</text></g><g class="links" style="display: none;"><path stroke="black" style="stroke-width: 2;"/><text text-anchor="middle">1</text></g><g class="links" style="display: none;"><path stroke="black" style="stroke-width: 2;"/><text text-anchor="middle">1</text></g><g class="links" style="display: none;"><path stroke="black" style="stroke-width: 2;"/><text text-anchor="middle">1</text></g><g class="links" style="display: none;"><path stroke="black" style="stroke-width: 2;"/><text text-anchor="middle">1</text></g><g class="links" style="display: none;"><path stroke="black" style="stroke-width: 2;"/><text text-anchor="middle">1</text></g><g class="links" style="display: none;"><path stroke="black" style="stroke-width: 2;"/><text text-anchor="middle">1</text></g></g><g class="nodeg"><g class="node computeNode h1 statics" transform="translate(210,0)" style="pointer-events: auto;"><g class="computeSig" stroke="black" style="stroke-width: 2;"><path class="linegg timeline hgroup_1" d="M-180,198.42105263157893C-173.33333333333334,198.42105263157893,-166.66666666666666,198.42105263157893,-160,198.42105263157893C-156.66666666666666,198.42105263157893,-153.33333333333334,198.42105263157893,-150,198.42105263157893C-146.66666666666666,198.42105263157893,-143.33333333333334,144.99999999999997,-140,91.57894736842104" style="stroke: rgb(31, 119, 180); stroke-width: 2; fill: none;"/><path class="linegg timeline hgroup_3" d="M-140,91.57894736842104C-133.33333333333334,91.57894736842104,-126.66666666666667,91.57894736842104,-120,91.57894736842104C-113.33333333333333,91.57894736842104,-106.66666666666667,91.57894736842104,-100,91.57894736842104C-93.33333333333333,91.57894736842104,-86.66666666666667,91.57894736842104,-80,91.57894736842104C-76.66666666666667,91.57894736842104,-73.33333333333333,91.57894736842104,-70,91.57894736842104C-66.66666666666667,91.57894736842104,-63.333333333333336,145,-60,198.42105263157893" style="stroke: rgb(44, 160, 44); stroke-width: 2; fill: none;"/><path class="linegg timeline hgroup_1" d="M-60,198.42105263157893C-53.333333333333336,198.42105263157893,-46.666666666666664,198.42105263157893,-40,198.42105263157893C-36.666666666666664,198.42105263157893,-33.333333333333336,198.42105263157893,-30,198.42105263157893C-26.666666666666668,198.42105263157893,-23.333333333333332,144.99999999999997,-20,91.57894736842104" style="stroke: rgb(31, 119, 180); stroke-width: 2; fill: none;"/><path class="linegg timeline hgroup_3" d="M-20,91.57894736842104L0,91.57894736842104" style="stroke: rgb(44, 160, 44); stroke-width: 2; fill: none;"/></g><text class="computeSig_label label" text-anchor="end" dx="-5" dy="0.5rem" fill="black" width="200" transform="translate(-180,198.42105263157893)">1</text></g><g class="node computeNode h2 statics" transform="translate(210,0)" style="pointer-events: auto;"><g class="computeSig" stroke="black" style="stroke-width: 2;"><path class="linegg timeline hgroup_1" d="M-180,228.94736842105263C-173.33333333333334,228.94736842105263,-166.66666666666666,228.94736842105263,-160,228.94736842105263C-153.33333333333334,228.94736842105263,-146.66666666666666,228.94736842105263,-140,228.94736842105263C-133.33333333333334,228.94736842105263,-126.66666666666667,228.94736842105263,-120,228.94736842105263C-113.33333333333333,228.94736842105263,-106.66666666666667,228.94736842105263,-100,228.94736842105263C-93.33333333333333,228.94736842105263,-86.66666666666667,228.94736842105263,-80,228.94736842105263C-73.33333333333333,228.94736842105263,-66.66666666666667,228.94736842105263,-60,228.94736842105263C-53.333333333333336,228.94736842105263,-46.666666666666664,228.94736842105263,-40,228.94736842105263C-33.333333333333336,228.94736842105263,-26.666666666666668,228.94736842105263,-20,228.94736842105263C-13.333333333333332,228.94736842105263,-6.666666666666667,228.94736842105263,0,228.94736842105263" style="stroke: rgb(31, 119, 180); stroke-width: 2; fill: none;"/></g><text class="computeSig_label label" text-anchor="end" dx="-5" dy="0.5rem" fill="black" width="200" transform="translate(-180,228.94736842105263)">2</text></g><g class="node computeNode h3 statics" transform="translate(210,0)" style="pointer-events: auto;"><g class="computeSig" stroke="black" style="stroke-width: 2;"><path class="linegg timeline hgroup_2" d="M-180,328.15789473684214C-173.33333333333334,328.15789473684214,-166.66666666666666,328.15789473684214,-160,328.15789473684214C-153.33333333333334,328.15789473684214,-146.66666666666666,328.15789473684214,-140,328.15789473684214C-136.66666666666666,328.15789473684214,-133.33333333333334,328.15789473684214,-130,328.15789473684214C-126.66666666666667,328.15789473684214,-123.33333333333333,293.8157894736842,-120,259.4736842105263" style="stroke: rgb(255, 127, 14); stroke-width: 2; fill: none;"/><path class="linegg timeline hgroup_1" d="M-120,259.4736842105263C-113.33333333333333,259.4736842105263,-106.66666666666667,259.4736842105263,-100,259.4736842105263C-93.33333333333333,259.4736842105263,-86.66666666666667,259.4736842105263,-80,259.4736842105263C-73.33333333333333,259.4736842105263,-66.66666666666667,259.4736842105263,-60,259.4736842105263C-53.333333333333336,259.4736842105263,-46.666666666666664,259.4736842105263,-40,259.4736842105263C-33.333333333333336,259.4736842105263,-26.666666666666668,259.4736842105263,-20,259.4736842105263C-13.333333333333332,259.4736842105263,-6.666666666666667,259.4736842105263,0,259.4736842105263" style="stroke: rgb(31, 119, 180); stroke-width: 2; fill: none;"/></g><text class="computeSig_label label" text-anchor="end" dx="-5" dy="0.5rem" fill="black" width="200" transform="translate(-180,328.15789473684214)">3</text></g><g class="node computeNode h4 statics" transform="translate(210,0)" style="pointer-events: auto;"><g class="computeSig" stroke="black" style="stroke-width: 2;"><path class="linegg timeline hgroup_3" d="M-180,53.421052631578945C-173.33333333333334,53.421052631578945,-166.66666666666666,53.421052631578945,-160,53.421052631578945C-153.33333333333334,53.421052631578945,-146.66666666666666,53.421052631578945,-140,53.421052631578945C-133.33333333333334,53.421052631578945,-126.66666666666667,53.421052631578945,-120,53.421052631578945C-113.33333333333333,53.421052631578945,-106.66666666666667,53.421052631578945,-100,53.421052631578945C-93.33333333333333,53.421052631578945,-86.66666666666667,53.421052631578945,-80,53.421052631578945C-73.33333333333333,53.421052631578945,-66.66666666666667,53.421052631578945,-60,53.421052631578945C-53.333333333333336,53.421052631578945,-46.666666666666664,53.421052631578945,-40,53.421052631578945C-33.333333333333336,53.421052631578945,-26.666666666666668,53.421052631578945,-20,53.421052631578945C-13.333333333333332,53.421052631578945,-6.666666666666667,53.421052631578945,0,53.421052631578945" style="stroke: rgb(44, 160, 44); stroke-width: 2; fill: none;"/></g><text class="computeSig_label label" text-anchor="end" dx="-5" dy="0.5rem" fill="black" width="200" transform="translate(-180,53.421052631578945)">4</text></g><g class="node computeNode h5 statics" transform="translate(210,0)" style="pointer-events: auto;"><g class="computeSig" stroke="black" style="stroke-width: 2;"><path class="linegg timeline hgroup_2" d="M-180,335.7894736842105C-173.33333333333334,335.7894736842105,-166.66666666666666,335.7894736842105,-160,335.7894736842105C-153.33333333333334,335.7894736842105,-146.66666666666666,335.7894736842105,-140,335.7894736842105C-133.33333333333334,335.7894736842105,-126.66666666666667,335.7894736842105,-120,335.7894736842105C-113.33333333333333,335.7894736842105,-106.66666666666667,335.7894736842105,-100,335.7894736842105C-93.33333333333333,335.7894736842105,-86.66666666666667,335.7894736842105,-80,335.7894736842105C-73.33333333333333,335.7894736842105,-66.66666666666667,335.7894736842105,-60,335.7894736842105C-53.333333333333336,335.7894736842105,-46.666666666666664,335.7894736842105,-40,335.7894736842105C-33.333333333333336,335.7894736842105,-26.666666666666668,335.7894736842105,-20,335.7894736842105C-13.333333333333332,335.7894736842105,-6.666666666666667,335.7894736842105,0,335.7894736842105" style="stroke: rgb(255, 127, 14); stroke-width: 2; fill: none;"/></g><text class="computeSig_label label" text-anchor="end" dx="-5" dy="0.5rem" fill="black" width="200" transform="translate(-180,335.7894736842105)">5</text></g><g class="node computeNode h6 statics" transform="translate(210,0)" style="pointer-events: auto;"><g class="computeSig" stroke="black" style="stroke-width: 2;"><path class="linegg timeline hgroup_4" d="M-180,435C-173.33333333333334,435,-166.66666666666666,435,-160,435C-153.33333333333334,435,-146.66666666666666,435,-140,435C-133.33333333333334,435,-126.66666666666667,435,-120,435C-113.33333333333333,435,-106.66666666666667,435,-100,435C-93.33333333333333,435,-86.66666666666667,435,-80,435C-73.33333333333333,435,-66.66666666666667,435,-60,435C-53.333333333333336,435,-46.666666666666664,435,-40,435C-33.333333333333336,435,-26.666666666666668,435,-20,435C-13.333333333333332,435,-6.666666666666667,435,0,435" style="stroke: rgb(214, 39, 40); stroke-width: 2; fill: none;"/></g><text class="computeSig_label label" text-anchor="end" dx="-5" dy="0.5rem" fill="black" width="200" transform="translate(-180,435)">6</text></g><g class="node computeNode h7 statics" transform="translate(210,0)" style="pointer-events: auto;"><g class="computeSig" stroke="black" style="stroke-width: 2;"><path class="linegg timeline hgroup_3" d="M-180,61.05263157894736C-173.33333333333334,61.05263157894736,-166.66666666666666,61.05263157894736,-160,61.05263157894736C-153.33333333333334,61.05263157894736,-146.66666666666666,61.05263157894736,-140,61.05263157894736C-133.33333333333334,61.05263157894736,-126.66666666666667,61.05263157894736,-120,61.05263157894736C-113.33333333333333,61.05263157894736,-106.66666666666667,61.05263157894736,-100,61.05263157894736C-93.33333333333333,61.05263157894736,-86.66666666666667,61.05263157894736,-80,61.05263157894736C-73.33333333333333,61.05263157894736,-66.66666666666667,61.05263157894736,-60,61.05263157894736C-53.333333333333336,61.05263157894736,-46.666666666666664,61.05263157894736,-40,61.05263157894736C-33.333333333333336,61.05263157894736,-26.666666666666668,61.05263157894736,-20,61.05263157894736C-13.333333333333332,61.05263157894736,-6.666666666666667,61.05263157894736,0,61.05263157894736" style="stroke: rgb(44, 160, 44); stroke-width: 2; fill: none;"/></g><text class="computeSig_label label" text-anchor="end" dx="-5" dy="0.5rem" fill="black" width="200" transform="translate(-180,61.05263157894736)">7</text></g><g class="node computeNode h8 statics" transform="translate(210,0)" style="pointer-events: auto;"><g class="computeSig" stroke="black" style="stroke-width: 2;"><path class="linegg timeline hgroup_2" d="M-180,343.42105263157896C-173.33333333333334,343.42105263157896,-166.66666666666666,343.42105263157896,-160,343.42105263157896C-153.33333333333334,343.42105263157896,-146.66666666666666,343.42105263157896,-140,343.42105263157896C-133.33333333333334,343.42105263157896,-126.66666666666667,343.42105263157896,-120,343.42105263157896C-113.33333333333333,343.42105263157896,-106.66666666666667,343.42105263157896,-100,343.42105263157896C-93.33333333333333,343.42105263157896,-86.66666666666667,343.42105263157896,-80,343.42105263157896C-73.33333333333333,343.42105263157896,-66.66666666666667,343.42105263157896,-60,343.42105263157896C-53.333333333333336,343.42105263157896,-46.666666666666664,343.42105263157896,-40,343.42105263157896C-33.333333333333336,343.42105263157896,-26.666666666666668,343.42105263157896,-20,343.42105263157896C-13.333333333333332,343.42105263157896,-6.666666666666667,343.42105263157896,0,343.42105263157896" style="stroke: rgb(255, 127, 14); stroke-width: 2; fill: none;"/></g><text class="computeSig_label label" text-anchor="end" dx="-5" dy="0.5rem" fill="black" width="200" transform="translate(-180,343.42105263157896)">8</text></g><g class="node computeNode h9 statics" transform="translate(210,0)" style="pointer-events: auto;"><g class="computeSig" stroke="black" style="stroke-width: 2;"><path class="linegg timeline hgroup_1" d="M-180,190.78947368421052C-173.33333333333334,190.78947368421052,-166.66666666666666,190.78947368421052,-160,190.78947368421052C-153.33333333333334,190.78947368421052,-146.66666666666666,190.78947368421052,-140,190.78947368421052C-136.66666666666666,190.78947368421052,-133.33333333333334,190.78947368421052,-130,190.78947368421052C-126.66666666666667,190.78947368421052,-123.33333333333333,137.36842105263156,-120,83.94736842105263" style="stroke: rgb(31, 119, 180); stroke-width: 2; fill: none;"/><path class="linegg timeline hgroup_3" d="M-120,83.94736842105263C-113.33333333333333,83.94736842105263,-106.66666666666667,83.94736842105263,-100,83.94736842105263C-93.33333333333333,83.94736842105263,-86.66666666666667,83.94736842105263,-80,83.94736842105263C-73.33333333333333,83.94736842105263,-66.66666666666667,83.94736842105263,-60,83.94736842105263C-53.333333333333336,83.94736842105263,-46.666666666666664,83.94736842105263,-40,83.94736842105263C-33.333333333333336,83.94736842105263,-26.666666666666668,83.94736842105263,-20,83.94736842105263C-13.333333333333332,83.94736842105263,-6.666666666666667,83.94736842105263,0,83.94736842105263" style="stroke: rgb(44, 160, 44); stroke-width: 2; fill: none;"/></g><text class="computeSig_label label" text-anchor="end" dx="-5" dy="0.5rem" fill="black" width="200" transform="translate(-180,190.78947368421052)">9</text></g><g class="node computeNode h10 statics" transform="translate(210,0)" style="pointer-events: auto;"><g class="computeSig" stroke="black" style="stroke-width: 2;"><path class="linegg timeline hgroup_1" d="M-180,183.15789473684208C-173.33333333333334,183.15789473684208,-166.66666666666666,183.15789473684208,-160,183.15789473684208C-153.33333333333334,183.15789473684208,-146.66666666666666,183.15789473684208,-140,183.15789473684208C-133.33333333333334,183.15789473684208,-126.66666666666667,183.15789473684208,-120,183.15789473684208C-116.66666666666667,183.15789473684208,-113.33333333333333,183.15789473684208,-110,183.15789473684208C-106.66666666666667,183.15789473684208,-103.33333333333333,103.02631578947367,-100,22.89473684210526" style="stroke: rgb(31, 119, 180); stroke-width: 2; fill: none;"/><path class="linegg timeline hgroup_5" d="M-100,22.89473684210526C-93.33333333333333,22.89473684210526,-86.66666666666667,22.89473684210526,-80,22.89473684210526C-73.33333333333333,22.89473684210526,-66.66666666666667,22.89473684210526,-60,22.89473684210526C-56.666666666666664,22.89473684210526,-53.333333333333336,22.89473684210526,-50,22.89473684210526C-46.666666666666664,22.89473684210526,-43.333333333333336,49.60526315789474,-40,76.3157894736842" style="stroke: rgb(148, 103, 189); stroke-width: 2; fill: none;"/><path class="linegg timeline hgroup_3" d="M-40,76.3157894736842C-33.333333333333336,76.3157894736842,-26.666666666666668,76.3157894736842,-20,76.3157894736842C-13.333333333333332,76.3157894736842,-6.666666666666667,76.3157894736842,0,76.3157894736842" style="stroke: rgb(44, 160, 44); stroke-width: 2; fill: none;"/></g><text class="computeSig_label label" text-anchor="end" dx="-5" dy="0.5rem" fill="black" width="200" transform="translate(-180,183.15789473684208)">10</text></g><g class="node computeNode h11 statics" transform="translate(210,0)" style="pointer-events: auto;"><g class="computeSig" stroke="black" style="stroke-width: 2;"><path class="linegg timeline hgroup_4" d="M-180,389.2105263157895C-173.33333333333334,389.2105263157895,-166.66666666666666,389.2105263157895,-160,389.2105263157895C-156.66666666666666,389.2105263157895,-153.33333333333334,389.2105263157895,-150,389.2105263157895C-146.66666666666666,389.2105263157895,-143.33333333333334,248.02631578947367,-140,106.84210526315789" style="stroke: rgb(214, 39, 40); stroke-width: 2; fill: none;"/><path class="linegg timeline hgroup_3" d="M-140,106.84210526315789C-133.33333333333334,106.84210526315789,-126.66666666666667,106.84210526315789,-120,106.84210526315789C-113.33333333333333,106.84210526315789,-106.66666666666667,106.84210526315789,-100,106.84210526315789C-93.33333333333333,106.84210526315789,-86.66666666666667,106.84210526315789,-80,106.84210526315789C-73.33333333333333,106.84210526315789,-66.66666666666667,106.84210526315789,-60,106.84210526315789C-53.333333333333336,106.84210526315789,-46.666666666666664,106.84210526315789,-40,106.84210526315789C-33.333333333333336,106.84210526315789,-26.666666666666668,106.84210526315789,-20,106.84210526315789C-13.333333333333332,106.84210526315789,-6.666666666666667,106.84210526315789,0,106.84210526315789" style="stroke: rgb(44, 160, 44); stroke-width: 2; fill: none;"/></g><text class="computeSig_label label" text-anchor="end" dx="-5" dy="0.5rem" fill="black" width="200" transform="translate(-180,389.2105263157895)">11</text></g><g class="node computeNode h12 statics" transform="translate(210,0)" style="pointer-events: auto;"><g class="computeSig" stroke="black" style="stroke-width: 2;"><path class="linegg timeline hgroup_1" d="M-180,267.10526315789474C-173.33333333333334,267.10526315789474,-166.66666666666666,267.10526315789474,-160,267.10526315789474C-153.33333333333334,267.10526315789474,-146.66666666666666,267.10526315789474,-140,267.10526315789474C-133.33333333333334,267.10526315789474,-126.66666666666667,267.10526315789474,-120,267.10526315789474C-113.33333333333333,267.10526315789474,-106.66666666666667,267.10526315789474,-100,267.10526315789474C-96.66666666666667,267.10526315789474,-93.33333333333333,267.10526315789474,-90,267.10526315789474C-86.66666666666667,267.10526315789474,-83.33333333333333,339.60526315789474,-80,412.10526315789474" style="stroke: rgb(31, 119, 180); stroke-width: 2; fill: none;"/><path class="linegg timeline hgroup_4" d="M-80,412.10526315789474C-73.33333333333333,412.10526315789474,-66.66666666666667,412.10526315789474,-60,412.10526315789474C-53.333333333333336,412.10526315789474,-46.666666666666664,412.10526315789474,-40,412.10526315789474C-36.666666666666664,412.10526315789474,-33.333333333333336,412.10526315789474,-30,412.10526315789474C-26.666666666666668,412.10526315789474,-23.333333333333332,282.36842105263156,-20,152.6315789473684" style="stroke: rgb(214, 39, 40); stroke-width: 2; fill: none;"/><path class="linegg timeline hgroup_3" d="M-20,152.6315789473684L0,152.6315789473684" style="stroke: rgb(44, 160, 44); stroke-width: 2; fill: none;"/></g><text class="computeSig_label label" text-anchor="end" dx="-5" dy="0.5rem" fill="black" width="200" transform="translate(-180,267.10526315789474)">12</text></g><g class="node computeNode h13 statics" transform="translate(210,0)" style="pointer-events: auto;"><g class="computeSig" stroke="black" style="stroke-width: 2;"><path class="linegg timeline hgroup_4" d="M-180,419.7368421052632C-173.33333333333334,419.7368421052632,-166.66666666666666,419.7368421052632,-160,419.7368421052632C-153.33333333333334,419.7368421052632,-146.66666666666666,419.7368421052632,-140,419.7368421052632C-133.33333333333334,419.7368421052632,-126.66666666666667,419.7368421052632,-120,419.7368421052632C-113.33333333333333,419.7368421052632,-106.66666666666667,419.7368421052632,-100,419.7368421052632C-96.66666666666667,419.7368421052632,-93.33333333333333,419.7368421052632,-90,419.7368421052632C-86.66666666666667,419.7368421052632,-83.33333333333333,290,-80,160.26315789473682" style="stroke: rgb(214, 39, 40); stroke-width: 2; fill: none;"/><path class="linegg timeline hgroup_3" d="M-80,160.26315789473682C-73.33333333333333,160.26315789473682,-66.66666666666667,160.26315789473682,-60,160.26315789473682C-53.333333333333336,160.26315789473682,-46.666666666666664,160.26315789473682,-40,160.26315789473682C-33.333333333333336,160.26315789473682,-26.666666666666668,160.26315789473682,-20,160.26315789473682C-13.333333333333332,160.26315789473682,-6.666666666666667,160.26315789473682,0,160.26315789473682" style="stroke: rgb(44, 160, 44); stroke-width: 2; fill: none;"/></g><text class="computeSig_label label" text-anchor="end" dx="-5" dy="0.5rem" fill="black" width="200" transform="translate(-180,419.7368421052632)">13</text></g><g class="node computeNode h14 statics" transform="translate(210,0)" style="pointer-events: auto;"><g class="computeSig" stroke="black" style="stroke-width: 2;"><path class="linegg timeline hgroup_2" d="M-180,351.05263157894734C-173.33333333333334,351.05263157894734,-166.66666666666666,351.05263157894734,-160,351.05263157894734C-153.33333333333334,351.05263157894734,-146.66666666666666,351.05263157894734,-140,351.05263157894734C-133.33333333333334,351.05263157894734,-126.66666666666667,351.05263157894734,-120,351.05263157894734C-113.33333333333333,351.05263157894734,-106.66666666666667,351.05263157894734,-100,351.05263157894734C-93.33333333333333,351.05263157894734,-86.66666666666667,351.05263157894734,-80,351.05263157894734C-73.33333333333333,351.05263157894734,-66.66666666666667,351.05263157894734,-60,351.05263157894734C-53.333333333333336,351.05263157894734,-46.666666666666664,351.05263157894734,-40,351.05263157894734C-33.333333333333336,351.05263157894734,-26.666666666666668,351.05263157894734,-20,351.05263157894734C-13.333333333333332,351.05263157894734,-6.666666666666667,351.05263157894734,0,351.05263157894734" style="stroke: rgb(255, 127, 14); stroke-width: 2; fill: none;"/></g><text class="computeSig_label label" text-anchor="end" dx="-5" dy="0.5rem" fill="black" width="200" transform="translate(-180,351.05263157894734)">14</text></g><g class="node computeNode h15 statics" transform="translate(210,0)" style="pointer-events: auto;"><g class="computeSig" stroke="black" style="stroke-width: 2;"><path class="linegg timeline hgroup_4" d="M-180,427.36842105263156C-173.33333333333334,427.36842105263156,-166.66666666666666,427.36842105263156,-160,427.36842105263156C-153.33333333333334,427.36842105263156,-146.66666666666666,427.36842105263156,-140,427.36842105263156C-133.33333333333334,427.36842105263156,-126.66666666666667,427.36842105263156,-120,427.36842105263156C-113.33333333333333,427.36842105263156,-106.66666666666667,427.36842105263156,-100,427.36842105263156C-96.66666666666667,427.36842105263156,-93.33333333333333,427.36842105263156,-90,427.36842105263156C-86.66666666666667,427.36842105263156,-83.33333333333333,400.6578947368421,-80,373.94736842105266" style="stroke: rgb(214, 39, 40); stroke-width: 2; fill: none;"/><path class="linegg timeline hgroup_2" d="M-80,373.94736842105266C-73.33333333333333,373.94736842105266,-66.66666666666667,373.94736842105266,-60,373.94736842105266C-56.666666666666664,373.94736842105266,-53.333333333333336,373.94736842105266,-50,373.94736842105266C-46.666666666666664,373.94736842105266,-43.333333333333336,324.3421052631579,-40,274.7368421052631" style="stroke: rgb(255, 127, 14); stroke-width: 2; fill: none;"/><path class="linegg timeline hgroup_1" d="M-40,274.7368421052631C-33.333333333333336,274.7368421052631,-26.666666666666668,274.7368421052631,-20,274.7368421052631C-13.333333333333332,274.7368421052631,-6.666666666666667,274.7368421052631,0,274.7368421052631" style="stroke: rgb(31, 119, 180); stroke-width: 2; fill: none;"/></g><text class="computeSig_label label" text-anchor="end" dx="-5" dy="0.5rem" fill="black" width="200" transform="translate(-180,427.36842105263156)">15</text></g><g class="node computeNode h16 statics" transform="translate(210,0)" style="pointer-events: auto;"><g class="computeSig" stroke="black" style="stroke-width: 2;"><path class="linegg timeline hgroup_1" d="M-180,236.57894736842107C-173.33333333333334,236.57894736842107,-166.66666666666666,236.57894736842107,-160,236.57894736842107C-153.33333333333334,236.57894736842107,-146.66666666666666,236.57894736842107,-140,236.57894736842107C-133.33333333333334,236.57894736842107,-126.66666666666667,236.57894736842107,-120,236.57894736842107C-113.33333333333333,236.57894736842107,-106.66666666666667,236.57894736842107,-100,236.57894736842107C-93.33333333333333,236.57894736842107,-86.66666666666667,236.57894736842107,-80,236.57894736842107C-73.33333333333333,236.57894736842107,-66.66666666666667,236.57894736842107,-60,236.57894736842107C-53.333333333333336,236.57894736842107,-46.666666666666664,236.57894736842107,-40,236.57894736842107C-33.333333333333336,236.57894736842107,-26.666666666666668,236.57894736842107,-20,236.57894736842107C-13.333333333333332,236.57894736842107,-6.666666666666667,236.57894736842107,0,236.57894736842107" style="stroke: rgb(31, 119, 180); stroke-width: 2; fill: none;"/></g><text class="computeSig_label label" text-anchor="end" dx="-5" dy="0.5rem" fill="black" width="200" transform="translate(-180,236.57894736842107)">16</text></g><g class="node computeNode h17 statics" transform="translate(210,0)" style="pointer-events: auto;"><g class="computeSig" stroke="black" style="stroke-width: 2;"><path class="linegg timeline hgroup_3" d="M-180,45.78947368421052C-173.33333333333334,45.78947368421052,-166.66666666666666,45.78947368421052,-160,45.78947368421052C-153.33333333333334,45.78947368421052,-146.66666666666666,45.78947368421052,-140,45.78947368421052C-133.33333333333334,45.78947368421052,-126.66666666666667,45.78947368421052,-120,45.78947368421052C-113.33333333333333,45.78947368421052,-106.66666666666667,45.78947368421052,-100,45.78947368421052C-93.33333333333333,45.78947368421052,-86.66666666666667,45.78947368421052,-80,45.78947368421052C-73.33333333333333,45.78947368421052,-66.66666666666667,45.78947368421052,-60,45.78947368421052C-56.666666666666664,45.78947368421052,-53.333333333333336,45.78947368421052,-50,45.78947368421052C-46.666666666666664,45.78947368421052,-43.333333333333336,30.52631578947368,-40,15.26315789473684" style="stroke: rgb(44, 160, 44); stroke-width: 2; fill: none;"/><path class="linegg timeline hgroup_5" d="M-40,15.26315789473685C-33.333333333333336,15.26315789473685,-26.666666666666668,15.26315789473685,-20,15.26315789473685C-13.333333333333332,15.26315789473685,-6.666666666666667,15.26315789473685,0,15.26315789473685" style="stroke: rgb(148, 103, 189); stroke-width: 2; fill: none;"/></g><text class="computeSig_label label" text-anchor="end" dx="-5" dy="0.5rem" fill="black" width="200" transform="translate(-180,45.78947368421052)">17</text></g><g class="node computeNode h18 statics" transform="translate(210,0)" style="pointer-events: auto;"><g class="computeSig" stroke="black" style="stroke-width: 2;"><path class="linegg timeline hgroup_1" d="M-180,213.68421052631578C-173.33333333333334,213.68421052631578,-166.66666666666666,213.68421052631578,-160,213.68421052631578C-153.33333333333334,213.68421052631578,-146.66666666666666,213.68421052631578,-140,213.68421052631578C-133.33333333333334,213.68421052631578,-126.66666666666667,213.68421052631578,-120,213.68421052631578C-113.33333333333333,213.68421052631578,-106.66666666666667,213.68421052631578,-100,213.68421052631578C-93.33333333333333,213.68421052631578,-86.66666666666667,213.68421052631578,-80,213.68421052631578C-76.66666666666667,213.68421052631578,-73.33333333333333,213.68421052631578,-70,213.68421052631578C-66.66666666666667,213.68421052631578,-63.333333333333336,164.07894736842104,-60,114.47368421052632" style="stroke: rgb(31, 119, 180); stroke-width: 2; fill: none;"/><path class="linegg timeline hgroup_3" d="M-60,114.47368421052633C-53.333333333333336,114.47368421052633,-46.666666666666664,114.47368421052633,-40,114.47368421052633C-33.333333333333336,114.47368421052633,-26.666666666666668,114.47368421052633,-20,114.47368421052633C-13.333333333333332,114.47368421052633,-6.666666666666667,114.47368421052633,0,114.47368421052633" style="stroke: rgb(44, 160, 44); stroke-width: 2; fill: none;"/></g><text class="computeSig_label label" text-anchor="end" dx="-5" dy="0.5rem" fill="black" width="200" transform="translate(-180,213.68421052631578)">18</text></g><g class="node computeNode h19 statics" transform="translate(210,0)" style="pointer-events: auto;"><g class="computeSig" stroke="black" style="stroke-width: 2;"><path class="linegg timeline hgroup_2" d="M-180,358.6842105263158C-173.33333333333334,358.6842105263158,-166.66666666666666,358.6842105263158,-160,358.6842105263158C-153.33333333333334,358.6842105263158,-146.66666666666666,358.6842105263158,-140,358.6842105263158C-133.33333333333334,358.6842105263158,-126.66666666666667,358.6842105263158,-120,358.6842105263158C-113.33333333333333,358.6842105263158,-106.66666666666667,358.6842105263158,-100,358.6842105263158C-93.33333333333333,358.6842105263158,-86.66666666666667,358.6842105263158,-80,358.6842105263158C-73.33333333333333,358.6842105263158,-66.66666666666667,358.6842105263158,-60,358.6842105263158C-53.333333333333336,358.6842105263158,-46.666666666666664,358.6842105263158,-40,358.6842105263158C-33.333333333333336,358.6842105263158,-26.666666666666668,358.6842105263158,-20,358.6842105263158C-13.333333333333332,358.6842105263158,-6.666666666666667,358.6842105263158,0,358.6842105263158" style="stroke: rgb(255, 127, 14); stroke-width: 2; fill: none;"/></g><text class="computeSig_label label" text-anchor="end" dx="-5" dy="0.5rem" fill="black" width="200" transform="translate(-180,358.6842105263158)">19</text></g><g class="node computeNode h20 statics" transform="translate(210,0)" style="pointer-events: auto;"><g class="computeSig" stroke="black" style="stroke-width: 2;"><path class="linegg timeline hgroup_5" d="M-180,7.631578947368439C-173.33333333333334,7.631578947368439,-166.66666666666666,7.631578947368439,-160,7.631578947368439C-153.33333333333334,7.631578947368439,-146.66666666666666,7.631578947368439,-140,7.631578947368439C-133.33333333333334,7.631578947368439,-126.66666666666667,7.631578947368439,-120,7.631578947368439C-113.33333333333333,7.631578947368439,-106.66666666666667,7.631578947368439,-100,7.631578947368439C-93.33333333333333,7.631578947368439,-86.66666666666667,7.631578947368439,-80,7.631578947368439C-73.33333333333333,7.631578947368439,-66.66666666666667,7.631578947368439,-60,7.631578947368439C-56.666666666666664,7.63157894736842,-53.333333333333336,7.63157894736842,-50,7.63157894736842C-46.666666666666664,7.63157894736842,-43.333333333333336,91.57894736842104,-40,175.52631578947367" style="stroke: rgb(148, 103, 189); stroke-width: 2; fill: none;"/><path class="linegg timeline hgroup_1" d="M-40,175.52631578947367C-33.333333333333336,175.52631578947367,-26.666666666666668,175.52631578947367,-20,175.52631578947367C-13.333333333333332,175.52631578947367,-6.666666666666667,175.52631578947367,0,175.52631578947367" style="stroke: rgb(31, 119, 180); stroke-width: 2; fill: none;"/></g><text class="computeSig_label label" text-anchor="end" dx="-5" dy="0.5rem" fill="black" width="200" transform="translate(-180,7.63157894736842)">20</text></g><g class="node computeNode h21 statics" transform="translate(210,0)" style="pointer-events: auto;"><g class="computeSig" stroke="black" style="stroke-width: 2;"><path class="linegg timeline hgroup_3" d="M-180,145C-173.33333333333334,145,-166.66666666666666,145,-160,145C-153.33333333333334,145,-146.66666666666666,145,-140,145C-133.33333333333334,145,-126.66666666666667,145,-120,145C-116.66666666666667,145,-113.33333333333333,145,-110,145C-106.66666666666667,145,-103.33333333333333,232.76315789473682,-100,320.52631578947364" style="stroke: rgb(44, 160, 44); stroke-width: 2; fill: none;"/><path class="linegg timeline hgroup_2" d="M-100,320.52631578947364C-93.33333333333333,320.52631578947364,-86.66666666666667,320.52631578947364,-80,320.52631578947364C-73.33333333333333,320.52631578947364,-66.66666666666667,320.52631578947364,-60,320.52631578947364C-53.333333333333336,320.52631578947364,-46.666666666666664,320.52631578947364,-40,320.52631578947364C-33.333333333333336,320.52631578947364,-26.666666666666668,320.52631578947364,-20,320.52631578947364C-13.333333333333332,320.52631578947364,-6.666666666666667,320.52631578947364,0,320.52631578947364" style="stroke: rgb(255, 127, 14); stroke-width: 2; fill: none;"/></g><text class="computeSig_label label" text-anchor="end" dx="-5" dy="0.5rem" fill="black" width="200" transform="translate(-180,145)">21</text></g><g class="node computeNode h22 statics" transform="translate(210,0)" style="pointer-events: auto;"><g class="computeSig" stroke="black" style="stroke-width: 2;"><path class="linegg timeline hgroup_1" d="M-180,221.31578947368422C-173.33333333333334,221.31578947368422,-166.66666666666666,221.31578947368422,-160,221.31578947368422C-153.33333333333334,221.31578947368422,-146.66666666666666,221.31578947368422,-140,221.31578947368422C-133.33333333333334,221.31578947368422,-126.66666666666667,221.31578947368422,-120,221.31578947368422C-113.33333333333333,221.31578947368422,-106.66666666666667,221.31578947368422,-100,221.31578947368422C-96.66666666666667,221.31578947368422,-93.33333333333333,221.31578947368422,-90,221.31578947368422C-86.66666666666667,221.31578947368422,-83.33333333333333,255.6578947368421,-80,290" style="stroke: rgb(31, 119, 180); stroke-width: 2; fill: none;"/><path class="linegg timeline hgroup_2" d="M-80,290C-76.66666666666667,290,-73.33333333333333,290,-70,290C-66.66666666666667,290,-63.333333333333336,206.05263157894734,-60,122.10526315789473" style="stroke: rgb(255, 127, 14); stroke-width: 2;"/><path class="linegg timeline hgroup_3" d="M-60,122.10526315789474C-53.333333333333336,122.10526315789474,-46.666666666666664,122.10526315789474,-40,122.10526315789474C-33.333333333333336,122.10526315789474,-26.666666666666668,122.10526315789474,-20,122.10526315789474C-13.333333333333332,122.10526315789474,-6.666666666666667,122.10526315789474,0,122.10526315789474" style="stroke: rgb(44, 160, 44); stroke-width: 2; fill: none;"/></g><text class="computeSig_label label" text-anchor="end" dx="-5" dy="0.5rem" fill="black" width="200" transform="translate(-180,221.31578947368422)">22</text></g><g class="node computeNode h23 statics" transform="translate(210,0)" style="pointer-events: auto;"><g class="computeSig" stroke="black" style="stroke-width: 2;"><path class="linegg timeline hgroup_4" d="M-180,396.84210526315786C-173.33333333333334,396.84210526315786,-166.66666666666666,396.84210526315786,-160,396.84210526315786C-156.66666666666666,396.84210526315786,-153.33333333333334,396.84210526315786,-150,396.84210526315786C-146.66666666666666,396.84210526315786,-143.33333333333334,354.86842105263156,-140,312.89473684210526" style="stroke: rgb(214, 39, 40); stroke-width: 2; fill: none;"/><path class="linegg timeline hgroup_2" d="M-140,312.89473684210526C-133.33333333333334,312.89473684210526,-126.66666666666667,312.89473684210526,-120,312.89473684210526C-116.66666666666667,312.89473684210526,-113.33333333333333,312.89473684210526,-110,312.89473684210526C-106.66666666666667,312.89473684210526,-103.33333333333333,225.13157894736838,-100,137.36842105263156" style="stroke: rgb(255, 127, 14); stroke-width: 2; fill: none;"/><path class="linegg timeline hgroup_3" d="M-100,137.36842105263156C-93.33333333333333,137.36842105263156,-86.66666666666667,137.36842105263156,-80,137.36842105263156C-73.33333333333333,137.36842105263156,-66.66666666666667,137.36842105263156,-60,137.36842105263156C-53.333333333333336,137.36842105263156,-46.666666666666664,137.36842105263156,-40,137.36842105263156C-33.333333333333336,137.36842105263156,-26.666666666666668,137.36842105263156,-20,137.36842105263156C-13.333333333333332,137.36842105263156,-6.666666666666667,137.36842105263156,0,137.36842105263156" style="stroke: rgb(44, 160, 44); stroke-width: 2; fill: none;"/></g><text class="computeSig_label label" text-anchor="end" dx="-5" dy="0.5rem" fill="black" width="200" transform="translate(-180,396.84210526315786)">23</text></g><g class="node computeNode h24 statics" transform="translate(210,0)" style="pointer-events: auto;"><g class="computeSig" stroke="black" style="stroke-width: 2;"><path class="linegg timeline hgroup_5" d="M-180,30.5263157894737C-173.33333333333334,30.5263157894737,-166.66666666666666,30.5263157894737,-160,30.5263157894737C-153.33333333333334,30.5263157894737,-146.66666666666666,30.5263157894737,-140,30.5263157894737C-133.33333333333334,30.5263157894737,-126.66666666666667,30.5263157894737,-120,30.5263157894737C-116.66666666666667,30.52631578947368,-113.33333333333333,30.52631578947368,-110,30.52631578947368C-106.66666666666667,30.52631578947368,-103.33333333333333,164.07894736842107,-100,297.63157894736844" style="stroke: rgb(148, 103, 189); stroke-width: 2; fill: none;"/><path class="linegg timeline hgroup_2" d="M-100,297.63157894736844C-93.33333333333333,297.63157894736844,-86.66666666666667,297.63157894736844,-80,297.63157894736844C-73.33333333333333,297.63157894736844,-66.66666666666667,297.63157894736844,-60,297.63157894736844C-53.333333333333336,297.63157894736844,-46.666666666666664,297.63157894736844,-40,297.63157894736844C-33.333333333333336,297.63157894736844,-26.666666666666668,297.63157894736844,-20,297.63157894736844C-13.333333333333332,297.63157894736844,-6.666666666666667,297.63157894736844,0,297.63157894736844" style="stroke: rgb(255, 127, 14); stroke-width: 2; fill: none;"/></g><text class="computeSig_label label" text-anchor="end" dx="-5" dy="0.5rem" fill="black" width="200" transform="translate(-180,30.52631578947368)">24</text></g><g class="node computeNode h25 statics" transform="translate(210,0)" style="pointer-events: auto;"><g class="computeSig" stroke="black" style="stroke-width: 2;"><path class="linegg timeline hgroup_2" d="M-180,305.2631578947368C-173.33333333333334,305.2631578947368,-166.66666666666666,305.2631578947368,-160,305.2631578947368C-153.33333333333334,305.2631578947368,-146.66666666666666,305.2631578947368,-140,305.2631578947368C-133.33333333333334,305.2631578947368,-126.66666666666667,305.2631578947368,-120,305.2631578947368C-116.66666666666667,305.2631578947368,-113.33333333333333,305.2631578947368,-110,305.2631578947368C-106.66666666666667,305.2631578947368,-103.33333333333333,217.5,-100,129.73684210526315" style="stroke: rgb(255, 127, 14); stroke-width: 2; fill: none;"/><path class="linegg timeline hgroup_3" d="M-100,129.73684210526315C-93.33333333333333,129.73684210526315,-86.66666666666667,129.73684210526315,-80,129.73684210526315C-73.33333333333333,129.73684210526315,-66.66666666666667,129.73684210526315,-60,129.73684210526315C-53.333333333333336,129.73684210526315,-46.666666666666664,129.73684210526315,-40,129.73684210526315C-33.333333333333336,129.73684210526315,-26.666666666666668,129.73684210526315,-20,129.73684210526315C-13.333333333333332,129.73684210526315,-6.666666666666667,129.73684210526315,0,129.73684210526315" style="stroke: rgb(44, 160, 44); stroke-width: 2; fill: none;"/></g><text class="computeSig_label label" text-anchor="end" dx="-5" dy="0.5rem" fill="black" width="200" transform="translate(-180,305.2631578947368)">25</text></g><g class="node computeNode h26 statics" transform="translate(210,0)" style="pointer-events: auto;"><g class="computeSig" stroke="black" style="stroke-width: 2;"><path class="linegg timeline hgroup_4" d="M-180,404.4736842105263C-176.66666666666666,404.4736842105263,-173.33333333333334,404.4736842105263,-170,404.4736842105263C-166.66666666666666,404.4736842105263,-163.33333333333334,328.1578947368421,-160,251.84210526315792" style="stroke: rgb(214, 39, 40); stroke-width: 2;"/><path class="linegg timeline hgroup_1" d="M-160,251.84210526315792C-153.33333333333334,251.84210526315792,-146.66666666666666,251.84210526315792,-140,251.84210526315792C-133.33333333333334,251.84210526315792,-126.66666666666667,251.84210526315792,-120,251.84210526315792C-113.33333333333333,251.84210526315792,-106.66666666666667,251.84210526315792,-100,251.84210526315792C-93.33333333333333,251.84210526315792,-86.66666666666667,251.84210526315792,-80,251.84210526315792C-73.33333333333333,251.84210526315792,-66.66666666666667,251.84210526315792,-60,251.84210526315792C-53.333333333333336,251.84210526315792,-46.666666666666664,251.84210526315792,-40,251.84210526315792C-33.333333333333336,251.84210526315792,-26.666666666666668,251.84210526315792,-20,251.84210526315792C-13.333333333333332,251.84210526315792,-6.666666666666667,251.84210526315792,0,251.84210526315792" style="stroke: rgb(31, 119, 180); stroke-width: 2; fill: none;"/></g><text class="computeSig_label label" text-anchor="end" dx="-5" dy="0.5rem" fill="black" width="200" transform="translate(-180,404.4736842105263)">26</text></g><g class="node computeNode h27 statics" transform="translate(210,0)" style="pointer-events: auto;"><g class="computeSig" stroke="black" style="stroke-width: 2;"><path class="linegg timeline hgroup_1" d="M-180,244.21052631578945C-173.33333333333334,244.21052631578945,-166.66666666666666,244.21052631578945,-160,244.21052631578945C-153.33333333333334,244.21052631578945,-146.66666666666666,244.21052631578945,-140,244.21052631578945C-133.33333333333334,244.21052631578945,-126.66666666666667,244.21052631578945,-120,244.21052631578945C-113.33333333333333,244.21052631578945,-106.66666666666667,244.21052631578945,-100,244.21052631578945C-93.33333333333333,244.21052631578945,-86.66666666666667,244.21052631578945,-80,244.21052631578945C-73.33333333333333,244.21052631578945,-66.66666666666667,244.21052631578945,-60,244.21052631578945C-53.333333333333336,244.21052631578945,-46.666666666666664,244.21052631578945,-40,244.21052631578945C-33.333333333333336,244.21052631578945,-26.666666666666668,244.21052631578945,-20,244.21052631578945C-13.333333333333332,244.21052631578945,-6.666666666666667,244.21052631578945,0,244.21052631578945" style="stroke: rgb(31, 119, 180); stroke-width: 2; fill: none;"/></g><text class="computeSig_label label" text-anchor="end" dx="-5" dy="0.5rem" fill="black" width="200" transform="translate(-180,244.21052631578945)">27</text></g><g class="node computeNode h28 statics" transform="translate(210,0)" style="pointer-events: auto;"><g class="computeSig" stroke="black" style="stroke-width: 2;"><path class="linegg timeline hgroup_3" d="M-180,68.68421052631578C-173.33333333333334,68.68421052631578,-166.66666666666666,68.68421052631578,-160,68.68421052631578C-153.33333333333334,68.68421052631578,-146.66666666666666,68.68421052631578,-140,68.68421052631578C-133.33333333333334,68.68421052631578,-126.66666666666667,68.68421052631578,-120,68.68421052631578C-113.33333333333333,68.68421052631578,-106.66666666666667,68.68421052631578,-100,68.68421052631578C-93.33333333333333,68.68421052631578,-86.66666666666667,68.68421052631578,-80,68.68421052631578C-73.33333333333333,68.68421052631578,-66.66666666666667,68.68421052631578,-60,68.68421052631578C-53.333333333333336,68.68421052631578,-46.666666666666664,68.68421052631578,-40,68.68421052631578C-33.333333333333336,68.68421052631578,-26.666666666666668,68.68421052631578,-20,68.68421052631578C-13.333333333333332,68.68421052631578,-6.666666666666667,68.68421052631578,0,68.68421052631578" style="stroke: rgb(44, 160, 44); stroke-width: 2; fill: none;"/></g><text class="computeSig_label label" text-anchor="end" dx="-5" dy="0.5rem" fill="black" width="200" transform="translate(-180,68.68421052631578)">28</text></g><g class="node computeNode h29 statics" transform="translate(210,0)" style="pointer-events: auto;"><g class="computeSig" stroke="black" style="stroke-width: 2;"><path class="linegg timeline hgroup_1" d="M-180,206.05263157894737C-173.33333333333334,206.05263157894737,-166.66666666666666,206.05263157894737,-160,206.05263157894737C-153.33333333333334,206.05263157894737,-146.66666666666666,206.05263157894737,-140,206.05263157894737C-136.66666666666666,206.05263157894737,-133.33333333333334,206.05263157894737,-130,206.05263157894737C-126.66666666666667,206.05263157894737,-123.33333333333333,244.21052631578948,-120,282.36842105263156" style="stroke: rgb(31, 119, 180); stroke-width: 2; fill: none;"/><path class="linegg timeline hgroup_2" d="M-120,282.36842105263156C-116.66666666666667,282.36842105263156,-113.33333333333333,282.36842105263156,-110,282.36842105263156C-106.66666666666667,282.36842105263156,-103.33333333333333,190.78947368421052,-100,99.21052631578947" style="stroke: rgb(255, 127, 14); stroke-width: 2;"/><path class="linegg timeline hgroup_3" d="M-100,99.21052631578948C-93.33333333333333,99.21052631578948,-86.66666666666667,99.21052631578948,-80,99.21052631578948C-73.33333333333333,99.21052631578948,-66.66666666666667,99.21052631578948,-60,99.21052631578948C-53.333333333333336,99.21052631578948,-46.666666666666664,99.21052631578948,-40,99.21052631578948C-33.333333333333336,99.21052631578948,-26.666666666666668,99.21052631578948,-20,99.21052631578948C-13.333333333333332,99.21052631578948,-6.666666666666667,99.21052631578948,0,99.21052631578948" style="stroke: rgb(44, 160, 44); stroke-width: 2; fill: none;"/></g><text class="computeSig_label label" text-anchor="end" dx="-5" dy="0.5rem" fill="black" width="200" transform="translate(-180,206.05263157894737)">29</text></g><g class="node computeNode h30 statics" transform="translate(210,0)" style="pointer-events: auto;"><g class="computeSig" stroke="black" style="stroke-width: 2;"><path class="linegg timeline hgroup_2" d="M-180,366.31578947368416C-173.33333333333334,366.31578947368416,-166.66666666666666,366.31578947368416,-160,366.31578947368416C-153.33333333333334,366.31578947368416,-146.66666666666666,366.31578947368416,-140,366.31578947368416C-133.33333333333334,366.31578947368416,-126.66666666666667,366.31578947368416,-120,366.31578947368416C-113.33333333333333,366.31578947368416,-106.66666666666667,366.31578947368416,-100,366.31578947368416C-93.33333333333333,366.31578947368416,-86.66666666666667,366.31578947368416,-80,366.31578947368416C-73.33333333333333,366.31578947368416,-66.66666666666667,366.31578947368416,-60,366.31578947368416C-53.333333333333336,366.31578947368416,-46.666666666666664,366.31578947368416,-40,366.31578947368416C-33.333333333333336,366.31578947368416,-26.666666666666668,366.31578947368416,-20,366.31578947368416C-13.333333333333332,366.31578947368416,-6.666666666666667,366.31578947368416,0,366.31578947368416" style="stroke: rgb(255, 127, 14); stroke-width: 2; fill: none;"/></g><text class="computeSig_label label" text-anchor="end" dx="-5" dy="0.5rem" fill="black" width="200" transform="translate(-180,366.31578947368416)">30</text></g></g><rect class="fisheyeLayer" style="opacity: 0; pointer-events: none;" width="180" height="480" transform="translate(120,0)"/><g class="table header" transform="translate(600,0)"><g class="back"><path style="fill: rgb(221, 221, 221);"/></g></g></g><g class="timebox hide" transform="translate(40,20)" dy="1rem" style="font-size: 16px;"/><circle id="tipfollowscursor"/></svg>