<svg id="jobmap" width="300" height="550" style="fill: none; font-size: 10px; font-family: sans-serif;" xmlns="http://www.w3.org/2000/svg" xmlns:xlink="http://www.w3.org/1999/xlink">

                    <defs id="defsmain"><pattern id="userpic" width="100%" height="100%" patternContentUnits="objectBoundingBox"><image height="1" width="1" preserveAspectRatio="none" xmlns:xlink="http://www.w3.org/1999/xlink" xlink:href="src/images/u.png"/></pattern><marker id="arrow" markerWidth="10" markerHeight="10" refX="0" refY="3" orient="auto" markerUnits="strokeWidth"><path d="M0,0 L0,6 L9,3 z" style="fill: black;"/></marker></defs><rect class="pantarget" opacity="0" width="1146" height="762"/><g class="pannel" transform="translate(50,50)"><text class="Time" text-anchor="middle" x="40" dy="-30" style="font-weight: bold; fill: black;">Time</text><line x1="60" x2="95" y1="-33" y2="-33" marker-end="url(#arrow)" style="stroke: black;"/><text class="Time" text-anchor="middle" x="-5" dy="-1rem" style="font-weight: bold; fill: black;">Instance</text><line x1="5" x2="5" y1="-5" y2="30" marker-end="url(#arrow)" style="stroke: black;"/><g class="gNodeaxis" transform="translate(210,-10)"><g class="gMainaxis" fill="none" font-size="10" font-family="sans-serif" text-anchor="middle"><g class="tick" opacity="1" transform="translate(-180, 0)"><line stroke="#000" y2="445" vector-effect="non-scaling-stroke" style="stroke-width: 0.1; stroke: black; stroke-dasharray: 1, 2; opacity: 0.5;"/><text fill="#000" y="-3" dy="-0.5rem">1</text></g><g class="tick" opacity="1" transform="translate(-160, 0)"><line stroke="#000" y2="445" vector-effect="non-scaling-stroke" style="stroke-width: 0.1; stroke: black; stroke-dasharray: 1, 2; opacity: 0.5;"/><text fill="#000" y="-3" dy="-0.5rem">2</text></g><g class="tick" opacity="1" transform="translate(-140, 0)"><line stroke="#000" y2="445" vector-effect="non-scaling-stroke" style="stroke-width: 0.1; stroke: black; stroke-dasharray: 1, 2; opacity: 0.5;"/><text fill="#000" y="-3" dy="-0.5rem">3</text></g><g class="tick" opacity="1" transform="translate(-120, 0)"><line stroke="#000" y2="445" vector-effect="non-scaling-stroke" style="stroke-width: 0.1; stroke: black; stroke-dasharray: 1, 2; opacity: 0.5;"/><text fill="#000" y="-3" dy="-0.5rem">4</text></g><g class="tick" opacity="1" transform="translate(-100, 0)"><line stroke="#000" y2="445" vector-effect="non-scaling-stroke" style="stroke-width: 0.1; stroke: black; stroke-dasharray: 1, 2; opacity: 0.5;"/><text fill="#000" y="-3" dy="-0.5rem">5</text></g><g class="tick" opacity="1" transform="translate(-80, 0)"><line stroke="#000" y2="445" vector-effect="non-scaling-stroke" style="stroke-width: 0.1; stroke: black; stroke-dasharray: 1, 2; opacity: 0.5;"/><text fill="#000" y="-3" dy="-0.5rem">6</text></g><g class="tick" opacity="1" transform="translate(-60, 0)"><line stroke="#000" y2="445" vector-effect="non-scaling-stroke" style="stroke-width: 0.1; stroke: black; stroke-dasharray: 1, 2; opacity: 0.5;"/><text fill="#000" y="-3" dy="-0.5rem">7</text></g><g class="tick" opacity="1" transform="translate(-40, 0)"><line stroke="#000" y2="445" vector-effect="non-scaling-stroke" style="stroke-width: 0.1; stroke: black; stroke-dasharray: 1, 2; opacity: 0.5;"/><text fill="#000" y="-3" dy="-0.5rem">8</text></g><g class="tick" opacity="1" transform="translate(-20, 0)"><line stroke="#000" y2="445" vector-effect="non-scaling-stroke" style="stroke-width: 0.1; stroke: black; stroke-dasharray: 1, 2; opacity: 0.5;"/><text fill="#000" y="-3" dy="-0.5rem">9</text></g><g class="tick" opacity="1" transform=""><line stroke="#000" y2="445" vector-effect="non-scaling-stroke" style="stroke-width: 0.1; stroke: black; stroke-dasharray: 1, 2; opacity: 0.5;"/><text fill="#000" y="-3" dy="-0.5rem">10</text></g></g><g class="gSubaxis hide"/></g><g class="annotation"/><g class="linkg"><g class="links" style="display: none;"><path stroke="black" style="stroke-width: 2;"/><text text-anchor="middle">1</text></g><g class="links" style="display: none;"><path stroke="black" style="stroke-width: 2;"/><text text-anchor="middle">1</text></g><g class="links" style="display: none;"><path stroke="black" style="stroke-width: 2;"/><text text-anchor="middle">1</text></g><g class="links" style="display: none;"><path stroke="black" style="stroke-width: 2;"/><text text-anchor="middle">1</text></g><g class="links" style="display: none;"><path stroke="black" style="stroke-width: 2;"/><text text-anchor="middle">1</text></g><g class="links" style="display: none;"><path stroke="black" style="stroke-width: 2;"/><text text-anchor="middle">1</text></g><g class="links" style="display: none;"><path stroke="black" style="stroke-width: 2;"/><text text-anchor="middle">1</text></g><g class="links" style="display: none;"><path stroke="black" style="stroke-width: 2;"/><text text-anchor="middle">1</text></g><g class="links" style="display: none;"><path stroke="black" style="stroke-width: 2;"/><text text-anchor="middle">1</text></g><g class="links" style="display: none;"><path stroke="black" style="stroke-width: 2;"/><text text-anchor="middle">1</text></g><g class="links" style="display: none;"><path stroke="black" style="stroke-width: 2;"/><text text-anchor="middle">1</text></g><g class="links" style="display: none;"><path stroke="black" style="stroke-width: 2;"/><text text-anchor="middle">1</text></g><g class="links" style="display: none;"><path stroke="black" style="stroke-width: 2;"/><text text-anchor="middle">1</text></g><g class="links" style="display: none;"><path stroke="black" style="stroke-width: 2;"/><text text-anchor="middle">1</text></g><g class="links" style="display: none;"><path stroke="black" style="stroke-width: 2;"/><text text-anchor="middle">1</text></g><g class="links" style="display: none;"><path stroke="black" style="stroke-width: 2;"/><text text-anchor="middle">1</text></g><g class="links" style="display: none;"><path stroke="black" style="stroke-width: 2;"/><text text-anchor="middle">1</text></g><g class="links" style="display: none;"><path stroke="black" style="stroke-width: 2;"/><text text-anchor="middle">1</text></g><g class="links" style="display: none;"><path stroke="black" style="stroke-width: 2;"/><text text-anchor="middle">1</text></g><g class="links" style="display: none;"><path stroke="black" style="stroke-width: 2;"/><text text-anchor="middle">1</text></g><g class="links" style="display: none;"><path stroke="black" style="stroke-width: 2;"/><text text-anchor="middle">1</text></g><g class="links" style="display: none;"><path stroke="black" style="stroke-width: 2;"/><text text-anchor="middle">1</text></g><g class="links" style="display: none;"><path stroke="black" style="stroke-width: 2;"/><text text-anchor="middle">1</text></g><g class="links" style="display: none;"><path stroke="black" style="stroke-width: 2;"/><text text-anchor="middle">1</text></g><g class="links" style="display: none;"><path stroke="black" style="stroke-width: 2;"/><text text-anchor="middle">1</text></g><g class="links" style="display: none;"><path stroke="black" style="stroke-width: 2;"/><text text-anchor="middle">1</text></g><g class="links" style="display: none;"><path stroke="black" style="stroke-width: 2;"/><text text-anchor="middle">1</text></g><g class="links" style="display: none;"><path stroke="black" style="stroke-width: 2;"/><text text-anchor="middle">1</text></g><g class="links" style="display: none;"><path stroke="black" style="stroke-width: 2;"/><text text-anchor="middle">1</text></g><g class="links" style="display: none;"><path stroke="black" style="stroke-width: 2;"/><text text-anchor="middle">1</text></g><g class="links" style="display: none;"><path stroke="black" style="stroke-width: 2;"/><text text-anchor="middle">1</text></g></g><g class="nodeg"><g class="node computeNode h1 statics" transform="translate(210,0)" style="pointer-events: auto;"><g class="computeSig" stroke="black" style="stroke-width: 2;"><path class="linegg timeline hgroup_1" d="M-180,24.166666666666664C-173.33333333333334,24.166666666666664,-166.66666666666666,24.166666666666664,-160,24.166666666666664C-153.33333333333334,24.166666666666664,-146.66666666666666,24.166666666666664,-140,24.166666666666664C-136.66666666666666,24.166666666666664,-133.33333333333334,24.166666666666664,-130,24.166666666666664C-126.66666666666667,24.166666666666664,-123.33333333333333,149.02777777777777,-120,273.8888888888889" style="stroke: rgb(31, 119, 180); stroke-width: 2; fill: none;"/><path class="linegg timeline hgroup_3" d="M-120,273.8888888888889C-116.66666666666667,273.8888888888889,-113.33333333333333,273.8888888888889,-110,273.8888888888889C-106.66666666666667,273.8888888888889,-103.33333333333333,161.11111111111111,-100,48.33333333333333" style="stroke: rgb(44, 160, 44); stroke-width: 2;"/><path class="linegg timeline hgroup_2" d="M-100,48.33333333333333C-93.33333333333333,48.33333333333333,-86.66666666666667,48.33333333333333,-80,48.33333333333333C-73.33333333333333,48.33333333333333,-66.66666666666667,48.33333333333333,-60,48.33333333333333C-53.333333333333336,48.33333333333333,-46.666666666666664,48.33333333333333,-40,48.33333333333333C-33.333333333333336,48.33333333333333,-26.666666666666668,48.33333333333333,-20,48.33333333333333C-13.333333333333332,48.33333333333333,-6.666666666666667,48.33333333333333,0,48.33333333333333" style="stroke: rgb(255, 127, 14); stroke-width: 2; fill: none;"/></g><text class="computeSig_label label" text-anchor="end" dx="-5" dy="0.5rem" fill="black" width="200" transform="translate(-180,24.166666666666664)">1</text></g><g class="node computeNode h2 statics" transform="translate(210,0)" style="pointer-events: auto;"><g class="computeSig" stroke="black" style="stroke-width: 2;"><path class="linegg timeline hgroup_2" d="M-180,64.44444444444444C-173.33333333333334,64.44444444444444,-166.66666666666666,64.44444444444444,-160,64.44444444444444C-153.33333333333334,64.44444444444444,-146.66666666666666,64.44444444444444,-140,64.44444444444444C-133.33333333333334,64.44444444444444,-126.66666666666667,64.44444444444444,-120,64.44444444444444C-113.33333333333333,64.44444444444444,-106.66666666666667,64.44444444444444,-100,64.44444444444444C-93.33333333333333,64.44444444444444,-86.66666666666667,64.44444444444444,-80,64.44444444444444C-73.33333333333333,64.44444444444444,-66.66666666666667,64.44444444444444,-60,64.44444444444444C-53.333333333333336,64.44444444444444,-46.666666666666664,64.44444444444444,-40,64.44444444444444C-33.333333333333336,64.44444444444444,-26.666666666666668,64.44444444444444,-20,64.44444444444444C-13.333333333333332,64.44444444444444,-6.666666666666667,64.44444444444444,0,64.44444444444444" style="stroke: rgb(255, 127, 14); stroke-width: 2; fill: none;"/></g><text class="computeSig_label label" text-anchor="end" dx="-5" dy="0.5rem" fill="black" width="200" transform="translate(-180,64.44444444444444)">2</text></g><g class="node computeNode h3 statics" transform="translate(210,0)" style="pointer-events: auto;"><g class="computeSig" stroke="black" style="stroke-width: 2;"><path class="linegg timeline hgroup_3" d="M-180,306.11111111111114C-173.33333333333334,306.11111111111114,-166.66666666666666,306.11111111111114,-160,306.11111111111114C-153.33333333333334,306.11111111111114,-146.66666666666666,306.11111111111114,-140,306.11111111111114C-136.66666666666666,306.11111111111114,-133.33333333333334,306.11111111111114,-130,306.11111111111114C-126.66666666666667,306.11111111111114,-123.33333333333333,269.86111111111114,-120,233.61111111111114" style="stroke: rgb(44, 160, 44); stroke-width: 2; fill: none;"/><path class="linegg timeline hgroup_4" d="M-120,233.61111111111114C-113.33333333333333,233.61111111111114,-106.66666666666667,233.61111111111114,-100,233.61111111111114C-93.33333333333333,233.61111111111114,-86.66666666666667,233.61111111111114,-80,233.61111111111114C-73.33333333333333,233.61111111111114,-66.66666666666667,233.61111111111114,-60,233.61111111111114C-53.333333333333336,233.61111111111114,-46.666666666666664,233.61111111111114,-40,233.61111111111114C-33.333333333333336,233.61111111111114,-26.666666666666668,233.61111111111114,-20,233.61111111111114C-13.333333333333332,233.61111111111114,-6.666666666666667,233.61111111111114,0,233.61111111111114" style="stroke: rgb(214, 39, 40); stroke-width: 2; fill: none;"/></g><text class="computeSig_label label" text-anchor="end" dx="-5" dy="0.5rem" fill="black" width="200" transform="translate(-180,306.11111111111114)">3</text></g><g class="node computeNode h4 statics" transform="translate(210,0)" style="pointer-events: auto;"><g class="computeSig" stroke="black" style="stroke-width: 2;"><path class="linegg timeline hgroup_3" d="M-180,338.3333333333333C-173.33333333333334,338.3333333333333,-166.66666666666666,338.3333333333333,-160,338.3333333333333C-153.33333333333334,338.3333333333333,-146.66666666666666,338.3333333333333,-140,338.3333333333333C-133.33333333333334,338.3333333333333,-126.66666666666667,338.3333333333333,-120,338.3333333333333C-113.33333333333333,338.3333333333333,-106.66666666666667,338.3333333333333,-100,338.3333333333333C-93.33333333333333,338.3333333333333,-86.66666666666667,338.3333333333333,-80,338.3333333333333C-73.33333333333333,338.3333333333333,-66.66666666666667,338.3333333333333,-60,338.3333333333333C-53.333333333333336,338.3333333333333,-46.666666666666664,338.3333333333333,-40,338.3333333333333C-33.333333333333336,338.3333333333333,-26.666666666666668,338.3333333333333,-20,338.3333333333333C-13.333333333333332,338.3333333333333,-6.666666666666667,338.3333333333333,0,338.3333333333333" style="stroke: rgb(44, 160, 44); stroke-width: 2; fill: none;"/></g><text class="computeSig_label label" text-anchor="end" dx="-5" dy="0.5rem" fill="black" width="200" transform="translate(-180,338.3333333333333)">4</text></g><g class="node computeNode h5 statics" transform="translate(210,0)" style="pointer-events: auto;"><g class="computeSig" stroke="black" style="stroke-width: 2;"><path class="linegg timeline hgroup_4" d="M-180,177.2222222222222C-173.33333333333334,177.2222222222222,-166.66666666666666,177.2222222222222,-160,177.2222222222222C-153.33333333333334,177.2222222222222,-146.66666666666666,177.2222222222222,-140,177.2222222222222C-136.66666666666666,177.2222222222222,-133.33333333333334,177.2222222222222,-130,177.2222222222222C-126.66666666666667,177.2222222222222,-123.33333333333333,140.9722222222222,-120,104.72222222222221" style="stroke: rgb(214, 39, 40); stroke-width: 2; fill: none;"/><path class="linegg timeline hgroup_2" d="M-120,104.72222222222221C-113.33333333333333,104.72222222222221,-106.66666666666667,104.72222222222221,-100,104.72222222222221C-93.33333333333333,104.72222222222221,-86.66666666666667,104.72222222222221,-80,104.72222222222221C-73.33333333333333,104.72222222222221,-66.66666666666667,104.72222222222221,-60,104.72222222222221C-53.333333333333336,104.72222222222221,-46.666666666666664,104.72222222222221,-40,104.72222222222221C-33.333333333333336,104.72222222222221,-26.666666666666668,104.72222222222221,-20,104.72222222222221C-13.333333333333332,104.72222222222221,-6.666666666666667,104.72222222222221,0,104.72222222222221" style="stroke: rgb(255, 127, 14); stroke-width: 2; fill: none;"/></g><text class="computeSig_label label" text-anchor="end" dx="-5" dy="0.5rem" fill="black" width="200" transform="translate(-180,177.2222222222222)">5</text></g><g class="node computeNode h6 statics" transform="translate(210,0)" style="pointer-events: auto;"><g class="computeSig" stroke="black" style="stroke-width: 2;"><path class="linegg timeline hgroup_3" d="M-180,346.38888888888886C-173.33333333333334,346.38888888888886,-166.66666666666666,346.38888888888886,-160,346.38888888888886C-153.33333333333334,346.38888888888886,-146.66666666666666,346.38888888888886,-140,346.38888888888886C-133.33333333333334,346.38888888888886,-126.66666666666667,346.38888888888886,-120,346.38888888888886C-113.33333333333333,346.38888888888886,-106.66666666666667,346.38888888888886,-100,346.38888888888886C-93.33333333333333,346.38888888888886,-86.66666666666667,346.38888888888886,-80,346.38888888888886C-73.33333333333333,346.38888888888886,-66.66666666666667,346.38888888888886,-60,346.38888888888886C-53.333333333333336,346.38888888888886,-46.666666666666664,346.38888888888886,-40,346.38888888888886C-33.333333333333336,346.38888888888886,-26.666666666666668,346.38888888888886,-20,346.38888888888886C-13.333333333333332,346.38888888888886,-6.666666666666667,346.38888888888886,0,346.38888888888886" style="stroke: rgb(44, 160, 44); stroke-width: 2; fill: none;"/></g><text class="computeSig_label label" text-anchor="end" dx="-5" dy="0.5rem" fill="black" width="200" transform="translate(-180,346.38888888888886)">6</text></g><g class="node computeNode h7 statics" transform="translate(210,0)" style="pointer-events: auto;"><g class="computeSig" stroke="black" style="stroke-width: 2;"><path class="linegg timeline hgroup_2" d="M-180,153.05555555555557C-173.33333333333334,153.05555555555557,-166.66666666666666,153.05555555555557,-160,153.05555555555557C-153.33333333333334,153.05555555555557,-146.66666666666666,153.05555555555557,-140,153.05555555555557C-136.66666666666666,153.05555555555557,-133.33333333333334,153.05555555555557,-130,153.05555555555557C-126.66666666666667,153.05555555555557,-123.33333333333333,281.94444444444446,-120,410.8333333333333" style="stroke: rgb(255, 127, 14); stroke-width: 2; fill: none;"/><path class="linegg timeline hgroup_5" d="M-120,410.8333333333333C-113.33333333333333,410.8333333333333,-106.66666666666667,410.8333333333333,-100,410.8333333333333C-93.33333333333333,410.8333333333333,-86.66666666666667,410.8333333333333,-80,410.8333333333333C-73.33333333333333,410.8333333333333,-66.66666666666667,410.8333333333333,-60,410.8333333333333C-53.333333333333336,410.8333333333333,-46.666666666666664,410.8333333333333,-40,410.8333333333333C-33.333333333333336,410.8333333333333,-26.666666666666668,410.8333333333333,-20,410.8333333333333C-13.333333333333332,410.8333333333333,-6.666666666666667,410.8333333333333,0,410.8333333333333" style="stroke: rgb(148, 103, 189); stroke-width: 2; fill: none;"/></g><text class="computeSig_label label" text-anchor="end" dx="-5" dy="0.5rem" fill="black" width="200" transform="translate(-180,153.05555555555557)">7</text></g><g class="node computeNode h8 statics" transform="translate(210,0)" style="pointer-events: auto;"><g class="computeSig" stroke="black" style="stroke-width: 2;"><path class="linegg timeline hgroup_3" d="M-180,386.66666666666663C-173.33333333333334,386.66666666666663,-166.66666666666666,386.66666666666663,-160,386.66666666666663C-153.33333333333334,386.66666666666663,-146.66666666666666,386.66666666666663,-140,386.66666666666663C-136.66666666666666,386.66666666666663,-133.33333333333334,386.66666666666663,-130,386.66666666666663C-126.66666666666667,386.66666666666663,-123.33333333333333,410.8333333333333,-120,435" style="stroke: rgb(44, 160, 44); stroke-width: 2; fill: none;"/><path class="linegg timeline hgroup_5" d="M-120,435C-113.33333333333333,435,-106.66666666666667,435,-100,435C-93.33333333333333,435,-86.66666666666667,435,-80,435C-73.33333333333333,435,-66.66666666666667,435,-60,435C-53.333333333333336,435,-46.666666666666664,435,-40,435C-33.333333333333336,435,-26.666666666666668,435,-20,435C-13.333333333333332,435,-6.666666666666667,435,0,435" style="stroke: rgb(148, 103, 189); stroke-width: 2; fill: none;"/></g><text class="computeSig_label label" text-anchor="end" dx="-5" dy="0.5rem" fill="black" width="200" transform="translate(-180,386.66666666666663)">8</text></g><g class="node computeNode h9 statics" transform="translate(210,0)" style="pointer-events: auto;"><g class="computeSig" stroke="black" style="stroke-width: 2;"><path class="linegg timeline hgroup_3" d="M-180,290C-173.33333333333334,290,-166.66666666666666,290,-160,290C-153.33333333333334,290,-146.66666666666666,290,-140,290C-136.66666666666666,290,-133.33333333333334,290,-130,290C-126.66666666666667,290,-123.33333333333333,209.44444444444446,-120,128.88888888888889" style="stroke: rgb(44, 160, 44); stroke-width: 2; fill: none;"/><path class="linegg timeline hgroup_2" d="M-120,128.88888888888889C-113.33333333333333,128.88888888888889,-106.66666666666667,128.88888888888889,-100,128.88888888888889C-93.33333333333333,128.88888888888889,-86.66666666666667,128.88888888888889,-80,128.88888888888889C-73.33333333333333,128.88888888888889,-66.66666666666667,128.88888888888889,-60,128.88888888888889C-56.666666666666664,128.88888888888889,-53.333333333333336,128.88888888888889,-50,128.88888888888889C-46.666666666666664,128.88888888888889,-43.333333333333336,209.44444444444446,-40,290" style="stroke: rgb(255, 127, 14); stroke-width: 2; fill: none;"/><path class="linegg timeline hgroup_3" d="M-40,290C-33.333333333333336,290,-26.666666666666668,290,-20,290C-13.333333333333332,290,-6.666666666666667,290,0,290" style="stroke: rgb(44, 160, 44); stroke-width: 2; fill: none;"/></g><text class="computeSig_label label" text-anchor="end" dx="-5" dy="0.5rem" fill="black" width="200" transform="translate(-180,290)">9</text></g><g class="node computeNode h10 statics" transform="translate(210,0)" style="pointer-events: auto;"><g class="computeSig" stroke="black" style="stroke-width: 2;"><path class="linegg timeline hgroup_5" d="M-180,418.88888888888886C-176.66666666666666,418.88888888888886,-173.33333333333334,418.88888888888886,-170,418.88888888888886C-166.66666666666666,418.88888888888886,-163.33333333333334,394.7222222222222,-160,370.55555555555554" style="stroke: rgb(148, 103, 189); stroke-width: 2;"/><path class="linegg timeline hgroup_3" d="M-160,370.55555555555554C-153.33333333333334,370.55555555555554,-146.66666666666666,370.55555555555554,-140,370.55555555555554C-133.33333333333334,370.55555555555554,-126.66666666666667,370.55555555555554,-120,370.55555555555554C-113.33333333333333,370.55555555555554,-106.66666666666667,370.55555555555554,-100,370.55555555555554C-93.33333333333333,370.55555555555554,-86.66666666666667,370.55555555555554,-80,370.55555555555554C-73.33333333333333,370.55555555555554,-66.66666666666667,370.55555555555554,-60,370.55555555555554C-53.333333333333336,370.55555555555554,-46.666666666666664,370.55555555555554,-40,370.55555555555554C-33.333333333333336,370.55555555555554,-26.666666666666668,370.55555555555554,-20,370.55555555555554C-13.333333333333332,370.55555555555554,-6.666666666666667,370.55555555555554,0,370.55555555555554" style="stroke: rgb(44, 160, 44); stroke-width: 2; fill: none;"/></g><text class="computeSig_label label" text-anchor="end" dx="-5" dy="0.5rem" fill="black" width="200" transform="translate(-180,418.88888888888886)">10</text></g><g class="node computeNode h11 statics" transform="translate(210,0)" style="pointer-events: auto;"><g class="computeSig" stroke="black" style="stroke-width: 2;"><path class="linegg timeline hgroup_4" d="M-180,265.83333333333337C-173.33333333333334,265.83333333333337,-166.66666666666666,265.83333333333337,-160,265.83333333333337C-153.33333333333334,265.83333333333337,-146.66666666666666,265.83333333333337,-140,265.83333333333337C-136.66666666666666,265.83333333333337,-133.33333333333334,265.83333333333337,-130,265.83333333333337C-126.66666666666667,265.83333333333337,-123.33333333333333,298.05555555555554,-120,330.27777777777777" style="stroke: rgb(214, 39, 40); stroke-width: 2; fill: none;"/><path class="linegg timeline hgroup_3" d="M-120,330.27777777777777C-113.33333333333333,330.27777777777777,-106.66666666666667,330.27777777777777,-100,330.27777777777777C-93.33333333333333,330.27777777777777,-86.66666666666667,330.27777777777777,-80,330.27777777777777C-73.33333333333333,330.27777777777777,-66.66666666666667,330.27777777777777,-60,330.27777777777777C-53.333333333333336,330.27777777777777,-46.666666666666664,330.27777777777777,-40,330.27777777777777C-33.333333333333336,330.27777777777777,-26.666666666666668,330.27777777777777,-20,330.27777777777777C-13.333333333333332,330.27777777777777,-6.666666666666667,330.27777777777777,0,330.27777777777777" style="stroke: rgb(44, 160, 44); stroke-width: 2; fill: none;"/></g><text class="computeSig_label label" text-anchor="end" dx="-5" dy="0.5rem" fill="black" width="200" transform="translate(-180,265.83333333333337)">11</text></g><g class="node computeNode h12 statics" transform="translate(210,0)" style="pointer-events: auto;"><g class="computeSig" stroke="black" style="stroke-width: 2;"><path class="linegg timeline hgroup_4" d="M-180,185.27777777777777C-173.33333333333334,185.27777777777777,-166.66666666666666,185.27777777777777,-160,185.27777777777777C-153.33333333333334,185.27777777777777,-146.66666666666666,185.27777777777777,-140,185.27777777777777C-133.33333333333334,185.27777777777777,-126.66666666666667,185.27777777777777,-120,185.27777777777777C-113.33333333333333,185.27777777777777,-106.66666666666667,185.27777777777777,-100,185.27777777777777C-93.33333333333333,185.27777777777777,-86.66666666666667,185.27777777777777,-80,185.27777777777777C-73.33333333333333,185.27777777777777,-66.66666666666667,185.27777777777777,-60,185.27777777777777C-53.333333333333336,185.27777777777777,-46.666666666666664,185.27777777777777,-40,185.27777777777777C-36.666666666666664,185.27777777777777,-33.333333333333336,185.27777777777777,-30,185.27777777777777C-26.666666666666668,185.27777777777777,-23.333333333333332,149.02777777777777,-20,112.77777777777777" style="stroke: rgb(214, 39, 40); stroke-width: 2; fill: none;"/><path class="linegg timeline hgroup_2" d="M-20,112.77777777777777L0,112.77777777777777" style="stroke: rgb(255, 127, 14); stroke-width: 2; fill: none;"/></g><text class="computeSig_label label" text-anchor="end" dx="-5" dy="0.5rem" fill="black" width="200" transform="translate(-180,185.27777777777777)">12</text></g><g class="node computeNode h13 statics" transform="translate(210,0)" style="pointer-events: auto;"><g class="computeSig" stroke="black" style="stroke-width: 2;"><path class="linegg timeline hgroup_3" d="M-180,354.4444444444444C-173.33333333333334,354.4444444444444,-166.66666666666666,354.4444444444444,-160,354.4444444444444C-153.33333333333334,354.4444444444444,-146.66666666666666,354.4444444444444,-140,354.4444444444444C-133.33333333333334,354.4444444444444,-126.66666666666667,354.4444444444444,-120,354.4444444444444C-113.33333333333333,354.4444444444444,-106.66666666666667,354.4444444444444,-100,354.4444444444444C-93.33333333333333,354.4444444444444,-86.66666666666667,354.4444444444444,-80,354.4444444444444C-73.33333333333333,354.4444444444444,-66.66666666666667,354.4444444444444,-60,354.4444444444444C-53.333333333333336,354.4444444444444,-46.666666666666664,354.4444444444444,-40,354.4444444444444C-33.333333333333336,354.4444444444444,-26.666666666666668,354.4444444444444,-20,354.4444444444444C-13.333333333333332,354.4444444444444,-6.666666666666667,354.4444444444444,0,354.4444444444444" style="stroke: rgb(44, 160, 44); stroke-width: 2; fill: none;"/></g><text class="computeSig_label label" text-anchor="end" dx="-5" dy="0.5rem" fill="black" width="200" transform="translate(-180,354.4444444444444)">13</text></g><g class="node computeNode h14 statics" transform="translate(210,0)" style="pointer-events: auto;"><g class="computeSig" stroke="black" style="stroke-width: 2;"><path class="linegg timeline hgroup_2" d="M-180,72.5C-173.33333333333334,72.5,-166.66666666666666,72.5,-160,72.5C-153.33333333333334,72.5,-146.66666666666666,72.5,-140,72.5C-133.33333333333334,72.5,-126.66666666666667,72.5,-120,72.5C-113.33333333333333,72.5,-106.66666666666667,72.5,-100,72.5C-93.33333333333333,72.5,-86.66666666666667,72.5,-80,72.5C-73.33333333333333,72.5,-66.66666666666667,72.5,-60,72.5C-53.333333333333336,72.5,-46.666666666666664,72.5,-40,72.5C-33.333333333333336,72.5,-26.666666666666668,72.5,-20,72.5C-13.333333333333332,72.5,-6.666666666666667,72.5,0,72.5" style="stroke: rgb(255, 127, 14); stroke-width: 2; fill: none;"/></g><text class="computeSig_label label" text-anchor="end" dx="-5" dy="0.5rem" fill="black" width="200" transform="translate(-180,72.5)">14</text></g><g class="node computeNode h15 statics" transform="translate(210,0)" style="pointer-events: auto;"><g class="computeSig" stroke="black" style="stroke-width: 2;"><path class="linegg timeline hgroup_2" d="M-180,120.83333333333334C-173.33333333333334,120.83333333333334,-166.66666666666666,120.83333333333334,-160,120.83333333333334C-153.33333333333334,120.83333333333334,-146.66666666666666,120.83333333333334,-140,120.83333333333334C-136.66666666666666,120.83333333333334,-133.33333333333334,120.83333333333334,-130,120.83333333333334C-126.66666666666667,120.83333333333334,-123.33333333333333,157.08333333333331,-120,193.33333333333331" style="stroke: rgb(255, 127, 14); stroke-width: 2; fill: none;"/><path class="linegg timeline hgroup_4" d="M-120,193.33333333333331C-113.33333333333333,193.33333333333331,-106.66666666666667,193.33333333333331,-100,193.33333333333331C-93.33333333333333,193.33333333333331,-86.66666666666667,193.33333333333331,-80,193.33333333333331C-73.33333333333333,193.33333333333331,-66.66666666666667,193.33333333333331,-60,193.33333333333331C-56.666666666666664,193.33333333333331,-53.333333333333336,193.33333333333331,-50,193.33333333333331C-46.666666666666664,193.33333333333331,-43.333333333333336,237.63888888888889,-40,281.94444444444446" style="stroke: rgb(214, 39, 40); stroke-width: 2; fill: none;"/><path class="linegg timeline hgroup_3" d="M-40,281.94444444444446C-33.333333333333336,281.94444444444446,-26.666666666666668,281.94444444444446,-20,281.94444444444446C-13.333333333333332,281.94444444444446,-6.666666666666667,281.94444444444446,0,281.94444444444446" style="stroke: rgb(44, 160, 44); stroke-width: 2; fill: none;"/></g><text class="computeSig_label label" text-anchor="end" dx="-5" dy="0.5rem" fill="black" width="200" transform="translate(-180,120.83333333333334)">15</text></g><g class="node computeNode h16 statics" transform="translate(210,0)" style="pointer-events: auto;"><g class="computeSig" stroke="black" style="stroke-width: 2;"><path class="linegg timeline hgroup_3" d="M-180,362.5C-173.33333333333334,362.5,-166.66666666666666,362.5,-160,362.5C-153.33333333333334,362.5,-146.66666666666666,362.5,-140,362.5C-133.33333333333334,362.5,-126.66666666666667,362.5,-120,362.5C-113.33333333333333,362.5,-106.66666666666667,362.5,-100,362.5C-93.33333333333333,362.5,-86.66666666666667,362.5,-80,362.5C-73.33333333333333,362.5,-66.66666666666667,362.5,-60,362.5C-53.333333333333336,362.5,-46.666666666666664,362.5,-40,362.5C-33.333333333333336,362.5,-26.666666666666668,362.5,-20,362.5C-13.333333333333332,362.5,-6.666666666666667,362.5,0,362.5" style="stroke: rgb(44, 160, 44); stroke-width: 2; fill: none;"/></g><text class="computeSig_label label" text-anchor="end" dx="-5" dy="0.5rem" fill="black" width="200" transform="translate(-180,362.5)">16</text></g><g class="node computeNode h17 statics" transform="translate(210,0)" style="pointer-events: auto;"><g class="computeSig" stroke="black" style="stroke-width: 2;"><path class="linegg timeline hgroup_1" d="M-180,8.055555555555543C-173.33333333333334,8.055555555555543,-166.66666666666666,8.055555555555543,-160,8.055555555555543C-153.33333333333334,8.055555555555543,-146.66666666666666,8.055555555555543,-140,8.055555555555543C-133.33333333333334,8.055555555555543,-126.66666666666667,8.055555555555543,-120,8.055555555555543C-113.33333333333333,8.055555555555543,-106.66666666666667,8.055555555555543,-100,8.055555555555543C-93.33333333333333,8.055555555555543,-86.66666666666667,8.055555555555543,-80,8.055555555555543C-73.33333333333333,8.055555555555543,-66.66666666666667,8.055555555555543,-60,8.055555555555543C-53.333333333333336,8.055555555555543,-46.666666666666664,8.055555555555543,-40,8.055555555555543C-33.333333333333336,8.055555555555543,-26.666666666666668,8.055555555555543,-20,8.055555555555543C-13.333333333333332,8.055555555555543,-6.666666666666667,8.055555555555543,0,8.055555555555543" style="stroke: rgb(31, 119, 180); stroke-width: 2; fill: none;"/></g><text class="computeSig_label label" text-anchor="end" dx="-5" dy="0.5rem" fill="black" width="200" transform="translate(-180,8.055555555555555)">17</text></g><g class="node computeNode h18 statics" transform="translate(210,0)" style="pointer-events: auto;"><g class="computeSig" stroke="black" style="stroke-width: 2;"><path class="linegg timeline hgroup_4" d="M-180,201.38888888888889C-173.33333333333334,201.38888888888889,-166.66666666666666,201.38888888888889,-160,201.38888888888889C-153.33333333333334,201.38888888888889,-146.66666666666666,201.38888888888889,-140,201.38888888888889C-133.33333333333334,201.38888888888889,-126.66666666666667,201.38888888888889,-120,201.38888888888889C-113.33333333333333,201.38888888888889,-106.66666666666667,201.38888888888889,-100,201.38888888888889C-93.33333333333333,201.38888888888889,-86.66666666666667,201.38888888888889,-80,201.38888888888889C-73.33333333333333,201.38888888888889,-66.66666666666667,201.38888888888889,-60,201.38888888888889C-53.333333333333336,201.38888888888889,-46.666666666666664,201.38888888888889,-40,201.38888888888889C-33.333333333333336,201.38888888888889,-26.666666666666668,201.38888888888889,-20,201.38888888888889C-13.333333333333332,201.38888888888889,-6.666666666666667,201.38888888888889,0,201.38888888888889" style="stroke: rgb(214, 39, 40); stroke-width: 2; fill: none;"/></g><text class="computeSig_label label" text-anchor="end" dx="-5" dy="0.5rem" fill="black" width="200" transform="translate(-180,201.38888888888889)">18</text></g><g class="node computeNode h19 statics" transform="translate(210,0)" style="pointer-events: auto;"><g class="computeSig" stroke="black" style="stroke-width: 2;"><path class="linegg timeline hgroup_3" d="M-180,378.6111111111111C-173.33333333333334,378.6111111111111,-166.66666666666666,378.6111111111111,-160,378.6111111111111C-153.33333333333334,378.6111111111111,-146.66666666666666,378.6111111111111,-140,378.6111111111111C-133.33333333333334,378.6111111111111,-126.66666666666667,378.6111111111111,-120,378.6111111111111C-113.33333333333333,378.6111111111111,-106.66666666666667,378.6111111111111,-100,378.6111111111111C-93.33333333333333,378.6111111111111,-86.66666666666667,378.6111111111111,-80,378.6111111111111C-73.33333333333333,378.6111111111111,-66.66666666666667,378.6111111111111,-60,378.6111111111111C-53.333333333333336,378.6111111111111,-46.666666666666664,378.6111111111111,-40,378.6111111111111C-33.333333333333336,378.6111111111111,-26.666666666666668,378.6111111111111,-20,378.6111111111111C-16.666666666666668,378.6111111111111,-13.333333333333334,378.6111111111111,-10,378.6111111111111C-6.666666666666666,378.6111111111111,-3.3333333333333335,402.77777777777777,0,426.94444444444446" style="stroke: rgb(44, 160, 44); stroke-width: 2; fill: none;"/><path class="linegg timeline hgroup_5" d="M0,426.94444444444446Z" style="stroke: rgb(148, 103, 189); stroke-width: 2;"/></g><text class="computeSig_label label" text-anchor="end" dx="-5" dy="0.5rem" fill="black" width="200" transform="translate(-180,378.6111111111111)">19</text></g><g class="node computeNode h20 statics" transform="translate(210,0)" style="pointer-events: auto;"><g class="computeSig" stroke="black" style="stroke-width: 2;"><path class="linegg timeline hgroup_3" d="M-180,314.1666666666667C-173.33333333333334,314.1666666666667,-166.66666666666666,314.1666666666667,-160,314.1666666666667C-153.33333333333334,314.1666666666667,-146.66666666666666,314.1666666666667,-140,314.1666666666667C-136.66666666666666,314.1666666666667,-133.33333333333334,314.1666666666667,-130,314.1666666666667C-126.66666666666667,314.1666666666667,-123.33333333333333,277.9166666666667,-120,241.66666666666669" style="stroke: rgb(44, 160, 44); stroke-width: 2; fill: none;"/><path class="linegg timeline hgroup_4" d="M-120,241.66666666666669C-113.33333333333333,241.66666666666669,-106.66666666666667,241.66666666666669,-100,241.66666666666669C-93.33333333333333,241.66666666666669,-86.66666666666667,241.66666666666669,-80,241.66666666666669C-73.33333333333333,241.66666666666669,-66.66666666666667,241.66666666666669,-60,241.66666666666669C-53.333333333333336,241.66666666666669,-46.666666666666664,241.66666666666669,-40,241.66666666666669C-33.333333333333336,241.66666666666669,-26.666666666666668,241.66666666666669,-20,241.66666666666669C-13.333333333333332,241.66666666666669,-6.666666666666667,241.66666666666669,0,241.66666666666669" style="stroke: rgb(214, 39, 40); stroke-width: 2; fill: none;"/></g><text class="computeSig_label label" text-anchor="end" dx="-5" dy="0.5rem" fill="black" width="200" transform="translate(-180,314.1666666666667)">20</text></g><g class="node computeNode h21 statics" transform="translate(210,0)" style="pointer-events: auto;"><g class="computeSig" stroke="black" style="stroke-width: 2;"><path class="linegg timeline hgroup_2" d="M-180,136.94444444444446C-173.33333333333334,136.94444444444446,-166.66666666666666,136.94444444444446,-160,136.94444444444446C-153.33333333333334,136.94444444444446,-146.66666666666666,136.94444444444446,-140,136.94444444444446C-136.66666666666666,136.94444444444446,-133.33333333333334,136.94444444444446,-130,136.94444444444446C-126.66666666666667,136.94444444444446,-123.33333333333333,181.25,-120,225.55555555555554" style="stroke: rgb(255, 127, 14); stroke-width: 2; fill: none;"/><path class="linegg timeline hgroup_4" d="M-120,225.55555555555554C-113.33333333333333,225.55555555555554,-106.66666666666667,225.55555555555554,-100,225.55555555555554C-96.66666666666667,225.55555555555554,-93.33333333333333,225.55555555555554,-90,225.55555555555554C-86.66666666666667,225.55555555555554,-83.33333333333333,261.80555555555554,-80,298.0555555555556" style="stroke: rgb(214, 39, 40); stroke-width: 2; fill: none;"/><path class="linegg timeline hgroup_3" d="M-80,298.0555555555556C-73.33333333333333,298.0555555555556,-66.66666666666667,298.0555555555556,-60,298.0555555555556C-53.333333333333336,298.0555555555556,-46.666666666666664,298.0555555555556,-40,298.0555555555556C-33.333333333333336,298.0555555555556,-26.666666666666668,298.0555555555556,-20,298.0555555555556C-13.333333333333332,298.0555555555556,-6.666666666666667,298.0555555555556,0,298.0555555555556" style="stroke: rgb(44, 160, 44); stroke-width: 2; fill: none;"/></g><text class="computeSig_label label" text-anchor="end" dx="-5" dy="0.5rem" fill="black" width="200" transform="translate(-180,136.94444444444446)">21</text></g><g class="node computeNode h22 statics" transform="translate(210,0)" style="pointer-events: auto;"><g class="computeSig" stroke="black" style="stroke-width: 2;"><path class="linegg timeline hgroup_4" d="M-180,209.44444444444443C-173.33333333333334,209.44444444444443,-166.66666666666666,209.44444444444443,-160,209.44444444444443C-153.33333333333334,209.44444444444443,-146.66666666666666,209.44444444444443,-140,209.44444444444443C-133.33333333333334,209.44444444444443,-126.66666666666667,209.44444444444443,-120,209.44444444444443C-113.33333333333333,209.44444444444443,-106.66666666666667,209.44444444444443,-100,209.44444444444443C-93.33333333333333,209.44444444444443,-86.66666666666667,209.44444444444443,-80,209.44444444444443C-73.33333333333333,209.44444444444443,-66.66666666666667,209.44444444444443,-60,209.44444444444443C-53.333333333333336,209.44444444444443,-46.666666666666664,209.44444444444443,-40,209.44444444444443C-33.333333333333336,209.44444444444443,-26.666666666666668,209.44444444444443,-20,209.44444444444443C-13.333333333333332,209.44444444444443,-6.666666666666667,209.44444444444443,0,209.44444444444443" style="stroke: rgb(214, 39, 40); stroke-width: 2; fill: none;"/></g><text class="computeSig_label label" text-anchor="end" dx="-5" dy="0.5rem" fill="black" width="200" transform="translate(-180,209.44444444444443)">22</text></g><g class="node computeNode h23 statics" transform="translate(210,0)" style="pointer-events: auto;"><g class="computeSig" stroke="black" style="stroke-width: 2;"><path class="linegg timeline hgroup_3" d="M-180,322.22222222222223C-173.33333333333334,322.22222222222223,-166.66666666666666,322.22222222222223,-160,322.22222222222223C-153.33333333333334,322.22222222222223,-146.66666666666666,322.22222222222223,-140,322.22222222222223C-136.66666666666666,322.22222222222223,-133.33333333333334,322.22222222222223,-130,322.22222222222223C-126.66666666666667,322.22222222222223,-123.33333333333333,285.97222222222223,-120,249.72222222222223" style="stroke: rgb(44, 160, 44); stroke-width: 2; fill: none;"/><path class="linegg timeline hgroup_4" d="M-120,249.72222222222223C-113.33333333333333,249.72222222222223,-106.66666666666667,249.72222222222223,-100,249.72222222222223C-93.33333333333333,249.72222222222223,-86.66666666666667,249.72222222222223,-80,249.72222222222223C-73.33333333333333,249.72222222222223,-66.66666666666667,249.72222222222223,-60,249.72222222222223C-53.333333333333336,249.72222222222223,-46.666666666666664,249.72222222222223,-40,249.72222222222223C-33.333333333333336,249.72222222222223,-26.666666666666668,249.72222222222223,-20,249.72222222222223C-13.333333333333332,249.72222222222223,-6.666666666666667,249.72222222222223,0,249.72222222222223" style="stroke: rgb(214, 39, 40); stroke-width: 2; fill: none;"/></g><text class="computeSig_label label" text-anchor="end" dx="-5" dy="0.5rem" fill="black" width="200" transform="translate(-180,322.22222222222223)">23</text></g><g class="node computeNode h24 statics" transform="translate(210,0)" style="pointer-events: auto;"><g class="computeSig" stroke="black" style="stroke-width: 2;"><path class="linegg timeline hgroup_2" d="M-180,96.66666666666666C-173.33333333333334,96.66666666666666,-166.66666666666666,96.66666666666666,-160,96.66666666666666C-153.33333333333334,96.66666666666666,-146.66666666666666,96.66666666666666,-140,96.66666666666666C-133.33333333333334,96.66666666666666,-126.66666666666667,96.66666666666666,-120,96.66666666666666C-113.33333333333333,96.66666666666666,-106.66666666666667,96.66666666666666,-100,96.66666666666666C-93.33333333333333,96.66666666666666,-86.66666666666667,96.66666666666666,-80,96.66666666666666C-73.33333333333333,96.66666666666666,-66.66666666666667,96.66666666666666,-60,96.66666666666666C-53.333333333333336,96.66666666666666,-46.666666666666664,96.66666666666666,-40,96.66666666666666C-36.666666666666664,96.66666666666666,-33.333333333333336,96.66666666666666,-30,96.66666666666666C-26.666666666666668,96.66666666666666,-23.333333333333332,132.91666666666666,-20,169.16666666666666" style="stroke: rgb(255, 127, 14); stroke-width: 2; fill: none;"/><path class="linegg timeline hgroup_4" d="M-20,169.16666666666666L0,169.16666666666666" style="stroke: rgb(214, 39, 40); stroke-width: 2; fill: none;"/></g><text class="computeSig_label label" text-anchor="end" dx="-5" dy="0.5rem" fill="black" width="200" transform="translate(-180,96.66666666666666)">24</text></g><g class="node computeNode h25 statics" transform="translate(210,0)" style="pointer-events: auto;"><g class="computeSig" stroke="black" style="stroke-width: 2;"><path class="linegg timeline hgroup_4" d="M-180,217.5C-173.33333333333334,217.5,-166.66666666666666,217.5,-160,217.5C-153.33333333333334,217.5,-146.66666666666666,217.5,-140,217.5C-133.33333333333334,217.5,-126.66666666666667,217.5,-120,217.5C-113.33333333333333,217.5,-106.66666666666667,217.5,-100,217.5C-93.33333333333333,217.5,-86.66666666666667,217.5,-80,217.5C-73.33333333333333,217.5,-66.66666666666667,217.5,-60,217.5C-53.333333333333336,217.5,-46.666666666666664,217.5,-40,217.5C-33.333333333333336,217.5,-26.666666666666668,217.5,-20,217.5C-13.333333333333332,217.5,-6.666666666666667,217.5,0,217.5" style="stroke: rgb(214, 39, 40); stroke-width: 2; fill: none;"/></g><text class="computeSig_label label" text-anchor="end" dx="-5" dy="0.5rem" fill="black" width="200" transform="translate(-180,217.5)">25</text></g><g class="node computeNode h26 statics" transform="translate(210,0)" style="pointer-events: auto;"><g class="computeSig" stroke="black" style="stroke-width: 2;"><path class="linegg timeline hgroup_1" d="M-180,16.111111111111086C-173.33333333333334,16.111111111111086,-166.66666666666666,16.111111111111086,-160,16.111111111111086C-153.33333333333334,16.111111111111086,-146.66666666666666,16.111111111111086,-140,16.111111111111086C-133.33333333333334,16.111111111111086,-126.66666666666667,16.111111111111086,-120,16.111111111111086C-113.33333333333333,16.111111111111086,-106.66666666666667,16.111111111111086,-100,16.111111111111086C-93.33333333333333,16.111111111111086,-86.66666666666667,16.111111111111086,-80,16.111111111111086C-73.33333333333333,16.111111111111086,-66.66666666666667,16.111111111111086,-60,16.111111111111086C-53.333333333333336,16.111111111111086,-46.666666666666664,16.111111111111086,-40,16.111111111111086C-33.333333333333336,16.111111111111086,-26.666666666666668,16.111111111111086,-20,16.111111111111086C-13.333333333333332,16.111111111111086,-6.666666666666667,16.111111111111086,0,16.111111111111086" style="stroke: rgb(31, 119, 180); stroke-width: 2; fill: none;"/></g><text class="computeSig_label label" text-anchor="end" dx="-5" dy="0.5rem" fill="black" width="200" transform="translate(-180,16.11111111111111)">26</text></g><g class="node computeNode h27 statics" transform="translate(210,0)" style="pointer-events: auto;"><g class="computeSig" stroke="black" style="stroke-width: 2;"><path class="linegg timeline hgroup_2" d="M-180,80.55555555555554C-173.33333333333334,80.55555555555554,-166.66666666666666,80.55555555555554,-160,80.55555555555554C-153.33333333333334,80.55555555555554,-146.66666666666666,80.55555555555554,-140,80.55555555555554C-133.33333333333334,80.55555555555554,-126.66666666666667,80.55555555555554,-120,80.55555555555554C-113.33333333333333,80.55555555555554,-106.66666666666667,80.55555555555554,-100,80.55555555555554C-93.33333333333333,80.55555555555554,-86.66666666666667,80.55555555555554,-80,80.55555555555554C-73.33333333333333,80.55555555555554,-66.66666666666667,80.55555555555554,-60,80.55555555555554C-53.333333333333336,80.55555555555554,-46.666666666666664,80.55555555555554,-40,80.55555555555554C-33.333333333333336,80.55555555555554,-26.666666666666668,80.55555555555554,-20,80.55555555555554C-13.333333333333332,80.55555555555554,-6.666666666666667,80.55555555555554,0,80.55555555555554" style="stroke: rgb(255, 127, 14); stroke-width: 2; fill: none;"/></g><text class="computeSig_label label" text-anchor="end" dx="-5" dy="0.5rem" fill="black" width="200" transform="translate(-180,80.55555555555556)">27</text></g><g class="node computeNode h28 statics" transform="translate(210,0)" style="pointer-events: auto;"><g class="computeSig" stroke="black" style="stroke-width: 2;"><path class="linegg timeline hgroup_4" d="M-180,257.77777777777777C-173.33333333333334,257.77777777777777,-166.66666666666666,257.77777777777777,-160,257.77777777777777C-153.33333333333334,257.77777777777777,-146.66666666666666,257.77777777777777,-140,257.77777777777777C-136.66666666666666,257.77777777777777,-133.33333333333334,257.77777777777777,-130,257.77777777777777C-126.66666666666667,257.77777777777777,-123.33333333333333,201.38888888888889,-120,145" style="stroke: rgb(214, 39, 40); stroke-width: 2; fill: none;"/><path class="linegg timeline hgroup_2" d="M-120,145C-113.33333333333333,145,-106.66666666666667,145,-100,145C-93.33333333333333,145,-86.66666666666667,145,-80,145C-76.66666666666667,145,-73.33333333333333,145,-70,145C-66.66666666666667,145,-63.333333333333336,273.8888888888889,-60,402.77777777777777" style="stroke: rgb(255, 127, 14); stroke-width: 2; fill: none;"/><path class="linegg timeline hgroup_5" d="M-60,402.77777777777777C-53.333333333333336,402.77777777777777,-46.666666666666664,402.77777777777777,-40,402.77777777777777C-33.333333333333336,402.77777777777777,-26.666666666666668,402.77777777777777,-20,402.77777777777777C-13.333333333333332,402.77777777777777,-6.666666666666667,402.77777777777777,0,402.77777777777777" style="stroke: rgb(148, 103, 189); stroke-width: 2; fill: none;"/></g><text class="computeSig_label label" text-anchor="end" dx="-5" dy="0.5rem" fill="black" width="200" transform="translate(-180,257.77777777777777)">28</text></g><g class="node computeNode h29 statics" transform="translate(210,0)" style="pointer-events: auto;"><g class="computeSig" stroke="black" style="stroke-width: 2;"><path class="linegg timeline hgroup_2" d="M-180,56.388888888888914C-173.33333333333334,56.388888888888914,-166.66666666666666,56.388888888888886,-160,56.388888888888886C-156.66666666666666,56.388888888888886,-153.33333333333334,56.388888888888886,-150,56.388888888888886C-146.66666666666666,56.388888888888886,-143.33333333333334,108.75,-140,161.11111111111111" style="stroke: rgb(255, 127, 14); stroke-width: 2; fill: none;"/><path class="linegg timeline hgroup_4" d="M-140,161.11111111111111C-136.66666666666666,161.11111111111111,-133.33333333333334,161.11111111111111,-130,161.11111111111111C-126.66666666666667,161.11111111111111,-123.33333333333333,108.75,-120,56.388888888888886" style="stroke: rgb(214, 39, 40); stroke-width: 2;"/><path class="linegg timeline hgroup_2" d="M-120,56.388888888888914C-113.33333333333333,56.388888888888914,-106.66666666666667,56.388888888888914,-100,56.388888888888914C-93.33333333333333,56.388888888888914,-86.66666666666667,56.388888888888914,-80,56.388888888888914C-73.33333333333333,56.388888888888914,-66.66666666666667,56.388888888888914,-60,56.388888888888914C-53.333333333333336,56.388888888888914,-46.666666666666664,56.388888888888914,-40,56.388888888888914C-36.666666666666664,56.388888888888886,-33.333333333333336,56.388888888888886,-30,56.388888888888886C-26.666666666666668,56.388888888888886,-23.333333333333332,44.30555555555556,-20,32.22222222222222" style="stroke: rgb(255, 127, 14); stroke-width: 2; fill: none;"/><path class="linegg timeline hgroup_1" d="M-20,32.22222222222223L0,32.22222222222223" style="stroke: rgb(31, 119, 180); stroke-width: 2; fill: none;"/></g><text class="computeSig_label label" text-anchor="end" dx="-5" dy="0.5rem" fill="black" width="200" transform="translate(-180,56.388888888888886)">29</text></g><g class="node computeNode h30 statics" transform="translate(210,0)" style="pointer-events: auto;"><g class="computeSig" stroke="black" style="stroke-width: 2;"><path class="linegg timeline hgroup_2" d="M-180,88.61111111111109C-173.33333333333334,88.61111111111109,-166.66666666666666,88.61111111111109,-160,88.61111111111109C-153.33333333333334,88.61111111111109,-146.66666666666666,88.61111111111109,-140,88.61111111111109C-133.33333333333334,88.61111111111109,-126.66666666666667,88.61111111111109,-120,88.61111111111109C-113.33333333333333,88.61111111111109,-106.66666666666667,88.61111111111109,-100,88.61111111111109C-93.33333333333333,88.61111111111109,-86.66666666666667,88.61111111111109,-80,88.61111111111109C-73.33333333333333,88.61111111111109,-66.66666666666667,88.61111111111109,-60,88.61111111111109C-53.333333333333336,88.61111111111109,-46.666666666666664,88.61111111111109,-40,88.61111111111109C-33.333333333333336,88.61111111111109,-26.666666666666668,88.61111111111109,-20,88.61111111111109C-13.333333333333332,88.61111111111109,-6.666666666666667,88.61111111111109,0,88.61111111111109" style="stroke: rgb(255, 127, 14); stroke-width: 2; fill: none;"/></g><text class="computeSig_label label" text-anchor="end" dx="-5" dy="0.5rem" fill="black" width="200" transform="translate(-180,88.6111111111111)">30</text></g></g><rect class="fisheyeLayer" style="opacity: 0; pointer-events: none;" width="180" height="480" transform="translate(120,0)"/><g class="table header" transform="translate(600,0)"><g class="back"><path style="fill: rgb(221, 221, 221);"/></g></g></g><g class="timebox hide" transform="translate(40,20)" dy="1rem" style="font-size: 16px;"/><circle id="tipfollowscursor"/></svg>