<svg id="jobmap" width="700" height="550" style="fill: none; font-size: 10px; font-family: sans-serif;" xmlns="http://www.w3.org/2000/svg" xmlns:xlink="http://www.w3.org/1999/xlink">

                    <defs id="defsmain"><pattern id="userpic" width="100%" height="100%" patternContentUnits="objectBoundingBox"><image height="1" width="1" preserveAspectRatio="none" xmlns:xlink="http://www.w3.org/1999/xlink" xlink:href="src/images/u.png"/></pattern><marker id="arrow" markerWidth="10" markerHeight="10" refX="0" refY="3" orient="auto" markerUnits="strokeWidth"><path d="M0,0 L0,6 L9,3 z" style="fill: black;"/></marker></defs><rect class="pantarget" opacity="0" width="1146" height="762"/><g class="pannel" transform="translate(50,50)"><text class="Time" text-anchor="middle" x="40" dy="-30" style="font-weight: bold; fill: black;">Time</text><line x1="60" x2="95" y1="-33" y2="-33" marker-end="url(#arrow)" style="stroke: black;"/><text class="Time" text-anchor="middle" x="-5" dy="-1rem" style="font-weight: bold; fill: black;">Instance</text><line x1="5" x2="5" y1="-5" y2="30" marker-end="url(#arrow)" style="stroke: black;"/><g class="gNodeaxis" transform="translate(610,-10)"><g class="gMainaxis" fill="none" font-size="10" font-family="sans-serif" text-anchor="middle"><g class="tick" opacity="1" transform="translate(-580, 0)"><line stroke="#000" y2="445" vector-effect="non-scaling-stroke" style="stroke-width: 0.1; stroke: black; stroke-dasharray: 1, 2; opacity: 0.5;"/><text fill="#000" y="-3" dy="-0.5rem">1</text></g><g class="tick" opacity="1" transform="translate(-560, 0)"><line stroke="#000" y2="445" vector-effect="non-scaling-stroke" style="stroke-width: 0.1; stroke: black; stroke-dasharray: 1, 2; opacity: 0.5;"/><text fill="#000" y="-3" dy="-0.5rem">2</text></g><g class="tick" opacity="1" transform="translate(-540, 0)"><line stroke="#000" y2="445" vector-effect="non-scaling-stroke" style="stroke-width: 0.1; stroke: black; stroke-dasharray: 1, 2; opacity: 0.5;"/><text fill="#000" y="-3" dy="-0.5rem">3</text></g><g class="tick" opacity="1" transform="translate(-520, 0)"><line stroke="#000" y2="445" vector-effect="non-scaling-stroke" style="stroke-width: 0.1; stroke: black; stroke-dasharray: 1, 2; opacity: 0.5;"/><text fill="#000" y="-3" dy="-0.5rem">4</text></g><g class="tick" opacity="1" transform="translate(-500, 0)"><line stroke="#000" y2="445" vector-effect="non-scaling-stroke" style="stroke-width: 0.1; stroke: black; stroke-dasharray: 1, 2; opacity: 0.5;"/><text fill="#000" y="-3" dy="-0.5rem">5</text></g><g class="tick" opacity="1" transform="translate(-480, 0)"><line stroke="#000" y2="445" vector-effect="non-scaling-stroke" style="stroke-width: 0.1; stroke: black; stroke-dasharray: 1, 2; opacity: 0.5;"/><text fill="#000" y="-3" dy="-0.5rem">6</text></g><g class="tick" opacity="1" transform="translate(-460, 0)"><line stroke="#000" y2="445" vector-effect="non-scaling-stroke" style="stroke-width: 0.1; stroke: black; stroke-dasharray: 1, 2; opacity: 0.5;"/><text fill="#000" y="-3" dy="-0.5rem">7</text></g><g class="tick" opacity="1" transform="translate(-440, 0)"><line stroke="#000" y2="445" vector-effect="non-scaling-stroke" style="stroke-width: 0.1; stroke: black; stroke-dasharray: 1, 2; opacity: 0.5;"/><text fill="#000" y="-3" dy="-0.5rem">8</text></g><g class="tick" opacity="1" transform="translate(-420, 0)"><line stroke="#000" y2="445" vector-effect="non-scaling-stroke" style="stroke-width: 0.1; stroke: black; stroke-dasharray: 1, 2; opacity: 0.5;"/><text fill="#000" y="-3" dy="-0.5rem">9</text></g><g class="tick" opacity="1" transform="translate(-400, 0)"><line stroke="#000" y2="445" vector-effect="non-scaling-stroke" style="stroke-width: 0.1; stroke: black; stroke-dasharray: 1, 2; opacity: 0.5;"/><text fill="#000" y="-3" dy="-0.5rem">10</text></g><g class="tick" opacity="1" transform="translate(-380, 0)"><line stroke="#000" y2="445" vector-effect="non-scaling-stroke" style="stroke-width: 0.1; stroke: black; stroke-dasharray: 1, 2; opacity: 0.5;"/><text fill="#000" y="-3" dy="-0.5rem">11</text></g><g class="tick" opacity="1" transform="translate(-360, 0)"><line stroke="#000" y2="445" vector-effect="non-scaling-stroke" style="stroke-width: 0.1; stroke: black; stroke-dasharray: 1, 2; opacity: 0.5;"/><text fill="#000" y="-3" dy="-0.5rem">12</text></g><g class="tick" opacity="1" transform="translate(-340, 0)"><line stroke="#000" y2="445" vector-effect="non-scaling-stroke" style="stroke-width: 0.1; stroke: black; stroke-dasharray: 1, 2; opacity: 0.5;"/><text fill="#000" y="-3" dy="-0.5rem">13</text></g><g class="tick" opacity="1" transform="translate(-320, 0)"><line stroke="#000" y2="445" vector-effect="non-scaling-stroke" style="stroke-width: 0.1; stroke: black; stroke-dasharray: 1, 2; opacity: 0.5;"/><text fill="#000" y="-3" dy="-0.5rem">14</text></g><g class="tick" opacity="1" transform="translate(-300, 0)"><line stroke="#000" y2="445" vector-effect="non-scaling-stroke" style="stroke-width: 0.1; stroke: black; stroke-dasharray: 1, 2; opacity: 0.5;"/><text fill="#000" y="-3" dy="-0.5rem">15</text></g><g class="tick" opacity="1" transform="translate(-280, 0)"><line stroke="#000" y2="445" vector-effect="non-scaling-stroke" style="stroke-width: 0.1; stroke: black; stroke-dasharray: 1, 2; opacity: 0.5;"/><text fill="#000" y="-3" dy="-0.5rem">16</text></g><g class="tick" opacity="1" transform="translate(-260, 0)"><line stroke="#000" y2="445" vector-effect="non-scaling-stroke" style="stroke-width: 0.1; stroke: black; stroke-dasharray: 1, 2; opacity: 0.5;"/><text fill="#000" y="-3" dy="-0.5rem">17</text></g><g class="tick" opacity="1" transform="translate(-240, 0)"><line stroke="#000" y2="445" vector-effect="non-scaling-stroke" style="stroke-width: 0.1; stroke: black; stroke-dasharray: 1, 2; opacity: 0.5;"/><text fill="#000" y="-3" dy="-0.5rem">18</text></g><g class="tick" opacity="1" transform="translate(-220, 0)"><line stroke="#000" y2="445" vector-effect="non-scaling-stroke" style="stroke-width: 0.1; stroke: black; stroke-dasharray: 1, 2; opacity: 0.5;"/><text fill="#000" y="-3" dy="-0.5rem">19</text></g><g class="tick" opacity="1" transform="translate(-200, 0)"><line stroke="#000" y2="445" vector-effect="non-scaling-stroke" style="stroke-width: 0.1; stroke: black; stroke-dasharray: 1, 2; opacity: 0.5;"/><text fill="#000" y="-3" dy="-0.5rem">20</text></g><g class="tick" opacity="1" transform="translate(-180, 0)"><line stroke="#000" y2="445" vector-effect="non-scaling-stroke" style="stroke-width: 0.1; stroke: black; stroke-dasharray: 1, 2; opacity: 0.5;"/><text fill="#000" y="-3" dy="-0.5rem">21</text></g><g class="tick" opacity="1" transform="translate(-160, 0)"><line stroke="#000" y2="445" vector-effect="non-scaling-stroke" style="stroke-width: 0.1; stroke: black; stroke-dasharray: 1, 2; opacity: 0.5;"/><text fill="#000" y="-3" dy="-0.5rem">22</text></g><g class="tick" opacity="1" transform="translate(-140, 0)"><line stroke="#000" y2="445" vector-effect="non-scaling-stroke" style="stroke-width: 0.1; stroke: black; stroke-dasharray: 1, 2; opacity: 0.5;"/><text fill="#000" y="-3" dy="-0.5rem">23</text></g><g class="tick" opacity="1" transform="translate(-120, 0)"><line stroke="#000" y2="445" vector-effect="non-scaling-stroke" style="stroke-width: 0.1; stroke: black; stroke-dasharray: 1, 2; opacity: 0.5;"/><text fill="#000" y="-3" dy="-0.5rem">24</text></g><g class="tick" opacity="1" transform="translate(-100, 0)"><line stroke="#000" y2="445" vector-effect="non-scaling-stroke" style="stroke-width: 0.1; stroke: black; stroke-dasharray: 1, 2; opacity: 0.5;"/><text fill="#000" y="-3" dy="-0.5rem">25</text></g><g class="tick" opacity="1" transform="translate(-80, 0)"><line stroke="#000" y2="445" vector-effect="non-scaling-stroke" style="stroke-width: 0.1; stroke: black; stroke-dasharray: 1, 2; opacity: 0.5;"/><text fill="#000" y="-3" dy="-0.5rem">26</text></g><g class="tick" opacity="1" transform="translate(-60, 0)"><line stroke="#000" y2="445" vector-effect="non-scaling-stroke" style="stroke-width: 0.1; stroke: black; stroke-dasharray: 1, 2; opacity: 0.5;"/><text fill="#000" y="-3" dy="-0.5rem">27</text></g><g class="tick" opacity="1" transform="translate(-40, 0)"><line stroke="#000" y2="445" vector-effect="non-scaling-stroke" style="stroke-width: 0.1; stroke: black; stroke-dasharray: 1, 2; opacity: 0.5;"/><text fill="#000" y="-3" dy="-0.5rem">28</text></g><g class="tick" opacity="1" transform="translate(-20, 0)"><line stroke="#000" y2="445" vector-effect="non-scaling-stroke" style="stroke-width: 0.1; stroke: black; stroke-dasharray: 1, 2; opacity: 0.5;"/><text fill="#000" y="-3" dy="-0.5rem">29</text></g><g class="tick" opacity="1" transform=""><line stroke="#000" y2="445" vector-effect="non-scaling-stroke" style="stroke-width: 0.1; stroke: black; stroke-dasharray: 1, 2; opacity: 0.5;"/><text fill="#000" y="-3" dy="-0.5rem">30</text></g></g><g class="gSubaxis hide"/></g><g class="annotation"/><g class="linkg"><g class="links" style="display: none;"><path stroke="black" style="stroke-width: 2;"/><text text-anchor="middle">1</text></g><g class="links" style="display: none;"><path stroke="black" style="stroke-width: 2;"/><text text-anchor="middle">1</text></g><g class="links" style="display: none;"><path stroke="black" style="stroke-width: 2;"/><text text-anchor="middle">1</text></g><g class="links" style="display: none;"><path stroke="black" style="stroke-width: 2;"/><text text-anchor="middle">1</text></g><g class="links" style="display: none;"><path stroke="black" style="stroke-width: 2;"/><text text-anchor="middle">1</text></g><g class="links" style="display: none;"><path stroke="black" style="stroke-width: 2;"/><text text-anchor="middle">1</text></g><g class="links" style="display: none;"><path stroke="black" style="stroke-width: 2;"/><text text-anchor="middle">1</text></g><g class="links" style="display: none;"><path stroke="black" style="stroke-width: 2;"/><text text-anchor="middle">1</text></g><g class="links" style="display: none;"><path stroke="black" style="stroke-width: 2;"/><text text-anchor="middle">1</text></g><g class="links" style="display: none;"><path stroke="black" style="stroke-width: 2;"/><text text-anchor="middle">1</text></g><g class="links" style="display: none;"><path stroke="black" style="stroke-width: 2;"/><text text-anchor="middle">1</text></g><g class="links" style="display: none;"><path stroke="black" style="stroke-width: 2;"/><text text-anchor="middle">1</text></g><g class="links" style="display: none;"><path stroke="black" style="stroke-width: 2;"/><text text-anchor="middle">1</text></g><g class="links" style="display: none;"><path stroke="black" style="stroke-width: 2;"/><text text-anchor="middle">1</text></g><g class="links" style="display: none;"><path stroke="black" style="stroke-width: 2;"/><text text-anchor="middle">1</text></g><g class="links" style="display: none;"><path stroke="black" style="stroke-width: 2;"/><text text-anchor="middle">1</text></g><g class="links" style="display: none;"><path stroke="black" style="stroke-width: 2;"/><text text-anchor="middle">1</text></g><g class="links" style="display: none;"><path stroke="black" style="stroke-width: 2;"/><text text-anchor="middle">1</text></g><g class="links" style="display: none;"><path stroke="black" style="stroke-width: 2;"/><text text-anchor="middle">1</text></g><g class="links" style="display: none;"><path stroke="black" style="stroke-width: 2;"/><text text-anchor="middle">1</text></g><g class="links" style="display: none;"><path stroke="black" style="stroke-width: 2;"/><text text-anchor="middle">1</text></g><g class="links" style="display: none;"><path stroke="black" style="stroke-width: 2;"/><text text-anchor="middle">1</text></g><g class="links" style="display: none;"><path stroke="black" style="stroke-width: 2;"/><text text-anchor="middle">1</text></g><g class="links" style="display: none;"><path stroke="black" style="stroke-width: 2;"/><text text-anchor="middle">1</text></g><g class="links" style="display: none;"><path stroke="black" style="stroke-width: 2;"/><text text-anchor="middle">1</text></g><g class="links" style="display: none;"><path stroke="black" style="stroke-width: 2;"/><text text-anchor="middle">1</text></g><g class="links" style="display: none;"><path stroke="black" style="stroke-width: 2;"/><text text-anchor="middle">1</text></g><g class="links" style="display: none;"><path stroke="black" style="stroke-width: 2;"/><text text-anchor="middle">1</text></g><g class="links" style="display: none;"><path stroke="black" style="stroke-width: 2;"/><text text-anchor="middle">1</text></g><g class="links" style="display: none;"><path stroke="black" style="stroke-width: 2;"/><text text-anchor="middle">1</text></g><g class="links" style="display: none;"><path stroke="black" style="stroke-width: 2;"/><text text-anchor="middle">1</text></g></g><g class="nodeg"><g class="node computeNode h1 statics" transform="translate(610,0)" style="pointer-events: auto;"><g class="computeSig" stroke="black" style="stroke-width: 2;"><path class="linegg timeline hgroup_1" d="M-580,260C-573.3333333333334,260,-566.6666666666666,260,-560,260C-553.3333333333334,260,-546.6666666666666,260,-540,260C-533.3333333333334,260,-526.6666666666666,260,-520,260C-516.6666666666666,260,-513.3333333333334,260,-510,260C-506.6666666666667,260,-503.3333333333333,142.5,-500,25" style="stroke: rgb(31, 119, 180); stroke-width: 2; fill: none;"/><path class="linegg timeline hgroup_3" d="M-500,25C-493.3333333333333,25,-486.6666666666667,25,-480,25C-473.3333333333333,25,-466.6666666666667,25,-460,25C-453.3333333333333,25,-446.6666666666667,25,-440,25C-433.3333333333333,25,-426.6666666666667,25,-420,25C-413.3333333333333,25,-406.6666666666667,25,-400,25C-393.3333333333333,25,-386.6666666666667,25,-380,25C-373.3333333333333,25,-366.6666666666667,25,-360,25C-353.3333333333333,25,-346.6666666666667,25,-340,25C-333.3333333333333,25,-326.6666666666667,25,-320,25C-313.3333333333333,25,-306.6666666666667,25,-300,25C-296.6666666666667,25,-293.3333333333333,25,-290,25C-286.6666666666667,25,-283.3333333333333,142.5,-280,260" style="stroke: rgb(44, 160, 44); stroke-width: 2; fill: none;"/><path class="linegg timeline hgroup_1" d="M-280,260C-273.3333333333333,260,-266.6666666666667,260,-260,260C-253.33333333333334,260,-246.66666666666666,260,-240,260C-233.33333333333334,260,-226.66666666666666,260,-220,260C-213.33333333333334,260,-206.66666666666666,260,-200,260C-193.33333333333334,260,-186.66666666666666,260,-180,260C-173.33333333333334,260,-166.66666666666666,260,-160,260C-153.33333333333334,260,-146.66666666666666,260,-140,260C-133.33333333333334,260,-126.66666666666667,260,-120,260C-113.33333333333333,260,-106.66666666666667,260,-100,260C-93.33333333333333,260,-86.66666666666667,260,-80,260C-73.33333333333333,260,-66.66666666666667,260,-60,260C-53.333333333333336,260,-46.666666666666664,260,-40,260C-33.333333333333336,260,-26.666666666666668,260,-20,260C-13.333333333333332,260,-6.666666666666667,260,0,260" style="stroke: rgb(31, 119, 180); stroke-width: 2; fill: none;"/></g><text class="computeSig_label label" text-anchor="end" dx="-5" dy="0.5rem" fill="black" width="200" transform="translate(-580,260)">1</text></g><g class="node computeNode h2 statics" transform="translate(610,0)" style="pointer-events: auto;"><g class="computeSig" stroke="black" style="stroke-width: 2;"><path class="linegg timeline hgroup_2" d="M-580,175C-576.6666666666666,175,-573.3333333333334,175,-570,175C-566.6666666666666,175,-563.3333333333334,222.5,-560,270" style="stroke: rgb(255, 127, 14); stroke-width: 2;"/><path class="linegg timeline hgroup_1" d="M-560,270C-556.6666666666666,270,-553.3333333333334,270,-550,270C-546.6666666666666,270,-543.3333333333334,222.5,-540,175" style="stroke: rgb(31, 119, 180); stroke-width: 2;"/><path class="linegg timeline hgroup_2" d="M-540,175C-533.3333333333334,175,-526.6666666666666,175,-520,175C-513.3333333333334,175,-506.6666666666667,175,-500,175C-493.3333333333333,175,-486.6666666666667,175,-480,175C-473.3333333333333,175,-466.6666666666667,175,-460,175C-453.3333333333333,175,-446.6666666666667,175,-440,175C-433.3333333333333,175,-426.6666666666667,175,-420,175C-413.3333333333333,175,-406.6666666666667,175,-400,175C-393.3333333333333,175,-386.6666666666667,175,-380,175C-373.3333333333333,175,-366.6666666666667,175,-360,175C-353.3333333333333,175,-346.6666666666667,175,-340,175C-333.3333333333333,175,-326.6666666666667,175,-320,175C-313.3333333333333,175,-306.6666666666667,175,-300,175C-293.3333333333333,175,-286.6666666666667,175,-280,175C-273.3333333333333,175,-266.6666666666667,175,-260,175C-253.33333333333334,175,-246.66666666666666,175,-240,175C-233.33333333333334,175,-226.66666666666666,175,-220,175C-213.33333333333334,175,-206.66666666666666,175,-200,175C-193.33333333333334,175,-186.66666666666666,175,-180,175C-173.33333333333334,175,-166.66666666666666,175,-160,175C-153.33333333333334,175,-146.66666666666666,175,-140,175C-133.33333333333334,175,-126.66666666666667,175,-120,175C-113.33333333333333,175,-106.66666666666667,175,-100,175C-93.33333333333333,175,-86.66666666666667,175,-80,175C-73.33333333333333,175,-66.66666666666667,175,-60,175C-53.333333333333336,175,-46.666666666666664,175,-40,175C-33.333333333333336,175,-26.666666666666668,175,-20,175C-16.666666666666668,175,-13.333333333333334,175,-10,175C-6.666666666666666,175,-3.3333333333333335,267.5,0,360" style="stroke: rgb(255, 127, 14); stroke-width: 2; fill: none;"/><path class="linegg timeline hgroup_5" d="M0,360Z" style="stroke: rgb(148, 103, 189); stroke-width: 2;"/></g><text class="computeSig_label label" text-anchor="end" dx="-5" dy="0.5rem" fill="black" width="200" transform="translate(-580,175)">2</text></g><g class="node computeNode h3 statics" transform="translate(610,0)" style="pointer-events: auto;"><g class="computeSig" stroke="black" style="stroke-width: 2;"><path class="linegg timeline hgroup_2" d="M-580,155C-576.6666666666666,155,-573.3333333333334,155,-570,155C-566.6666666666666,155,-563.3333333333334,200,-560,245" style="stroke: rgb(255, 127, 14); stroke-width: 2;"/><path class="linegg timeline hgroup_1" d="M-560,245C-553.3333333333334,245,-546.6666666666666,245,-540,245C-533.3333333333334,245,-526.6666666666666,245,-520,245C-513.3333333333334,245,-506.6666666666667,245,-500,245C-493.3333333333333,245,-486.6666666666667,245,-480,245C-473.3333333333333,245,-466.6666666666667,245,-460,245C-453.3333333333333,245,-446.6666666666667,245,-440,245C-433.3333333333333,245,-426.6666666666667,245,-420,245C-413.3333333333333,245,-406.6666666666667,245,-400,245C-396.6666666666667,245,-393.3333333333333,245,-390,245C-386.6666666666667,245,-383.3333333333333,157.5,-380,70" style="stroke: rgb(31, 119, 180); stroke-width: 2; fill: none;"/><path class="linegg timeline hgroup_4" d="M-380,70C-373.3333333333333,70,-366.6666666666667,70,-360,70C-353.3333333333333,70,-346.6666666666667,70,-340,70C-333.3333333333333,70,-326.6666666666667,70,-320,70C-313.3333333333333,70,-306.6666666666667,70,-300,70C-293.3333333333333,70,-286.6666666666667,70,-280,70C-273.3333333333333,70,-266.6666666666667,70,-260,70C-253.33333333333334,70,-246.66666666666666,70,-240,70C-233.33333333333334,70,-226.66666666666666,70,-220,70C-213.33333333333334,70,-206.66666666666666,70,-200,70C-193.33333333333334,70,-186.66666666666666,70,-180,70C-173.33333333333334,70,-166.66666666666666,70,-160,70C-153.33333333333334,70,-146.66666666666666,70,-140,70C-133.33333333333334,70,-126.66666666666667,70,-120,70C-113.33333333333333,70,-106.66666666666667,70,-100,70C-93.33333333333333,70,-86.66666666666667,70,-80,70C-73.33333333333333,70,-66.66666666666667,70,-60,70C-53.333333333333336,70,-46.666666666666664,70,-40,70C-36.666666666666664,70,-33.333333333333336,70,-30,70C-26.666666666666668,70,-23.333333333333332,212.5,-20,355" style="stroke: rgb(214, 39, 40); stroke-width: 2; fill: none;"/><path class="linegg timeline hgroup_5" d="M-20,355L0,355" style="stroke: rgb(148, 103, 189); stroke-width: 2; fill: none;"/></g><text class="computeSig_label label" text-anchor="end" dx="-5" dy="0.5rem" fill="black" width="200" transform="translate(-580,155)">3</text></g><g class="node computeNode h4 statics" transform="translate(610,0)" style="pointer-events: auto;"><g class="computeSig" stroke="black" style="stroke-width: 2;"><path class="linegg timeline hgroup_3" d="M-580,5C-573.3333333333334,5,-566.6666666666666,5,-560,5C-553.3333333333334,5,-546.6666666666666,5,-540,5C-533.3333333333334,5,-526.6666666666666,5,-520,5C-513.3333333333334,5,-506.6666666666667,5,-500,5C-493.3333333333333,5,-486.6666666666667,5,-480,5C-473.3333333333333,5,-466.6666666666667,5,-460,5C-453.3333333333333,5,-446.6666666666667,5,-440,5C-433.3333333333333,5,-426.6666666666667,5,-420,5C-413.3333333333333,5,-406.6666666666667,5,-400,5C-393.3333333333333,5,-386.6666666666667,5,-380,5C-373.3333333333333,5,-366.6666666666667,5,-360,5C-353.3333333333333,5,-346.6666666666667,5,-340,5C-333.3333333333333,5,-326.6666666666667,5,-320,5C-313.3333333333333,5,-306.6666666666667,5,-300,5C-293.3333333333333,5,-286.6666666666667,5,-280,5C-273.3333333333333,5,-266.6666666666667,5,-260,5C-253.33333333333334,5,-246.66666666666666,5,-240,5C-233.33333333333334,5,-226.66666666666666,5,-220,5C-213.33333333333334,5,-206.66666666666666,5,-200,5C-193.33333333333334,5,-186.66666666666666,5,-180,5C-173.33333333333334,5,-166.66666666666666,5,-160,5C-153.33333333333334,5,-146.66666666666666,5,-140,5C-133.33333333333334,5,-126.66666666666667,5,-120,5C-113.33333333333333,5,-106.66666666666667,5,-100,5C-93.33333333333333,5,-86.66666666666667,5,-80,5C-73.33333333333333,5,-66.66666666666667,5,-60,5C-53.333333333333336,5,-46.666666666666664,5,-40,5C-33.333333333333336,5,-26.666666666666668,5,-20,5C-13.333333333333332,5,-6.666666666666667,5,0,5" style="stroke: rgb(44, 160, 44); stroke-width: 2; fill: none;"/></g><text class="computeSig_label label" text-anchor="end" dx="-5" dy="0.5rem" fill="black" width="200" transform="translate(-580,5)">4</text></g><g class="node computeNode h5 statics" transform="translate(610,0)" style="pointer-events: auto;"><g class="computeSig" stroke="black" style="stroke-width: 2;"><path class="linegg timeline hgroup_2" d="M-580,140C-573.3333333333334,140,-566.6666666666666,140,-560,140C-556.6666666666666,140,-553.3333333333334,140,-550,140C-546.6666666666666,140,-543.3333333333334,97.5,-540,55.00000000000001" style="stroke: rgb(255, 127, 14); stroke-width: 2; fill: none;"/><path class="linegg timeline hgroup_4" d="M-540,55.00000000000001C-533.3333333333334,55.00000000000001,-526.6666666666666,55.00000000000001,-520,55.00000000000001C-513.3333333333334,55.00000000000001,-506.6666666666667,55.00000000000001,-500,55.00000000000001C-493.3333333333333,55.00000000000001,-486.6666666666667,55.00000000000001,-480,55.00000000000001C-476.6666666666667,55.00000000000001,-473.3333333333333,55.00000000000001,-470,55.00000000000001C-466.6666666666667,55.00000000000001,-463.3333333333333,35.00000000000001,-460,15" style="stroke: rgb(214, 39, 40); stroke-width: 2; fill: none;"/><path class="linegg timeline hgroup_3" d="M-460,15C-453.3333333333333,15,-446.6666666666667,15,-440,15C-433.3333333333333,15,-426.6666666666667,15,-420,15C-413.3333333333333,15,-406.6666666666667,15,-400,15C-393.3333333333333,15,-386.6666666666667,15,-380,15C-373.3333333333333,15,-366.6666666666667,15,-360,15C-353.3333333333333,15,-346.6666666666667,15,-340,15C-333.3333333333333,15,-326.6666666666667,15,-320,15C-316.6666666666667,15,-313.3333333333333,15,-310,15C-306.6666666666667,15,-303.3333333333333,35,-300,55.00000000000001" style="stroke: rgb(44, 160, 44); stroke-width: 2; fill: none;"/><path class="linegg timeline hgroup_4" d="M-300,55.00000000000001C-293.3333333333333,55.00000000000001,-286.6666666666667,55.00000000000001,-280,55.00000000000001C-276.6666666666667,55.00000000000001,-273.3333333333333,55.00000000000001,-270,55.00000000000001C-266.6666666666667,55.00000000000001,-263.3333333333333,200,-260,345" style="stroke: rgb(214, 39, 40); stroke-width: 2; fill: none;"/><path class="linegg timeline hgroup_5" d="M-260,345C-253.33333333333334,345,-246.66666666666666,345,-240,345C-236.66666666666666,345,-233.33333333333334,345,-230,345C-226.66666666666666,345,-223.33333333333334,200,-220,55.00000000000001" style="stroke: rgb(148, 103, 189); stroke-width: 2; fill: none;"/><path class="linegg timeline hgroup_4" d="M-220,55.00000000000001C-216.66666666666666,55.00000000000001,-213.33333333333334,55.00000000000001,-210,55.00000000000001C-206.66666666666666,55.00000000000001,-203.33333333333334,35.00000000000001,-200,15" style="stroke: rgb(214, 39, 40); stroke-width: 2;"/><path class="linegg timeline hgroup_3" d="M-200,15C-193.33333333333334,15,-186.66666666666666,15,-180,15C-173.33333333333334,15,-166.66666666666666,15,-160,15C-153.33333333333334,15,-146.66666666666666,15,-140,15C-133.33333333333334,15,-126.66666666666667,15,-120,15C-113.33333333333333,15,-106.66666666666667,15,-100,15C-93.33333333333333,15,-86.66666666666667,15,-80,15C-73.33333333333333,15,-66.66666666666667,15,-60,15C-53.333333333333336,15,-46.666666666666664,15,-40,15C-33.333333333333336,15,-26.666666666666668,15,-20,15C-13.333333333333332,15,-6.666666666666667,15,0,15" style="stroke: rgb(44, 160, 44); stroke-width: 2; fill: none;"/></g><text class="computeSig_label label" text-anchor="end" dx="-5" dy="0.5rem" fill="black" width="200" transform="translate(-580,140)">5</text></g><g class="node computeNode h6 statics" transform="translate(610,0)" style="pointer-events: auto;"><g class="computeSig" stroke="black" style="stroke-width: 2;"><path class="linegg timeline hgroup_2" d="M-580,230C-573.3333333333334,230,-566.6666666666666,230,-560,230C-553.3333333333334,230,-546.6666666666666,230,-540,230C-533.3333333333334,230,-526.6666666666666,230,-520,230C-516.6666666666666,230,-513.3333333333334,230,-510,230C-506.6666666666667,230,-503.3333333333333,135,-500,40" style="stroke: rgb(255, 127, 14); stroke-width: 2; fill: none;"/><path class="linegg timeline hgroup_3" d="M-500,40C-493.3333333333333,40,-486.6666666666667,40,-480,40C-476.6666666666667,40,-473.3333333333333,40,-470,40C-466.6666666666667,40,-463.3333333333333,222.5,-460,405" style="stroke: rgb(44, 160, 44); stroke-width: 2; fill: none;"/><path class="linegg timeline hgroup_5" d="M-460,405C-453.3333333333333,405,-446.6666666666667,405,-440,405C-433.3333333333333,405,-426.6666666666667,405,-420,405C-413.3333333333333,405,-406.6666666666667,405,-400,405C-393.3333333333333,405,-386.6666666666667,405,-380,405C-373.3333333333333,405,-366.6666666666667,405,-360,405C-353.3333333333333,405,-346.6666666666667,405,-340,405C-333.3333333333333,405,-326.6666666666667,405,-320,405C-313.3333333333333,405,-306.6666666666667,405,-300,405C-293.3333333333333,405,-286.6666666666667,405,-280,405C-273.3333333333333,405,-266.6666666666667,405,-260,405C-253.33333333333334,405,-246.66666666666666,405,-240,405C-233.33333333333334,405,-226.66666666666666,405,-220,405C-213.33333333333334,405,-206.66666666666666,405,-200,405C-193.33333333333334,405,-186.66666666666666,405,-180,405C-173.33333333333334,405,-166.66666666666666,405,-160,405C-153.33333333333334,405,-146.66666666666666,405,-140,405C-133.33333333333334,405,-126.66666666666667,405,-120,405C-113.33333333333333,405,-106.66666666666667,405,-100,405C-93.33333333333333,405,-86.66666666666667,405,-80,405C-76.66666666666667,405,-73.33333333333333,405,-70,405C-66.66666666666667,405,-63.333333333333336,360,-60,315" style="stroke: rgb(148, 103, 189); stroke-width: 2; fill: none;"/><path class="linegg timeline hgroup_1" d="M-60,315C-53.333333333333336,315,-46.666666666666664,315,-40,315C-33.333333333333336,315,-26.666666666666668,315,-20,315C-13.333333333333332,315,-6.666666666666667,315,0,315" style="stroke: rgb(31, 119, 180); stroke-width: 2; fill: none;"/></g><text class="computeSig_label label" text-anchor="end" dx="-5" dy="0.5rem" fill="black" width="200" transform="translate(-580,230)">6</text></g><g class="node computeNode h7 statics" transform="translate(610,0)" style="pointer-events: auto;"><g class="computeSig" stroke="black" style="stroke-width: 2;"><path class="linegg timeline hgroup_4" d="M-580,65C-573.3333333333334,65,-566.6666666666666,65,-560,65C-553.3333333333334,65,-546.6666666666666,65,-540,65C-533.3333333333334,65,-526.6666666666666,65,-520,65C-513.3333333333334,65,-506.6666666666667,65,-500,65C-496.6666666666667,65,-493.3333333333333,65,-490,65C-486.6666666666667,65,-483.3333333333333,107.5,-480,150" style="stroke: rgb(214, 39, 40); stroke-width: 2; fill: none;"/><path class="linegg timeline hgroup_2" d="M-480,150C-473.3333333333333,150,-466.6666666666667,150,-460,150C-453.3333333333333,150,-446.6666666666667,150,-440,150C-433.3333333333333,150,-426.6666666666667,150,-420,150C-413.3333333333333,150,-406.6666666666667,150,-400,150C-393.3333333333333,150,-386.6666666666667,150,-380,150C-373.3333333333333,150,-366.6666666666667,150,-360,150C-353.3333333333333,150,-346.6666666666667,150,-340,150C-333.3333333333333,150,-326.6666666666667,150,-320,150C-313.3333333333333,150,-306.6666666666667,150,-300,150C-293.3333333333333,150,-286.6666666666667,150,-280,150C-273.3333333333333,150,-266.6666666666667,150,-260,150C-253.33333333333334,150,-246.66666666666666,150,-240,150C-233.33333333333334,150,-226.66666666666666,150,-220,150C-213.33333333333334,150,-206.66666666666666,150,-200,150C-193.33333333333334,150,-186.66666666666666,150,-180,150C-173.33333333333334,150,-166.66666666666666,150,-160,150C-153.33333333333334,150,-146.66666666666666,150,-140,150C-136.66666666666666,150,-133.33333333333334,150,-130,150C-126.66666666666667,150,-123.33333333333333,250,-120,350" style="stroke: rgb(255, 127, 14); stroke-width: 2; fill: none;"/><path class="linegg timeline hgroup_5" d="M-120,350C-113.33333333333333,350,-106.66666666666667,350,-100,350C-96.66666666666667,350,-93.33333333333333,350,-90,350C-86.66666666666667,350,-83.33333333333333,185,-80,20" style="stroke: rgb(148, 103, 189); stroke-width: 2; fill: none;"/><path class="linegg timeline hgroup_3" d="M-80,20C-73.33333333333333,20,-66.66666666666667,20,-60,20C-56.666666666666664,20,-53.333333333333336,20,-50,20C-46.666666666666664,20,-43.333333333333336,42.5,-40,65" style="stroke: rgb(44, 160, 44); stroke-width: 2; fill: none;"/><path class="linegg timeline hgroup_4" d="M-40,65C-33.333333333333336,65,-26.666666666666668,65,-20,65C-13.333333333333332,65,-6.666666666666667,65,0,65" style="stroke: rgb(214, 39, 40); stroke-width: 2; fill: none;"/></g><text class="computeSig_label label" text-anchor="end" dx="-5" dy="0.5rem" fill="black" width="200" transform="translate(-580,65)">7</text></g><g class="node computeNode h8 statics" transform="translate(610,0)" style="pointer-events: auto;"><g class="computeSig" stroke="black" style="stroke-width: 2;"><path class="linegg timeline hgroup_1" d="M-580,275C-573.3333333333334,275,-566.6666666666666,275,-560,275C-553.3333333333334,275,-546.6666666666666,275,-540,275C-533.3333333333334,275,-526.6666666666666,275,-520,275C-513.3333333333334,275,-506.6666666666667,275,-500,275C-493.3333333333333,275,-486.6666666666667,275,-480,275C-473.3333333333333,275,-466.6666666666667,275,-460,275C-453.3333333333333,275,-446.6666666666667,275,-440,275C-433.3333333333333,275,-426.6666666666667,275,-420,275C-413.3333333333333,275,-406.6666666666667,275,-400,275C-393.3333333333333,275,-386.6666666666667,275,-380,275C-373.3333333333333,275,-366.6666666666667,275,-360,275C-353.3333333333333,275,-346.6666666666667,275,-340,275C-333.3333333333333,275,-326.6666666666667,275,-320,275C-313.3333333333333,275,-306.6666666666667,275,-300,275C-293.3333333333333,275,-286.6666666666667,275,-280,275C-273.3333333333333,275,-266.6666666666667,275,-260,275C-256.6666666666667,275,-253.33333333333334,275,-250,275C-246.66666666666666,275,-243.33333333333334,227.5,-240,180" style="stroke: rgb(31, 119, 180); stroke-width: 2; fill: none;"/><path class="linegg timeline hgroup_2" d="M-240,180C-233.33333333333334,180,-226.66666666666666,180,-220,180C-213.33333333333334,180,-206.66666666666666,180,-200,180C-193.33333333333334,180,-186.66666666666666,180,-180,180C-173.33333333333334,180,-166.66666666666666,180,-160,180C-156.66666666666666,180,-153.33333333333334,180,-150,180C-146.66666666666666,180,-143.33333333333334,135,-140,90" style="stroke: rgb(255, 127, 14); stroke-width: 2; fill: none;"/><path class="linegg timeline hgroup_4" d="M-140,90C-133.33333333333334,90,-126.66666666666667,90,-120,90C-116.66666666666667,90,-113.33333333333333,90,-110,90C-106.66666666666667,90,-103.33333333333333,62.5,-100,35" style="stroke: rgb(214, 39, 40); stroke-width: 2; fill: none;"/><path class="linegg timeline hgroup_3" d="M-100,35C-93.33333333333333,35,-86.66666666666667,35,-80,35C-76.66666666666667,35,-73.33333333333333,35,-70,35C-66.66666666666667,35,-63.333333333333336,155,-60,275" style="stroke: rgb(44, 160, 44); stroke-width: 2; fill: none;"/><path class="linegg timeline hgroup_1" d="M-60,275C-53.333333333333336,275,-46.666666666666664,275,-40,275C-33.333333333333336,275,-26.666666666666668,275,-20,275C-13.333333333333332,275,-6.666666666666667,275,0,275" style="stroke: rgb(31, 119, 180); stroke-width: 2; fill: none;"/></g><text class="computeSig_label label" text-anchor="end" dx="-5" dy="0.5rem" fill="black" width="200" transform="translate(-580,275)">8</text></g><g class="node computeNode h9 statics" transform="translate(610,0)" style="pointer-events: auto;"><g class="computeSig" stroke="black" style="stroke-width: 2;"><path class="linegg timeline hgroup_1" d="M-580,305C-573.3333333333334,305,-566.6666666666666,305,-560,305C-553.3333333333334,305,-546.6666666666666,305,-540,305C-536.6666666666666,305,-533.3333333333334,305,-530,305C-526.6666666666666,305,-523.3333333333334,262.5,-520,220.00000000000003" style="stroke: rgb(31, 119, 180); stroke-width: 2; fill: none;"/><path class="linegg timeline hgroup_2" d="M-520,220.00000000000003C-513.3333333333334,220.00000000000003,-506.6666666666667,220.00000000000003,-500,220.00000000000003C-496.6666666666667,220.00000000000003,-493.3333333333333,220.00000000000003,-490,220.00000000000003C-486.6666666666667,220.00000000000003,-483.3333333333333,170.00000000000003,-480,120" style="stroke: rgb(255, 127, 14); stroke-width: 2; fill: none;"/><path class="linegg timeline hgroup_4" d="M-480,120C-473.3333333333333,120,-466.6666666666667,120,-460,120C-453.3333333333333,120,-446.6666666666667,120,-440,120C-433.3333333333333,120,-426.6666666666667,120,-420,120C-413.3333333333333,120,-406.6666666666667,120,-400,120C-393.3333333333333,120,-386.6666666666667,120,-380,120C-376.6666666666667,120,-373.3333333333333,120,-370,120C-366.6666666666667,120,-363.3333333333333,255,-360,390" style="stroke: rgb(214, 39, 40); stroke-width: 2; fill: none;"/><path class="linegg timeline hgroup_5" d="M-360,390C-353.3333333333333,390,-346.6666666666667,390,-340,390C-333.3333333333333,390,-326.6666666666667,390,-320,390C-313.3333333333333,390,-306.6666666666667,390,-300,390C-293.3333333333333,390,-286.6666666666667,390,-280,390C-273.3333333333333,390,-266.6666666666667,390,-260,390C-253.33333333333334,390,-246.66666666666666,390,-240,390C-233.33333333333334,390,-226.66666666666666,390,-220,390C-213.33333333333334,390,-206.66666666666666,390,-200,390C-193.33333333333334,390,-186.66666666666666,390,-180,390C-173.33333333333334,390,-166.66666666666666,390,-160,390C-153.33333333333334,390,-146.66666666666666,390,-140,390C-133.33333333333334,390,-126.66666666666667,390,-120,390C-113.33333333333333,390,-106.66666666666667,390,-100,390C-93.33333333333333,390,-86.66666666666667,390,-80,390C-73.33333333333333,390,-66.66666666666667,390,-60,390C-53.333333333333336,390,-46.666666666666664,390,-40,390C-33.333333333333336,390,-26.666666666666668,390,-20,390C-13.333333333333332,390,-6.666666666666667,390,0,390" style="stroke: rgb(148, 103, 189); stroke-width: 2; fill: none;"/></g><text class="computeSig_label label" text-anchor="end" dx="-5" dy="0.5rem" fill="black" width="200" transform="translate(-580,305)">9</text></g><g class="node computeNode h10 statics" transform="translate(610,0)" style="pointer-events: auto;"><g class="computeSig" stroke="black" style="stroke-width: 2;"><path class="linegg timeline hgroup_5" d="M-580,400C-576.6666666666666,400,-573.3333333333334,400,-570,400C-566.6666666666666,400,-563.3333333333334,355,-560,310" style="stroke: rgb(148, 103, 189); stroke-width: 2;"/><path class="linegg timeline hgroup_1" d="M-560,310C-553.3333333333334,310,-546.6666666666666,310,-540,310C-533.3333333333334,310,-526.6666666666666,310,-520,310C-513.3333333333334,310,-506.6666666666667,310,-500,310C-493.3333333333333,310,-486.6666666666667,310,-480,310C-473.3333333333333,310,-466.6666666666667,310,-460,310C-453.3333333333333,310,-446.6666666666667,310,-440,310C-433.3333333333333,310,-426.6666666666667,310,-420,310C-413.3333333333333,310,-406.6666666666667,310,-400,310C-393.3333333333333,310,-386.6666666666667,310,-380,310C-373.3333333333333,310,-366.6666666666667,310,-360,310C-353.3333333333333,310,-346.6666666666667,310,-340,310C-333.3333333333333,310,-326.6666666666667,310,-320,310C-313.3333333333333,310,-306.6666666666667,310,-300,310C-293.3333333333333,310,-286.6666666666667,310,-280,310C-273.3333333333333,310,-266.6666666666667,310,-260,310C-253.33333333333334,310,-246.66666666666666,310,-240,310C-233.33333333333334,310,-226.66666666666666,310,-220,310C-213.33333333333334,310,-206.66666666666666,310,-200,310C-193.33333333333334,310,-186.66666666666666,310,-180,310C-173.33333333333334,310,-166.66666666666666,310,-160,310C-156.66666666666666,310,-153.33333333333334,310,-150,310C-146.66666666666666,310,-143.33333333333334,355,-140,400" style="stroke: rgb(31, 119, 180); stroke-width: 2; fill: none;"/><path class="linegg timeline hgroup_5" d="M-140,400C-133.33333333333334,400,-126.66666666666667,400,-120,400C-113.33333333333333,400,-106.66666666666667,400,-100,400C-93.33333333333333,400,-86.66666666666667,400,-80,400C-73.33333333333333,400,-66.66666666666667,400,-60,400C-53.333333333333336,400,-46.666666666666664,400,-40,400C-33.333333333333336,400,-26.666666666666668,400,-20,400C-13.333333333333332,400,-6.666666666666667,400,0,400" style="stroke: rgb(148, 103, 189); stroke-width: 2; fill: none;"/></g><text class="computeSig_label label" text-anchor="end" dx="-5" dy="0.5rem" fill="black" width="200" transform="translate(-580,400)">10</text></g><g class="node computeNode h11 statics" transform="translate(610,0)" style="pointer-events: auto;"><g class="computeSig" stroke="black" style="stroke-width: 2;"><path class="linegg timeline hgroup_5" d="M-580,380C-573.3333333333334,380,-566.6666666666666,380,-560,380C-553.3333333333334,380,-546.6666666666666,380,-540,380C-533.3333333333334,380,-526.6666666666666,380,-520,380C-513.3333333333334,380,-506.6666666666667,380,-500,380C-493.3333333333333,380,-486.6666666666667,380,-480,380C-473.3333333333333,380,-466.6666666666667,380,-460,380C-453.3333333333333,380,-446.6666666666667,380,-440,380C-433.3333333333333,380,-426.6666666666667,380,-420,380C-413.3333333333333,380,-406.6666666666667,380,-400,380C-393.3333333333333,380,-386.6666666666667,380,-380,380C-373.3333333333333,380,-366.6666666666667,380,-360,380C-353.3333333333333,380,-346.6666666666667,380,-340,380C-333.3333333333333,380,-326.6666666666667,380,-320,380C-313.3333333333333,380,-306.6666666666667,380,-300,380C-296.6666666666667,380,-293.3333333333333,380,-290,380C-286.6666666666667,380,-283.3333333333333,245,-280,110.00000000000001" style="stroke: rgb(148, 103, 189); stroke-width: 2; fill: none;"/><path class="linegg timeline hgroup_4" d="M-280,110.00000000000001C-273.3333333333333,110.00000000000001,-266.6666666666667,110.00000000000001,-260,110.00000000000001C-253.33333333333334,110.00000000000001,-246.66666666666666,110.00000000000001,-240,110.00000000000001C-236.66666666666666,110.00000000000001,-233.33333333333334,110.00000000000001,-230,110.00000000000001C-226.66666666666666,110.00000000000001,-223.33333333333334,160,-220,210" style="stroke: rgb(214, 39, 40); stroke-width: 2; fill: none;"/><path class="linegg timeline hgroup_2" d="M-220,210C-213.33333333333334,210,-206.66666666666666,210,-200,210C-193.33333333333334,210,-186.66666666666666,210,-180,210C-173.33333333333334,210,-166.66666666666666,210,-160,210C-153.33333333333334,210,-146.66666666666666,210,-140,210C-133.33333333333334,210,-126.66666666666667,210,-120,210C-113.33333333333333,210,-106.66666666666667,210,-100,210C-93.33333333333333,210,-86.66666666666667,210,-80,210C-73.33333333333333,210,-66.66666666666667,210,-60,210C-53.333333333333336,210,-46.666666666666664,210,-40,210C-33.333333333333336,210,-26.666666666666668,210,-20,210C-16.666666666666668,210,-13.333333333333334,210,-10,210C-6.666666666666666,210,-3.3333333333333335,295,0,380" style="stroke: rgb(255, 127, 14); stroke-width: 2; fill: none;"/><path class="linegg timeline hgroup_5" d="M0,380Z" style="stroke: rgb(148, 103, 189); stroke-width: 2;"/></g><text class="computeSig_label label" text-anchor="end" dx="-5" dy="0.5rem" fill="black" width="200" transform="translate(-580,380)">11</text></g><g class="node computeNode h12 statics" transform="translate(610,0)" style="pointer-events: auto;"><g class="computeSig" stroke="black" style="stroke-width: 2;"><path class="linegg timeline hgroup_5" d="M-580,435C-573.3333333333334,435,-566.6666666666666,435,-560,435C-553.3333333333334,435,-546.6666666666666,435,-540,435C-533.3333333333334,435,-526.6666666666666,435,-520,435C-513.3333333333334,435,-506.6666666666667,435,-500,435C-493.3333333333333,435,-486.6666666666667,435,-480,435C-473.3333333333333,435,-466.6666666666667,435,-460,435C-453.3333333333333,435,-446.6666666666667,435,-440,435C-433.3333333333333,435,-426.6666666666667,435,-420,435C-413.3333333333333,435,-406.6666666666667,435,-400,435C-393.3333333333333,435,-386.6666666666667,435,-380,435C-373.3333333333333,435,-366.6666666666667,435,-360,435C-353.3333333333333,435,-346.6666666666667,435,-340,435C-333.3333333333333,435,-326.6666666666667,435,-320,435C-313.3333333333333,435,-306.6666666666667,435,-300,435C-293.3333333333333,435,-286.6666666666667,435,-280,435C-273.3333333333333,435,-266.6666666666667,435,-260,435C-253.33333333333334,435,-246.66666666666666,435,-240,435C-233.33333333333334,435,-226.66666666666666,435,-220,435C-213.33333333333334,435,-206.66666666666666,435,-200,435C-193.33333333333334,435,-186.66666666666666,435,-180,435C-173.33333333333334,435,-166.66666666666666,435,-160,435C-153.33333333333334,435,-146.66666666666666,435,-140,435C-133.33333333333334,435,-126.66666666666667,435,-120,435C-113.33333333333333,435,-106.66666666666667,435,-100,435C-93.33333333333333,435,-86.66666666666667,435,-80,435C-73.33333333333333,435,-66.66666666666667,435,-60,435C-53.333333333333336,435,-46.666666666666664,435,-40,435C-33.333333333333336,435,-26.666666666666668,435,-20,435C-13.333333333333332,435,-6.666666666666667,435,0,435" style="stroke: rgb(148, 103, 189); stroke-width: 2; fill: none;"/></g><text class="computeSig_label label" text-anchor="end" dx="-5" dy="0.5rem" fill="black" width="200" transform="translate(-580,435)">12</text></g><g class="node computeNode h13 statics" transform="translate(610,0)" style="pointer-events: auto;"><g class="computeSig" stroke="black" style="stroke-width: 2;"><path class="linegg timeline hgroup_2" d="M-580,195C-573.3333333333334,195,-566.6666666666666,195,-560,195C-553.3333333333334,195,-546.6666666666666,195,-540,195C-533.3333333333334,195,-526.6666666666666,195,-520,195C-513.3333333333334,195,-506.6666666666667,195,-500,195C-496.6666666666667,195,-493.3333333333333,195,-490,195C-486.6666666666667,195,-483.3333333333333,240,-480,285" style="stroke: rgb(255, 127, 14); stroke-width: 2; fill: none;"/><path class="linegg timeline hgroup_1" d="M-480,285C-473.3333333333333,285,-466.6666666666667,285,-460,285C-453.3333333333333,285,-446.6666666666667,285,-440,285C-433.3333333333333,285,-426.6666666666667,285,-420,285C-413.3333333333333,285,-406.6666666666667,285,-400,285C-393.3333333333333,285,-386.6666666666667,285,-380,285C-373.3333333333333,285,-366.6666666666667,285,-360,285C-353.3333333333333,285,-346.6666666666667,285,-340,285C-333.3333333333333,285,-326.6666666666667,285,-320,285C-313.3333333333333,285,-306.6666666666667,285,-300,285C-293.3333333333333,285,-286.6666666666667,285,-280,285C-273.3333333333333,285,-266.6666666666667,285,-260,285C-253.33333333333334,285,-246.66666666666666,285,-240,285C-233.33333333333334,285,-226.66666666666666,285,-220,285C-213.33333333333334,285,-206.66666666666666,285,-200,285C-193.33333333333334,285,-186.66666666666666,285,-180,285C-173.33333333333334,285,-166.66666666666666,285,-160,285C-156.66666666666666,285,-153.33333333333334,285,-150,285C-146.66666666666666,285,-143.33333333333334,240,-140,195" style="stroke: rgb(31, 119, 180); stroke-width: 2; fill: none;"/><path class="linegg timeline hgroup_2" d="M-140,195C-133.33333333333334,195,-126.66666666666667,195,-120,195C-113.33333333333333,195,-106.66666666666667,195,-100,195C-93.33333333333333,195,-86.66666666666667,195,-80,195C-73.33333333333333,195,-66.66666666666667,195,-60,195C-53.333333333333336,195,-46.666666666666664,195,-40,195C-33.333333333333336,195,-26.666666666666668,195,-20,195C-13.333333333333332,195,-6.666666666666667,195,0,195" style="stroke: rgb(255, 127, 14); stroke-width: 2; fill: none;"/></g><text class="computeSig_label label" text-anchor="end" dx="-5" dy="0.5rem" fill="black" width="200" transform="translate(-580,195)">13</text></g><g class="node computeNode h14 statics" transform="translate(610,0)" style="pointer-events: auto;"><g class="computeSig" stroke="black" style="stroke-width: 2;"><path class="linegg timeline hgroup_5" d="M-580,420C-573.3333333333334,420,-566.6666666666666,420,-560,420C-553.3333333333334,420,-546.6666666666666,420,-540,420C-533.3333333333334,420,-526.6666666666666,420,-520,420C-513.3333333333334,420,-506.6666666666667,420,-500,420C-493.3333333333333,420,-486.6666666666667,420,-480,420C-473.3333333333333,420,-466.6666666666667,420,-460,420C-453.3333333333333,420,-446.6666666666667,420,-440,420C-433.3333333333333,420,-426.6666666666667,420,-420,420C-413.3333333333333,420,-406.6666666666667,420,-400,420C-393.3333333333333,420,-386.6666666666667,420,-380,420C-373.3333333333333,420,-366.6666666666667,420,-360,420C-353.3333333333333,420,-346.6666666666667,420,-340,420C-333.3333333333333,420,-326.6666666666667,420,-320,420C-313.3333333333333,420,-306.6666666666667,420,-300,420C-293.3333333333333,420,-286.6666666666667,420,-280,420C-273.3333333333333,420,-266.6666666666667,420,-260,420C-253.33333333333334,420,-246.66666666666666,420,-240,420C-233.33333333333334,420,-226.66666666666666,420,-220,420C-213.33333333333334,420,-206.66666666666666,420,-200,420C-193.33333333333334,420,-186.66666666666666,420,-180,420C-173.33333333333334,420,-166.66666666666666,420,-160,420C-156.66666666666666,420,-153.33333333333334,420,-150,420C-146.66666666666666,420,-143.33333333333334,372.5,-140,325" style="stroke: rgb(148, 103, 189); stroke-width: 2; fill: none;"/><path class="linegg timeline hgroup_1" d="M-140,325C-133.33333333333334,325,-126.66666666666667,325,-120,325C-113.33333333333333,325,-106.66666666666667,325,-100,325C-93.33333333333333,325,-86.66666666666667,325,-80,325C-73.33333333333333,325,-66.66666666666667,325,-60,325C-53.333333333333336,325,-46.666666666666664,325,-40,325C-36.666666666666664,325,-33.333333333333336,325,-30,325C-26.666666666666668,325,-23.333333333333332,185,-20,45" style="stroke: rgb(31, 119, 180); stroke-width: 2; fill: none;"/><path class="linegg timeline hgroup_3" d="M-20,45L0,45" style="stroke: rgb(44, 160, 44); stroke-width: 2; fill: none;"/></g><text class="computeSig_label label" text-anchor="end" dx="-5" dy="0.5rem" fill="black" width="200" transform="translate(-580,420)">14</text></g><g class="node computeNode h15 statics" transform="translate(610,0)" style="pointer-events: auto;"><g class="computeSig" stroke="black" style="stroke-width: 2;"><path class="linegg timeline hgroup_1" d="M-580,249.99999999999997C-573.3333333333334,249.99999999999997,-566.6666666666666,249.99999999999997,-560,249.99999999999997C-553.3333333333334,249.99999999999997,-546.6666666666666,249.99999999999997,-540,249.99999999999997C-533.3333333333334,249.99999999999997,-526.6666666666666,249.99999999999997,-520,249.99999999999997C-513.3333333333334,249.99999999999997,-506.6666666666667,249.99999999999997,-500,249.99999999999997C-493.3333333333333,249.99999999999997,-486.6666666666667,249.99999999999997,-480,249.99999999999997C-473.3333333333333,249.99999999999997,-466.6666666666667,249.99999999999997,-460,249.99999999999997C-453.3333333333333,249.99999999999997,-446.6666666666667,249.99999999999997,-440,249.99999999999997C-433.3333333333333,249.99999999999997,-426.6666666666667,249.99999999999997,-420,249.99999999999997C-413.3333333333333,249.99999999999997,-406.6666666666667,249.99999999999997,-400,249.99999999999997C-393.3333333333333,249.99999999999997,-386.6666666666667,249.99999999999997,-380,249.99999999999997C-373.3333333333333,249.99999999999997,-366.6666666666667,249.99999999999997,-360,249.99999999999997C-353.3333333333333,249.99999999999997,-346.6666666666667,249.99999999999997,-340,249.99999999999997C-336.6666666666667,249.99999999999997,-333.3333333333333,249.99999999999997,-330,249.99999999999997C-326.6666666666667,249.99999999999997,-323.3333333333333,162.5,-320,75" style="stroke: rgb(31, 119, 180); stroke-width: 2; fill: none;"/><path class="linegg timeline hgroup_4" d="M-320,75C-313.3333333333333,75,-306.6666666666667,75,-300,75C-293.3333333333333,75,-286.6666666666667,75,-280,75C-273.3333333333333,75,-266.6666666666667,75,-260,75C-253.33333333333334,75,-246.66666666666666,75,-240,75C-233.33333333333334,75,-226.66666666666666,75,-220,75C-213.33333333333334,75,-206.66666666666666,75,-200,75C-193.33333333333334,75,-186.66666666666666,75,-180,75C-173.33333333333334,75,-166.66666666666666,75,-160,75C-153.33333333333334,75,-146.66666666666666,75,-140,75C-133.33333333333334,75,-126.66666666666667,75,-120,75C-113.33333333333333,75,-106.66666666666667,75,-100,75C-93.33333333333333,75,-86.66666666666667,75,-80,75C-73.33333333333333,75,-66.66666666666667,75,-60,75C-53.333333333333336,75,-46.666666666666664,75,-40,75C-33.333333333333336,75,-26.666666666666668,75,-20,75C-13.333333333333332,75,-6.666666666666667,75,0,75" style="stroke: rgb(214, 39, 40); stroke-width: 2; fill: none;"/></g><text class="computeSig_label label" text-anchor="end" dx="-5" dy="0.5rem" fill="black" width="200" transform="translate(-580,249.99999999999997)">15</text></g><g class="node computeNode h16 statics" transform="translate(610,0)" style="pointer-events: auto;"><g class="computeSig" stroke="black" style="stroke-width: 2;"><path class="linegg timeline hgroup_1" d="M-580,335C-573.3333333333334,335,-566.6666666666666,335,-560,335C-556.6666666666666,335,-553.3333333333334,335,-550,335C-546.6666666666666,335,-543.3333333333334,382.5,-540,430" style="stroke: rgb(31, 119, 180); stroke-width: 2; fill: none;"/><path class="linegg timeline hgroup_5" d="M-540,430C-533.3333333333334,430,-526.6666666666666,430,-520,430C-513.3333333333334,430,-506.6666666666667,430,-500,430C-493.3333333333333,430,-486.6666666666667,430,-480,430C-473.3333333333333,430,-466.6666666666667,430,-460,430C-453.3333333333333,430,-446.6666666666667,430,-440,430C-433.3333333333333,430,-426.6666666666667,430,-420,430C-413.3333333333333,430,-406.6666666666667,430,-400,430C-393.3333333333333,430,-386.6666666666667,430,-380,430C-373.3333333333333,430,-366.6666666666667,430,-360,430C-353.3333333333333,430,-346.6666666666667,430,-340,430C-333.3333333333333,430,-326.6666666666667,430,-320,430C-313.3333333333333,430,-306.6666666666667,430,-300,430C-293.3333333333333,430,-286.6666666666667,430,-280,430C-273.3333333333333,430,-266.6666666666667,430,-260,430C-253.33333333333334,430,-246.66666666666666,430,-240,430C-233.33333333333334,430,-226.66666666666666,430,-220,430C-213.33333333333334,430,-206.66666666666666,430,-200,430C-193.33333333333334,430,-186.66666666666666,430,-180,430C-173.33333333333334,430,-166.66666666666666,430,-160,430C-153.33333333333334,430,-146.66666666666666,430,-140,430C-133.33333333333334,430,-126.66666666666667,430,-120,430C-113.33333333333333,430,-106.66666666666667,430,-100,430C-93.33333333333333,430,-86.66666666666667,430,-80,430C-73.33333333333333,430,-66.66666666666667,430,-60,430C-53.333333333333336,430,-46.666666666666664,430,-40,430C-33.333333333333336,430,-26.666666666666668,430,-20,430C-13.333333333333332,430,-6.666666666666667,430,0,430" style="stroke: rgb(148, 103, 189); stroke-width: 2; fill: none;"/></g><text class="computeSig_label label" text-anchor="end" dx="-5" dy="0.5rem" fill="black" width="200" transform="translate(-580,335)">16</text></g><g class="node computeNode h17 statics" transform="translate(610,0)" style="pointer-events: auto;"><g class="computeSig" stroke="black" style="stroke-width: 2;"><path class="linegg timeline hgroup_3" d="M-580,10C-573.3333333333334,10,-566.6666666666666,10,-560,10C-553.3333333333334,10,-546.6666666666666,10,-540,10C-533.3333333333334,10,-526.6666666666666,10,-520,10C-513.3333333333334,10,-506.6666666666667,10,-500,10C-493.3333333333333,10,-486.6666666666667,10,-480,10C-473.3333333333333,10,-466.6666666666667,10,-460,10C-453.3333333333333,10,-446.6666666666667,10,-440,10C-433.3333333333333,10,-426.6666666666667,10,-420,10C-413.3333333333333,10,-406.6666666666667,10,-400,10C-393.3333333333333,10,-386.6666666666667,10,-380,10C-373.3333333333333,10,-366.6666666666667,10,-360,10C-353.3333333333333,10,-346.6666666666667,10,-340,10C-333.3333333333333,10,-326.6666666666667,10,-320,10C-313.3333333333333,10,-306.6666666666667,10,-300,10C-293.3333333333333,10,-286.6666666666667,10,-280,10C-273.3333333333333,10,-266.6666666666667,10,-260,10C-253.33333333333334,10,-246.66666666666666,10,-240,10C-233.33333333333334,10,-226.66666666666666,10,-220,10C-213.33333333333334,10,-206.66666666666666,10,-200,10C-193.33333333333334,10,-186.66666666666666,10,-180,10C-173.33333333333334,10,-166.66666666666666,10,-160,10C-153.33333333333334,10,-146.66666666666666,10,-140,10C-133.33333333333334,10,-126.66666666666667,10,-120,10C-113.33333333333333,10,-106.66666666666667,10,-100,10C-93.33333333333333,10,-86.66666666666667,10,-80,10C-73.33333333333333,10,-66.66666666666667,10,-60,10C-53.333333333333336,10,-46.666666666666664,10,-40,10C-33.333333333333336,10,-26.666666666666668,10,-20,10C-13.333333333333332,10,-6.666666666666667,10,0,10" style="stroke: rgb(44, 160, 44); stroke-width: 2; fill: none;"/></g><text class="computeSig_label label" text-anchor="end" dx="-5" dy="0.5rem" fill="black" width="200" transform="translate(-580,10)">17</text></g><g class="node computeNode h18 statics" transform="translate(610,0)" style="pointer-events: auto;"><g class="computeSig" stroke="black" style="stroke-width: 2;"><path class="linegg timeline hgroup_1" d="M-580,280C-573.3333333333334,280,-566.6666666666666,280,-560,280C-553.3333333333334,280,-546.6666666666666,280,-540,280C-533.3333333333334,280,-526.6666666666666,280,-520,280C-513.3333333333334,280,-506.6666666666667,280,-500,280C-493.3333333333333,280,-486.6666666666667,280,-480,280C-473.3333333333333,280,-466.6666666666667,280,-460,280C-453.3333333333333,280,-446.6666666666667,280,-440,280C-433.3333333333333,280,-426.6666666666667,280,-420,280C-413.3333333333333,280,-406.6666666666667,280,-400,280C-393.3333333333333,280,-386.6666666666667,280,-380,280C-373.3333333333333,280,-366.6666666666667,280,-360,280C-353.3333333333333,280,-346.6666666666667,280,-340,280C-336.6666666666667,280,-333.3333333333333,280,-330,280C-326.6666666666667,280,-323.3333333333333,187.5,-320,95" style="stroke: rgb(31, 119, 180); stroke-width: 2; fill: none;"/><path class="linegg timeline hgroup_4" d="M-320,95C-313.3333333333333,95,-306.6666666666667,95,-300,95C-293.3333333333333,95,-286.6666666666667,95,-280,95C-273.3333333333333,95,-266.6666666666667,95,-260,95C-253.33333333333334,95,-246.66666666666666,95,-240,95C-236.66666666666666,95,-233.33333333333334,95,-230,95C-226.66666666666666,95,-223.33333333333334,230,-220,365" style="stroke: rgb(214, 39, 40); stroke-width: 2; fill: none;"/><path class="linegg timeline hgroup_5" d="M-220,365C-213.33333333333334,365,-206.66666666666666,365,-200,365C-196.66666666666666,365,-193.33333333333334,365,-190,365C-186.66666666666666,365,-183.33333333333334,322.5,-180,280" style="stroke: rgb(148, 103, 189); stroke-width: 2; fill: none;"/><path class="linegg timeline hgroup_1" d="M-180,280C-173.33333333333334,280,-166.66666666666666,280,-160,280C-153.33333333333334,280,-146.66666666666666,280,-140,280C-133.33333333333334,280,-126.66666666666667,280,-120,280C-116.66666666666667,280,-113.33333333333333,280,-110,280C-106.66666666666667,280,-103.33333333333333,232.5,-100,185" style="stroke: rgb(31, 119, 180); stroke-width: 2; fill: none;"/><path class="linegg timeline hgroup_2" d="M-100,185C-93.33333333333333,185,-86.66666666666667,185,-80,185C-73.33333333333333,185,-66.66666666666667,185,-60,185C-53.333333333333336,185,-46.666666666666664,185,-40,185C-33.333333333333336,185,-26.666666666666668,185,-20,185C-13.333333333333332,185,-6.666666666666667,185,0,185" style="stroke: rgb(255, 127, 14); stroke-width: 2; fill: none;"/></g><text class="computeSig_label label" text-anchor="end" dx="-5" dy="0.5rem" fill="black" width="200" transform="translate(-580,280)">18</text></g><g class="node computeNode h19 statics" transform="translate(610,0)" style="pointer-events: auto;"><g class="computeSig" stroke="black" style="stroke-width: 2;"><path class="linegg timeline hgroup_5" d="M-580,375C-573.3333333333334,375,-566.6666666666666,375,-560,375C-553.3333333333334,375,-546.6666666666666,375,-540,375C-533.3333333333334,375,-526.6666666666666,375,-520,375C-513.3333333333334,375,-506.6666666666667,375,-500,375C-493.3333333333333,375,-486.6666666666667,375,-480,375C-473.3333333333333,375,-466.6666666666667,375,-460,375C-453.3333333333333,375,-446.6666666666667,375,-440,375C-433.3333333333333,375,-426.6666666666667,375,-420,375C-413.3333333333333,375,-406.6666666666667,375,-400,375C-396.6666666666667,375,-393.3333333333333,375,-390,375C-386.6666666666667,375,-383.3333333333333,240,-380,105" style="stroke: rgb(148, 103, 189); stroke-width: 2; fill: none;"/><path class="linegg timeline hgroup_4" d="M-380,105C-373.3333333333333,105,-366.6666666666667,105,-360,105C-353.3333333333333,105,-346.6666666666667,105,-340,105C-333.3333333333333,105,-326.6666666666667,105,-320,105C-313.3333333333333,105,-306.6666666666667,105,-300,105C-293.3333333333333,105,-286.6666666666667,105,-280,105C-273.3333333333333,105,-266.6666666666667,105,-260,105C-256.6666666666667,105,-253.33333333333334,105,-250,105C-246.66666666666666,105,-243.33333333333334,152.5,-240,200" style="stroke: rgb(214, 39, 40); stroke-width: 2; fill: none;"/><path class="linegg timeline hgroup_2" d="M-240,200C-233.33333333333334,200,-226.66666666666666,200,-220,200C-213.33333333333334,200,-206.66666666666666,200,-200,200C-193.33333333333334,200,-186.66666666666666,200,-180,200C-173.33333333333334,200,-166.66666666666666,200,-160,200C-156.66666666666666,200,-153.33333333333334,200,-150,200C-146.66666666666666,200,-143.33333333333334,152.5,-140,105" style="stroke: rgb(255, 127, 14); stroke-width: 2; fill: none;"/><path class="linegg timeline hgroup_4" d="M-140,105C-133.33333333333334,105,-126.66666666666667,105,-120,105C-116.66666666666667,105,-113.33333333333333,105,-110,105C-106.66666666666667,105,-103.33333333333333,197.5,-100,290" style="stroke: rgb(214, 39, 40); stroke-width: 2; fill: none;"/><path class="linegg timeline hgroup_1" d="M-100,290C-93.33333333333333,290,-86.66666666666667,290,-80,290C-73.33333333333333,290,-66.66666666666667,290,-60,290C-53.333333333333336,290,-46.666666666666664,290,-40,290C-33.333333333333336,290,-26.666666666666668,290,-20,290C-13.333333333333332,290,-6.666666666666667,290,0,290" style="stroke: rgb(31, 119, 180); stroke-width: 2; fill: none;"/></g><text class="computeSig_label label" text-anchor="end" dx="-5" dy="0.5rem" fill="black" width="200" transform="translate(-580,375)">19</text></g><g class="node computeNode h20 statics" transform="translate(610,0)" style="pointer-events: auto;"><g class="computeSig" stroke="black" style="stroke-width: 2;"><path class="linegg timeline hgroup_2" d="M-580,170C-573.3333333333334,170,-566.6666666666666,170,-560,170C-556.6666666666666,170,-553.3333333333334,170,-550,170C-546.6666666666666,170,-543.3333333333334,127.5,-540,85" style="stroke: rgb(255, 127, 14); stroke-width: 2; fill: none;"/><path class="linegg timeline hgroup_4" d="M-540,85C-536.6666666666666,85,-533.3333333333334,85,-530,85C-526.6666666666666,85,-523.3333333333334,127.5,-520,170" style="stroke: rgb(214, 39, 40); stroke-width: 2;"/><path class="linegg timeline hgroup_2" d="M-520,170C-513.3333333333334,170,-506.6666666666667,170,-500,170C-493.3333333333333,170,-486.6666666666667,170,-480,170C-473.3333333333333,170,-466.6666666666667,170,-460,170C-453.3333333333333,170,-446.6666666666667,170,-440,170C-433.3333333333333,170,-426.6666666666667,170,-420,170C-413.3333333333333,170,-406.6666666666667,170,-400,170C-393.3333333333333,170,-386.6666666666667,170,-380,170C-373.3333333333333,170,-366.6666666666667,170,-360,170C-353.3333333333333,170,-346.6666666666667,170,-340,170C-333.3333333333333,170,-326.6666666666667,170,-320,170C-313.3333333333333,170,-306.6666666666667,170,-300,170C-293.3333333333333,170,-286.6666666666667,170,-280,170C-273.3333333333333,170,-266.6666666666667,170,-260,170C-253.33333333333334,170,-246.66666666666666,170,-240,170C-233.33333333333334,170,-226.66666666666666,170,-220,170C-213.33333333333334,170,-206.66666666666666,170,-200,170C-193.33333333333334,170,-186.66666666666666,170,-180,170C-173.33333333333334,170,-166.66666666666666,170,-160,170C-153.33333333333334,170,-146.66666666666666,170,-140,170C-133.33333333333334,170,-126.66666666666667,170,-120,170C-113.33333333333333,170,-106.66666666666667,170,-100,170C-93.33333333333333,170,-86.66666666666667,170,-80,170C-73.33333333333333,170,-66.66666666666667,170,-60,170C-53.333333333333336,170,-46.666666666666664,170,-40,170C-33.333333333333336,170,-26.666666666666668,170,-20,170C-13.333333333333332,170,-6.666666666666667,170,0,170" style="stroke: rgb(255, 127, 14); stroke-width: 2; fill: none;"/></g><text class="computeSig_label label" text-anchor="end" dx="-5" dy="0.5rem" fill="black" width="200" transform="translate(-580,170)">20</text></g><g class="node computeNode h21 statics" transform="translate(610,0)" style="pointer-events: auto;"><g class="computeSig" stroke="black" style="stroke-width: 2;"><path class="linegg timeline hgroup_2" d="M-580,205C-573.3333333333334,205,-566.6666666666666,205,-560,205C-553.3333333333334,205,-546.6666666666666,205,-540,205C-533.3333333333334,205,-526.6666666666666,205,-520,205C-513.3333333333334,205,-506.6666666666667,205,-500,205C-493.3333333333333,205,-486.6666666666667,205,-480,205C-473.3333333333333,205,-466.6666666666667,205,-460,205C-453.3333333333333,205,-446.6666666666667,205,-440,205C-433.3333333333333,205,-426.6666666666667,205,-420,205C-413.3333333333333,205,-406.6666666666667,205,-400,205C-396.6666666666667,205,-393.3333333333333,205,-390,205C-386.6666666666667,205,-383.3333333333333,250,-380,295" style="stroke: rgb(255, 127, 14); stroke-width: 2; fill: none;"/><path class="linegg timeline hgroup_1" d="M-380,295C-373.3333333333333,295,-366.6666666666667,295,-360,295C-353.3333333333333,295,-346.6666666666667,295,-340,295C-333.3333333333333,295,-326.6666666666667,295,-320,295C-313.3333333333333,295,-306.6666666666667,295,-300,295C-293.3333333333333,295,-286.6666666666667,295,-280,295C-273.3333333333333,295,-266.6666666666667,295,-260,295C-253.33333333333334,295,-246.66666666666666,295,-240,295C-233.33333333333334,295,-226.66666666666666,295,-220,295C-213.33333333333334,295,-206.66666666666666,295,-200,295C-193.33333333333334,295,-186.66666666666666,295,-180,295C-173.33333333333334,295,-166.66666666666666,295,-160,295C-153.33333333333334,295,-146.66666666666666,295,-140,295C-133.33333333333334,295,-126.66666666666667,295,-120,295C-113.33333333333333,295,-106.66666666666667,295,-100,295C-93.33333333333333,295,-86.66666666666667,295,-80,295C-73.33333333333333,295,-66.66666666666667,295,-60,295C-53.333333333333336,295,-46.666666666666664,295,-40,295C-33.333333333333336,295,-26.666666666666668,295,-20,295C-13.333333333333332,295,-6.666666666666667,295,0,295" style="stroke: rgb(31, 119, 180); stroke-width: 2; fill: none;"/></g><text class="computeSig_label label" text-anchor="end" dx="-5" dy="0.5rem" fill="black" width="200" transform="translate(-580,205)">21</text></g><g class="node computeNode h22 statics" transform="translate(610,0)" style="pointer-events: auto;"><g class="computeSig" stroke="black" style="stroke-width: 2;"><path class="linegg timeline hgroup_5" d="M-580,410C-573.3333333333334,410,-566.6666666666666,410,-560,410C-553.3333333333334,410,-546.6666666666666,410,-540,410C-533.3333333333334,410,-526.6666666666666,410,-520,410C-513.3333333333334,410,-506.6666666666667,410,-500,410C-493.3333333333333,410,-486.6666666666667,410,-480,410C-473.3333333333333,410,-466.6666666666667,410,-460,410C-453.3333333333333,410,-446.6666666666667,410,-440,410C-433.3333333333333,410,-426.6666666666667,410,-420,410C-413.3333333333333,410,-406.6666666666667,410,-400,410C-393.3333333333333,410,-386.6666666666667,410,-380,410C-373.3333333333333,410,-366.6666666666667,410,-360,410C-353.3333333333333,410,-346.6666666666667,410,-340,410C-333.3333333333333,410,-326.6666666666667,410,-320,410C-313.3333333333333,410,-306.6666666666667,410,-300,410C-293.3333333333333,410,-286.6666666666667,410,-280,410C-273.3333333333333,410,-266.6666666666667,410,-260,410C-253.33333333333334,410,-246.66666666666666,410,-240,410C-233.33333333333334,410,-226.66666666666666,410,-220,410C-213.33333333333334,410,-206.66666666666666,410,-200,410C-196.66666666666666,410,-193.33333333333334,410,-190,410C-186.66666666666666,410,-183.33333333333334,322.5,-180,235" style="stroke: rgb(148, 103, 189); stroke-width: 2; fill: none;"/><path class="linegg timeline hgroup_2" d="M-180,235C-173.33333333333334,235,-166.66666666666666,235,-160,235C-153.33333333333334,235,-146.66666666666666,235,-140,235C-133.33333333333334,235,-126.66666666666667,235,-120,235C-113.33333333333333,235,-106.66666666666667,235,-100,235C-93.33333333333333,235,-86.66666666666667,235,-80,235C-73.33333333333333,235,-66.66666666666667,235,-60,235C-53.333333333333336,235,-46.666666666666664,235,-40,235C-33.333333333333336,235,-26.666666666666668,235,-20,235C-13.333333333333332,235,-6.666666666666667,235,0,235" style="stroke: rgb(255, 127, 14); stroke-width: 2; fill: none;"/></g><text class="computeSig_label label" text-anchor="end" dx="-5" dy="0.5rem" fill="black" width="200" transform="translate(-580,410)">22</text></g><g class="node computeNode h23 statics" transform="translate(610,0)" style="pointer-events: auto;"><g class="computeSig" stroke="black" style="stroke-width: 2;"><path class="linegg timeline hgroup_1" d="M-580,320C-573.3333333333334,320,-566.6666666666666,320,-560,320C-553.3333333333334,320,-546.6666666666666,320,-540,320C-533.3333333333334,320,-526.6666666666666,320,-520,320C-513.3333333333334,320,-506.6666666666667,320,-500,320C-493.3333333333333,320,-486.6666666666667,320,-480,320C-473.3333333333333,320,-466.6666666666667,320,-460,320C-453.3333333333333,320,-446.6666666666667,320,-440,320C-433.3333333333333,320,-426.6666666666667,320,-420,320C-413.3333333333333,320,-406.6666666666667,320,-400,320C-393.3333333333333,320,-386.6666666666667,320,-380,320C-373.3333333333333,320,-366.6666666666667,320,-360,320C-353.3333333333333,320,-346.6666666666667,320,-340,320C-333.3333333333333,320,-326.6666666666667,320,-320,320C-313.3333333333333,320,-306.6666666666667,320,-300,320C-293.3333333333333,320,-286.6666666666667,320,-280,320C-273.3333333333333,320,-266.6666666666667,320,-260,320C-253.33333333333334,320,-246.66666666666666,320,-240,320C-236.66666666666666,320,-233.33333333333334,320,-230,320C-226.66666666666666,320,-223.33333333333334,367.5,-220,415" style="stroke: rgb(31, 119, 180); stroke-width: 2; fill: none;"/><path class="linegg timeline hgroup_5" d="M-220,415C-213.33333333333334,415,-206.66666666666666,415,-200,415C-193.33333333333334,415,-186.66666666666666,415,-180,415C-173.33333333333334,415,-166.66666666666666,415,-160,415C-153.33333333333334,415,-146.66666666666666,415,-140,415C-133.33333333333334,415,-126.66666666666667,415,-120,415C-113.33333333333333,415,-106.66666666666667,415,-100,415C-93.33333333333333,415,-86.66666666666667,415,-80,415C-73.33333333333333,415,-66.66666666666667,415,-60,415C-53.333333333333336,415,-46.666666666666664,415,-40,415C-33.333333333333336,415,-26.666666666666668,415,-20,415C-13.333333333333332,415,-6.666666666666667,415,0,415" style="stroke: rgb(148, 103, 189); stroke-width: 2; fill: none;"/></g><text class="computeSig_label label" text-anchor="end" dx="-5" dy="0.5rem" fill="black" width="200" transform="translate(-580,320)">23</text></g><g class="node computeNode h24 statics" transform="translate(610,0)" style="pointer-events: auto;"><g class="computeSig" stroke="black" style="stroke-width: 2;"><path class="linegg timeline hgroup_1" d="M-580,254.99999999999997C-573.3333333333334,254.99999999999997,-566.6666666666666,254.99999999999997,-560,254.99999999999997C-556.6666666666666,254.99999999999997,-553.3333333333334,254.99999999999997,-550,254.99999999999997C-546.6666666666666,254.99999999999997,-543.3333333333334,207.5,-540,160" style="stroke: rgb(31, 119, 180); stroke-width: 2; fill: none;"/><path class="linegg timeline hgroup_2" d="M-540,160C-533.3333333333334,160,-526.6666666666666,160,-520,160C-513.3333333333334,160,-506.6666666666667,160,-500,160C-496.6666666666667,160,-493.3333333333333,160,-490,160C-486.6666666666667,160,-483.3333333333333,120,-480,80" style="stroke: rgb(255, 127, 14); stroke-width: 2; fill: none;"/><path class="linegg timeline hgroup_4" d="M-480,80C-473.3333333333333,80,-466.6666666666667,80,-460,80C-453.3333333333333,80,-446.6666666666667,80,-440,80C-433.3333333333333,80,-426.6666666666667,80,-420,80C-413.3333333333333,80,-406.6666666666667,80,-400,80C-393.3333333333333,80,-386.6666666666667,80,-380,80C-376.6666666666667,80,-373.3333333333333,80,-370,80C-366.6666666666667,80,-363.3333333333333,120,-360,160" style="stroke: rgb(214, 39, 40); stroke-width: 2; fill: none;"/><path class="linegg timeline hgroup_2" d="M-360,160C-356.6666666666667,160,-353.3333333333333,160,-350,160C-346.6666666666667,160,-343.3333333333333,120,-340,80" style="stroke: rgb(255, 127, 14); stroke-width: 2;"/><path class="linegg timeline hgroup_4" d="M-340,80C-333.3333333333333,80,-326.6666666666667,80,-320,80C-313.3333333333333,80,-306.6666666666667,80,-300,80C-293.3333333333333,80,-286.6666666666667,80,-280,80C-273.3333333333333,80,-266.6666666666667,80,-260,80C-253.33333333333334,80,-246.66666666666666,80,-240,80C-233.33333333333334,80,-226.66666666666666,80,-220,80C-213.33333333333334,80,-206.66666666666666,80,-200,80C-193.33333333333334,80,-186.66666666666666,80,-180,80C-176.66666666666666,80,-173.33333333333334,80,-170,80C-166.66666666666666,80,-163.33333333333334,167.5,-160,254.99999999999997" style="stroke: rgb(214, 39, 40); stroke-width: 2; fill: none;"/><path class="linegg timeline hgroup_1" d="M-160,254.99999999999997C-153.33333333333334,254.99999999999997,-146.66666666666666,254.99999999999997,-140,254.99999999999997C-133.33333333333334,254.99999999999997,-126.66666666666667,254.99999999999997,-120,254.99999999999997C-113.33333333333333,254.99999999999997,-106.66666666666667,254.99999999999997,-100,254.99999999999997C-93.33333333333333,254.99999999999997,-86.66666666666667,254.99999999999997,-80,254.99999999999997C-73.33333333333333,254.99999999999997,-66.66666666666667,254.99999999999997,-60,254.99999999999997C-53.333333333333336,254.99999999999997,-46.666666666666664,254.99999999999997,-40,254.99999999999997C-33.333333333333336,254.99999999999997,-26.666666666666668,254.99999999999997,-20,254.99999999999997C-13.333333333333332,254.99999999999997,-6.666666666666667,254.99999999999997,0,254.99999999999997" style="stroke: rgb(31, 119, 180); stroke-width: 2; fill: none;"/></g><text class="computeSig_label label" text-anchor="end" dx="-5" dy="0.5rem" fill="black" width="200" transform="translate(-580,254.99999999999997)">24</text></g><g class="node computeNode h25 statics" transform="translate(610,0)" style="pointer-events: auto;"><g class="computeSig" stroke="black" style="stroke-width: 2;"><path class="linegg timeline hgroup_2" d="M-580,215C-576.6666666666666,215,-573.3333333333334,215,-570,215C-566.6666666666666,215,-563.3333333333334,165,-560,115" style="stroke: rgb(255, 127, 14); stroke-width: 2;"/><path class="linegg timeline hgroup_4" d="M-560,115C-553.3333333333334,115,-546.6666666666666,115,-540,115C-533.3333333333334,115,-526.6666666666666,115,-520,115C-513.3333333333334,115,-506.6666666666667,115,-500,115C-496.6666666666667,115,-493.3333333333333,115,-490,115C-486.6666666666667,115,-483.3333333333333,250,-480,385" style="stroke: rgb(214, 39, 40); stroke-width: 2; fill: none;"/><path class="linegg timeline hgroup_5" d="M-480,385C-473.3333333333333,385,-466.6666666666667,385,-460,385C-453.3333333333333,385,-446.6666666666667,385,-440,385C-433.3333333333333,385,-426.6666666666667,385,-420,385C-416.6666666666667,385,-413.3333333333333,385,-410,385C-406.6666666666667,385,-403.3333333333333,342.5,-400,300" style="stroke: rgb(148, 103, 189); stroke-width: 2; fill: none;"/><path class="linegg timeline hgroup_1" d="M-400,300C-393.3333333333333,300,-386.6666666666667,300,-380,300C-373.3333333333333,300,-366.6666666666667,300,-360,300C-353.3333333333333,300,-346.6666666666667,300,-340,300C-333.3333333333333,300,-326.6666666666667,300,-320,300C-313.3333333333333,300,-306.6666666666667,300,-300,300C-293.3333333333333,300,-286.6666666666667,300,-280,300C-273.3333333333333,300,-266.6666666666667,300,-260,300C-253.33333333333334,300,-246.66666666666666,300,-240,300C-233.33333333333334,300,-226.66666666666666,300,-220,300C-213.33333333333334,300,-206.66666666666666,300,-200,300C-193.33333333333334,300,-186.66666666666666,300,-180,300C-173.33333333333334,300,-166.66666666666666,300,-160,300C-153.33333333333334,300,-146.66666666666666,300,-140,300C-133.33333333333334,300,-126.66666666666667,300,-120,300C-113.33333333333333,300,-106.66666666666667,300,-100,300C-96.66666666666667,300,-93.33333333333333,300,-90,300C-86.66666666666667,300,-83.33333333333333,342.5,-80,385" style="stroke: rgb(31, 119, 180); stroke-width: 2; fill: none;"/><path class="linegg timeline hgroup_5" d="M-80,385C-73.33333333333333,385,-66.66666666666667,385,-60,385C-53.333333333333336,385,-46.666666666666664,385,-40,385C-33.333333333333336,385,-26.666666666666668,385,-20,385C-13.333333333333332,385,-6.666666666666667,385,0,385" style="stroke: rgb(148, 103, 189); stroke-width: 2; fill: none;"/></g><text class="computeSig_label label" text-anchor="end" dx="-5" dy="0.5rem" fill="black" width="200" transform="translate(-580,215)">25</text></g><g class="node computeNode h26 statics" transform="translate(610,0)" style="pointer-events: auto;"><g class="computeSig" stroke="black" style="stroke-width: 2;"><path class="linegg timeline hgroup_1" d="M-580,265C-573.3333333333334,265,-566.6666666666666,265,-560,265C-553.3333333333334,265,-546.6666666666666,265,-540,265C-533.3333333333334,265,-526.6666666666666,265,-520,265C-513.3333333333334,265,-506.6666666666667,265,-500,265C-493.3333333333333,265,-486.6666666666667,265,-480,265C-473.3333333333333,265,-466.6666666666667,265,-460,265C-456.6666666666667,265,-453.3333333333333,265,-450,265C-446.6666666666667,265,-443.3333333333333,215,-440,165" style="stroke: rgb(31, 119, 180); stroke-width: 2; fill: none;"/><path class="linegg timeline hgroup_2" d="M-440,165C-433.3333333333333,165,-426.6666666666667,165,-420,165C-413.3333333333333,165,-406.6666666666667,165,-400,165C-393.3333333333333,165,-386.6666666666667,165,-380,165C-373.3333333333333,165,-366.6666666666667,165,-360,165C-353.3333333333333,165,-346.6666666666667,165,-340,165C-333.3333333333333,165,-326.6666666666667,165,-320,165C-313.3333333333333,165,-306.6666666666667,165,-300,165C-293.3333333333333,165,-286.6666666666667,165,-280,165C-273.3333333333333,165,-266.6666666666667,165,-260,165C-253.33333333333334,165,-246.66666666666666,165,-240,165C-233.33333333333334,165,-226.66666666666666,165,-220,165C-213.33333333333334,165,-206.66666666666666,165,-200,165C-193.33333333333334,165,-186.66666666666666,165,-180,165C-173.33333333333334,165,-166.66666666666666,165,-160,165C-153.33333333333334,165,-146.66666666666666,165,-140,165C-133.33333333333334,165,-126.66666666666667,165,-120,165C-113.33333333333333,165,-106.66666666666667,165,-100,165C-96.66666666666667,165,-93.33333333333333,165,-90,165C-86.66666666666667,165,-83.33333333333333,97.5,-80,30" style="stroke: rgb(255, 127, 14); stroke-width: 2; fill: none;"/><path class="linegg timeline hgroup_3" d="M-80,30C-73.33333333333333,30,-66.66666666666667,30,-60,30C-53.333333333333336,30,-46.666666666666664,30,-40,30C-33.333333333333336,30,-26.666666666666668,30,-20,30C-13.333333333333332,30,-6.666666666666667,30,0,30" style="stroke: rgb(44, 160, 44); stroke-width: 2; fill: none;"/></g><text class="computeSig_label label" text-anchor="end" dx="-5" dy="0.5rem" fill="black" width="200" transform="translate(-580,265)">26</text></g><g class="node computeNode h27 statics" transform="translate(610,0)" style="pointer-events: auto;"><g class="computeSig" stroke="black" style="stroke-width: 2;"><path class="linegg timeline hgroup_5" d="M-580,425C-573.3333333333334,425,-566.6666666666666,425,-560,425C-553.3333333333334,425,-546.6666666666666,425,-540,425C-533.3333333333334,425,-526.6666666666666,425,-520,425C-513.3333333333334,425,-506.6666666666667,425,-500,425C-493.3333333333333,425,-486.6666666666667,425,-480,425C-473.3333333333333,425,-466.6666666666667,425,-460,425C-453.3333333333333,425,-446.6666666666667,425,-440,425C-433.3333333333333,425,-426.6666666666667,425,-420,425C-413.3333333333333,425,-406.6666666666667,425,-400,425C-396.6666666666667,425,-393.3333333333333,425,-390,425C-386.6666666666667,425,-383.3333333333333,377.5,-380,330" style="stroke: rgb(148, 103, 189); stroke-width: 2; fill: none;"/><path class="linegg timeline hgroup_1" d="M-380,330C-373.3333333333333,330,-366.6666666666667,330,-360,330C-353.3333333333333,330,-346.6666666666667,330,-340,330C-333.3333333333333,330,-326.6666666666667,330,-320,330C-313.3333333333333,330,-306.6666666666667,330,-300,330C-293.3333333333333,330,-286.6666666666667,330,-280,330C-273.3333333333333,330,-266.6666666666667,330,-260,330C-253.33333333333334,330,-246.66666666666666,330,-240,330C-233.33333333333334,330,-226.66666666666666,330,-220,330C-213.33333333333334,330,-206.66666666666666,330,-200,330C-193.33333333333334,330,-186.66666666666666,330,-180,330C-176.66666666666666,330,-173.33333333333334,330,-170,330C-166.66666666666666,330,-163.33333333333334,230,-160,130" style="stroke: rgb(31, 119, 180); stroke-width: 2; fill: none;"/><path class="linegg timeline hgroup_4" d="M-160,130C-156.66666666666666,130,-153.33333333333334,130,-150,130C-146.66666666666666,130,-143.33333333333334,277.5,-140,425" style="stroke: rgb(214, 39, 40); stroke-width: 2;"/><path class="linegg timeline hgroup_5" d="M-140,425C-133.33333333333334,425,-126.66666666666667,425,-120,425C-113.33333333333333,425,-106.66666666666667,425,-100,425C-93.33333333333333,425,-86.66666666666667,425,-80,425C-73.33333333333333,425,-66.66666666666667,425,-60,425C-53.333333333333336,425,-46.666666666666664,425,-40,425C-33.333333333333336,425,-26.666666666666668,425,-20,425C-13.333333333333332,425,-6.666666666666667,425,0,425" style="stroke: rgb(148, 103, 189); stroke-width: 2; fill: none;"/></g><text class="computeSig_label label" text-anchor="end" dx="-5" dy="0.5rem" fill="black" width="200" transform="translate(-580,425)">27</text></g><g class="node computeNode h28 statics" transform="translate(610,0)" style="pointer-events: auto;"><g class="computeSig" stroke="black" style="stroke-width: 2;"><path class="linegg timeline hgroup_2" d="M-580,145C-573.3333333333334,145,-566.6666666666666,145,-560,145C-553.3333333333334,145,-546.6666666666666,145,-540,145C-533.3333333333334,145,-526.6666666666666,145,-520,145C-513.3333333333334,145,-506.6666666666667,145,-500,145C-493.3333333333333,145,-486.6666666666667,145,-480,145C-473.3333333333333,145,-466.6666666666667,145,-460,145C-453.3333333333333,145,-446.6666666666667,145,-440,145C-433.3333333333333,145,-426.6666666666667,145,-420,145C-413.3333333333333,145,-406.6666666666667,145,-400,145C-393.3333333333333,145,-386.6666666666667,145,-380,145C-373.3333333333333,145,-366.6666666666667,145,-360,145C-356.6666666666667,145,-353.3333333333333,145,-350,145C-346.6666666666667,145,-343.3333333333333,102.5,-340,60" style="stroke: rgb(255, 127, 14); stroke-width: 2; fill: none;"/><path class="linegg timeline hgroup_4" d="M-340,60C-333.3333333333333,60,-326.6666666666667,60,-320,60C-313.3333333333333,60,-306.6666666666667,60,-300,60C-293.3333333333333,60,-286.6666666666667,60,-280,60C-273.3333333333333,60,-266.6666666666667,60,-260,60C-253.33333333333334,60,-246.66666666666666,60,-240,60C-233.33333333333334,60,-226.66666666666666,60,-220,60C-213.33333333333334,60,-206.66666666666666,60,-200,60C-193.33333333333334,60,-186.66666666666666,60,-180,60C-173.33333333333334,60,-166.66666666666666,60,-160,60C-153.33333333333334,60,-146.66666666666666,60,-140,60C-133.33333333333334,60,-126.66666666666667,60,-120,60C-116.66666666666667,60,-113.33333333333333,60,-110,60C-106.66666666666667,60,-103.33333333333333,102.5,-100,145" style="stroke: rgb(214, 39, 40); stroke-width: 2; fill: none;"/><path class="linegg timeline hgroup_2" d="M-100,145C-93.33333333333333,145,-86.66666666666667,145,-80,145C-73.33333333333333,145,-66.66666666666667,145,-60,145C-53.333333333333336,145,-46.666666666666664,145,-40,145C-33.333333333333336,145,-26.666666666666668,145,-20,145C-13.333333333333332,145,-6.666666666666667,145,0,145" style="stroke: rgb(255, 127, 14); stroke-width: 2; fill: none;"/></g><text class="computeSig_label label" text-anchor="end" dx="-5" dy="0.5rem" fill="black" width="200" transform="translate(-580,145)">28</text></g><g class="node computeNode h29 statics" transform="translate(610,0)" style="pointer-events: auto;"><g class="computeSig" stroke="black" style="stroke-width: 2;"><path class="linegg timeline hgroup_2" d="M-580,225.00000000000003C-573.3333333333334,225.00000000000003,-566.6666666666666,225.00000000000003,-560,225.00000000000003C-553.3333333333334,225.00000000000003,-546.6666666666666,225.00000000000003,-540,225.00000000000003C-533.3333333333334,225.00000000000003,-526.6666666666666,225.00000000000003,-520,225.00000000000003C-513.3333333333334,225.00000000000003,-506.6666666666667,225.00000000000003,-500,225.00000000000003C-496.6666666666667,225.00000000000003,-493.3333333333333,225.00000000000003,-490,225.00000000000003C-486.6666666666667,225.00000000000003,-483.3333333333333,310,-480,395" style="stroke: rgb(255, 127, 14); stroke-width: 2; fill: none;"/><path class="linegg timeline hgroup_5" d="M-480,395C-473.3333333333333,395,-466.6666666666667,395,-460,395C-453.3333333333333,395,-446.6666666666667,395,-440,395C-433.3333333333333,395,-426.6666666666667,395,-420,395C-413.3333333333333,395,-406.6666666666667,395,-400,395C-393.3333333333333,395,-386.6666666666667,395,-380,395C-373.3333333333333,395,-366.6666666666667,395,-360,395C-353.3333333333333,395,-346.6666666666667,395,-340,395C-333.3333333333333,395,-326.6666666666667,395,-320,395C-313.3333333333333,395,-306.6666666666667,395,-300,395C-293.3333333333333,395,-286.6666666666667,395,-280,395C-273.3333333333333,395,-266.6666666666667,395,-260,395C-253.33333333333334,395,-246.66666666666666,395,-240,395C-233.33333333333334,395,-226.66666666666666,395,-220,395C-213.33333333333334,395,-206.66666666666666,395,-200,395C-193.33333333333334,395,-186.66666666666666,395,-180,395C-173.33333333333334,395,-166.66666666666666,395,-160,395C-153.33333333333334,395,-146.66666666666666,395,-140,395C-133.33333333333334,395,-126.66666666666667,395,-120,395C-116.66666666666667,395,-113.33333333333333,395,-110,395C-106.66666666666667,395,-103.33333333333333,310,-100,225.00000000000003" style="stroke: rgb(148, 103, 189); stroke-width: 2; fill: none;"/><path class="linegg timeline hgroup_2" d="M-100,225.00000000000003C-93.33333333333333,225.00000000000003,-86.66666666666667,225.00000000000003,-80,225.00000000000003C-73.33333333333333,225.00000000000003,-66.66666666666667,225.00000000000003,-60,225.00000000000003C-53.333333333333336,225.00000000000003,-46.666666666666664,225.00000000000003,-40,225.00000000000003C-33.333333333333336,225.00000000000003,-26.666666666666668,225.00000000000003,-20,225.00000000000003C-16.666666666666668,225.00000000000003,-13.333333333333334,225.00000000000003,-10,225.00000000000003C-6.666666666666666,225.00000000000003,-3.3333333333333335,175,0,124.99999999999999" style="stroke: rgb(255, 127, 14); stroke-width: 2; fill: none;"/><path class="linegg timeline hgroup_4" d="M0,124.99999999999999Z" style="stroke: rgb(214, 39, 40); stroke-width: 2;"/></g><text class="computeSig_label label" text-anchor="end" dx="-5" dy="0.5rem" fill="black" width="200" transform="translate(-580,225.00000000000003)">29</text></g><g class="node computeNode h30 statics" transform="translate(610,0)" style="pointer-events: auto;"><g class="computeSig" stroke="black" style="stroke-width: 2;"><path class="linegg timeline hgroup_4" d="M-580,100C-573.3333333333334,100,-566.6666666666666,100,-560,100C-553.3333333333334,100,-546.6666666666666,100,-540,100C-533.3333333333334,100,-526.6666666666666,100,-520,100C-513.3333333333334,100,-506.6666666666667,100,-500,100C-493.3333333333333,100,-486.6666666666667,100,-480,100C-476.6666666666667,100,-473.3333333333333,100,-470,100C-466.6666666666667,100,-463.3333333333333,235,-460,370" style="stroke: rgb(214, 39, 40); stroke-width: 2; fill: none;"/><path class="linegg timeline hgroup_5" d="M-460,370C-453.3333333333333,370,-446.6666666666667,370,-440,370C-433.3333333333333,370,-426.6666666666667,370,-420,370C-413.3333333333333,370,-406.6666666666667,370,-400,370C-393.3333333333333,370,-386.6666666666667,370,-380,370C-373.3333333333333,370,-366.6666666666667,370,-360,370C-353.3333333333333,370,-346.6666666666667,370,-340,370C-333.3333333333333,370,-326.6666666666667,370,-320,370C-313.3333333333333,370,-306.6666666666667,370,-300,370C-293.3333333333333,370,-286.6666666666667,370,-280,370C-273.3333333333333,370,-266.6666666666667,370,-260,370C-253.33333333333334,370,-246.66666666666666,370,-240,370C-233.33333333333334,370,-226.66666666666666,370,-220,370C-216.66666666666666,370,-213.33333333333334,370,-210,370C-206.66666666666666,370,-203.33333333333334,280,-200,190" style="stroke: rgb(148, 103, 189); stroke-width: 2; fill: none;"/><path class="linegg timeline hgroup_2" d="M-200,190C-193.33333333333334,190,-186.66666666666666,190,-180,190C-173.33333333333334,190,-166.66666666666666,190,-160,190C-153.33333333333334,190,-146.66666666666666,190,-140,190C-133.33333333333334,190,-126.66666666666667,190,-120,190C-113.33333333333333,190,-106.66666666666667,190,-100,190C-96.66666666666667,190,-93.33333333333333,190,-90,190C-86.66666666666667,190,-83.33333333333333,145,-80,100" style="stroke: rgb(255, 127, 14); stroke-width: 2; fill: none;"/><path class="linegg timeline hgroup_4" d="M-80,100C-73.33333333333333,100,-66.66666666666667,100,-60,100C-53.333333333333336,100,-46.666666666666664,100,-40,100C-33.333333333333336,100,-26.666666666666668,100,-20,100C-16.666666666666668,100,-13.333333333333334,100,-10,100C-6.666666666666666,100,-3.3333333333333335,145,0,190" style="stroke: rgb(214, 39, 40); stroke-width: 2; fill: none;"/><path class="linegg timeline hgroup_2" d="M0,190Z" style="stroke: rgb(255, 127, 14); stroke-width: 2;"/></g><text class="computeSig_label label" text-anchor="end" dx="-5" dy="0.5rem" fill="black" width="200" transform="translate(-580,100)">30</text></g></g><rect class="fisheyeLayer" style="opacity: 0; pointer-events: none;" width="580" height="480" transform="translate(-280,0)"/><g class="table header" transform="translate(600,0)"><g class="back"><path style="fill: rgb(221, 221, 221);"/></g></g></g><g class="timebox hide" transform="translate(40,20)" dy="1rem" style="font-size: 16px;"/><circle id="tipfollowscursor"/></svg>