<svg id="jobmap" width="300" height="850" style="fill: none; font-size: 10px; font-family: sans-serif;" xmlns="http://www.w3.org/2000/svg" xmlns:xlink="http://www.w3.org/1999/xlink">

                    <defs id="defsmain"><pattern id="userpic" width="100%" height="100%" patternContentUnits="objectBoundingBox"><image height="1" width="1" preserveAspectRatio="none" xmlns:xlink="http://www.w3.org/1999/xlink" xlink:href="src/images/u.png"/></pattern><marker id="arrow" markerWidth="10" markerHeight="10" refX="0" refY="3" orient="auto" markerUnits="strokeWidth"><path d="M0,0 L0,6 L9,3 z" style="fill: black;"/></marker></defs><rect class="pantarget" opacity="0" width="1336" height="762"/><g class="pannel" transform="translate(50,50)"><text class="Time" text-anchor="middle" x="40" dy="-30" style="font-weight: bold; fill: black;">Time</text><line x1="60" x2="95" y1="-33" y2="-33" marker-end="url(#arrow)" style="stroke: black;"/><text class="Time" text-anchor="middle" x="-5" dy="-1rem" style="font-weight: bold; fill: black;">Instance</text><line x1="5" x2="5" y1="-5" y2="30" marker-end="url(#arrow)" style="stroke: black;"/><g class="gNodeaxis" transform="translate(210,-10)"><g class="gMainaxis" fill="none" font-size="10" font-family="sans-serif" text-anchor="middle"><g class="tick" opacity="1" transform="translate(-180, 0)"><line stroke="#000" y2="745" vector-effect="non-scaling-stroke" style="stroke-width: 0.1; stroke: black; stroke-dasharray: 1, 2; opacity: 0.5;"/><text fill="#000" y="-3" dy="-0.5rem">1</text></g><g class="tick" opacity="1" transform="translate(-160, 0)"><line stroke="#000" y2="745" vector-effect="non-scaling-stroke" style="stroke-width: 0.1; stroke: black; stroke-dasharray: 1, 2; opacity: 0.5;"/><text fill="#000" y="-3" dy="-0.5rem">2</text></g><g class="tick" opacity="1" transform="translate(-140, 0)"><line stroke="#000" y2="745" vector-effect="non-scaling-stroke" style="stroke-width: 0.1; stroke: black; stroke-dasharray: 1, 2; opacity: 0.5;"/><text fill="#000" y="-3" dy="-0.5rem">3</text></g><g class="tick" opacity="1" transform="translate(-120, 0)"><line stroke="#000" y2="745" vector-effect="non-scaling-stroke" style="stroke-width: 0.1; stroke: black; stroke-dasharray: 1, 2; opacity: 0.5;"/><text fill="#000" y="-3" dy="-0.5rem">4</text></g><g class="tick" opacity="1" transform="translate(-100, 0)"><line stroke="#000" y2="745" vector-effect="non-scaling-stroke" style="stroke-width: 0.1; stroke: black; stroke-dasharray: 1, 2; opacity: 0.5;"/><text fill="#000" y="-3" dy="-0.5rem">5</text></g><g class="tick" opacity="1" transform="translate(-80, 0)"><line stroke="#000" y2="745" vector-effect="non-scaling-stroke" style="stroke-width: 0.1; stroke: black; stroke-dasharray: 1, 2; opacity: 0.5;"/><text fill="#000" y="-3" dy="-0.5rem">6</text></g><g class="tick" opacity="1" transform="translate(-60, 0)"><line stroke="#000" y2="745" vector-effect="non-scaling-stroke" style="stroke-width: 0.1; stroke: black; stroke-dasharray: 1, 2; opacity: 0.5;"/><text fill="#000" y="-3" dy="-0.5rem">7</text></g><g class="tick" opacity="1" transform="translate(-40, 0)"><line stroke="#000" y2="745" vector-effect="non-scaling-stroke" style="stroke-width: 0.1; stroke: black; stroke-dasharray: 1, 2; opacity: 0.5;"/><text fill="#000" y="-3" dy="-0.5rem">8</text></g><g class="tick" opacity="1" transform="translate(-20, 0)"><line stroke="#000" y2="745" vector-effect="non-scaling-stroke" style="stroke-width: 0.1; stroke: black; stroke-dasharray: 1, 2; opacity: 0.5;"/><text fill="#000" y="-3" dy="-0.5rem">9</text></g><g class="tick" opacity="1" transform=""><line stroke="#000" y2="745" vector-effect="non-scaling-stroke" style="stroke-width: 0.1; stroke: black; stroke-dasharray: 1, 2; opacity: 0.5;"/><text fill="#000" y="-3" dy="-0.5rem">10</text></g></g><g class="gSubaxis hide"/></g><g class="annotation"/><g class="linkg"><g class="links" style="display: none;"><path stroke="black" style="stroke-width: 2;"/><text text-anchor="middle">1</text></g><g class="links" style="display: none;"><path stroke="black" style="stroke-width: 2;"/><text text-anchor="middle">1</text></g><g class="links" style="display: none;"><path stroke="black" style="stroke-width: 2;"/><text text-anchor="middle">1</text></g><g class="links" style="display: none;"><path stroke="black" style="stroke-width: 2;"/><text text-anchor="middle">1</text></g><g class="links" style="display: none;"><path stroke="black" style="stroke-width: 2;"/><text text-anchor="middle">1</text></g><g class="links" style="display: none;"><path stroke="black" style="stroke-width: 2;"/><text text-anchor="middle">1</text></g><g class="links" style="display: none;"><path stroke="black" style="stroke-width: 2;"/><text text-anchor="middle">1</text></g><g class="links" style="display: none;"><path stroke="black" style="stroke-width: 2;"/><text text-anchor="middle">1</text></g><g class="links" style="display: none;"><path stroke="black" style="stroke-width: 2;"/><text text-anchor="middle">1</text></g><g class="links" style="display: none;"><path stroke="black" style="stroke-width: 2;"/><text text-anchor="middle">1</text></g><g class="links" style="display: none;"><path stroke="black" style="stroke-width: 2;"/><text text-anchor="middle">1</text></g><g class="links" style="display: none;"><path stroke="black" style="stroke-width: 2;"/><text text-anchor="middle">1</text></g><g class="links" style="display: none;"><path stroke="black" style="stroke-width: 2;"/><text text-anchor="middle">1</text></g><g class="links" style="display: none;"><path stroke="black" style="stroke-width: 2;"/><text text-anchor="middle">1</text></g><g class="links" style="display: none;"><path stroke="black" style="stroke-width: 2;"/><text text-anchor="middle">1</text></g><g class="links" style="display: none;"><path stroke="black" style="stroke-width: 2;"/><text text-anchor="middle">1</text></g><g class="links" style="display: none;"><path stroke="black" style="stroke-width: 2;"/><text text-anchor="middle">1</text></g><g class="links" style="display: none;"><path stroke="black" style="stroke-width: 2;"/><text text-anchor="middle">1</text></g><g class="links" style="display: none;"><path stroke="black" style="stroke-width: 2;"/><text text-anchor="middle">1</text></g><g class="links" style="display: none;"><path stroke="black" style="stroke-width: 2;"/><text text-anchor="middle">1</text></g><g class="links" style="display: none;"><path stroke="black" style="stroke-width: 2;"/><text text-anchor="middle">1</text></g><g class="links" style="display: none;"><path stroke="black" style="stroke-width: 2;"/><text text-anchor="middle">1</text></g><g class="links" style="display: none;"><path stroke="black" style="stroke-width: 2;"/><text text-anchor="middle">1</text></g><g class="links" style="display: none;"><path stroke="black" style="stroke-width: 2;"/><text text-anchor="middle">1</text></g><g class="links" style="display: none;"><path stroke="black" style="stroke-width: 2;"/><text text-anchor="middle">1</text></g><g class="links" style="display: none;"><path stroke="black" style="stroke-width: 2;"/><text text-anchor="middle">1</text></g><g class="links" style="display: none;"><path stroke="black" style="stroke-width: 2;"/><text text-anchor="middle">1</text></g><g class="links" style="display: none;"><path stroke="black" style="stroke-width: 2;"/><text text-anchor="middle">1</text></g><g class="links" style="display: none;"><path stroke="black" style="stroke-width: 2;"/><text text-anchor="middle">1</text></g><g class="links" style="display: none;"><path stroke="black" style="stroke-width: 2;"/><text text-anchor="middle">1</text></g><g class="links" style="display: none;"><path stroke="black" style="stroke-width: 2;"/><text text-anchor="middle">1</text></g><g class="links" style="display: none;"><path stroke="black" style="stroke-width: 2;"/><text text-anchor="middle">1</text></g><g class="links" style="display: none;"><path stroke="black" style="stroke-width: 2;"/><text text-anchor="middle">1</text></g><g class="links" style="display: none;"><path stroke="black" style="stroke-width: 2;"/><text text-anchor="middle">1</text></g><g class="links" style="display: none;"><path stroke="black" style="stroke-width: 2;"/><text text-anchor="middle">1</text></g><g class="links" style="display: none;"><path stroke="black" style="stroke-width: 2;"/><text text-anchor="middle">1</text></g><g class="links" style="display: none;"><path stroke="black" style="stroke-width: 2;"/><text text-anchor="middle">1</text></g><g class="links" style="display: none;"><path stroke="black" style="stroke-width: 2;"/><text text-anchor="middle">1</text></g><g class="links" style="display: none;"><path stroke="black" style="stroke-width: 2;"/><text text-anchor="middle">1</text></g><g class="links" style="display: none;"><path stroke="black" style="stroke-width: 2;"/><text text-anchor="middle">1</text></g><g class="links" style="display: none;"><path stroke="black" style="stroke-width: 2;"/><text text-anchor="middle">1</text></g><g class="links" style="display: none;"><path stroke="black" style="stroke-width: 2;"/><text text-anchor="middle">1</text></g><g class="links" style="display: none;"><path stroke="black" style="stroke-width: 2;"/><text text-anchor="middle">1</text></g><g class="links" style="display: none;"><path stroke="black" style="stroke-width: 2;"/><text text-anchor="middle">1</text></g><g class="links" style="display: none;"><path stroke="black" style="stroke-width: 2;"/><text text-anchor="middle">1</text></g><g class="links" style="display: none;"><path stroke="black" style="stroke-width: 2;"/><text text-anchor="middle">1</text></g><g class="links" style="display: none;"><path stroke="black" style="stroke-width: 2;"/><text text-anchor="middle">1</text></g><g class="links" style="display: none;"><path stroke="black" style="stroke-width: 2;"/><text text-anchor="middle">1</text></g><g class="links" style="display: none;"><path stroke="black" style="stroke-width: 2;"/><text text-anchor="middle">1</text></g><g class="links" style="display: none;"><path stroke="black" style="stroke-width: 2;"/><text text-anchor="middle">1</text></g><g class="links" style="display: none;"><path stroke="black" style="stroke-width: 2;"/><text text-anchor="middle">1</text></g></g><g class="nodeg"><g class="node computeNode h1 statics" transform="translate(210,0)" style="pointer-events: auto;"><g class="computeSig" stroke="black" style="stroke-width: 2;"><path class="linegg timeline hgroup_1" d="M-180,560C-173.33333333333334,560,-166.66666666666666,560,-160,560C-153.33333333333334,560,-146.66666666666666,560,-140,560C-133.33333333333334,560,-126.66666666666667,560,-120,560C-113.33333333333333,560,-106.66666666666667,560,-100,560C-93.33333333333333,560,-86.66666666666667,560,-80,560C-73.33333333333333,560,-66.66666666666667,560,-60,560C-56.666666666666664,560,-53.333333333333336,560,-50,560C-46.666666666666664,560,-43.333333333333336,490,-40,420" style="stroke: rgb(31, 119, 180); stroke-width: 2; fill: none;"/><path class="linegg timeline hgroup_5" d="M-40,420C-33.333333333333336,420,-26.666666666666668,420,-20,420C-13.333333333333332,420,-6.666666666666667,420,0,420" style="stroke: rgb(148, 103, 189); stroke-width: 2; fill: none;"/></g><text class="computeSig_label label" text-anchor="end" dx="-5" dy="0.5rem" fill="black" width="200" transform="translate(-180,560)">1</text></g><g class="node computeNode h2 statics" transform="translate(210,0)" style="pointer-events: auto;"><g class="computeSig" stroke="black" style="stroke-width: 2;"><path class="linegg timeline hgroup_2" d="M-180,700C-173.33333333333334,700,-166.66666666666666,700,-160,700C-153.33333333333334,700,-146.66666666666666,700,-140,700C-133.33333333333334,700,-126.66666666666667,700,-120,700C-113.33333333333333,700,-106.66666666666667,700,-100,700C-93.33333333333333,700,-86.66666666666667,700,-80,700C-73.33333333333333,700,-66.66666666666667,700,-60,700C-53.333333333333336,700,-46.666666666666664,700,-40,700C-36.666666666666664,700,-33.333333333333336,700,-30,700C-26.666666666666668,700,-23.333333333333332,392.00000000000006,-20,84" style="stroke: rgb(255, 127, 14); stroke-width: 2; fill: none;"/><path class="linegg timeline hgroup_3" d="M-20,84L0,84" style="stroke: rgb(44, 160, 44); stroke-width: 2; fill: none;"/></g><text class="computeSig_label label" text-anchor="end" dx="-5" dy="0.5rem" fill="black" width="200" transform="translate(-180,700)">2</text></g><g class="node computeNode h3 statics" transform="translate(210,0)" style="pointer-events: auto;"><g class="computeSig" stroke="black" style="stroke-width: 2;"><path class="linegg timeline hgroup_1" d="M-180,609C-173.33333333333334,609,-166.66666666666666,609,-160,609C-153.33333333333334,609,-146.66666666666666,609,-140,609C-133.33333333333334,609,-126.66666666666667,609,-120,609C-113.33333333333333,609,-106.66666666666667,609,-100,609C-93.33333333333333,609,-86.66666666666667,609,-80,609C-76.66666666666667,609,-73.33333333333333,609,-70,609C-66.66666666666667,609,-63.333333333333336,658,-60,707" style="stroke: rgb(31, 119, 180); stroke-width: 2; fill: none;"/><path class="linegg timeline hgroup_2" d="M-60,707C-53.333333333333336,707,-46.666666666666664,707,-40,707C-33.333333333333336,707,-26.666666666666668,707,-20,707C-13.333333333333332,707,-6.666666666666667,707,0,707" style="stroke: rgb(255, 127, 14); stroke-width: 2; fill: none;"/></g><text class="computeSig_label label" text-anchor="end" dx="-5" dy="0.5rem" fill="black" width="200" transform="translate(-180,609)">3</text></g><g class="node computeNode h4 statics" transform="translate(210,0)" style="pointer-events: auto;"><g class="computeSig" stroke="black" style="stroke-width: 2;"><path class="linegg timeline hgroup_3" d="M-180,56.00000000000001C-173.33333333333334,56.00000000000001,-166.66666666666666,56.00000000000001,-160,56.00000000000001C-156.66666666666666,56.00000000000001,-153.33333333333334,56.00000000000001,-150,56.00000000000001C-146.66666666666666,56.00000000000001,-143.33333333333334,276.5,-140,497.00000000000006" style="stroke: rgb(44, 160, 44); stroke-width: 2; fill: none;"/><path class="linegg timeline hgroup_1" d="M-140,497.00000000000006C-133.33333333333334,497.00000000000006,-126.66666666666667,497.00000000000006,-120,497.00000000000006C-113.33333333333333,497.00000000000006,-106.66666666666667,497.00000000000006,-100,497.00000000000006C-96.66666666666667,497.00000000000006,-93.33333333333333,497.00000000000006,-90,497.00000000000006C-86.66666666666667,497.00000000000006,-83.33333333333333,413.00000000000006,-80,329" style="stroke: rgb(31, 119, 180); stroke-width: 2; fill: none;"/><path class="linegg timeline hgroup_5" d="M-80,329C-73.33333333333333,329,-66.66666666666667,329,-60,329C-53.333333333333336,329,-46.666666666666664,329,-40,329C-33.333333333333336,329,-26.666666666666668,329,-20,329C-13.333333333333332,329,-6.666666666666667,329,0,329" style="stroke: rgb(148, 103, 189); stroke-width: 2; fill: none;"/></g><text class="computeSig_label label" text-anchor="end" dx="-5" dy="0.5rem" fill="black" width="200" transform="translate(-180,56.00000000000001)">4</text></g><g class="node computeNode h5 statics" transform="translate(210,0)" style="pointer-events: auto;"><g class="computeSig" stroke="black" style="stroke-width: 2;"><path class="linegg timeline hgroup_1" d="M-180,553C-173.33333333333334,553,-166.66666666666666,553,-160,553C-153.33333333333334,553,-146.66666666666666,553,-140,553C-133.33333333333334,553,-126.66666666666667,553,-120,553C-113.33333333333333,553,-106.66666666666667,553,-100,553C-93.33333333333333,553,-86.66666666666667,553,-80,553C-73.33333333333333,553,-66.66666666666667,553,-60,553C-53.333333333333336,553,-46.666666666666664,553,-40,553C-36.666666666666664,553,-33.333333333333336,553,-30,553C-26.666666666666668,553,-23.333333333333332,406,-20,259" style="stroke: rgb(31, 119, 180); stroke-width: 2; fill: none;"/><path class="linegg timeline hgroup_4" d="M-20,259L0,259" style="stroke: rgb(214, 39, 40); stroke-width: 2; fill: none;"/></g><text class="computeSig_label label" text-anchor="end" dx="-5" dy="0.5rem" fill="black" width="200" transform="translate(-180,553)">5</text></g><g class="node computeNode h6 statics" transform="translate(210,0)" style="pointer-events: auto;"><g class="computeSig" stroke="black" style="stroke-width: 2;"><path class="linegg timeline hgroup_4" d="M-180,217C-173.33333333333334,217,-166.66666666666666,217,-160,217C-153.33333333333334,217,-146.66666666666666,217,-140,217C-133.33333333333334,217,-126.66666666666667,217,-120,217C-116.66666666666667,217,-113.33333333333333,217,-110,217C-106.66666666666667,217,-103.33333333333333,364,-100,511" style="stroke: rgb(214, 39, 40); stroke-width: 2; fill: none;"/><path class="linegg timeline hgroup_1" d="M-100,511C-93.33333333333333,511,-86.66666666666667,511,-80,511C-73.33333333333333,511,-66.66666666666667,511,-60,511C-53.333333333333336,511,-46.666666666666664,511,-40,511C-33.333333333333336,511,-26.666666666666668,511,-20,511C-13.333333333333332,511,-6.666666666666667,511,0,511" style="stroke: rgb(31, 119, 180); stroke-width: 2; fill: none;"/></g><text class="computeSig_label label" text-anchor="end" dx="-5" dy="0.5rem" fill="black" width="200" transform="translate(-180,217)">6</text></g><g class="node computeNode h7 statics" transform="translate(210,0)" style="pointer-events: auto;"><g class="computeSig" stroke="black" style="stroke-width: 2;"><path class="linegg timeline hgroup_1" d="M-180,468.99999999999994C-173.33333333333334,468.99999999999994,-166.66666666666666,468.99999999999994,-160,468.99999999999994C-153.33333333333334,468.99999999999994,-146.66666666666666,468.99999999999994,-140,468.99999999999994C-136.66666666666666,468.99999999999994,-133.33333333333334,468.99999999999994,-130,468.99999999999994C-126.66666666666667,468.99999999999994,-123.33333333333333,318.5,-120,168" style="stroke: rgb(31, 119, 180); stroke-width: 2; fill: none;"/><path class="linegg timeline hgroup_4" d="M-120,168C-113.33333333333333,168,-106.66666666666667,168,-100,168C-93.33333333333333,168,-86.66666666666667,168,-80,168C-73.33333333333333,168,-66.66666666666667,168,-60,168C-53.333333333333336,168,-46.666666666666664,168,-40,168C-33.333333333333336,168,-26.666666666666668,168,-20,168C-13.333333333333332,168,-6.666666666666667,168,0,168" style="stroke: rgb(214, 39, 40); stroke-width: 2; fill: none;"/></g><text class="computeSig_label label" text-anchor="end" dx="-5" dy="0.5rem" fill="black" width="200" transform="translate(-180,468.99999999999994)">7</text></g><g class="node computeNode h8 statics" transform="translate(210,0)" style="pointer-events: auto;"><g class="computeSig" stroke="black" style="stroke-width: 2;"><path class="linegg timeline hgroup_5" d="M-180,273C-173.33333333333334,273,-166.66666666666666,273,-160,273C-156.66666666666666,273,-153.33333333333334,273,-150,273C-146.66666666666666,273,-143.33333333333334,203,-140,133" style="stroke: rgb(148, 103, 189); stroke-width: 2; fill: none;"/><path class="linegg timeline hgroup_4" d="M-140,133C-133.33333333333334,133,-126.66666666666667,133,-120,133C-113.33333333333333,133,-106.66666666666667,133,-100,133C-93.33333333333333,133,-86.66666666666667,133,-80,133C-73.33333333333333,133,-66.66666666666667,133,-60,133C-53.333333333333336,133,-46.666666666666664,133,-40,133C-33.333333333333336,133,-26.666666666666668,133,-20,133C-13.333333333333332,133,-6.666666666666667,133,0,133" style="stroke: rgb(214, 39, 40); stroke-width: 2; fill: none;"/></g><text class="computeSig_label label" text-anchor="end" dx="-5" dy="0.5rem" fill="black" width="200" transform="translate(-180,273)">8</text></g><g class="node computeNode h9 statics" transform="translate(210,0)" style="pointer-events: auto;"><g class="computeSig" stroke="black" style="stroke-width: 2;"><path class="linegg timeline hgroup_4" d="M-180,112.00000000000001C-173.33333333333334,112.00000000000001,-166.66666666666666,112.00000000000001,-160,112.00000000000001C-153.33333333333334,112.00000000000001,-146.66666666666666,112.00000000000001,-140,112.00000000000001C-133.33333333333334,112.00000000000001,-126.66666666666667,112.00000000000001,-120,112.00000000000001C-113.33333333333333,112.00000000000001,-106.66666666666667,112.00000000000001,-100,112.00000000000001C-93.33333333333333,112.00000000000001,-86.66666666666667,112.00000000000001,-80,112.00000000000001C-73.33333333333333,112.00000000000001,-66.66666666666667,112.00000000000001,-60,112.00000000000001C-53.333333333333336,112.00000000000001,-46.666666666666664,112.00000000000001,-40,112.00000000000001C-33.333333333333336,112.00000000000001,-26.666666666666668,112.00000000000001,-20,112.00000000000001C-13.333333333333332,112.00000000000001,-6.666666666666667,112.00000000000001,0,112.00000000000001" style="stroke: rgb(214, 39, 40); stroke-width: 2; fill: none;"/></g><text class="computeSig_label label" text-anchor="end" dx="-5" dy="0.5rem" fill="black" width="200" transform="translate(-180,112.00000000000001)">9</text></g><g class="node computeNode h10 statics" transform="translate(210,0)" style="pointer-events: auto;"><g class="computeSig" stroke="black" style="stroke-width: 2;"><path class="linegg timeline hgroup_1" d="M-180,574C-173.33333333333334,574,-166.66666666666666,574,-160,574C-153.33333333333334,574,-146.66666666666666,574,-140,574C-133.33333333333334,574,-126.66666666666667,574,-120,574C-113.33333333333333,574,-106.66666666666667,574,-100,574C-93.33333333333333,574,-86.66666666666667,574,-80,574C-73.33333333333333,574,-66.66666666666667,574,-60,574C-53.333333333333336,574,-46.666666666666664,574,-40,574C-33.333333333333336,574,-26.666666666666668,574,-20,574C-13.333333333333332,574,-6.666666666666667,574,0,574" style="stroke: rgb(31, 119, 180); stroke-width: 2; fill: none;"/></g><text class="computeSig_label label" text-anchor="end" dx="-5" dy="0.5rem" fill="black" width="200" transform="translate(-180,574)">10</text></g><g class="node computeNode h11 statics" transform="translate(210,0)" style="pointer-events: auto;"><g class="computeSig" stroke="black" style="stroke-width: 2;"><path class="linegg timeline hgroup_5" d="M-180,301C-173.33333333333334,301,-166.66666666666666,301,-160,301C-153.33333333333334,301,-146.66666666666666,301,-140,301C-133.33333333333334,301,-126.66666666666667,301,-120,301C-113.33333333333333,301,-106.66666666666667,301,-100,301C-96.66666666666667,301,-93.33333333333333,301,-90,301C-86.66666666666667,301,-83.33333333333333,476,-80,651" style="stroke: rgb(148, 103, 189); stroke-width: 2; fill: none;"/><path class="linegg timeline hgroup_2" d="M-80,651C-76.66666666666667,651,-73.33333333333333,651,-70,651C-66.66666666666667,651,-63.333333333333336,563.5,-60,476" style="stroke: rgb(255, 127, 14); stroke-width: 2;"/><path class="linegg timeline hgroup_1" d="M-60,476C-56.666666666666664,476,-53.333333333333336,476,-50,476C-46.666666666666664,476,-43.333333333333336,262.5,-40,49" style="stroke: rgb(31, 119, 180); stroke-width: 2;"/><path class="linegg timeline hgroup_3" d="M-40,49C-33.333333333333336,49,-26.666666666666668,49,-20,49C-13.333333333333332,49,-6.666666666666667,49,0,49" style="stroke: rgb(44, 160, 44); stroke-width: 2; fill: none;"/></g><text class="computeSig_label label" text-anchor="end" dx="-5" dy="0.5rem" fill="black" width="200" transform="translate(-180,301)">11</text></g><g class="node computeNode h12 statics" transform="translate(210,0)" style="pointer-events: auto;"><g class="computeSig" stroke="black" style="stroke-width: 2;"><path class="linegg timeline hgroup_1" d="M-180,581C-173.33333333333334,581,-166.66666666666666,581,-160,581C-153.33333333333334,581,-146.66666666666666,581,-140,581C-133.33333333333334,581,-126.66666666666667,581,-120,581C-113.33333333333333,581,-106.66666666666667,581,-100,581C-93.33333333333333,581,-86.66666666666667,581,-80,581C-73.33333333333333,581,-66.66666666666667,581,-60,581C-53.333333333333336,581,-46.666666666666664,581,-40,581C-33.333333333333336,581,-26.666666666666668,581,-20,581C-13.333333333333332,581,-6.666666666666667,581,0,581" style="stroke: rgb(31, 119, 180); stroke-width: 2; fill: none;"/></g><text class="computeSig_label label" text-anchor="end" dx="-5" dy="0.5rem" fill="black" width="200" transform="translate(-180,581)">12</text></g><g class="node computeNode h13 statics" transform="translate(210,0)" style="pointer-events: auto;"><g class="computeSig" stroke="black" style="stroke-width: 2;"><path class="linegg timeline hgroup_2" d="M-180,686C-173.33333333333334,686,-166.66666666666666,686,-160,686C-153.33333333333334,686,-146.66666666666666,686,-140,686C-133.33333333333334,686,-126.66666666666667,686,-120,686C-113.33333333333333,686,-106.66666666666667,686,-100,686C-93.33333333333333,686,-86.66666666666667,686,-80,686C-76.66666666666667,686,-73.33333333333333,686,-70,686C-66.66666666666667,686,-63.333333333333336,469,-60,252" style="stroke: rgb(255, 127, 14); stroke-width: 2; fill: none;"/><path class="linegg timeline hgroup_4" d="M-60,252C-56.666666666666664,252,-53.333333333333336,252,-50,252C-46.666666666666664,252,-43.333333333333336,164.5,-40,77" style="stroke: rgb(214, 39, 40); stroke-width: 2;"/><path class="linegg timeline hgroup_3" d="M-40,77C-33.333333333333336,77,-26.666666666666668,77,-20,77C-13.333333333333332,77,-6.666666666666667,77,0,77" style="stroke: rgb(44, 160, 44); stroke-width: 2; fill: none;"/></g><text class="computeSig_label label" text-anchor="end" dx="-5" dy="0.5rem" fill="black" width="200" transform="translate(-180,686)">13</text></g><g class="node computeNode h14 statics" transform="translate(210,0)" style="pointer-events: auto;"><g class="computeSig" stroke="black" style="stroke-width: 2;"><path class="linegg timeline hgroup_4" d="M-180,119C-173.33333333333334,119,-166.66666666666666,119,-160,119C-153.33333333333334,119,-146.66666666666666,119,-140,119C-133.33333333333334,119,-126.66666666666667,119,-120,119C-113.33333333333333,119,-106.66666666666667,119,-100,119C-93.33333333333333,119,-86.66666666666667,119,-80,119C-73.33333333333333,119,-66.66666666666667,119,-60,119C-53.333333333333336,119,-46.666666666666664,119,-40,119C-33.333333333333336,119,-26.666666666666668,119,-20,119C-13.333333333333332,119,-6.666666666666667,119,0,119" style="stroke: rgb(214, 39, 40); stroke-width: 2; fill: none;"/></g><text class="computeSig_label label" text-anchor="end" dx="-5" dy="0.5rem" fill="black" width="200" transform="translate(-180,119)">14</text></g><g class="node computeNode h15 statics" transform="translate(210,0)" style="pointer-events: auto;"><g class="computeSig" stroke="black" style="stroke-width: 2;"><path class="linegg timeline hgroup_3" d="M-180,42C-173.33333333333334,42,-166.66666666666666,42,-160,42C-153.33333333333334,42,-146.66666666666666,42,-140,42C-133.33333333333334,42,-126.66666666666667,42,-120,42C-113.33333333333333,42,-106.66666666666667,42,-100,42C-93.33333333333333,42,-86.66666666666667,42,-80,42C-76.66666666666667,42,-73.33333333333333,42,-70,42C-66.66666666666667,42,-63.333333333333336,343,-60,644" style="stroke: rgb(44, 160, 44); stroke-width: 2; fill: none;"/><path class="linegg timeline hgroup_2" d="M-60,644C-53.333333333333336,644,-46.666666666666664,644,-40,644C-33.333333333333336,644,-26.666666666666668,644,-20,644C-13.333333333333332,644,-6.666666666666667,644,0,644" style="stroke: rgb(255, 127, 14); stroke-width: 2; fill: none;"/></g><text class="computeSig_label label" text-anchor="end" dx="-5" dy="0.5rem" fill="black" width="200" transform="translate(-180,42)">15</text></g><g class="node computeNode h16 statics" transform="translate(210,0)" style="pointer-events: auto;"><g class="computeSig" stroke="black" style="stroke-width: 2;"><path class="linegg timeline hgroup_5" d="M-180,434C-173.33333333333334,434,-166.66666666666666,434,-160,434C-156.66666666666666,434,-153.33333333333334,434,-150,434C-146.66666666666666,434,-143.33333333333334,577.5,-140,721" style="stroke: rgb(148, 103, 189); stroke-width: 2; fill: none;"/><path class="linegg timeline hgroup_2" d="M-140,721C-133.33333333333334,721,-126.66666666666667,721,-120,721C-113.33333333333333,721,-106.66666666666667,721,-100,721C-93.33333333333333,721,-86.66666666666667,721,-80,721C-73.33333333333333,721,-66.66666666666667,721,-60,721C-53.333333333333336,721,-46.666666666666664,721,-40,721C-33.333333333333336,721,-26.666666666666668,721,-20,721C-13.333333333333332,721,-6.666666666666667,721,0,721" style="stroke: rgb(255, 127, 14); stroke-width: 2; fill: none;"/></g><text class="computeSig_label label" text-anchor="end" dx="-5" dy="0.5rem" fill="black" width="200" transform="translate(-180,434)">16</text></g><g class="node computeNode h17 statics" transform="translate(210,0)" style="pointer-events: auto;"><g class="computeSig" stroke="black" style="stroke-width: 2;"><path class="linegg timeline hgroup_3" d="M-180,21C-173.33333333333334,21,-166.66666666666666,21,-160,21C-153.33333333333334,21,-146.66666666666666,21,-140,21C-136.66666666666666,21,-133.33333333333334,21,-130,21C-126.66666666666667,21,-123.33333333333333,63,-120,105" style="stroke: rgb(44, 160, 44); stroke-width: 2; fill: none;"/><path class="linegg timeline hgroup_4" d="M-120,105C-113.33333333333333,105,-106.66666666666667,105,-100,105C-93.33333333333333,105,-86.66666666666667,105,-80,105C-73.33333333333333,105,-66.66666666666667,105,-60,105C-53.333333333333336,105,-46.666666666666664,105,-40,105C-33.333333333333336,105,-26.666666666666668,105,-20,105C-13.333333333333332,105,-6.666666666666667,105,0,105" style="stroke: rgb(214, 39, 40); stroke-width: 2; fill: none;"/></g><text class="computeSig_label label" text-anchor="end" dx="-5" dy="0.5rem" fill="black" width="200" transform="translate(-180,21)">17</text></g><g class="node computeNode h18 statics" transform="translate(210,0)" style="pointer-events: auto;"><g class="computeSig" stroke="black" style="stroke-width: 2;"><path class="linegg timeline hgroup_5" d="M-180,343C-173.33333333333334,343,-166.66666666666666,343,-160,343C-153.33333333333334,343,-146.66666666666666,343,-140,343C-133.33333333333334,343,-126.66666666666667,343,-120,343C-113.33333333333333,343,-106.66666666666667,343,-100,343C-93.33333333333333,343,-86.66666666666667,343,-80,343C-73.33333333333333,343,-66.66666666666667,343,-60,343C-53.333333333333336,343,-46.666666666666664,343,-40,343C-33.333333333333336,343,-26.666666666666668,343,-20,343C-13.333333333333332,343,-6.666666666666667,343,0,343" style="stroke: rgb(148, 103, 189); stroke-width: 2; fill: none;"/></g><text class="computeSig_label label" text-anchor="end" dx="-5" dy="0.5rem" fill="black" width="200" transform="translate(-180,343)">18</text></g><g class="node computeNode h19 statics" transform="translate(210,0)" style="pointer-events: auto;"><g class="computeSig" stroke="black" style="stroke-width: 2;"><path class="linegg timeline hgroup_1" d="M-180,532C-173.33333333333334,532,-166.66666666666666,532,-160,532C-153.33333333333334,532,-146.66666666666666,532,-140,532C-133.33333333333334,532,-126.66666666666667,532,-120,532C-113.33333333333333,532,-106.66666666666667,532,-100,532C-93.33333333333333,532,-86.66666666666667,532,-80,532C-73.33333333333333,532,-66.66666666666667,532,-60,532C-56.666666666666664,532,-53.333333333333336,532,-50,532C-46.666666666666664,532,-43.333333333333336,385,-40,238" style="stroke: rgb(31, 119, 180); stroke-width: 2; fill: none;"/><path class="linegg timeline hgroup_4" d="M-40,238C-33.333333333333336,238,-26.666666666666668,238,-20,238C-13.333333333333332,238,-6.666666666666667,238,0,238" style="stroke: rgb(214, 39, 40); stroke-width: 2; fill: none;"/></g><text class="computeSig_label label" text-anchor="end" dx="-5" dy="0.5rem" fill="black" width="200" transform="translate(-180,532)">19</text></g><g class="node computeNode h20 statics" transform="translate(210,0)" style="pointer-events: auto;"><g class="computeSig" stroke="black" style="stroke-width: 2;"><path class="linegg timeline hgroup_4" d="M-180,245C-173.33333333333334,245,-166.66666666666666,245,-160,245C-156.66666666666666,245,-153.33333333333334,245,-150,245C-146.66666666666666,245,-143.33333333333334,325.5,-140,406" style="stroke: rgb(214, 39, 40); stroke-width: 2; fill: none;"/><path class="linegg timeline hgroup_5" d="M-140,406C-133.33333333333334,406,-126.66666666666667,406,-120,406C-116.66666666666667,406,-113.33333333333333,406,-110,406C-106.66666666666667,406,-103.33333333333333,472.5,-100,539" style="stroke: rgb(148, 103, 189); stroke-width: 2; fill: none;"/><path class="linegg timeline hgroup_1" d="M-100,539C-93.33333333333333,539,-86.66666666666667,539,-80,539C-73.33333333333333,539,-66.66666666666667,539,-60,539C-53.333333333333336,539,-46.666666666666664,539,-40,539C-33.333333333333336,539,-26.666666666666668,539,-20,539C-13.333333333333332,539,-6.666666666666667,539,0,539" style="stroke: rgb(31, 119, 180); stroke-width: 2; fill: none;"/></g><text class="computeSig_label label" text-anchor="end" dx="-5" dy="0.5rem" fill="black" width="200" transform="translate(-180,245)">20</text></g><g class="node computeNode h21 statics" transform="translate(210,0)" style="pointer-events: auto;"><g class="computeSig" stroke="black" style="stroke-width: 2;"><path class="linegg timeline hgroup_4" d="M-180,126C-173.33333333333334,126,-166.66666666666666,126,-160,126C-153.33333333333334,126,-146.66666666666666,126,-140,126C-133.33333333333334,126,-126.66666666666667,126,-120,126C-113.33333333333333,126,-106.66666666666667,126,-100,126C-93.33333333333333,126,-86.66666666666667,126,-80,126C-73.33333333333333,126,-66.66666666666667,126,-60,126C-53.333333333333336,126,-46.666666666666664,126,-40,126C-33.333333333333336,126,-26.666666666666668,126,-20,126C-13.333333333333332,126,-6.666666666666667,126,0,126" style="stroke: rgb(214, 39, 40); stroke-width: 2; fill: none;"/></g><text class="computeSig_label label" text-anchor="end" dx="-5" dy="0.5rem" fill="black" width="200" transform="translate(-180,126)">21</text></g><g class="node computeNode h22 statics" transform="translate(210,0)" style="pointer-events: auto;"><g class="computeSig" stroke="black" style="stroke-width: 2;"><path class="linegg timeline hgroup_1" d="M-180,588C-173.33333333333334,588,-166.66666666666666,588,-160,588C-153.33333333333334,588,-146.66666666666666,588,-140,588C-133.33333333333334,588,-126.66666666666667,588,-120,588C-113.33333333333333,588,-106.66666666666667,588,-100,588C-93.33333333333333,588,-86.66666666666667,588,-80,588C-73.33333333333333,588,-66.66666666666667,588,-60,588C-53.333333333333336,588,-46.666666666666664,588,-40,588C-33.333333333333336,588,-26.666666666666668,588,-20,588C-13.333333333333332,588,-6.666666666666667,588,0,588" style="stroke: rgb(31, 119, 180); stroke-width: 2; fill: none;"/></g><text class="computeSig_label label" text-anchor="end" dx="-5" dy="0.5rem" fill="black" width="200" transform="translate(-180,588)">22</text></g><g class="node computeNode h23 statics" transform="translate(210,0)" style="pointer-events: auto;"><g class="computeSig" stroke="black" style="stroke-width: 2;"><path class="linegg timeline hgroup_5" d="M-180,294C-173.33333333333334,294,-166.66666666666666,294,-160,294C-153.33333333333334,294,-146.66666666666666,294,-140,294C-133.33333333333334,294,-126.66666666666667,294,-120,294C-113.33333333333333,294,-106.66666666666667,294,-100,294C-93.33333333333333,294,-86.66666666666667,294,-80,294C-76.66666666666667,294,-73.33333333333333,294,-70,294C-66.66666666666667,294,-63.333333333333336,234.5,-60,175" style="stroke: rgb(148, 103, 189); stroke-width: 2; fill: none;"/><path class="linegg timeline hgroup_4" d="M-60,175C-53.333333333333336,175,-46.666666666666664,175,-40,175C-33.333333333333336,175,-26.666666666666668,175,-20,175C-13.333333333333332,175,-6.666666666666667,175,0,175" style="stroke: rgb(214, 39, 40); stroke-width: 2; fill: none;"/></g><text class="computeSig_label label" text-anchor="end" dx="-5" dy="0.5rem" fill="black" width="200" transform="translate(-180,294)">23</text></g><g class="node computeNode h24 statics" transform="translate(210,0)" style="pointer-events: auto;"><g class="computeSig" stroke="black" style="stroke-width: 2;"><path class="linegg timeline hgroup_5" d="M-180,336C-173.33333333333334,336,-166.66666666666666,336,-160,336C-156.66666666666666,336,-153.33333333333334,336,-150,336C-146.66666666666666,336,-143.33333333333334,420,-140,504" style="stroke: rgb(148, 103, 189); stroke-width: 2; fill: none;"/><path class="linegg timeline hgroup_1" d="M-140,504C-133.33333333333334,504,-126.66666666666667,504,-120,504C-113.33333333333333,504,-106.66666666666667,504,-100,504C-93.33333333333333,504,-86.66666666666667,504,-80,504C-73.33333333333333,504,-66.66666666666667,504,-60,504C-56.666666666666664,504,-53.333333333333336,504,-50,504C-46.666666666666664,504,-43.333333333333336,283.5,-40,63" style="stroke: rgb(31, 119, 180); stroke-width: 2; fill: none;"/><path class="linegg timeline hgroup_3" d="M-40,63C-33.333333333333336,63,-26.666666666666668,63,-20,63C-13.333333333333332,63,-6.666666666666667,63,0,63" style="stroke: rgb(44, 160, 44); stroke-width: 2; fill: none;"/></g><text class="computeSig_label label" text-anchor="end" dx="-5" dy="0.5rem" fill="black" width="200" transform="translate(-180,336)">24</text></g><g class="node computeNode h25 statics" transform="translate(210,0)" style="pointer-events: auto;"><g class="computeSig" stroke="black" style="stroke-width: 2;"><path class="linegg timeline hgroup_1" d="M-180,595C-173.33333333333334,595,-166.66666666666666,595,-160,595C-153.33333333333334,595,-146.66666666666666,595,-140,595C-133.33333333333334,595,-126.66666666666667,595,-120,595C-113.33333333333333,595,-106.66666666666667,595,-100,595C-93.33333333333333,595,-86.66666666666667,595,-80,595C-73.33333333333333,595,-66.66666666666667,595,-60,595C-53.333333333333336,595,-46.666666666666664,595,-40,595C-33.333333333333336,595,-26.666666666666668,595,-20,595C-13.333333333333332,595,-6.666666666666667,595,0,595" style="stroke: rgb(31, 119, 180); stroke-width: 2; fill: none;"/></g><text class="computeSig_label label" text-anchor="end" dx="-5" dy="0.5rem" fill="black" width="200" transform="translate(-180,595)">25</text></g><g class="node computeNode h26 statics" transform="translate(210,0)" style="pointer-events: auto;"><g class="computeSig" stroke="black" style="stroke-width: 2;"><path class="linegg timeline hgroup_4" d="M-180,203C-173.33333333333334,203,-166.66666666666666,203,-160,203C-153.33333333333334,203,-146.66666666666666,203,-140,203C-133.33333333333334,203,-126.66666666666667,203,-120,203C-113.33333333333333,203,-106.66666666666667,203,-100,203C-93.33333333333333,203,-86.66666666666667,203,-80,203C-76.66666666666667,203,-73.33333333333333,203,-70,203C-66.66666666666667,203,-63.333333333333336,276.5,-60,350" style="stroke: rgb(214, 39, 40); stroke-width: 2; fill: none;"/><path class="linegg timeline hgroup_5" d="M-60,350C-56.666666666666664,350,-53.333333333333336,350,-50,350C-46.666666666666664,350,-43.333333333333336,504,-40,658" style="stroke: rgb(148, 103, 189); stroke-width: 2;"/><path class="linegg timeline hgroup_2" d="M-40,658C-33.333333333333336,658,-26.666666666666668,658,-20,658C-13.333333333333332,658,-6.666666666666667,658,0,658" style="stroke: rgb(255, 127, 14); stroke-width: 2; fill: none;"/></g><text class="computeSig_label label" text-anchor="end" dx="-5" dy="0.5rem" fill="black" width="200" transform="translate(-180,203)">26</text></g><g class="node computeNode h27 statics" transform="translate(210,0)" style="pointer-events: auto;"><g class="computeSig" stroke="black" style="stroke-width: 2;"><path class="linegg timeline hgroup_4" d="M-180,210C-173.33333333333334,210,-166.66666666666666,210,-160,210C-153.33333333333334,210,-146.66666666666666,210,-140,210C-136.66666666666666,210,-133.33333333333334,210,-130,210C-126.66666666666667,210,-123.33333333333333,297.5,-120,385" style="stroke: rgb(214, 39, 40); stroke-width: 2; fill: none;"/><path class="linegg timeline hgroup_5" d="M-120,385C-113.33333333333333,385,-106.66666666666667,385,-100,385C-93.33333333333333,385,-86.66666666666667,385,-80,385C-73.33333333333333,385,-66.66666666666667,385,-60,385C-53.333333333333336,385,-46.666666666666664,385,-40,385C-36.666666666666664,385,-33.333333333333336,385,-30,385C-26.666666666666668,385,-23.333333333333332,525,-20,665" style="stroke: rgb(148, 103, 189); stroke-width: 2; fill: none;"/><path class="linegg timeline hgroup_2" d="M-20,665L0,665" style="stroke: rgb(255, 127, 14); stroke-width: 2; fill: none;"/></g><text class="computeSig_label label" text-anchor="end" dx="-5" dy="0.5rem" fill="black" width="200" transform="translate(-180,210)">27</text></g><g class="node computeNode h28 statics" transform="translate(210,0)" style="pointer-events: auto;"><g class="computeSig" stroke="black" style="stroke-width: 2;"><path class="linegg timeline hgroup_4" d="M-180,224.00000000000003C-176.66666666666666,224.00000000000003,-173.33333333333334,224.00000000000003,-170,224.00000000000003C-166.66666666666666,224.00000000000003,-163.33333333333334,371,-160,518" style="stroke: rgb(214, 39, 40); stroke-width: 2;"/><path class="linegg timeline hgroup_1" d="M-160,518C-156.66666666666666,518,-153.33333333333334,518,-150,518C-146.66666666666666,518,-143.33333333333334,595,-140,672" style="stroke: rgb(31, 119, 180); stroke-width: 2;"/><path class="linegg timeline hgroup_2" d="M-140,672C-136.66666666666666,672,-133.33333333333334,672,-130,672C-126.66666666666667,672,-123.33333333333333,532,-120,392" style="stroke: rgb(255, 127, 14); stroke-width: 2;"/><path class="linegg timeline hgroup_5" d="M-120,392C-113.33333333333333,392,-106.66666666666667,392,-100,392C-93.33333333333333,392,-86.66666666666667,392,-80,392C-73.33333333333333,392,-66.66666666666667,392,-60,392C-56.666666666666664,392,-53.333333333333336,392,-50,392C-46.666666666666664,392,-43.333333333333336,231,-40,70" style="stroke: rgb(148, 103, 189); stroke-width: 2; fill: none;"/><path class="linegg timeline hgroup_3" d="M-40,70C-36.666666666666664,70,-33.333333333333336,70,-30,70C-26.666666666666668,70,-23.333333333333332,294,-20,518" style="stroke: rgb(44, 160, 44); stroke-width: 2;"/><path class="linegg timeline hgroup_1" d="M-20,518L0,518" style="stroke: rgb(31, 119, 180); stroke-width: 2; fill: none;"/></g><text class="computeSig_label label" text-anchor="end" dx="-5" dy="0.5rem" fill="black" width="200" transform="translate(-180,224.00000000000003)">28</text></g><g class="node computeNode h29 statics" transform="translate(210,0)" style="pointer-events: auto;"><g class="computeSig" stroke="black" style="stroke-width: 2;"><path class="linegg timeline hgroup_5" d="M-180,427.00000000000006C-176.66666666666666,427.00000000000006,-173.33333333333334,427.00000000000006,-170,427.00000000000006C-166.66666666666666,427.00000000000006,-163.33333333333334,497,-160,567" style="stroke: rgb(148, 103, 189); stroke-width: 2;"/><path class="linegg timeline hgroup_1" d="M-160,567C-153.33333333333334,567,-146.66666666666666,567,-140,567C-133.33333333333334,567,-126.66666666666667,567,-120,567C-113.33333333333333,567,-106.66666666666667,567,-100,567C-93.33333333333333,567,-86.66666666666667,567,-80,567C-73.33333333333333,567,-66.66666666666667,567,-60,567C-53.333333333333336,567,-46.666666666666664,567,-40,567C-33.333333333333336,567,-26.666666666666668,567,-20,567C-13.333333333333332,567,-6.666666666666667,567,0,567" style="stroke: rgb(31, 119, 180); stroke-width: 2; fill: none;"/></g><text class="computeSig_label label" text-anchor="end" dx="-5" dy="0.5rem" fill="black" width="200" transform="translate(-180,427.00000000000006)">29</text></g><g class="node computeNode h30 statics" transform="translate(210,0)" style="pointer-events: auto;"><g class="computeSig" stroke="black" style="stroke-width: 2;"><path class="linegg timeline hgroup_5" d="M-180,308C-173.33333333333334,308,-166.66666666666666,308,-160,308C-153.33333333333334,308,-146.66666666666666,308,-140,308C-133.33333333333334,308,-126.66666666666667,308,-120,308C-116.66666666666667,308,-113.33333333333333,308,-110,308C-106.66666666666667,308,-103.33333333333333,395.5,-100,483" style="stroke: rgb(148, 103, 189); stroke-width: 2; fill: none;"/><path class="linegg timeline hgroup_1" d="M-100,483C-93.33333333333333,483,-86.66666666666667,483,-80,483C-76.66666666666667,483,-73.33333333333333,483,-70,483C-66.66666666666667,483,-63.333333333333336,332.5,-60,182" style="stroke: rgb(31, 119, 180); stroke-width: 2; fill: none;"/><path class="linegg timeline hgroup_4" d="M-60,182C-53.333333333333336,182,-46.666666666666664,182,-40,182C-33.333333333333336,182,-26.666666666666668,182,-20,182C-13.333333333333332,182,-6.666666666666667,182,0,182" style="stroke: rgb(214, 39, 40); stroke-width: 2; fill: none;"/></g><text class="computeSig_label label" text-anchor="end" dx="-5" dy="0.5rem" fill="black" width="200" transform="translate(-180,308)">30</text></g><g class="node computeNode h31 statics" transform="translate(210,0)" style="pointer-events: auto;"><g class="computeSig" stroke="black" style="stroke-width: 2;"><path class="linegg timeline hgroup_5" d="M-180,413C-173.33333333333334,413,-166.66666666666666,413,-160,413C-153.33333333333334,413,-146.66666666666666,413,-140,413C-133.33333333333334,413,-126.66666666666667,413,-120,413C-113.33333333333333,413,-106.66666666666667,413,-100,413C-93.33333333333333,413,-86.66666666666667,413,-80,413C-76.66666666666667,413,-73.33333333333333,413,-70,413C-66.66666666666667,413,-63.333333333333336,479.5,-60,546" style="stroke: rgb(148, 103, 189); stroke-width: 2; fill: none;"/><path class="linegg timeline hgroup_1" d="M-60,546C-53.333333333333336,546,-46.666666666666664,546,-40,546C-33.333333333333336,546,-26.666666666666668,546,-20,546C-13.333333333333332,546,-6.666666666666667,546,0,546" style="stroke: rgb(31, 119, 180); stroke-width: 2; fill: none;"/></g><text class="computeSig_label label" text-anchor="end" dx="-5" dy="0.5rem" fill="black" width="200" transform="translate(-180,413)">31</text></g><g class="node computeNode h32 statics" transform="translate(210,0)" style="pointer-events: auto;"><g class="computeSig" stroke="black" style="stroke-width: 2;"><path class="linegg timeline hgroup_3" d="M-180,7C-173.33333333333334,7,-166.66666666666666,7,-160,7C-153.33333333333334,7,-146.66666666666666,7,-140,7C-133.33333333333334,7,-126.66666666666667,7,-120,7C-113.33333333333333,7,-106.66666666666667,7,-100,7C-93.33333333333333,7,-86.66666666666667,7,-80,7C-73.33333333333333,7,-66.66666666666667,7,-60,7C-53.333333333333336,7,-46.666666666666664,7,-40,7C-33.333333333333336,7,-26.666666666666668,7,-20,7C-13.333333333333332,7,-6.666666666666667,7,0,7" style="stroke: rgb(44, 160, 44); stroke-width: 2; fill: none;"/></g><text class="computeSig_label label" text-anchor="end" dx="-5" dy="0.5rem" fill="black" width="200" transform="translate(-180,7.000000000000001)">32</text></g><g class="node computeNode h33 statics" transform="translate(210,0)" style="pointer-events: auto;"><g class="computeSig" stroke="black" style="stroke-width: 2;"><path class="linegg timeline hgroup_4" d="M-180,140C-173.33333333333334,140,-166.66666666666666,140,-160,140C-153.33333333333334,140,-146.66666666666666,140,-140,140C-133.33333333333334,140,-126.66666666666667,140,-120,140C-113.33333333333333,140,-106.66666666666667,140,-100,140C-93.33333333333333,140,-86.66666666666667,140,-80,140C-73.33333333333333,140,-66.66666666666667,140,-60,140C-53.333333333333336,140,-46.666666666666664,140,-40,140C-36.666666666666664,140,-33.333333333333336,140,-30,140C-26.666666666666668,140,-23.333333333333332,294,-20,448.00000000000006" style="stroke: rgb(214, 39, 40); stroke-width: 2; fill: none;"/><path class="linegg timeline hgroup_1" d="M-20,448.00000000000006L0,448.00000000000006" style="stroke: rgb(31, 119, 180); stroke-width: 2; fill: none;"/></g><text class="computeSig_label label" text-anchor="end" dx="-5" dy="0.5rem" fill="black" width="200" transform="translate(-180,140)">33</text></g><g class="node computeNode h34 statics" transform="translate(210,0)" style="pointer-events: auto;"><g class="computeSig" stroke="black" style="stroke-width: 2;"><path class="linegg timeline hgroup_1" d="M-180,490C-176.66666666666666,490,-173.33333333333334,490,-170,490C-166.66666666666666,490,-163.33333333333334,402.5,-160,315" style="stroke: rgb(31, 119, 180); stroke-width: 2;"/><path class="linegg timeline hgroup_5" d="M-160,315C-153.33333333333334,315,-146.66666666666666,315,-140,315C-133.33333333333334,315,-126.66666666666667,315,-120,315C-113.33333333333333,315,-106.66666666666667,315,-100,315C-93.33333333333333,315,-86.66666666666667,315,-80,315C-73.33333333333333,315,-66.66666666666667,315,-60,315C-56.666666666666664,315,-53.333333333333336,315,-50,315C-46.666666666666664,315,-43.333333333333336,252,-40,188.99999999999997" style="stroke: rgb(148, 103, 189); stroke-width: 2; fill: none;"/><path class="linegg timeline hgroup_4" d="M-40,189C-33.333333333333336,189,-26.666666666666668,189,-20,189C-13.333333333333332,189,-6.666666666666667,189,0,189" style="stroke: rgb(214, 39, 40); stroke-width: 2; fill: none;"/></g><text class="computeSig_label label" text-anchor="end" dx="-5" dy="0.5rem" fill="black" width="200" transform="translate(-180,490)">34</text></g><g class="node computeNode h35 statics" transform="translate(210,0)" style="pointer-events: auto;"><g class="computeSig" stroke="black" style="stroke-width: 2;"><path class="linegg timeline hgroup_2" d="M-180,714C-173.33333333333334,714,-166.66666666666666,714,-160,714C-153.33333333333334,714,-146.66666666666666,714,-140,714C-133.33333333333334,714,-126.66666666666667,714,-120,714C-113.33333333333333,714,-106.66666666666667,714,-100,714C-96.66666666666667,714,-93.33333333333333,714,-90,714C-86.66666666666667,714,-83.33333333333333,665,-80,616" style="stroke: rgb(255, 127, 14); stroke-width: 2; fill: none;"/><path class="linegg timeline hgroup_1" d="M-80,616C-73.33333333333333,616,-66.66666666666667,616,-60,616C-53.333333333333336,616,-46.666666666666664,616,-40,616C-33.333333333333336,616,-26.666666666666668,616,-20,616C-13.333333333333332,616,-6.666666666666667,616,0,616" style="stroke: rgb(31, 119, 180); stroke-width: 2; fill: none;"/></g><text class="computeSig_label label" text-anchor="end" dx="-5" dy="0.5rem" fill="black" width="200" transform="translate(-180,714)">35</text></g><g class="node computeNode h36 statics" transform="translate(210,0)" style="pointer-events: auto;"><g class="computeSig" stroke="black" style="stroke-width: 2;"><path class="linegg timeline hgroup_1" d="M-180,455C-173.33333333333334,455,-166.66666666666666,455,-160,455C-153.33333333333334,455,-146.66666666666666,455,-140,455C-133.33333333333334,455,-126.66666666666667,455,-120,455C-116.66666666666667,455,-113.33333333333333,455,-110,455C-106.66666666666667,455,-103.33333333333333,301,-100,147" style="stroke: rgb(31, 119, 180); stroke-width: 2; fill: none;"/><path class="linegg timeline hgroup_4" d="M-100,147C-93.33333333333333,147,-86.66666666666667,147,-80,147C-76.66666666666667,147,-73.33333333333333,147,-70,147C-66.66666666666667,147,-63.333333333333336,87.50000000000001,-60,28.000000000000004" style="stroke: rgb(214, 39, 40); stroke-width: 2; fill: none;"/><path class="linegg timeline hgroup_3" d="M-60,28C-53.333333333333336,28,-46.666666666666664,28,-40,28C-33.333333333333336,28,-26.666666666666668,28,-20,28C-13.333333333333332,28,-6.666666666666667,28,0,28" style="stroke: rgb(44, 160, 44); stroke-width: 2; fill: none;"/></g><text class="computeSig_label label" text-anchor="end" dx="-5" dy="0.5rem" fill="black" width="200" transform="translate(-180,455)">36</text></g><g class="node computeNode h37 statics" transform="translate(210,0)" style="pointer-events: auto;"><g class="computeSig" stroke="black" style="stroke-width: 2;"><path class="linegg timeline hgroup_1" d="M-180,525C-173.33333333333334,525,-166.66666666666666,525,-160,525C-156.66666666666666,525,-153.33333333333334,525,-150,525C-146.66666666666666,525,-143.33333333333334,462,-140,398.99999999999994" style="stroke: rgb(31, 119, 180); stroke-width: 2; fill: none;"/><path class="linegg timeline hgroup_5" d="M-140,398.99999999999994C-133.33333333333334,398.99999999999994,-126.66666666666667,398.99999999999994,-120,398.99999999999994C-113.33333333333333,398.99999999999994,-106.66666666666667,398.99999999999994,-100,398.99999999999994C-93.33333333333333,398.99999999999994,-86.66666666666667,398.99999999999994,-80,398.99999999999994C-73.33333333333333,398.99999999999994,-66.66666666666667,398.99999999999994,-60,398.99999999999994C-53.333333333333336,398.99999999999994,-46.666666666666664,398.99999999999994,-40,398.99999999999994C-33.333333333333336,398.99999999999994,-26.666666666666668,398.99999999999994,-20,398.99999999999994C-13.333333333333332,398.99999999999994,-6.666666666666667,398.99999999999994,0,398.99999999999994" style="stroke: rgb(148, 103, 189); stroke-width: 2; fill: none;"/></g><text class="computeSig_label label" text-anchor="end" dx="-5" dy="0.5rem" fill="black" width="200" transform="translate(-180,525)">37</text></g><g class="node computeNode h38 statics" transform="translate(210,0)" style="pointer-events: auto;"><g class="computeSig" stroke="black" style="stroke-width: 2;"><path class="linegg timeline hgroup_2" d="M-180,679C-173.33333333333334,679,-166.66666666666666,679,-160,679C-153.33333333333334,679,-146.66666666666666,679,-140,679C-133.33333333333334,679,-126.66666666666667,679,-120,679C-116.66666666666667,679,-113.33333333333333,679,-110,679C-106.66666666666667,679,-103.33333333333333,455,-100,231" style="stroke: rgb(255, 127, 14); stroke-width: 2; fill: none;"/><path class="linegg timeline hgroup_4" d="M-100,231C-93.33333333333333,231,-86.66666666666667,231,-80,231C-73.33333333333333,231,-66.66666666666667,231,-60,231C-53.333333333333336,231,-46.666666666666664,231,-40,231C-33.333333333333336,231,-26.666666666666668,231,-20,231C-13.333333333333332,231,-6.666666666666667,231,0,231" style="stroke: rgb(214, 39, 40); stroke-width: 2; fill: none;"/></g><text class="computeSig_label label" text-anchor="end" dx="-5" dy="0.5rem" fill="black" width="200" transform="translate(-180,679)">38</text></g><g class="node computeNode h39 statics" transform="translate(210,0)" style="pointer-events: auto;"><g class="computeSig" stroke="black" style="stroke-width: 2;"><path class="linegg timeline hgroup_5" d="M-180,357C-173.33333333333334,357,-166.66666666666666,357,-160,357C-153.33333333333334,357,-146.66666666666666,357,-140,357C-133.33333333333334,357,-126.66666666666667,357,-120,357C-113.33333333333333,357,-106.66666666666667,357,-100,357C-93.33333333333333,357,-86.66666666666667,357,-80,357C-73.33333333333333,357,-66.66666666666667,357,-60,357C-53.333333333333336,357,-46.666666666666664,357,-40,357C-33.333333333333336,357,-26.666666666666668,357,-20,357C-13.333333333333332,357,-6.666666666666667,357,0,357" style="stroke: rgb(148, 103, 189); stroke-width: 2; fill: none;"/></g><text class="computeSig_label label" text-anchor="end" dx="-5" dy="0.5rem" fill="black" width="200" transform="translate(-180,357)">39</text></g><g class="node computeNode h40 statics" transform="translate(210,0)" style="pointer-events: auto;"><g class="computeSig" stroke="black" style="stroke-width: 2;"><path class="linegg timeline hgroup_2" d="M-180,693C-176.66666666666666,693,-173.33333333333334,693,-170,693C-166.66666666666666,693,-163.33333333333334,647.5,-160,602" style="stroke: rgb(255, 127, 14); stroke-width: 2;"/><path class="linegg timeline hgroup_1" d="M-160,602C-153.33333333333334,602,-146.66666666666666,602,-140,602C-133.33333333333334,602,-126.66666666666667,602,-120,602C-113.33333333333333,602,-106.66666666666667,602,-100,602C-93.33333333333333,602,-86.66666666666667,602,-80,602C-73.33333333333333,602,-66.66666666666667,602,-60,602C-53.333333333333336,602,-46.666666666666664,602,-40,602C-33.333333333333336,602,-26.666666666666668,602,-20,602C-13.333333333333332,602,-6.666666666666667,602,0,602" style="stroke: rgb(31, 119, 180); stroke-width: 2; fill: none;"/></g><text class="computeSig_label label" text-anchor="end" dx="-5" dy="0.5rem" fill="black" width="200" transform="translate(-180,693)">40</text></g><g class="node computeNode h41 statics" transform="translate(210,0)" style="pointer-events: auto;"><g class="computeSig" stroke="black" style="stroke-width: 2;"><path class="linegg timeline hgroup_2" d="M-180,735C-173.33333333333334,735,-166.66666666666666,735,-160,735C-153.33333333333334,735,-146.66666666666666,735,-140,735C-133.33333333333334,735,-126.66666666666667,735,-120,735C-113.33333333333333,735,-106.66666666666667,735,-100,735C-93.33333333333333,735,-86.66666666666667,735,-80,735C-73.33333333333333,735,-66.66666666666667,735,-60,735C-53.333333333333336,735,-46.666666666666664,735,-40,735C-33.333333333333336,735,-26.666666666666668,735,-20,735C-13.333333333333332,735,-6.666666666666667,735,0,735" style="stroke: rgb(255, 127, 14); stroke-width: 2; fill: none;"/></g><text class="computeSig_label label" text-anchor="end" dx="-5" dy="0.5rem" fill="black" width="200" transform="translate(-180,735)">41</text></g><g class="node computeNode h42 statics" transform="translate(210,0)" style="pointer-events: auto;"><g class="computeSig" stroke="black" style="stroke-width: 2;"><path class="linegg timeline hgroup_5" d="M-180,364C-173.33333333333334,364,-166.66666666666666,364,-160,364C-153.33333333333334,364,-146.66666666666666,364,-140,364C-133.33333333333334,364,-126.66666666666667,364,-120,364C-113.33333333333333,364,-106.66666666666667,364,-100,364C-93.33333333333333,364,-86.66666666666667,364,-80,364C-73.33333333333333,364,-66.66666666666667,364,-60,364C-53.333333333333336,364,-46.666666666666664,364,-40,364C-33.333333333333336,364,-26.666666666666668,364,-20,364C-13.333333333333332,364,-6.666666666666667,364,0,364" style="stroke: rgb(148, 103, 189); stroke-width: 2; fill: none;"/></g><text class="computeSig_label label" text-anchor="end" dx="-5" dy="0.5rem" fill="black" width="200" transform="translate(-180,364)">42</text></g><g class="node computeNode h43 statics" transform="translate(210,0)" style="pointer-events: auto;"><g class="computeSig" stroke="black" style="stroke-width: 2;"><path class="linegg timeline hgroup_2" d="M-180,728C-173.33333333333334,728,-166.66666666666666,728,-160,728C-153.33333333333334,728,-146.66666666666666,728,-140,728C-133.33333333333334,728,-126.66666666666667,728,-120,728C-113.33333333333333,728,-106.66666666666667,728,-100,728C-93.33333333333333,728,-86.66666666666667,728,-80,728C-73.33333333333333,728,-66.66666666666667,728,-60,728C-56.666666666666664,728,-53.333333333333336,728,-50,728C-46.666666666666664,728,-43.333333333333336,675.5,-40,623" style="stroke: rgb(255, 127, 14); stroke-width: 2; fill: none;"/><path class="linegg timeline hgroup_1" d="M-40,623C-33.333333333333336,623,-26.666666666666668,623,-20,623C-13.333333333333332,623,-6.666666666666667,623,0,623" style="stroke: rgb(31, 119, 180); stroke-width: 2; fill: none;"/></g><text class="computeSig_label label" text-anchor="end" dx="-5" dy="0.5rem" fill="black" width="200" transform="translate(-180,728)">43</text></g><g class="node computeNode h44 statics" transform="translate(210,0)" style="pointer-events: auto;"><g class="computeSig" stroke="black" style="stroke-width: 2;"><path class="linegg timeline hgroup_4" d="M-180,154C-173.33333333333334,154,-166.66666666666666,154,-160,154C-153.33333333333334,154,-146.66666666666666,154,-140,154C-133.33333333333334,154,-126.66666666666667,154,-120,154C-113.33333333333333,154,-106.66666666666667,154,-100,154C-96.66666666666667,154,-93.33333333333333,154,-90,154C-86.66666666666667,154,-83.33333333333333,217,-80,280" style="stroke: rgb(214, 39, 40); stroke-width: 2; fill: none;"/><path class="linegg timeline hgroup_5" d="M-80,280C-73.33333333333333,280,-66.66666666666667,280,-60,280C-53.333333333333336,280,-46.666666666666664,280,-40,280C-33.333333333333336,280,-26.666666666666668,280,-20,280C-13.333333333333332,280,-6.666666666666667,280,0,280" style="stroke: rgb(148, 103, 189); stroke-width: 2; fill: none;"/></g><text class="computeSig_label label" text-anchor="end" dx="-5" dy="0.5rem" fill="black" width="200" transform="translate(-180,154)">44</text></g><g class="node computeNode h45 statics" transform="translate(210,0)" style="pointer-events: auto;"><g class="computeSig" stroke="black" style="stroke-width: 2;"><path class="linegg timeline hgroup_1" d="M-180,462C-176.66666666666666,462,-173.33333333333334,462,-170,462C-166.66666666666666,462,-163.33333333333334,549.5,-160,637" style="stroke: rgb(31, 119, 180); stroke-width: 2;"/><path class="linegg timeline hgroup_2" d="M-160,637C-153.33333333333334,637,-146.66666666666666,637,-140,637C-133.33333333333334,637,-126.66666666666667,637,-120,637C-116.66666666666667,637,-113.33333333333333,637,-110,637C-106.66666666666667,637,-103.33333333333333,336,-100,35" style="stroke: rgb(255, 127, 14); stroke-width: 2; fill: none;"/><path class="linegg timeline hgroup_3" d="M-100,35C-93.33333333333333,35,-86.66666666666667,35,-80,35C-73.33333333333333,35,-66.66666666666667,35,-60,35C-53.333333333333336,35,-46.666666666666664,35,-40,35C-33.333333333333336,35,-26.666666666666668,35,-20,35C-13.333333333333332,35,-6.666666666666667,35,0,35" style="stroke: rgb(44, 160, 44); stroke-width: 2; fill: none;"/></g><text class="computeSig_label label" text-anchor="end" dx="-5" dy="0.5rem" fill="black" width="200" transform="translate(-180,462)">45</text></g><g class="node computeNode h46 statics" transform="translate(210,0)" style="pointer-events: auto;"><g class="computeSig" stroke="black" style="stroke-width: 2;"><path class="linegg timeline hgroup_5" d="M-180,371C-173.33333333333334,371,-166.66666666666666,371,-160,371C-153.33333333333334,371,-146.66666666666666,371,-140,371C-133.33333333333334,371,-126.66666666666667,371,-120,371C-113.33333333333333,371,-106.66666666666667,371,-100,371C-93.33333333333333,371,-86.66666666666667,371,-80,371C-73.33333333333333,371,-66.66666666666667,371,-60,371C-53.333333333333336,371,-46.666666666666664,371,-40,371C-33.333333333333336,371,-26.666666666666668,371,-20,371C-13.333333333333332,371,-6.666666666666667,371,0,371" style="stroke: rgb(148, 103, 189); stroke-width: 2; fill: none;"/></g><text class="computeSig_label label" text-anchor="end" dx="-5" dy="0.5rem" fill="black" width="200" transform="translate(-180,371)">46</text></g><g class="node computeNode h47 statics" transform="translate(210,0)" style="pointer-events: auto;"><g class="computeSig" stroke="black" style="stroke-width: 2;"><path class="linegg timeline hgroup_3" d="M-180,14C-173.33333333333334,14,-166.66666666666666,14.000000000000002,-160,14.000000000000002C-156.66666666666666,14.000000000000002,-153.33333333333334,14.000000000000002,-150,14.000000000000002C-146.66666666666666,14.000000000000002,-143.33333333333334,56,-140,98" style="stroke: rgb(44, 160, 44); stroke-width: 2; fill: none;"/><path class="linegg timeline hgroup_4" d="M-140,98C-133.33333333333334,98,-126.66666666666667,98,-120,98C-116.66666666666667,98,-113.33333333333333,98,-110,98C-106.66666666666667,98,-103.33333333333333,56,-100,14.000000000000002" style="stroke: rgb(214, 39, 40); stroke-width: 2; fill: none;"/><path class="linegg timeline hgroup_3" d="M-100,14C-93.33333333333333,14,-86.66666666666667,14,-80,14C-73.33333333333333,14,-66.66666666666667,14,-60,14C-53.333333333333336,14,-46.666666666666664,14,-40,14C-33.333333333333336,14,-26.666666666666668,14,-20,14C-13.333333333333332,14,-6.666666666666667,14,0,14" style="stroke: rgb(44, 160, 44); stroke-width: 2; fill: none;"/></g><text class="computeSig_label label" text-anchor="end" dx="-5" dy="0.5rem" fill="black" width="200" transform="translate(-180,14.000000000000002)">47</text></g><g class="node computeNode h48 statics" transform="translate(210,0)" style="pointer-events: auto;"><g class="computeSig" stroke="black" style="stroke-width: 2;"><path class="linegg timeline hgroup_4" d="M-180,196C-173.33333333333334,196,-166.66666666666666,196,-160,196C-156.66666666666666,196,-153.33333333333334,196,-150,196C-146.66666666666666,196,-143.33333333333334,259,-140,322" style="stroke: rgb(214, 39, 40); stroke-width: 2; fill: none;"/><path class="linegg timeline hgroup_5" d="M-140,322C-133.33333333333334,322,-126.66666666666667,322,-120,322C-113.33333333333333,322,-106.66666666666667,322,-100,322C-93.33333333333333,322,-86.66666666666667,322,-80,322C-73.33333333333333,322,-66.66666666666667,322,-60,322C-53.333333333333336,322,-46.666666666666664,322,-40,322C-33.333333333333336,322,-26.666666666666668,322,-20,322C-13.333333333333332,322,-6.666666666666667,322,0,322" style="stroke: rgb(148, 103, 189); stroke-width: 2; fill: none;"/></g><text class="computeSig_label label" text-anchor="end" dx="-5" dy="0.5rem" fill="black" width="200" transform="translate(-180,196)">48</text></g><g class="node computeNode h49 statics" transform="translate(210,0)" style="pointer-events: auto;"><g class="computeSig" stroke="black" style="stroke-width: 2;"><path class="linegg timeline hgroup_5" d="M-180,377.99999999999994C-173.33333333333334,377.99999999999994,-166.66666666666666,377.99999999999994,-160,377.99999999999994C-153.33333333333334,377.99999999999994,-146.66666666666666,377.99999999999994,-140,377.99999999999994C-133.33333333333334,377.99999999999994,-126.66666666666667,377.99999999999994,-120,377.99999999999994C-113.33333333333333,377.99999999999994,-106.66666666666667,377.99999999999994,-100,377.99999999999994C-93.33333333333333,377.99999999999994,-86.66666666666667,377.99999999999994,-80,377.99999999999994C-73.33333333333333,377.99999999999994,-66.66666666666667,377.99999999999994,-60,377.99999999999994C-53.333333333333336,377.99999999999994,-46.666666666666664,377.99999999999994,-40,377.99999999999994C-33.333333333333336,377.99999999999994,-26.666666666666668,377.99999999999994,-20,377.99999999999994C-13.333333333333332,377.99999999999994,-6.666666666666667,377.99999999999994,0,377.99999999999994" style="stroke: rgb(148, 103, 189); stroke-width: 2; fill: none;"/></g><text class="computeSig_label label" text-anchor="end" dx="-5" dy="0.5rem" fill="black" width="200" transform="translate(-180,377.99999999999994)">49</text></g><g class="node computeNode h50 statics" transform="translate(210,0)" style="pointer-events: auto;"><g class="computeSig" stroke="black" style="stroke-width: 2;"><path class="linegg timeline hgroup_4" d="M-180,161C-176.66666666666666,161,-173.33333333333334,161,-170,161C-166.66666666666666,161,-163.33333333333334,224,-160,287" style="stroke: rgb(214, 39, 40); stroke-width: 2;"/><path class="linegg timeline hgroup_5" d="M-160,287C-153.33333333333334,287,-146.66666666666666,287,-140,287C-133.33333333333334,287,-126.66666666666667,287,-120,287C-113.33333333333333,287,-106.66666666666667,287,-100,287C-93.33333333333333,287,-86.66666666666667,287,-80,287C-76.66666666666667,287,-73.33333333333333,287,-70,287C-66.66666666666667,287,-63.333333333333336,224,-60,161" style="stroke: rgb(148, 103, 189); stroke-width: 2; fill: none;"/><path class="linegg timeline hgroup_4" d="M-60,161C-53.333333333333336,161,-46.666666666666664,161,-40,161C-33.333333333333336,161,-26.666666666666668,161,-20,161C-13.333333333333332,161,-6.666666666666667,161,0,161" style="stroke: rgb(214, 39, 40); stroke-width: 2; fill: none;"/></g><text class="computeSig_label label" text-anchor="end" dx="-5" dy="0.5rem" fill="black" width="200" transform="translate(-180,161)">50</text></g></g><rect class="fisheyeLayer" style="opacity: 0; pointer-events: none;" width="180" height="780" transform="translate(120,0)"/><g class="table header" transform="translate(600,0)"><g class="back"><path style="fill: rgb(221, 221, 221);"/></g></g></g><g class="timebox hide" transform="translate(40,20)" dy="1rem" style="font-size: 16px;"/><circle id="tipfollowscursor"/></svg>