<svg id="jobmap" width="300" height="850" style="fill: none; font-size: 10px; font-family: sans-serif;" xmlns="http://www.w3.org/2000/svg" xmlns:xlink="http://www.w3.org/1999/xlink">

                    <defs id="defsmain"><pattern id="userpic" width="100%" height="100%" patternContentUnits="objectBoundingBox"><image height="1" width="1" preserveAspectRatio="none" xmlns:xlink="http://www.w3.org/1999/xlink" xlink:href="src/images/u.png"/></pattern><marker id="arrow" markerWidth="10" markerHeight="10" refX="0" refY="3" orient="auto" markerUnits="strokeWidth"><path d="M0,0 L0,6 L9,3 z" style="fill: black;"/></marker></defs><rect class="pantarget" opacity="0" width="1146" height="762"/><g class="pannel" transform="translate(50,50)"><text class="Time" text-anchor="middle" x="40" dy="-30" style="font-weight: bold; fill: black;">Time</text><line x1="60" x2="95" y1="-33" y2="-33" marker-end="url(#arrow)" style="stroke: black;"/><text class="Time" text-anchor="middle" x="-5" dy="-1rem" style="font-weight: bold; fill: black;">Instance</text><line x1="5" x2="5" y1="-5" y2="30" marker-end="url(#arrow)" style="stroke: black;"/><g class="gNodeaxis" transform="translate(210,-10)"><g class="gMainaxis" fill="none" font-size="10" font-family="sans-serif" text-anchor="middle"><g class="tick" opacity="1" transform="translate(-180, 0)"><line stroke="#000" y2="745" vector-effect="non-scaling-stroke" style="stroke-width: 0.1; stroke: black; stroke-dasharray: 1, 2; opacity: 0.5;"/><text fill="#000" y="-3" dy="-0.5rem">1</text></g><g class="tick" opacity="1" transform="translate(-160, 0)"><line stroke="#000" y2="745" vector-effect="non-scaling-stroke" style="stroke-width: 0.1; stroke: black; stroke-dasharray: 1, 2; opacity: 0.5;"/><text fill="#000" y="-3" dy="-0.5rem">2</text></g><g class="tick" opacity="1" transform="translate(-140, 0)"><line stroke="#000" y2="745" vector-effect="non-scaling-stroke" style="stroke-width: 0.1; stroke: black; stroke-dasharray: 1, 2; opacity: 0.5;"/><text fill="#000" y="-3" dy="-0.5rem">3</text></g><g class="tick" opacity="1" transform="translate(-120, 0)"><line stroke="#000" y2="745" vector-effect="non-scaling-stroke" style="stroke-width: 0.1; stroke: black; stroke-dasharray: 1, 2; opacity: 0.5;"/><text fill="#000" y="-3" dy="-0.5rem">4</text></g><g class="tick" opacity="1" transform="translate(-100, 0)"><line stroke="#000" y2="745" vector-effect="non-scaling-stroke" style="stroke-width: 0.1; stroke: black; stroke-dasharray: 1, 2; opacity: 0.5;"/><text fill="#000" y="-3" dy="-0.5rem">5</text></g><g class="tick" opacity="1" transform="translate(-80, 0)"><line stroke="#000" y2="745" vector-effect="non-scaling-stroke" style="stroke-width: 0.1; stroke: black; stroke-dasharray: 1, 2; opacity: 0.5;"/><text fill="#000" y="-3" dy="-0.5rem">6</text></g><g class="tick" opacity="1" transform="translate(-60, 0)"><line stroke="#000" y2="745" vector-effect="non-scaling-stroke" style="stroke-width: 0.1; stroke: black; stroke-dasharray: 1, 2; opacity: 0.5;"/><text fill="#000" y="-3" dy="-0.5rem">7</text></g><g class="tick" opacity="1" transform="translate(-40, 0)"><line stroke="#000" y2="745" vector-effect="non-scaling-stroke" style="stroke-width: 0.1; stroke: black; stroke-dasharray: 1, 2; opacity: 0.5;"/><text fill="#000" y="-3" dy="-0.5rem">8</text></g><g class="tick" opacity="1" transform="translate(-20, 0)"><line stroke="#000" y2="745" vector-effect="non-scaling-stroke" style="stroke-width: 0.1; stroke: black; stroke-dasharray: 1, 2; opacity: 0.5;"/><text fill="#000" y="-3" dy="-0.5rem">9</text></g><g class="tick" opacity="1" transform=""><line stroke="#000" y2="745" vector-effect="non-scaling-stroke" style="stroke-width: 0.1; stroke: black; stroke-dasharray: 1, 2; opacity: 0.5;"/><text fill="#000" y="-3" dy="-0.5rem">10</text></g></g><g class="gSubaxis hide"/></g><g class="annotation"/><g class="linkg"><g class="links" style="display: none;"><path stroke="black" style="stroke-width: 2;"/><text text-anchor="middle">1</text></g><g class="links" style="display: none;"><path stroke="black" style="stroke-width: 2;"/><text text-anchor="middle">1</text></g><g class="links" style="display: none;"><path stroke="black" style="stroke-width: 2;"/><text text-anchor="middle">1</text></g><g class="links" style="display: none;"><path stroke="black" style="stroke-width: 2;"/><text text-anchor="middle">1</text></g><g class="links" style="display: none;"><path stroke="black" style="stroke-width: 2;"/><text text-anchor="middle">1</text></g><g class="links" style="display: none;"><path stroke="black" style="stroke-width: 2;"/><text text-anchor="middle">1</text></g><g class="links" style="display: none;"><path stroke="black" style="stroke-width: 2;"/><text text-anchor="middle">1</text></g><g class="links" style="display: none;"><path stroke="black" style="stroke-width: 2;"/><text text-anchor="middle">1</text></g><g class="links" style="display: none;"><path stroke="black" style="stroke-width: 2;"/><text text-anchor="middle">1</text></g><g class="links" style="display: none;"><path stroke="black" style="stroke-width: 2;"/><text text-anchor="middle">1</text></g><g class="links" style="display: none;"><path stroke="black" style="stroke-width: 2;"/><text text-anchor="middle">1</text></g><g class="links" style="display: none;"><path stroke="black" style="stroke-width: 2;"/><text text-anchor="middle">1</text></g><g class="links" style="display: none;"><path stroke="black" style="stroke-width: 2;"/><text text-anchor="middle">1</text></g><g class="links" style="display: none;"><path stroke="black" style="stroke-width: 2;"/><text text-anchor="middle">1</text></g><g class="links" style="display: none;"><path stroke="black" style="stroke-width: 2;"/><text text-anchor="middle">1</text></g><g class="links" style="display: none;"><path stroke="black" style="stroke-width: 2;"/><text text-anchor="middle">1</text></g><g class="links" style="display: none;"><path stroke="black" style="stroke-width: 2;"/><text text-anchor="middle">1</text></g><g class="links" style="display: none;"><path stroke="black" style="stroke-width: 2;"/><text text-anchor="middle">1</text></g><g class="links" style="display: none;"><path stroke="black" style="stroke-width: 2;"/><text text-anchor="middle">1</text></g><g class="links" style="display: none;"><path stroke="black" style="stroke-width: 2;"/><text text-anchor="middle">1</text></g><g class="links" style="display: none;"><path stroke="black" style="stroke-width: 2;"/><text text-anchor="middle">1</text></g><g class="links" style="display: none;"><path stroke="black" style="stroke-width: 2;"/><text text-anchor="middle">1</text></g><g class="links" style="display: none;"><path stroke="black" style="stroke-width: 2;"/><text text-anchor="middle">1</text></g><g class="links" style="display: none;"><path stroke="black" style="stroke-width: 2;"/><text text-anchor="middle">1</text></g><g class="links" style="display: none;"><path stroke="black" style="stroke-width: 2;"/><text text-anchor="middle">1</text></g><g class="links" style="display: none;"><path stroke="black" style="stroke-width: 2;"/><text text-anchor="middle">1</text></g><g class="links" style="display: none;"><path stroke="black" style="stroke-width: 2;"/><text text-anchor="middle">1</text></g><g class="links" style="display: none;"><path stroke="black" style="stroke-width: 2;"/><text text-anchor="middle">1</text></g><g class="links" style="display: none;"><path stroke="black" style="stroke-width: 2;"/><text text-anchor="middle">1</text></g><g class="links" style="display: none;"><path stroke="black" style="stroke-width: 2;"/><text text-anchor="middle">1</text></g><g class="links" style="display: none;"><path stroke="black" style="stroke-width: 2;"/><text text-anchor="middle">1</text></g><g class="links" style="display: none;"><path stroke="black" style="stroke-width: 2;"/><text text-anchor="middle">1</text></g><g class="links" style="display: none;"><path stroke="black" style="stroke-width: 2;"/><text text-anchor="middle">1</text></g><g class="links" style="display: none;"><path stroke="black" style="stroke-width: 2;"/><text text-anchor="middle">1</text></g><g class="links" style="display: none;"><path stroke="black" style="stroke-width: 2;"/><text text-anchor="middle">1</text></g><g class="links" style="display: none;"><path stroke="black" style="stroke-width: 2;"/><text text-anchor="middle">1</text></g><g class="links" style="display: none;"><path stroke="black" style="stroke-width: 2;"/><text text-anchor="middle">1</text></g><g class="links" style="display: none;"><path stroke="black" style="stroke-width: 2;"/><text text-anchor="middle">1</text></g><g class="links" style="display: none;"><path stroke="black" style="stroke-width: 2;"/><text text-anchor="middle">1</text></g><g class="links" style="display: none;"><path stroke="black" style="stroke-width: 2;"/><text text-anchor="middle">1</text></g><g class="links" style="display: none;"><path stroke="black" style="stroke-width: 2;"/><text text-anchor="middle">1</text></g><g class="links" style="display: none;"><path stroke="black" style="stroke-width: 2;"/><text text-anchor="middle">1</text></g><g class="links" style="display: none;"><path stroke="black" style="stroke-width: 2;"/><text text-anchor="middle">1</text></g><g class="links" style="display: none;"><path stroke="black" style="stroke-width: 2;"/><text text-anchor="middle">1</text></g><g class="links" style="display: none;"><path stroke="black" style="stroke-width: 2;"/><text text-anchor="middle">1</text></g><g class="links" style="display: none;"><path stroke="black" style="stroke-width: 2;"/><text text-anchor="middle">1</text></g><g class="links" style="display: none;"><path stroke="black" style="stroke-width: 2;"/><text text-anchor="middle">1</text></g><g class="links" style="display: none;"><path stroke="black" style="stroke-width: 2;"/><text text-anchor="middle">1</text></g><g class="links" style="display: none;"><path stroke="black" style="stroke-width: 2;"/><text text-anchor="middle">1</text></g><g class="links" style="display: none;"><path stroke="black" style="stroke-width: 2;"/><text text-anchor="middle">1</text></g><g class="links" style="display: none;"><path stroke="black" style="stroke-width: 2;"/><text text-anchor="middle">1</text></g></g><g class="nodeg"><g class="node computeNode h1 statics" transform="translate(210,0)" style="pointer-events: auto;"><g class="computeSig" stroke="black" style="stroke-width: 2;"><path class="linegg timeline hgroup_1" d="M-180,735C-173.33333333333334,735,-166.66666666666666,735,-160,735C-153.33333333333334,735,-146.66666666666666,735,-140,735C-133.33333333333334,735,-126.66666666666667,735,-120,735C-113.33333333333333,735,-106.66666666666667,735,-100,735C-93.33333333333333,735,-86.66666666666667,735,-80,735C-73.33333333333333,735,-66.66666666666667,735,-60,735C-53.333333333333336,735,-46.666666666666664,735,-40,735C-33.333333333333336,735,-26.666666666666668,735,-20,735C-13.333333333333332,735,-6.666666666666667,735,0,735" style="stroke: rgb(31, 119, 180); stroke-width: 2; fill: none;"/></g><text class="computeSig_label label" text-anchor="end" dx="-5" dy="0.5rem" fill="black" width="200" transform="translate(-180,735)">1</text></g><g class="node computeNode h2 statics" transform="translate(210,0)" style="pointer-events: auto;"><g class="computeSig" stroke="black" style="stroke-width: 2;"><path class="linegg timeline hgroup_2" d="M-180,345C-173.33333333333334,345,-166.66666666666666,345,-160,345C-153.33333333333334,345,-146.66666666666666,345,-140,345C-133.33333333333334,345,-126.66666666666667,345,-120,345C-113.33333333333333,345,-106.66666666666667,345,-100,345C-93.33333333333333,345,-86.66666666666667,345,-80,345C-73.33333333333333,345,-66.66666666666667,345,-60,345C-53.333333333333336,345,-46.666666666666664,345,-40,345C-33.333333333333336,345,-26.666666666666668,345,-20,345C-13.333333333333332,345,-6.666666666666667,345,0,345" style="stroke: rgb(255, 127, 14); stroke-width: 2; fill: none;"/></g><text class="computeSig_label label" text-anchor="end" dx="-5" dy="0.5rem" fill="black" width="200" transform="translate(-180,345)">2</text></g><g class="node computeNode h3 statics" transform="translate(210,0)" style="pointer-events: auto;"><g class="computeSig" stroke="black" style="stroke-width: 2;"><path class="linegg timeline hgroup_1" d="M-180,675C-173.33333333333334,675,-166.66666666666666,675,-160,675C-153.33333333333334,675,-146.66666666666666,675,-140,675C-133.33333333333334,675,-126.66666666666667,675,-120,675C-113.33333333333333,675,-106.66666666666667,675,-100,675C-96.66666666666667,675,-93.33333333333333,675,-90,675C-86.66666666666667,675,-83.33333333333333,363.75,-80,52.5" style="stroke: rgb(31, 119, 180); stroke-width: 2; fill: none;"/><path class="linegg timeline hgroup_5" d="M-80,52.5C-73.33333333333333,52.5,-66.66666666666667,52.5,-60,52.5C-53.333333333333336,52.5,-46.666666666666664,52.5,-40,52.5C-33.333333333333336,52.5,-26.666666666666668,52.5,-20,52.5C-13.333333333333332,52.5,-6.666666666666667,52.5,0,52.5" style="stroke: rgb(148, 103, 189); stroke-width: 2; fill: none;"/></g><text class="computeSig_label label" text-anchor="end" dx="-5" dy="0.5rem" fill="black" width="200" transform="translate(-180,675)">3</text></g><g class="node computeNode h4 statics" transform="translate(210,0)" style="pointer-events: auto;"><g class="computeSig" stroke="black" style="stroke-width: 2;"><path class="linegg timeline hgroup_3" d="M-180,172.5C-173.33333333333334,172.5,-166.66666666666666,172.5,-160,172.5C-153.33333333333334,172.5,-146.66666666666666,172.5,-140,172.5C-133.33333333333334,172.5,-126.66666666666667,172.5,-120,172.5C-113.33333333333333,172.5,-106.66666666666667,172.5,-100,172.5C-96.66666666666667,172.5,-93.33333333333333,172.5,-90,172.5C-86.66666666666667,172.5,-83.33333333333333,232.5,-80,292.5" style="stroke: rgb(44, 160, 44); stroke-width: 2; fill: none;"/><path class="linegg timeline hgroup_2" d="M-80,292.5C-73.33333333333333,292.5,-66.66666666666667,292.5,-60,292.5C-53.333333333333336,292.5,-46.666666666666664,292.5,-40,292.5C-33.333333333333336,292.5,-26.666666666666668,292.5,-20,292.5C-13.333333333333332,292.5,-6.666666666666667,292.5,0,292.5" style="stroke: rgb(255, 127, 14); stroke-width: 2; fill: none;"/></g><text class="computeSig_label label" text-anchor="end" dx="-5" dy="0.5rem" fill="black" width="200" transform="translate(-180,172.5)">4</text></g><g class="node computeNode h5 statics" transform="translate(210,0)" style="pointer-events: auto;"><g class="computeSig" stroke="black" style="stroke-width: 2;"><path class="linegg timeline hgroup_3" d="M-180,119.99999999999999C-173.33333333333334,119.99999999999999,-166.66666666666666,119.99999999999999,-160,119.99999999999999C-153.33333333333334,119.99999999999999,-146.66666666666666,119.99999999999999,-140,119.99999999999999C-133.33333333333334,119.99999999999999,-126.66666666666667,119.99999999999999,-120,119.99999999999999C-113.33333333333333,119.99999999999999,-106.66666666666667,119.99999999999999,-100,119.99999999999999C-93.33333333333333,119.99999999999999,-86.66666666666667,119.99999999999999,-80,119.99999999999999C-73.33333333333333,119.99999999999999,-66.66666666666667,119.99999999999999,-60,119.99999999999999C-53.333333333333336,119.99999999999999,-46.666666666666664,119.99999999999999,-40,119.99999999999999C-33.333333333333336,119.99999999999999,-26.666666666666668,119.99999999999999,-20,119.99999999999999C-13.333333333333332,119.99999999999999,-6.666666666666667,119.99999999999999,0,119.99999999999999" style="stroke: rgb(44, 160, 44); stroke-width: 2; fill: none;"/></g><text class="computeSig_label label" text-anchor="end" dx="-5" dy="0.5rem" fill="black" width="200" transform="translate(-180,119.99999999999999)">5</text></g><g class="node computeNode h6 statics" transform="translate(210,0)" style="pointer-events: auto;"><g class="computeSig" stroke="black" style="stroke-width: 2;"><path class="linegg timeline hgroup_3" d="M-180,210C-173.33333333333334,210,-166.66666666666666,210,-160,210C-153.33333333333334,210,-146.66666666666666,210,-140,210C-136.66666666666666,210,-133.33333333333334,210,-130,210C-126.66666666666667,210,-123.33333333333333,435,-120,660" style="stroke: rgb(44, 160, 44); stroke-width: 2; fill: none;"/><path class="linegg timeline hgroup_1" d="M-120,660C-113.33333333333333,660,-106.66666666666667,660,-100,660C-93.33333333333333,660,-86.66666666666667,660,-80,660C-76.66666666666667,660,-73.33333333333333,660,-70,660C-66.66666666666667,660,-63.333333333333336,435,-60,210" style="stroke: rgb(31, 119, 180); stroke-width: 2; fill: none;"/><path class="linegg timeline hgroup_3" d="M-60,210C-53.333333333333336,210,-46.666666666666664,210,-40,210C-33.333333333333336,210,-26.666666666666668,210,-20,210C-13.333333333333332,210,-6.666666666666667,210,0,210" style="stroke: rgb(44, 160, 44); stroke-width: 2; fill: none;"/></g><text class="computeSig_label label" text-anchor="end" dx="-5" dy="0.5rem" fill="black" width="200" transform="translate(-180,210)">6</text></g><g class="node computeNode h7 statics" transform="translate(210,0)" style="pointer-events: auto;"><g class="computeSig" stroke="black" style="stroke-width: 2;"><path class="linegg timeline hgroup_1" d="M-180,682.5C-173.33333333333334,682.5,-166.66666666666666,682.5,-160,682.5C-156.66666666666666,682.5,-153.33333333333334,682.5,-150,682.5C-146.66666666666666,682.5,-143.33333333333334,371.25,-140,59.99999999999999" style="stroke: rgb(31, 119, 180); stroke-width: 2; fill: none;"/><path class="linegg timeline hgroup_5" d="M-140,59.99999999999999C-136.66666666666666,59.99999999999999,-133.33333333333334,59.99999999999999,-130,59.99999999999999C-126.66666666666667,59.99999999999999,-123.33333333333333,225,-120,390" style="stroke: rgb(148, 103, 189); stroke-width: 2;"/><path class="linegg timeline hgroup_2" d="M-120,390C-113.33333333333333,390,-106.66666666666667,390,-100,390C-93.33333333333333,390,-86.66666666666667,390,-80,390C-73.33333333333333,390,-66.66666666666667,390,-60,390C-53.333333333333336,390,-46.666666666666664,390,-40,390C-33.333333333333336,390,-26.666666666666668,390,-20,390C-13.333333333333332,390,-6.666666666666667,390,0,390" style="stroke: rgb(255, 127, 14); stroke-width: 2; fill: none;"/></g><text class="computeSig_label label" text-anchor="end" dx="-5" dy="0.5rem" fill="black" width="200" transform="translate(-180,682.5)">7</text></g><g class="node computeNode h8 statics" transform="translate(210,0)" style="pointer-events: auto;"><g class="computeSig" stroke="black" style="stroke-width: 2;"><path class="linegg timeline hgroup_4" d="M-180,517.5C-173.33333333333334,517.5,-166.66666666666666,517.5,-160,517.5C-153.33333333333334,517.5,-146.66666666666666,517.5,-140,517.5C-136.66666666666666,517.5,-133.33333333333334,517.5,-130,517.5C-126.66666666666667,517.5,-123.33333333333333,457.50000000000006,-120,397.50000000000006" style="stroke: rgb(214, 39, 40); stroke-width: 2; fill: none;"/><path class="linegg timeline hgroup_2" d="M-120,397.50000000000006C-113.33333333333333,397.50000000000006,-106.66666666666667,397.50000000000006,-100,397.50000000000006C-93.33333333333333,397.50000000000006,-86.66666666666667,397.50000000000006,-80,397.50000000000006C-73.33333333333333,397.50000000000006,-66.66666666666667,397.50000000000006,-60,397.50000000000006C-53.333333333333336,397.50000000000006,-46.666666666666664,397.50000000000006,-40,397.50000000000006C-33.333333333333336,397.50000000000006,-26.666666666666668,397.50000000000006,-20,397.50000000000006C-13.333333333333332,397.50000000000006,-6.666666666666667,397.50000000000006,0,397.50000000000006" style="stroke: rgb(255, 127, 14); stroke-width: 2; fill: none;"/></g><text class="computeSig_label label" text-anchor="end" dx="-5" dy="0.5rem" fill="black" width="200" transform="translate(-180,517.5)">8</text></g><g class="node computeNode h9 statics" transform="translate(210,0)" style="pointer-events: auto;"><g class="computeSig" stroke="black" style="stroke-width: 2;"><path class="linegg timeline hgroup_2" d="M-180,352.5C-173.33333333333334,352.5,-166.66666666666666,352.5,-160,352.5C-153.33333333333334,352.5,-146.66666666666666,352.5,-140,352.5C-133.33333333333334,352.5,-126.66666666666667,352.5,-120,352.5C-113.33333333333333,352.5,-106.66666666666667,352.5,-100,352.5C-93.33333333333333,352.5,-86.66666666666667,352.5,-80,352.5C-73.33333333333333,352.5,-66.66666666666667,352.5,-60,352.5C-53.333333333333336,352.5,-46.666666666666664,352.5,-40,352.5C-33.333333333333336,352.5,-26.666666666666668,352.5,-20,352.5C-13.333333333333332,352.5,-6.666666666666667,352.5,0,352.5" style="stroke: rgb(255, 127, 14); stroke-width: 2; fill: none;"/></g><text class="computeSig_label label" text-anchor="end" dx="-5" dy="0.5rem" fill="black" width="200" transform="translate(-180,352.5)">9</text></g><g class="node computeNode h10 statics" transform="translate(210,0)" style="pointer-events: auto;"><g class="computeSig" stroke="black" style="stroke-width: 2;"><path class="linegg timeline hgroup_3" d="M-180,127.5C-173.33333333333334,127.5,-166.66666666666666,127.5,-160,127.5C-153.33333333333334,127.5,-146.66666666666666,127.5,-140,127.5C-133.33333333333334,127.5,-126.66666666666667,127.5,-120,127.5C-113.33333333333333,127.5,-106.66666666666667,127.5,-100,127.5C-93.33333333333333,127.5,-86.66666666666667,127.5,-80,127.5C-73.33333333333333,127.5,-66.66666666666667,127.5,-60,127.5C-53.333333333333336,127.5,-46.666666666666664,127.5,-40,127.5C-33.333333333333336,127.5,-26.666666666666668,127.5,-20,127.5C-13.333333333333332,127.5,-6.666666666666667,127.5,0,127.5" style="stroke: rgb(44, 160, 44); stroke-width: 2; fill: none;"/></g><text class="computeSig_label label" text-anchor="end" dx="-5" dy="0.5rem" fill="black" width="200" transform="translate(-180,127.5)">10</text></g><g class="node computeNode h11 statics" transform="translate(210,0)" style="pointer-events: auto;"><g class="computeSig" stroke="black" style="stroke-width: 2;"><path class="linegg timeline hgroup_5" d="M-180,30C-173.33333333333334,30,-166.66666666666666,30,-160,30C-153.33333333333334,30,-146.66666666666666,30,-140,30C-136.66666666666666,29.999999999999996,-133.33333333333334,29.999999999999996,-130,29.999999999999996C-126.66666666666667,29.999999999999996,-123.33333333333333,67.5,-120,105" style="stroke: rgb(148, 103, 189); stroke-width: 2; fill: none;"/><path class="linegg timeline hgroup_3" d="M-120,105C-113.33333333333333,105,-106.66666666666667,105,-100,105C-93.33333333333333,105,-86.66666666666667,105,-80,105C-73.33333333333333,105,-66.66666666666667,105,-60,105C-53.333333333333336,105,-46.666666666666664,105,-40,105C-33.333333333333336,105,-26.666666666666668,105,-20,105C-13.333333333333332,105,-6.666666666666667,105,0,105" style="stroke: rgb(44, 160, 44); stroke-width: 2; fill: none;"/></g><text class="computeSig_label label" text-anchor="end" dx="-5" dy="0.5rem" fill="black" width="200" transform="translate(-180,29.999999999999996)">11</text></g><g class="node computeNode h12 statics" transform="translate(210,0)" style="pointer-events: auto;"><g class="computeSig" stroke="black" style="stroke-width: 2;"><path class="linegg timeline hgroup_4" d="M-180,525C-173.33333333333334,525,-166.66666666666666,525,-160,525C-153.33333333333334,525,-146.66666666666666,525,-140,525C-136.66666666666666,525,-133.33333333333334,525,-130,525C-126.66666666666667,525,-123.33333333333333,465,-120,404.99999999999994" style="stroke: rgb(214, 39, 40); stroke-width: 2; fill: none;"/><path class="linegg timeline hgroup_2" d="M-120,404.99999999999994C-113.33333333333333,404.99999999999994,-106.66666666666667,404.99999999999994,-100,404.99999999999994C-93.33333333333333,404.99999999999994,-86.66666666666667,404.99999999999994,-80,404.99999999999994C-73.33333333333333,404.99999999999994,-66.66666666666667,404.99999999999994,-60,404.99999999999994C-53.333333333333336,404.99999999999994,-46.666666666666664,404.99999999999994,-40,404.99999999999994C-33.333333333333336,404.99999999999994,-26.666666666666668,404.99999999999994,-20,404.99999999999994C-13.333333333333332,404.99999999999994,-6.666666666666667,404.99999999999994,0,404.99999999999994" style="stroke: rgb(255, 127, 14); stroke-width: 2; fill: none;"/></g><text class="computeSig_label label" text-anchor="end" dx="-5" dy="0.5rem" fill="black" width="200" transform="translate(-180,525)">12</text></g><g class="node computeNode h13 statics" transform="translate(210,0)" style="pointer-events: auto;"><g class="computeSig" stroke="black" style="stroke-width: 2;"><path class="linegg timeline hgroup_5" d="M-180,22.5C-173.33333333333334,22.5,-166.66666666666666,22.5,-160,22.5C-153.33333333333334,22.5,-146.66666666666666,22.5,-140,22.5C-133.33333333333334,22.5,-126.66666666666667,22.5,-120,22.5C-113.33333333333333,22.5,-106.66666666666667,22.5,-100,22.5C-96.66666666666667,22.5,-93.33333333333333,22.5,-90,22.5C-86.66666666666667,22.5,-83.33333333333333,60,-80,97.5" style="stroke: rgb(148, 103, 189); stroke-width: 2; fill: none;"/><path class="linegg timeline hgroup_3" d="M-80,97.5C-73.33333333333333,97.5,-66.66666666666667,97.5,-60,97.5C-53.333333333333336,97.5,-46.666666666666664,97.5,-40,97.5C-33.333333333333336,97.5,-26.666666666666668,97.5,-20,97.5C-13.333333333333332,97.5,-6.666666666666667,97.5,0,97.5" style="stroke: rgb(44, 160, 44); stroke-width: 2; fill: none;"/></g><text class="computeSig_label label" text-anchor="end" dx="-5" dy="0.5rem" fill="black" width="200" transform="translate(-180,22.5)">13</text></g><g class="node computeNode h14 statics" transform="translate(210,0)" style="pointer-events: auto;"><g class="computeSig" stroke="black" style="stroke-width: 2;"><path class="linegg timeline hgroup_3" d="M-180,202.49999999999997C-173.33333333333334,202.49999999999997,-166.66666666666666,202.49999999999997,-160,202.49999999999997C-153.33333333333334,202.49999999999997,-146.66666666666666,202.49999999999997,-140,202.49999999999997C-136.66666666666666,202.49999999999997,-133.33333333333334,202.49999999999997,-130,202.49999999999997C-126.66666666666667,202.49999999999997,-123.33333333333333,258.75,-120,315" style="stroke: rgb(44, 160, 44); stroke-width: 2; fill: none;"/><path class="linegg timeline hgroup_2" d="M-120,315C-113.33333333333333,315,-106.66666666666667,315,-100,315C-93.33333333333333,315,-86.66666666666667,315,-80,315C-73.33333333333333,315,-66.66666666666667,315,-60,315C-53.333333333333336,315,-46.666666666666664,315,-40,315C-33.333333333333336,315,-26.666666666666668,315,-20,315C-13.333333333333332,315,-6.666666666666667,315,0,315" style="stroke: rgb(255, 127, 14); stroke-width: 2; fill: none;"/></g><text class="computeSig_label label" text-anchor="end" dx="-5" dy="0.5rem" fill="black" width="200" transform="translate(-180,202.49999999999997)">14</text></g><g class="node computeNode h15 statics" transform="translate(210,0)" style="pointer-events: auto;"><g class="computeSig" stroke="black" style="stroke-width: 2;"><path class="linegg timeline hgroup_2" d="M-180,285C-173.33333333333334,285,-166.66666666666666,285,-160,285C-153.33333333333334,285,-146.66666666666666,285,-140,285C-136.66666666666666,285,-133.33333333333334,285,-130,285C-126.66666666666667,285,-123.33333333333333,165,-120,45" style="stroke: rgb(255, 127, 14); stroke-width: 2; fill: none;"/><path class="linegg timeline hgroup_5" d="M-120,45C-113.33333333333333,45,-106.66666666666667,45,-100,45C-93.33333333333333,45,-86.66666666666667,45,-80,45C-73.33333333333333,45,-66.66666666666667,45,-60,45C-53.333333333333336,45,-46.666666666666664,45,-40,45C-36.666666666666664,45,-33.333333333333336,45,-30,45C-26.666666666666668,45,-23.333333333333332,348.75,-20,652.5" style="stroke: rgb(148, 103, 189); stroke-width: 2; fill: none;"/><path class="linegg timeline hgroup_1" d="M-20,652.5L0,652.5" style="stroke: rgb(31, 119, 180); stroke-width: 2; fill: none;"/></g><text class="computeSig_label label" text-anchor="end" dx="-5" dy="0.5rem" fill="black" width="200" transform="translate(-180,285)">15</text></g><g class="node computeNode h16 statics" transform="translate(210,0)" style="pointer-events: auto;"><g class="computeSig" stroke="black" style="stroke-width: 2;"><path class="linegg timeline hgroup_2" d="M-180,360C-173.33333333333334,360,-166.66666666666666,360,-160,360C-153.33333333333334,360,-146.66666666666666,360,-140,360C-133.33333333333334,360,-126.66666666666667,360,-120,360C-113.33333333333333,360,-106.66666666666667,360,-100,360C-93.33333333333333,360,-86.66666666666667,360,-80,360C-73.33333333333333,360,-66.66666666666667,360,-60,360C-53.333333333333336,360,-46.666666666666664,360,-40,360C-33.333333333333336,360,-26.666666666666668,360,-20,360C-13.333333333333332,360,-6.666666666666667,360,0,360" style="stroke: rgb(255, 127, 14); stroke-width: 2; fill: none;"/></g><text class="computeSig_label label" text-anchor="end" dx="-5" dy="0.5rem" fill="black" width="200" transform="translate(-180,360)">16</text></g><g class="node computeNode h17 statics" transform="translate(210,0)" style="pointer-events: auto;"><g class="computeSig" stroke="black" style="stroke-width: 2;"><path class="linegg timeline hgroup_4" d="M-180,495C-173.33333333333334,495,-166.66666666666666,495,-160,495C-156.66666666666666,495,-153.33333333333334,495,-150,495C-146.66666666666666,495,-143.33333333333334,330,-140,165" style="stroke: rgb(214, 39, 40); stroke-width: 2; fill: none;"/><path class="linegg timeline hgroup_3" d="M-140,165C-133.33333333333334,165,-126.66666666666667,165,-120,165C-113.33333333333333,165,-106.66666666666667,165,-100,165C-93.33333333333333,165,-86.66666666666667,165,-80,165C-73.33333333333333,165,-66.66666666666667,165,-60,165C-53.333333333333336,165,-46.666666666666664,165,-40,165C-33.333333333333336,165,-26.666666666666668,165,-20,165C-13.333333333333332,165,-6.666666666666667,165,0,165" style="stroke: rgb(44, 160, 44); stroke-width: 2; fill: none;"/></g><text class="computeSig_label label" text-anchor="end" dx="-5" dy="0.5rem" fill="black" width="200" transform="translate(-180,495)">17</text></g><g class="node computeNode h18 statics" transform="translate(210,0)" style="pointer-events: auto;"><g class="computeSig" stroke="black" style="stroke-width: 2;"><path class="linegg timeline hgroup_2" d="M-180,367.5C-173.33333333333334,367.5,-166.66666666666666,367.5,-160,367.5C-153.33333333333334,367.5,-146.66666666666666,367.5,-140,367.5C-133.33333333333334,367.5,-126.66666666666667,367.5,-120,367.5C-113.33333333333333,367.5,-106.66666666666667,367.5,-100,367.5C-93.33333333333333,367.5,-86.66666666666667,367.5,-80,367.5C-73.33333333333333,367.5,-66.66666666666667,367.5,-60,367.5C-53.333333333333336,367.5,-46.666666666666664,367.5,-40,367.5C-33.333333333333336,367.5,-26.666666666666668,367.5,-20,367.5C-13.333333333333332,367.5,-6.666666666666667,367.5,0,367.5" style="stroke: rgb(255, 127, 14); stroke-width: 2; fill: none;"/></g><text class="computeSig_label label" text-anchor="end" dx="-5" dy="0.5rem" fill="black" width="200" transform="translate(-180,367.5)">18</text></g><g class="node computeNode h19 statics" transform="translate(210,0)" style="pointer-events: auto;"><g class="computeSig" stroke="black" style="stroke-width: 2;"><path class="linegg timeline hgroup_2" d="M-180,457.5C-173.33333333333334,457.5,-166.66666666666666,457.5,-160,457.5C-156.66666666666666,457.5,-153.33333333333334,457.5,-150,457.5C-146.66666666666666,457.5,-143.33333333333334,517.5,-140,577.5" style="stroke: rgb(255, 127, 14); stroke-width: 2; fill: none;"/><path class="linegg timeline hgroup_4" d="M-140,577.5C-133.33333333333334,577.5,-126.66666666666667,577.5,-120,577.5C-113.33333333333333,577.5,-106.66666666666667,577.5,-100,577.5C-93.33333333333333,577.5,-86.66666666666667,577.5,-80,577.5C-73.33333333333333,577.5,-66.66666666666667,577.5,-60,577.5C-53.333333333333336,577.5,-46.666666666666664,577.5,-40,577.5C-33.333333333333336,577.5,-26.666666666666668,577.5,-20,577.5C-13.333333333333332,577.5,-6.666666666666667,577.5,0,577.5" style="stroke: rgb(214, 39, 40); stroke-width: 2; fill: none;"/></g><text class="computeSig_label label" text-anchor="end" dx="-5" dy="0.5rem" fill="black" width="200" transform="translate(-180,457.5)">19</text></g><g class="node computeNode h20 statics" transform="translate(210,0)" style="pointer-events: auto;"><g class="computeSig" stroke="black" style="stroke-width: 2;"><path class="linegg timeline hgroup_2" d="M-180,442.5C-173.33333333333334,442.5,-166.66666666666666,442.5,-160,442.5C-153.33333333333334,442.5,-146.66666666666666,442.5,-140,442.5C-136.66666666666666,442.5,-133.33333333333334,442.5,-130,442.5C-126.66666666666667,442.5,-123.33333333333333,502.5,-120,562.5" style="stroke: rgb(255, 127, 14); stroke-width: 2; fill: none;"/><path class="linegg timeline hgroup_4" d="M-120,562.5C-116.66666666666667,562.5,-113.33333333333333,562.5,-110,562.5C-106.66666666666667,562.5,-103.33333333333333,315,-100,67.5" style="stroke: rgb(214, 39, 40); stroke-width: 2;"/><path class="linegg timeline hgroup_5" d="M-100,67.5C-96.66666666666667,67.5,-93.33333333333333,67.5,-90,67.5C-86.66666666666667,67.5,-83.33333333333333,382.5,-80,697.5" style="stroke: rgb(148, 103, 189); stroke-width: 2;"/><path class="linegg timeline hgroup_1" d="M-80,697.5C-73.33333333333333,697.5,-66.66666666666667,697.5,-60,697.5C-53.333333333333336,697.5,-46.666666666666664,697.5,-40,697.5C-36.666666666666664,697.5,-33.333333333333336,697.5,-30,697.5C-26.666666666666668,697.5,-23.333333333333332,570,-20,442.5" style="stroke: rgb(31, 119, 180); stroke-width: 2; fill: none;"/><path class="linegg timeline hgroup_2" d="M-20,442.5L0,442.5" style="stroke: rgb(255, 127, 14); stroke-width: 2; fill: none;"/></g><text class="computeSig_label label" text-anchor="end" dx="-5" dy="0.5rem" fill="black" width="200" transform="translate(-180,442.5)">20</text></g><g class="node computeNode h21 statics" transform="translate(210,0)" style="pointer-events: auto;"><g class="computeSig" stroke="black" style="stroke-width: 2;"><path class="linegg timeline hgroup_3" d="M-180,157.5C-173.33333333333334,157.5,-166.66666666666666,157.5,-160,157.5C-153.33333333333334,157.5,-146.66666666666666,157.5,-140,157.5C-133.33333333333334,157.5,-126.66666666666667,157.5,-120,157.5C-113.33333333333333,157.5,-106.66666666666667,157.5,-100,157.5C-93.33333333333333,157.5,-86.66666666666667,157.5,-80,157.5C-73.33333333333333,157.5,-66.66666666666667,157.5,-60,157.5C-53.333333333333336,157.5,-46.666666666666664,157.5,-40,157.5C-36.666666666666664,157.5,-33.333333333333336,157.5,-30,157.5C-26.666666666666668,157.5,-23.333333333333332,217.5,-20,277.5" style="stroke: rgb(44, 160, 44); stroke-width: 2; fill: none;"/><path class="linegg timeline hgroup_2" d="M-20,277.5L0,277.5" style="stroke: rgb(255, 127, 14); stroke-width: 2; fill: none;"/></g><text class="computeSig_label label" text-anchor="end" dx="-5" dy="0.5rem" fill="black" width="200" transform="translate(-180,157.5)">21</text></g><g class="node computeNode h22 statics" transform="translate(210,0)" style="pointer-events: auto;"><g class="computeSig" stroke="black" style="stroke-width: 2;"><path class="linegg timeline hgroup_5" d="M-180,7.5C-173.33333333333334,7.5,-166.66666666666666,7.5,-160,7.5C-153.33333333333334,7.5,-146.66666666666666,7.5,-140,7.5C-133.33333333333334,7.5,-126.66666666666667,7.5,-120,7.5C-113.33333333333333,7.5,-106.66666666666667,7.5,-100,7.5C-93.33333333333333,7.5,-86.66666666666667,7.5,-80,7.5C-73.33333333333333,7.5,-66.66666666666667,7.5,-60,7.5C-53.333333333333336,7.5,-46.666666666666664,7.5,-40,7.5C-33.333333333333336,7.5,-26.666666666666668,7.5,-20,7.5C-13.333333333333332,7.5,-6.666666666666667,7.5,0,7.5" style="stroke: rgb(148, 103, 189); stroke-width: 2; fill: none;"/></g><text class="computeSig_label label" text-anchor="end" dx="-5" dy="0.5rem" fill="black" width="200" transform="translate(-180,7.499999999999999)">22</text></g><g class="node computeNode h23 statics" transform="translate(210,0)" style="pointer-events: auto;"><g class="computeSig" stroke="black" style="stroke-width: 2;"><path class="linegg timeline hgroup_4" d="M-180,585C-173.33333333333334,585,-166.66666666666666,585,-160,585C-153.33333333333334,585,-146.66666666666666,585,-140,585C-133.33333333333334,585,-126.66666666666667,585,-120,585C-113.33333333333333,585,-106.66666666666667,585,-100,585C-93.33333333333333,585,-86.66666666666667,585,-80,585C-73.33333333333333,585,-66.66666666666667,585,-60,585C-53.333333333333336,585,-46.666666666666664,585,-40,585C-33.333333333333336,585,-26.666666666666668,585,-20,585C-13.333333333333332,585,-6.666666666666667,585,0,585" style="stroke: rgb(214, 39, 40); stroke-width: 2; fill: none;"/></g><text class="computeSig_label label" text-anchor="end" dx="-5" dy="0.5rem" fill="black" width="200" transform="translate(-180,585)">23</text></g><g class="node computeNode h24 statics" transform="translate(210,0)" style="pointer-events: auto;"><g class="computeSig" stroke="black" style="stroke-width: 2;"><path class="linegg timeline hgroup_3" d="M-180,112.5C-176.66666666666666,112.5,-173.33333333333334,112.5,-170,112.5C-166.66666666666666,112.5,-163.33333333333334,300,-160,487.49999999999994" style="stroke: rgb(44, 160, 44); stroke-width: 2;"/><path class="linegg timeline hgroup_4" d="M-160,487.49999999999994C-153.33333333333334,487.49999999999994,-146.66666666666666,487.49999999999994,-140,487.49999999999994C-136.66666666666666,487.49999999999994,-133.33333333333334,487.49999999999994,-130,487.49999999999994C-126.66666666666667,487.49999999999994,-123.33333333333333,262.5,-120,37.5" style="stroke: rgb(214, 39, 40); stroke-width: 2; fill: none;"/><path class="linegg timeline hgroup_5" d="M-120,37.5C-113.33333333333333,37.5,-106.66666666666667,37.5,-100,37.5C-93.33333333333333,37.5,-86.66666666666667,37.5,-80,37.5C-73.33333333333333,37.5,-66.66666666666667,37.5,-60,37.5C-53.333333333333336,37.5,-46.666666666666664,37.5,-40,37.5C-33.333333333333336,37.5,-26.666666666666668,37.5,-20,37.5C-13.333333333333332,37.5,-6.666666666666667,37.5,0,37.5" style="stroke: rgb(148, 103, 189); stroke-width: 2; fill: none;"/></g><text class="computeSig_label label" text-anchor="end" dx="-5" dy="0.5rem" fill="black" width="200" transform="translate(-180,112.5)">24</text></g><g class="node computeNode h25 statics" transform="translate(210,0)" style="pointer-events: auto;"><g class="computeSig" stroke="black" style="stroke-width: 2;"><path class="linegg timeline hgroup_4" d="M-180,532.5C-173.33333333333334,532.5,-166.66666666666666,532.5,-160,532.5C-153.33333333333334,532.5,-146.66666666666666,532.5,-140,532.5C-136.66666666666666,532.5,-133.33333333333334,532.5,-130,532.5C-126.66666666666667,532.5,-123.33333333333333,472.5,-120,412.49999999999994" style="stroke: rgb(214, 39, 40); stroke-width: 2; fill: none;"/><path class="linegg timeline hgroup_2" d="M-120,412.49999999999994C-113.33333333333333,412.49999999999994,-106.66666666666667,412.49999999999994,-100,412.49999999999994C-93.33333333333333,412.49999999999994,-86.66666666666667,412.49999999999994,-80,412.49999999999994C-73.33333333333333,412.49999999999994,-66.66666666666667,412.49999999999994,-60,412.49999999999994C-53.333333333333336,412.49999999999994,-46.666666666666664,412.49999999999994,-40,412.49999999999994C-33.333333333333336,412.49999999999994,-26.666666666666668,412.49999999999994,-20,412.49999999999994C-13.333333333333332,412.49999999999994,-6.666666666666667,412.49999999999994,0,412.49999999999994" style="stroke: rgb(255, 127, 14); stroke-width: 2; fill: none;"/></g><text class="computeSig_label label" text-anchor="end" dx="-5" dy="0.5rem" fill="black" width="200" transform="translate(-180,532.5)">25</text></g><g class="node computeNode h26 statics" transform="translate(210,0)" style="pointer-events: auto;"><g class="computeSig" stroke="black" style="stroke-width: 2;"><path class="linegg timeline hgroup_2" d="M-180,465C-176.66666666666666,465,-173.33333333333334,465,-170,465C-166.66666666666666,465,-163.33333333333334,363.75,-160,262.5" style="stroke: rgb(255, 127, 14); stroke-width: 2;"/><path class="linegg timeline hgroup_3" d="M-160,262.5C-153.33333333333334,262.5,-146.66666666666666,262.5,-140,262.5C-136.66666666666666,262.5,-133.33333333333334,262.5,-130,262.5C-126.66666666666667,262.5,-123.33333333333333,487.5,-120,712.5" style="stroke: rgb(44, 160, 44); stroke-width: 2; fill: none;"/><path class="linegg timeline hgroup_1" d="M-120,712.5C-113.33333333333333,712.5,-106.66666666666667,712.5,-100,712.5C-93.33333333333333,712.5,-86.66666666666667,712.5,-80,712.5C-73.33333333333333,712.5,-66.66666666666667,712.5,-60,712.5C-53.333333333333336,712.5,-46.666666666666664,712.5,-40,712.5C-33.333333333333336,712.5,-26.666666666666668,712.5,-20,712.5C-13.333333333333332,712.5,-6.666666666666667,712.5,0,712.5" style="stroke: rgb(31, 119, 180); stroke-width: 2; fill: none;"/></g><text class="computeSig_label label" text-anchor="end" dx="-5" dy="0.5rem" fill="black" width="200" transform="translate(-180,465)">26</text></g><g class="node computeNode h27 statics" transform="translate(210,0)" style="pointer-events: auto;"><g class="computeSig" stroke="black" style="stroke-width: 2;"><path class="linegg timeline hgroup_3" d="M-180,135C-173.33333333333334,135,-166.66666666666666,135,-160,135C-153.33333333333334,135,-146.66666666666666,135,-140,135C-133.33333333333334,135,-126.66666666666667,135,-120,135C-113.33333333333333,135,-106.66666666666667,135,-100,135C-93.33333333333333,135,-86.66666666666667,135,-80,135C-73.33333333333333,135,-66.66666666666667,135,-60,135C-53.333333333333336,135,-46.666666666666664,135,-40,135C-33.333333333333336,135,-26.666666666666668,135,-20,135C-13.333333333333332,135,-6.666666666666667,135,0,135" style="stroke: rgb(44, 160, 44); stroke-width: 2; fill: none;"/></g><text class="computeSig_label label" text-anchor="end" dx="-5" dy="0.5rem" fill="black" width="200" transform="translate(-180,135)">27</text></g><g class="node computeNode h28 statics" transform="translate(210,0)" style="pointer-events: auto;"><g class="computeSig" stroke="black" style="stroke-width: 2;"><path class="linegg timeline hgroup_2" d="M-180,450C-176.66666666666666,450,-173.33333333333334,450,-170,450C-166.66666666666666,450,-163.33333333333334,510,-160,570" style="stroke: rgb(255, 127, 14); stroke-width: 2;"/><path class="linegg timeline hgroup_4" d="M-160,570C-153.33333333333334,570,-146.66666666666666,570,-140,570C-133.33333333333334,570,-126.66666666666667,570,-120,570C-113.33333333333333,570,-106.66666666666667,570,-100,570C-93.33333333333333,570,-86.66666666666667,570,-80,570C-73.33333333333333,570,-66.66666666666667,570,-60,570C-53.333333333333336,570,-46.666666666666664,570,-40,570C-33.333333333333336,570,-26.666666666666668,570,-20,570C-16.666666666666668,570,-13.333333333333334,570,-10,570C-6.666666666666666,570,-3.3333333333333335,408.75,0,247.5" style="stroke: rgb(214, 39, 40); stroke-width: 2; fill: none;"/><path class="linegg timeline hgroup_3" d="M0,247.5Z" style="stroke: rgb(44, 160, 44); stroke-width: 2;"/></g><text class="computeSig_label label" text-anchor="end" dx="-5" dy="0.5rem" fill="black" width="200" transform="translate(-180,450)">28</text></g><g class="node computeNode h29 statics" transform="translate(210,0)" style="pointer-events: auto;"><g class="computeSig" stroke="black" style="stroke-width: 2;"><path class="linegg timeline hgroup_3" d="M-180,217.5C-173.33333333333334,217.5,-166.66666666666666,217.5,-160,217.5C-153.33333333333334,217.5,-146.66666666666666,217.5,-140,217.5C-136.66666666666666,217.5,-133.33333333333334,217.5,-130,217.5C-126.66666666666667,217.5,-123.33333333333333,270,-120,322.5" style="stroke: rgb(44, 160, 44); stroke-width: 2; fill: none;"/><path class="linegg timeline hgroup_2" d="M-120,322.5C-113.33333333333333,322.5,-106.66666666666667,322.5,-100,322.5C-93.33333333333333,322.5,-86.66666666666667,322.5,-80,322.5C-76.66666666666667,322.5,-73.33333333333333,322.5,-70,322.5C-66.66666666666667,322.5,-63.333333333333336,270,-60,217.5" style="stroke: rgb(255, 127, 14); stroke-width: 2; fill: none;"/><path class="linegg timeline hgroup_3" d="M-60,217.5C-53.333333333333336,217.5,-46.666666666666664,217.5,-40,217.5C-36.666666666666664,217.5,-33.333333333333336,217.5,-30,217.5C-26.666666666666668,217.5,-23.333333333333332,442.5,-20,667.5" style="stroke: rgb(44, 160, 44); stroke-width: 2; fill: none;"/><path class="linegg timeline hgroup_1" d="M-20,667.5L0,667.5" style="stroke: rgb(31, 119, 180); stroke-width: 2; fill: none;"/></g><text class="computeSig_label label" text-anchor="end" dx="-5" dy="0.5rem" fill="black" width="200" transform="translate(-180,217.5)">29</text></g><g class="node computeNode h30 statics" transform="translate(210,0)" style="pointer-events: auto;"><g class="computeSig" stroke="black" style="stroke-width: 2;"><path class="linegg timeline hgroup_4" d="M-180,502.5C-173.33333333333334,502.5,-166.66666666666666,502.5,-160,502.5C-153.33333333333334,502.5,-146.66666666666666,502.5,-140,502.5C-136.66666666666666,502.5,-133.33333333333334,502.5,-130,502.5C-126.66666666666667,502.5,-123.33333333333333,341.25,-120,180" style="stroke: rgb(214, 39, 40); stroke-width: 2; fill: none;"/><path class="linegg timeline hgroup_3" d="M-120,180C-113.33333333333333,180,-106.66666666666667,180,-100,180C-93.33333333333333,180,-86.66666666666667,180,-80,180C-73.33333333333333,180,-66.66666666666667,180,-60,180C-53.333333333333336,180,-46.666666666666664,180,-40,180C-33.333333333333336,180,-26.666666666666668,180,-20,180C-13.333333333333332,180,-6.666666666666667,180,0,180" style="stroke: rgb(44, 160, 44); stroke-width: 2; fill: none;"/></g><text class="computeSig_label label" text-anchor="end" dx="-5" dy="0.5rem" fill="black" width="200" transform="translate(-180,502.5)">30</text></g><g class="node computeNode h31 statics" transform="translate(210,0)" style="pointer-events: auto;"><g class="computeSig" stroke="black" style="stroke-width: 2;"><path class="linegg timeline hgroup_3" d="M-180,142.5C-173.33333333333334,142.5,-166.66666666666666,142.5,-160,142.5C-153.33333333333334,142.5,-146.66666666666666,142.5,-140,142.5C-133.33333333333334,142.5,-126.66666666666667,142.5,-120,142.5C-113.33333333333333,142.5,-106.66666666666667,142.5,-100,142.5C-93.33333333333333,142.5,-86.66666666666667,142.5,-80,142.5C-73.33333333333333,142.5,-66.66666666666667,142.5,-60,142.5C-53.333333333333336,142.5,-46.666666666666664,142.5,-40,142.5C-33.333333333333336,142.5,-26.666666666666668,142.5,-20,142.5C-13.333333333333332,142.5,-6.666666666666667,142.5,0,142.5" style="stroke: rgb(44, 160, 44); stroke-width: 2; fill: none;"/></g><text class="computeSig_label label" text-anchor="end" dx="-5" dy="0.5rem" fill="black" width="200" transform="translate(-180,142.5)">31</text></g><g class="node computeNode h32 statics" transform="translate(210,0)" style="pointer-events: auto;"><g class="computeSig" stroke="black" style="stroke-width: 2;"><path class="linegg timeline hgroup_4" d="M-180,592.5C-173.33333333333334,592.5,-166.66666666666666,592.5,-160,592.5C-153.33333333333334,592.5,-146.66666666666666,592.5,-140,592.5C-133.33333333333334,592.5,-126.66666666666667,592.5,-120,592.5C-113.33333333333333,592.5,-106.66666666666667,592.5,-100,592.5C-93.33333333333333,592.5,-86.66666666666667,592.5,-80,592.5C-73.33333333333333,592.5,-66.66666666666667,592.5,-60,592.5C-53.333333333333336,592.5,-46.666666666666664,592.5,-40,592.5C-33.333333333333336,592.5,-26.666666666666668,592.5,-20,592.5C-13.333333333333332,592.5,-6.666666666666667,592.5,0,592.5" style="stroke: rgb(214, 39, 40); stroke-width: 2; fill: none;"/></g><text class="computeSig_label label" text-anchor="end" dx="-5" dy="0.5rem" fill="black" width="200" transform="translate(-180,592.5)">32</text></g><g class="node computeNode h33 statics" transform="translate(210,0)" style="pointer-events: auto;"><g class="computeSig" stroke="black" style="stroke-width: 2;"><path class="linegg timeline hgroup_3" d="M-180,90C-173.33333333333334,90,-166.66666666666666,90,-160,90C-156.66666666666666,90,-153.33333333333334,90,-150,90C-146.66666666666666,90,-143.33333333333334,52.5,-140,14.999999999999998" style="stroke: rgb(44, 160, 44); stroke-width: 2; fill: none;"/><path class="linegg timeline hgroup_5" d="M-140,15C-133.33333333333334,15,-126.66666666666667,15,-120,15C-113.33333333333333,15,-106.66666666666667,15,-100,15C-93.33333333333333,15,-86.66666666666667,15,-80,15C-73.33333333333333,15,-66.66666666666667,15,-60,15C-53.333333333333336,15,-46.666666666666664,15,-40,15C-33.333333333333336,15,-26.666666666666668,15,-20,15C-13.333333333333332,15,-6.666666666666667,15,0,15" style="stroke: rgb(148, 103, 189); stroke-width: 2; fill: none;"/></g><text class="computeSig_label label" text-anchor="end" dx="-5" dy="0.5rem" fill="black" width="200" transform="translate(-180,90)">33</text></g><g class="node computeNode h34 statics" transform="translate(210,0)" style="pointer-events: auto;"><g class="computeSig" stroke="black" style="stroke-width: 2;"><path class="linegg timeline hgroup_1" d="M-180,727.5C-173.33333333333334,727.5,-166.66666666666666,727.5,-160,727.5C-153.33333333333334,727.5,-146.66666666666666,727.5,-140,727.5C-133.33333333333334,727.5,-126.66666666666667,727.5,-120,727.5C-113.33333333333333,727.5,-106.66666666666667,727.5,-100,727.5C-93.33333333333333,727.5,-86.66666666666667,727.5,-80,727.5C-73.33333333333333,727.5,-66.66666666666667,727.5,-60,727.5C-53.333333333333336,727.5,-46.666666666666664,727.5,-40,727.5C-36.666666666666664,727.5,-33.333333333333336,727.5,-30,727.5C-26.666666666666668,727.5,-23.333333333333332,682.5,-20,637.5" style="stroke: rgb(31, 119, 180); stroke-width: 2; fill: none;"/><path class="linegg timeline hgroup_4" d="M-20,637.5L0,637.5" style="stroke: rgb(214, 39, 40); stroke-width: 2; fill: none;"/></g><text class="computeSig_label label" text-anchor="end" dx="-5" dy="0.5rem" fill="black" width="200" transform="translate(-180,727.5)">34</text></g><g class="node computeNode h35 statics" transform="translate(210,0)" style="pointer-events: auto;"><g class="computeSig" stroke="black" style="stroke-width: 2;"><path class="linegg timeline hgroup_2" d="M-180,330C-173.33333333333334,330,-166.66666666666666,330,-160,330C-153.33333333333334,330,-146.66666666666666,330,-140,330C-133.33333333333334,330,-126.66666666666667,330,-120,330C-113.33333333333333,330,-106.66666666666667,330,-100,330C-93.33333333333333,330,-86.66666666666667,330,-80,330C-73.33333333333333,330,-66.66666666666667,330,-60,330C-53.333333333333336,330,-46.666666666666664,330,-40,330C-33.333333333333336,330,-26.666666666666668,330,-20,330C-16.666666666666668,330,-13.333333333333334,330,-10,330C-6.666666666666666,330,-3.3333333333333335,277.5,0,225" style="stroke: rgb(255, 127, 14); stroke-width: 2; fill: none;"/><path class="linegg timeline hgroup_3" d="M0,225Z" style="stroke: rgb(44, 160, 44); stroke-width: 2;"/></g><text class="computeSig_label label" text-anchor="end" dx="-5" dy="0.5rem" fill="black" width="200" transform="translate(-180,330)">35</text></g><g class="node computeNode h36 statics" transform="translate(210,0)" style="pointer-events: auto;"><g class="computeSig" stroke="black" style="stroke-width: 2;"><path class="linegg timeline hgroup_1" d="M-180,705C-173.33333333333334,705,-166.66666666666666,705,-160,705C-153.33333333333334,705,-146.66666666666666,705,-140,705C-133.33333333333334,705,-126.66666666666667,705,-120,705C-113.33333333333333,705,-106.66666666666667,705,-100,705C-93.33333333333333,705,-86.66666666666667,705,-80,705C-73.33333333333333,705,-66.66666666666667,705,-60,705C-56.666666666666664,705,-53.333333333333336,705,-50,705C-46.666666666666664,705,-43.333333333333336,480,-40,255" style="stroke: rgb(31, 119, 180); stroke-width: 2; fill: none;"/><path class="linegg timeline hgroup_3" d="M-40,255C-33.333333333333336,255,-26.666666666666668,255,-20,255C-16.666666666666668,255,-13.333333333333334,255,-10,255C-6.666666666666666,255,-3.3333333333333335,165,0,75" style="stroke: rgb(44, 160, 44); stroke-width: 2; fill: none;"/><path class="linegg timeline hgroup_5" d="M0,75Z" style="stroke: rgb(148, 103, 189); stroke-width: 2;"/></g><text class="computeSig_label label" text-anchor="end" dx="-5" dy="0.5rem" fill="black" width="200" transform="translate(-180,705)">36</text></g><g class="node computeNode h37 statics" transform="translate(210,0)" style="pointer-events: auto;"><g class="computeSig" stroke="black" style="stroke-width: 2;"><path class="linegg timeline hgroup_1" d="M-180,720C-173.33333333333334,720,-166.66666666666666,720,-160,720C-153.33333333333334,720,-146.66666666666666,720,-140,720C-133.33333333333334,720,-126.66666666666667,720,-120,720C-113.33333333333333,720,-106.66666666666667,720,-100,720C-93.33333333333333,720,-86.66666666666667,720,-80,720C-76.66666666666667,720,-73.33333333333333,720,-70,720C-66.66666666666667,720,-63.333333333333336,596.25,-60,472.50000000000006" style="stroke: rgb(31, 119, 180); stroke-width: 2; fill: none;"/><path class="linegg timeline hgroup_2" d="M-60,472.50000000000006C-53.333333333333336,472.50000000000006,-46.666666666666664,472.50000000000006,-40,472.50000000000006C-33.333333333333336,472.50000000000006,-26.666666666666668,472.50000000000006,-20,472.50000000000006C-16.666666666666668,472.50000000000006,-13.333333333333334,472.50000000000006,-10,472.50000000000006C-6.666666666666666,472.50000000000006,-3.3333333333333335,551.25,0,630" style="stroke: rgb(255, 127, 14); stroke-width: 2; fill: none;"/><path class="linegg timeline hgroup_4" d="M0,630Z" style="stroke: rgb(214, 39, 40); stroke-width: 2;"/></g><text class="computeSig_label label" text-anchor="end" dx="-5" dy="0.5rem" fill="black" width="200" transform="translate(-180,720)">37</text></g><g class="node computeNode h38 statics" transform="translate(210,0)" style="pointer-events: auto;"><g class="computeSig" stroke="black" style="stroke-width: 2;"><path class="linegg timeline hgroup_4" d="M-180,600C-173.33333333333334,600,-166.66666666666666,600,-160,600C-153.33333333333334,600,-146.66666666666666,600,-140,600C-133.33333333333334,600,-126.66666666666667,600,-120,600C-113.33333333333333,600,-106.66666666666667,600,-100,600C-93.33333333333333,600,-86.66666666666667,600,-80,600C-73.33333333333333,600,-66.66666666666667,600,-60,600C-53.333333333333336,600,-46.666666666666664,600,-40,600C-33.333333333333336,600,-26.666666666666668,600,-20,600C-13.333333333333332,600,-6.666666666666667,600,0,600" style="stroke: rgb(214, 39, 40); stroke-width: 2; fill: none;"/></g><text class="computeSig_label label" text-anchor="end" dx="-5" dy="0.5rem" fill="black" width="200" transform="translate(-180,600)">38</text></g><g class="node computeNode h39 statics" transform="translate(210,0)" style="pointer-events: auto;"><g class="computeSig" stroke="black" style="stroke-width: 2;"><path class="linegg timeline hgroup_3" d="M-180,150C-173.33333333333334,150,-166.66666666666666,150,-160,150C-153.33333333333334,150,-146.66666666666666,150,-140,150C-133.33333333333334,150,-126.66666666666667,150,-120,150C-113.33333333333333,150,-106.66666666666667,150,-100,150C-93.33333333333333,150,-86.66666666666667,150,-80,150C-73.33333333333333,150,-66.66666666666667,150,-60,150C-53.333333333333336,150,-46.666666666666664,150,-40,150C-33.333333333333336,150,-26.666666666666668,150,-20,150C-13.333333333333332,150,-6.666666666666667,150,0,150" style="stroke: rgb(44, 160, 44); stroke-width: 2; fill: none;"/></g><text class="computeSig_label label" text-anchor="end" dx="-5" dy="0.5rem" fill="black" width="200" transform="translate(-180,150)">39</text></g><g class="node computeNode h40 statics" transform="translate(210,0)" style="pointer-events: auto;"><g class="computeSig" stroke="black" style="stroke-width: 2;"><path class="linegg timeline hgroup_2" d="M-180,337.5C-173.33333333333334,337.5,-166.66666666666666,337.5,-160,337.5C-153.33333333333334,337.5,-146.66666666666666,337.5,-140,337.5C-133.33333333333334,337.5,-126.66666666666667,337.5,-120,337.5C-113.33333333333333,337.5,-106.66666666666667,337.5,-100,337.5C-93.33333333333333,337.5,-86.66666666666667,337.5,-80,337.5C-73.33333333333333,337.5,-66.66666666666667,337.5,-60,337.5C-53.333333333333336,337.5,-46.666666666666664,337.5,-40,337.5C-33.333333333333336,337.5,-26.666666666666668,337.5,-20,337.5C-16.666666666666668,337.5,-13.333333333333334,337.5,-10,337.5C-6.666666666666666,337.5,-3.3333333333333335,285,0,232.5" style="stroke: rgb(255, 127, 14); stroke-width: 2; fill: none;"/><path class="linegg timeline hgroup_3" d="M0,232.5Z" style="stroke: rgb(44, 160, 44); stroke-width: 2;"/></g><text class="computeSig_label label" text-anchor="end" dx="-5" dy="0.5rem" fill="black" width="200" transform="translate(-180,337.5)">40</text></g><g class="node computeNode h41 statics" transform="translate(210,0)" style="pointer-events: auto;"><g class="computeSig" stroke="black" style="stroke-width: 2;"><path class="linegg timeline hgroup_2" d="M-180,420C-173.33333333333334,420,-166.66666666666666,420,-160,420C-153.33333333333334,420,-146.66666666666666,420,-140,420C-136.66666666666666,420,-133.33333333333334,420,-130,420C-126.66666666666667,420,-123.33333333333333,555,-120,690" style="stroke: rgb(255, 127, 14); stroke-width: 2; fill: none;"/><path class="linegg timeline hgroup_1" d="M-120,690C-113.33333333333333,690,-106.66666666666667,690,-100,690C-96.66666666666667,690,-93.33333333333333,690,-90,690C-86.66666666666667,690,-83.33333333333333,465,-80,239.99999999999997" style="stroke: rgb(31, 119, 180); stroke-width: 2; fill: none;"/><path class="linegg timeline hgroup_3" d="M-80,239.99999999999997C-76.66666666666667,239.99999999999997,-73.33333333333333,239.99999999999997,-70,239.99999999999997C-66.66666666666667,239.99999999999997,-63.333333333333336,390,-60,540" style="stroke: rgb(44, 160, 44); stroke-width: 2;"/><path class="linegg timeline hgroup_4" d="M-60,540C-53.333333333333336,540,-46.666666666666664,540,-40,540C-36.666666666666664,540,-33.333333333333336,540,-30,540C-26.666666666666668,540,-23.333333333333332,390,-20,239.99999999999997" style="stroke: rgb(214, 39, 40); stroke-width: 2; fill: none;"/><path class="linegg timeline hgroup_3" d="M-20,240L0,240" style="stroke: rgb(44, 160, 44); stroke-width: 2; fill: none;"/></g><text class="computeSig_label label" text-anchor="end" dx="-5" dy="0.5rem" fill="black" width="200" transform="translate(-180,420)">41</text></g><g class="node computeNode h42 statics" transform="translate(210,0)" style="pointer-events: auto;"><g class="computeSig" stroke="black" style="stroke-width: 2;"><path class="linegg timeline hgroup_2" d="M-180,375C-173.33333333333334,375,-166.66666666666666,375,-160,375C-153.33333333333334,375,-146.66666666666666,375,-140,375C-133.33333333333334,375,-126.66666666666667,375,-120,375C-113.33333333333333,375,-106.66666666666667,375,-100,375C-93.33333333333333,375,-86.66666666666667,375,-80,375C-73.33333333333333,375,-66.66666666666667,375,-60,375C-53.333333333333336,375,-46.666666666666664,375,-40,375C-33.333333333333336,375,-26.666666666666668,375,-20,375C-13.333333333333332,375,-6.666666666666667,375,0,375" style="stroke: rgb(255, 127, 14); stroke-width: 2; fill: none;"/></g><text class="computeSig_label label" text-anchor="end" dx="-5" dy="0.5rem" fill="black" width="200" transform="translate(-180,375)">42</text></g><g class="node computeNode h43 statics" transform="translate(210,0)" style="pointer-events: auto;"><g class="computeSig" stroke="black" style="stroke-width: 2;"><path class="linegg timeline hgroup_2" d="M-180,427.5C-173.33333333333334,427.5,-166.66666666666666,427.5,-160,427.5C-153.33333333333334,427.5,-146.66666666666666,427.5,-140,427.5C-133.33333333333334,427.5,-126.66666666666667,427.5,-120,427.5C-113.33333333333333,427.5,-106.66666666666667,427.5,-100,427.5C-93.33333333333333,427.5,-86.66666666666667,427.5,-80,427.5C-73.33333333333333,427.5,-66.66666666666667,427.5,-60,427.5C-56.666666666666664,427.5,-53.333333333333336,427.5,-50,427.5C-46.666666666666664,427.5,-43.333333333333336,487.5,-40,547.5" style="stroke: rgb(255, 127, 14); stroke-width: 2; fill: none;"/><path class="linegg timeline hgroup_4" d="M-40,547.5C-33.333333333333336,547.5,-26.666666666666668,547.5,-20,547.5C-13.333333333333332,547.5,-6.666666666666667,547.5,0,547.5" style="stroke: rgb(214, 39, 40); stroke-width: 2; fill: none;"/></g><text class="computeSig_label label" text-anchor="end" dx="-5" dy="0.5rem" fill="black" width="200" transform="translate(-180,427.5)">43</text></g><g class="node computeNode h44 statics" transform="translate(210,0)" style="pointer-events: auto;"><g class="computeSig" stroke="black" style="stroke-width: 2;"><path class="linegg timeline hgroup_4" d="M-180,607.5C-173.33333333333334,607.5,-166.66666666666666,607.5,-160,607.5C-153.33333333333334,607.5,-146.66666666666666,607.5,-140,607.5C-133.33333333333334,607.5,-126.66666666666667,607.5,-120,607.5C-113.33333333333333,607.5,-106.66666666666667,607.5,-100,607.5C-93.33333333333333,607.5,-86.66666666666667,607.5,-80,607.5C-73.33333333333333,607.5,-66.66666666666667,607.5,-60,607.5C-53.333333333333336,607.5,-46.666666666666664,607.5,-40,607.5C-33.333333333333336,607.5,-26.666666666666668,607.5,-20,607.5C-13.333333333333332,607.5,-6.666666666666667,607.5,0,607.5" style="stroke: rgb(214, 39, 40); stroke-width: 2; fill: none;"/></g><text class="computeSig_label label" text-anchor="end" dx="-5" dy="0.5rem" fill="black" width="200" transform="translate(-180,607.5)">44</text></g><g class="node computeNode h45 statics" transform="translate(210,0)" style="pointer-events: auto;"><g class="computeSig" stroke="black" style="stroke-width: 2;"><path class="linegg timeline hgroup_4" d="M-180,615C-173.33333333333334,615,-166.66666666666666,615,-160,615C-153.33333333333334,615,-146.66666666666666,615,-140,615C-133.33333333333334,615,-126.66666666666667,615,-120,615C-113.33333333333333,615,-106.66666666666667,615,-100,615C-93.33333333333333,615,-86.66666666666667,615,-80,615C-73.33333333333333,615,-66.66666666666667,615,-60,615C-53.333333333333336,615,-46.666666666666664,615,-40,615C-33.333333333333336,615,-26.666666666666668,615,-20,615C-13.333333333333332,615,-6.666666666666667,615,0,615" style="stroke: rgb(214, 39, 40); stroke-width: 2; fill: none;"/></g><text class="computeSig_label label" text-anchor="end" dx="-5" dy="0.5rem" fill="black" width="200" transform="translate(-180,615)">45</text></g><g class="node computeNode h46 statics" transform="translate(210,0)" style="pointer-events: auto;"><g class="computeSig" stroke="black" style="stroke-width: 2;"><path class="linegg timeline hgroup_2" d="M-180,300C-173.33333333333334,300,-166.66666666666666,300,-160,300C-153.33333333333334,300,-146.66666666666666,300,-140,300C-133.33333333333334,300,-126.66666666666667,300,-120,300C-113.33333333333333,300,-106.66666666666667,300,-100,300C-93.33333333333333,300,-86.66666666666667,300,-80,300C-76.66666666666667,300,-73.33333333333333,300,-70,300C-66.66666666666667,300,-63.333333333333336,243.75,-60,187.5" style="stroke: rgb(255, 127, 14); stroke-width: 2; fill: none;"/><path class="linegg timeline hgroup_3" d="M-60,187.5C-53.333333333333336,187.5,-46.666666666666664,187.5,-40,187.5C-33.333333333333336,187.5,-26.666666666666668,187.5,-20,187.5C-13.333333333333332,187.5,-6.666666666666667,187.5,0,187.5" style="stroke: rgb(44, 160, 44); stroke-width: 2; fill: none;"/></g><text class="computeSig_label label" text-anchor="end" dx="-5" dy="0.5rem" fill="black" width="200" transform="translate(-180,300)">46</text></g><g class="node computeNode h47 statics" transform="translate(210,0)" style="pointer-events: auto;"><g class="computeSig" stroke="black" style="stroke-width: 2;"><path class="linegg timeline hgroup_2" d="M-180,382.5C-173.33333333333334,382.5,-166.66666666666666,382.5,-160,382.5C-153.33333333333334,382.5,-146.66666666666666,382.5,-140,382.5C-133.33333333333334,382.5,-126.66666666666667,382.5,-120,382.5C-113.33333333333333,382.5,-106.66666666666667,382.5,-100,382.5C-93.33333333333333,382.5,-86.66666666666667,382.5,-80,382.5C-73.33333333333333,382.5,-66.66666666666667,382.5,-60,382.5C-53.333333333333336,382.5,-46.666666666666664,382.5,-40,382.5C-33.333333333333336,382.5,-26.666666666666668,382.5,-20,382.5C-13.333333333333332,382.5,-6.666666666666667,382.5,0,382.5" style="stroke: rgb(255, 127, 14); stroke-width: 2; fill: none;"/></g><text class="computeSig_label label" text-anchor="end" dx="-5" dy="0.5rem" fill="black" width="200" transform="translate(-180,382.5)">47</text></g><g class="node computeNode h48 statics" transform="translate(210,0)" style="pointer-events: auto;"><g class="computeSig" stroke="black" style="stroke-width: 2;"><path class="linegg timeline hgroup_2" d="M-180,435C-173.33333333333334,435,-166.66666666666666,435,-160,435C-153.33333333333334,435,-146.66666666666666,435,-140,435C-133.33333333333334,435,-126.66666666666667,435,-120,435C-113.33333333333333,435,-106.66666666666667,435,-100,435C-93.33333333333333,435,-86.66666666666667,435,-80,435C-76.66666666666667,435,-73.33333333333333,435,-70,435C-66.66666666666667,435,-63.333333333333336,495,-60,555" style="stroke: rgb(255, 127, 14); stroke-width: 2; fill: none;"/><path class="linegg timeline hgroup_4" d="M-60,555C-53.333333333333336,555,-46.666666666666664,555,-40,555C-33.333333333333336,555,-26.666666666666668,555,-20,555C-13.333333333333332,555,-6.666666666666667,555,0,555" style="stroke: rgb(214, 39, 40); stroke-width: 2; fill: none;"/></g><text class="computeSig_label label" text-anchor="end" dx="-5" dy="0.5rem" fill="black" width="200" transform="translate(-180,435)">48</text></g><g class="node computeNode h49 statics" transform="translate(210,0)" style="pointer-events: auto;"><g class="computeSig" stroke="black" style="stroke-width: 2;"><path class="linegg timeline hgroup_3" d="M-180,195C-173.33333333333334,195,-166.66666666666666,195,-160,195C-153.33333333333334,195,-146.66666666666666,195,-140,195C-133.33333333333334,195,-126.66666666666667,195,-120,195C-113.33333333333333,195,-106.66666666666667,195,-100,195C-93.33333333333333,195,-86.66666666666667,195,-80,195C-76.66666666666667,195,-73.33333333333333,195,-70,195C-66.66666666666667,195,-63.333333333333336,352.5,-60,510" style="stroke: rgb(44, 160, 44); stroke-width: 2; fill: none;"/><path class="linegg timeline hgroup_4" d="M-60,510C-53.333333333333336,510,-46.666666666666664,510,-40,510C-36.666666666666664,510,-33.333333333333336,510,-30,510C-26.666666666666668,510,-23.333333333333332,408.75,-20,307.5" style="stroke: rgb(214, 39, 40); stroke-width: 2; fill: none;"/><path class="linegg timeline hgroup_2" d="M-20,307.5L0,307.5" style="stroke: rgb(255, 127, 14); stroke-width: 2; fill: none;"/></g><text class="computeSig_label label" text-anchor="end" dx="-5" dy="0.5rem" fill="black" width="200" transform="translate(-180,195)">49</text></g><g class="node computeNode h50 statics" transform="translate(210,0)" style="pointer-events: auto;"><g class="computeSig" stroke="black" style="stroke-width: 2;"><path class="linegg timeline hgroup_4" d="M-180,622.5C-173.33333333333334,622.5,-166.66666666666666,622.5,-160,622.5C-153.33333333333334,622.5,-146.66666666666666,622.5,-140,622.5C-133.33333333333334,622.5,-126.66666666666667,622.5,-120,622.5C-113.33333333333333,622.5,-106.66666666666667,622.5,-100,622.5C-93.33333333333333,622.5,-86.66666666666667,622.5,-80,622.5C-73.33333333333333,622.5,-66.66666666666667,622.5,-60,622.5C-53.333333333333336,622.5,-46.666666666666664,622.5,-40,622.5C-33.333333333333336,622.5,-26.666666666666668,622.5,-20,622.5C-13.333333333333332,622.5,-6.666666666666667,622.5,0,622.5" style="stroke: rgb(214, 39, 40); stroke-width: 2; fill: none;"/></g><text class="computeSig_label label" text-anchor="end" dx="-5" dy="0.5rem" fill="black" width="200" transform="translate(-180,622.5)">50</text></g></g><rect class="fisheyeLayer" style="opacity: 0; pointer-events: none;" width="180" height="780" transform="translate(120,0)"/><g class="table header" transform="translate(600,0)"><g class="back"><path style="fill: rgb(221, 221, 221);"/></g></g></g><g class="timebox hide" transform="translate(40,20)" dy="1rem" style="font-size: 16px;"/><circle id="tipfollowscursor"/></svg>