<svg id="jobmap" width="300" height="850" style="fill: none; font-size: 10px; font-family: sans-serif;" xmlns="http://www.w3.org/2000/svg" xmlns:xlink="http://www.w3.org/1999/xlink">

                    <defs id="defsmain"><pattern id="userpic" width="100%" height="100%" patternContentUnits="objectBoundingBox"><image height="1" width="1" preserveAspectRatio="none" xmlns:xlink="http://www.w3.org/1999/xlink" xlink:href="src/images/u.png"/></pattern><marker id="arrow" markerWidth="10" markerHeight="10" refX="0" refY="3" orient="auto" markerUnits="strokeWidth"><path d="M0,0 L0,6 L9,3 z" style="fill: black;"/></marker></defs><rect class="pantarget" opacity="0" width="1146" height="762"/><g class="pannel" transform="translate(50,50)"><text class="Time" text-anchor="middle" x="40" dy="-30" style="font-weight: bold; fill: black;">Time</text><line x1="60" x2="95" y1="-33" y2="-33" marker-end="url(#arrow)" style="stroke: black;"/><text class="Time" text-anchor="middle" x="-5" dy="-1rem" style="font-weight: bold; fill: black;">Instance</text><line x1="5" x2="5" y1="-5" y2="30" marker-end="url(#arrow)" style="stroke: black;"/><g class="gNodeaxis" transform="translate(210,-10)"><g class="gMainaxis" fill="none" font-size="10" font-family="sans-serif" text-anchor="middle"><g class="tick" opacity="1" transform="translate(-180, 0)"><line stroke="#000" y2="745" vector-effect="non-scaling-stroke" style="stroke-width: 0.1; stroke: black; stroke-dasharray: 1, 2; opacity: 0.5;"/><text fill="#000" y="-3" dy="-0.5rem">1</text></g><g class="tick" opacity="1" transform="translate(-160, 0)"><line stroke="#000" y2="745" vector-effect="non-scaling-stroke" style="stroke-width: 0.1; stroke: black; stroke-dasharray: 1, 2; opacity: 0.5;"/><text fill="#000" y="-3" dy="-0.5rem">2</text></g><g class="tick" opacity="1" transform="translate(-140, 0)"><line stroke="#000" y2="745" vector-effect="non-scaling-stroke" style="stroke-width: 0.1; stroke: black; stroke-dasharray: 1, 2; opacity: 0.5;"/><text fill="#000" y="-3" dy="-0.5rem">3</text></g><g class="tick" opacity="1" transform="translate(-120, 0)"><line stroke="#000" y2="745" vector-effect="non-scaling-stroke" style="stroke-width: 0.1; stroke: black; stroke-dasharray: 1, 2; opacity: 0.5;"/><text fill="#000" y="-3" dy="-0.5rem">4</text></g><g class="tick" opacity="1" transform="translate(-100, 0)"><line stroke="#000" y2="745" vector-effect="non-scaling-stroke" style="stroke-width: 0.1; stroke: black; stroke-dasharray: 1, 2; opacity: 0.5;"/><text fill="#000" y="-3" dy="-0.5rem">5</text></g><g class="tick" opacity="1" transform="translate(-80, 0)"><line stroke="#000" y2="745" vector-effect="non-scaling-stroke" style="stroke-width: 0.1; stroke: black; stroke-dasharray: 1, 2; opacity: 0.5;"/><text fill="#000" y="-3" dy="-0.5rem">6</text></g><g class="tick" opacity="1" transform="translate(-60, 0)"><line stroke="#000" y2="745" vector-effect="non-scaling-stroke" style="stroke-width: 0.1; stroke: black; stroke-dasharray: 1, 2; opacity: 0.5;"/><text fill="#000" y="-3" dy="-0.5rem">7</text></g><g class="tick" opacity="1" transform="translate(-40, 0)"><line stroke="#000" y2="745" vector-effect="non-scaling-stroke" style="stroke-width: 0.1; stroke: black; stroke-dasharray: 1, 2; opacity: 0.5;"/><text fill="#000" y="-3" dy="-0.5rem">8</text></g><g class="tick" opacity="1" transform="translate(-20, 0)"><line stroke="#000" y2="745" vector-effect="non-scaling-stroke" style="stroke-width: 0.1; stroke: black; stroke-dasharray: 1, 2; opacity: 0.5;"/><text fill="#000" y="-3" dy="-0.5rem">9</text></g><g class="tick" opacity="1" transform=""><line stroke="#000" y2="745" vector-effect="non-scaling-stroke" style="stroke-width: 0.1; stroke: black; stroke-dasharray: 1, 2; opacity: 0.5;"/><text fill="#000" y="-3" dy="-0.5rem">10</text></g></g><g class="gSubaxis hide"/></g><g class="annotation"/><g class="linkg"><g class="links" style="display: none;"><path stroke="black" style="stroke-width: 2;"/><text text-anchor="middle">1</text></g><g class="links" style="display: none;"><path stroke="black" style="stroke-width: 2;"/><text text-anchor="middle">1</text></g><g class="links" style="display: none;"><path stroke="black" style="stroke-width: 2;"/><text text-anchor="middle">1</text></g><g class="links" style="display: none;"><path stroke="black" style="stroke-width: 2;"/><text text-anchor="middle">1</text></g><g class="links" style="display: none;"><path stroke="black" style="stroke-width: 2;"/><text text-anchor="middle">1</text></g><g class="links" style="display: none;"><path stroke="black" style="stroke-width: 2;"/><text text-anchor="middle">1</text></g><g class="links" style="display: none;"><path stroke="black" style="stroke-width: 2;"/><text text-anchor="middle">1</text></g><g class="links" style="display: none;"><path stroke="black" style="stroke-width: 2;"/><text text-anchor="middle">1</text></g><g class="links" style="display: none;"><path stroke="black" style="stroke-width: 2;"/><text text-anchor="middle">1</text></g><g class="links" style="display: none;"><path stroke="black" style="stroke-width: 2;"/><text text-anchor="middle">1</text></g><g class="links" style="display: none;"><path stroke="black" style="stroke-width: 2;"/><text text-anchor="middle">1</text></g><g class="links" style="display: none;"><path stroke="black" style="stroke-width: 2;"/><text text-anchor="middle">1</text></g><g class="links" style="display: none;"><path stroke="black" style="stroke-width: 2;"/><text text-anchor="middle">1</text></g><g class="links" style="display: none;"><path stroke="black" style="stroke-width: 2;"/><text text-anchor="middle">1</text></g><g class="links" style="display: none;"><path stroke="black" style="stroke-width: 2;"/><text text-anchor="middle">1</text></g><g class="links" style="display: none;"><path stroke="black" style="stroke-width: 2;"/><text text-anchor="middle">1</text></g><g class="links" style="display: none;"><path stroke="black" style="stroke-width: 2;"/><text text-anchor="middle">1</text></g><g class="links" style="display: none;"><path stroke="black" style="stroke-width: 2;"/><text text-anchor="middle">1</text></g><g class="links" style="display: none;"><path stroke="black" style="stroke-width: 2;"/><text text-anchor="middle">1</text></g><g class="links" style="display: none;"><path stroke="black" style="stroke-width: 2;"/><text text-anchor="middle">1</text></g><g class="links" style="display: none;"><path stroke="black" style="stroke-width: 2;"/><text text-anchor="middle">1</text></g><g class="links" style="display: none;"><path stroke="black" style="stroke-width: 2;"/><text text-anchor="middle">1</text></g><g class="links" style="display: none;"><path stroke="black" style="stroke-width: 2;"/><text text-anchor="middle">1</text></g><g class="links" style="display: none;"><path stroke="black" style="stroke-width: 2;"/><text text-anchor="middle">1</text></g><g class="links" style="display: none;"><path stroke="black" style="stroke-width: 2;"/><text text-anchor="middle">1</text></g><g class="links" style="display: none;"><path stroke="black" style="stroke-width: 2;"/><text text-anchor="middle">1</text></g><g class="links" style="display: none;"><path stroke="black" style="stroke-width: 2;"/><text text-anchor="middle">1</text></g><g class="links" style="display: none;"><path stroke="black" style="stroke-width: 2;"/><text text-anchor="middle">1</text></g><g class="links" style="display: none;"><path stroke="black" style="stroke-width: 2;"/><text text-anchor="middle">1</text></g><g class="links" style="display: none;"><path stroke="black" style="stroke-width: 2;"/><text text-anchor="middle">1</text></g><g class="links" style="display: none;"><path stroke="black" style="stroke-width: 2;"/><text text-anchor="middle">1</text></g><g class="links" style="display: none;"><path stroke="black" style="stroke-width: 2;"/><text text-anchor="middle">1</text></g><g class="links" style="display: none;"><path stroke="black" style="stroke-width: 2;"/><text text-anchor="middle">1</text></g><g class="links" style="display: none;"><path stroke="black" style="stroke-width: 2;"/><text text-anchor="middle">1</text></g><g class="links" style="display: none;"><path stroke="black" style="stroke-width: 2;"/><text text-anchor="middle">1</text></g><g class="links" style="display: none;"><path stroke="black" style="stroke-width: 2;"/><text text-anchor="middle">1</text></g><g class="links" style="display: none;"><path stroke="black" style="stroke-width: 2;"/><text text-anchor="middle">1</text></g><g class="links" style="display: none;"><path stroke="black" style="stroke-width: 2;"/><text text-anchor="middle">1</text></g><g class="links" style="display: none;"><path stroke="black" style="stroke-width: 2;"/><text text-anchor="middle">1</text></g><g class="links" style="display: none;"><path stroke="black" style="stroke-width: 2;"/><text text-anchor="middle">1</text></g><g class="links" style="display: none;"><path stroke="black" style="stroke-width: 2;"/><text text-anchor="middle">1</text></g><g class="links" style="display: none;"><path stroke="black" style="stroke-width: 2;"/><text text-anchor="middle">1</text></g><g class="links" style="display: none;"><path stroke="black" style="stroke-width: 2;"/><text text-anchor="middle">1</text></g><g class="links" style="display: none;"><path stroke="black" style="stroke-width: 2;"/><text text-anchor="middle">1</text></g><g class="links" style="display: none;"><path stroke="black" style="stroke-width: 2;"/><text text-anchor="middle">1</text></g><g class="links" style="display: none;"><path stroke="black" style="stroke-width: 2;"/><text text-anchor="middle">1</text></g><g class="links" style="display: none;"><path stroke="black" style="stroke-width: 2;"/><text text-anchor="middle">1</text></g><g class="links" style="display: none;"><path stroke="black" style="stroke-width: 2;"/><text text-anchor="middle">1</text></g><g class="links" style="display: none;"><path stroke="black" style="stroke-width: 2;"/><text text-anchor="middle">1</text></g><g class="links" style="display: none;"><path stroke="black" style="stroke-width: 2;"/><text text-anchor="middle">1</text></g><g class="links" style="display: none;"><path stroke="black" style="stroke-width: 2;"/><text text-anchor="middle">1</text></g></g><g class="nodeg"><g class="node computeNode h1 statics" transform="translate(210,0)" style="pointer-events: auto;"><g class="computeSig" stroke="black" style="stroke-width: 2;"><path class="linegg timeline hgroup_1" d="M-180,106.08247422680411C-173.33333333333334,106.08247422680411,-166.66666666666666,106.08247422680411,-160,106.08247422680411C-153.33333333333334,106.08247422680411,-146.66666666666666,106.08247422680411,-140,106.08247422680411C-133.33333333333334,106.08247422680411,-126.66666666666667,106.08247422680411,-120,106.08247422680411C-113.33333333333333,106.08247422680411,-106.66666666666667,106.08247422680411,-100,106.08247422680411C-93.33333333333333,106.08247422680411,-86.66666666666667,106.08247422680411,-80,106.08247422680411C-73.33333333333333,106.08247422680411,-66.66666666666667,106.08247422680411,-60,106.08247422680411C-56.666666666666664,106.08247422680411,-53.333333333333336,106.08247422680411,-50,106.08247422680411C-46.666666666666664,106.08247422680411,-43.333333333333336,68.19587628865978,-40,30.309278350515463" style="stroke: rgb(31, 119, 180); stroke-width: 2; fill: none;"/><path class="linegg timeline hgroup_5" d="M-40,30.309278350515463C-33.333333333333336,30.309278350515463,-26.666666666666668,30.309278350515463,-20,30.309278350515463C-13.333333333333332,30.309278350515463,-6.666666666666667,30.309278350515463,0,30.309278350515463" style="stroke: rgb(148, 103, 189); stroke-width: 2; fill: none;"/></g><text class="computeSig_label label" text-anchor="end" dx="-5" dy="0.5rem" fill="black" width="200" transform="translate(-180,106.08247422680411)">1</text></g><g class="node computeNode h2 statics" transform="translate(210,0)" style="pointer-events: auto;"><g class="computeSig" stroke="black" style="stroke-width: 2;"><path class="linegg timeline hgroup_1" d="M-180,121.23711340206185C-173.33333333333334,121.23711340206185,-166.66666666666666,121.23711340206185,-160,121.23711340206185C-153.33333333333334,121.23711340206185,-146.66666666666666,121.23711340206185,-140,121.23711340206185C-133.33333333333334,121.23711340206185,-126.66666666666667,121.23711340206185,-120,121.23711340206185C-116.66666666666667,121.23711340206185,-113.33333333333333,121.23711340206185,-110,121.23711340206185C-106.66666666666667,121.23711340206185,-103.33333333333333,181.8556701030928,-100,242.4742268041237" style="stroke: rgb(31, 119, 180); stroke-width: 2; fill: none;"/><path class="linegg timeline hgroup_4" d="M-100,242.4742268041237C-96.66666666666667,242.4742268041237,-93.33333333333333,242.4742268041237,-90,242.4742268041237C-86.66666666666667,242.4742268041237,-83.33333333333333,143.96907216494844,-80,45.4639175257732" style="stroke: rgb(214, 39, 40); stroke-width: 2;"/><path class="linegg timeline hgroup_5" d="M-80,45.4639175257732C-73.33333333333333,45.4639175257732,-66.66666666666667,45.4639175257732,-60,45.4639175257732C-56.666666666666664,45.4639175257732,-53.333333333333336,45.4639175257732,-50,45.4639175257732C-46.666666666666664,45.4639175257732,-43.333333333333336,83.35051546391752,-40,121.23711340206185" style="stroke: rgb(148, 103, 189); stroke-width: 2; fill: none;"/><path class="linegg timeline hgroup_1" d="M-40,121.23711340206185C-33.333333333333336,121.23711340206185,-26.666666666666668,121.23711340206185,-20,121.23711340206185C-13.333333333333332,121.23711340206185,-6.666666666666667,121.23711340206185,0,121.23711340206185" style="stroke: rgb(31, 119, 180); stroke-width: 2; fill: none;"/></g><text class="computeSig_label label" text-anchor="end" dx="-5" dy="0.5rem" fill="black" width="200" transform="translate(-180,121.23711340206185)">2</text></g><g class="node computeNode h3 statics" transform="translate(210,0)" style="pointer-events: auto;"><g class="computeSig" stroke="black" style="stroke-width: 2;"><path class="linegg timeline hgroup_2" d="M-180,484.9484536082474C-173.33333333333334,484.9484536082474,-166.66666666666666,484.9484536082474,-160,484.9484536082474C-153.33333333333334,484.9484536082474,-146.66666666666666,484.9484536082474,-140,484.9484536082474C-133.33333333333334,484.9484536082474,-126.66666666666667,484.9484536082474,-120,484.9484536082474C-113.33333333333333,484.9484536082474,-106.66666666666667,484.9484536082474,-100,484.9484536082474C-93.33333333333333,484.9484536082474,-86.66666666666667,484.9484536082474,-80,484.9484536082474C-73.33333333333333,484.9484536082474,-66.66666666666667,484.9484536082474,-60,484.9484536082474C-53.333333333333336,484.9484536082474,-46.666666666666664,484.9484536082474,-40,484.9484536082474C-33.333333333333336,484.9484536082474,-26.666666666666668,484.9484536082474,-20,484.9484536082474C-13.333333333333332,484.9484536082474,-6.666666666666667,484.9484536082474,0,484.9484536082474" style="stroke: rgb(255, 127, 14); stroke-width: 2; fill: none;"/></g><text class="computeSig_label label" text-anchor="end" dx="-5" dy="0.5rem" fill="black" width="200" transform="translate(-180,484.9484536082474)">3</text></g><g class="node computeNode h4 statics" transform="translate(210,0)" style="pointer-events: auto;"><g class="computeSig" stroke="black" style="stroke-width: 2;"><path class="linegg timeline hgroup_3" d="M-180,704.6907216494845C-173.33333333333334,704.6907216494845,-166.66666666666666,704.6907216494845,-160,704.6907216494845C-153.33333333333334,704.6907216494845,-146.66666666666666,704.6907216494845,-140,704.6907216494845C-133.33333333333334,704.6907216494845,-126.66666666666667,704.6907216494845,-120,704.6907216494845C-113.33333333333333,704.6907216494845,-106.66666666666667,704.6907216494845,-100,704.6907216494845C-93.33333333333333,704.6907216494845,-86.66666666666667,704.6907216494845,-80,704.6907216494845C-73.33333333333333,704.6907216494845,-66.66666666666667,704.6907216494845,-60,704.6907216494845C-53.333333333333336,704.6907216494845,-46.666666666666664,704.6907216494845,-40,704.6907216494845C-33.333333333333336,704.6907216494845,-26.666666666666668,704.6907216494845,-20,704.6907216494845C-13.333333333333332,704.6907216494845,-6.666666666666667,704.6907216494845,0,704.6907216494845" style="stroke: rgb(44, 160, 44); stroke-width: 2; fill: none;"/></g><text class="computeSig_label label" text-anchor="end" dx="-5" dy="0.5rem" fill="black" width="200" transform="translate(-180,704.6907216494845)">4</text></g><g class="node computeNode h5 statics" transform="translate(210,0)" style="pointer-events: auto;"><g class="computeSig" stroke="black" style="stroke-width: 2;"><path class="linegg timeline hgroup_4" d="M-180,325.82474226804123C-173.33333333333334,325.82474226804123,-166.66666666666666,325.82474226804123,-160,325.82474226804123C-156.66666666666666,325.82474226804123,-153.33333333333334,325.82474226804123,-150,325.82474226804123C-146.66666666666666,325.82474226804123,-143.33333333333334,394.02061855670104,-140,462.21649484536084" style="stroke: rgb(214, 39, 40); stroke-width: 2; fill: none;"/><path class="linegg timeline hgroup_2" d="M-140,462.21649484536084C-133.33333333333334,462.21649484536084,-126.66666666666667,462.21649484536084,-120,462.21649484536084C-113.33333333333333,462.21649484536084,-106.66666666666667,462.21649484536084,-100,462.21649484536084C-93.33333333333333,462.21649484536084,-86.66666666666667,462.21649484536084,-80,462.21649484536084C-73.33333333333333,462.21649484536084,-66.66666666666667,462.21649484536084,-60,462.21649484536084C-53.333333333333336,462.21649484536084,-46.666666666666664,462.21649484536084,-40,462.21649484536084C-33.333333333333336,462.21649484536084,-26.666666666666668,462.21649484536084,-20,462.21649484536084C-13.333333333333332,462.21649484536084,-6.666666666666667,462.21649484536084,0,462.21649484536084" style="stroke: rgb(255, 127, 14); stroke-width: 2; fill: none;"/></g><text class="computeSig_label label" text-anchor="end" dx="-5" dy="0.5rem" fill="black" width="200" transform="translate(-180,325.82474226804123)">5</text></g><g class="node computeNode h6 statics" transform="translate(210,0)" style="pointer-events: auto;"><g class="computeSig" stroke="black" style="stroke-width: 2;"><path class="linegg timeline hgroup_5" d="M-180,7.577319587628864C-173.33333333333334,7.577319587628864,-166.66666666666666,7.577319587628864,-160,7.577319587628864C-153.33333333333334,7.577319587628864,-146.66666666666666,7.577319587628864,-140,7.577319587628864C-133.33333333333334,7.577319587628864,-126.66666666666667,7.577319587628864,-120,7.577319587628864C-113.33333333333333,7.577319587628864,-106.66666666666667,7.577319587628864,-100,7.577319587628864C-93.33333333333333,7.577319587628864,-86.66666666666667,7.577319587628864,-80,7.577319587628864C-73.33333333333333,7.577319587628864,-66.66666666666667,7.577319587628864,-60,7.577319587628864C-53.333333333333336,7.577319587628864,-46.666666666666664,7.577319587628864,-40,7.577319587628864C-33.333333333333336,7.577319587628864,-26.666666666666668,7.577319587628864,-20,7.577319587628864C-13.333333333333332,7.577319587628864,-6.666666666666667,7.577319587628864,0,7.577319587628864" style="stroke: rgb(148, 103, 189); stroke-width: 2; fill: none;"/></g><text class="computeSig_label label" text-anchor="end" dx="-5" dy="0.5rem" fill="black" width="200" transform="translate(-180,7.577319587628866)">6</text></g><g class="node computeNode h7 statics" transform="translate(210,0)" style="pointer-events: auto;"><g class="computeSig" stroke="black" style="stroke-width: 2;"><path class="linegg timeline hgroup_1" d="M-180,197.01030927835052C-173.33333333333334,197.01030927835052,-166.66666666666666,197.01030927835052,-160,197.01030927835052C-156.66666666666666,197.01030927835052,-153.33333333333334,197.01030927835052,-150,197.01030927835052C-146.66666666666666,197.01030927835052,-143.33333333333334,231.10824742268042,-140,265.2061855670103" style="stroke: rgb(31, 119, 180); stroke-width: 2; fill: none;"/><path class="linegg timeline hgroup_4" d="M-140,265.2061855670103C-133.33333333333334,265.2061855670103,-126.66666666666667,265.2061855670103,-120,265.2061855670103C-113.33333333333333,265.2061855670103,-106.66666666666667,265.2061855670103,-100,265.2061855670103C-93.33333333333333,265.2061855670103,-86.66666666666667,265.2061855670103,-80,265.2061855670103C-73.33333333333333,265.2061855670103,-66.66666666666667,265.2061855670103,-60,265.2061855670103C-53.333333333333336,265.2061855670103,-46.666666666666664,265.2061855670103,-40,265.2061855670103C-33.333333333333336,265.2061855670103,-26.666666666666668,265.2061855670103,-20,265.2061855670103C-16.666666666666668,265.2061855670103,-13.333333333333334,265.2061855670103,-10,265.2061855670103C-6.666666666666666,265.2061855670103,-3.3333333333333335,337.19072164948454,0,409.17525773195877" style="stroke: rgb(214, 39, 40); stroke-width: 2; fill: none;"/><path class="linegg timeline hgroup_2" d="M0,409.17525773195877Z" style="stroke: rgb(255, 127, 14); stroke-width: 2;"/></g><text class="computeSig_label label" text-anchor="end" dx="-5" dy="0.5rem" fill="black" width="200" transform="translate(-180,197.01030927835052)">7</text></g><g class="node computeNode h8 statics" transform="translate(210,0)" style="pointer-events: auto;"><g class="computeSig" stroke="black" style="stroke-width: 2;"><path class="linegg timeline hgroup_3" d="M-180,606.1855670103092C-173.33333333333334,606.1855670103092,-166.66666666666666,606.1855670103092,-160,606.1855670103092C-153.33333333333334,606.1855670103092,-146.66666666666666,606.1855670103092,-140,606.1855670103092C-133.33333333333334,606.1855670103092,-126.66666666666667,606.1855670103092,-120,606.1855670103092C-113.33333333333333,606.1855670103092,-106.66666666666667,606.1855670103092,-100,606.1855670103092C-96.66666666666667,606.1855670103092,-93.33333333333333,606.1855670103092,-90,606.1855670103092C-86.66666666666667,606.1855670103092,-83.33333333333333,337.1907216494846,-80,68.19587628865979" style="stroke: rgb(44, 160, 44); stroke-width: 2; fill: none;"/><path class="linegg timeline hgroup_5" d="M-80,68.19587628865979C-73.33333333333333,68.19587628865979,-66.66666666666667,68.19587628865979,-60,68.19587628865979C-53.333333333333336,68.19587628865979,-46.666666666666664,68.19587628865979,-40,68.19587628865979C-33.333333333333336,68.19587628865979,-26.666666666666668,68.19587628865979,-20,68.19587628865979C-13.333333333333332,68.19587628865979,-6.666666666666667,68.19587628865979,0,68.19587628865979" style="stroke: rgb(148, 103, 189); stroke-width: 2; fill: none;"/></g><text class="computeSig_label label" text-anchor="end" dx="-5" dy="0.5rem" fill="black" width="200" transform="translate(-180,606.1855670103092)">8</text></g><g class="node computeNode h9 statics" transform="translate(210,0)" style="pointer-events: auto;"><g class="computeSig" stroke="black" style="stroke-width: 2;"><path class="linegg timeline hgroup_3" d="M-180,651.6494845360825C-173.33333333333334,651.6494845360825,-166.66666666666666,651.6494845360825,-160,651.6494845360825C-156.66666666666666,651.6494845360825,-153.33333333333334,651.6494845360825,-150,651.6494845360825C-146.66666666666666,651.6494845360825,-143.33333333333334,598.6082474226804,-140,545.5670103092783" style="stroke: rgb(44, 160, 44); stroke-width: 2; fill: none;"/><path class="linegg timeline hgroup_2" d="M-140,545.5670103092783C-133.33333333333334,545.5670103092783,-126.66666666666667,545.5670103092783,-120,545.5670103092783C-113.33333333333333,545.5670103092783,-106.66666666666667,545.5670103092783,-100,545.5670103092783C-93.33333333333333,545.5670103092783,-86.66666666666667,545.5670103092783,-80,545.5670103092783C-73.33333333333333,545.5670103092783,-66.66666666666667,545.5670103092783,-60,545.5670103092783C-53.333333333333336,545.5670103092783,-46.666666666666664,545.5670103092783,-40,545.5670103092783C-33.333333333333336,545.5670103092783,-26.666666666666668,545.5670103092783,-20,545.5670103092783C-13.333333333333332,545.5670103092783,-6.666666666666667,545.5670103092783,0,545.5670103092783" style="stroke: rgb(255, 127, 14); stroke-width: 2; fill: none;"/></g><text class="computeSig_label label" text-anchor="end" dx="-5" dy="0.5rem" fill="black" width="200" transform="translate(-180,651.6494845360825)">9</text></g><g class="node computeNode h10 statics" transform="translate(210,0)" style="pointer-events: auto;"><g class="computeSig" stroke="black" style="stroke-width: 2;"><path class="linegg timeline hgroup_2" d="M-180,492.52577319587624C-173.33333333333334,492.52577319587624,-166.66666666666666,492.52577319587624,-160,492.52577319587624C-153.33333333333334,492.52577319587624,-146.66666666666666,492.52577319587624,-140,492.52577319587624C-133.33333333333334,492.52577319587624,-126.66666666666667,492.52577319587624,-120,492.52577319587624C-113.33333333333333,492.52577319587624,-106.66666666666667,492.52577319587624,-100,492.52577319587624C-93.33333333333333,492.52577319587624,-86.66666666666667,492.52577319587624,-80,492.52577319587624C-73.33333333333333,492.52577319587624,-66.66666666666667,492.52577319587624,-60,492.52577319587624C-53.333333333333336,492.52577319587624,-46.666666666666664,492.52577319587624,-40,492.52577319587624C-33.333333333333336,492.52577319587624,-26.666666666666668,492.52577319587624,-20,492.52577319587624C-13.333333333333332,492.52577319587624,-6.666666666666667,492.52577319587624,0,492.52577319587624" style="stroke: rgb(255, 127, 14); stroke-width: 2; fill: none;"/></g><text class="computeSig_label label" text-anchor="end" dx="-5" dy="0.5rem" fill="black" width="200" transform="translate(-180,492.52577319587624)">10</text></g><g class="node computeNode h11 statics" transform="translate(210,0)" style="pointer-events: auto;"><g class="computeSig" stroke="black" style="stroke-width: 2;"><path class="linegg timeline hgroup_3" d="M-180,681.9587628865979C-173.33333333333334,681.9587628865979,-166.66666666666666,681.9587628865979,-160,681.9587628865979C-153.33333333333334,681.9587628865979,-146.66666666666666,681.9587628865979,-140,681.9587628865979C-133.33333333333334,681.9587628865979,-126.66666666666667,681.9587628865979,-120,681.9587628865979C-113.33333333333333,681.9587628865979,-106.66666666666667,681.9587628865979,-100,681.9587628865979C-96.66666666666667,681.9587628865979,-93.33333333333333,681.9587628865979,-90,681.9587628865979C-86.66666666666667,681.9587628865979,-83.33333333333333,526.6237113402062,-80,371.2886597938144" style="stroke: rgb(44, 160, 44); stroke-width: 2; fill: none;"/><path class="linegg timeline hgroup_4" d="M-80,371.2886597938144C-76.66666666666667,371.2886597938144,-73.33333333333333,371.2886597938144,-70,371.2886597938144C-66.66666666666667,371.2886597938144,-63.333333333333336,466.00515463917526,-60,560.7216494845361" style="stroke: rgb(214, 39, 40); stroke-width: 2;"/><path class="linegg timeline hgroup_2" d="M-60,560.7216494845361C-53.333333333333336,560.7216494845361,-46.666666666666664,560.7216494845361,-40,560.7216494845361C-33.333333333333336,560.7216494845361,-26.666666666666668,560.7216494845361,-20,560.7216494845361C-13.333333333333332,560.7216494845361,-6.666666666666667,560.7216494845361,0,560.7216494845361" style="stroke: rgb(255, 127, 14); stroke-width: 2; fill: none;"/></g><text class="computeSig_label label" text-anchor="end" dx="-5" dy="0.5rem" fill="black" width="200" transform="translate(-180,681.9587628865979)">11</text></g><g class="node computeNode h12 statics" transform="translate(210,0)" style="pointer-events: auto;"><g class="computeSig" stroke="black" style="stroke-width: 2;"><path class="linegg timeline hgroup_3" d="M-180,697.1134020618556C-173.33333333333334,697.1134020618556,-166.66666666666666,697.1134020618556,-160,697.1134020618556C-153.33333333333334,697.1134020618556,-146.66666666666666,697.1134020618556,-140,697.1134020618556C-133.33333333333334,697.1134020618556,-126.66666666666667,697.1134020618556,-120,697.1134020618556C-113.33333333333333,697.1134020618556,-106.66666666666667,697.1134020618556,-100,697.1134020618556C-96.66666666666667,697.1134020618556,-93.33333333333333,697.1134020618556,-90,697.1134020618556C-86.66666666666667,697.1134020618556,-83.33333333333333,636.4948453608247,-80,575.8762886597938" style="stroke: rgb(44, 160, 44); stroke-width: 2; fill: none;"/><path class="linegg timeline hgroup_2" d="M-80,575.8762886597938C-76.66666666666667,575.8762886597938,-73.33333333333333,575.8762886597938,-70,575.8762886597938C-66.66666666666667,575.8762886597938,-63.333333333333336,636.4948453608247,-60,697.1134020618556" style="stroke: rgb(255, 127, 14); stroke-width: 2;"/><path class="linegg timeline hgroup_3" d="M-60,697.1134020618556C-53.333333333333336,697.1134020618556,-46.666666666666664,697.1134020618556,-40,697.1134020618556C-33.333333333333336,697.1134020618556,-26.666666666666668,697.1134020618556,-20,697.1134020618556C-13.333333333333332,697.1134020618556,-6.666666666666667,697.1134020618556,0,697.1134020618556" style="stroke: rgb(44, 160, 44); stroke-width: 2; fill: none;"/></g><text class="computeSig_label label" text-anchor="end" dx="-5" dy="0.5rem" fill="black" width="200" transform="translate(-180,697.1134020618556)">12</text></g><g class="node computeNode h13 statics" transform="translate(210,0)" style="pointer-events: auto;"><g class="computeSig" stroke="black" style="stroke-width: 2;"><path class="linegg timeline hgroup_1" d="M-180,174.2783505154639C-173.33333333333334,174.2783505154639,-166.66666666666666,174.2783505154639,-160,174.2783505154639C-153.33333333333334,174.2783505154639,-146.66666666666666,174.2783505154639,-140,174.2783505154639C-133.33333333333334,174.2783505154639,-126.66666666666667,174.2783505154639,-120,174.2783505154639C-113.33333333333333,174.2783505154639,-106.66666666666667,174.2783505154639,-100,174.2783505154639C-96.66666666666667,174.2783505154639,-93.33333333333333,174.2783505154639,-90,174.2783505154639C-86.66666666666667,174.2783505154639,-83.33333333333333,215.95360824742266,-80,257.62886597938143" style="stroke: rgb(31, 119, 180); stroke-width: 2; fill: none;"/><path class="linegg timeline hgroup_4" d="M-80,257.62886597938143C-73.33333333333333,257.62886597938143,-66.66666666666667,257.62886597938143,-60,257.62886597938143C-53.333333333333336,257.62886597938143,-46.666666666666664,257.62886597938143,-40,257.62886597938143C-33.333333333333336,257.62886597938143,-26.666666666666668,257.62886597938143,-20,257.62886597938143C-16.666666666666668,257.62886597938143,-13.333333333333334,257.62886597938143,-10,257.62886597938143C-6.666666666666666,257.62886597938143,-3.3333333333333335,329.61340206185565,0,401.5979381443299" style="stroke: rgb(214, 39, 40); stroke-width: 2; fill: none;"/><path class="linegg timeline hgroup_2" d="M0,401.5979381443299Z" style="stroke: rgb(255, 127, 14); stroke-width: 2;"/></g><text class="computeSig_label label" text-anchor="end" dx="-5" dy="0.5rem" fill="black" width="200" transform="translate(-180,174.2783505154639)">13</text></g><g class="node computeNode h14 statics" transform="translate(210,0)" style="pointer-events: auto;"><g class="computeSig" stroke="black" style="stroke-width: 2;"><path class="linegg timeline hgroup_2" d="M-180,537.9896907216495C-173.33333333333334,537.9896907216495,-166.66666666666666,537.9896907216495,-160,537.9896907216495C-153.33333333333334,537.9896907216495,-146.66666666666666,537.9896907216495,-140,537.9896907216495C-133.33333333333334,537.9896907216495,-126.66666666666667,537.9896907216495,-120,537.9896907216495C-113.33333333333333,537.9896907216495,-106.66666666666667,537.9896907216495,-100,537.9896907216495C-93.33333333333333,537.9896907216495,-86.66666666666667,537.9896907216495,-80,537.9896907216495C-73.33333333333333,537.9896907216495,-66.66666666666667,537.9896907216495,-60,537.9896907216495C-56.666666666666664,537.9896907216495,-53.333333333333336,537.9896907216495,-50,537.9896907216495C-46.666666666666664,537.9896907216495,-43.333333333333336,591.0309278350516,-40,644.0721649484536" style="stroke: rgb(255, 127, 14); stroke-width: 2; fill: none;"/><path class="linegg timeline hgroup_3" d="M-40,644.0721649484536C-36.666666666666664,644.0721649484536,-33.333333333333336,644.0721649484536,-30,644.0721649484536C-26.666666666666668,644.0721649484536,-23.333333333333332,591.0309278350516,-20,537.9896907216495" style="stroke: rgb(44, 160, 44); stroke-width: 2;"/><path class="linegg timeline hgroup_2" d="M-20,537.9896907216495L0,537.9896907216495" style="stroke: rgb(255, 127, 14); stroke-width: 2; fill: none;"/></g><text class="computeSig_label label" text-anchor="end" dx="-5" dy="0.5rem" fill="black" width="200" transform="translate(-180,537.9896907216495)">14</text></g><g class="node computeNode h15 statics" transform="translate(210,0)" style="pointer-events: auto;"><g class="computeSig" stroke="black" style="stroke-width: 2;"><path class="linegg timeline hgroup_2" d="M-180,500.1030927835052C-173.33333333333334,500.1030927835052,-166.66666666666666,500.1030927835052,-160,500.1030927835052C-153.33333333333334,500.1030927835052,-146.66666666666666,500.1030927835052,-140,500.1030927835052C-133.33333333333334,500.1030927835052,-126.66666666666667,500.1030927835052,-120,500.1030927835052C-113.33333333333333,500.1030927835052,-106.66666666666667,500.1030927835052,-100,500.1030927835052C-93.33333333333333,500.1030927835052,-86.66666666666667,500.1030927835052,-80,500.1030927835052C-73.33333333333333,500.1030927835052,-66.66666666666667,500.1030927835052,-60,500.1030927835052C-53.333333333333336,500.1030927835052,-46.666666666666664,500.1030927835052,-40,500.1030927835052C-33.333333333333336,500.1030927835052,-26.666666666666668,500.1030927835052,-20,500.1030927835052C-13.333333333333332,500.1030927835052,-6.666666666666667,500.1030927835052,0,500.1030927835052" style="stroke: rgb(255, 127, 14); stroke-width: 2; fill: none;"/></g><text class="computeSig_label label" text-anchor="end" dx="-5" dy="0.5rem" fill="black" width="200" transform="translate(-180,500.1030927835052)">15</text></g><g class="node computeNode h16 statics" transform="translate(210,0)" style="pointer-events: auto;"><g class="computeSig" stroke="black" style="stroke-width: 2;"><path class="linegg timeline hgroup_2" d="M-180,386.4432989690722C-173.33333333333334,386.4432989690722,-166.66666666666666,386.4432989690722,-160,386.4432989690722C-153.33333333333334,386.4432989690722,-146.66666666666666,386.4432989690722,-140,386.4432989690722C-136.66666666666666,386.4432989690722,-133.33333333333334,386.4432989690722,-130,386.4432989690722C-126.66666666666667,386.4432989690722,-123.33333333333333,219.7422680412371,-120,53.041237113402055" style="stroke: rgb(255, 127, 14); stroke-width: 2; fill: none;"/><path class="linegg timeline hgroup_5" d="M-120,53.04123711340205C-113.33333333333333,53.04123711340205,-106.66666666666667,53.04123711340205,-100,53.04123711340205C-93.33333333333333,53.04123711340205,-86.66666666666667,53.04123711340205,-80,53.04123711340205C-73.33333333333333,53.04123711340205,-66.66666666666667,53.04123711340205,-60,53.04123711340205C-53.333333333333336,53.04123711340205,-46.666666666666664,53.04123711340205,-40,53.04123711340205C-33.333333333333336,53.04123711340205,-26.666666666666668,53.04123711340205,-20,53.04123711340205C-13.333333333333332,53.04123711340205,-6.666666666666667,53.04123711340205,0,53.04123711340205" style="stroke: rgb(148, 103, 189); stroke-width: 2; fill: none;"/></g><text class="computeSig_label label" text-anchor="end" dx="-5" dy="0.5rem" fill="black" width="200" transform="translate(-180,386.4432989690722)">16</text></g><g class="node computeNode h17 statics" transform="translate(210,0)" style="pointer-events: auto;"><g class="computeSig" stroke="black" style="stroke-width: 2;"><path class="linegg timeline hgroup_3" d="M-180,689.5360824742268C-173.33333333333334,689.5360824742268,-166.66666666666666,689.5360824742268,-160,689.5360824742268C-153.33333333333334,689.5360824742268,-146.66666666666666,689.5360824742268,-140,689.5360824742268C-133.33333333333334,689.5360824742268,-126.66666666666667,689.5360824742268,-120,689.5360824742268C-116.66666666666667,689.5360824742268,-113.33333333333333,689.5360824742268,-110,689.5360824742268C-106.66666666666667,689.5360824742268,-103.33333333333333,628.9175257731958,-100,568.2989690721649" style="stroke: rgb(44, 160, 44); stroke-width: 2; fill: none;"/><path class="linegg timeline hgroup_2" d="M-100,568.2989690721649C-93.33333333333333,568.2989690721649,-86.66666666666667,568.2989690721649,-80,568.2989690721649C-73.33333333333333,568.2989690721649,-66.66666666666667,568.2989690721649,-60,568.2989690721649C-53.333333333333336,568.2989690721649,-46.666666666666664,568.2989690721649,-40,568.2989690721649C-33.333333333333336,568.2989690721649,-26.666666666666668,568.2989690721649,-20,568.2989690721649C-13.333333333333332,568.2989690721649,-6.666666666666667,568.2989690721649,0,568.2989690721649" style="stroke: rgb(255, 127, 14); stroke-width: 2; fill: none;"/></g><text class="computeSig_label label" text-anchor="end" dx="-5" dy="0.5rem" fill="black" width="200" transform="translate(-180,689.5360824742268)">17</text></g><g class="node computeNode h18 statics" transform="translate(210,0)" style="pointer-events: auto;"><g class="computeSig" stroke="black" style="stroke-width: 2;"><path class="linegg timeline hgroup_4" d="M-180,272.78350515463916C-173.33333333333334,272.78350515463916,-166.66666666666666,272.78350515463916,-160,272.78350515463916C-153.33333333333334,272.78350515463916,-146.66666666666666,272.78350515463916,-140,272.78350515463916C-133.33333333333334,272.78350515463916,-126.66666666666667,272.78350515463916,-120,272.78350515463916C-113.33333333333333,272.78350515463916,-106.66666666666667,272.78350515463916,-100,272.78350515463916C-93.33333333333333,272.78350515463916,-86.66666666666667,272.78350515463916,-80,272.78350515463916C-73.33333333333333,272.78350515463916,-66.66666666666667,272.78350515463916,-60,272.78350515463916C-53.333333333333336,272.78350515463916,-46.666666666666664,272.78350515463916,-40,272.78350515463916C-33.333333333333336,272.78350515463916,-26.666666666666668,272.78350515463916,-20,272.78350515463916C-13.333333333333332,272.78350515463916,-6.666666666666667,272.78350515463916,0,272.78350515463916" style="stroke: rgb(214, 39, 40); stroke-width: 2; fill: none;"/></g><text class="computeSig_label label" text-anchor="end" dx="-5" dy="0.5rem" fill="black" width="200" transform="translate(-180,272.78350515463916)">18</text></g><g class="node computeNode h19 statics" transform="translate(210,0)" style="pointer-events: auto;"><g class="computeSig" stroke="black" style="stroke-width: 2;"><path class="linegg timeline hgroup_2" d="M-180,507.680412371134C-173.33333333333334,507.680412371134,-166.66666666666666,507.680412371134,-160,507.680412371134C-153.33333333333334,507.680412371134,-146.66666666666666,507.680412371134,-140,507.680412371134C-133.33333333333334,507.680412371134,-126.66666666666667,507.680412371134,-120,507.680412371134C-113.33333333333333,507.680412371134,-106.66666666666667,507.680412371134,-100,507.680412371134C-93.33333333333333,507.680412371134,-86.66666666666667,507.680412371134,-80,507.680412371134C-73.33333333333333,507.680412371134,-66.66666666666667,507.680412371134,-60,507.680412371134C-53.333333333333336,507.680412371134,-46.666666666666664,507.680412371134,-40,507.680412371134C-33.333333333333336,507.680412371134,-26.666666666666668,507.680412371134,-20,507.680412371134C-13.333333333333332,507.680412371134,-6.666666666666667,507.680412371134,0,507.680412371134" style="stroke: rgb(255, 127, 14); stroke-width: 2; fill: none;"/></g><text class="computeSig_label label" text-anchor="end" dx="-5" dy="0.5rem" fill="black" width="200" transform="translate(-180,507.680412371134)">19</text></g><g class="node computeNode h20 statics" transform="translate(210,0)" style="pointer-events: auto;"><g class="computeSig" stroke="black" style="stroke-width: 2;"><path class="linegg timeline hgroup_1" d="M-180,98.50515463917526C-173.33333333333334,98.50515463917526,-166.66666666666666,98.50515463917526,-160,98.50515463917526C-153.33333333333334,98.50515463917526,-146.66666666666666,98.50515463917526,-140,98.50515463917526C-133.33333333333334,98.50515463917526,-126.66666666666667,98.50515463917526,-120,98.50515463917526C-116.66666666666667,98.50515463917526,-113.33333333333333,98.50515463917526,-110,98.50515463917526C-106.66666666666667,98.50515463917526,-103.33333333333333,166.70103092783506,-100,234.89690721649484" style="stroke: rgb(31, 119, 180); stroke-width: 2; fill: none;"/><path class="linegg timeline hgroup_4" d="M-100,234.89690721649484C-96.66666666666667,234.89690721649484,-93.33333333333333,234.89690721649484,-90,234.89690721649484C-86.66666666666667,234.89690721649484,-83.33333333333333,128.81443298969072,-80,22.7319587628866" style="stroke: rgb(214, 39, 40); stroke-width: 2;"/><path class="linegg timeline hgroup_5" d="M-80,22.73195876288662C-73.33333333333333,22.73195876288662,-66.66666666666667,22.73195876288662,-60,22.73195876288662C-53.333333333333336,22.73195876288662,-46.666666666666664,22.73195876288662,-40,22.73195876288662C-33.333333333333336,22.73195876288662,-26.666666666666668,22.73195876288662,-20,22.73195876288662C-13.333333333333332,22.73195876288662,-6.666666666666667,22.73195876288662,0,22.73195876288662" style="stroke: rgb(148, 103, 189); stroke-width: 2; fill: none;"/></g><text class="computeSig_label label" text-anchor="end" dx="-5" dy="0.5rem" fill="black" width="200" transform="translate(-180,98.50515463917526)">20</text></g><g class="node computeNode h21 statics" transform="translate(210,0)" style="pointer-events: auto;"><g class="computeSig" stroke="black" style="stroke-width: 2;"><path class="linegg timeline hgroup_3" d="M-180,598.6082474226804C-173.33333333333334,598.6082474226804,-166.66666666666666,598.6082474226804,-160,598.6082474226804C-153.33333333333334,598.6082474226804,-146.66666666666666,598.6082474226804,-140,598.6082474226804C-136.66666666666666,598.6082474226804,-133.33333333333334,598.6082474226804,-130,598.6082474226804C-126.66666666666667,598.6082474226804,-123.33333333333333,329.6134020618557,-120,60.618556701030926" style="stroke: rgb(44, 160, 44); stroke-width: 2; fill: none;"/><path class="linegg timeline hgroup_5" d="M-120,60.61855670103091C-113.33333333333333,60.61855670103091,-106.66666666666667,60.618556701030926,-100,60.618556701030926C-96.66666666666667,60.618556701030926,-93.33333333333333,60.618556701030926,-90,60.618556701030926C-86.66666666666667,60.618556701030926,-83.33333333333333,125.02577319587627,-80,189.43298969072163" style="stroke: rgb(148, 103, 189); stroke-width: 2; fill: none;"/><path class="linegg timeline hgroup_1" d="M-80,189.43298969072163C-73.33333333333333,189.43298969072163,-66.66666666666667,189.43298969072163,-60,189.43298969072163C-53.333333333333336,189.43298969072163,-46.666666666666664,189.43298969072163,-40,189.43298969072163C-33.333333333333336,189.43298969072163,-26.666666666666668,189.43298969072163,-20,189.43298969072163C-13.333333333333332,189.43298969072163,-6.666666666666667,189.43298969072163,0,189.43298969072163" style="stroke: rgb(31, 119, 180); stroke-width: 2; fill: none;"/></g><text class="computeSig_label label" text-anchor="end" dx="-5" dy="0.5rem" fill="black" width="200" transform="translate(-180,598.6082474226804)">21</text></g><g class="node computeNode h22 statics" transform="translate(210,0)" style="pointer-events: auto;"><g class="computeSig" stroke="black" style="stroke-width: 2;"><path class="linegg timeline hgroup_4" d="M-180,303.0927835051546C-173.33333333333334,303.0927835051546,-166.66666666666666,303.0927835051546,-160,303.0927835051546C-153.33333333333334,303.0927835051546,-146.66666666666666,303.0927835051546,-140,303.0927835051546C-133.33333333333334,303.0927835051546,-126.66666666666667,303.0927835051546,-120,303.0927835051546C-113.33333333333333,303.0927835051546,-106.66666666666667,303.0927835051546,-100,303.0927835051546C-96.66666666666667,303.0927835051546,-93.33333333333333,303.0927835051546,-90,303.0927835051546C-86.66666666666667,303.0927835051546,-83.33333333333333,371.2886597938144,-80,439.4845360824742" style="stroke: rgb(214, 39, 40); stroke-width: 2; fill: none;"/><path class="linegg timeline hgroup_2" d="M-80,439.4845360824742C-73.33333333333333,439.4845360824742,-66.66666666666667,439.4845360824742,-60,439.4845360824742C-53.333333333333336,439.4845360824742,-46.666666666666664,439.4845360824742,-40,439.4845360824742C-33.333333333333336,439.4845360824742,-26.666666666666668,439.4845360824742,-20,439.4845360824742C-13.333333333333332,439.4845360824742,-6.666666666666667,439.4845360824742,0,439.4845360824742" style="stroke: rgb(255, 127, 14); stroke-width: 2; fill: none;"/></g><text class="computeSig_label label" text-anchor="end" dx="-5" dy="0.5rem" fill="black" width="200" transform="translate(-180,303.0927835051546)">22</text></g><g class="node computeNode h23 statics" transform="translate(210,0)" style="pointer-events: auto;"><g class="computeSig" stroke="black" style="stroke-width: 2;"><path class="linegg timeline hgroup_3" d="M-180,621.340206185567C-176.66666666666666,621.340206185567,-173.33333333333334,621.340206185567,-170,621.340206185567C-166.66666666666666,621.340206185567,-163.33333333333334,454.63917525773195,-160,287.9381443298969" style="stroke: rgb(44, 160, 44); stroke-width: 2;"/><path class="linegg timeline hgroup_4" d="M-160,287.9381443298969C-153.33333333333334,287.9381443298969,-146.66666666666666,287.9381443298969,-140,287.9381443298969C-133.33333333333334,287.9381443298969,-126.66666666666667,287.9381443298969,-120,287.9381443298969C-113.33333333333333,287.9381443298969,-106.66666666666667,287.9381443298969,-100,287.9381443298969C-93.33333333333333,287.9381443298969,-86.66666666666667,287.9381443298969,-80,287.9381443298969C-73.33333333333333,287.9381443298969,-66.66666666666667,287.9381443298969,-60,287.9381443298969C-53.333333333333336,287.9381443298969,-46.666666666666664,287.9381443298969,-40,287.9381443298969C-36.666666666666664,287.9381443298969,-33.333333333333336,287.9381443298969,-30,287.9381443298969C-26.666666666666668,287.9381443298969,-23.333333333333332,356.13402061855663,-20,424.32989690721644" style="stroke: rgb(214, 39, 40); stroke-width: 2; fill: none;"/><path class="linegg timeline hgroup_2" d="M-20,424.32989690721644L0,424.32989690721644" style="stroke: rgb(255, 127, 14); stroke-width: 2; fill: none;"/></g><text class="computeSig_label label" text-anchor="end" dx="-5" dy="0.5rem" fill="black" width="200" transform="translate(-180,621.340206185567)">23</text></g><g class="node computeNode h24 statics" transform="translate(210,0)" style="pointer-events: auto;"><g class="computeSig" stroke="black" style="stroke-width: 2;"><path class="linegg timeline hgroup_1" d="M-180,159.1237113402062C-173.33333333333334,159.1237113402062,-166.66666666666666,159.1237113402062,-160,159.1237113402062C-153.33333333333334,159.1237113402062,-146.66666666666666,159.1237113402062,-140,159.1237113402062C-133.33333333333334,159.1237113402062,-126.66666666666667,159.1237113402062,-120,159.1237113402062C-113.33333333333333,159.1237113402062,-106.66666666666667,159.1237113402062,-100,159.1237113402062C-93.33333333333333,159.1237113402062,-86.66666666666667,159.1237113402062,-80,159.1237113402062C-73.33333333333333,159.1237113402062,-66.66666666666667,159.1237113402062,-60,159.1237113402062C-53.333333333333336,159.1237113402062,-46.666666666666664,159.1237113402062,-40,159.1237113402062C-33.333333333333336,159.1237113402062,-26.666666666666668,159.1237113402062,-20,159.1237113402062C-16.666666666666668,159.1237113402062,-13.333333333333334,159.1237113402062,-10,159.1237113402062C-6.666666666666666,159.1237113402062,-3.3333333333333335,276.57216494845363,0,394.02061855670104" style="stroke: rgb(31, 119, 180); stroke-width: 2; fill: none;"/><path class="linegg timeline hgroup_2" d="M0,394.02061855670104Z" style="stroke: rgb(255, 127, 14); stroke-width: 2;"/></g><text class="computeSig_label label" text-anchor="end" dx="-5" dy="0.5rem" fill="black" width="200" transform="translate(-180,159.1237113402062)">24</text></g><g class="node computeNode h25 statics" transform="translate(210,0)" style="pointer-events: auto;"><g class="computeSig" stroke="black" style="stroke-width: 2;"><path class="linegg timeline hgroup_1" d="M-180,128.81443298969072C-173.33333333333334,128.81443298969072,-166.66666666666666,128.81443298969072,-160,128.81443298969072C-153.33333333333334,128.81443298969072,-146.66666666666666,128.81443298969072,-140,128.81443298969072C-133.33333333333334,128.81443298969072,-126.66666666666667,128.81443298969072,-120,128.81443298969072C-113.33333333333333,128.81443298969072,-106.66666666666667,128.81443298969072,-100,128.81443298969072C-93.33333333333333,128.81443298969072,-86.66666666666667,128.81443298969072,-80,128.81443298969072C-73.33333333333333,128.81443298969072,-66.66666666666667,128.81443298969072,-60,128.81443298969072C-53.333333333333336,128.81443298969072,-46.666666666666664,128.81443298969072,-40,128.81443298969072C-33.333333333333336,128.81443298969072,-26.666666666666668,128.81443298969072,-20,128.81443298969072C-13.333333333333332,128.81443298969072,-6.666666666666667,128.81443298969072,0,128.81443298969072" style="stroke: rgb(31, 119, 180); stroke-width: 2; fill: none;"/></g><text class="computeSig_label label" text-anchor="end" dx="-5" dy="0.5rem" fill="black" width="200" transform="translate(-180,128.81443298969072)">25</text></g><g class="node computeNode h26 statics" transform="translate(210,0)" style="pointer-events: auto;"><g class="computeSig" stroke="black" style="stroke-width: 2;"><path class="linegg timeline hgroup_5" d="M-180,75.77319587628864C-173.33333333333334,75.77319587628864,-166.66666666666666,75.77319587628864,-160,75.77319587628864C-153.33333333333334,75.77319587628864,-146.66666666666666,75.77319587628864,-140,75.77319587628864C-133.33333333333334,75.77319587628864,-126.66666666666667,75.77319587628864,-120,75.77319587628864C-113.33333333333333,75.77319587628864,-106.66666666666667,75.77319587628864,-100,75.77319587628864C-96.66666666666667,75.77319587628865,-93.33333333333333,75.77319587628865,-90,75.77319587628865C-86.66666666666667,75.77319587628865,-83.33333333333333,344.7680412371134,-80,613.7628865979382" style="stroke: rgb(148, 103, 189); stroke-width: 2; fill: none;"/><path class="linegg timeline hgroup_3" d="M-80,613.7628865979382C-73.33333333333333,613.7628865979382,-66.66666666666667,613.7628865979382,-60,613.7628865979382C-53.333333333333336,613.7628865979382,-46.666666666666664,613.7628865979382,-40,613.7628865979382C-33.333333333333336,613.7628865979382,-26.666666666666668,613.7628865979382,-20,613.7628865979382C-13.333333333333332,613.7628865979382,-6.666666666666667,613.7628865979382,0,613.7628865979382" style="stroke: rgb(44, 160, 44); stroke-width: 2; fill: none;"/></g><text class="computeSig_label label" text-anchor="end" dx="-5" dy="0.5rem" fill="black" width="200" transform="translate(-180,75.77319587628865)">26</text></g><g class="node computeNode h27 statics" transform="translate(210,0)" style="pointer-events: auto;"><g class="computeSig" stroke="black" style="stroke-width: 2;"><path class="linegg timeline hgroup_4" d="M-180,333.4020618556701C-176.66666666666666,333.4020618556701,-173.33333333333334,333.4020618556701,-170,333.4020618556701C-166.66666666666666,333.4020618556701,-163.33333333333334,401.5979381443299,-160,469.7938144329897" style="stroke: rgb(214, 39, 40); stroke-width: 2;"/><path class="linegg timeline hgroup_2" d="M-160,469.7938144329897C-153.33333333333334,469.7938144329897,-146.66666666666666,469.7938144329897,-140,469.7938144329897C-133.33333333333334,469.7938144329897,-126.66666666666667,469.7938144329897,-120,469.7938144329897C-116.66666666666667,469.7938144329897,-113.33333333333333,469.7938144329897,-110,469.7938144329897C-106.66666666666667,469.7938144329897,-103.33333333333333,401.5979381443299,-100,333.4020618556701" style="stroke: rgb(255, 127, 14); stroke-width: 2; fill: none;"/><path class="linegg timeline hgroup_4" d="M-100,333.4020618556701C-96.66666666666667,333.4020618556701,-93.33333333333333,333.4020618556701,-90,333.4020618556701C-86.66666666666667,333.4020618556701,-83.33333333333333,401.5979381443299,-80,469.7938144329897" style="stroke: rgb(214, 39, 40); stroke-width: 2;"/><path class="linegg timeline hgroup_2" d="M-80,469.7938144329897C-73.33333333333333,469.7938144329897,-66.66666666666667,469.7938144329897,-60,469.7938144329897C-53.333333333333336,469.7938144329897,-46.666666666666664,469.7938144329897,-40,469.7938144329897C-33.333333333333336,469.7938144329897,-26.666666666666668,469.7938144329897,-20,469.7938144329897C-13.333333333333332,469.7938144329897,-6.666666666666667,469.7938144329897,0,469.7938144329897" style="stroke: rgb(255, 127, 14); stroke-width: 2; fill: none;"/></g><text class="computeSig_label label" text-anchor="end" dx="-5" dy="0.5rem" fill="black" width="200" transform="translate(-180,333.4020618556701)">27</text></g><g class="node computeNode h28 statics" transform="translate(210,0)" style="pointer-events: auto;"><g class="computeSig" stroke="black" style="stroke-width: 2;"><path class="linegg timeline hgroup_3" d="M-180,659.2268041237114C-173.33333333333334,659.2268041237114,-166.66666666666666,659.2268041237114,-160,659.2268041237114C-153.33333333333334,659.2268041237114,-146.66666666666666,659.2268041237114,-140,659.2268041237114C-133.33333333333334,659.2268041237114,-126.66666666666667,659.2268041237114,-120,659.2268041237114C-113.33333333333333,659.2268041237114,-106.66666666666667,659.2268041237114,-100,659.2268041237114C-93.33333333333333,659.2268041237114,-86.66666666666667,659.2268041237114,-80,659.2268041237114C-76.66666666666667,659.2268041237114,-73.33333333333333,659.2268041237114,-70,659.2268041237114C-66.66666666666667,659.2268041237114,-63.333333333333336,507.680412371134,-60,356.1340206185567" style="stroke: rgb(44, 160, 44); stroke-width: 2; fill: none;"/><path class="linegg timeline hgroup_4" d="M-60,356.1340206185567C-53.333333333333336,356.1340206185567,-46.666666666666664,356.1340206185567,-40,356.1340206185567C-33.333333333333336,356.1340206185567,-26.666666666666668,356.1340206185567,-20,356.1340206185567C-13.333333333333332,356.1340206185567,-6.666666666666667,356.1340206185567,0,356.1340206185567" style="stroke: rgb(214, 39, 40); stroke-width: 2; fill: none;"/></g><text class="computeSig_label label" text-anchor="end" dx="-5" dy="0.5rem" fill="black" width="200" transform="translate(-180,659.2268041237114)">28</text></g><g class="node computeNode h29 statics" transform="translate(210,0)" style="pointer-events: auto;"><g class="computeSig" stroke="black" style="stroke-width: 2;"><path class="linegg timeline hgroup_3" d="M-180,712.2680412371134C-173.33333333333334,712.2680412371134,-166.66666666666666,712.2680412371134,-160,712.2680412371134C-153.33333333333334,712.2680412371134,-146.66666666666666,712.2680412371134,-140,712.2680412371134C-133.33333333333334,712.2680412371134,-126.66666666666667,712.2680412371134,-120,712.2680412371134C-113.33333333333333,712.2680412371134,-106.66666666666667,712.2680412371134,-100,712.2680412371134C-93.33333333333333,712.2680412371134,-86.66666666666667,712.2680412371134,-80,712.2680412371134C-73.33333333333333,712.2680412371134,-66.66666666666667,712.2680412371134,-60,712.2680412371134C-53.333333333333336,712.2680412371134,-46.666666666666664,712.2680412371134,-40,712.2680412371134C-33.333333333333336,712.2680412371134,-26.666666666666668,712.2680412371134,-20,712.2680412371134C-13.333333333333332,712.2680412371134,-6.666666666666667,712.2680412371134,0,712.2680412371134" style="stroke: rgb(44, 160, 44); stroke-width: 2; fill: none;"/></g><text class="computeSig_label label" text-anchor="end" dx="-5" dy="0.5rem" fill="black" width="200" transform="translate(-180,712.2680412371134)">29</text></g><g class="node computeNode h30 statics" transform="translate(210,0)" style="pointer-events: auto;"><g class="computeSig" stroke="black" style="stroke-width: 2;"><path class="linegg timeline hgroup_2" d="M-180,515.2577319587629C-173.33333333333334,515.2577319587629,-166.66666666666666,515.2577319587629,-160,515.2577319587629C-153.33333333333334,515.2577319587629,-146.66666666666666,515.2577319587629,-140,515.2577319587629C-133.33333333333334,515.2577319587629,-126.66666666666667,515.2577319587629,-120,515.2577319587629C-113.33333333333333,515.2577319587629,-106.66666666666667,515.2577319587629,-100,515.2577319587629C-93.33333333333333,515.2577319587629,-86.66666666666667,515.2577319587629,-80,515.2577319587629C-73.33333333333333,515.2577319587629,-66.66666666666667,515.2577319587629,-60,515.2577319587629C-53.333333333333336,515.2577319587629,-46.666666666666664,515.2577319587629,-40,515.2577319587629C-33.333333333333336,515.2577319587629,-26.666666666666668,515.2577319587629,-20,515.2577319587629C-13.333333333333332,515.2577319587629,-6.666666666666667,515.2577319587629,0,515.2577319587629" style="stroke: rgb(255, 127, 14); stroke-width: 2; fill: none;"/></g><text class="computeSig_label label" text-anchor="end" dx="-5" dy="0.5rem" fill="black" width="200" transform="translate(-180,515.2577319587629)">30</text></g><g class="node computeNode h31 statics" transform="translate(210,0)" style="pointer-events: auto;"><g class="computeSig" stroke="black" style="stroke-width: 2;"><path class="linegg timeline hgroup_4" d="M-180,295.5154639175258C-173.33333333333334,295.5154639175258,-166.66666666666666,295.5154639175258,-160,295.5154639175258C-153.33333333333334,295.5154639175258,-146.66666666666666,295.5154639175258,-140,295.5154639175258C-133.33333333333334,295.5154639175258,-126.66666666666667,295.5154639175258,-120,295.5154639175258C-113.33333333333333,295.5154639175258,-106.66666666666667,295.5154639175258,-100,295.5154639175258C-93.33333333333333,295.5154639175258,-86.66666666666667,295.5154639175258,-80,295.5154639175258C-76.66666666666667,295.5154639175258,-73.33333333333333,295.5154639175258,-70,295.5154639175258C-66.66666666666667,295.5154639175258,-63.333333333333336,363.7113402061856,-60,431.9072164948454" style="stroke: rgb(214, 39, 40); stroke-width: 2; fill: none;"/><path class="linegg timeline hgroup_2" d="M-60,431.9072164948454C-53.333333333333336,431.9072164948454,-46.666666666666664,431.9072164948454,-40,431.9072164948454C-33.333333333333336,431.9072164948454,-26.666666666666668,431.9072164948454,-20,431.9072164948454C-13.333333333333332,431.9072164948454,-6.666666666666667,431.9072164948454,0,431.9072164948454" style="stroke: rgb(255, 127, 14); stroke-width: 2; fill: none;"/></g><text class="computeSig_label label" text-anchor="end" dx="-5" dy="0.5rem" fill="black" width="200" transform="translate(-180,295.5154639175258)">31</text></g><g class="node computeNode h32 statics" transform="translate(210,0)" style="pointer-events: auto;"><g class="computeSig" stroke="black" style="stroke-width: 2;"><path class="linegg timeline hgroup_3" d="M-180,628.9175257731958C-173.33333333333334,628.9175257731958,-166.66666666666666,628.9175257731958,-160,628.9175257731958C-153.33333333333334,628.9175257731958,-146.66666666666666,628.9175257731958,-140,628.9175257731958C-133.33333333333334,628.9175257731958,-126.66666666666667,628.9175257731958,-120,628.9175257731958C-113.33333333333333,628.9175257731958,-106.66666666666667,628.9175257731958,-100,628.9175257731958C-96.66666666666667,628.9175257731958,-93.33333333333333,628.9175257731958,-90,628.9175257731958C-86.66666666666667,628.9175257731958,-83.33333333333333,484.9484536082474,-80,340.97938144329896" style="stroke: rgb(44, 160, 44); stroke-width: 2; fill: none;"/><path class="linegg timeline hgroup_4" d="M-80,340.97938144329896C-73.33333333333333,340.97938144329896,-66.66666666666667,340.97938144329896,-60,340.97938144329896C-53.333333333333336,340.97938144329896,-46.666666666666664,340.97938144329896,-40,340.97938144329896C-33.333333333333336,340.97938144329896,-26.666666666666668,340.97938144329896,-20,340.97938144329896C-16.666666666666668,340.97938144329896,-13.333333333333334,340.97938144329896,-10,340.97938144329896C-6.666666666666666,340.97938144329896,-3.3333333333333335,276.5721649484536,0,212.16494845360822" style="stroke: rgb(214, 39, 40); stroke-width: 2; fill: none;"/><path class="linegg timeline hgroup_1" d="M0,212.16494845360822Z" style="stroke: rgb(31, 119, 180); stroke-width: 2;"/></g><text class="computeSig_label label" text-anchor="end" dx="-5" dy="0.5rem" fill="black" width="200" transform="translate(-180,628.9175257731958)">32</text></g><g class="node computeNode h33 statics" transform="translate(210,0)" style="pointer-events: auto;"><g class="computeSig" stroke="black" style="stroke-width: 2;"><path class="linegg timeline hgroup_2" d="M-180,522.8350515463918C-173.33333333333334,522.8350515463918,-166.66666666666666,522.8350515463918,-160,522.8350515463918C-153.33333333333334,522.8350515463918,-146.66666666666666,522.8350515463918,-140,522.8350515463918C-133.33333333333334,522.8350515463918,-126.66666666666667,522.8350515463918,-120,522.8350515463918C-113.33333333333333,522.8350515463918,-106.66666666666667,522.8350515463918,-100,522.8350515463918C-93.33333333333333,522.8350515463918,-86.66666666666667,522.8350515463918,-80,522.8350515463918C-73.33333333333333,522.8350515463918,-66.66666666666667,522.8350515463918,-60,522.8350515463918C-53.333333333333336,522.8350515463918,-46.666666666666664,522.8350515463918,-40,522.8350515463918C-33.333333333333336,522.8350515463918,-26.666666666666668,522.8350515463918,-20,522.8350515463918C-13.333333333333332,522.8350515463918,-6.666666666666667,522.8350515463918,0,522.8350515463918" style="stroke: rgb(255, 127, 14); stroke-width: 2; fill: none;"/></g><text class="computeSig_label label" text-anchor="end" dx="-5" dy="0.5rem" fill="black" width="200" transform="translate(-180,522.8350515463918)">33</text></g><g class="node computeNode h34 statics" transform="translate(210,0)" style="pointer-events: auto;"><g class="computeSig" stroke="black" style="stroke-width: 2;"><path class="linegg timeline hgroup_2" d="M-180,447.06185567010306C-173.33333333333334,447.06185567010306,-166.66666666666666,447.06185567010306,-160,447.06185567010306C-153.33333333333334,447.06185567010306,-146.66666666666666,447.06185567010306,-140,447.06185567010306C-133.33333333333334,447.06185567010306,-126.66666666666667,447.06185567010306,-120,447.06185567010306C-113.33333333333333,447.06185567010306,-106.66666666666667,447.06185567010306,-100,447.06185567010306C-96.66666666666667,447.06185567010306,-93.33333333333333,447.06185567010306,-90,447.06185567010306C-86.66666666666667,447.06185567010306,-83.33333333333333,378.86597938144325,-80,310.6701030927835" style="stroke: rgb(255, 127, 14); stroke-width: 2; fill: none;"/><path class="linegg timeline hgroup_4" d="M-80,310.6701030927835C-73.33333333333333,310.6701030927835,-66.66666666666667,310.6701030927835,-60,310.6701030927835C-53.333333333333336,310.6701030927835,-46.666666666666664,310.6701030927835,-40,310.6701030927835C-33.333333333333336,310.6701030927835,-26.666666666666668,310.6701030927835,-20,310.6701030927835C-13.333333333333332,310.6701030927835,-6.666666666666667,310.6701030927835,0,310.6701030927835" style="stroke: rgb(214, 39, 40); stroke-width: 2; fill: none;"/></g><text class="computeSig_label label" text-anchor="end" dx="-5" dy="0.5rem" fill="black" width="200" transform="translate(-180,447.06185567010306)">34</text></g><g class="node computeNode h35 statics" transform="translate(210,0)" style="pointer-events: auto;"><g class="computeSig" stroke="black" style="stroke-width: 2;"><path class="linegg timeline hgroup_1" d="M-180,181.8556701030928C-173.33333333333334,181.8556701030928,-166.66666666666666,181.8556701030928,-160,181.8556701030928C-153.33333333333334,181.8556701030928,-146.66666666666666,181.8556701030928,-140,181.8556701030928C-133.33333333333334,181.8556701030928,-126.66666666666667,181.8556701030928,-120,181.8556701030928C-113.33333333333333,181.8556701030928,-106.66666666666667,181.8556701030928,-100,181.8556701030928C-93.33333333333333,181.8556701030928,-86.66666666666667,181.8556701030928,-80,181.8556701030928C-73.33333333333333,181.8556701030928,-66.66666666666667,181.8556701030928,-60,181.8556701030928C-53.333333333333336,181.8556701030928,-46.666666666666664,181.8556701030928,-40,181.8556701030928C-36.666666666666664,181.8556701030928,-33.333333333333336,181.8556701030928,-30,181.8556701030928C-26.666666666666668,181.8556701030928,-23.333333333333332,386.4432989690722,-20,591.0309278350516" style="stroke: rgb(31, 119, 180); stroke-width: 2; fill: none;"/><path class="linegg timeline hgroup_3" d="M-20,591.0309278350516L0,591.0309278350516" style="stroke: rgb(44, 160, 44); stroke-width: 2; fill: none;"/></g><text class="computeSig_label label" text-anchor="end" dx="-5" dy="0.5rem" fill="black" width="200" transform="translate(-180,181.8556701030928)">35</text></g><g class="node computeNode h36 statics" transform="translate(210,0)" style="pointer-events: auto;"><g class="computeSig" stroke="black" style="stroke-width: 2;"><path class="linegg timeline hgroup_1" d="M-180,136.3917525773196C-173.33333333333334,136.3917525773196,-166.66666666666666,136.3917525773196,-160,136.3917525773196C-153.33333333333334,136.3917525773196,-146.66666666666666,136.3917525773196,-140,136.3917525773196C-133.33333333333334,136.3917525773196,-126.66666666666667,136.3917525773196,-120,136.3917525773196C-113.33333333333333,136.3917525773196,-106.66666666666667,136.3917525773196,-100,136.3917525773196C-93.33333333333333,136.3917525773196,-86.66666666666667,136.3917525773196,-80,136.3917525773196C-73.33333333333333,136.3917525773196,-66.66666666666667,136.3917525773196,-60,136.3917525773196C-53.333333333333336,136.3917525773196,-46.666666666666664,136.3917525773196,-40,136.3917525773196C-33.333333333333336,136.3917525773196,-26.666666666666668,136.3917525773196,-20,136.3917525773196C-13.333333333333332,136.3917525773196,-6.666666666666667,136.3917525773196,0,136.3917525773196" style="stroke: rgb(31, 119, 180); stroke-width: 2; fill: none;"/></g><text class="computeSig_label label" text-anchor="end" dx="-5" dy="0.5rem" fill="black" width="200" transform="translate(-180,136.39175257731958)">36</text></g><g class="node computeNode h37 statics" transform="translate(210,0)" style="pointer-events: auto;"><g class="computeSig" stroke="black" style="stroke-width: 2;"><path class="linegg timeline hgroup_5" d="M-180,15.154639175257785C-173.33333333333334,15.154639175257785,-166.66666666666666,15.154639175257785,-160,15.154639175257785C-153.33333333333334,15.154639175257785,-146.66666666666666,15.154639175257785,-140,15.154639175257785C-133.33333333333334,15.154639175257785,-126.66666666666667,15.154639175257785,-120,15.154639175257785C-113.33333333333333,15.154639175257785,-106.66666666666667,15.154639175257785,-100,15.154639175257785C-93.33333333333333,15.154639175257785,-86.66666666666667,15.154639175257785,-80,15.154639175257785C-73.33333333333333,15.154639175257785,-66.66666666666667,15.154639175257785,-60,15.154639175257785C-53.333333333333336,15.154639175257785,-46.666666666666664,15.154639175257785,-40,15.154639175257785C-33.333333333333336,15.154639175257785,-26.666666666666668,15.154639175257785,-20,15.154639175257785C-16.666666666666668,15.154639175257731,-13.333333333333334,15.154639175257731,-10,15.154639175257731C-6.666666666666666,15.154639175257731,-3.3333333333333335,121.23711340206185,0,227.31958762886597" style="stroke: rgb(148, 103, 189); stroke-width: 2; fill: none;"/><path class="linegg timeline hgroup_4" d="M0,227.31958762886597Z" style="stroke: rgb(214, 39, 40); stroke-width: 2;"/></g><text class="computeSig_label label" text-anchor="end" dx="-5" dy="0.5rem" fill="black" width="200" transform="translate(-180,15.154639175257731)">37</text></g><g class="node computeNode h38 statics" transform="translate(210,0)" style="pointer-events: auto;"><g class="computeSig" stroke="black" style="stroke-width: 2;"><path class="linegg timeline hgroup_1" d="M-180,143.96907216494844C-173.33333333333334,143.96907216494844,-166.66666666666666,143.96907216494844,-160,143.96907216494844C-153.33333333333334,143.96907216494844,-146.66666666666666,143.96907216494844,-140,143.96907216494844C-133.33333333333334,143.96907216494844,-126.66666666666667,143.96907216494844,-120,143.96907216494844C-113.33333333333333,143.96907216494844,-106.66666666666667,143.96907216494844,-100,143.96907216494844C-93.33333333333333,143.96907216494844,-86.66666666666667,143.96907216494844,-80,143.96907216494844C-73.33333333333333,143.96907216494844,-66.66666666666667,143.96907216494844,-60,143.96907216494844C-53.333333333333336,143.96907216494844,-46.666666666666664,143.96907216494844,-40,143.96907216494844C-33.333333333333336,143.96907216494844,-26.666666666666668,143.96907216494844,-20,143.96907216494844C-13.333333333333332,143.96907216494844,-6.666666666666667,143.96907216494844,0,143.96907216494844" style="stroke: rgb(31, 119, 180); stroke-width: 2; fill: none;"/></g><text class="computeSig_label label" text-anchor="end" dx="-5" dy="0.5rem" fill="black" width="200" transform="translate(-180,143.96907216494844)">38</text></g><g class="node computeNode h39 statics" transform="translate(210,0)" style="pointer-events: auto;"><g class="computeSig" stroke="black" style="stroke-width: 2;"><path class="linegg timeline hgroup_5" d="M-180,83.35051546391753C-176.66666666666666,83.35051546391753,-173.33333333333334,83.35051546391753,-170,83.35051546391753C-166.66666666666666,83.35051546391753,-163.33333333333334,143.96907216494844,-160,204.58762886597938" style="stroke: rgb(148, 103, 189); stroke-width: 2;"/><path class="linegg timeline hgroup_1" d="M-160,204.58762886597938C-156.66666666666666,204.58762886597938,-153.33333333333334,204.58762886597938,-150,204.58762886597938C-146.66666666666666,204.58762886597938,-143.33333333333334,242.4742268041237,-140,280.36082474226805" style="stroke: rgb(31, 119, 180); stroke-width: 2;"/><path class="linegg timeline hgroup_4" d="M-140,280.36082474226805C-133.33333333333334,280.36082474226805,-126.66666666666667,280.36082474226805,-120,280.36082474226805C-113.33333333333333,280.36082474226805,-106.66666666666667,280.36082474226805,-100,280.36082474226805C-96.66666666666667,280.36082474226805,-93.33333333333333,280.36082474226805,-90,280.36082474226805C-86.66666666666667,280.36082474226805,-83.33333333333333,348.5567010309278,-80,416.7525773195876" style="stroke: rgb(214, 39, 40); stroke-width: 2; fill: none;"/><path class="linegg timeline hgroup_2" d="M-80,416.7525773195876C-73.33333333333333,416.7525773195876,-66.66666666666667,416.7525773195876,-60,416.7525773195876C-53.333333333333336,416.7525773195876,-46.666666666666664,416.7525773195876,-40,416.7525773195876C-33.333333333333336,416.7525773195876,-26.666666666666668,416.7525773195876,-20,416.7525773195876C-13.333333333333332,416.7525773195876,-6.666666666666667,416.7525773195876,0,416.7525773195876" style="stroke: rgb(255, 127, 14); stroke-width: 2; fill: none;"/></g><text class="computeSig_label label" text-anchor="end" dx="-5" dy="0.5rem" fill="black" width="200" transform="translate(-180,83.35051546391753)">39</text></g><g class="node computeNode h40 statics" transform="translate(210,0)" style="pointer-events: auto;"><g class="computeSig" stroke="black" style="stroke-width: 2;"><path class="linegg timeline hgroup_1" d="M-180,113.65979381443299C-176.66666666666666,113.65979381443299,-173.33333333333334,113.65979381443299,-170,113.65979381443299C-166.66666666666666,113.65979381443299,-163.33333333333334,75.77319587628867,-160,37.88659793814433" style="stroke: rgb(31, 119, 180); stroke-width: 2;"/><path class="linegg timeline hgroup_5" d="M-160,37.88659793814429C-153.33333333333334,37.88659793814429,-146.66666666666666,37.88659793814433,-140,37.88659793814433C-136.66666666666666,37.88659793814433,-133.33333333333334,37.88659793814433,-130,37.88659793814433C-126.66666666666667,37.88659793814433,-123.33333333333333,75.77319587628865,-120,113.65979381443299" style="stroke: rgb(148, 103, 189); stroke-width: 2; fill: none;"/><path class="linegg timeline hgroup_1" d="M-120,113.65979381443299C-113.33333333333333,113.65979381443299,-106.66666666666667,113.65979381443299,-100,113.65979381443299C-93.33333333333333,113.65979381443299,-86.66666666666667,113.65979381443299,-80,113.65979381443299C-73.33333333333333,113.65979381443299,-66.66666666666667,113.65979381443299,-60,113.65979381443299C-53.333333333333336,113.65979381443299,-46.666666666666664,113.65979381443299,-40,113.65979381443299C-33.333333333333336,113.65979381443299,-26.666666666666668,113.65979381443299,-20,113.65979381443299C-13.333333333333332,113.65979381443299,-6.666666666666667,113.65979381443299,0,113.65979381443299" style="stroke: rgb(31, 119, 180); stroke-width: 2; fill: none;"/></g><text class="computeSig_label label" text-anchor="end" dx="-5" dy="0.5rem" fill="black" width="200" transform="translate(-180,113.65979381443299)">40</text></g><g class="node computeNode h41 statics" transform="translate(210,0)" style="pointer-events: auto;"><g class="computeSig" stroke="black" style="stroke-width: 2;"><path class="linegg timeline hgroup_4" d="M-180,250.0515463917526C-173.33333333333334,250.0515463917526,-166.66666666666666,250.0515463917526,-160,250.0515463917526C-153.33333333333334,250.0515463917526,-146.66666666666666,250.0515463917526,-140,250.0515463917526C-136.66666666666666,250.0515463917526,-133.33333333333334,250.0515463917526,-130,250.0515463917526C-126.66666666666667,250.0515463917526,-123.33333333333333,208.37628865979383,-120,166.70103092783506" style="stroke: rgb(214, 39, 40); stroke-width: 2; fill: none;"/><path class="linegg timeline hgroup_1" d="M-120,166.70103092783506C-113.33333333333333,166.70103092783506,-106.66666666666667,166.70103092783506,-100,166.70103092783506C-93.33333333333333,166.70103092783506,-86.66666666666667,166.70103092783506,-80,166.70103092783506C-73.33333333333333,166.70103092783506,-66.66666666666667,166.70103092783506,-60,166.70103092783506C-53.333333333333336,166.70103092783506,-46.666666666666664,166.70103092783506,-40,166.70103092783506C-33.333333333333336,166.70103092783506,-26.666666666666668,166.70103092783506,-20,166.70103092783506C-13.333333333333332,166.70103092783506,-6.666666666666667,166.70103092783506,0,166.70103092783506" style="stroke: rgb(31, 119, 180); stroke-width: 2; fill: none;"/></g><text class="computeSig_label label" text-anchor="end" dx="-5" dy="0.5rem" fill="black" width="200" transform="translate(-180,250.0515463917526)">41</text></g><g class="node computeNode h42 statics" transform="translate(210,0)" style="pointer-events: auto;"><g class="computeSig" stroke="black" style="stroke-width: 2;"><path class="linegg timeline hgroup_3" d="M-180,719.8453608247422C-173.33333333333334,719.8453608247422,-166.66666666666666,719.8453608247422,-160,719.8453608247422C-153.33333333333334,719.8453608247422,-146.66666666666666,719.8453608247422,-140,719.8453608247422C-133.33333333333334,719.8453608247422,-126.66666666666667,719.8453608247422,-120,719.8453608247422C-113.33333333333333,719.8453608247422,-106.66666666666667,719.8453608247422,-100,719.8453608247422C-93.33333333333333,719.8453608247422,-86.66666666666667,719.8453608247422,-80,719.8453608247422C-73.33333333333333,719.8453608247422,-66.66666666666667,719.8453608247422,-60,719.8453608247422C-53.333333333333336,719.8453608247422,-46.666666666666664,719.8453608247422,-40,719.8453608247422C-33.333333333333336,719.8453608247422,-26.666666666666668,719.8453608247422,-20,719.8453608247422C-13.333333333333332,719.8453608247422,-6.666666666666667,719.8453608247422,0,719.8453608247422" style="stroke: rgb(44, 160, 44); stroke-width: 2; fill: none;"/></g><text class="computeSig_label label" text-anchor="end" dx="-5" dy="0.5rem" fill="black" width="200" transform="translate(-180,719.8453608247422)">42</text></g><g class="node computeNode h43 statics" transform="translate(210,0)" style="pointer-events: auto;"><g class="computeSig" stroke="black" style="stroke-width: 2;"><path class="linegg timeline hgroup_3" d="M-180,727.4226804123712C-173.33333333333334,727.4226804123712,-166.66666666666666,727.4226804123712,-160,727.4226804123712C-153.33333333333334,727.4226804123712,-146.66666666666666,727.4226804123712,-140,727.4226804123712C-133.33333333333334,727.4226804123712,-126.66666666666667,727.4226804123712,-120,727.4226804123712C-113.33333333333333,727.4226804123712,-106.66666666666667,727.4226804123712,-100,727.4226804123712C-93.33333333333333,727.4226804123712,-86.66666666666667,727.4226804123712,-80,727.4226804123712C-73.33333333333333,727.4226804123712,-66.66666666666667,727.4226804123712,-60,727.4226804123712C-53.333333333333336,727.4226804123712,-46.666666666666664,727.4226804123712,-40,727.4226804123712C-33.333333333333336,727.4226804123712,-26.666666666666668,727.4226804123712,-20,727.4226804123712C-13.333333333333332,727.4226804123712,-6.666666666666667,727.4226804123712,0,727.4226804123712" style="stroke: rgb(44, 160, 44); stroke-width: 2; fill: none;"/></g><text class="computeSig_label label" text-anchor="end" dx="-5" dy="0.5rem" fill="black" width="200" transform="translate(-180,727.4226804123712)">43</text></g><g class="node computeNode h44 statics" transform="translate(210,0)" style="pointer-events: auto;"><g class="computeSig" stroke="black" style="stroke-width: 2;"><path class="linegg timeline hgroup_1" d="M-180,219.74226804123714C-173.33333333333334,219.74226804123714,-166.66666666666666,219.7422680412371,-160,219.7422680412371C-156.66666666666666,219.7422680412371,-153.33333333333334,219.7422680412371,-150,219.7422680412371C-146.66666666666666,219.7422680412371,-143.33333333333334,447.0618556701031,-140,674.3814432989691" style="stroke: rgb(31, 119, 180); stroke-width: 2; fill: none;"/><path class="linegg timeline hgroup_3" d="M-140,674.3814432989691C-133.33333333333334,674.3814432989691,-126.66666666666667,674.3814432989691,-120,674.3814432989691C-113.33333333333333,674.3814432989691,-106.66666666666667,674.3814432989691,-100,674.3814432989691C-93.33333333333333,674.3814432989691,-86.66666666666667,674.3814432989691,-80,674.3814432989691C-73.33333333333333,674.3814432989691,-66.66666666666667,674.3814432989691,-60,674.3814432989691C-53.333333333333336,674.3814432989691,-46.666666666666664,674.3814432989691,-40,674.3814432989691C-33.333333333333336,674.3814432989691,-26.666666666666668,674.3814432989691,-20,674.3814432989691C-16.666666666666668,674.3814432989691,-13.333333333333334,674.3814432989691,-10,674.3814432989691C-6.666666666666666,674.3814432989691,-3.3333333333333335,613.7628865979382,0,553.1443298969073" style="stroke: rgb(44, 160, 44); stroke-width: 2; fill: none;"/><path class="linegg timeline hgroup_2" d="M0,553.1443298969073Z" style="stroke: rgb(255, 127, 14); stroke-width: 2;"/></g><text class="computeSig_label label" text-anchor="end" dx="-5" dy="0.5rem" fill="black" width="200" transform="translate(-180,219.7422680412371)">44</text></g><g class="node computeNode h45 statics" transform="translate(210,0)" style="pointer-events: auto;"><g class="computeSig" stroke="black" style="stroke-width: 2;"><path class="linegg timeline hgroup_4" d="M-180,318.2474226804124C-173.33333333333334,318.2474226804124,-166.66666666666666,318.2474226804124,-160,318.2474226804124C-153.33333333333334,318.2474226804124,-146.66666666666666,318.2474226804124,-140,318.2474226804124C-133.33333333333334,318.2474226804124,-126.66666666666667,318.2474226804124,-120,318.2474226804124C-113.33333333333333,318.2474226804124,-106.66666666666667,318.2474226804124,-100,318.2474226804124C-96.66666666666667,318.2474226804124,-93.33333333333333,318.2474226804124,-90,318.2474226804124C-86.66666666666667,318.2474226804124,-83.33333333333333,386.4432989690722,-80,454.63917525773195" style="stroke: rgb(214, 39, 40); stroke-width: 2; fill: none;"/><path class="linegg timeline hgroup_2" d="M-80,454.63917525773195C-73.33333333333333,454.63917525773195,-66.66666666666667,454.63917525773195,-60,454.63917525773195C-53.333333333333336,454.63917525773195,-46.666666666666664,454.63917525773195,-40,454.63917525773195C-33.333333333333336,454.63917525773195,-26.666666666666668,454.63917525773195,-20,454.63917525773195C-13.333333333333332,454.63917525773195,-6.666666666666667,454.63917525773195,0,454.63917525773195" style="stroke: rgb(255, 127, 14); stroke-width: 2; fill: none;"/></g><text class="computeSig_label label" text-anchor="end" dx="-5" dy="0.5rem" fill="black" width="200" transform="translate(-180,318.2474226804124)">45</text></g><g class="node computeNode h46 statics" transform="translate(210,0)" style="pointer-events: auto;"><g class="computeSig" stroke="black" style="stroke-width: 2;"><path class="linegg timeline hgroup_3" d="M-180,735C-173.33333333333334,735,-166.66666666666666,735,-160,735C-153.33333333333334,735,-146.66666666666666,735,-140,735C-133.33333333333334,735,-126.66666666666667,735,-120,735C-113.33333333333333,735,-106.66666666666667,735,-100,735C-93.33333333333333,735,-86.66666666666667,735,-80,735C-73.33333333333333,735,-66.66666666666667,735,-60,735C-53.333333333333336,735,-46.666666666666664,735,-40,735C-33.333333333333336,735,-26.666666666666668,735,-20,735C-13.333333333333332,735,-6.666666666666667,735,0,735" style="stroke: rgb(44, 160, 44); stroke-width: 2; fill: none;"/></g><text class="computeSig_label label" text-anchor="end" dx="-5" dy="0.5rem" fill="black" width="200" transform="translate(-180,735)">46</text></g><g class="node computeNode h47 statics" transform="translate(210,0)" style="pointer-events: auto;"><g class="computeSig" stroke="black" style="stroke-width: 2;"><path class="linegg timeline hgroup_2" d="M-180,530.4123711340206C-173.33333333333334,530.4123711340206,-166.66666666666666,530.4123711340206,-160,530.4123711340206C-153.33333333333334,530.4123711340206,-146.66666666666666,530.4123711340206,-140,530.4123711340206C-133.33333333333334,530.4123711340206,-126.66666666666667,530.4123711340206,-120,530.4123711340206C-113.33333333333333,530.4123711340206,-106.66666666666667,530.4123711340206,-100,530.4123711340206C-93.33333333333333,530.4123711340206,-86.66666666666667,530.4123711340206,-80,530.4123711340206C-73.33333333333333,530.4123711340206,-66.66666666666667,530.4123711340206,-60,530.4123711340206C-53.333333333333336,530.4123711340206,-46.666666666666664,530.4123711340206,-40,530.4123711340206C-33.333333333333336,530.4123711340206,-26.666666666666668,530.4123711340206,-20,530.4123711340206C-13.333333333333332,530.4123711340206,-6.666666666666667,530.4123711340206,0,530.4123711340206" style="stroke: rgb(255, 127, 14); stroke-width: 2; fill: none;"/></g><text class="computeSig_label label" text-anchor="end" dx="-5" dy="0.5rem" fill="black" width="200" transform="translate(-180,530.4123711340206)">47</text></g><g class="node computeNode h48 statics" transform="translate(210,0)" style="pointer-events: auto;"><g class="computeSig" stroke="black" style="stroke-width: 2;"><path class="linegg timeline hgroup_1" d="M-180,151.54639175257728C-173.33333333333334,151.54639175257728,-166.66666666666666,151.54639175257728,-160,151.54639175257728C-153.33333333333334,151.54639175257728,-146.66666666666666,151.54639175257728,-140,151.54639175257728C-133.33333333333334,151.54639175257728,-126.66666666666667,151.54639175257728,-120,151.54639175257728C-113.33333333333333,151.54639175257728,-106.66666666666667,151.54639175257728,-100,151.54639175257728C-93.33333333333333,151.54639175257728,-86.66666666666667,151.54639175257728,-80,151.54639175257728C-73.33333333333333,151.54639175257728,-66.66666666666667,151.54639175257728,-60,151.54639175257728C-53.333333333333336,151.54639175257728,-46.666666666666664,151.54639175257728,-40,151.54639175257728C-33.333333333333336,151.54639175257728,-26.666666666666668,151.54639175257728,-20,151.54639175257728C-13.333333333333332,151.54639175257728,-6.666666666666667,151.54639175257728,0,151.54639175257728" style="stroke: rgb(31, 119, 180); stroke-width: 2; fill: none;"/></g><text class="computeSig_label label" text-anchor="end" dx="-5" dy="0.5rem" fill="black" width="200" transform="translate(-180,151.5463917525773)">48</text></g><g class="node computeNode h49 statics" transform="translate(210,0)" style="pointer-events: auto;"><g class="computeSig" stroke="black" style="stroke-width: 2;"><path class="linegg timeline hgroup_3" d="M-180,636.4948453608248C-176.66666666666666,636.4948453608248,-173.33333333333334,636.4948453608248,-170,636.4948453608248C-166.66666666666666,636.4948453608248,-163.33333333333334,556.9329896907217,-160,477.37113402061857" style="stroke: rgb(44, 160, 44); stroke-width: 2;"/><path class="linegg timeline hgroup_2" d="M-160,477.37113402061857C-153.33333333333334,477.37113402061857,-146.66666666666666,477.37113402061857,-140,477.37113402061857C-133.33333333333334,477.37113402061857,-126.66666666666667,477.37113402061857,-120,477.37113402061857C-116.66666666666667,477.37113402061857,-113.33333333333333,477.37113402061857,-110,477.37113402061857C-106.66666666666667,477.37113402061857,-103.33333333333333,412.9639175257732,-100,348.5567010309278" style="stroke: rgb(255, 127, 14); stroke-width: 2; fill: none;"/><path class="linegg timeline hgroup_4" d="M-100,348.5567010309278C-93.33333333333333,348.5567010309278,-86.66666666666667,348.5567010309278,-80,348.5567010309278C-73.33333333333333,348.5567010309278,-66.66666666666667,348.5567010309278,-60,348.5567010309278C-53.333333333333336,348.5567010309278,-46.666666666666664,348.5567010309278,-40,348.5567010309278C-36.666666666666664,348.5567010309278,-33.333333333333336,348.5567010309278,-30,348.5567010309278C-26.666666666666668,348.5567010309278,-23.333333333333332,492.5257731958763,-20,636.4948453608248" style="stroke: rgb(214, 39, 40); stroke-width: 2; fill: none;"/><path class="linegg timeline hgroup_3" d="M-20,636.4948453608248L0,636.4948453608248" style="stroke: rgb(44, 160, 44); stroke-width: 2; fill: none;"/></g><text class="computeSig_label label" text-anchor="end" dx="-5" dy="0.5rem" fill="black" width="200" transform="translate(-180,636.4948453608248)">49</text></g><g class="node computeNode h50 statics" transform="translate(210,0)" style="pointer-events: auto;"><g class="computeSig" stroke="black" style="stroke-width: 2;"><path class="linegg timeline hgroup_4" d="M-180,363.7113402061856C-173.33333333333334,363.7113402061856,-166.66666666666666,363.7113402061856,-160,363.7113402061856C-153.33333333333334,363.7113402061856,-146.66666666666666,363.7113402061856,-140,363.7113402061856C-133.33333333333334,363.7113402061856,-126.66666666666667,363.7113402061856,-120,363.7113402061856C-116.66666666666667,363.7113402061856,-113.33333333333333,363.7113402061856,-110,363.7113402061856C-106.66666666666667,363.7113402061856,-103.33333333333333,515.2577319587629,-100,666.8041237113403" style="stroke: rgb(214, 39, 40); stroke-width: 2; fill: none;"/><path class="linegg timeline hgroup_3" d="M-100,666.8041237113403C-93.33333333333333,666.8041237113403,-86.66666666666667,666.8041237113403,-80,666.8041237113403C-73.33333333333333,666.8041237113403,-66.66666666666667,666.8041237113403,-60,666.8041237113403C-53.333333333333336,666.8041237113403,-46.666666666666664,666.8041237113403,-40,666.8041237113403C-33.333333333333336,666.8041237113403,-26.666666666666668,666.8041237113403,-20,666.8041237113403C-13.333333333333332,666.8041237113403,-6.666666666666667,666.8041237113403,0,666.8041237113403" style="stroke: rgb(44, 160, 44); stroke-width: 2; fill: none;"/></g><text class="computeSig_label label" text-anchor="end" dx="-5" dy="0.5rem" fill="black" width="200" transform="translate(-180,363.7113402061856)">50</text></g></g><rect class="fisheyeLayer" style="opacity: 0; pointer-events: none;" width="180" height="780" transform="translate(120,0)"/><g class="table header" transform="translate(600,0)"><g class="back"><path style="fill: rgb(221, 221, 221);"/></g></g></g><g class="timebox hide" transform="translate(40,20)" dy="1rem" style="font-size: 16px;"/><circle id="tipfollowscursor"/></svg>