<svg id="jobmap" width="300" height="850" style="fill: none; font-size: 10px; font-family: sans-serif;" xmlns="http://www.w3.org/2000/svg" xmlns:xlink="http://www.w3.org/1999/xlink">

                    <defs id="defsmain"><pattern id="userpic" width="100%" height="100%" patternContentUnits="objectBoundingBox"><image height="1" width="1" preserveAspectRatio="none" xmlns:xlink="http://www.w3.org/1999/xlink" xlink:href="src/images/u.png"/></pattern><marker id="arrow" markerWidth="10" markerHeight="10" refX="0" refY="3" orient="auto" markerUnits="strokeWidth"><path d="M0,0 L0,6 L9,3 z" style="fill: black;"/></marker></defs><rect class="pantarget" opacity="0" width="1336" height="762"/><g class="pannel" transform="translate(50,50)"><text class="Time" text-anchor="middle" x="40" dy="-30" style="font-weight: bold; fill: black;">Time</text><line x1="60" x2="95" y1="-33" y2="-33" marker-end="url(#arrow)" style="stroke: black;"/><text class="Time" text-anchor="middle" x="-5" dy="-1rem" style="font-weight: bold; fill: black;">Instance</text><line x1="5" x2="5" y1="-5" y2="30" marker-end="url(#arrow)" style="stroke: black;"/><g class="gNodeaxis" transform="translate(210,-10)"><g class="gMainaxis" fill="none" font-size="10" font-family="sans-serif" text-anchor="middle"><g class="tick" opacity="1" transform="translate(-180, 0)"><line stroke="#000" y2="745" vector-effect="non-scaling-stroke" style="stroke-width: 0.1; stroke: black; stroke-dasharray: 1, 2; opacity: 0.5;"/><text fill="#000" y="-3" dy="-0.5rem">1</text></g><g class="tick" opacity="1" transform="translate(-160, 0)"><line stroke="#000" y2="745" vector-effect="non-scaling-stroke" style="stroke-width: 0.1; stroke: black; stroke-dasharray: 1, 2; opacity: 0.5;"/><text fill="#000" y="-3" dy="-0.5rem">2</text></g><g class="tick" opacity="1" transform="translate(-140, 0)"><line stroke="#000" y2="745" vector-effect="non-scaling-stroke" style="stroke-width: 0.1; stroke: black; stroke-dasharray: 1, 2; opacity: 0.5;"/><text fill="#000" y="-3" dy="-0.5rem">3</text></g><g class="tick" opacity="1" transform="translate(-120, 0)"><line stroke="#000" y2="745" vector-effect="non-scaling-stroke" style="stroke-width: 0.1; stroke: black; stroke-dasharray: 1, 2; opacity: 0.5;"/><text fill="#000" y="-3" dy="-0.5rem">4</text></g><g class="tick" opacity="1" transform="translate(-100, 0)"><line stroke="#000" y2="745" vector-effect="non-scaling-stroke" style="stroke-width: 0.1; stroke: black; stroke-dasharray: 1, 2; opacity: 0.5;"/><text fill="#000" y="-3" dy="-0.5rem">5</text></g><g class="tick" opacity="1" transform="translate(-80, 0)"><line stroke="#000" y2="745" vector-effect="non-scaling-stroke" style="stroke-width: 0.1; stroke: black; stroke-dasharray: 1, 2; opacity: 0.5;"/><text fill="#000" y="-3" dy="-0.5rem">6</text></g><g class="tick" opacity="1" transform="translate(-60, 0)"><line stroke="#000" y2="745" vector-effect="non-scaling-stroke" style="stroke-width: 0.1; stroke: black; stroke-dasharray: 1, 2; opacity: 0.5;"/><text fill="#000" y="-3" dy="-0.5rem">7</text></g><g class="tick" opacity="1" transform="translate(-40, 0)"><line stroke="#000" y2="745" vector-effect="non-scaling-stroke" style="stroke-width: 0.1; stroke: black; stroke-dasharray: 1, 2; opacity: 0.5;"/><text fill="#000" y="-3" dy="-0.5rem">8</text></g><g class="tick" opacity="1" transform="translate(-20, 0)"><line stroke="#000" y2="745" vector-effect="non-scaling-stroke" style="stroke-width: 0.1; stroke: black; stroke-dasharray: 1, 2; opacity: 0.5;"/><text fill="#000" y="-3" dy="-0.5rem">9</text></g><g class="tick" opacity="1" transform=""><line stroke="#000" y2="745" vector-effect="non-scaling-stroke" style="stroke-width: 0.1; stroke: black; stroke-dasharray: 1, 2; opacity: 0.5;"/><text fill="#000" y="-3" dy="-0.5rem">10</text></g></g><g class="gSubaxis hide"/></g><g class="annotation"/><g class="linkg"><g class="links" style="display: none;"><path stroke="black" style="stroke-width: 2;"/><text text-anchor="middle">1</text></g><g class="links" style="display: none;"><path stroke="black" style="stroke-width: 2;"/><text text-anchor="middle">1</text></g><g class="links" style="display: none;"><path stroke="black" style="stroke-width: 2;"/><text text-anchor="middle">1</text></g><g class="links" style="display: none;"><path stroke="black" style="stroke-width: 2;"/><text text-anchor="middle">1</text></g><g class="links" style="display: none;"><path stroke="black" style="stroke-width: 2;"/><text text-anchor="middle">1</text></g><g class="links" style="display: none;"><path stroke="black" style="stroke-width: 2;"/><text text-anchor="middle">1</text></g><g class="links" style="display: none;"><path stroke="black" style="stroke-width: 2;"/><text text-anchor="middle">1</text></g><g class="links" style="display: none;"><path stroke="black" style="stroke-width: 2;"/><text text-anchor="middle">1</text></g><g class="links" style="display: none;"><path stroke="black" style="stroke-width: 2;"/><text text-anchor="middle">1</text></g><g class="links" style="display: none;"><path stroke="black" style="stroke-width: 2;"/><text text-anchor="middle">1</text></g><g class="links" style="display: none;"><path stroke="black" style="stroke-width: 2;"/><text text-anchor="middle">1</text></g><g class="links" style="display: none;"><path stroke="black" style="stroke-width: 2;"/><text text-anchor="middle">1</text></g><g class="links" style="display: none;"><path stroke="black" style="stroke-width: 2;"/><text text-anchor="middle">1</text></g><g class="links" style="display: none;"><path stroke="black" style="stroke-width: 2;"/><text text-anchor="middle">1</text></g><g class="links" style="display: none;"><path stroke="black" style="stroke-width: 2;"/><text text-anchor="middle">1</text></g><g class="links" style="display: none;"><path stroke="black" style="stroke-width: 2;"/><text text-anchor="middle">1</text></g><g class="links" style="display: none;"><path stroke="black" style="stroke-width: 2;"/><text text-anchor="middle">1</text></g><g class="links" style="display: none;"><path stroke="black" style="stroke-width: 2;"/><text text-anchor="middle">1</text></g><g class="links" style="display: none;"><path stroke="black" style="stroke-width: 2;"/><text text-anchor="middle">1</text></g><g class="links" style="display: none;"><path stroke="black" style="stroke-width: 2;"/><text text-anchor="middle">1</text></g><g class="links" style="display: none;"><path stroke="black" style="stroke-width: 2;"/><text text-anchor="middle">1</text></g><g class="links" style="display: none;"><path stroke="black" style="stroke-width: 2;"/><text text-anchor="middle">1</text></g><g class="links" style="display: none;"><path stroke="black" style="stroke-width: 2;"/><text text-anchor="middle">1</text></g><g class="links" style="display: none;"><path stroke="black" style="stroke-width: 2;"/><text text-anchor="middle">1</text></g><g class="links" style="display: none;"><path stroke="black" style="stroke-width: 2;"/><text text-anchor="middle">1</text></g><g class="links" style="display: none;"><path stroke="black" style="stroke-width: 2;"/><text text-anchor="middle">1</text></g><g class="links" style="display: none;"><path stroke="black" style="stroke-width: 2;"/><text text-anchor="middle">1</text></g><g class="links" style="display: none;"><path stroke="black" style="stroke-width: 2;"/><text text-anchor="middle">1</text></g><g class="links" style="display: none;"><path stroke="black" style="stroke-width: 2;"/><text text-anchor="middle">1</text></g><g class="links" style="display: none;"><path stroke="black" style="stroke-width: 2;"/><text text-anchor="middle">1</text></g><g class="links" style="display: none;"><path stroke="black" style="stroke-width: 2;"/><text text-anchor="middle">1</text></g><g class="links" style="display: none;"><path stroke="black" style="stroke-width: 2;"/><text text-anchor="middle">1</text></g><g class="links" style="display: none;"><path stroke="black" style="stroke-width: 2;"/><text text-anchor="middle">1</text></g><g class="links" style="display: none;"><path stroke="black" style="stroke-width: 2;"/><text text-anchor="middle">1</text></g><g class="links" style="display: none;"><path stroke="black" style="stroke-width: 2;"/><text text-anchor="middle">1</text></g><g class="links" style="display: none;"><path stroke="black" style="stroke-width: 2;"/><text text-anchor="middle">1</text></g><g class="links" style="display: none;"><path stroke="black" style="stroke-width: 2;"/><text text-anchor="middle">1</text></g><g class="links" style="display: none;"><path stroke="black" style="stroke-width: 2;"/><text text-anchor="middle">1</text></g><g class="links" style="display: none;"><path stroke="black" style="stroke-width: 2;"/><text text-anchor="middle">1</text></g><g class="links" style="display: none;"><path stroke="black" style="stroke-width: 2;"/><text text-anchor="middle">1</text></g><g class="links" style="display: none;"><path stroke="black" style="stroke-width: 2;"/><text text-anchor="middle">1</text></g><g class="links" style="display: none;"><path stroke="black" style="stroke-width: 2;"/><text text-anchor="middle">1</text></g><g class="links" style="display: none;"><path stroke="black" style="stroke-width: 2;"/><text text-anchor="middle">1</text></g><g class="links" style="display: none;"><path stroke="black" style="stroke-width: 2;"/><text text-anchor="middle">1</text></g><g class="links" style="display: none;"><path stroke="black" style="stroke-width: 2;"/><text text-anchor="middle">1</text></g><g class="links" style="display: none;"><path stroke="black" style="stroke-width: 2;"/><text text-anchor="middle">1</text></g><g class="links" style="display: none;"><path stroke="black" style="stroke-width: 2;"/><text text-anchor="middle">1</text></g><g class="links" style="display: none;"><path stroke="black" style="stroke-width: 2;"/><text text-anchor="middle">1</text></g><g class="links" style="display: none;"><path stroke="black" style="stroke-width: 2;"/><text text-anchor="middle">1</text></g><g class="links" style="display: none;"><path stroke="black" style="stroke-width: 2;"/><text text-anchor="middle">1</text></g><g class="links" style="display: none;"><path stroke="black" style="stroke-width: 2;"/><text text-anchor="middle">1</text></g></g><g class="nodeg"><g class="node computeNode h1 statics" transform="translate(210,0)" style="pointer-events: auto;"><g class="computeSig" stroke="black" style="stroke-width: 2;"><path class="linegg timeline hgroup_1" d="M-180,547.3404255319149C-173.33333333333334,547.3404255319149,-166.66666666666666,547.3404255319149,-160,547.3404255319149C-153.33333333333334,547.3404255319149,-146.66666666666666,547.3404255319149,-140,547.3404255319149C-133.33333333333334,547.3404255319149,-126.66666666666667,547.3404255319149,-120,547.3404255319149C-113.33333333333333,547.3404255319149,-106.66666666666667,547.3404255319149,-100,547.3404255319149C-93.33333333333333,547.3404255319149,-86.66666666666667,547.3404255319149,-80,547.3404255319149C-73.33333333333333,547.3404255319149,-66.66666666666667,547.3404255319149,-60,547.3404255319149C-53.333333333333336,547.3404255319149,-46.666666666666664,547.3404255319149,-40,547.3404255319149C-33.333333333333336,547.3404255319149,-26.666666666666668,547.3404255319149,-20,547.3404255319149C-13.333333333333332,547.3404255319149,-6.666666666666667,547.3404255319149,0,547.3404255319149" style="stroke: rgb(31, 119, 180); stroke-width: 2; fill: none;"/></g><text class="computeSig_label label" text-anchor="end" dx="-5" dy="0.5rem" fill="black" width="200" transform="translate(-180,547.3404255319149)">1</text></g><g class="node computeNode h2 statics" transform="translate(210,0)" style="pointer-events: auto;"><g class="computeSig" stroke="black" style="stroke-width: 2;"><path class="linegg timeline hgroup_2" d="M-180,719.3617021276596C-173.33333333333334,719.3617021276596,-166.66666666666666,719.3617021276596,-160,719.3617021276596C-153.33333333333334,719.3617021276596,-146.66666666666666,719.3617021276596,-140,719.3617021276596C-133.33333333333334,719.3617021276596,-126.66666666666667,719.3617021276596,-120,719.3617021276596C-113.33333333333333,719.3617021276596,-106.66666666666667,719.3617021276596,-100,719.3617021276596C-93.33333333333333,719.3617021276596,-86.66666666666667,719.3617021276596,-80,719.3617021276596C-73.33333333333333,719.3617021276596,-66.66666666666667,719.3617021276596,-60,719.3617021276596C-53.333333333333336,719.3617021276596,-46.666666666666664,719.3617021276596,-40,719.3617021276596C-33.333333333333336,719.3617021276596,-26.666666666666668,719.3617021276596,-20,719.3617021276596C-13.333333333333332,719.3617021276596,-6.666666666666667,719.3617021276596,0,719.3617021276596" style="stroke: rgb(255, 127, 14); stroke-width: 2; fill: none;"/></g><text class="computeSig_label label" text-anchor="end" dx="-5" dy="0.5rem" fill="black" width="200" transform="translate(-180,719.3617021276596)">2</text></g><g class="node computeNode h3 statics" transform="translate(210,0)" style="pointer-events: auto;"><g class="computeSig" stroke="black" style="stroke-width: 2;"><path class="linegg timeline hgroup_1" d="M-180,555.1595744680851C-173.33333333333334,555.1595744680851,-166.66666666666666,555.1595744680851,-160,555.1595744680851C-153.33333333333334,555.1595744680851,-146.66666666666666,555.1595744680851,-140,555.1595744680851C-133.33333333333334,555.1595744680851,-126.66666666666667,555.1595744680851,-120,555.1595744680851C-113.33333333333333,555.1595744680851,-106.66666666666667,555.1595744680851,-100,555.1595744680851C-93.33333333333333,555.1595744680851,-86.66666666666667,555.1595744680851,-80,555.1595744680851C-73.33333333333333,555.1595744680851,-66.66666666666667,555.1595744680851,-60,555.1595744680851C-53.333333333333336,555.1595744680851,-46.666666666666664,555.1595744680851,-40,555.1595744680851C-33.333333333333336,555.1595744680851,-26.666666666666668,555.1595744680851,-20,555.1595744680851C-13.333333333333332,555.1595744680851,-6.666666666666667,555.1595744680851,0,555.1595744680851" style="stroke: rgb(31, 119, 180); stroke-width: 2; fill: none;"/></g><text class="computeSig_label label" text-anchor="end" dx="-5" dy="0.5rem" fill="black" width="200" transform="translate(-180,555.1595744680851)">3</text></g><g class="node computeNode h4 statics" transform="translate(210,0)" style="pointer-events: auto;"><g class="computeSig" stroke="black" style="stroke-width: 2;"><path class="linegg timeline hgroup_3" d="M-180,203.29787234042553C-173.33333333333334,203.29787234042553,-166.66666666666666,203.29787234042553,-160,203.29787234042553C-153.33333333333334,203.29787234042553,-146.66666666666666,203.29787234042553,-140,203.29787234042553C-133.33333333333334,203.29787234042553,-126.66666666666667,203.29787234042553,-120,203.29787234042553C-116.66666666666667,203.29787234042553,-113.33333333333333,203.29787234042553,-110,203.29787234042553C-106.66666666666667,203.29787234042553,-103.33333333333333,347.9521276595745,-100,492.60638297872345" style="stroke: rgb(44, 160, 44); stroke-width: 2; fill: none;"/><path class="linegg timeline hgroup_1" d="M-100,492.60638297872345C-93.33333333333333,492.60638297872345,-86.66666666666667,492.60638297872345,-80,492.60638297872345C-73.33333333333333,492.60638297872345,-66.66666666666667,492.60638297872345,-60,492.60638297872345C-56.666666666666664,492.60638297872345,-53.333333333333336,492.60638297872345,-50,492.60638297872345C-46.666666666666664,492.60638297872345,-43.333333333333336,410.5053191489362,-40,328.40425531914894" style="stroke: rgb(31, 119, 180); stroke-width: 2; fill: none;"/><path class="linegg timeline hgroup_5" d="M-40,328.40425531914894C-33.333333333333336,328.40425531914894,-26.666666666666668,328.40425531914894,-20,328.40425531914894C-13.333333333333332,328.40425531914894,-6.666666666666667,328.40425531914894,0,328.40425531914894" style="stroke: rgb(148, 103, 189); stroke-width: 2; fill: none;"/></g><text class="computeSig_label label" text-anchor="end" dx="-5" dy="0.5rem" fill="black" width="200" transform="translate(-180,203.29787234042553)">4</text></g><g class="node computeNode h5 statics" transform="translate(210,0)" style="pointer-events: auto;"><g class="computeSig" stroke="black" style="stroke-width: 2;"><path class="linegg timeline hgroup_3" d="M-180,179.8404255319149C-173.33333333333334,179.8404255319149,-166.66666666666666,179.8404255319149,-160,179.8404255319149C-153.33333333333334,179.8404255319149,-146.66666666666666,179.8404255319149,-140,179.8404255319149C-133.33333333333334,179.8404255319149,-126.66666666666667,179.8404255319149,-120,179.8404255319149C-113.33333333333333,179.8404255319149,-106.66666666666667,179.8404255319149,-100,179.8404255319149C-93.33333333333333,179.8404255319149,-86.66666666666667,179.8404255319149,-80,179.8404255319149C-73.33333333333333,179.8404255319149,-66.66666666666667,179.8404255319149,-60,179.8404255319149C-56.666666666666664,179.8404255319149,-53.333333333333336,179.8404255319149,-50,179.8404255319149C-46.666666666666664,179.8404255319149,-43.333333333333336,324.49468085106383,-40,469.1489361702128" style="stroke: rgb(44, 160, 44); stroke-width: 2; fill: none;"/><path class="linegg timeline hgroup_1" d="M-40,469.1489361702128C-33.333333333333336,469.1489361702128,-26.666666666666668,469.1489361702128,-20,469.1489361702128C-13.333333333333332,469.1489361702128,-6.666666666666667,469.1489361702128,0,469.1489361702128" style="stroke: rgb(31, 119, 180); stroke-width: 2; fill: none;"/></g><text class="computeSig_label label" text-anchor="end" dx="-5" dy="0.5rem" fill="black" width="200" transform="translate(-180,179.8404255319149)">5</text></g><g class="node computeNode h6 statics" transform="translate(210,0)" style="pointer-events: auto;"><g class="computeSig" stroke="black" style="stroke-width: 2;"><path class="linegg timeline hgroup_1" d="M-180,602.0744680851064C-173.33333333333334,602.0744680851064,-166.66666666666666,602.0744680851064,-160,602.0744680851064C-153.33333333333334,602.0744680851064,-146.66666666666666,602.0744680851064,-140,602.0744680851064C-133.33333333333334,602.0744680851064,-126.66666666666667,602.0744680851064,-120,602.0744680851064C-113.33333333333333,602.0744680851064,-106.66666666666667,602.0744680851064,-100,602.0744680851064C-93.33333333333333,602.0744680851064,-86.66666666666667,602.0744680851064,-80,602.0744680851064C-76.66666666666667,602.0744680851064,-73.33333333333333,602.0744680851064,-70,602.0744680851064C-66.66666666666667,602.0744680851064,-63.333333333333336,637.2606382978724,-60,672.4468085106383" style="stroke: rgb(31, 119, 180); stroke-width: 2; fill: none;"/><path class="linegg timeline hgroup_2" d="M-60,672.4468085106383C-56.666666666666664,672.4468085106383,-53.333333333333336,672.4468085106383,-50,672.4468085106383C-46.666666666666664,672.4468085106383,-43.333333333333336,637.2606382978724,-40,602.0744680851064" style="stroke: rgb(255, 127, 14); stroke-width: 2;"/><path class="linegg timeline hgroup_1" d="M-40,602.0744680851064C-33.333333333333336,602.0744680851064,-26.666666666666668,602.0744680851064,-20,602.0744680851064C-13.333333333333332,602.0744680851064,-6.666666666666667,602.0744680851064,0,602.0744680851064" style="stroke: rgb(31, 119, 180); stroke-width: 2; fill: none;"/></g><text class="computeSig_label label" text-anchor="end" dx="-5" dy="0.5rem" fill="black" width="200" transform="translate(-180,602.0744680851064)">6</text></g><g class="node computeNode h7 statics" transform="translate(210,0)" style="pointer-events: auto;"><g class="computeSig" stroke="black" style="stroke-width: 2;"><path class="linegg timeline hgroup_4" d="M-180,54.734042553191486C-173.33333333333334,54.734042553191486,-166.66666666666666,54.734042553191486,-160,54.734042553191486C-153.33333333333334,54.734042553191486,-146.66666666666666,54.734042553191486,-140,54.734042553191486C-133.33333333333334,54.734042553191486,-126.66666666666667,54.734042553191486,-120,54.734042553191486C-116.66666666666667,54.734042553191486,-113.33333333333333,54.734042553191486,-110,54.734042553191486C-106.66666666666667,54.734042553191486,-103.33333333333333,258.031914893617,-100,461.3297872340425" style="stroke: rgb(214, 39, 40); stroke-width: 2; fill: none;"/><path class="linegg timeline hgroup_1" d="M-100,461.3297872340425C-96.66666666666667,461.3297872340425,-93.33333333333333,461.3297872340425,-90,461.3297872340425C-86.66666666666667,461.3297872340425,-83.33333333333333,375.31914893617017,-80,289.3085106382979" style="stroke: rgb(31, 119, 180); stroke-width: 2;"/><path class="linegg timeline hgroup_5" d="M-80,289.3085106382979C-73.33333333333333,289.3085106382979,-66.66666666666667,289.3085106382979,-60,289.3085106382979C-53.333333333333336,289.3085106382979,-46.666666666666664,289.3085106382979,-40,289.3085106382979C-33.333333333333336,289.3085106382979,-26.666666666666668,289.3085106382979,-20,289.3085106382979C-13.333333333333332,289.3085106382979,-6.666666666666667,289.3085106382979,0,289.3085106382979" style="stroke: rgb(148, 103, 189); stroke-width: 2; fill: none;"/></g><text class="computeSig_label label" text-anchor="end" dx="-5" dy="0.5rem" fill="black" width="200" transform="translate(-180,54.734042553191486)">7</text></g><g class="node computeNode h8 statics" transform="translate(210,0)" style="pointer-events: auto;"><g class="computeSig" stroke="black" style="stroke-width: 2;"><path class="linegg timeline hgroup_2" d="M-180,664.6276595744681C-176.66666666666666,664.6276595744681,-173.33333333333334,664.6276595744681,-170,664.6276595744681C-166.66666666666666,664.6276595744681,-163.33333333333334,598.1648936170213,-160,531.7021276595746" style="stroke: rgb(255, 127, 14); stroke-width: 2;"/><path class="linegg timeline hgroup_1" d="M-160,531.7021276595746C-153.33333333333334,531.7021276595746,-146.66666666666666,531.7021276595746,-140,531.7021276595746C-133.33333333333334,531.7021276595746,-126.66666666666667,531.7021276595746,-120,531.7021276595746C-113.33333333333333,531.7021276595746,-106.66666666666667,531.7021276595746,-100,531.7021276595746C-93.33333333333333,531.7021276595746,-86.66666666666667,531.7021276595746,-80,531.7021276595746C-76.66666666666667,531.7021276595746,-73.33333333333333,531.7021276595746,-70,531.7021276595746C-66.66666666666667,531.7021276595746,-63.333333333333336,469.1489361702128,-60,406.59574468085106" style="stroke: rgb(31, 119, 180); stroke-width: 2; fill: none;"/><path class="linegg timeline hgroup_5" d="M-60,406.59574468085106C-53.333333333333336,406.59574468085106,-46.666666666666664,406.59574468085106,-40,406.59574468085106C-33.333333333333336,406.59574468085106,-26.666666666666668,406.59574468085106,-20,406.59574468085106C-13.333333333333332,406.59574468085106,-6.666666666666667,406.59574468085106,0,406.59574468085106" style="stroke: rgb(148, 103, 189); stroke-width: 2; fill: none;"/></g><text class="computeSig_label label" text-anchor="end" dx="-5" dy="0.5rem" fill="black" width="200" transform="translate(-180,664.6276595744681)">8</text></g><g class="node computeNode h9 statics" transform="translate(210,0)" style="pointer-events: auto;"><g class="computeSig" stroke="black" style="stroke-width: 2;"><path class="linegg timeline hgroup_3" d="M-180,187.65957446808508C-173.33333333333334,187.65957446808508,-166.66666666666666,187.65957446808508,-160,187.65957446808508C-153.33333333333334,187.65957446808508,-146.66666666666666,187.65957446808508,-140,187.65957446808508C-133.33333333333334,187.65957446808508,-126.66666666666667,187.65957446808508,-120,187.65957446808508C-113.33333333333333,187.65957446808508,-106.66666666666667,187.65957446808508,-100,187.65957446808508C-93.33333333333333,187.65957446808508,-86.66666666666667,187.65957446808508,-80,187.65957446808508C-73.33333333333333,187.65957446808508,-66.66666666666667,187.65957446808508,-60,187.65957446808508C-56.666666666666664,187.65957446808508,-53.333333333333336,187.65957446808508,-50,187.65957446808508C-46.666666666666664,187.65957446808508,-43.333333333333336,332.31382978723406,-40,476.968085106383" style="stroke: rgb(44, 160, 44); stroke-width: 2; fill: none;"/><path class="linegg timeline hgroup_1" d="M-40,476.968085106383C-33.333333333333336,476.968085106383,-26.666666666666668,476.968085106383,-20,476.968085106383C-13.333333333333332,476.968085106383,-6.666666666666667,476.968085106383,0,476.968085106383" style="stroke: rgb(31, 119, 180); stroke-width: 2; fill: none;"/></g><text class="computeSig_label label" text-anchor="end" dx="-5" dy="0.5rem" fill="black" width="200" transform="translate(-180,187.65957446808508)">9</text></g><g class="node computeNode h10 statics" transform="translate(210,0)" style="pointer-events: auto;"><g class="computeSig" stroke="black" style="stroke-width: 2;"><path class="linegg timeline hgroup_3" d="M-180,78.19148936170212C-173.33333333333334,78.19148936170212,-166.66666666666666,78.19148936170212,-160,78.19148936170212C-156.66666666666666,78.19148936170212,-153.33333333333334,78.19148936170212,-150,78.19148936170212C-146.66666666666666,78.19148936170212,-143.33333333333334,50.824468085106375,-140,23.457446808510635" style="stroke: rgb(44, 160, 44); stroke-width: 2; fill: none;"/><path class="linegg timeline hgroup_4" d="M-140,23.45744680851064C-133.33333333333334,23.45744680851064,-126.66666666666667,23.45744680851064,-120,23.45744680851064C-113.33333333333333,23.45744680851064,-106.66666666666667,23.45744680851064,-100,23.45744680851064C-93.33333333333333,23.45744680851064,-86.66666666666667,23.45744680851064,-80,23.45744680851064C-73.33333333333333,23.45744680851064,-66.66666666666667,23.45744680851064,-60,23.45744680851064C-53.333333333333336,23.45744680851064,-46.666666666666664,23.45744680851064,-40,23.45744680851064C-33.333333333333336,23.45744680851064,-26.666666666666668,23.45744680851064,-20,23.45744680851064C-13.333333333333332,23.45744680851064,-6.666666666666667,23.45744680851064,0,23.45744680851064" style="stroke: rgb(214, 39, 40); stroke-width: 2; fill: none;"/></g><text class="computeSig_label label" text-anchor="end" dx="-5" dy="0.5rem" fill="black" width="200" transform="translate(-180,78.19148936170212)">10</text></g><g class="node computeNode h11 statics" transform="translate(210,0)" style="pointer-events: auto;"><g class="computeSig" stroke="black" style="stroke-width: 2;"><path class="linegg timeline hgroup_3" d="M-180,250.2127659574468C-176.66666666666666,250.2127659574468,-173.33333333333334,250.2127659574468,-170,250.2127659574468C-166.66666666666666,250.2127659574468,-163.33333333333334,465.2393617021276,-160,680.2659574468084" style="stroke: rgb(44, 160, 44); stroke-width: 2;"/><path class="linegg timeline hgroup_2" d="M-160,680.2659574468084C-153.33333333333334,680.2659574468084,-146.66666666666666,680.2659574468084,-140,680.2659574468084C-133.33333333333334,680.2659574468084,-126.66666666666667,680.2659574468084,-120,680.2659574468084C-113.33333333333333,680.2659574468084,-106.66666666666667,680.2659574468084,-100,680.2659574468084C-93.33333333333333,680.2659574468084,-86.66666666666667,680.2659574468084,-80,680.2659574468084C-73.33333333333333,680.2659574468084,-66.66666666666667,680.2659574468084,-60,680.2659574468084C-56.666666666666664,680.2659574468084,-53.333333333333336,680.2659574468084,-50,680.2659574468084C-46.666666666666664,680.2659574468084,-43.333333333333336,551.25,-40,422.2340425531915" style="stroke: rgb(255, 127, 14); stroke-width: 2; fill: none;"/><path class="linegg timeline hgroup_5" d="M-40,422.2340425531915C-33.333333333333336,422.2340425531915,-26.666666666666668,422.2340425531915,-20,422.2340425531915C-13.333333333333332,422.2340425531915,-6.666666666666667,422.2340425531915,0,422.2340425531915" style="stroke: rgb(148, 103, 189); stroke-width: 2; fill: none;"/></g><text class="computeSig_label label" text-anchor="end" dx="-5" dy="0.5rem" fill="black" width="200" transform="translate(-180,250.2127659574468)">11</text></g><g class="node computeNode h12 statics" transform="translate(210,0)" style="pointer-events: auto;"><g class="computeSig" stroke="black" style="stroke-width: 2;"><path class="linegg timeline hgroup_2" d="M-180,656.8085106382979C-173.33333333333334,656.8085106382979,-166.66666666666666,656.8085106382979,-160,656.8085106382979C-153.33333333333334,656.8085106382979,-146.66666666666666,656.8085106382979,-140,656.8085106382979C-133.33333333333334,656.8085106382979,-126.66666666666667,656.8085106382979,-120,656.8085106382979C-113.33333333333333,656.8085106382979,-106.66666666666667,656.8085106382979,-100,656.8085106382979C-96.66666666666667,656.8085106382979,-93.33333333333333,656.8085106382979,-90,656.8085106382979C-86.66666666666667,656.8085106382979,-83.33333333333333,449.6010638297872,-80,242.39361702127658" style="stroke: rgb(255, 127, 14); stroke-width: 2; fill: none;"/><path class="linegg timeline hgroup_3" d="M-80,242.39361702127658C-73.33333333333333,242.39361702127658,-66.66666666666667,242.39361702127658,-60,242.39361702127658C-53.333333333333336,242.39361702127658,-46.666666666666664,242.39361702127658,-40,242.39361702127658C-33.333333333333336,242.39361702127658,-26.666666666666668,242.39361702127658,-20,242.39361702127658C-13.333333333333332,242.39361702127658,-6.666666666666667,242.39361702127658,0,242.39361702127658" style="stroke: rgb(44, 160, 44); stroke-width: 2; fill: none;"/></g><text class="computeSig_label label" text-anchor="end" dx="-5" dy="0.5rem" fill="black" width="200" transform="translate(-180,656.8085106382979)">12</text></g><g class="node computeNode h13 statics" transform="translate(210,0)" style="pointer-events: auto;"><g class="computeSig" stroke="black" style="stroke-width: 2;"><path class="linegg timeline hgroup_3" d="M-180,93.82978723404254C-176.66666666666666,93.82978723404254,-173.33333333333334,93.82978723404254,-170,93.82978723404254C-166.66666666666666,93.82978723404254,-163.33333333333334,183.75,-160,273.67021276595744" style="stroke: rgb(44, 160, 44); stroke-width: 2;"/><path class="linegg timeline hgroup_5" d="M-160,273.67021276595744C-153.33333333333334,273.67021276595744,-146.66666666666666,273.67021276595744,-140,273.67021276595744C-133.33333333333334,273.67021276595744,-126.66666666666667,273.67021276595744,-120,273.67021276595744C-116.66666666666667,273.67021276595744,-113.33333333333333,273.67021276595744,-110,273.67021276595744C-106.66666666666667,273.67021276595744,-103.33333333333333,160.29255319148936,-100,46.91489361702127" style="stroke: rgb(148, 103, 189); stroke-width: 2; fill: none;"/><path class="linegg timeline hgroup_4" d="M-100,46.91489361702128C-93.33333333333333,46.91489361702128,-86.66666666666667,46.91489361702128,-80,46.91489361702128C-73.33333333333333,46.91489361702128,-66.66666666666667,46.91489361702128,-60,46.91489361702128C-56.666666666666664,46.91489361702127,-53.333333333333336,46.91489361702127,-50,46.91489361702127C-46.666666666666664,46.91489361702127,-43.333333333333336,70.3723404255319,-40,93.82978723404254" style="stroke: rgb(214, 39, 40); stroke-width: 2; fill: none;"/><path class="linegg timeline hgroup_3" d="M-40,93.82978723404254C-33.333333333333336,93.82978723404254,-26.666666666666668,93.82978723404254,-20,93.82978723404254C-13.333333333333332,93.82978723404254,-6.666666666666667,93.82978723404254,0,93.82978723404254" style="stroke: rgb(44, 160, 44); stroke-width: 2; fill: none;"/></g><text class="computeSig_label label" text-anchor="end" dx="-5" dy="0.5rem" fill="black" width="200" transform="translate(-180,93.82978723404254)">13</text></g><g class="node computeNode h14 statics" transform="translate(210,0)" style="pointer-events: auto;"><g class="computeSig" stroke="black" style="stroke-width: 2;"><path class="linegg timeline hgroup_3" d="M-180,101.64893617021276C-173.33333333333334,101.64893617021276,-166.66666666666666,101.64893617021276,-160,101.64893617021276C-153.33333333333334,101.64893617021276,-146.66666666666666,101.64893617021276,-140,101.64893617021276C-133.33333333333334,101.64893617021276,-126.66666666666667,101.64893617021276,-120,101.64893617021276C-113.33333333333333,101.64893617021276,-106.66666666666667,101.64893617021276,-100,101.64893617021276C-93.33333333333333,101.64893617021276,-86.66666666666667,101.64893617021276,-80,101.64893617021276C-73.33333333333333,101.64893617021276,-66.66666666666667,101.64893617021276,-60,101.64893617021276C-53.333333333333336,101.64893617021276,-46.666666666666664,101.64893617021276,-40,101.64893617021276C-33.333333333333336,101.64893617021276,-26.666666666666668,101.64893617021276,-20,101.64893617021276C-13.333333333333332,101.64893617021276,-6.666666666666667,101.64893617021276,0,101.64893617021276" style="stroke: rgb(44, 160, 44); stroke-width: 2; fill: none;"/></g><text class="computeSig_label label" text-anchor="end" dx="-5" dy="0.5rem" fill="black" width="200" transform="translate(-180,101.64893617021276)">14</text></g><g class="node computeNode h15 statics" transform="translate(210,0)" style="pointer-events: auto;"><g class="computeSig" stroke="black" style="stroke-width: 2;"><path class="linegg timeline hgroup_5" d="M-180,281.48936170212767C-176.66666666666666,281.48936170212767,-173.33333333333334,281.48936170212767,-170,281.48936170212767C-166.66666666666666,281.48936170212767,-163.33333333333334,211.11702127659578,-160,140.74468085106383" style="stroke: rgb(148, 103, 189); stroke-width: 2;"/><path class="linegg timeline hgroup_3" d="M-160,140.74468085106383C-153.33333333333334,140.74468085106383,-146.66666666666666,140.74468085106383,-140,140.74468085106383C-133.33333333333334,140.74468085106383,-126.66666666666667,140.74468085106383,-120,140.74468085106383C-113.33333333333333,140.74468085106383,-106.66666666666667,140.74468085106383,-100,140.74468085106383C-93.33333333333333,140.74468085106383,-86.66666666666667,140.74468085106383,-80,140.74468085106383C-73.33333333333333,140.74468085106383,-66.66666666666667,140.74468085106383,-60,140.74468085106383C-53.333333333333336,140.74468085106383,-46.666666666666664,140.74468085106383,-40,140.74468085106383C-33.333333333333336,140.74468085106383,-26.666666666666668,140.74468085106383,-20,140.74468085106383C-13.333333333333332,140.74468085106383,-6.666666666666667,140.74468085106383,0,140.74468085106383" style="stroke: rgb(44, 160, 44); stroke-width: 2; fill: none;"/></g><text class="computeSig_label label" text-anchor="end" dx="-5" dy="0.5rem" fill="black" width="200" transform="translate(-180,281.48936170212767)">15</text></g><g class="node computeNode h16 statics" transform="translate(210,0)" style="pointer-events: auto;"><g class="computeSig" stroke="black" style="stroke-width: 2;"><path class="linegg timeline hgroup_3" d="M-180,109.46808510638297C-173.33333333333334,109.46808510638297,-166.66666666666666,109.46808510638297,-160,109.46808510638297C-153.33333333333334,109.46808510638297,-146.66666666666666,109.46808510638297,-140,109.46808510638297C-133.33333333333334,109.46808510638297,-126.66666666666667,109.46808510638297,-120,109.46808510638297C-113.33333333333333,109.46808510638297,-106.66666666666667,109.46808510638297,-100,109.46808510638297C-93.33333333333333,109.46808510638297,-86.66666666666667,109.46808510638297,-80,109.46808510638297C-73.33333333333333,109.46808510638297,-66.66666666666667,109.46808510638297,-60,109.46808510638297C-53.333333333333336,109.46808510638297,-46.666666666666664,109.46808510638297,-40,109.46808510638297C-33.333333333333336,109.46808510638297,-26.666666666666668,109.46808510638297,-20,109.46808510638297C-13.333333333333332,109.46808510638297,-6.666666666666667,109.46808510638297,0,109.46808510638297" style="stroke: rgb(44, 160, 44); stroke-width: 2; fill: none;"/></g><text class="computeSig_label label" text-anchor="end" dx="-5" dy="0.5rem" fill="black" width="200" transform="translate(-180,109.46808510638297)">16</text></g><g class="node computeNode h17 statics" transform="translate(210,0)" style="pointer-events: auto;"><g class="computeSig" stroke="black" style="stroke-width: 2;"><path class="linegg timeline hgroup_3" d="M-180,164.20212765957447C-173.33333333333334,164.20212765957447,-166.66666666666666,164.20212765957447,-160,164.20212765957447C-153.33333333333334,164.20212765957447,-146.66666666666666,164.20212765957447,-140,164.20212765957447C-133.33333333333334,164.20212765957447,-126.66666666666667,164.20212765957447,-120,164.20212765957447C-113.33333333333333,164.20212765957447,-106.66666666666667,164.20212765957447,-100,164.20212765957447C-96.66666666666667,164.20212765957447,-93.33333333333333,164.20212765957447,-90,164.20212765957447C-86.66666666666667,164.20212765957447,-83.33333333333333,230.66489361702128,-80,297.12765957446805" style="stroke: rgb(44, 160, 44); stroke-width: 2; fill: none;"/><path class="linegg timeline hgroup_5" d="M-80,297.12765957446805C-73.33333333333333,297.12765957446805,-66.66666666666667,297.12765957446805,-60,297.12765957446805C-53.333333333333336,297.12765957446805,-46.666666666666664,297.12765957446805,-40,297.12765957446805C-33.333333333333336,297.12765957446805,-26.666666666666668,297.12765957446805,-20,297.12765957446805C-13.333333333333332,297.12765957446805,-6.666666666666667,297.12765957446805,0,297.12765957446805" style="stroke: rgb(148, 103, 189); stroke-width: 2; fill: none;"/></g><text class="computeSig_label label" text-anchor="end" dx="-5" dy="0.5rem" fill="black" width="200" transform="translate(-180,164.20212765957447)">17</text></g><g class="node computeNode h18 statics" transform="translate(210,0)" style="pointer-events: auto;"><g class="computeSig" stroke="black" style="stroke-width: 2;"><path class="linegg timeline hgroup_3" d="M-180,86.01063829787235C-176.66666666666666,86.01063829787235,-173.33333333333334,86.01063829787235,-170,86.01063829787235C-166.66666666666666,86.01063829787235,-163.33333333333334,58.643617021276604,-160,31.27659574468085" style="stroke: rgb(44, 160, 44); stroke-width: 2;"/><path class="linegg timeline hgroup_4" d="M-160,31.27659574468085C-156.66666666666666,31.27659574468085,-153.33333333333334,31.27659574468085,-150,31.27659574468085C-146.66666666666666,31.27659574468085,-143.33333333333334,58.6436170212766,-140,86.01063829787235" style="stroke: rgb(214, 39, 40); stroke-width: 2;"/><path class="linegg timeline hgroup_3" d="M-140,86.01063829787233C-133.33333333333334,86.01063829787233,-126.66666666666667,86.01063829787233,-120,86.01063829787233C-113.33333333333333,86.01063829787233,-106.66666666666667,86.01063829787233,-100,86.01063829787233C-93.33333333333333,86.01063829787233,-86.66666666666667,86.01063829787233,-80,86.01063829787233C-73.33333333333333,86.01063829787233,-66.66666666666667,86.01063829787233,-60,86.01063829787233C-53.333333333333336,86.01063829787233,-46.666666666666664,86.01063829787233,-40,86.01063829787233C-33.333333333333336,86.01063829787233,-26.666666666666668,86.01063829787233,-20,86.01063829787233C-13.333333333333332,86.01063829787233,-6.666666666666667,86.01063829787233,0,86.01063829787233" style="stroke: rgb(44, 160, 44); stroke-width: 2; fill: none;"/></g><text class="computeSig_label label" text-anchor="end" dx="-5" dy="0.5rem" fill="black" width="200" transform="translate(-180,86.01063829787235)">18</text></g><g class="node computeNode h19 statics" transform="translate(210,0)" style="pointer-events: auto;"><g class="computeSig" stroke="black" style="stroke-width: 2;"><path class="linegg timeline hgroup_1" d="M-180,562.9787234042553C-173.33333333333334,562.9787234042553,-166.66666666666666,562.9787234042553,-160,562.9787234042553C-153.33333333333334,562.9787234042553,-146.66666666666666,562.9787234042553,-140,562.9787234042553C-133.33333333333334,562.9787234042553,-126.66666666666667,562.9787234042553,-120,562.9787234042553C-113.33333333333333,562.9787234042553,-106.66666666666667,562.9787234042553,-100,562.9787234042553C-93.33333333333333,562.9787234042553,-86.66666666666667,562.9787234042553,-80,562.9787234042553C-73.33333333333333,562.9787234042553,-66.66666666666667,562.9787234042553,-60,562.9787234042553C-53.333333333333336,562.9787234042553,-46.666666666666664,562.9787234042553,-40,562.9787234042553C-33.333333333333336,562.9787234042553,-26.666666666666668,562.9787234042553,-20,562.9787234042553C-13.333333333333332,562.9787234042553,-6.666666666666667,562.9787234042553,0,562.9787234042553" style="stroke: rgb(31, 119, 180); stroke-width: 2; fill: none;"/></g><text class="computeSig_label label" text-anchor="end" dx="-5" dy="0.5rem" fill="black" width="200" transform="translate(-180,562.9787234042553)">19</text></g><g class="node computeNode h20 statics" transform="translate(210,0)" style="pointer-events: auto;"><g class="computeSig" stroke="black" style="stroke-width: 2;"><path class="linegg timeline hgroup_3" d="M-180,117.2872340425532C-173.33333333333334,117.2872340425532,-166.66666666666666,117.2872340425532,-160,117.2872340425532C-153.33333333333334,117.2872340425532,-146.66666666666666,117.2872340425532,-140,117.2872340425532C-133.33333333333334,117.2872340425532,-126.66666666666667,117.2872340425532,-120,117.2872340425532C-113.33333333333333,117.2872340425532,-106.66666666666667,117.2872340425532,-100,117.2872340425532C-93.33333333333333,117.2872340425532,-86.66666666666667,117.2872340425532,-80,117.2872340425532C-73.33333333333333,117.2872340425532,-66.66666666666667,117.2872340425532,-60,117.2872340425532C-53.333333333333336,117.2872340425532,-46.666666666666664,117.2872340425532,-40,117.2872340425532C-33.333333333333336,117.2872340425532,-26.666666666666668,117.2872340425532,-20,117.2872340425532C-13.333333333333332,117.2872340425532,-6.666666666666667,117.2872340425532,0,117.2872340425532" style="stroke: rgb(44, 160, 44); stroke-width: 2; fill: none;"/></g><text class="computeSig_label label" text-anchor="end" dx="-5" dy="0.5rem" fill="black" width="200" transform="translate(-180,117.2872340425532)">20</text></g><g class="node computeNode h21 statics" transform="translate(210,0)" style="pointer-events: auto;"><g class="computeSig" stroke="black" style="stroke-width: 2;"><path class="linegg timeline hgroup_3" d="M-180,172.0212765957447C-173.33333333333334,172.0212765957447,-166.66666666666666,172.0212765957447,-160,172.0212765957447C-153.33333333333334,172.0212765957447,-146.66666666666666,172.0212765957447,-140,172.0212765957447C-133.33333333333334,172.0212765957447,-126.66666666666667,172.0212765957447,-120,172.0212765957447C-113.33333333333333,172.0212765957447,-106.66666666666667,172.0212765957447,-100,172.0212765957447C-96.66666666666667,172.0212765957447,-93.33333333333333,172.0212765957447,-90,172.0212765957447C-86.66666666666667,172.0212765957447,-83.33333333333333,238.4840425531915,-80,304.9468085106383" style="stroke: rgb(44, 160, 44); stroke-width: 2; fill: none;"/><path class="linegg timeline hgroup_5" d="M-80,304.9468085106383C-73.33333333333333,304.9468085106383,-66.66666666666667,304.9468085106383,-60,304.9468085106383C-53.333333333333336,304.9468085106383,-46.666666666666664,304.9468085106383,-40,304.9468085106383C-33.333333333333336,304.9468085106383,-26.666666666666668,304.9468085106383,-20,304.9468085106383C-13.333333333333332,304.9468085106383,-6.666666666666667,304.9468085106383,0,304.9468085106383" style="stroke: rgb(148, 103, 189); stroke-width: 2; fill: none;"/></g><text class="computeSig_label label" text-anchor="end" dx="-5" dy="0.5rem" fill="black" width="200" transform="translate(-180,172.0212765957447)">21</text></g><g class="node computeNode h22 statics" transform="translate(210,0)" style="pointer-events: auto;"><g class="computeSig" stroke="black" style="stroke-width: 2;"><path class="linegg timeline hgroup_5" d="M-180,344.0425531914894C-173.33333333333334,344.0425531914894,-166.66666666666666,344.0425531914894,-160,344.0425531914894C-153.33333333333334,344.0425531914894,-146.66666666666666,344.0425531914894,-140,344.0425531914894C-133.33333333333334,344.0425531914894,-126.66666666666667,344.0425531914894,-120,344.0425531914894C-113.33333333333333,344.0425531914894,-106.66666666666667,344.0425531914894,-100,344.0425531914894C-93.33333333333333,344.0425531914894,-86.66666666666667,344.0425531914894,-80,344.0425531914894C-73.33333333333333,344.0425531914894,-66.66666666666667,344.0425531914894,-60,344.0425531914894C-53.333333333333336,344.0425531914894,-46.666666666666664,344.0425531914894,-40,344.0425531914894C-33.333333333333336,344.0425531914894,-26.666666666666668,344.0425531914894,-20,344.0425531914894C-13.333333333333332,344.0425531914894,-6.666666666666667,344.0425531914894,0,344.0425531914894" style="stroke: rgb(148, 103, 189); stroke-width: 2; fill: none;"/></g><text class="computeSig_label label" text-anchor="end" dx="-5" dy="0.5rem" fill="black" width="200" transform="translate(-180,344.0425531914894)">22</text></g><g class="node computeNode h23 statics" transform="translate(210,0)" style="pointer-events: auto;"><g class="computeSig" stroke="black" style="stroke-width: 2;"><path class="linegg timeline hgroup_1" d="M-180,570.7978723404254C-173.33333333333334,570.7978723404254,-166.66666666666666,570.7978723404254,-160,570.7978723404254C-153.33333333333334,570.7978723404254,-146.66666666666666,570.7978723404254,-140,570.7978723404254C-133.33333333333334,570.7978723404254,-126.66666666666667,570.7978723404254,-120,570.7978723404254C-113.33333333333333,570.7978723404254,-106.66666666666667,570.7978723404254,-100,570.7978723404254C-93.33333333333333,570.7978723404254,-86.66666666666667,570.7978723404254,-80,570.7978723404254C-73.33333333333333,570.7978723404254,-66.66666666666667,570.7978723404254,-60,570.7978723404254C-53.333333333333336,570.7978723404254,-46.666666666666664,570.7978723404254,-40,570.7978723404254C-33.333333333333336,570.7978723404254,-26.666666666666668,570.7978723404254,-20,570.7978723404254C-13.333333333333332,570.7978723404254,-6.666666666666667,570.7978723404254,0,570.7978723404254" style="stroke: rgb(31, 119, 180); stroke-width: 2; fill: none;"/></g><text class="computeSig_label label" text-anchor="end" dx="-5" dy="0.5rem" fill="black" width="200" transform="translate(-180,570.7978723404254)">23</text></g><g class="node computeNode h24 statics" transform="translate(210,0)" style="pointer-events: auto;"><g class="computeSig" stroke="black" style="stroke-width: 2;"><path class="linegg timeline hgroup_2" d="M-180,633.3510638297872C-176.66666666666666,633.3510638297872,-173.33333333333334,633.3510638297872,-170,633.3510638297872C-166.66666666666666,633.3510638297872,-163.33333333333334,394.8670212765958,-160,156.38297872340425" style="stroke: rgb(255, 127, 14); stroke-width: 2;"/><path class="linegg timeline hgroup_3" d="M-160,156.38297872340425C-153.33333333333334,156.38297872340425,-146.66666666666666,156.38297872340425,-140,156.38297872340425C-133.33333333333334,156.38297872340425,-126.66666666666667,156.38297872340425,-120,156.38297872340425C-113.33333333333333,156.38297872340425,-106.66666666666667,156.38297872340425,-100,156.38297872340425C-93.33333333333333,156.38297872340425,-86.66666666666667,156.38297872340425,-80,156.38297872340425C-73.33333333333333,156.38297872340425,-66.66666666666667,156.38297872340425,-60,156.38297872340425C-53.333333333333336,156.38297872340425,-46.666666666666664,156.38297872340425,-40,156.38297872340425C-33.333333333333336,156.38297872340425,-26.666666666666668,156.38297872340425,-20,156.38297872340425C-13.333333333333332,156.38297872340425,-6.666666666666667,156.38297872340425,0,156.38297872340425" style="stroke: rgb(44, 160, 44); stroke-width: 2; fill: none;"/></g><text class="computeSig_label label" text-anchor="end" dx="-5" dy="0.5rem" fill="black" width="200" transform="translate(-180,633.3510638297872)">24</text></g><g class="node computeNode h25 statics" transform="translate(210,0)" style="pointer-events: auto;"><g class="computeSig" stroke="black" style="stroke-width: 2;"><path class="linegg timeline hgroup_4" d="M-180,7.819148936170222C-173.33333333333334,7.819148936170222,-166.66666666666666,7.819148936170222,-160,7.819148936170222C-153.33333333333334,7.819148936170222,-146.66666666666666,7.819148936170222,-140,7.819148936170222C-133.33333333333334,7.819148936170222,-126.66666666666667,7.819148936170222,-120,7.819148936170222C-113.33333333333333,7.819148936170222,-106.66666666666667,7.819148936170222,-100,7.819148936170222C-93.33333333333333,7.819148936170222,-86.66666666666667,7.819148936170222,-80,7.819148936170222C-73.33333333333333,7.819148936170222,-66.66666666666667,7.819148936170222,-60,7.819148936170222C-53.333333333333336,7.819148936170222,-46.666666666666664,7.819148936170222,-40,7.819148936170222C-33.333333333333336,7.819148936170222,-26.666666666666668,7.819148936170222,-20,7.819148936170222C-13.333333333333332,7.819148936170222,-6.666666666666667,7.819148936170222,0,7.819148936170222" style="stroke: rgb(214, 39, 40); stroke-width: 2; fill: none;"/></g><text class="computeSig_label label" text-anchor="end" dx="-5" dy="0.5rem" fill="black" width="200" transform="translate(-180,7.819148936170213)">25</text></g><g class="node computeNode h26 statics" transform="translate(210,0)" style="pointer-events: auto;"><g class="computeSig" stroke="black" style="stroke-width: 2;"><path class="linegg timeline hgroup_1" d="M-180,578.6170212765958C-173.33333333333334,578.6170212765958,-166.66666666666666,578.6170212765958,-160,578.6170212765958C-153.33333333333334,578.6170212765958,-146.66666666666666,578.6170212765958,-140,578.6170212765958C-133.33333333333334,578.6170212765958,-126.66666666666667,578.6170212765958,-120,578.6170212765958C-113.33333333333333,578.6170212765958,-106.66666666666667,578.6170212765958,-100,578.6170212765958C-93.33333333333333,578.6170212765958,-86.66666666666667,578.6170212765958,-80,578.6170212765958C-73.33333333333333,578.6170212765958,-66.66666666666667,578.6170212765958,-60,578.6170212765958C-53.333333333333336,578.6170212765958,-46.666666666666664,578.6170212765958,-40,578.6170212765958C-33.333333333333336,578.6170212765958,-26.666666666666668,578.6170212765958,-20,578.6170212765958C-13.333333333333332,578.6170212765958,-6.666666666666667,578.6170212765958,0,578.6170212765958" style="stroke: rgb(31, 119, 180); stroke-width: 2; fill: none;"/></g><text class="computeSig_label label" text-anchor="end" dx="-5" dy="0.5rem" fill="black" width="200" transform="translate(-180,578.6170212765958)">26</text></g><g class="node computeNode h27 statics" transform="translate(210,0)" style="pointer-events: auto;"><g class="computeSig" stroke="black" style="stroke-width: 2;"><path class="linegg timeline hgroup_3" d="M-180,195.4787234042553C-173.33333333333334,195.4787234042553,-166.66666666666666,195.4787234042553,-160,195.4787234042553C-153.33333333333334,195.4787234042553,-146.66666666666666,195.4787234042553,-140,195.4787234042553C-136.66666666666666,195.4787234042553,-133.33333333333334,195.4787234042553,-130,195.4787234042553C-126.66666666666667,195.4787234042553,-123.33333333333333,254.1223404255319,-120,312.7659574468085" style="stroke: rgb(44, 160, 44); stroke-width: 2; fill: none;"/><path class="linegg timeline hgroup_5" d="M-120,312.7659574468085C-113.33333333333333,312.7659574468085,-106.66666666666667,312.7659574468085,-100,312.7659574468085C-93.33333333333333,312.7659574468085,-86.66666666666667,312.7659574468085,-80,312.7659574468085C-73.33333333333333,312.7659574468085,-66.66666666666667,312.7659574468085,-60,312.7659574468085C-53.333333333333336,312.7659574468085,-46.666666666666664,312.7659574468085,-40,312.7659574468085C-33.333333333333336,312.7659574468085,-26.666666666666668,312.7659574468085,-20,312.7659574468085C-13.333333333333332,312.7659574468085,-6.666666666666667,312.7659574468085,0,312.7659574468085" style="stroke: rgb(148, 103, 189); stroke-width: 2; fill: none;"/></g><text class="computeSig_label label" text-anchor="end" dx="-5" dy="0.5rem" fill="black" width="200" transform="translate(-180,195.4787234042553)">27</text></g><g class="node computeNode h28 statics" transform="translate(210,0)" style="pointer-events: auto;"><g class="computeSig" stroke="black" style="stroke-width: 2;"><path class="linegg timeline hgroup_5" d="M-180,351.8617021276596C-173.33333333333334,351.8617021276596,-166.66666666666666,351.8617021276596,-160,351.8617021276596C-153.33333333333334,351.8617021276596,-146.66666666666666,351.8617021276596,-140,351.8617021276596C-133.33333333333334,351.8617021276596,-126.66666666666667,351.8617021276596,-120,351.8617021276596C-113.33333333333333,351.8617021276596,-106.66666666666667,351.8617021276596,-100,351.8617021276596C-93.33333333333333,351.8617021276596,-86.66666666666667,351.8617021276596,-80,351.8617021276596C-73.33333333333333,351.8617021276596,-66.66666666666667,351.8617021276596,-60,351.8617021276596C-53.333333333333336,351.8617021276596,-46.666666666666664,351.8617021276596,-40,351.8617021276596C-33.333333333333336,351.8617021276596,-26.666666666666668,351.8617021276596,-20,351.8617021276596C-13.333333333333332,351.8617021276596,-6.666666666666667,351.8617021276596,0,351.8617021276596" style="stroke: rgb(148, 103, 189); stroke-width: 2; fill: none;"/></g><text class="computeSig_label label" text-anchor="end" dx="-5" dy="0.5rem" fill="black" width="200" transform="translate(-180,351.8617021276596)">28</text></g><g class="node computeNode h29 statics" transform="translate(210,0)" style="pointer-events: auto;"><g class="computeSig" stroke="black" style="stroke-width: 2;"><path class="linegg timeline hgroup_3" d="M-180,125.10638297872339C-173.33333333333334,125.10638297872339,-166.66666666666666,125.10638297872339,-160,125.10638297872339C-153.33333333333334,125.10638297872339,-146.66666666666666,125.10638297872339,-140,125.10638297872339C-133.33333333333334,125.10638297872339,-126.66666666666667,125.10638297872339,-120,125.10638297872339C-113.33333333333333,125.10638297872339,-106.66666666666667,125.10638297872339,-100,125.10638297872339C-93.33333333333333,125.10638297872339,-86.66666666666667,125.10638297872339,-80,125.10638297872339C-73.33333333333333,125.10638297872339,-66.66666666666667,125.10638297872339,-60,125.10638297872339C-53.333333333333336,125.10638297872339,-46.666666666666664,125.10638297872339,-40,125.10638297872339C-33.333333333333336,125.10638297872339,-26.666666666666668,125.10638297872339,-20,125.10638297872339C-13.333333333333332,125.10638297872339,-6.666666666666667,125.10638297872339,0,125.10638297872339" style="stroke: rgb(44, 160, 44); stroke-width: 2; fill: none;"/></g><text class="computeSig_label label" text-anchor="end" dx="-5" dy="0.5rem" fill="black" width="200" transform="translate(-180,125.1063829787234)">29</text></g><g class="node computeNode h30 statics" transform="translate(210,0)" style="pointer-events: auto;"><g class="computeSig" stroke="black" style="stroke-width: 2;"><path class="linegg timeline hgroup_1" d="M-180,586.436170212766C-173.33333333333334,586.436170212766,-166.66666666666666,586.436170212766,-160,586.436170212766C-153.33333333333334,586.436170212766,-146.66666666666666,586.436170212766,-140,586.436170212766C-133.33333333333334,586.436170212766,-126.66666666666667,586.436170212766,-120,586.436170212766C-113.33333333333333,586.436170212766,-106.66666666666667,586.436170212766,-100,586.436170212766C-93.33333333333333,586.436170212766,-86.66666666666667,586.436170212766,-80,586.436170212766C-73.33333333333333,586.436170212766,-66.66666666666667,586.436170212766,-60,586.436170212766C-53.333333333333336,586.436170212766,-46.666666666666664,586.436170212766,-40,586.436170212766C-33.333333333333336,586.436170212766,-26.666666666666668,586.436170212766,-20,586.436170212766C-13.333333333333332,586.436170212766,-6.666666666666667,586.436170212766,0,586.436170212766" style="stroke: rgb(31, 119, 180); stroke-width: 2; fill: none;"/></g><text class="computeSig_label label" text-anchor="end" dx="-5" dy="0.5rem" fill="black" width="200" transform="translate(-180,586.436170212766)">30</text></g><g class="node computeNode h31 statics" transform="translate(210,0)" style="pointer-events: auto;"><g class="computeSig" stroke="black" style="stroke-width: 2;"><path class="linegg timeline hgroup_1" d="M-180,523.8829787234042C-173.33333333333334,523.8829787234042,-166.66666666666666,523.8829787234042,-160,523.8829787234042C-153.33333333333334,523.8829787234042,-146.66666666666666,523.8829787234042,-140,523.8829787234042C-136.66666666666666,523.8829787234042,-133.33333333333334,523.8829787234042,-130,523.8829787234042C-126.66666666666667,523.8829787234042,-123.33333333333333,461.32978723404256,-120,398.77659574468083" style="stroke: rgb(31, 119, 180); stroke-width: 2; fill: none;"/><path class="linegg timeline hgroup_5" d="M-120,398.77659574468083C-113.33333333333333,398.77659574468083,-106.66666666666667,398.77659574468083,-100,398.77659574468083C-93.33333333333333,398.77659574468083,-86.66666666666667,398.77659574468083,-80,398.77659574468083C-73.33333333333333,398.77659574468083,-66.66666666666667,398.77659574468083,-60,398.77659574468083C-56.666666666666664,398.77659574468083,-53.333333333333336,398.77659574468083,-50,398.77659574468083C-46.666666666666664,398.77659574468083,-43.333333333333336,461.32978723404256,-40,523.8829787234042" style="stroke: rgb(148, 103, 189); stroke-width: 2; fill: none;"/><path class="linegg timeline hgroup_1" d="M-40,523.8829787234042C-33.333333333333336,523.8829787234042,-26.666666666666668,523.8829787234042,-20,523.8829787234042C-13.333333333333332,523.8829787234042,-6.666666666666667,523.8829787234042,0,523.8829787234042" style="stroke: rgb(31, 119, 180); stroke-width: 2; fill: none;"/></g><text class="computeSig_label label" text-anchor="end" dx="-5" dy="0.5rem" fill="black" width="200" transform="translate(-180,523.8829787234042)">31</text></g><g class="node computeNode h32 statics" transform="translate(210,0)" style="pointer-events: auto;"><g class="computeSig" stroke="black" style="stroke-width: 2;"><path class="linegg timeline hgroup_1" d="M-180,625.531914893617C-176.66666666666666,625.531914893617,-173.33333333333334,625.531914893617,-170,625.531914893617C-166.66666666666666,625.531914893617,-163.33333333333334,668.5372340425531,-160,711.5425531914893" style="stroke: rgb(31, 119, 180); stroke-width: 2;"/><path class="linegg timeline hgroup_2" d="M-160,711.5425531914893C-153.33333333333334,711.5425531914893,-146.66666666666666,711.5425531914893,-140,711.5425531914893C-133.33333333333334,711.5425531914893,-126.66666666666667,711.5425531914893,-120,711.5425531914893C-113.33333333333333,711.5425531914893,-106.66666666666667,711.5425531914893,-100,711.5425531914893C-93.33333333333333,711.5425531914893,-86.66666666666667,711.5425531914893,-80,711.5425531914893C-73.33333333333333,711.5425531914893,-66.66666666666667,711.5425531914893,-60,711.5425531914893C-53.333333333333336,711.5425531914893,-46.666666666666664,711.5425531914893,-40,711.5425531914893C-33.333333333333336,711.5425531914893,-26.666666666666668,711.5425531914893,-20,711.5425531914893C-13.333333333333332,711.5425531914893,-6.666666666666667,711.5425531914893,0,711.5425531914893" style="stroke: rgb(255, 127, 14); stroke-width: 2; fill: none;"/></g><text class="computeSig_label label" text-anchor="end" dx="-5" dy="0.5rem" fill="black" width="200" transform="translate(-180,625.531914893617)">32</text></g><g class="node computeNode h33 statics" transform="translate(210,0)" style="pointer-events: auto;"><g class="computeSig" stroke="black" style="stroke-width: 2;"><path class="linegg timeline hgroup_1" d="M-180,484.78723404255317C-173.33333333333334,484.78723404255317,-166.66666666666666,484.78723404255317,-160,484.78723404255317C-153.33333333333334,484.78723404255317,-146.66666666666666,484.78723404255317,-140,484.78723404255317C-133.33333333333334,484.78723404255317,-126.66666666666667,484.78723404255317,-120,484.78723404255317C-116.66666666666667,484.78723404255317,-113.33333333333333,484.78723404255317,-110,484.78723404255317C-106.66666666666667,484.78723404255317,-103.33333333333333,273.6702127659574,-100,62.5531914893617" style="stroke: rgb(31, 119, 180); stroke-width: 2; fill: none;"/><path class="linegg timeline hgroup_4" d="M-100,62.55319148936172C-93.33333333333333,62.55319148936172,-86.66666666666667,62.55319148936172,-80,62.55319148936172C-73.33333333333333,62.55319148936172,-66.66666666666667,62.55319148936172,-60,62.55319148936172C-56.666666666666664,62.5531914893617,-53.333333333333336,62.5531914893617,-50,62.5531914893617C-46.666666666666664,62.5531914893617,-43.333333333333336,191.56914893617022,-40,320.5851063829787" style="stroke: rgb(214, 39, 40); stroke-width: 2; fill: none;"/><path class="linegg timeline hgroup_5" d="M-40,320.5851063829787C-33.333333333333336,320.5851063829787,-26.666666666666668,320.5851063829787,-20,320.5851063829787C-13.333333333333332,320.5851063829787,-6.666666666666667,320.5851063829787,0,320.5851063829787" style="stroke: rgb(148, 103, 189); stroke-width: 2; fill: none;"/></g><text class="computeSig_label label" text-anchor="end" dx="-5" dy="0.5rem" fill="black" width="200" transform="translate(-180,484.78723404255317)">33</text></g><g class="node computeNode h34 statics" transform="translate(210,0)" style="pointer-events: auto;"><g class="computeSig" stroke="black" style="stroke-width: 2;"><path class="linegg timeline hgroup_1" d="M-180,594.2553191489361C-173.33333333333334,594.2553191489361,-166.66666666666666,594.2553191489361,-160,594.2553191489361C-153.33333333333334,594.2553191489361,-146.66666666666666,594.2553191489361,-140,594.2553191489361C-133.33333333333334,594.2553191489361,-126.66666666666667,594.2553191489361,-120,594.2553191489361C-113.33333333333333,594.2553191489361,-106.66666666666667,594.2553191489361,-100,594.2553191489361C-93.33333333333333,594.2553191489361,-86.66666666666667,594.2553191489361,-80,594.2553191489361C-73.33333333333333,594.2553191489361,-66.66666666666667,594.2553191489361,-60,594.2553191489361C-53.333333333333336,594.2553191489361,-46.666666666666664,594.2553191489361,-40,594.2553191489361C-33.333333333333336,594.2553191489361,-26.666666666666668,594.2553191489361,-20,594.2553191489361C-13.333333333333332,594.2553191489361,-6.666666666666667,594.2553191489361,0,594.2553191489361" style="stroke: rgb(31, 119, 180); stroke-width: 2; fill: none;"/></g><text class="computeSig_label label" text-anchor="end" dx="-5" dy="0.5rem" fill="black" width="200" transform="translate(-180,594.2553191489361)">34</text></g><g class="node computeNode h35 statics" transform="translate(210,0)" style="pointer-events: auto;"><g class="computeSig" stroke="black" style="stroke-width: 2;"><path class="linegg timeline hgroup_1" d="M-180,609.8936170212766C-173.33333333333334,609.8936170212766,-166.66666666666666,609.8936170212766,-160,609.8936170212766C-153.33333333333334,609.8936170212766,-146.66666666666666,609.8936170212766,-140,609.8936170212766C-133.33333333333334,609.8936170212766,-126.66666666666667,609.8936170212766,-120,609.8936170212766C-113.33333333333333,609.8936170212766,-106.66666666666667,609.8936170212766,-100,609.8936170212766C-93.33333333333333,609.8936170212766,-86.66666666666667,609.8936170212766,-80,609.8936170212766C-76.66666666666667,609.8936170212766,-73.33333333333333,609.8936170212766,-70,609.8936170212766C-66.66666666666667,609.8936170212766,-63.333333333333336,519.9734042553191,-60,430.0531914893617" style="stroke: rgb(31, 119, 180); stroke-width: 2; fill: none;"/><path class="linegg timeline hgroup_5" d="M-60,430.0531914893617C-56.666666666666664,430.0531914893617,-53.333333333333336,430.0531914893617,-50,430.0531914893617C-46.666666666666664,430.0531914893617,-43.333333333333336,562.9787234042553,-40,695.9042553191489" style="stroke: rgb(148, 103, 189); stroke-width: 2;"/><path class="linegg timeline hgroup_2" d="M-40,695.9042553191489C-33.333333333333336,695.9042553191489,-26.666666666666668,695.9042553191489,-20,695.9042553191489C-13.333333333333332,695.9042553191489,-6.666666666666667,695.9042553191489,0,695.9042553191489" style="stroke: rgb(255, 127, 14); stroke-width: 2; fill: none;"/></g><text class="computeSig_label label" text-anchor="end" dx="-5" dy="0.5rem" fill="black" width="200" transform="translate(-180,609.8936170212766)">35</text></g><g class="node computeNode h36 statics" transform="translate(210,0)" style="pointer-events: auto;"><g class="computeSig" stroke="black" style="stroke-width: 2;"><path class="linegg timeline hgroup_5" d="M-180,359.6808510638298C-173.33333333333334,359.6808510638298,-166.66666666666666,359.6808510638298,-160,359.6808510638298C-153.33333333333334,359.6808510638298,-146.66666666666666,359.6808510638298,-140,359.6808510638298C-133.33333333333334,359.6808510638298,-126.66666666666667,359.6808510638298,-120,359.6808510638298C-113.33333333333333,359.6808510638298,-106.66666666666667,359.6808510638298,-100,359.6808510638298C-93.33333333333333,359.6808510638298,-86.66666666666667,359.6808510638298,-80,359.6808510638298C-73.33333333333333,359.6808510638298,-66.66666666666667,359.6808510638298,-60,359.6808510638298C-53.333333333333336,359.6808510638298,-46.666666666666664,359.6808510638298,-40,359.6808510638298C-33.333333333333336,359.6808510638298,-26.666666666666668,359.6808510638298,-20,359.6808510638298C-13.333333333333332,359.6808510638298,-6.666666666666667,359.6808510638298,0,359.6808510638298" style="stroke: rgb(148, 103, 189); stroke-width: 2; fill: none;"/></g><text class="computeSig_label label" text-anchor="end" dx="-5" dy="0.5rem" fill="black" width="200" transform="translate(-180,359.6808510638298)">36</text></g><g class="node computeNode h37 statics" transform="translate(210,0)" style="pointer-events: auto;"><g class="computeSig" stroke="black" style="stroke-width: 2;"><path class="linegg timeline hgroup_1" d="M-180,516.063829787234C-173.33333333333334,516.063829787234,-166.66666666666666,516.063829787234,-160,516.063829787234C-153.33333333333334,516.063829787234,-146.66666666666666,516.063829787234,-140,516.063829787234C-133.33333333333334,516.063829787234,-126.66666666666667,516.063829787234,-120,516.063829787234C-113.33333333333333,516.063829787234,-106.66666666666667,516.063829787234,-100,516.063829787234C-96.66666666666667,516.063829787234,-93.33333333333333,516.063829787234,-90,516.063829787234C-86.66666666666667,516.063829787234,-83.33333333333333,453.51063829787233,-80,390.9574468085106" style="stroke: rgb(31, 119, 180); stroke-width: 2; fill: none;"/><path class="linegg timeline hgroup_5" d="M-80,390.9574468085106C-73.33333333333333,390.9574468085106,-66.66666666666667,390.9574468085106,-60,390.9574468085106C-53.333333333333336,390.9574468085106,-46.666666666666664,390.9574468085106,-40,390.9574468085106C-33.333333333333336,390.9574468085106,-26.666666666666668,390.9574468085106,-20,390.9574468085106C-13.333333333333332,390.9574468085106,-6.666666666666667,390.9574468085106,0,390.9574468085106" style="stroke: rgb(148, 103, 189); stroke-width: 2; fill: none;"/></g><text class="computeSig_label label" text-anchor="end" dx="-5" dy="0.5rem" fill="black" width="200" transform="translate(-180,516.063829787234)">37</text></g><g class="node computeNode h38 statics" transform="translate(210,0)" style="pointer-events: auto;"><g class="computeSig" stroke="black" style="stroke-width: 2;"><path class="linegg timeline hgroup_2" d="M-180,648.9893617021277C-173.33333333333334,648.9893617021277,-166.66666666666666,648.9893617021277,-160,648.9893617021277C-153.33333333333334,648.9893617021277,-146.66666666666666,648.9893617021277,-140,648.9893617021277C-136.66666666666666,648.9893617021277,-133.33333333333334,648.9893617021277,-130,648.9893617021277C-126.66666666666667,648.9893617021277,-123.33333333333333,516.063829787234,-120,383.13829787234044" style="stroke: rgb(255, 127, 14); stroke-width: 2; fill: none;"/><path class="linegg timeline hgroup_5" d="M-120,383.13829787234044C-113.33333333333333,383.13829787234044,-106.66666666666667,383.13829787234044,-100,383.13829787234044C-93.33333333333333,383.13829787234044,-86.66666666666667,383.13829787234044,-80,383.13829787234044C-73.33333333333333,383.13829787234044,-66.66666666666667,383.13829787234044,-60,383.13829787234044C-53.333333333333336,383.13829787234044,-46.666666666666664,383.13829787234044,-40,383.13829787234044C-36.666666666666664,383.13829787234044,-33.333333333333336,383.13829787234044,-30,383.13829787234044C-26.666666666666668,383.13829787234044,-23.333333333333332,308.85638297872345,-20,234.5744680851064" style="stroke: rgb(148, 103, 189); stroke-width: 2; fill: none;"/><path class="linegg timeline hgroup_3" d="M-20,234.5744680851064L0,234.5744680851064" style="stroke: rgb(44, 160, 44); stroke-width: 2; fill: none;"/></g><text class="computeSig_label label" text-anchor="end" dx="-5" dy="0.5rem" fill="black" width="200" transform="translate(-180,648.9893617021277)">38</text></g><g class="node computeNode h39 statics" transform="translate(210,0)" style="pointer-events: auto;"><g class="computeSig" stroke="black" style="stroke-width: 2;"><path class="linegg timeline hgroup_2" d="M-180,688.0851063829788C-173.33333333333334,688.0851063829788,-166.66666666666666,688.0851063829788,-160,688.0851063829788C-153.33333333333334,688.0851063829788,-146.66666666666666,688.0851063829788,-140,688.0851063829788C-133.33333333333334,688.0851063829788,-126.66666666666667,688.0851063829788,-120,688.0851063829788C-113.33333333333333,688.0851063829788,-106.66666666666667,688.0851063829788,-100,688.0851063829788C-93.33333333333333,688.0851063829788,-86.66666666666667,688.0851063829788,-80,688.0851063829788C-73.33333333333333,688.0851063829788,-66.66666666666667,688.0851063829788,-60,688.0851063829788C-56.666666666666664,688.0851063829788,-53.333333333333336,688.0851063829788,-50,688.0851063829788C-46.666666666666664,688.0851063829788,-43.333333333333336,473.0585106382979,-40,258.031914893617" style="stroke: rgb(255, 127, 14); stroke-width: 2; fill: none;"/><path class="linegg timeline hgroup_3" d="M-40,258.031914893617C-33.333333333333336,258.031914893617,-26.666666666666668,258.031914893617,-20,258.031914893617C-13.333333333333332,258.031914893617,-6.666666666666667,258.031914893617,0,258.031914893617" style="stroke: rgb(44, 160, 44); stroke-width: 2; fill: none;"/></g><text class="computeSig_label label" text-anchor="end" dx="-5" dy="0.5rem" fill="black" width="200" transform="translate(-180,688.0851063829788)">39</text></g><g class="node computeNode h40 statics" transform="translate(210,0)" style="pointer-events: auto;"><g class="computeSig" stroke="black" style="stroke-width: 2;"><path class="linegg timeline hgroup_3" d="M-180,226.75531914893617C-173.33333333333334,226.75531914893617,-166.66666666666666,226.75531914893617,-160,226.75531914893617C-153.33333333333334,226.75531914893617,-146.66666666666666,226.75531914893617,-140,226.75531914893617C-133.33333333333334,226.75531914893617,-126.66666666666667,226.75531914893617,-120,226.75531914893617C-116.66666666666667,226.75531914893617,-113.33333333333333,226.75531914893617,-110,226.75531914893617C-106.66666666666667,226.75531914893617,-103.33333333333333,433.9627659574468,-100,641.1702127659574" style="stroke: rgb(44, 160, 44); stroke-width: 2; fill: none;"/><path class="linegg timeline hgroup_2" d="M-100,641.1702127659574C-93.33333333333333,641.1702127659574,-86.66666666666667,641.1702127659574,-80,641.1702127659574C-73.33333333333333,641.1702127659574,-66.66666666666667,641.1702127659574,-60,641.1702127659574C-56.666666666666664,641.1702127659574,-53.333333333333336,641.1702127659574,-50,641.1702127659574C-46.666666666666664,641.1702127659574,-43.333333333333336,508.2446808510638,-40,375.31914893617017" style="stroke: rgb(255, 127, 14); stroke-width: 2; fill: none;"/><path class="linegg timeline hgroup_5" d="M-40,375.31914893617017C-33.333333333333336,375.31914893617017,-26.666666666666668,375.31914893617017,-20,375.31914893617017C-13.333333333333332,375.31914893617017,-6.666666666666667,375.31914893617017,0,375.31914893617017" style="stroke: rgb(148, 103, 189); stroke-width: 2; fill: none;"/></g><text class="computeSig_label label" text-anchor="end" dx="-5" dy="0.5rem" fill="black" width="200" transform="translate(-180,226.75531914893617)">40</text></g><g class="node computeNode h41 statics" transform="translate(210,0)" style="pointer-events: auto;"><g class="computeSig" stroke="black" style="stroke-width: 2;"><path class="linegg timeline hgroup_1" d="M-180,539.5212765957447C-173.33333333333334,539.5212765957447,-166.66666666666666,539.5212765957447,-160,539.5212765957447C-153.33333333333334,539.5212765957447,-146.66666666666666,539.5212765957447,-140,539.5212765957447C-133.33333333333334,539.5212765957447,-126.66666666666667,539.5212765957447,-120,539.5212765957447C-113.33333333333333,539.5212765957447,-106.66666666666667,539.5212765957447,-100,539.5212765957447C-93.33333333333333,539.5212765957447,-86.66666666666667,539.5212765957447,-80,539.5212765957447C-73.33333333333333,539.5212765957447,-66.66666666666667,539.5212765957447,-60,539.5212765957447C-56.666666666666664,539.5212765957447,-53.333333333333336,539.5212765957447,-50,539.5212765957447C-46.666666666666664,539.5212765957447,-43.333333333333336,476.968085106383,-40,414.4148936170213" style="stroke: rgb(31, 119, 180); stroke-width: 2; fill: none;"/><path class="linegg timeline hgroup_5" d="M-40,414.4148936170213C-33.333333333333336,414.4148936170213,-26.666666666666668,414.4148936170213,-20,414.4148936170213C-13.333333333333332,414.4148936170213,-6.666666666666667,414.4148936170213,0,414.4148936170213" style="stroke: rgb(148, 103, 189); stroke-width: 2; fill: none;"/></g><text class="computeSig_label label" text-anchor="end" dx="-5" dy="0.5rem" fill="black" width="200" transform="translate(-180,539.5212765957447)">41</text></g><g class="node computeNode h42 statics" transform="translate(210,0)" style="pointer-events: auto;"><g class="computeSig" stroke="black" style="stroke-width: 2;"><path class="linegg timeline hgroup_2" d="M-180,727.1808510638298C-173.33333333333334,727.1808510638298,-166.66666666666666,727.1808510638298,-160,727.1808510638298C-153.33333333333334,727.1808510638298,-146.66666666666666,727.1808510638298,-140,727.1808510638298C-133.33333333333334,727.1808510638298,-126.66666666666667,727.1808510638298,-120,727.1808510638298C-113.33333333333333,727.1808510638298,-106.66666666666667,727.1808510638298,-100,727.1808510638298C-93.33333333333333,727.1808510638298,-86.66666666666667,727.1808510638298,-80,727.1808510638298C-73.33333333333333,727.1808510638298,-66.66666666666667,727.1808510638298,-60,727.1808510638298C-53.333333333333336,727.1808510638298,-46.666666666666664,727.1808510638298,-40,727.1808510638298C-33.333333333333336,727.1808510638298,-26.666666666666668,727.1808510638298,-20,727.1808510638298C-13.333333333333332,727.1808510638298,-6.666666666666667,727.1808510638298,0,727.1808510638298" style="stroke: rgb(255, 127, 14); stroke-width: 2; fill: none;"/></g><text class="computeSig_label label" text-anchor="end" dx="-5" dy="0.5rem" fill="black" width="200" transform="translate(-180,727.1808510638298)">42</text></g><g class="node computeNode h43 statics" transform="translate(210,0)" style="pointer-events: auto;"><g class="computeSig" stroke="black" style="stroke-width: 2;"><path class="linegg timeline hgroup_3" d="M-180,211.11702127659578C-173.33333333333334,211.11702127659578,-166.66666666666666,211.11702127659578,-160,211.11702127659578C-153.33333333333334,211.11702127659578,-146.66666666666666,211.11702127659578,-140,211.11702127659578C-136.66666666666666,211.11702127659575,-133.33333333333334,211.11702127659575,-130,211.11702127659575C-126.66666666666667,211.11702127659575,-123.33333333333333,273.67021276595744,-120,336.22340425531917" style="stroke: rgb(44, 160, 44); stroke-width: 2; fill: none;"/><path class="linegg timeline hgroup_5" d="M-120,336.22340425531917C-116.66666666666667,336.22340425531917,-113.33333333333333,336.22340425531917,-110,336.22340425531917C-106.66666666666667,336.22340425531917,-103.33333333333333,418.3244680851064,-100,500.4255319148936" style="stroke: rgb(148, 103, 189); stroke-width: 2;"/><path class="linegg timeline hgroup_1" d="M-100,500.4255319148936C-93.33333333333333,500.4255319148936,-86.66666666666667,500.4255319148936,-80,500.4255319148936C-73.33333333333333,500.4255319148936,-66.66666666666667,500.4255319148936,-60,500.4255319148936C-56.666666666666664,500.4255319148936,-53.333333333333336,500.4255319148936,-50,500.4255319148936C-46.666666666666664,500.4255319148936,-43.333333333333336,418.3244680851064,-40,336.22340425531917" style="stroke: rgb(31, 119, 180); stroke-width: 2; fill: none;"/><path class="linegg timeline hgroup_5" d="M-40,336.22340425531917C-33.333333333333336,336.22340425531917,-26.666666666666668,336.22340425531917,-20,336.22340425531917C-16.666666666666668,336.22340425531917,-13.333333333333334,336.22340425531917,-10,336.22340425531917C-6.666666666666666,336.22340425531917,-3.3333333333333335,273.67021276595744,0,211.11702127659575" style="stroke: rgb(148, 103, 189); stroke-width: 2; fill: none;"/><path class="linegg timeline hgroup_3" d="M0,211.11702127659575Z" style="stroke: rgb(44, 160, 44); stroke-width: 2;"/></g><text class="computeSig_label label" text-anchor="end" dx="-5" dy="0.5rem" fill="black" width="200" transform="translate(-180,211.11702127659575)">43</text></g><g class="node computeNode h44 statics" transform="translate(210,0)" style="pointer-events: auto;"><g class="computeSig" stroke="black" style="stroke-width: 2;"><path class="linegg timeline hgroup_4" d="M-180,15.638297872340445C-173.33333333333334,15.638297872340445,-166.66666666666666,15.638297872340445,-160,15.638297872340445C-153.33333333333334,15.638297872340445,-146.66666666666666,15.638297872340445,-140,15.638297872340445C-133.33333333333334,15.638297872340445,-126.66666666666667,15.638297872340445,-120,15.638297872340445C-113.33333333333333,15.638297872340445,-106.66666666666667,15.638297872340445,-100,15.638297872340445C-93.33333333333333,15.638297872340445,-86.66666666666667,15.638297872340445,-80,15.638297872340445C-73.33333333333333,15.638297872340445,-66.66666666666667,15.638297872340445,-60,15.638297872340445C-53.333333333333336,15.638297872340445,-46.666666666666664,15.638297872340445,-40,15.638297872340445C-33.333333333333336,15.638297872340445,-26.666666666666668,15.638297872340445,-20,15.638297872340445C-13.333333333333332,15.638297872340445,-6.666666666666667,15.638297872340445,0,15.638297872340445" style="stroke: rgb(214, 39, 40); stroke-width: 2; fill: none;"/></g><text class="computeSig_label label" text-anchor="end" dx="-5" dy="0.5rem" fill="black" width="200" transform="translate(-180,15.638297872340425)">44</text></g><g class="node computeNode h45 statics" transform="translate(210,0)" style="pointer-events: auto;"><g class="computeSig" stroke="black" style="stroke-width: 2;"><path class="linegg timeline hgroup_4" d="M-180,39.09574468085111C-173.33333333333334,39.09574468085111,-166.66666666666666,39.09574468085111,-160,39.09574468085111C-153.33333333333334,39.09574468085111,-146.66666666666666,39.09574468085111,-140,39.09574468085111C-133.33333333333334,39.09574468085111,-126.66666666666667,39.09574468085111,-120,39.09574468085111C-113.33333333333333,39.09574468085111,-106.66666666666667,39.09574468085111,-100,39.09574468085111C-93.33333333333333,39.09574468085111,-86.66666666666667,39.09574468085111,-80,39.09574468085111C-73.33333333333333,39.09574468085111,-66.66666666666667,39.09574468085111,-60,39.09574468085111C-56.666666666666664,39.09574468085106,-53.333333333333336,39.09574468085106,-50,39.09574468085106C-46.666666666666664,39.09574468085106,-43.333333333333336,242.3936170212766,-40,445.69148936170217" style="stroke: rgb(214, 39, 40); stroke-width: 2; fill: none;"/><path class="linegg timeline hgroup_1" d="M-40,445.69148936170217C-33.333333333333336,445.69148936170217,-26.666666666666668,445.69148936170217,-20,445.69148936170217C-13.333333333333332,445.69148936170217,-6.666666666666667,445.69148936170217,0,445.69148936170217" style="stroke: rgb(31, 119, 180); stroke-width: 2; fill: none;"/></g><text class="computeSig_label label" text-anchor="end" dx="-5" dy="0.5rem" fill="black" width="200" transform="translate(-180,39.09574468085106)">45</text></g><g class="node computeNode h46 statics" transform="translate(210,0)" style="pointer-events: auto;"><g class="computeSig" stroke="black" style="stroke-width: 2;"><path class="linegg timeline hgroup_1" d="M-180,508.2446808510639C-173.33333333333334,508.2446808510639,-166.66666666666666,508.2446808510639,-160,508.2446808510639C-153.33333333333334,508.2446808510639,-146.66666666666666,508.2446808510639,-140,508.2446808510639C-136.66666666666666,508.2446808510639,-133.33333333333334,508.2446808510639,-130,508.2446808510639C-126.66666666666667,508.2446808510639,-123.33333333333333,437.87234042553195,-120,367.5" style="stroke: rgb(31, 119, 180); stroke-width: 2; fill: none;"/><path class="linegg timeline hgroup_5" d="M-120,367.5C-113.33333333333333,367.5,-106.66666666666667,367.5,-100,367.5C-93.33333333333333,367.5,-86.66666666666667,367.5,-80,367.5C-73.33333333333333,367.5,-66.66666666666667,367.5,-60,367.5C-56.666666666666664,367.5,-53.333333333333336,367.5,-50,367.5C-46.666666666666664,367.5,-43.333333333333336,293.218085106383,-40,218.93617021276594" style="stroke: rgb(148, 103, 189); stroke-width: 2; fill: none;"/><path class="linegg timeline hgroup_3" d="M-40,218.93617021276594C-33.333333333333336,218.93617021276594,-26.666666666666668,218.93617021276594,-20,218.93617021276594C-13.333333333333332,218.93617021276594,-6.666666666666667,218.93617021276594,0,218.93617021276594" style="stroke: rgb(44, 160, 44); stroke-width: 2; fill: none;"/></g><text class="computeSig_label label" text-anchor="end" dx="-5" dy="0.5rem" fill="black" width="200" transform="translate(-180,508.2446808510639)">46</text></g><g class="node computeNode h47 statics" transform="translate(210,0)" style="pointer-events: auto;"><g class="computeSig" stroke="black" style="stroke-width: 2;"><path class="linegg timeline hgroup_1" d="M-180,617.7127659574469C-173.33333333333334,617.7127659574469,-166.66666666666666,617.7127659574469,-160,617.7127659574469C-153.33333333333334,617.7127659574469,-146.66666666666666,617.7127659574469,-140,617.7127659574469C-136.66666666666666,617.7127659574469,-133.33333333333334,617.7127659574469,-130,617.7127659574469C-126.66666666666667,617.7127659574469,-123.33333333333333,660.718085106383,-120,703.7234042553192" style="stroke: rgb(31, 119, 180); stroke-width: 2; fill: none;"/><path class="linegg timeline hgroup_2" d="M-120,703.7234042553192C-113.33333333333333,703.7234042553192,-106.66666666666667,703.7234042553192,-100,703.7234042553192C-93.33333333333333,703.7234042553192,-86.66666666666667,703.7234042553192,-80,703.7234042553192C-73.33333333333333,703.7234042553192,-66.66666666666667,703.7234042553192,-60,703.7234042553192C-53.333333333333336,703.7234042553192,-46.666666666666664,703.7234042553192,-40,703.7234042553192C-33.333333333333336,703.7234042553192,-26.666666666666668,703.7234042553192,-20,703.7234042553192C-13.333333333333332,703.7234042553192,-6.666666666666667,703.7234042553192,0,703.7234042553192" style="stroke: rgb(255, 127, 14); stroke-width: 2; fill: none;"/></g><text class="computeSig_label label" text-anchor="end" dx="-5" dy="0.5rem" fill="black" width="200" transform="translate(-180,617.7127659574469)">47</text></g><g class="node computeNode h48 statics" transform="translate(210,0)" style="pointer-events: auto;"><g class="computeSig" stroke="black" style="stroke-width: 2;"><path class="linegg timeline hgroup_3" d="M-180,148.563829787234C-173.33333333333334,148.563829787234,-166.66666666666666,148.563829787234,-160,148.563829787234C-153.33333333333334,148.563829787234,-146.66666666666666,148.563829787234,-140,148.563829787234C-133.33333333333334,148.563829787234,-126.66666666666667,148.563829787234,-120,148.563829787234C-113.33333333333333,148.563829787234,-106.66666666666667,148.563829787234,-100,148.563829787234C-93.33333333333333,148.563829787234,-86.66666666666667,148.563829787234,-80,148.563829787234C-73.33333333333333,148.563829787234,-66.66666666666667,148.563829787234,-60,148.563829787234C-53.333333333333336,148.563829787234,-46.666666666666664,148.563829787234,-40,148.563829787234C-33.333333333333336,148.563829787234,-26.666666666666668,148.563829787234,-20,148.563829787234C-16.666666666666668,148.56382978723403,-13.333333333333334,148.56382978723403,-10,148.56382978723403C-6.666666666666666,148.56382978723403,-3.3333333333333335,301.03723404255317,0,453.51063829787233" style="stroke: rgb(44, 160, 44); stroke-width: 2; fill: none;"/><path class="linegg timeline hgroup_1" d="M0,453.51063829787233Z" style="stroke: rgb(31, 119, 180); stroke-width: 2;"/></g><text class="computeSig_label label" text-anchor="end" dx="-5" dy="0.5rem" fill="black" width="200" transform="translate(-180,148.56382978723403)">48</text></g><g class="node computeNode h49 statics" transform="translate(210,0)" style="pointer-events: auto;"><g class="computeSig" stroke="black" style="stroke-width: 2;"><path class="linegg timeline hgroup_3" d="M-180,132.92553191489367C-173.33333333333334,132.92553191489367,-166.66666666666666,132.92553191489367,-160,132.92553191489367C-153.33333333333334,132.92553191489367,-146.66666666666666,132.92553191489367,-140,132.92553191489367C-133.33333333333334,132.92553191489367,-126.66666666666667,132.92553191489367,-120,132.92553191489367C-113.33333333333333,132.92553191489367,-106.66666666666667,132.92553191489367,-100,132.92553191489367C-93.33333333333333,132.92553191489367,-86.66666666666667,132.92553191489367,-80,132.92553191489367C-73.33333333333333,132.92553191489367,-66.66666666666667,132.92553191489367,-60,132.92553191489367C-53.333333333333336,132.92553191489367,-46.666666666666664,132.92553191489367,-40,132.92553191489367C-33.333333333333336,132.92553191489367,-26.666666666666668,132.92553191489367,-20,132.92553191489367C-13.333333333333332,132.92553191489367,-6.666666666666667,132.92553191489367,0,132.92553191489367" style="stroke: rgb(44, 160, 44); stroke-width: 2; fill: none;"/></g><text class="computeSig_label label" text-anchor="end" dx="-5" dy="0.5rem" fill="black" width="200" transform="translate(-180,132.92553191489364)">49</text></g><g class="node computeNode h50 statics" transform="translate(210,0)" style="pointer-events: auto;"><g class="computeSig" stroke="black" style="stroke-width: 2;"><path class="linegg timeline hgroup_2" d="M-180,735C-173.33333333333334,735,-166.66666666666666,735,-160,735C-153.33333333333334,735,-146.66666666666666,735,-140,735C-133.33333333333334,735,-126.66666666666667,735,-120,735C-113.33333333333333,735,-106.66666666666667,735,-100,735C-93.33333333333333,735,-86.66666666666667,735,-80,735C-73.33333333333333,735,-66.66666666666667,735,-60,735C-53.333333333333336,735,-46.666666666666664,735,-40,735C-33.333333333333336,735,-26.666666666666668,735,-20,735C-13.333333333333332,735,-6.666666666666667,735,0,735" style="stroke: rgb(255, 127, 14); stroke-width: 2; fill: none;"/></g><text class="computeSig_label label" text-anchor="end" dx="-5" dy="0.5rem" fill="black" width="200" transform="translate(-180,735)">50</text></g></g><rect class="fisheyeLayer" style="opacity: 0; pointer-events: none;" width="180" height="780" transform="translate(120,0)"/><g class="table header" transform="translate(600,0)"><g class="back"><path style="fill: rgb(221, 221, 221);"/></g></g></g><g class="timebox hide" transform="translate(40,20)" dy="1rem" style="font-size: 16px;"/><circle id="tipfollowscursor"/></svg>